<?xml version="1.0" encoding="utf-8"?>
<!-- Generator: Adobe Illustrator 15.0.0, SVG Export Plug-In . SVG Version: 6.00 Build 0)  -->
<!DOCTYPE svg PUBLIC "-//W3C//DTD SVG 1.1//EN" "http://www.w3.org/Graphics/SVG/1.1/DTD/svg11.dtd">
<svg version="1.1" id="Layer_1" xmlns="http://www.w3.org/2000/svg" xmlns:xlink="http://www.w3.org/1999/xlink" x="0px" y="0px"
	 width="841.891px" height="595.279px" viewBox="0 0 841.891 595.279" enable-background="new 0 0 841.891 595.279"
	 xml:space="preserve">
<g>
	<polygon fill="#D1D3D4" stroke="#231F20" stroke-width="0.5347" stroke-miterlimit="2.4142" points="385.572,263.316 
		456.438,263.316 456.438,334.178 385.572,334.178 	"/>
	<polygon fill="#92A09C" stroke="#231F20" stroke-width="0.5347" stroke-miterlimit="2.4142" points="405.174,269.373 
		397.791,269.373 397.791,274.397 405.174,274.397 	"/>
	<polygon fill="#92A09C" stroke="#231F20" stroke-width="0.5347" stroke-miterlimit="2.4142" points="393.324,269.724 
		391.552,269.724 391.552,274.153 393.324,274.153 	"/>
	<polygon fill="#92A09C" stroke="#231F20" stroke-width="0.5347" stroke-miterlimit="2.4142" points="408.717,269.717 
		406.945,269.717 406.945,274.145 408.717,274.145 	"/>
	<polygon fill="#92A09C" stroke="#231F20" stroke-width="0.5347" stroke-miterlimit="2.4142" points="447.13,269.594 
		439.745,269.594 439.745,274.616 447.13,274.616 	"/>
	<polygon fill="#92A09C" stroke="#231F20" stroke-width="0.5347" stroke-miterlimit="2.4142" points="435.277,269.944 
		433.508,269.944 433.508,274.372 435.277,274.372 	"/>
	<polygon fill="#92A09C" stroke="#231F20" stroke-width="0.5347" stroke-miterlimit="2.4142" points="450.671,269.939 
		448.901,269.939 448.901,274.367 450.671,274.367 	"/>
	
		<line fill="none" stroke="#231F20" stroke-width="1.2376" stroke-linecap="round" stroke-miterlimit="2.4142" x1="396.72" y1="309.482" x2="404.238" y2="309.482"/>
	<path fill="#FFFFFF" stroke="#231F20" stroke-width="0.5347" stroke-miterlimit="2.4142" d="M421.004,292.547
		c3.426,0,6.203,2.775,6.203,6.197c0,3.425-2.777,6.203-6.203,6.203c-3.422,0-6.2-2.778-6.2-6.203
		C414.804,295.323,417.581,292.547,421.004,292.547z"/>
	<polygon fill="#FFFEF6" stroke="#231F20" stroke-width="0.5347" stroke-miterlimit="2.4142" points="392.785,276.461 
		392.785,268.805 394.002,267.604 407.55,267.604 407.55,276.461 	"/>
	<polygon fill="#FFFEF6" stroke="#231F20" stroke-width="0.5347" stroke-miterlimit="2.4142" points="392.785,273.93 
		392.785,270.091 391.901,270.091 391.901,273.93 	"/>
	<polygon fill="#FFFEF6" stroke="#231F20" stroke-width="0.5347" stroke-miterlimit="2.4142" points="408.437,273.949 
		408.437,270.111 407.55,270.111 407.55,273.949 	"/>
	<path fill="#F0E92B" stroke="#231F20" stroke-width="0.5347" stroke-miterlimit="2.4142" d="M393.709,274.761v-5.272
		c0-0.539,0.437-0.976,0.976-0.976h11.035c0.537,0,0.979,0.437,0.979,0.976v5.272c0,0.537-0.442,0.979-0.979,0.979h-11.035
		C394.146,275.74,393.709,275.298,393.709,274.761L393.709,274.761z"/>
	<polygon fill="#FFFEF6" stroke="#231F20" stroke-width="0.5347" stroke-miterlimit="2.4142" points="434.701,276.415 
		434.701,268.76 435.915,267.556 449.465,267.556 449.465,276.415 	"/>
	<polygon fill="#FFFEF6" stroke="#231F20" stroke-width="0.5347" stroke-miterlimit="2.4142" points="434.701,273.886 
		434.701,270.045 433.814,270.045 433.814,273.886 	"/>
	<polygon fill="#FFFEF6" stroke="#231F20" stroke-width="0.5347" stroke-miterlimit="2.4142" points="450.349,273.903 
		450.349,270.067 449.465,270.067 449.465,273.903 	"/>
	<path fill="#F0E92B" stroke="#231F20" stroke-width="0.5347" stroke-miterlimit="2.4142" d="M435.62,274.718v-5.272
		c0-0.542,0.443-0.979,0.98-0.979h11.034c0.536,0,0.977,0.438,0.977,0.979v5.272c0,0.537-0.44,0.976-0.977,0.976H436.6
		C436.063,275.692,435.62,275.252,435.62,274.718L435.62,274.718z"/>
	
		<line fill="none" stroke="#231F20" stroke-width="1.2376" stroke-linecap="round" stroke-miterlimit="2.4142" x1="396.839" y1="288.441" x2="404.357" y2="288.441"/>
	
		<line fill="none" stroke="#231F20" stroke-width="1.2376" stroke-linecap="round" stroke-miterlimit="2.4142" x1="400.6" y1="292.199" x2="400.6" y2="284.677"/>
	
		<line fill="none" stroke="#231F20" stroke-width="1.2376" stroke-linecap="round" stroke-miterlimit="2.4142" x1="438.798" y1="309.482" x2="446.317" y2="309.482"/>
	
		<line fill="none" stroke="#231F20" stroke-width="1.2376" stroke-linecap="round" stroke-miterlimit="2.4142" x1="438.918" y1="288.441" x2="446.435" y2="288.441"/>
	
		<line fill="none" stroke="#231F20" stroke-width="1.2376" stroke-linecap="round" stroke-miterlimit="2.4142" x1="442.678" y1="292.199" x2="442.678" y2="284.677"/>
</g>
</svg>
