<?xml version="1.0" encoding="utf-8"?>
<!-- Generator: Adobe Illustrator 15.0.0, SVG Export Plug-In . SVG Version: 6.00 Build 0)  -->
<!DOCTYPE svg PUBLIC "-//W3C//DTD SVG 1.1//EN" "http://www.w3.org/Graphics/SVG/1.1/DTD/svg11.dtd">
<svg version="1.1" id="Layer_1" xmlns="http://www.w3.org/2000/svg" xmlns:xlink="http://www.w3.org/1999/xlink" x="0px" y="0px"
	 width="841.89px" height="595.28px" viewBox="0 0 841.89 595.28" enable-background="new 0 0 841.89 595.28" xml:space="preserve">
<polygon fill-rule="evenodd" clip-rule="evenodd" fill="#D1D3D4" stroke="#231F20" stroke-width="0.216" stroke-miterlimit="2.4142" points="
	406.69,284.433 435.32,284.433 435.32,313.062 406.69,313.062 406.69,284.433 "/>
<polygon fill-rule="evenodd" clip-rule="evenodd" fill="#92A09C" stroke="#231F20" stroke-width="0.216" stroke-miterlimit="2.4142" points="
	414.609,286.88 411.627,286.88 411.627,288.909 414.609,288.909 414.609,286.88 "/>
<polygon fill-rule="evenodd" clip-rule="evenodd" fill="#92A09C" stroke="#231F20" stroke-width="0.216" stroke-miterlimit="2.4142" points="
	409.822,287.022 409.106,287.022 409.106,288.811 409.822,288.811 409.822,287.022 "/>
<polygon fill-rule="evenodd" clip-rule="evenodd" fill="#92A09C" stroke="#231F20" stroke-width="0.216" stroke-miterlimit="2.4142" points="
	416.041,287.019 415.325,287.019 415.325,288.808 416.041,288.808 416.041,287.019 "/>
<polygon fill-rule="evenodd" clip-rule="evenodd" fill="#92A09C" stroke="#231F20" stroke-width="0.216" stroke-miterlimit="2.4142" points="
	431.559,286.969 428.576,286.969 428.576,288.998 431.559,288.998 431.559,286.969 "/>
<polygon fill-rule="evenodd" clip-rule="evenodd" fill="#92A09C" stroke="#231F20" stroke-width="0.216" stroke-miterlimit="2.4142" points="
	426.771,287.111 426.056,287.111 426.056,288.9 426.771,288.9 426.771,287.111 "/>
<polygon fill-rule="evenodd" clip-rule="evenodd" fill="#92A09C" stroke="#231F20" stroke-width="0.216" stroke-miterlimit="2.4142" points="
	432.99,287.109 432.275,287.109 432.275,288.898 432.99,288.898 432.99,287.109 "/>
<line fill="none" stroke="#231F20" stroke-width="0.5" stroke-linecap="round" stroke-miterlimit="2.4142" x1="411.194" y1="303.084" x2="414.231" y2="303.084"/>
<circle fill="#FFFFFF" stroke="#231F20" stroke-width="0.216" stroke-miterlimit="2.4142" cx="421.005" cy="298.747" r="2.505"/>
<polygon fill-rule="evenodd" clip-rule="evenodd" fill="#FFFEF6" stroke="#231F20" stroke-width="0.216" stroke-miterlimit="2.4142" points="
	409.604,289.743 409.604,286.651 410.095,286.165 415.569,286.165 415.569,289.743 409.604,289.743 "/>
<polygon fill-rule="evenodd" clip-rule="evenodd" fill="#FFFEF6" stroke="#231F20" stroke-width="0.216" stroke-miterlimit="2.4142" points="
	409.604,288.721 409.604,287.17 409.247,287.17 409.247,288.721 409.604,288.721 "/>
<polygon fill-rule="evenodd" clip-rule="evenodd" fill="#FFFEF6" stroke="#231F20" stroke-width="0.216" stroke-miterlimit="2.4142" points="
	415.927,288.729 415.927,287.178 415.569,287.178 415.569,288.729 415.927,288.729 "/>
<path fill-rule="evenodd" clip-rule="evenodd" fill="#F0E92B" stroke="#231F20" stroke-width="0.216" stroke-miterlimit="2.4142" d="
	M409.977,289.057v-2.13c0-0.218,0.177-0.395,0.395-0.395h4.458c0.217,0,0.395,0.177,0.395,0.395v2.13
	c0,0.217-0.178,0.395-0.395,0.395h-4.458C410.154,289.452,409.977,289.274,409.977,289.057L409.977,289.057z"/>
<polygon fill-rule="evenodd" clip-rule="evenodd" fill="#FFFEF6" stroke="#231F20" stroke-width="0.216" stroke-miterlimit="2.4142" points="
	426.538,289.725 426.538,286.632 427.029,286.146 432.502,286.146 432.502,289.725 426.538,289.725 "/>
<polygon fill-rule="evenodd" clip-rule="evenodd" fill="#FFFEF6" stroke="#231F20" stroke-width="0.216" stroke-miterlimit="2.4142" points="
	426.538,288.703 426.538,287.152 426.18,287.152 426.18,288.703 426.538,288.703 "/>
<polygon fill-rule="evenodd" clip-rule="evenodd" fill="#FFFEF6" stroke="#231F20" stroke-width="0.216" stroke-miterlimit="2.4142" points="
	432.86,288.71 432.86,287.16 432.502,287.16 432.502,288.71 432.86,288.71 "/>
<path fill-rule="evenodd" clip-rule="evenodd" fill="#F0E92B" stroke="#231F20" stroke-width="0.216" stroke-miterlimit="2.4142" d="
	M426.91,289.039v-2.13c0-0.218,0.178-0.395,0.395-0.395h4.458c0.217,0,0.395,0.177,0.395,0.395v2.13
	c0,0.217-0.178,0.395-0.395,0.395h-4.458C427.088,289.433,426.91,289.255,426.91,289.039L426.91,289.039z"/>
<line fill="none" stroke="#231F20" stroke-width="0.5" stroke-linecap="round" stroke-miterlimit="2.4142" x1="411.242" y1="294.583" x2="414.279" y2="294.583"/>
<line fill="none" stroke="#231F20" stroke-width="0.5" stroke-linecap="round" stroke-miterlimit="2.4142" x1="412.761" y1="296.102" x2="412.761" y2="293.063"/>
<line fill="none" stroke="#231F20" stroke-width="0.5" stroke-linecap="round" stroke-miterlimit="2.4142" x1="428.193" y1="303.084" x2="431.231" y2="303.084"/>
<line fill="none" stroke="#231F20" stroke-width="0.5" stroke-linecap="round" stroke-miterlimit="2.4142" x1="428.242" y1="294.583" x2="431.279" y2="294.583"/>
<line fill="none" stroke="#231F20" stroke-width="0.5" stroke-linecap="round" stroke-miterlimit="2.4142" x1="429.761" y1="296.102" x2="429.761" y2="293.063"/>
</svg>
