<?xml version="1.0" encoding="utf-8"?>
<!-- Generator: Adobe Illustrator 15.0.0, SVG Export Plug-In . SVG Version: 6.00 Build 0)  -->
<!DOCTYPE svg PUBLIC "-//W3C//DTD SVG 1.1//EN" "http://www.w3.org/Graphics/SVG/1.1/DTD/svg11.dtd">
<svg version="1.1" id="Layer_1" xmlns="http://www.w3.org/2000/svg" xmlns:xlink="http://www.w3.org/1999/xlink" x="0px" y="0px"
	 width="841.891px" height="595.279px" viewBox="0 0 841.891 595.279" enable-background="new 0 0 841.891 595.279"
	 xml:space="preserve">
<rect x="430.487" y="286.575" fill="#D1D3D4" stroke="#231F20" stroke-width="0.4263" stroke-miterlimit="2.4142" width="56.692" height="25.512"/>
<rect x="456.937" y="297.213" fill="#9CA6A0" width="5.887" height="4.001"/>
<rect x="456.937" y="297.213" fill="none" stroke="#1A1A18" stroke-width="0.4263" stroke-miterlimit="22.9256" width="5.887" height="4.001"/>
<rect x="451.965" y="297.49" fill="#9CA6A0" width="1.413" height="3.531"/>
<rect x="451.965" y="297.49" fill="none" stroke="#1A1A18" stroke-width="0.4263" stroke-miterlimit="22.9256" width="1.413" height="3.531"/>
<rect x="464.237" y="297.487" fill="#9CA6A0" width="1.411" height="3.531"/>
<rect x="464.237" y="297.487" fill="none" stroke="#1A1A18" stroke-width="0.4263" stroke-miterlimit="22.9256" width="1.411" height="3.531"/>
<polygon fill="#FFFDF9" points="452.948,302.861 452.948,296.758 453.916,295.8 464.719,295.8 464.719,302.861 "/>
<polygon fill="none" stroke="#1A1A18" stroke-width="0.4263" stroke-miterlimit="22.9256" points="452.948,302.861 452.948,296.758 
	453.916,295.8 464.719,295.8 464.719,302.861 "/>
<rect x="452.238" y="297.785" fill="#FFFDF9" width="0.708" height="3.061"/>
<rect x="452.238" y="297.785" fill="none" stroke="#1A1A18" stroke-width="0.4263" stroke-miterlimit="22.9256" width="0.708" height="3.061"/>
<rect x="464.719" y="297.801" fill="#FFFDF9" width="0.706" height="3.061"/>
<rect x="464.719" y="297.801" fill="none" stroke="#1A1A18" stroke-width="0.4263" stroke-miterlimit="22.9256" width="0.706" height="3.061"/>
<path fill="#F3E500" d="M453.68,301.509v-4.206c0-0.428,0.351-0.779,0.778-0.779h8.801c0.43,0,0.781,0.351,0.781,0.779v4.206
	c0,0.428-0.352,0.779-0.781,0.779h-8.801C454.029,302.286,453.68,301.935,453.68,301.509z"/>
<path fill="none" stroke="#1A1A18" stroke-width="0.4263" stroke-miterlimit="22.9256" d="M453.68,301.509v-4.206
	c0-0.428,0.351-0.779,0.778-0.779h8.801c0.43,0,0.781,0.351,0.781,0.779v4.206c0,0.428-0.352,0.779-0.781,0.779h-8.801
	C454.029,302.286,453.68,301.935,453.68,301.509z"/>
<line fill="none" stroke="#231F20" stroke-width="0.7895" stroke-linecap="round" stroke-miterlimit="2.4142" x1="435.121" y1="308.749" x2="439.92" y2="308.749"/>
<line fill="none" stroke="#231F20" stroke-width="0.7895" stroke-linecap="round" stroke-miterlimit="2.4142" x1="435.218" y1="291.97" x2="440.014" y2="291.97"/>
<line fill="none" stroke="#231F20" stroke-width="0.7895" stroke-linecap="round" stroke-miterlimit="2.4142" x1="437.615" y1="294.366" x2="437.615" y2="289.571"/>
<line fill="none" stroke="#231F20" stroke-width="0.7895" stroke-linecap="round" stroke-miterlimit="2.4142" x1="477.043" y1="308.749" x2="481.837" y2="308.749"/>
<line fill="none" stroke="#231F20" stroke-width="0.7895" stroke-linecap="round" stroke-miterlimit="2.4142" x1="477.137" y1="291.97" x2="481.933" y2="291.97"/>
<line fill="none" stroke="#231F20" stroke-width="0.7895" stroke-linecap="round" stroke-miterlimit="2.4142" x1="479.535" y1="294.366" x2="479.535" y2="289.571"/>
</svg>
