<?xml version="1.0" encoding="utf-8"?>
<!-- Generator: Adobe Illustrator 15.0.0, SVG Export Plug-In . SVG Version: 6.00 Build 0)  -->
<!DOCTYPE svg PUBLIC "-//W3C//DTD SVG 1.1//EN" "http://www.w3.org/Graphics/SVG/1.1/DTD/svg11.dtd">
<svg version="1.1" id="Layer_1" xmlns="http://www.w3.org/2000/svg" xmlns:xlink="http://www.w3.org/1999/xlink" x="0px" y="0px"
	 width="841.89px" height="595.28px" viewBox="0 0 841.89 595.28" enable-background="new 0 0 841.89 595.28" xml:space="preserve">
<rect x="444.471" y="292.868" fill="#D1D3D4" stroke="#231F20" stroke-width="0.216" stroke-miterlimit="2.4142" width="28.724" height="12.926"/>
<rect x="457.873" y="298.258" fill-rule="evenodd" clip-rule="evenodd" fill="#9CA6A0" width="2.982" height="2.028"/>
<rect x="457.873" y="298.258" fill="none" stroke="#1A1A18" stroke-width="0.216" stroke-miterlimit="22.9256" width="2.982" height="2.028"/>
<rect x="455.353" y="298.399" fill-rule="evenodd" clip-rule="evenodd" fill="#9CA6A0" width="0.716" height="1.789"/>
<rect x="455.353" y="298.399" fill="none" stroke="#1A1A18" stroke-width="0.216" stroke-miterlimit="22.9256" width="0.716" height="1.789"/>
<rect x="461.571" y="298.397" fill-rule="evenodd" clip-rule="evenodd" fill="#9CA6A0" width="0.715" height="1.789"/>
<rect x="461.571" y="298.397" fill="none" stroke="#1A1A18" stroke-width="0.216" stroke-miterlimit="22.9256" width="0.715" height="1.789"/>
<polygon fill-rule="evenodd" clip-rule="evenodd" fill="#FFFDF9" points="455.851,301.12 455.851,298.028 456.341,297.542 
	461.815,297.542 461.815,301.12 "/>
<polygon fill="none" stroke="#1A1A18" stroke-width="0.216" stroke-miterlimit="22.9256" points="455.851,301.12 455.851,298.028 
	456.341,297.542 461.815,297.542 461.815,301.12 "/>
<rect x="455.492" y="298.548" fill-rule="evenodd" clip-rule="evenodd" fill="#FFFDF9" width="0.358" height="1.551"/>
<rect x="455.492" y="298.548" fill="none" stroke="#1A1A18" stroke-width="0.216" stroke-miterlimit="22.9256" width="0.358" height="1.551"/>
<rect x="461.815" y="298.556" fill-rule="evenodd" clip-rule="evenodd" fill="#FFFDF9" width="0.357" height="1.551"/>
<rect x="461.815" y="298.556" fill="none" stroke="#1A1A18" stroke-width="0.216" stroke-miterlimit="22.9256" width="0.357" height="1.551"/>
<path fill-rule="evenodd" clip-rule="evenodd" fill="#F3E500" d="M456.222,300.435v-2.131c0-0.217,0.178-0.395,0.395-0.395h4.459
	c0.217,0,0.395,0.178,0.395,0.395v2.131c0,0.217-0.178,0.395-0.395,0.395h-4.459C456.399,300.829,456.222,300.651,456.222,300.435z"
	/>
<path fill="none" stroke="#1A1A18" stroke-width="0.216" stroke-miterlimit="22.9256" d="M456.222,300.435v-2.131
	c0-0.217,0.178-0.395,0.395-0.395h4.459c0.217,0,0.395,0.178,0.395,0.395v2.131c0,0.217-0.178,0.395-0.395,0.395h-4.459
	C456.399,300.829,456.222,300.651,456.222,300.435z"/>
<line fill="none" stroke="#231F20" stroke-width="0.4" stroke-linecap="round" stroke-miterlimit="2.4142" x1="446.819" y1="304.103" x2="449.25" y2="304.103"/>
<line fill="none" stroke="#231F20" stroke-width="0.4" stroke-linecap="round" stroke-miterlimit="2.4142" x1="446.868" y1="295.602" x2="449.298" y2="295.602"/>
<line fill="none" stroke="#231F20" stroke-width="0.4" stroke-linecap="round" stroke-miterlimit="2.4142" x1="448.083" y1="296.816" x2="448.083" y2="294.386"/>
<line fill="none" stroke="#231F20" stroke-width="0.4" stroke-linecap="round" stroke-miterlimit="2.4142" x1="468.059" y1="304.103" x2="470.488" y2="304.103"/>
<line fill="none" stroke="#231F20" stroke-width="0.4" stroke-linecap="round" stroke-miterlimit="2.4142" x1="468.107" y1="295.602" x2="470.537" y2="295.602"/>
<line fill="none" stroke="#231F20" stroke-width="0.4" stroke-linecap="round" stroke-miterlimit="2.4142" x1="469.322" y1="296.816" x2="469.322" y2="294.386"/>
</svg>
