<?xml version="1.0" standalone="no"?>
<!DOCTYPE svg PUBLIC "-//W3C//DTD SVG 1.1//EN" "http://www.w3.org/Graphics/SVG/1.1/DTD/svg11.dtd" >
<svg>
<metadata>
Created by FontForge 20090914 at Fri Apr 11 21:03:15 2014
 By www-data
Copyright (c) 2006 Parachute&#194;&#168;, www.parachute.gr.  All rights reserved.
</metadata>
<defs>
<font id="." horiz-adv-x="1110" >
  <font-face 
    font-family="."
    font-weight="400"
    font-style="italic"
    font-stretch="normal"
    units-per-em="2048"
    panose-1="2 0 5 3 0 0 0 9 0 4"
    ascent="1536"
    descent="-512"
    x-height="998.999"
    cap-height="1403"
    bbox="-283 -531.999 2449 1894"
    underline-thickness="102"
    underline-position="-102"
    slope="-12"
    unicode-range="U+0020-U+FB04"
  />
<missing-glyph horiz-adv-x="2048" 
 />
    <glyph glyph-name="uniFB01" unicode="fi" horiz-adv-x="1112" 
d="M-281 -414l31 110.998c44 -9.33301 87 -14 129 -14s75.667 6 101 18s47.333 32 66 60c35.333 52.667 63.666 146 84.999 280l102 836h-167l10 84l170 38l16 119c28 204.667 118 323.334 270 356.001c45.333 10 92.666 15 141.999 15c92 0 185.333 -11.667 280 -35
l-28 -119c-91.333 16.667 -167.833 25 -229.5 25s-109.167 -7.16699 -142.5 -21.5s-59.666 -36.166 -78.999 -65.499s-33.333 -67.666 -42 -114.999s-17 -103.666 -25 -168.999h258c82.667 0 183 11 301 33l28 -14l-53 -454c-16 -142.667 -33 -284.334 -51 -425.001
c61.333 6 118 23 170 51l39 -67c-48 -48 -96.833 -82.167 -146.5 -102.5s-93.5 -30.5 -131.5 -30.5s-63.333 10.833 -76 32.5s-19 49.167 -19 82.5s2.66699 68.833 8 106.5l15 109.5l67 566h-424l-60 -489.5c-22.667 -189 -40.5 -323.667 -53.5 -404
s-33.167 -152.333 -60.5 -216s-65.166 -114.5 -113.499 -152.5s-113.5 -57 -195.5 -57c-73.333 3.33301 -137 12.666 -191 27.999z" />
    <glyph glyph-name="uniFB02" unicode="fl" horiz-adv-x="1112" 
d="M-281 -414l31.002 111.002c44 -9.33301 86.667 -14 128 -14s74.666 6 99.999 18s47.666 32.333 66.999 61c36 53.333 64.667 147 86 281l102 834h-165c3.33301 35.333 6.66602 63.333 9.99902 84l168 38l22 160c17.333 122.667 70 210.667 158 264
c70.667 42.667 159.667 64 267 64c34 0 101.333 -4.66699 202 -14l117 24l37 -20l-156 -1348c58.667 4 114.667 21 168 51l43 -74c-46.667 -46.667 -93.167 -79.834 -139.5 -99.501s-89.333 -29.5 -129 -29.5s-67 11.667 -82 35s-22.5 52.666 -22.5 87.999
s2.83301 76.333 8.5 123s10.167 85 13.5 115l14 121l20.5 175l24.5 210.5l25.5 211c8.33301 66.333 15.166 124.833 20.499 175.5s9.33301 85.334 12 104.001c-59.333 12.667 -123.666 19 -192.999 19s-126.5 -16.5 -171.5 -49.5s-72.833 -95.167 -83.5 -186.5
c-2.66699 -22 -5 -43.5 -7 -64.5s-4.33301 -42.5 -7 -64.5h286l-14 -112h-287l-60 -489.5c-22.667 -189 -40.5 -323.667 -53.5 -404s-33.167 -152.333 -60.5 -216s-65.166 -114.5 -113.499 -152.5s-113.5 -57 -195.5 -57c-73.333 3.33301 -137 12.666 -191 27.999z" />
    <glyph glyph-name="uniFB03" unicode="ffi" horiz-adv-x="1683" 
d="M-268 -416l30.0068 109c53.333 -11.333 99.5 -17 138.5 -17s71.833 6.83301 98.5 20.5s49 34.834 67 63.501c35.333 54 61 146.333 77 277l16.5 126l22 170l22.5 184l20 171c6 52 11.167 95 15.5 129s6.5 54 6.5 60h-168l10 84l170 38l8 76
c19.333 140.667 69.666 241 150.999 301s188.666 90 321.999 90c59.333 0 136 -12 230 -36c81.333 62.667 183.666 94 306.999 94c88 0 178 -11.667 270 -35l-28 -119c-95.333 16.667 -167 25 -215 25s-88 -3.5 -120 -10.5s-60 -19.167 -84 -36.5
c-49.333 -36.667 -79 -99.667 -89 -189l-17 -170h230c134 0 240.333 9 319 27l29 -12l-55.5 -452l-51.5 -423c57.333 4 114 21 170 51c10.667 -17.333 23.667 -39.666 39 -66.999c-48 -48 -96.5 -82.167 -145.5 -102.5s-91.5 -30.5 -127.5 -30.5s-60.833 9.16699 -74.5 27.5
s-21.334 36.333 -23.001 54s-2.5 31.667 -2.5 42s3.16699 48.833 9.5 115.5s17.666 162.167 33.999 286.5s31.5 248.166 45.5 371.499h-410c-35.333 -352 -71 -640.667 -107 -866c-28.667 -175.333 -88 -299 -178 -371c-48.667 -38.667 -114 -58 -196 -58
c-60.667 0 -119.334 9 -176.001 27l30 110c41.333 -8 83.833 -12 127.5 -12s79.834 10.333 108.501 31s52 47.667 70 81c24 45.333 41.5 104.5 52.5 177.5s20 135.167 27 186.5s13.833 106.333 20.5 165l20 179c6.66699 60.667 13.167 116 19.5 166
s11.166 91.667 14.499 125s5.66602 53 6.99902 59h-413l-60.5 -518.5c-21 -172.333 -38.167 -298.333 -51.5 -378s-34 -151.334 -62 -215.001s-66.167 -114.5 -114.5 -152.5s-113.5 -57 -195.5 -57c-64 0 -127.333 9.33301 -190 28zM420.007 989l414 -0.000976562
c12 103.333 21 175.333 27 216s16 77.334 30 110.001c-67.333 12 -122 18 -164 18s-79.167 -2.66699 -111.5 -8s-61.5 -17 -87.5 -35c-54 -38.667 -87.333 -115.667 -100 -231z" />
    <glyph glyph-name="uniFB04" unicode="ffl" horiz-adv-x="1687" 
d="M-268 -416l30.0029 108.995c46.667 -10 90.834 -15 132.501 -15s75.5 5.5 101.5 16.5s48 30.167 66 57.5c38 56.667 69.333 183.334 94 380.001l19 160l23.5 190.5l22.5 184.5c6.66699 56.667 12.5 104.334 17.5 143.001s7.5 61 7.5 67h-168l10 84l170 38l6 56
c10.667 134 60 237.667 148 311c106 88.667 254 118.334 444 89.001c38 -6 75.667 -14.333 113 -25c68.667 64 169 96 301 96c67.333 0 126.666 -4.33301 177.999 -13l145 25l37 -20c-12 -108 -25.167 -220.333 -39.5 -337l-43 -354.5l-42 -356.5
c-13.667 -118 -27.5 -231.667 -41.5 -341c57.333 4 114 21 170 51l39 -67c-93.333 -90.667 -180 -136 -260 -136c-46.667 0 -76.667 13 -90 39s-20 52 -20 78s3 66 9 120l22.5 196.5l30.5 254l33 272.5c21.333 172 38.666 319.667 51.999 443
c-53.333 11.333 -114.5 17 -183.5 17s-126.333 -17.167 -172 -51.5s-73.834 -96.5 -84.501 -186.5c-1.33301 -15.333 -2.66602 -28 -3.99902 -38s-2.5 -20.833 -3.5 -32.5s-2.5 -25 -4.5 -40s-3.66699 -34.833 -5 -59.5h287l-14 -112h-287
c-6.66699 -64.667 -16.834 -152.667 -30.501 -264l-31 -253l-23.5 -184c-8.66699 -65.333 -18.834 -135.166 -30.501 -209.499s-30.834 -140.166 -57.501 -197.499s-63.834 -103.5 -111.501 -138.5s-112.5 -52.5 -194.5 -52.5c-59.333 0 -117.333 9 -174 27l30 110
c41.333 -8 83.833 -12 127.5 -12s79.834 9.5 108.501 28.5s51.334 45.167 68.001 78.5c30 59.333 55.667 178.666 77 357.999l18.5 155l21.5 182l21 175c14 120.667 21 186.334 21 197.001h-413c-51.333 -456.667 -86.833 -745.667 -106.5 -867s-43.167 -211.333 -70.5 -270
s-64.833 -104 -112.5 -136s-112.5 -48 -194.5 -48c-64 0 -127.333 9.33301 -190 28zM420.003 988.995l414.001 -0.000976562c12 103.333 21 175.333 27 216s16 77.334 30 110.001c-74.667 13.333 -132.5 20 -173.5 20s-77 -4 -108 -12s-58.833 -22.333 -83.5 -43
c-52.667 -44 -85.334 -117.667 -98.001 -221z" />
    <glyph glyph-name=".notdef" horiz-adv-x="2048" 
 />
    <glyph glyph-name="space" unicode=" " horiz-adv-x="538" 
 />
    <glyph glyph-name="exclam" unicode="!" horiz-adv-x="446" 
d="M76 77c0 29.333 11.167 55.5 33.5 78.5s49 34.5 80 34.5s55 -8.83301 72 -26.5s25.5 -40.167 25.5 -67.5v-12c-2.66699 -30 -16 -54.833 -40 -74.5s-50 -29.5 -78 -29.5s-50.5 8.83301 -67.5 26.5s-25.5 41.167 -25.5 70.5zM162 346l37 449
c8 105.333 18.5 210.5 31.5 315.5s24.833 209.833 35.5 314.5h160l-156 -1079h-108z" />
    <glyph glyph-name="quotedbl" unicode="&#x22;" horiz-adv-x="540" 
d="M217 987l23 416h147l-82 -416h-88zM418 987l22 416h146l-76 -416h-92z" />
    <glyph glyph-name="numbersign" unicode="#" horiz-adv-x="1058" 
d="M88 399l29 97h151l117 344h-160l29 94h162l121 352h102l-119 -352h291l121 352h102l-121 -352h140l-29 -94h-141l-117 -344h149l-30 -97h-152l-131 -399h-102l129 399h-291l-131 -399h-103l132 399h-148zM373 496h291l114 344h-291z" />
    <glyph glyph-name="dollar" unicode="$" 
d="M98 106c4.66699 30 15.667 116.997 33 260.997h111l-21 -174c46.667 -24.667 107.334 -42 182.001 -52l66 531c-122.667 44.667 -200.334 108.667 -233.001 192c-12.667 31.333 -19 72.333 -19 123s9.16699 97.834 27.5 141.501s42.833 81.167 73.5 112.5
c58.667 58.667 137.667 98.334 237 119.001l16 137h74l-203 -1651h-75l22 162c-121.333 16.667 -218.333 49.334 -291 98.001zM356 1007.5c0 -61.667 12 -104.333 36 -128s55.667 -44.5 95 -62.5l52 412c-48 -12 -90.5 -36.5 -127.5 -73.5s-55.5 -86.333 -55.5 -148z
M508 -154.002l204.999 1651h73l-16 -131c94 -7.33301 173.333 -32.666 238 -75.999l-33 -260h-111l23 174c-33.333 18.667 -77 31 -131 37l-62 -493c98 -42.667 163.333 -78.667 196 -108c64.667 -58.667 97 -132 97 -220c0 -117.333 -36.333 -211.666 -109 -282.999
c-63.333 -63.333 -154.666 -104.333 -273.999 -123c-4 -27.333 -7.66699 -55.333 -11 -84s-7 -56.667 -11 -84h-74zM620.999 146.996c65.333 10.667 119.167 37.332 161.5 79.999s63.5 96.5 63.5 161.5s-15.333 112.333 -46 142s-72 54.834 -124 75.501z" />
    <glyph glyph-name="percent" unicode="%" horiz-adv-x="1638" 
d="M115 844c0 114.667 22.333 221.999 67 321.999c36 82 92.667 141.333 170 178c40 18.667 87.667 28 143 28s101 -9.16699 137 -27.5s64.333 -42.166 85 -71.499c36.667 -52 55 -124.667 55 -218c0 -223.333 -62.667 -379 -188 -467c-48 -34 -109 -51 -183 -51
c-190.667 0 -286 102.333 -286 307zM248 833.999c0 -57.333 11.5 -103.501 34.5 -138.501s62 -52.5 117 -52.5s96.667 13 125 39s50.833 58.667 67.5 98c31.333 72.667 47 159.334 47 260.001c0 149.333 -49 224 -147 224c-68.667 0 -124 -31 -166 -93
c-52 -78 -78 -190.333 -78 -337zM483 -45.002l779 1481h108l-774 -1481h-113zM1030 296.998c0 116 22 223.666 66 322.999c36.667 82.667 93.334 142 170.001 178c40.667 19.333 88.667 29 144 29s101.166 -9.16699 137.499 -27.5s64.5 -42.166 84.5 -71.499
c37.333 -53.333 56 -125.333 56 -216c0 -227.333 -62.667 -384 -188 -470c-48.667 -33.333 -109.667 -50 -183 -50c-191.333 0 -287 101.667 -287 305zM1163 313.997c0 -72.667 11.665 -126.5 34.998 -161.5s62.333 -52.5 117 -52.5s96.334 13 125.001 39
s51.334 58.333 68.001 97c30.667 70 46 156.667 46 260c0 148.667 -49 223 -147 223c-57.333 0 -102.333 -18.5 -135 -55.5s-56.667 -79.5 -72 -127.5c-24.667 -75.333 -37 -149.333 -37 -222z" />
    <glyph glyph-name="ampersand" unicode="&#x26;" horiz-adv-x="1736" 
d="M74 662c27.333 198 103.336 364.671 228.003 500.004c144.667 158 332.667 237 564 237c203.333 0 358.666 -59.667 465.999 -179c94 -104.667 141 -241 141 -409c0 -75.333 -9.66699 -149 -29 -221c18.667 -2.66699 35.667 -4 51 -4
c62.667 0 110.834 10.167 144.501 30.5s64.167 50.5 91.5 90.5l71 -58c-32.667 -57.333 -73.5 -100.333 -122.5 -129s-114.5 -43 -196.5 -43c-23.333 0 -48 2 -74 6c-56.667 -141.333 -144.667 -259.333 -264 -354c-127.333 -101.333 -268 -152 -422 -152
c-144 0 -253 41 -327 123c-63.333 70.667 -95 160.167 -95 268.5s13.333 199.666 40 273.999s60.5 136.666 101.5 186.999s86.333 88.166 136 113.499s95 38 136 38s74.5 -5.83301 100.5 -17.5s47.667 -26.167 65 -43.5c34.667 -36.667 52 -78.334 52 -125.001
c0 -66 -28.667 -123.333 -86 -172v-5c68 15.333 138.167 23 210.5 23s157.833 -11.667 256.5 -35c16 54 24 116.333 24 187s-8.83301 135.334 -26.5 194.001s-45.834 109.667 -84.501 153c-84.667 94.667 -209.334 142 -374.001 142c-181.333 0 -332.333 -64.667 -453 -194
c-105.333 -112.667 -175 -259 -209 -439c-46.667 3.33301 -85.334 7.66602 -116.001 12.999zM440.003 399.004c0 -104 26.334 -181.499 79.001 -232.499s127.334 -76.5 224.001 -76.5c102.667 0 205 38.667 307 116c101.333 76.667 176.666 176 225.999 298
c-96 22 -187.167 33 -273.5 33s-180.833 -18.667 -283.5 -56c-15.333 4 -26.333 16.667 -33 38s-13.334 39.333 -20.001 54c88.667 65.333 133 125.666 133 180.999c0 31.333 -9 54.833 -27 70.5s-40.167 23.5 -66.5 23.5s-55.333 -8.16699 -87 -24.5
s-60.5 -42.833 -86.5 -79.5c-61.333 -84 -92 -199 -92 -345z" />
    <glyph glyph-name="quotesingle" unicode="'" horiz-adv-x="382" 
d="M217 987l23 416h147l-80 -416h-90z" />
    <glyph glyph-name="parenleft" unicode="(" horiz-adv-x="565" 
d="M127 408.5c0 119.667 15.667 238.832 47 357.499s68.666 224 111.999 316c63.333 131.333 148.333 257.333 255 378l61 -47c-132.667 -175.333 -230 -405 -292 -689c-26.667 -122.667 -40 -241.667 -40 -357s4.83301 -206.333 14.5 -273s20.834 -125.334 33.501 -176.001
c16 -62 41.667 -134.333 77 -217l-78 -51c-78.667 116.667 -135 271.334 -169 464.001c-14 76.667 -21 174.834 -21 294.501z" />
    <glyph glyph-name="parenright" unicode=")" horiz-adv-x="569" 
d="M-25 -297c85.333 120.667 149.333 234 192 340c98.667 246 148 491.667 148 737s-43 457 -129 635l74 45c132.667 -201.333 199 -435.333 199 -702c0 -258 -56.333 -502.667 -169 -734c-69.333 -142 -153 -266.667 -251 -374z" />
    <glyph glyph-name="asterisk" unicode="*" horiz-adv-x="774" 
d="M184 1135c13.333 66 37.335 120.332 72.002 162.999l186 -116l-16 231c27.333 6.66699 55.333 10 84 10s56.667 -3.33301 84 -10c-36.667 -115.333 -62 -192.333 -76 -231l223 102c15.333 -24.667 24.666 -49.167 27.999 -73.5s3.66602 -55.833 0.999023 -94.5l-240 -14
l146 -162c-39.333 -45.333 -86.333 -78.666 -141 -99.999l-72 217l-123 -215c-52.667 21.333 -93 54 -121 98l93 82l94 82z" />
    <glyph glyph-name="plus" unicode="+" 
d="M193 553l14 119h325l41 332h121l-41 -332h322l-14 -119h-322l-43 -344h-119l41 344h-325z" />
    <glyph glyph-name="comma" unicode="," horiz-adv-x="417" 
d="M6 -172c27.333 24.667 50.501 49.333 69.501 74s32.833 54.667 41.5 90c-40.667 10.667 -61.334 39.334 -62.001 86.001c0 31.333 11 59.666 33 84.999s49.667 38 83 38s58.833 -10.667 76.5 -32s26.5 -47.666 26.5 -78.999s-6.33301 -62.333 -19 -93s-30 -60 -52 -88
c-49.333 -62.667 -104 -107.334 -164 -134.001z" />
    <glyph glyph-name="hyphen" unicode="-" horiz-adv-x="727" 
d="M111 471l18 139h514l-18 -139h-514z" />
    <glyph glyph-name="period" unicode="." horiz-adv-x="413" 
d="M53 81c0 30.667 11.668 58 35.001 82s50 36 80 36s53.5 -9.66699 70.5 -29s25.5 -44.333 25.5 -75s-12.333 -57.5 -37 -80.5s-51.334 -34.5 -80.001 -34.5s-51.5 9.16699 -68.5 27.5s-25.5 42.833 -25.5 73.5z" />
    <glyph glyph-name="slash" unicode="/" horiz-adv-x="661" 
d="M-31 -57l693 1493h106l-692 -1493h-107z" />
    <glyph glyph-name="zero" unicode="0" 
d="M90 485c0 200 31.667 381.666 95 544.999c54.667 140.667 139 241.334 253 302.001c60 32 133 48 219 48s156.333 -16.667 211 -50s97.334 -77 128.001 -131c52.667 -92.667 79 -220 79 -382c0 -218 -38.333 -401 -115 -549c-42 -82 -98.5 -149.5 -169.5 -202.5
s-159.833 -79.5 -266.5 -79.5c-282.667 0 -427.334 166.333 -434.001 499zM251 503.499c0.666992 -72.333 6.16699 -130.333 16.5 -174s26.5 -81.167 48.5 -112.5c46 -66.667 120.333 -100 223 -100c133.333 0 233 81 299 243c50 124 75 277.667 75 461
c0 284 -88 426 -264 426c-114 0 -205.333 -55.667 -274 -167c-50 -82 -85.667 -195.667 -107 -341c-12 -84.667 -17.667 -163.167 -17 -235.5z" />
    <glyph glyph-name="one" unicode="1" 
d="M150 0l14 121h287l133 1071l-322 -49l-8 98l360 119h148l-152 -1239h273l-15 -121h-718z" />
    <glyph glyph-name="two" unicode="2" 
d="M31 0l12.002 113.001l145 126.5l168 146.5c57.333 51.333 113.666 104.666 168.999 159.999s104.333 110.666 147 165.999c95.333 122 143 228.667 143 320c0 70.667 -22.5 123.167 -67.5 157.5s-104.5 51.5 -178.5 51.5c-106 0 -223.333 -36 -352 -108l-53 102
c87.333 60 169.166 99.5 245.499 118.5s140.833 28.5 193.5 28.5s102.5 -6.5 149.5 -19.5s87.5 -32.5 121.5 -58.5c71.333 -56.667 107 -137 107 -241c0 -157.333 -87 -328.666 -261 -513.999c-79.333 -84.667 -163.833 -165.667 -253.5 -243l-198.5 -171l2 -12h518l23 188
h131l-37 -311h-874z" />
    <glyph glyph-name="three" unicode="3" 
d="M18 61c2 4.66699 18.667 41.665 50 110.998c120 -42 232.667 -63 338 -63c106.667 0 197 27.667 271 83c78.667 59.333 118 133 118 221s-29 154.833 -87 200.5s-132.333 68.5 -223 68.5c-32 0 -67.333 -2.66699 -106 -8c-11.333 55.333 -18.333 92 -21 110
c136.667 22 246.667 63.333 330 124c72.667 52.667 109 110.334 109 173.001c0 82.667 -41.333 137.667 -124 165c-29.333 9.33301 -65.333 14 -108 14c-96 0 -210 -29.667 -342 -89l-45 105c137.333 78 276 117 416 117c122 0 214.667 -27.333 278 -82
c56 -48 84 -111.667 84 -191c0 -110 -51.333 -203 -154 -279c-36 -26.667 -80 -49 -132 -67v-10c82 -13.333 150.167 -49.166 204.5 -107.499s81.5 -131.833 81.5 -220.5c0 -125.333 -48.333 -232 -145 -320c-100 -90.667 -230.333 -136 -391 -136
c-173.333 0 -307.333 27 -402 81z" />
    <glyph glyph-name="four" unicode="4" 
d="M59 385l15 117l727 858h168l-53.5 -426l-51.5 -426h193l-15 -123h-194l-33 -266h141l-12 -119h-430l12 119h133l35 266h-635zM227 508h484l82 661h-11l-104 -127l-225.5 -267z" />
    <glyph glyph-name="five" unicode="5" 
d="M53 63l51.001 120.996c114 -42 221.333 -63 322 -63c184.667 0 306.667 65 366 195c20.667 44.667 31 92.834 31 144.501s-7.5 93.334 -22.5 125.001s-35.5 57.834 -61.5 78.501c-52.667 40.667 -118 61 -196 61s-158.667 -18.333 -242 -55l-88 65l90 625h719l-35 -289
h-127l19 162h-451l-59 -420l84 24.5c38 11 84.333 16.5 139 16.5s105.167 -6.83301 151.5 -20.5s87.166 -35.5 122.499 -65.5c78 -65.333 117 -159.666 117 -282.999c0 -160.667 -56.333 -287.667 -169 -381c-97.333 -81.333 -218.333 -122 -363 -122
c-162 0 -294.667 27 -398 81z" />
    <glyph glyph-name="six" unicode="6" 
d="M117 502c0 98.667 13.334 203.835 40.001 315.502s66.167 209.167 118.5 292.5s116.833 149.166 193.5 197.499s157.667 72.5 243 72.5c126.667 0 228.667 -21 306 -63l-43 -117c-76.667 32.667 -155.334 49 -236.001 49s-146.167 -18.333 -196.5 -55
s-92.166 -81.334 -125.499 -134.001c-56 -88.667 -94 -190 -114 -304l10 -6c117.333 66.667 232.666 100 345.999 100c162.667 0 271 -64.667 325 -194c18.667 -45.333 28 -103.5 28 -174.5s-13 -138 -39 -201s-61.667 -116.5 -107 -160.5
c-92 -89.333 -211.333 -134 -358 -134c-208 0 -332 94 -372 282c-12.667 57.333 -19 135.333 -19 234zM272.001 438.501c0 -35.667 3.49902 -73.001 10.499 -112.001s20.167 -74.167 39.5 -105.5c42.667 -70.667 110.667 -106 204 -106c102.667 0 183.667 34.667 243 104
c55.333 64.667 83 151.334 83 260.001c0 72.667 -17.167 131.167 -51.5 175.5s-102.666 66.5 -204.999 66.5s-196.166 -29 -281.499 -87c-16.667 -10.667 -25.667 -16.667 -27 -18c-2.66699 -26 -5.83398 -53.167 -9.50098 -81.5s-5.5 -60.333 -5.5 -96z" />
    <glyph glyph-name="seven" unicode="7" 
d="M203 0l694 1233h-510l-27 -207h-131l41 334h801l-12 -121l-694 -1239h-162z" />
    <glyph glyph-name="eight" unicode="8" 
d="M84 317c0 128.667 54.998 245.666 164.998 350.999c37.333 35.333 81.333 65.333 132 90c-100 63.333 -150 144.333 -150 243c0 110 43 201 129 273c86.667 73.333 195.334 110 326.001 110c164.667 0 275.334 -58.667 332.001 -176c19.333 -40.667 29 -87.667 29 -141
c0 -124 -80.667 -241.333 -242 -352c56 -31.333 102 -73.666 138 -126.999s54 -111.833 54 -175.5s-10.167 -119.667 -30.5 -168s-51.166 -91.833 -92.499 -130.5c-92.667 -86.667 -216 -130 -370 -130c-132.667 0 -237.334 32 -314.001 96c-70.667 60 -106 139 -106 237z
M247.998 328.999c0 -62 21.833 -114.167 65.5 -156.5s113.5 -63.5 209.5 -63.5s173.167 26.167 231.5 78.5s87.5 115.333 87.5 189s-26.333 133 -79 178s-144 92.833 -274 143.5c-84 -49.333 -147.667 -112 -191 -188c-33.333 -58.667 -50 -119 -50 -181zM394.998 1032
c0 -39.333 7.16895 -70.002 21.502 -92.002s34.166 -42.167 59.499 -60.5s54.666 -35.666 87.999 -51.999l108 -53.5c146 94.667 219 189 219 283c0 86.667 -39 145.667 -117 177c-28 11.333 -66.667 17 -116 17s-91.5 -9.16699 -126.5 -27.5s-62.833 -40.166 -83.5 -65.499
c-35.333 -44.667 -53 -86.667 -53 -126z" />
    <glyph glyph-name="nine" unicode="9" 
d="M121 49l40.998 117.003c78.667 -32.667 160.834 -49 246.501 -49s154 18.333 205 55s93.167 81.334 126.5 134.001c57.333 89.333 94 190.666 110 303.999l-6 6c-123.333 -68 -239.333 -102 -348 -102c-162 0 -269.667 64 -323 192c-18.667 45.333 -28 103.5 -28 174.5
s12.667 138 38 201s60.333 116.5 105 160.5c93.333 92 213 138 359 138c208 0 332.333 -94.333 373 -283c12 -58 18 -136.333 18 -235s-13.333 -203.834 -40 -315.501s-66.167 -208.834 -118.5 -291.501s-117.166 -147.834 -194.499 -195.501s-158.166 -71.5 -242.499 -71.5
s-153.833 7.16699 -208.5 21.5s-92.334 27.5 -113.001 39.5zM300.998 879.003c0 -70.667 17.833 -127.668 53.5 -171.001s97.834 -65 186.501 -65c124.667 0 233.667 35 327 105c2.66699 26 5.5 52.167 8.5 78.5s4.5 56.5 4.5 90.5s-3.16699 70.833 -9.5 110.5
s-18.833 75.834 -37.5 108.501c-40 71.333 -109 107 -207 107c-102.667 0 -183.334 -34.333 -242.001 -103c-56 -65.333 -84 -152.333 -84 -261z" />
    <glyph glyph-name="colon" unicode=":" horiz-adv-x="407" 
d="M61 87c0 30.667 12 57.6689 36 81.002s50.667 35 80 35s52.5 -8.83301 69.5 -26.5s25.5 -41.834 25.5 -72.501s-11.167 -58.334 -33.5 -83.001s-48.833 -37 -79.5 -37s-54.667 9.5 -72 28.5s-26 43.833 -26 74.5zM139 732.002c0 30.667 12.6689 57.334 38.002 80.001
s52.333 34 81 34s51.5 -8.83301 68.5 -26.5s25.5 -41.834 25.5 -72.501s-11.833 -58.334 -35.5 -83.001s-50.334 -37 -80.001 -37s-53.334 9.83301 -71.001 29.5s-26.5 44.834 -26.5 75.501z" />
    <glyph glyph-name="semicolon" unicode=";" horiz-adv-x="407" 
d="M6 -172c28.667 24.667 52.501 49.333 71.501 74s32.833 54.667 41.5 90c-40.667 10.667 -61.334 39.334 -62.001 86.001c0 31.333 11 59.666 33 84.999s49.667 38 83 38s58.833 -10.667 76.5 -32s26.5 -47.666 26.5 -78.999s-6.33301 -62.333 -19 -93s-30 -60 -52 -88
c-49.333 -62.667 -104 -107.334 -164 -134.001zM139.001 731.999c0 30.667 12.6689 57.334 38.002 80.001s52.333 34 81 34s51.5 -8.83301 68.5 -26.5s25.5 -41.834 25.5 -72.501s-11.833 -58.334 -35.5 -83.001s-50.334 -37 -80.001 -37s-53.334 9.83301 -71.001 29.5
s-26.5 44.834 -26.5 75.501z" />
    <glyph glyph-name="less" unicode="&#x3c;" 
d="M180 557l13 105l841 409l-18 -145l-678 -320l600 -325l-16 -136z" />
    <glyph glyph-name="equal" unicode="=" 
d="M152 410l14 116h801l-15 -116h-800zM188 707l15 118h801l-15 -118h-801z" />
    <glyph glyph-name="greater" unicode="&#x3e;" 
d="M131 145l16 144l682 323l-604 320l19 139l741 -409l-14 -105z" />
    <glyph glyph-name="question" unicode="?" horiz-adv-x="876" 
d="M164 1083c15.333 143.333 27 241 35 293c123.333 44 243.333 66 360 66c226 0 343.333 -76 352 -228c0 -82 -20 -151.167 -60 -207.5s-91 -108.5 -153 -156.5c-110 -78.667 -186.667 -146 -230 -202c-46 -58.667 -69 -121.667 -69 -189l2 -97l-131 -22
c-5.33301 46.667 -8 90.5 -8 131.5s5.5 79.833 16.5 116.5s28.5 72 52.5 106c46 65.333 123.333 137 232 215c52 38 95 75.5 129 112.5s51 81.833 51 134.5c0 99.333 -66.667 149 -200 149c-78 0 -156 -11.667 -234 -35l-22 -187h-123zM233 74
c0 28.667 11.332 54.834 33.999 78.501s49.334 35.5 80.001 35.5s54.5 -8.83301 71.5 -26.5s25.5 -41.834 25.5 -72.501s-12.167 -56.5 -36.5 -77.5s-50.5 -31.5 -78.5 -31.5s-51 8.5 -69 25.5s-27 39.833 -27 68.5z" />
    <glyph glyph-name="at" unicode="@" horiz-adv-x="1832" 
d="M170 616c0 120 23.501 232 70.501 336s110.833 194.167 191.5 270.5s174.5 136.333 281.5 180s216.333 65.5 328 65.5s208 -14 289 -42s149.833 -67.333 206.5 -118c118 -106.667 177 -251.334 177 -434.001c0 -172 -47.333 -308.667 -142 -410
c-84.667 -92 -183.334 -138 -296.001 -138c-146.667 0 -213.667 88 -201 264h-6c-41.333 -94 -92.333 -164 -153 -210c-43.333 -33.333 -94.166 -50 -152.499 -50s-107.333 23.167 -147 69.5s-59.5 111.5 -59.5 195.5s8.5 158.833 25.5 224.5s42.833 123.167 77.5 172.5
c74 106 175 159 303 159c50 0 113.333 -13 190 -39l41 45c36 -3.33301 61.333 -6.66602 76 -9.99902c-8 -46.667 -16.833 -94.834 -26.5 -144.501s-18.834 -99.167 -27.501 -148.5c-21.333 -115.333 -32 -201.166 -32 -257.499s8.5 -98.5 25.5 -126.5s43.667 -42 80 -42
s71.833 7.5 106.5 22.5s67.334 40.167 98.001 75.5c73.333 83.333 110 200.5 110 351.5s-48.5 270.5 -145.5 358.5s-230.833 132 -401.5 132c-109.333 0 -211.5 -19.5 -306.5 -58.5s-177.333 -92.167 -247 -159.5s-124.5 -146.166 -164.5 -236.499s-60 -182.833 -60 -277.5
s13.167 -177.834 39.5 -249.501s64.166 -133.167 113.499 -184.5c104.667 -108.667 242.667 -163 414 -163c102 4.66699 184 17.667 246 39l26 -82c-72 -35.333 -164.5 -53 -277.5 -53s-210 16.667 -291 50s-149.833 80 -206.5 140c-115.333 122 -173 283 -173 483z
M686.001 657c0 -150 40.334 -225 121.001 -225c73.333 0 143.666 64.667 210.999 194c24.667 48 48.667 107.667 72 179c6.66699 35.333 13 70.5 19 105.5s12.333 70.167 19 105.5c-52 23.333 -106.167 35 -162.5 35s-102.333 -14.333 -138 -43s-64.167 -64.667 -85.5 -108
c-37.333 -76.667 -56 -157.667 -56 -243z" />
    <glyph glyph-name="A" unicode="A" horiz-adv-x="1327" 
d="M-12 0c5.33301 39.333 9.33301 81 12 125h117l565 1278h209l252 -1278h108l-14 -125h-418l15 125h137l-47 262h-529l-112 -262h141l-14 -125h-422zM453 518l447.998 0.000976562c-86 478.667 -129.667 723 -131 733h-6
c-1.33301 -2.66699 -2.66602 -6.33398 -3.99902 -11.001s-4.16602 -12.167 -8.49902 -22.5l-16.5 -41c-6.66699 -17 -16 -38.5 -28 -64.5z" />
    <glyph glyph-name="B" unicode="B" horiz-adv-x="1228" 
d="M29 0l13.999 127h137l71 573.5l71 575.5h-129l14 125h618c124 0 214.833 -29 272.5 -87s86.5 -133.667 86.5 -227c0 -66.667 -16.833 -132 -50.5 -196s-94.167 -116.667 -181.5 -158c132.667 -42 199 -143 199 -303c0 -134 -45.667 -241.333 -137 -322
c-81.333 -72 -181.666 -108 -300.999 -108h-684zM347.999 127h318c101.333 0 179.333 29.333 234 88c50 54 75 127 75 219c0 65.333 -19.667 119 -59 161c-42 46 -103 69 -183 69h-319zM429.999 786h283c91.333 0 165 26.667 221 80c53.333 50.667 80 112 80 184
c0 150.667 -80 226 -240 226h-282l-31 -245z" />
    <glyph glyph-name="C" unicode="C" horiz-adv-x="1132" 
d="M125 545c0 137.333 13.0029 250.166 39.0029 338.499s55.333 162.833 88 223.5s74.667 114.334 126 161.001c114 104.667 260.333 157 439 157c129.333 0 242.666 -19 339.999 -57l-39 -328h-131l27 217c-79.333 19.333 -154.833 29 -226.5 29s-138.834 -18 -201.501 -54
s-115.334 -86.667 -158.001 -152c-84.667 -130 -127 -305.667 -127 -527c0 -282.667 134.667 -424 404 -424c102 0 209 15.667 321 47l25 -127c-76 -28.667 -174.333 -48.667 -295 -60c-36 -3.33301 -69.667 -5 -101 -5c-353.333 0 -530 187 -530 561z" />
    <glyph glyph-name="D" unicode="D" horiz-adv-x="1318" 
d="M31 0l14 125h137l142 1151h-129l14 127h545c338.667 0 508 -189 508 -567c0 -382.667 -119.667 -638.667 -359 -768c-84.667 -45.333 -187.667 -68 -309 -68h-563zM354 127h217c70.667 0 129.667 9.5 177 28.5s90.5 43.5 129.5 73.5s73.833 70.667 104.5 122
c68.667 114.667 103 270.667 103 468c0 188.667 -45 319 -135 391c-55.333 44 -133 66 -233 66h-221z" />
    <glyph glyph-name="E" unicode="E" horiz-adv-x="1142" 
d="M31 0l14 125h133l141 1151h-126l14 125h960l-39 -318h-129l25 193h-537l-59 -481l518 10l-14 -137l-518 8l-68 -551h578l24 197h133l-39 -322h-1011z" />
    <glyph glyph-name="F" unicode="F" horiz-adv-x="1095" 
d="M31 0l14 125h133l141 1151h-126l14 125h950l-39 -318h-127l23 193h-527l-59 -481l512 10l-16 -137l-510 8l-68 -551h191l-15 -125h-491z" />
    <glyph glyph-name="G" unicode="G" horiz-adv-x="1257" 
d="M125 545c0 216.667 46 405.332 138 565.999c72.667 128 180.667 218.667 324 272c74.667 28 155 42 241 42c144 0 264 -19 360 -57l-39 -324h-129l27 213c-66 19.333 -139.833 29 -221.5 29s-156 -18.333 -223 -55s-122.5 -87.667 -166.5 -153
c-90 -131.333 -135 -303.666 -135 -516.999c0 -212 65 -346.333 195 -403c48.667 -20.667 99.667 -31 153 -31c110 0 194.667 10.333 254 31l55 444h-192l14 119h451l-12 -119h-105l-67 -553c-128.667 -43.333 -262.667 -65 -402 -65c-346.667 0 -520 187 -520 561z" />
    <glyph glyph-name="H" unicode="H" horiz-adv-x="1396" 
d="M31 0l14 127h127l141 1149h-127l15 127h422l-15 -127h-125l-59 -475h637l59 475h-123l15 127h424l-15 -127h-129l-141 -1149h127l-12 -127h-424l14 127h123l68 545h-637l-68 -545h125l-14 -127h-422z" />
    <glyph glyph-name="I" unicode="I" horiz-adv-x="700" 
d="M88 0l14 125h125l142 1151h-125l14 127h422l-14 -127h-129l-142 -1151h129l-14 -125h-422z" />
    <glyph glyph-name="J" unicode="J" horiz-adv-x="710" 
d="M-131 -244c138.667 54 238 121 298 201c48.667 65.333 81.667 163 99 293l127 1026h-203l15 127h553l-15 -127h-180l-125 -1002c-22 -180.667 -72.667 -319 -152 -415c-87.333 -105.333 -216 -178.333 -386 -219z" />
    <glyph glyph-name="K" unicode="K" horiz-adv-x="1280" 
d="M31 0l14 127h127l141 1149h-127l15 125h420l-15 -125h-127l-65 -526l592 526l-121 -2l14 127h426l-14 -127h-113l-483 -424l399 -721h115l-15 -129h-428l15 129h129l-340 619l-197 -175l-55 -446h127l-14 -127h-420z" />
    <glyph glyph-name="L" unicode="L" horiz-adv-x="1099" 
d="M31 0l14 125h133l141 1151h-126l14 125h442l-16 -125h-144l-143 -1151h561l31 250h133l-45 -375h-995z" />
    <glyph glyph-name="M" unicode="M" horiz-adv-x="1726" 
d="M29 0l14 124.999h127l70.5 574.5l70.5 576.5h-127l17 125h321l122 -400.5l128 -416.5l74 -240h12l129 240c8 16.667 24 46.334 48 89.001l82 148l97.5 178.5l96.5 177.5l78.5 143l44.5 81h331l-16 -125h-123l-141 -1151h123l-15 -125h-411l14 125h125l123 1008h-4
l-56.5 -105.5l-95 -173l-168 -307.5l-213.5 -389h-151l-109 346c-30.667 92.667 -75 236.667 -133 432l-59 197h-6l-60 -504l-61 -504h129l-15 -125h-413z" />
    <glyph glyph-name="N" unicode="N" horiz-adv-x="1462" 
d="M29 0l14 127h135l71 573.5l70 575.5h-135l17 125h313l430 -875l59.5 -122.5l59.5 -124.5h10l123 997h-139l14 125h428l-14 -125h-129l-158 -1276h-160l-228.5 459.5l-236.5 472.5l-106 221l-6 -2l-125 -1024h139l-14 -127h-432z" />
    <glyph glyph-name="O" unicode="O" horiz-adv-x="1347" 
d="M125 532c0 244.667 50.999 448.001 152.999 610.001c53.333 84 122.5 151.833 207.5 203.5s180.667 77.5 287 77.5s191.5 -15 255.5 -45s115.333 -70.667 154 -122c70.667 -96 106 -231.333 106 -406c0 -250.667 -55.333 -455.334 -166 -614.001
c-117.333 -168 -277.666 -252 -480.999 -252c-344 0 -516 182.667 -516 548zM296.999 530.001c0 -136.667 27.334 -239.667 82.001 -309s143.334 -104 266.001 -104c156 0 276.333 75 361 225c72 128 108 298.667 108 512c0 132.667 -21.333 234 -64 304
c-24 40.667 -57.333 73.167 -100 97.5s-103.834 36.5 -183.501 36.5s-150.834 -23.167 -213.501 -69.5s-113 -106.5 -151 -180.5c-70 -133.333 -105 -304 -105 -512z" />
    <glyph glyph-name="P" unicode="P" horiz-adv-x="1134" 
d="M31 0l14 124.999h127l141 1151h-127l15 127h573c116 0 207.833 -29.667 275.5 -89s101.5 -149.333 101.5 -270c0 -121.333 -33.667 -224.666 -101 -309.999c-84.667 -106 -204.667 -159 -360 -159h-295l-55 -450h170l-14 -125h-465zM412 697.999h262
c78 0 145.333 24.667 202 74c66 58 99 144.667 99 260c0 82 -20.833 143.167 -62.5 183.5s-97.5 60.5 -167.5 60.5h-264z" />
    <glyph glyph-name="Q" unicode="Q" horiz-adv-x="1347" 
d="M125 532c0 244.667 51.001 447.999 153.001 609.999c53.333 84 122.5 151.833 207.5 203.5s180.667 77.5 287 77.5s191.5 -15 255.5 -45s115.333 -70.667 154 -122c70.667 -96 106 -231.333 106 -406c0 -294 -73.333 -521.333 -220 -682
c-48.667 -53.333 -104.334 -95 -167.001 -125l293 -78l-80 -153l-502 176c-168 2.66699 -293.333 53.334 -376 152.001c-74 90 -111 220.667 -111 392zM297.001 529.999c0 -136.667 27.334 -239.667 82.001 -309s143.334 -104 266.001 -104c156 0 276.333 75 361 225
c72 128 108 298.667 108 512c0 132.667 -21.333 234 -64 304c-24 40.667 -57.333 73.167 -100 97.5s-103.834 36.5 -183.501 36.5s-150.834 -23.167 -213.501 -69.5s-113 -106.5 -151 -180.5c-70 -133.333 -105 -304 -105 -512z" />
    <glyph glyph-name="R" unicode="R" horiz-adv-x="1228" 
d="M33 0l12 125h127l141 1151h-125l15 127h581c116 0 207.5 -28 274.5 -84s100.5 -142.667 100.5 -260c0 -154 -54.333 -271.667 -163 -353c-38.667 -29.333 -86 -51 -142 -65l164 -514l147 -21v-96c-52 -18.667 -105.5 -28 -160.5 -28s-90.5 9.5 -106.5 28.5
s-29.333 45.5 -40 79.5l-164 526h-295l-59 -491h160l-15 -125h-452zM416 739h272c132 0 221.333 51.667 268 155c18 38.667 27 94.167 27 166.5s-20.833 126.333 -62.5 162s-97.167 53.5 -166.5 53.5h-273z" />
    <glyph glyph-name="S" unicode="S" horiz-adv-x="1085" 
d="M35 90l33 275.002h131l-25 -181c76.667 -40.667 172 -61 286 -61s205.5 23.167 274.5 69.5s103.5 115.833 103.5 208.5c0 73.333 -27.667 129 -83 167c-38 26.667 -97.167 51 -177.5 73s-143 41.833 -188 59.5s-84.167 39.5 -117.5 65.5
c-70.667 56 -106 133.667 -106 233c0 134.667 48 240.667 144 318c86.667 70.667 199.667 106 339 106c100.667 0 197 -14.333 289 -43c32.667 -10.667 62.667 -24.334 90 -41.001l-35 -276h-131l25 184c-68.667 27.333 -136 41 -202 41s-117.5 -5.5 -154.5 -16.5
s-69.833 -27.5 -98.5 -49.5c-61.333 -46 -92 -113.333 -92 -202c0 -86 59 -150.667 177 -194c33.333 -12.667 70.5 -25.5 111.5 -38.5l134.5 -43c48.667 -15.667 91.667 -36.167 129 -61.5c84 -56.667 126 -143 126 -259c0 -148.667 -55.667 -261.334 -167 -338.001
c-98.667 -68 -228.667 -102 -390 -102c-174 0 -316 35.333 -426 106z" />
    <glyph glyph-name="T" unicode="T" horiz-adv-x="1099" 
d="M111 1067l41 336h1036l-39 -336h-131l24 209h-303l-141 -1151h166l-14 -125h-494l14 125h162l141 1151h-309l-24 -209h-129z" />
    <glyph glyph-name="U" unicode="U" horiz-adv-x="1402" 
d="M166 1276l14 126.999h426l-14 -127h-139l-97 -774c-3.33301 -30 -5 -58.333 -5 -85c0 -200 104.333 -300 313 -300c113.333 0 204.333 32 273 96s110.667 160.333 126 289l96 774h-139l16 127h424l-14 -127h-123l-96 -772c-30 -252 -140.333 -413.333 -331 -484
c-66 -24 -144.667 -36 -236 -36s-169.833 12.5 -235.5 37.5s-117.167 60.833 -154.5 107.5c-57.333 70.667 -86 166.334 -86 287.001c0 32 2 66 6 102l95 758h-119z" />
    <glyph glyph-name="V" unicode="V" horiz-adv-x="1269" 
d="M127 1276l14 127h412l-14 -127h-125l147 -819l47 -285h8l117 289l342 815h-123l15 127h409l-14 -127h-119l-555 -1276h-199l-245 1276h-117z" />
    <glyph glyph-name="W" unicode="W" horiz-adv-x="1853" 
d="M127 1276l14 127h430l-14 -127h-139l96 -854l23 -236h4l407 1014l-12 76h-135l14 127h440l-14 -127h-143l145 -870l33 -211h4l377 1081h-137l14 127h428l-16 -127h-121l-467 -1276h-195l-127 760l-30 205h-7l-84 -213l-307 -752h-202l-162 1276h-117z" />
    <glyph glyph-name="X" unicode="X" horiz-adv-x="1265" 
d="M-14 0l14 127h96l459 614l-258 535h-127l14 127h441l-15 -127h-131l205 -428l328 428h-125l14 127h432l-14 -127h-117l-428 -549l293 -600h127l-14 -127h-455l14 127h142l-238 485l-360 -485h159l-14 -127h-442z" />
    <glyph glyph-name="Y" unicode="Y" horiz-adv-x="1167" 
d="M127 1276l14 127h398l-15 -127h-125l213 -539h9l352 539h-129l14 127h408l-15 -127h-104l-455 -666l-59 -485h160l-15 -125h-497l14 125h162l57 479l-283 672h-104z" />
    <glyph glyph-name="Z" unicode="Z" horiz-adv-x="1056" 
d="M-8 0l14 125l873 1151h-553l-27 -211h-129l41 338h889l-15 -125l-874 -1151h633l30 233h134l-45 -360h-971z" />
    <glyph glyph-name="bracketleft" unicode="[" horiz-adv-x="516" 
d="M14 -326l217 1753h338l-14 -110h-193l-188 -1530h193l-15 -113h-338z" />
    <glyph glyph-name="backslash" unicode="\" horiz-adv-x="661" 
d="M152 1436h106l328 -1493h-109z" />
    <glyph glyph-name="bracketright" unicode="]" horiz-adv-x="516" 
d="M-27 -326l15 113h190l189 1530h-193l12 110h340l-215 -1753h-338z" />
    <glyph glyph-name="asciicircum" unicode="^" horiz-adv-x="880" 
d="M86 780l424 617h94l268 -617h-116l-211 486l-330 -486h-129z" />
    <glyph glyph-name="underscore" unicode="_" horiz-adv-x="993" 
d="M-84 -270l12 96h992l-13 -96h-991z" />
    <glyph glyph-name="grave" unicode="`" horiz-adv-x="991" 
d="M367 1397l125 102l206 -338l-75 -57z" />
    <glyph glyph-name="a" unicode="a" horiz-adv-x="1116" 
d="M82 309.5c0 105 10.499 199.167 31.499 282.5s53.167 156 96.5 218c94 136 221.333 204 382 204c63.333 0 143 -17.667 239 -53l52 55l98 -6l-36.5 -241l-34.5 -237c-27.333 -203.333 -43.333 -337.666 -48 -402.999c52 4.66699 110.667 26 176 64l39 -70
c-65.333 -65.333 -133 -110.333 -203 -135c-22.667 -7.33301 -43 -11 -61 -11c-42 0 -70.5 12.667 -85.5 38s-22.5 60.666 -22.5 105.999s7.33301 105.333 22 180h-10c-95.333 -212.667 -221.666 -319 -378.999 -319c-76.667 0 -138.5 28.333 -185.5 85
s-70.5 137.5 -70.5 242.5zM247.999 352c0 -82 13.5 -143.001 40.5 -183.001s63.167 -60 108.5 -60c91.333 0 180.333 80.667 267 242c31.333 59.333 61.333 133.333 90 222l43 267c-72 28.667 -141.167 43 -207.5 43s-121.833 -18.167 -166.5 -54.5
s-79.667 -81.166 -105 -134.499c-46.667 -96 -70 -210 -70 -342z" />
    <glyph glyph-name="b" unicode="b" horiz-adv-x="1038" 
d="M27 1362l7.99902 80c98.667 26 190 39 274 39c61.333 0 92 -27.333 92 -82c0 -39.333 -6.83301 -113.333 -20.5 -222l-29.5 -237c-13.333 -107.333 -24.666 -185.666 -33.999 -234.999h11c98 210 222.667 315 374 315c78 0 140.667 -28.667 188 -86
s71 -138.833 71 -244.5s-11 -199.834 -33 -282.501s-54.667 -155 -98 -217c-93.333 -136 -223.333 -204 -390 -204c-112.667 0 -230 28.667 -352 86l-10 20c62.667 434.667 113 847.667 151 1239zM247.999 160c68.667 -27.333 136.001 -40.999 202.001 -40.999
s121.167 17.667 165.5 53s79.833 79.666 106.5 132.999c47.333 94.667 71 208 71 340c0 83.333 -14 144.833 -42 184.5s-64 59.5 -108 59.5c-94.667 0 -183.667 -81.333 -267 -244c-30.667 -60 -60.334 -133.667 -89.001 -221z" />
    <glyph glyph-name="c" unicode="c" horiz-adv-x="911" 
d="M90 487c11.333 106.667 40.6641 204.333 87.9971 293c52 98 129.667 167.333 233 208c54 21.333 111.667 32 173 32c84.667 0 160.334 -12.333 227.001 -37c42 -15.333 63 -40 63 -74v-12c0 -30 -9.16699 -70.667 -27.5 -122s-31.5 -85.666 -39.5 -102.999l-86 6l10 192
c-41.333 15.333 -89.5 23 -144.5 23s-104 -14.333 -147 -43s-78.833 -67.334 -107.5 -116.001c-57.333 -96 -86 -217 -86 -363c0 -172 74.333 -258 223 -258c88 0 183 20.333 285 61l37 -102c-111.333 -57.333 -229.666 -86 -354.999 -86
c-183.333 0 -294.666 71.333 -333.999 214c-12.667 47.333 -19 102.333 -19 165c0 38 2.33301 78.667 7 122z" />
    <glyph glyph-name="d" unicode="d" horiz-adv-x="1122" 
d="M82 312.5c0 107 10.8311 202.168 32.498 285.501s54.834 155.666 99.501 216.999s99.667 109.5 165 144.5s131.833 52.5 199.5 52.5s144.5 -13 230.5 -39l41 356l-205 31l6 82c112.667 26 204.334 39 275.001 39c38 0 63.167 -10 75.5 -30s18.5 -38.5 18.5 -55.5
s-2 -42.833 -6 -77.5l-16.5 -138l-25 -203l-31.5 -253l-73 -595c60 10.667 118.667 32 176 64l43 -66c-34 -38 -76.167 -72 -126.5 -102s-98 -45 -143 -45s-74.333 10.833 -88 32.5s-20.5 55.667 -20.5 102s7.33301 108.5 22 186.5h-8
c-100 -212.667 -228.333 -319 -385 -319c-76.667 0 -138.5 28.333 -185.5 85s-70.5 138.5 -70.5 245.5zM245.998 352.001c0 -82 13.835 -143.001 41.502 -183.001s64.167 -60 109.5 -60c95.333 0 185.666 80.667 270.999 242c31.333 59.333 62 133.333 92 222
c13.333 110 25.666 199 36.999 267c-72 28.667 -141.5 43 -208.5 43s-122.5 -18.167 -166.5 -54.5s-79.333 -81.166 -106 -134.499c-46.667 -93.333 -70 -207.333 -70 -342z" />
    <glyph glyph-name="e" unicode="e" horiz-adv-x="946" 
d="M82 377c0 276 89.666 470.332 268.999 582.999c67.333 42.667 153.666 64 258.999 64c88 0 156.667 -24 206 -72c46 -45.333 69 -102 69 -170s-15.667 -124.167 -47 -168.5s-75.333 -80.833 -132 -109.5c-106.667 -54 -260 -86.667 -460 -98
c-1.33301 -8 -2 -16.667 -2 -26v-26c0 -72 10.667 -123.333 32 -154c43.333 -60.667 110.166 -91 200.499 -91s186.833 23.667 289.5 71l37 -98c-44 -27.333 -100.167 -50.166 -168.5 -68.499s-137.166 -27.5 -206.499 -27.5s-126.666 10.167 -171.999 30.5
s-80.666 48.833 -105.999 85.5c-45.333 63.333 -68 155 -68 275zM253.999 507.999c154 6.66699 271.667 29.833 353 69.5s122 99.167 122 178.5c0 40.667 -10.833 74 -32.5 100s-57.834 39 -108.501 39c-96.667 0 -173.167 -34.5 -229.5 -103.5
s-91.166 -163.5 -104.499 -283.5z" />
    <glyph glyph-name="f" unicode="f" horiz-adv-x="679" 
d="M-279 -410l31.0039 111c44 -9.33301 88 -14 132 -14s79.5 7.83301 106.5 23.5s49.5 38.5 67.5 68.5c33.333 54 57.5 137.5 72.5 250.5l41 314.5l32.5 260c19.333 167.333 29 258.333 29 273h-165c3.33301 35.333 6.66602 63.333 9.99902 84l168 38l16 109
c19.333 124 57.333 219.5 114 286.5s140.334 100.5 251.001 100.5c75.333 0 140 -9 194 -27l-28 -120c-49.333 12 -93.5 18 -132.5 18s-71.167 -4.5 -96.5 -13.5s-47.333 -24.5 -66 -46.5c-40.667 -48 -67.334 -130.333 -80.001 -247l-8 -70h274
c-2.66699 -36 -6.66699 -73.333 -12 -112h-279c-15.333 -116 -29 -230.333 -41 -343s-23.833 -218 -35.5 -316s-24.334 -184.5 -38.001 -259.5s-34.834 -141.833 -63.501 -200.5c-63.333 -129.333 -164.333 -194 -303 -194c-62.667 0 -126.334 8.66699 -191.001 26z" />
    <glyph glyph-name="g" unicode="g" horiz-adv-x="1042" 
d="M55 -377l49.0029 119c77.333 -39.333 156.5 -59 237.5 -59s141.667 10.5 182 31.5s71.833 50.167 94.5 87.5c36 56.667 62 150 78 280l29 215c-1.33301 1.33301 -4 2 -8 2c-97.333 -208.667 -223 -313 -377 -313c-76.667 0 -138.834 28.333 -186.501 85
s-71.5 137.5 -71.5 242.5s10.833 198.833 32.5 281.5s54.167 154.667 97.5 216c93.333 134 222.666 201 387.999 201c122.667 -2.66699 240.667 -30 354 -82l9 -21c-19.333 -157.333 -39.666 -314 -60.999 -470l-62 -466c-18 -122 -54.333 -215 -109 -279
c-82.667 -95.333 -210.334 -143 -383.001 -143c-92.667 0 -190.334 24 -293.001 72zM248.003 358c0 -83.333 13.832 -144.998 41.499 -184.998s64.167 -60 109.5 -60c94.667 0 184 81.333 268 244c30.667 59.333 60.334 133.666 89.001 222.999l37 260
c-70 28.667 -138 43 -204 43s-121 -17.833 -165 -53.5s-79.333 -79.834 -106 -132.501c-46.667 -94 -70 -207 -70 -339z" />
    <glyph glyph-name="h" unicode="h" horiz-adv-x="1165" 
d="M88 1360l8.00098 79.999c98.667 26 177.667 39 237 39s96.166 -5.5 110.499 -16.5s21.5 -25 21.5 -42s-1.33301 -41.667 -4 -74s-6.5 -70.666 -11.5 -114.999l-16.5 -144l-18 -151.5c-6 -49.333 -11.833 -94.833 -17.5 -136.5s-9.83398 -74.167 -12.501 -97.5l8 -2
c53.333 108.667 122.333 192.667 207 252c64.667 45.333 130 68 196 68s113.333 -19.5 142 -58.5s43 -90.5 43 -154.5s-23.333 -289.333 -70 -676c56 4 111.333 21 166 51l39 -67c-93.333 -93.333 -180 -140 -260 -140c-42 0 -71 10 -87 30s-24 41 -24 63
c0 23.333 4.66699 74.5 14 153.5l27 235c8.66699 77.667 15 137.5 19 179.5c5.33301 56.667 8 99.334 8 128.001c0 82 -30.667 123 -92 123c-58.667 0 -119.667 -34.333 -183 -103c-76.667 -84.667 -138.667 -203.334 -186 -356.001l-59 -428h-164
c6.66699 56 14.834 121.167 24.501 195.5l30 236.5l30.5 254l28.5 249l25 222.5l19.5 171.5z" />
    <glyph glyph-name="i" unicode="i" horiz-adv-x="598" 
d="M92 901l6 81.999c110 26 188 39 234 39s75.833 -5.5 89.5 -16.5s20.5 -28.167 20.5 -51.5l-102 -823c57.333 4 114 21 170 51l39 -67c-45.333 -46.667 -91.5 -81.667 -138.5 -105s-90.5 -35 -130.5 -35c-70.667 0 -106 38.333 -106 115c0 16.667 1.33301 34.334 4 53.001
l92 727zM270 1254c0 30.667 11.001 57.999 33.001 81.999s47.667 36 77 36s53.166 -9.5 71.499 -28.5s27.5 -43.167 27.5 -72.5s-10.5 -56 -31.5 -80s-46.5 -36 -76.5 -36s-54.333 8.83301 -73 26.5s-28 41.834 -28 72.501z" />
    <glyph glyph-name="j" unicode="j" horiz-adv-x="552" 
d="M-109 -352c150.667 66.667 241.667 184.664 273 353.997c9.33301 50.667 17.333 103.334 24 158.001l74 710l-178 31l8 82c110 26 195.167 39 255.5 39s90.5 -22.667 90.5 -68c0 -1.33301 -2 -19.666 -6 -54.999s-8.66699 -80 -14 -134s-11.5 -112.333 -18.5 -175
l-19.5 -180c-6 -57.333 -11.5 -107.166 -16.5 -149.499l-15.5 -132.5c-5.33301 -46 -16.833 -103 -34.5 -171s-43.5 -129.333 -77.5 -184c-71.333 -116 -177.333 -190.667 -318 -224zM262 1254c0 30.667 11 57.999 33 81.999s47.667 36 77 36s53.166 -9.5 71.499 -28.5
s27.5 -43.167 27.5 -72.5s-10.5 -56 -31.5 -80s-46.667 -36 -77 -36s-54.666 8.83301 -72.999 26.5s-27.5 41.834 -27.5 72.501z" />
    <glyph glyph-name="k" unicode="k" horiz-adv-x="958" 
d="M41 1356l5.99902 79.999c111.333 32.667 191.333 49 240 49c48.667 0.666992 79.667 -7 93 -23c11.333 -13.333 17.333 -29.666 18 -48.999c0 -4 -0.333008 -8 -1 -12c-9.33301 -76.667 -18.833 -149.167 -28.5 -217.5l-27.5 -200.5
c-8.66699 -65.333 -17.834 -130.833 -27.501 -196.5s-19.167 -133.834 -28.5 -204.501h6c67.333 116.667 145 216 233 298c102.667 94.667 195 142 277 142c34 0 62.667 -10.667 86 -32s40.333 -49.666 51 -84.999l-57 -59c-38.667 18.667 -76.334 28 -113.001 28
c-57.333 0 -112.666 -22.333 -165.999 -67c-33.333 -28 -79 -78 -137 -150c36.667 -78 81 -164.667 133 -260c88 -161.333 143.333 -253.333 166 -276c44.667 12 96.667 39.333 156 82l49 -58c-81.333 -112 -159.333 -168 -234 -168c-32.667 0 -61.667 10 -87 30
s-51.333 51.667 -78 95c-28.667 47.333 -98 188 -208 422c-49.333 -66 -85.333 -128.667 -108 -188c-5.33301 -31.333 -9.66602 -60 -12.999 -86s-7 -51.667 -11 -77c-4 -28 -11 -85.667 -21 -173h-164c62.667 430.667 121.334 875 176.001 1333z" />
    <glyph glyph-name="l" unicode="l" horiz-adv-x="571" 
d="M90 1362l5.99805 80.001c101.333 26 180.333 39 237 39s92.5 -5.16699 107.5 -15.5s22.5 -25.5 22.5 -45.5s-3.16699 -57.5 -9.5 -112.5l-23.5 -201.5l-31.5 -258l-34 -274.5l-32 -252c-10.333 -77.667 -18.166 -141.167 -23.499 -190.5c58.667 4 114.667 21 168 51
l39 -67c-45.333 -46.667 -91.166 -81.667 -137.499 -105s-88.5 -35 -126.5 -35c-72.667 0 -109 37.667 -109 113c0 15.333 1.33301 33.666 4 54.999l144 1188z" />
    <glyph glyph-name="m" unicode="m" horiz-adv-x="1691" 
d="M61 901l7 80c92.667 27.333 182 41 268 41c61.333 0 92 -23.333 92 -70c0 -36.667 -10.333 -123.334 -31 -260.001h9c82.667 169.333 177 273.333 283 312c28 10.667 53.667 16 77 16c68 0 116 -18 144 -54c31.333 -39.333 47 -92.333 47 -159
c0 -10 -0.333008 -20 -1 -30c-1.33301 -21.333 -3.33301 -51.666 -6 -90.999l6 -2c50 109.333 114 196 192 260c65.333 53.333 123.666 80 174.999 80c72.667 0 123.667 -19.833 153 -59.5s44 -86.334 44 -140.001s-23.333 -283.5 -70 -689.5
c54.667 1.33301 109.334 18.333 164.001 51l39 -67c-45.333 -46.667 -91.166 -81.5 -137.499 -104.5s-88.5 -34.5 -126.5 -34.5s-65 9.5 -81 28.5s-24 46.167 -24 81.5c0 16.667 4.5 62.834 13.5 138.501l26.5 229l20 180.5c5.33301 56 8 100.667 8 134
c0 78 -30 117 -90 117c-52 0 -108 -36.167 -168 -108.5s-116 -190.5 -168 -354.5c-4 -34 -7.83301 -63.333 -11.5 -88s-6.83398 -51 -9.50098 -79c-6 -60 -16.333 -146.333 -31 -259h-161l28 229l29.5 270.5c7.66699 67 12.834 119.167 15.501 156.5
c4.66699 53.333 7 91.333 7 114c0 76.667 -30.333 115 -91 115c-88 0 -171.333 -82.667 -250 -248c-28 -58.667 -55 -129.667 -81 -213l-58 -424h-163c17.333 127.333 52.666 417.333 105.999 870z" />
    <glyph glyph-name="n" unicode="n" horiz-adv-x="1171" 
d="M61 899l6.99805 82.001c100 26 178.5 39 235.5 39s91.333 -5.5 103 -16.5s17.5 -40.5 17.5 -88.5s-9.66699 -122.333 -29 -223h8c58 115.333 129 201.333 213 258c68 45.333 125.667 68 173 68s84 -6.16699 110 -18.5s46.333 -28.833 61 -49.5c26 -38.667 39 -88 39 -148
s-23 -284.333 -69 -673c54.667 4 109.334 21 164.001 51l39 -67c-48 -48 -97.333 -82.167 -148 -102.5s-93 -30.5 -127 -30.5c-62.667 0 -94 35.333 -94 106v24c0 10 4.5 50.167 13.5 120.5s17.5 144.333 25.5 222s14 138.167 18 181.5
c6.66699 71.333 10 119.666 10 144.999s-7.16699 49.333 -21.5 72s-36.5 34 -66.5 34s-60.667 -8.5 -92 -25.5s-63.666 -44.167 -96.999 -81.5c-75.333 -83.333 -137 -202 -185 -356l-58 -422h-161c49.333 376.667 85.333 666 108 868z" />
    <glyph glyph-name="o" unicode="o" horiz-adv-x="1015" 
d="M82 377c0 170 37.3311 313.667 111.998 431c40 62 91.833 112.833 155.5 152.5s135.334 59.5 215.001 59.5s143.334 -11 191.001 -33s86.167 -51.667 115.5 -89c55.333 -70.667 83 -166 83 -286c0 -164 -35 -302 -105 -414c-88.667 -141.333 -221.334 -212 -398.001 -212
c-131.333 0 -227.666 38 -288.999 114c-53.333 66.667 -80 159 -80 277zM245.998 356c0 -164.667 73.668 -247 221.001 -247c65.333 0 118.833 17.667 160.5 53s74.167 79 97.5 131c40.667 90.667 61 197 61 319c0 128 -36 212.667 -108 254c-28 15.333 -62.333 23 -103 23
c-118.667 0 -207.334 -65 -266.001 -195c-42 -93.333 -63 -206 -63 -338z" />
    <glyph glyph-name="p" unicode="p" horiz-adv-x="1095" 
d="M-70 -426l15 123.001h145l139 1171l-196 31l6 82c101.333 26 178.833 39 232.5 39s88.334 -4.5 104.001 -13.5s23.5 -25.167 23.5 -48.5l-32 -272h10c99.333 217.333 227.666 326 384.999 326c75.333 0 136.5 -28.667 183.5 -86s70.5 -140 70.5 -248
s-11 -203.333 -33 -286s-55 -154.334 -99 -215.001c-93.333 -130 -223.333 -195 -390 -195c-56 0 -123.667 12 -203 36l-20.5 -160.5l-20.5 -160.5h184l-14 -123h-490zM303 152.001c66.667 -27.333 134.165 -41.002 202.498 -41.002s124.666 17.667 168.999 53
s79.5 79.333 105.5 132c46.667 94.667 70 206.334 70 335.001c0 84.667 -13.667 146.834 -41 186.501s-63.666 59.5 -108.999 59.5c-94 0 -184.333 -80.333 -271 -241c-32 -59.333 -62.333 -133.333 -91 -222c-5.33301 -44 -11.166 -87.833 -17.499 -131.5
s-12.166 -87.167 -17.499 -130.5z" />
    <glyph glyph-name="q" unicode="q" horiz-adv-x="1056" 
d="M82 309.5c0 105 10.834 199.166 32.501 282.499s54 156 97 218s97.333 111.5 163 148.5s141.5 55.5 227.5 55.5c116.667 0 234.667 -28 354 -84l9 -19c-4 -21.333 -15.333 -110.166 -34 -266.499l-41 -343l-26.5 -214c-9 -70.333 -16.667 -133.5 -23 -189.5
s-11.833 -102.5 -16.5 -139.5s-7 -58.167 -7 -63.5h150l-13 -123h-489l14 123h172c38 338 62.667 538 74 600h-8c-97.333 -208.667 -223 -313 -377 -313c-76.667 0 -138.834 28.333 -186.501 85s-71.5 137.5 -71.5 242.5zM248.001 353.999
c0 -83.333 13.835 -144.669 41.502 -184.002s64.167 -59 109.5 -59c95.333 0 184.666 80.667 267.999 242c30.667 59.333 60.334 133.333 89.001 222l39 265c-66.667 28.667 -133.834 43 -201.501 43s-123.834 -18.167 -168.501 -54.5s-79.667 -81.166 -105 -134.499
c-48 -99.333 -72 -212.666 -72 -339.999z" />
    <glyph glyph-name="r" unicode="r" horiz-adv-x="854" 
d="M86 899l5.99805 82c101.333 26 176.5 39 225.5 39s80 -5.5 93 -16.5s19.5 -29 19.5 -54s-9.66699 -105.167 -29 -240.5h7c44 122 97 208.333 159 259c44.667 36 92.167 54 142.5 54s86.333 -12 108 -36s33.834 -52.333 36.501 -85l-70 -76
c-37.333 18 -74.666 27 -111.999 27c-52 0 -106.333 -37.167 -163 -111.5s-104.667 -189.5 -144 -345.5l-14.5 -110.5l-12.5 -97.5c-9.33301 -72 -18.333 -134.333 -27 -187h-157c52.667 414.667 88.667 704 108 868z" />
    <glyph glyph-name="s" unicode="s" horiz-adv-x="874" 
d="M55 123c0 58 23.998 131.001 71.998 219.001l78 -4l-10 -209c46.667 -19.333 93.667 -29 141 -29s86.833 3.5 118.5 10.5s60.167 17.5 85.5 31.5c55.333 31.333 83 77 83 137c0 61.333 -44.333 111 -133 149c-144 61.333 -234.333 107.333 -271 138
s-62.5 58.667 -77.5 84s-22.5 58.5 -22.5 99.5s10.833 79.333 32.5 115s50.5 65.5 86.5 89.5c68.667 45.333 157.334 68 266.001 68c121.333 0 207.333 -24 258 -72c16 -16 24 -36 24 -60s-7.5 -58.5 -22.5 -103.5s-31.167 -84.5 -48.5 -118.5l-78 4l10 200
c-42.667 20.667 -84.334 31 -125.001 31s-73.667 -2.66699 -99 -8s-47.666 -14.333 -66.999 -27c-44.667 -27.333 -67 -68.333 -67 -123c0 -48.667 47 -95 141 -139c24.667 -12 51.334 -24.333 80.001 -37s60 -27.667 94 -45s64.333 -37.333 91 -60
c60.667 -51.333 91 -106.333 91 -165s-11.5 -106.834 -34.5 -144.501s-54.167 -69.167 -93.5 -94.5c-77.333 -49.333 -174 -74 -290 -74s-197.167 12.833 -243.5 38.5s-69.5 58.5 -69.5 98.5z" />
    <glyph glyph-name="t" unicode="t" horiz-adv-x="735" 
d="M94 887l8 87.999l156 37l80 223l104 16l-30 -252h293l-13 -112h-291c-52.667 -400 -79 -606 -79 -618v-27c0 -36.667 7.5 -66 22.5 -88s48 -33 99 -33s112.833 10.333 185.5 31l24 -109c-91.333 -35.333 -179.333 -53 -264 -53c-156.667 0 -235 64 -235 192l2 33
c15.333 116 29 229.333 41 340s25.667 221.334 41 332.001h-144z" />
    <glyph glyph-name="u" unicode="u" horiz-adv-x="1167" 
d="M63 899l6.99707 82c98.667 26 176.834 39 234.501 39s93 -5.83301 106 -17.5s19.5 -27.667 19.5 -48s-1.66699 -48.333 -5 -84s-7.83301 -77 -13.5 -124l-18.5 -150.5c-6.66699 -53.333 -12.667 -104 -18 -152c-12.667 -115.333 -19 -185.666 -19 -210.999
c0 -77.333 31 -116 93 -116c98 0 191.667 82.333 281 247c32 59.333 61.667 131.333 89 216c10.667 69.333 20.834 138.833 30.501 208.5l29.5 210.5h155c-19.333 -140.667 -37.833 -283.334 -55.5 -428.001l-54.5 -442c56 4.66699 111.333 21.667 166 51l38 -67
c-46.667 -46.667 -94.5 -80.5 -143.5 -101.5s-91.167 -31.5 -126.5 -31.5s-59.166 9.16699 -71.499 27.5s-18.5 46.833 -18.5 85.5s6.66699 108 20 208h-10c-54 -110 -122.667 -194 -206 -252c-64.667 -44.667 -127 -67 -187 -67c-131.333 0 -197 68 -197 204
c0 42 8.66699 138.5 26 289.5l44 394.5c-45.333 6 -110.333 15.667 -195 29z" />
    <glyph glyph-name="v" unicode="v" horiz-adv-x="1009" 
d="M6 899c44 42 86.502 73.666 127.502 94.999s75.167 32 102.5 32s48 -6.16699 62 -18.5s23.5 -39 28.5 -80l18.5 -157.5l23.5 -202.5c8.33301 -71 16.166 -142.333 23.499 -214s14.666 -137.5 21.999 -197.5h10c94 105.333 175.333 221 244 347
c74.667 138.667 114.667 263.334 120 374.001c-35.333 -8.66699 -84.333 -21.667 -147 -39l-23 69c90.667 75.333 164 113 220 113c30 0 55.833 -9.16699 77.5 -27.5s32.5 -46.833 32.5 -85.5c-2.66699 -146 -63 -315.667 -181 -509
c-102.667 -168.667 -213.667 -304 -333 -406h-149l-109 878l-143 -41c-2 4 -11 27.333 -27 70z" />
    <glyph glyph-name="w" unicode="w" horiz-adv-x="1456" 
d="M6 895c93.333 86 174.666 129.003 243.999 129.003c51.333 0 81.333 -46 90 -138c2.66699 -28 6.33398 -76.167 11.001 -144.5s11.167 -154.333 19.5 -258s15.166 -210.834 20.499 -321.501h10c81.333 92.667 163.333 218.667 246 378
c23.333 45.333 42.666 88 57.999 128c-2.66699 34 -5.16699 67.667 -7.5 101s-4.83301 67 -7.5 101l-143 -43l-27 70c97.333 84.667 178 127 242 127c36.667 -2.66699 59.5 -18 68.5 -46s16.167 -88 21.5 -180c14 -236.667 27.667 -448.667 41 -636h8
c144.667 162 245.667 340 303 534c19.333 63.333 30.333 123.666 33 180.999l-145 -41l-21 69c94.667 82 174.667 123 240 123c30 0 51.5 -9.83301 64.5 -29.5s19.5 -53.834 19.5 -102.501s-7.16699 -101 -21.5 -157s-34.166 -112.667 -59.499 -170
s-54.333 -114.333 -87 -171s-67 -110 -103 -160c-70 -100 -141.667 -182 -215 -246h-149l-37 452c-1.33301 0 -2 0.333008 -2 1s-0.666992 1 -2 1c-66 -135.333 -148.667 -262 -248 -380c-27.333 -32 -50.666 -56.667 -69.999 -74h-145c-13.333 146 -25.5 293 -36.5 441
s-25.5 293.667 -43.5 437l-143 -43z" />
    <glyph glyph-name="x" unicode="x" horiz-adv-x="972" 
d="M35 61l2.00098 18.999l358 416l-153 368l-158 -55l-35 74c92.667 87.333 170.667 131 234 131c24.667 0 45.5 -5.83301 62.5 -17.5s31.5 -33.167 43.5 -64.5l127 -305l266 383h17l106 -90v-19l-340 -383l162 -385c53.333 4.66699 111.333 26 174 64l49 -64
c-49.333 -60 -97.5 -101.333 -144.5 -124s-84.5 -34 -112.5 -34c-46.667 0 -82 25.667 -106 77c-46.667 100.667 -94.334 212.334 -143.001 335.001l-292 -418l-17 -2z" />
    <glyph glyph-name="y" unicode="y" horiz-adv-x="1032" 
d="M-225 -307l69.001 40.9971c23.333 -27.333 49.333 -44.833 78 -52.5s65.167 -11.5 109.5 -11.5s99.333 17.5 165 52.5s134.5 93.5 206.5 175.5c-54 332.667 -118.667 654 -194 964l-152 -41l-26 70c46.667 44 91 75.5 133 94.5s75.333 28.5 100 28.5
s43.167 -6.16699 55.5 -18.5s22.166 -32.5 29.499 -60.5s15.5 -61.167 24.5 -99.5s18.333 -82.333 28 -132l31 -160.5c11 -57.333 21.5 -115 31.5 -173l29.5 -170c9.66699 -55.333 17.834 -105.666 24.501 -150.999c80 111.333 150 257.666 210 438.999
c52.667 158.667 79 285.334 79 380.001l-148 -39c-8.66699 33.333 -15.334 56.666 -20.001 69.999c86 80.667 160.333 121 223 121c34 0 59.333 -9.83301 76 -29.5s25 -62.667 25 -129s-12.333 -147.666 -37 -243.999s-59.5 -194.666 -104.5 -294.999
s-98.667 -198.666 -161 -294.999s-131.166 -182.166 -206.499 -257.499c-166 -166 -334.333 -249 -505 -249c-72.667 0 -124.334 14.333 -155.001 43c-19.333 18 -29 41.667 -29 71c0 17.333 3.33301 36.666 10 57.999z" />
    <glyph glyph-name="z" unicode="z" horiz-adv-x="935" 
d="M20 100l666.001 780.999h-410l-79 -211l-82 8l22 242c4 35.333 17 57.333 39 66s42 13 60 13h630l25 -104l-664 -778h488l82 215l73 -4l-28 -250c-3.33301 -45.333 -26 -70.666 -68 -75.999c-10.667 -1.33301 -20.334 -2 -29.001 -2h-706z" />
    <glyph glyph-name="braceleft" unicode="{" horiz-adv-x="526" 
d="M74 557l12.002 92.002c56 15.333 93.5 40 112.5 74s34.167 85.333 45.5 154l39 305c12 108.667 51.333 185 118 229c27.333 18 61.666 27 102.999 27h102l-16 -111h-49c-62.667 0 -98.334 -31 -107.001 -93c-2.66699 -18.667 -5.33398 -38.667 -8.00098 -60l-39 -324
c-10 -95.333 -38.667 -165 -86 -209c-18 -16.667 -39 -28.334 -63 -35.001c36.667 -20.667 61.834 -44.5 75.501 -71.5s20.5 -56 20.5 -87s-2 -60.833 -6 -89.5l-58 -460c-1.33301 -10.667 -2 -20.667 -2 -30v-28c2.66699 -22 8.5 -40.167 17.5 -54.5
s27.167 -21.5 54.5 -21.5h59l-12 -110h-78c-74 0 -124.5 14.667 -151.5 44s-40.5 72 -40.5 128v22c0 7.33301 3 32.166 9 74.499s13.5 103 22.5 182s17.167 144.833 24.5 197.5s11 90.667 11 114c0 72 -36.667 119 -110 141z" />
    <glyph glyph-name="bar" unicode="|" horiz-adv-x="483" 
d="M182 -285v1719h113v-1719h-113z" />
    <glyph glyph-name="braceright" unicode="}" horiz-adv-x="526" 
d="M-49 -344l15.9971 111.001h49c62.667 0 98.334 31 107.001 93c2.66699 18 5.33398 38 8.00098 60l45 418c14 137.333 64 218.666 150 243.999c-36.667 20.667 -62 44.5 -76 71.5s-21 56 -21 87s2.33301 60.5 7 88.5l51 367c1.33301 10.667 2 20.667 2 30v27
c-2.66699 22 -8.5 40.167 -17.5 54.5s-27.167 21.5 -54.5 21.5h-59l12 111h78c74 0 124.5 -14.667 151.5 -44s40.5 -72 40.5 -128v-22c0 -7.33301 -1.66699 -22.5 -5 -45.5l-11 -79l-12 -85.5c-22 -150.667 -33 -238.667 -33 -264c0 -72 36.667 -119 110 -141l-12 -92
c-56 -15.333 -93.5 -40 -112.5 -74s-34.167 -85.333 -45.5 -154l-45 -399c-12 -110 -51.333 -186.667 -118 -230c-27.333 -17.333 -61.666 -26 -102.999 -26h-102z" />
    <glyph glyph-name="asciitilde" unicode="~" 
d="M168 563c28.667 53.333 64.5029 95.668 107.503 127.001s84.667 47 125 47s78.166 -5 113.499 -15s71.166 -20.833 107.499 -32.5l103.5 -33c32.667 -10.333 62.667 -15.5 90 -15.5l148 98l59 -55c-27.333 -52 -62.5 -94.667 -105.5 -128s-87.333 -50 -133 -50
s-86.334 5.16699 -122.001 15.5s-69.5 21.166 -101.5 32.499l-92 32.5c-29.333 10.333 -57 15.5 -83 15.5l-158 -96z" />
    <glyph glyph-name="uni00A0" unicode="&#xa0;" horiz-adv-x="538" 
 />
    <glyph glyph-name="exclamdown" unicode="&#xa1;" horiz-adv-x="446" 
d="M39 -428l82 627l72 448h108l-37 -448l-65 -627h-160zM176 902c0 29.333 12 56 36 80s50.667 36 80 36s52.833 -8.83301 70.5 -26.5s26.5 -41.167 26.5 -70.5s-11.167 -56 -33.5 -80s-49.333 -36 -81 -36s-56 8.83301 -73 26.5s-25.5 41.167 -25.5 70.5z" />
    <glyph glyph-name="cent" unicode="&#xa2;" 
d="M195 348c0 260.667 70.999 451.998 212.999 573.998c56 48.667 129 79.334 219 92.001l24 200h88l-24 -194c72.667 0 142.334 -12.333 209.001 -37c42 -15.333 63 -40 63 -74v-12c0 -26 -9.16699 -65.667 -27.5 -119s-31.5 -88.666 -39.5 -105.999l-86 6l10 192
c-41.333 15.333 -88.666 23 -141.999 23h-4l-94 -780c81.333 2.66699 168.666 23 261.999 61l37 -102c-93.333 -50.667 -198.333 -78.667 -315 -84l-19 -156h-90l19 156c-196 14 -297 134 -303 360zM357.999 367.998c0 -142.667 52 -225.667 156 -249l94 758
c-81.333 -29.333 -144 -92.333 -188 -189c-41.333 -89.333 -62 -196 -62 -320z" />
    <glyph glyph-name="sterling" unicode="&#xa3;" 
d="M74 0l10.002 122.998c56 22.667 102 71.334 138 146.001c18 36 38.333 104.667 61 206l28 162h-135l12 108h140l34 220c43.333 274 181.333 411 414 411c61.333 0 122.166 -6.5 182.499 -19.5s108.833 -29.5 145.5 -49.5l-29 -267h-127l21 170
c-71.333 22 -132.333 33 -183 33s-91.334 -7.16699 -122.001 -21.5s-56 -34.166 -76 -59.499c-32.667 -42.667 -58 -112 -76 -208l-33 -209h369l-14 -108h-373l-27 -166c-30 -184.667 -77.667 -300 -143 -346h690l-12 -125h-895z" />
    <glyph glyph-name="currency" unicode="&#xa4;" horiz-adv-x="1097" 
d="M143 268l129.001 124.999c-51.333 64.667 -77 143.5 -77 236.5s25.667 169.833 77 230.5l-127 131l74 78l129 -131c65.333 53.333 140.5 80 225.5 80s162.167 -26.667 231.5 -80l127 131l78 -80l-131 -127c50 -67.333 75 -144.166 75 -230.499
s-24.333 -165.833 -73 -238.5l129 -123l-78 -82l-129 129c-60.667 -51.333 -135.334 -77 -224.001 -77s-165 25.667 -229 77l-129 -131zM309.001 625.999c0 -37.333 6.83301 -72.499 20.5 -105.499s32.834 -61.833 57.501 -86.5c53.333 -53.333 116 -80 188 -80
c71.333 0 133.666 26.667 186.999 80s80 117.666 80 192.999c0 74 -26.333 138 -79 192c-52 53.333 -114.667 80 -188 80c-72 0 -134.667 -26.667 -188 -80c-52 -52 -78 -116.333 -78 -193z" />
    <glyph glyph-name="yen" unicode="&#xa5;" 
d="M131 1235l16 125h383l-16 -125h-123l184 -535h7l317 535h-125l14 125h392l-17 -125h-98l-352 -563h276l-10 -82h-819l10 82h270l-207 563h-102zM137 403l10 89h820l-11 -89h-333l-33 -280h162l-15 -123h-483l14 123h160l35 280h-326z" />
    <glyph glyph-name="brokenbar" unicode="&#xa6;" horiz-adv-x="483" 
d="M236 -285v783h112v-783h-112zM236 700v734h112v-734h-112z" />
    <glyph glyph-name="section" unicode="&#xa7;" horiz-adv-x="937" 
d="M68 -221l32.001 252.001h119l-20 -160c69.333 -19.333 126.5 -29 171.5 -29s82.833 4.83301 113.5 14.5s58.334 23.5 83.001 41.5c53.333 40 80 93.667 80 161c0 40.667 -14.667 75.167 -44 103.5s-65.833 53.833 -109.5 76.5s-86 43.5 -127 62.5s-78.5 40.5 -112.5 64.5
c-78 56 -117 125.667 -117 209c0 52 13.333 104 40 156s68.667 97.667 126 137c-65.333 54.667 -98 121 -98 199c0 102 39 181.667 117 239c71.333 52 165.333 78 282 78c100.667 0 198.334 -17 293.001 -51c-12.667 -82 -24.334 -168 -35.001 -258h-121l21 160
c-62.667 18 -114.5 27 -155.5 27s-74.833 -3.83301 -101.5 -11.5s-50.334 -19.167 -71.001 -34.5c-43.333 -31.333 -65 -75.666 -65 -132.999c0 -62.667 49.333 -120.334 148 -173.001l85 -45c28.667 -14.667 57.667 -30.334 87 -47.001s55.666 -36 78.999 -58
c52 -49.333 78 -107.333 78 -174c0 -34 -11.333 -77.333 -34 -130s-66.667 -107.667 -132 -165c60 -39.333 98 -96.333 114 -171c4.66699 -20 7 -38 7 -54c0 -106 -41.333 -190.667 -124 -254c-76.667 -58.667 -170 -88 -280 -88c-130 0 -239.667 18.333 -329 55z
M283.001 594.001c0 -54.667 33.002 -102.001 99.002 -142.001c29.333 -17.333 61.666 -33.833 96.999 -49.5s69.666 -32.5 102.999 -50.5c39.333 36.667 68.833 73.834 88.5 111.501s30.167 69.5 31.5 95.5c-2 58 -36 107 -102 147c-28.667 18 -60 34.5 -94 49.5
s-66.667 31.5 -98 49.5c-83.333 -66 -125 -136.333 -125 -211z" />
    <glyph glyph-name="dieresis" unicode="&#xa8;" horiz-adv-x="1001" 
d="M324 1241c1.33301 27.333 13.1689 50.835 35.502 70.502s46.166 29.5 71.499 29.5s46.5 -7.5 63.5 -22.5s24.833 -36.833 23.5 -65.5s-12.166 -52.834 -32.499 -72.501s-44.833 -29.5 -73.5 -29.5s-50.834 8.16699 -66.501 24.5s-22.834 38.166 -21.501 65.499z
M698.003 1241c1.33301 27.333 12.668 50.835 34.001 70.502s45 29.5 71 29.5s47.167 -7.5 63.5 -22.5s24.166 -36.833 23.499 -65.5s-11.667 -52.834 -33 -72.501s-46.333 -29.5 -75 -29.5s-50.167 8.16699 -64.5 24.5s-20.833 38.166 -19.5 65.499z" />
    <glyph glyph-name="copyright" unicode="&#xa9;" horiz-adv-x="1667" 
d="M106 682c0 102.667 18.8301 199.003 56.4971 289.003s89.334 168.833 155.001 236.5s143.167 120.834 232.5 159.501s187 58 293 58s203.667 -19.333 293 -58s166.333 -91.834 231 -159.501s115.167 -146.5 151.5 -236.5s54.5 -186.333 54.5 -289
s-19.5 -199.334 -58.5 -290.001s-91.667 -169.834 -158 -237.501s-144.166 -120.834 -233.499 -159.501s-187.5 -58 -294.5 -58s-205.667 19.333 -296 58s-167.166 91.667 -230.499 159c-130.667 140 -196 316 -196 528zM192.997 682.003
c0 -188 56.998 -343.333 170.998 -466c118.667 -128.667 277.334 -193 476.001 -193c176.667 0 328.667 64.333 456 193c58.667 59.333 104.834 129.333 138.501 210s50.5 166 50.5 256c0 185.333 -60 340 -180 464c-123.333 127.333 -278.333 191 -465 191
c-182 0 -335.333 -63.667 -460 -191c-58 -59.333 -103.667 -129 -137 -209s-50 -165 -50 -255zM429.995 666.003c0 224.667 73.001 382.668 219.001 474.001c56 34.667 129.667 52 221 52s172 -13.667 242 -41v-236h-92v152c-51.333 13.333 -102 20 -152 20
c-106.667 0 -184.834 -38 -234.501 -114s-74.5 -178.333 -74.5 -307c0 -126 21 -222 63 -288c50 -77.333 134 -116 252 -116c77.333 0 156 11 236 33l20 -92c-76.667 -31.333 -161.667 -47 -255 -47s-167 12.167 -221 36.5s-97.333 59.166 -130 104.499
c-62.667 86.667 -94 209.667 -94 369z" />
    <glyph glyph-name="ordfeminine" unicode="&#xaa;" horiz-adv-x="770" 
d="M80 775.5c0 71.667 7.50098 133.667 22.501 186s37.5 97.833 67.5 136.5c64.667 84.667 154 127 268 127c49.333 -2.66699 100.666 -14.334 153.999 -35.001l31 37l84 -4l-27.5 -198l-21 -147.5c-6.33301 -43 -11.5 -81.833 -15.5 -116.5l-12 -104
c36 4.66699 73.333 19 112 43l37 -55c-30 -27.333 -62.667 -51.166 -98 -71.499s-65.333 -30.5 -90 -30.5c-52 0 -78 33.333 -78 100c0 20 3.33301 53.333 10 100h-4c-35.333 -69.333 -76.5 -119.333 -123.5 -150s-94.5 -46 -142.5 -46s-89 20.167 -123 60.5
s-51 96.333 -51 168zM207.001 823c0 -118.667 33.332 -177.997 99.999 -177.997c32.667 0 70.167 21.5 112.5 64.5s82.166 119.167 119.499 228.5c4 27.333 8.33301 53.666 13 78.999s8.33398 51.666 11.001 78.999c-51.333 20 -97.666 30 -138.999 30
s-76.333 -10.833 -105 -32.5s-51 -48.834 -67 -81.501c-30 -59.333 -45 -122.333 -45 -189z" />
    <glyph glyph-name="guillemotleft" unicode="&#xab;" horiz-adv-x="860" 
d="M109 346l10 80l330 326l61 -54l-240 -313l164 -311l-74 -51zM403 346l11 80l329 326l60 -54l-238 -313l162 -311l-72 -51z" />
    <glyph glyph-name="logicalnot" unicode="&#xac;" 
d="M193 553l14 119h768l-55 -463h-121l41 344h-647z" />
    <glyph glyph-name="uni00AD" unicode="&#xad;" horiz-adv-x="727" 
d="M111 471l18 139h514l-18 -139h-514z" />
    <glyph glyph-name="registered" unicode="&#xae;" horiz-adv-x="1159" 
d="M145 965c0 137.333 45.667 253 137 347c93.333 96 209 144 347 144c138.667 0 255 -48 349 -144c90.667 -94 136 -209.667 136 -347c0 -138.667 -45.333 -254.334 -136 -347.001c-94.667 -95.333 -211 -143 -349 -143c-137.333 0 -253 47.667 -347 143
c-91.333 92.667 -137 208.334 -137 347.001zM215 965c0 -118 38.333 -217 115 -297c80 -82 179.667 -123 299 -123c124.667 0 225.667 41 303 123c73.333 78.667 110 177.667 110 297c0 116.667 -38.667 215.667 -116 297c-78.667 82.667 -177.667 124 -297 124
c-118 0 -217 -41.333 -297 -124c-78 -80.667 -117 -179.667 -117 -297zM406 672v66.999h51v463h-51v68h251c56 0 100.833 -13.667 134.5 -41s50.5 -69.666 50.5 -126.999c0 -26 -8.5 -55 -25.5 -87s-44.833 -56.333 -83.5 -73l96 -203l62 -8v-55
c-26.667 -6.66699 -51 -10 -73 -10c-32.667 0 -56 16.333 -70 49l-103 215h-100v-191h67v-67h-206zM545 994.999h104c70 0 105 34 105 102c0 40 -10.333 67.833 -31 83.5s-44.667 23.5 -72 23.5h-106v-209z" />
    <glyph glyph-name="macron" unicode="&#xaf;" horiz-adv-x="1001" 
d="M268 1206l17 131h647l-17 -131h-647z" />
    <glyph glyph-name="degree" unicode="&#xb0;" horiz-adv-x="706" 
d="M109 1116c2.66699 72.667 29.501 134.5 80.501 185.5s113.5 76.5 187.5 76.5c70.667 0 131 -26 181 -78c47.333 -50 71 -111.667 71 -185c0 -36 -7.16699 -69.667 -21.5 -101s-33.5 -58.666 -57.5 -81.999c-50.667 -49.333 -112.334 -74 -185.001 -74
c-78.667 0 -142 24.667 -190 74s-70 110.666 -66 183.999zM203.001 1112c-1.33301 -46.667 13.333 -85.998 44 -117.998s68.834 -48 114.501 -48s85.167 15.667 118.5 47s50.333 70.666 51 117.999s-15 87.666 -47 120.999s-71 50 -117 50
c-46.667 0 -85.334 -16.667 -116.001 -50s-46.667 -73.333 -48 -120z" />
    <glyph glyph-name="plusminus" unicode="&#xb1;" 
d="M125 0l14 109h766l-14 -109h-766zM193 549l14 121h323l39 321h121l-39 -321h322l-15 -121h-321l-43 -332h-119l41 332h-323z" />
    <glyph glyph-name="uni00B2" unicode="&#xb2;" horiz-adv-x="745" 
d="M33 727l9.99902 93.999l139 109.5c54.667 43 107.334 88.5 158.001 136.5c121.333 114.667 182 204.667 182 270c0 71.333 -47 107 -141 107c-64.667 0 -139.667 -23.333 -225 -70l-54 88c102 64.667 196 97 282 97c183.333 0 275 -67 275 -201
c0 -121.333 -95.667 -258.666 -287 -411.999l-139 -108h287l8 104h115l-18 -215h-592z" />
    <glyph glyph-name="uni00B3" unicode="&#xb3;" horiz-adv-x="745" 
d="M18 772l39.0029 95.9971c58.667 -22 104.167 -34.667 136.5 -38s62.166 -5 89.499 -5s54.666 3.83301 81.999 11.5s51.666 18.167 72.999 31.5c45.333 30 68 69.667 68 119c0 87.333 -57.333 131 -172 131c-24 0 -54.667 -2.66699 -92 -8l-15 94
c92.667 16.667 162.667 40.334 210 71.001s71 59.667 71 87c0 56 -44.333 84 -133 84c-64.667 0 -139.667 -17.667 -225 -53l-39 86c92.667 50 184.667 75 276 75s156.5 -16.667 195.5 -50s58.5 -70.666 58.5 -111.999s-15 -80.833 -45 -118.5s-67.667 -66.167 -113 -85.5
c53.333 -13.333 93.333 -37.5 120 -72.5s40 -73 40 -114s-8.5 -78.167 -25.5 -111.5s-40.833 -62.666 -71.5 -87.999c-66.667 -55.333 -153.667 -83 -261 -83c-112 0 -201 17.667 -267 53z" />
    <glyph glyph-name="acute" unicode="&#xb4;" horiz-adv-x="1001" 
d="M502 1159l278 338l103 -102l-318 -293z" />
    <glyph glyph-name="paragraph" unicode="&#xb6;" horiz-adv-x="1046" 
d="M160 1001c0 119.333 40.001 219 120.001 299c79.333 79.333 175.666 119 288.999 119h541l-14 -121h-133l-209 -1695h-117l209 1695h-133l-209 -1695h-281l17 118h159l115 945h-29c-100 0 -179.167 31 -237.5 93s-87.5 142.667 -87.5 242z" />
    <glyph glyph-name="periodcentered" unicode="&#xb7;" horiz-adv-x="407" 
d="M119 577c0 30 12 56.6689 36 80.002s50.667 35 80 35s52.833 -8.83301 70.5 -26.5s26.5 -41.834 26.5 -72.501s-12.333 -58.334 -37 -83.001s-51.667 -37 -81 -37s-52.5 9.83301 -69.5 29.5s-25.5 44.5 -25.5 74.5z" />
    <glyph glyph-name="cedilla" unicode="&#xb8;" horiz-adv-x="899" 
d="M195 -502l6.00098 78c168 15.333 252 58.333 252 129c0 49.333 -63.667 74 -191 74l-20 41l227 256l57 -39l-143 -164c130 -8.66699 195 -56.334 195 -143.001c0 -63.333 -31 -116.666 -93 -159.999c-68.667 -48 -165.334 -72 -290.001 -72z" />
    <glyph glyph-name="uni00B9" unicode="&#xb9;" horiz-adv-x="745" 
d="M111 729l8.00098 107h182c5.33301 45.333 11.166 92.5 17.499 141.5l18.5 149l18.5 149.5l17.5 139l-203 -29l-6 91l239 69h121l-86 -710h170l-8 -107h-489z" />
    <glyph glyph-name="ordmasculine" unicode="&#xba;" horiz-adv-x="700" 
d="M66 811c0 183.333 60.001 310.331 180.001 380.998c44 26 94 39 150 39s100.667 -7.16699 134 -21.5s60.666 -33.833 81.999 -58.5c40 -47.333 60 -110.666 60 -189.999c0 -177.333 -58.667 -301.333 -176 -372c-44 -26.667 -95.333 -40 -154 -40
s-104.667 6.83301 -138 20.5s-60.333 31.834 -81 54.501c-38 42.667 -57 105 -57 187zM193.001 796.998c0 -45.333 8.33301 -77.333 25 -96c30 -36 68.5 -54 115.5 -54s83.667 11.333 110 34s46.5 50 60.5 82c24.667 54 37 120 37 198c0 79.333 -24 131.666 -72 156.999
c-18 10 -44.833 15 -80.5 15s-67 -11.667 -94 -35s-48.5 -52.666 -64.5 -87.999c-24.667 -55.333 -37 -126.333 -37 -213z" />
    <glyph glyph-name="guillemotright" unicode="&#xbb;" horiz-adv-x="860" 
d="M57 74l238 311l-160 313l74 54l252 -326l-10 -80l-334 -323zM352 74l236 311l-160 313l76 54l250 -326l-11 -80l-333 -323z" />
    <glyph glyph-name="onequarter" unicode="&#xbc;" horiz-adv-x="1638" 
d="M205 545l8.00098 106h182c5.33301 45.333 11.166 92.5 17.499 141.5l18.5 149.5l18.5 149.5l17.5 139.5l-203 -29l-6 90l240 70h120l-86 -711h170l-8 -106h-489zM516.001 -45l778 1481h109l-774 -1481h-113zM932.001 227l8 88l193.5 208l128 138.5l84 91l61.5 66.5h121
l-55 -487h122l-10 -105h-125l-14 -125h90l-8 -102h-311l12 102h90l14 125h-401zM1085 332h261l40 330z" />
    <glyph glyph-name="onehalf" unicode="&#xbd;" horiz-adv-x="1638" 
d="M168 545l8.00098 106h182c5.33301 45.333 11.166 92.5 17.499 141.5l18.5 149.5l18.5 149.5l17.5 139.5l-203 -29l-6 90l240 70h121l-86 -711h170l-9 -106h-489zM467.001 -45l778 1481h109l-774 -1481h-113zM1008 0l8.00098 92l146 115.5
c55.333 43 107.666 87.833 156.999 134.5c117.333 110.667 176 198.667 176 264c0 72.667 -47 109 -141 109c-66.667 0 -142 -24 -226 -72l-53 92c102 64 196 96 282 96c183.333 0 275 -68.667 275 -206c0 -118.667 -95.333 -254.667 -286 -408l-138 -108h285l8 100h115
l-19 -209h-589z" />
    <glyph glyph-name="threequarters" unicode="&#xbe;" horiz-adv-x="1638" 
d="M164 588l39.0039 96.001c58.667 -22 104 -34.667 136 -38s61.667 -5 89 -5s54.666 3.83301 81.999 11.5s51.333 18.167 72 31.5c46 30 69 69.667 69 119c0 87.333 -57.333 131 -172 131c-22.667 0 -53.334 -2.66699 -92.001 -8l-14 94
c92.667 16.667 162.5 40.334 209.5 71.001s70.5 62.334 70.5 95.001c0 50.667 -44.333 76 -133 76c-64.667 0 -139.667 -18 -225 -54l-39 86c94 50.667 186.5 76 277.5 76s155.833 -16.667 194.5 -50s58 -70.833 58 -112.5s-15 -81.334 -45 -119.001
s-67.333 -65.834 -112 -84.501c53.333 -13.333 93.166 -37.5 119.499 -72.5s39.5 -73 39.5 -114s-8.5 -78.333 -25.5 -112s-40.833 -62.834 -71.5 -87.501c-67.333 -55.333 -154.333 -83 -261 -83c-114.667 0 -203.334 17.667 -266.001 53zM526.004 -44.999l779 1481h108
l-774 -1481h-113zM973.004 227.001l8 88l193.5 208l128 138.5l84 91l61.5 66.5h121l-56 -487h123l-10 -105h-125l-14 -125h90l-8 -102h-312l13 102h90l14 125h-401zM1126 332.001h260l41 330z" />
    <glyph glyph-name="questiondown" unicode="&#xbf;" horiz-adv-x="876" 
d="M14 -197c0 98 43.6641 188.331 130.997 270.998c26 24.667 52.667 47.667 80 69c112.667 79.333 190.667 147.333 234 204s65 120 65 190l-2 94c80.667 14 124.334 21.333 131.001 22c6 -52.667 9 -98 9 -136s-5.5 -75.667 -16.5 -113s-28.5 -73 -52.5 -107
c-44.667 -63.333 -121.667 -134.333 -231 -213c-58.667 -41.333 -99 -75.333 -121 -102c-39.333 -48 -59 -97 -59 -147c0 -96 66.333 -144 199 -144c82 0 160.333 11.667 235 35c10.667 80.667 17.667 142.667 21 186h125
c-5.33301 -49.333 -11.166 -98.166 -17.499 -146.499s-12.166 -97.166 -17.499 -146.499c-121.333 -43.333 -243 -65 -365 -65c-232 0 -348 83 -348 249zM480.997 903.998c0 30.667 12.333 57 37 79s51 33 79 33s50.5 -8.83301 67.5 -26.5s25.5 -40.834 25.5 -69.501
s-11 -55 -33 -79s-48.333 -36 -79 -36s-54.5 8.83301 -71.5 26.5s-25.5 41.834 -25.5 72.501z" />
    <glyph glyph-name="Agrave" unicode="&#xc0;" horiz-adv-x="1327" 
d="M-12 0c5.33301 39.333 9.33301 81 12 125h117l565 1278h209l252 -1278h108l-14 -125h-418l15 125h137l-47 262h-529l-112 -262h141l-14 -125h-422zM453 518l447.998 0.000976562c-86 478.667 -129.667 723 -131 733h-6
c-1.33301 -2.66699 -2.66602 -6.33398 -3.99902 -11.001s-4.16602 -12.167 -8.49902 -22.5l-16.5 -41c-6.66699 -17 -16 -38.5 -28 -64.5zM491.998 1657l86 139l319 -235l-51 -80z" />
    <glyph glyph-name="Aacute" unicode="&#xc1;" horiz-adv-x="1327" 
d="M-12 0c5.33301 39.333 9.33301 81 12 125h117l565 1278h209l252 -1278h108l-14 -125h-418l15 125h137l-47 262h-529l-112 -262h141l-14 -125h-422zM453 518l447.998 0.000976562c-86 478.667 -129.667 723 -131 733h-6
c-1.33301 -2.66699 -2.66602 -6.33398 -3.99902 -11.001s-4.16602 -12.167 -8.49902 -22.5l-16.5 -41c-6.66699 -17 -16 -38.5 -28 -64.5zM689.998 1552l365 240l71 -127l-391 -186z" />
    <glyph glyph-name="Acircumflex" unicode="&#xc2;" horiz-adv-x="1327" 
d="M-12 0c5.33301 39.333 9.33301 81 12 125h117l565 1278h209l252 -1278h108l-14 -125h-418l15 125h137l-47 262h-529l-112 -262h141l-14 -125h-422zM428 1505l334 293h108l269 -289l-54 -59l-282 203l-332 -205zM453 518l447.998 0.000976562
c-86 478.667 -129.667 723 -131 733h-6c-1.33301 -2.66699 -2.66602 -6.33398 -3.99902 -11.001s-4.16602 -12.167 -8.49902 -22.5l-16.5 -41c-6.66699 -17 -16 -38.5 -28 -64.5z" />
    <glyph glyph-name="Atilde" unicode="&#xc3;" horiz-adv-x="1327" 
d="M-12 0c5.33301 39.333 9.33301 81 12 125h117l565 1278h209l252 -1278h108l-14 -125h-418l15 125h137l-47 262h-529l-112 -262h141l-14 -125h-422zM453 518l447.998 0.000976562c-86 478.667 -129.667 723 -131 733h-6
c-1.33301 -2.66699 -2.66602 -6.33398 -3.99902 -11.001s-4.16602 -12.167 -8.49902 -22.5l-16.5 -41c-6.66699 -17 -16 -38.5 -28 -64.5zM474.998 1544c50 102.667 114.333 153.999 193 153.999c32 0 70.667 -8.83301 116 -26.5l102 -39
c22.667 -8.33301 42.667 -12.5 60 -12.5l123 80l47 -45c-19.333 -45.333 -45.666 -82.666 -78.999 -111.999s-67.333 -44 -102 -44s-65 4.16699 -91 12.5s-50.333 17.5 -73 27.5c-60.667 26.667 -101.334 40 -122.001 40l-123 -80z" />
    <glyph glyph-name="Adieresis" unicode="&#xc4;" horiz-adv-x="1327" 
d="M-12 0c5.33301 39.333 9.33301 81 12 125h117l565 1278h209l252 -1278h108l-14 -125h-418l15 125h137l-47 262h-529l-112 -262h141l-14 -125h-422zM453 518l447.998 0.000976562c-86 478.667 -129.667 723 -131 733h-6
c-1.33301 -2.66699 -2.66602 -6.33398 -3.99902 -11.001s-4.16602 -12.167 -8.49902 -22.5l-16.5 -41c-6.66699 -17 -16 -38.5 -28 -64.5zM520.998 1581c0.666992 26 12.334 48.833 35.001 68.5s46.667 29.5 72 29.5s46.166 -7.5 62.499 -22.5s23.833 -36.167 22.5 -63.5
s-12.666 -50.833 -33.999 -70.5s-45.333 -29.5 -72 -29.5s-47.834 8.16699 -63.501 24.5s-23.167 37.5 -22.5 63.5zM892.998 1580c1.33301 26.667 11.8311 49.832 31.498 69.499s42.834 29.5 69.501 29.5s48.167 -7.5 64.5 -22.5s23.833 -36.167 22.5 -63.5
s-12.166 -50.833 -32.499 -70.5s-44.5 -29.5 -72.5 -29.5s-49.167 7.83301 -63.5 23.5s-20.833 36.834 -19.5 63.501z" />
    <glyph glyph-name="Aring" unicode="&#xc5;" horiz-adv-x="1327" 
d="M-12 0c5.33301 39.333 9.33301 81 12 125h117l565 1278h209l252 -1278h108l-14 -125h-418l15 125h137l-47 262h-529l-112 -262h141l-14 -125h-422zM453 518l447.998 0.000976562c-86 478.667 -129.667 723 -131 733h-6
c-1.33301 -2.66699 -2.66602 -6.33398 -3.99902 -11.001s-4.16602 -12.167 -8.49902 -22.5l-16.5 -41c-6.66699 -17 -16 -38.5 -28 -64.5zM593.998 1659c13.333 96 64 162.333 152 199c28 12 57.5 18 88.5 18s58.667 -5.83301 83 -17.5s44.833 -27.167 61.5 -46.5
c35.333 -42 49 -93 41 -153c-5.33301 -60 -31.333 -110.833 -78 -152.5s-100 -62.5 -160 -62.5s-108 20.833 -144 62.5s-50.667 92.5 -44 152.5zM683.998 1656c-4 -36 3.5 -66.666 22.5 -91.999s47.333 -38 85 -38s69.167 12.667 94.5 38s40 55.666 44 90.999
c5.33301 35.333 -2 66 -22 92s-48.333 39 -85 39s-68 -12.667 -94 -38s-41 -56 -45 -92z" />
    <glyph glyph-name="AE" unicode="&#xc6;" horiz-adv-x="1894" 
d="M10 0l4 125h117l815 1274h873l-15 -316h-127l9 193h-469l-19 -481l473 10l-4 -137l-473 6l-23 -549h517l10 197h133l-14 -322h-953l4 125h136l12 297h-514l-193 -297h148l-4 -125h-443zM582 553h440l31 715h-13z" />
    <glyph glyph-name="Ccedilla" unicode="&#xc7;" horiz-adv-x="1132" 
d="M125 545c0 137.333 13.0029 250.167 39.0029 338.5s55.333 162.833 88 223.5s74.667 114.334 126 161.001c114 104.667 260.333 157 439 157c129.333 0 242.666 -19 339.999 -57l-39 -328h-131l27 217c-79.333 19.333 -154.833 29 -226.5 29s-138.834 -18 -201.501 -54
s-115.334 -86.667 -158.001 -152c-84.667 -130 -127 -305.667 -127 -527c0 -282.667 134.667 -424 404 -424c102 0 209 15.667 321 47l25 -127c-98.667 -36 -217.667 -57 -357 -63l-123 -144c130 -8.66699 195 -56.334 195 -143.001
c0 -63.333 -30.667 -116.666 -92 -159.999c-67.333 -47.333 -164.333 -71 -291 -71l6 77c168 15.333 252 58.333 252 129c0 49.333 -63.333 74 -190 74l-21 41l174 197c-319.333 15.333 -479 201.666 -479 558.999z" />
    <glyph glyph-name="Egrave" unicode="&#xc8;" horiz-adv-x="1142" 
d="M31 0l14 125h133l141 1151h-126l14 125h960l-39 -318h-129l25 193h-537l-59 -481l518 10l-14 -137l-518 8l-68 -551h578l24 197h133l-39 -322h-1011zM475 1657l86 139l320 -235l-52 -80z" />
    <glyph glyph-name="Eacute" unicode="&#xc9;" horiz-adv-x="1142" 
d="M31 0l14 125h133l141 1151h-126l14 125h960l-39 -318h-129l25 193h-537l-59 -481l518 10l-14 -137l-518 8l-68 -551h578l24 197h133l-39 -322h-1011zM580 1552l364 240l72 -127l-391 -186z" />
    <glyph glyph-name="Ecircumflex" unicode="&#xca;" horiz-adv-x="1142" 
d="M31 0l14 125h133l141 1151h-126l14 125h960l-39 -318h-129l25 193h-537l-59 -481l518 10l-14 -137l-518 8l-68 -551h578l24 197h133l-39 -322h-1011zM379 1505l334 293h108l269 -289l-54 -59l-282 203l-332 -205z" />
    <glyph glyph-name="Edieresis" unicode="&#xcb;" horiz-adv-x="1142" 
d="M31 0l14 125h133l141 1151h-126l14 125h960l-39 -318h-129l25 193h-537l-59 -481l518 10l-14 -137l-518 8l-68 -551h578l24 197h133l-39 -322h-1011zM468 1581c0.666992 26 12.334 48.833 35.001 68.5s46.5 29.5 71.5 29.5s45.667 -7.5 62 -22.5
s23.833 -36.167 22.5 -63.5s-12.5 -50.833 -33.5 -70.5s-44.833 -29.5 -71.5 -29.5s-47.834 8.16699 -63.501 24.5s-23.167 37.5 -22.5 63.5zM840 1580c1.33301 26.667 11.8311 49.832 31.498 69.499s42.834 29.5 69.501 29.5s48.167 -7.5 64.5 -22.5
s23.833 -36.167 22.5 -63.5s-12.166 -50.833 -32.499 -70.5s-44.5 -29.5 -72.5 -29.5s-49.167 7.83301 -63.5 23.5s-20.833 36.834 -19.5 63.501z" />
    <glyph glyph-name="Igrave" unicode="&#xcc;" horiz-adv-x="700" 
d="M88 0l14 125h125l142 1151h-125l14 127h422l-14 -127h-129l-142 -1151h129l-14 -125h-422zM197 1657l86 139l319 -235l-51 -80z" />
    <glyph glyph-name="Iacute" unicode="&#xcd;" horiz-adv-x="700" 
d="M88 0l14 125h125l142 1151h-125l14 127h422l-14 -127h-129l-142 -1151h129l-14 -125h-422zM332 1552l364 240l72 -127l-391 -186z" />
    <glyph glyph-name="Icircumflex" unicode="&#xce;" horiz-adv-x="700" 
d="M88 0l14 125h125l142 1151h-125l14 127h422l-14 -127h-129l-142 -1151h129l-14 -125h-422zM123 1505l334 293h108l269 -289l-54 -59l-282 203l-332 -205z" />
    <glyph glyph-name="Idieresis" unicode="&#xcf;" horiz-adv-x="700" 
d="M88 0l14 125h125l142 1151h-125l14 127h422l-14 -127h-129l-142 -1151h129l-14 -125h-422zM202 1581c0.666992 26 12.1699 48.833 34.5029 68.5s46.166 29.5 71.499 29.5s46.166 -7.5 62.499 -22.5s23.833 -36.167 22.5 -63.5s-12.5 -50.833 -33.5 -70.5
s-44.833 -29.5 -71.5 -29.5s-47.834 8.16699 -63.501 24.5s-23.167 37.5 -22.5 63.5zM573.003 1580c1.33301 26.667 12 49.832 32 69.499s43.333 29.5 70 29.5s48.167 -7.5 64.5 -22.5s23.833 -36.167 22.5 -63.5s-12.333 -50.833 -33 -70.5s-45 -29.5 -73 -29.5
s-49.167 7.83301 -63.5 23.5s-20.833 36.834 -19.5 63.501z" />
    <glyph glyph-name="Eth" unicode="&#xd0;" horiz-adv-x="1318" 
d="M31 0l14 125h137l66 539h-129l14 96h127l64 516h-129l14 127h545c338.667 0 508 -189 508 -567c0 -382.667 -119.667 -638.667 -359 -768c-84.667 -45.333 -187.667 -68 -309 -68h-563zM354 127h217c70.667 0 129.667 9.5 177 28.5s90.5 43.5 129.5 73.5
s73.833 70.667 104.5 122c68.667 114.667 103 270.667 103 468c0 188.667 -45 319 -135 391c-55.333 44 -133 66 -233 66h-221l-64 -516h291l-12 -96h-291z" />
    <glyph glyph-name="Ntilde" unicode="&#xd1;" horiz-adv-x="1462" 
d="M29 0l14 127h135l71 573.5l70 575.5h-135l17 125h313l430 -875l59.5 -122.5l59.5 -124.5h10l123 997h-139l14 125h428l-14 -125h-129l-158 -1276h-160l-228.5 459.5l-236.5 472.5l-106 221l-6 -2l-125 -1024h139l-14 -127h-432zM535 1614
c23.333 48 51.6699 85.5 85.0029 112.5s65.666 40.5 96.999 40.5s59.666 -4 84.999 -12s50 -17 74 -27c62.667 -25.333 106 -38 130 -38l122 79l48 -45c-19.333 -45.333 -45.833 -82.5 -79.5 -111.5s-67.834 -43.5 -102.501 -43.5s-65 4 -91 12s-50.333 17 -73 27
c-58 27.333 -98.333 41 -121 41l-123 -80z" />
    <glyph glyph-name="Ograve" unicode="&#xd2;" horiz-adv-x="1347" 
d="M125 532c0 244.667 50.999 448.001 152.999 610.001c53.333 84 122.5 151.833 207.5 203.5s180.667 77.5 287 77.5s191.5 -15 255.5 -45s115.333 -70.667 154 -122c70.667 -96 106 -231.333 106 -406c0 -250.667 -55.333 -455.334 -166 -614.001
c-117.333 -168 -277.666 -252 -480.999 -252c-344 0 -516 182.667 -516 548zM296.999 530.001c0 -136.667 27.334 -239.667 82.001 -309s143.334 -104 266.001 -104c156 0 276.333 75 361 225c72 128 108 298.667 108 512c0 132.667 -21.333 234 -64 304
c-24 40.667 -57.333 73.167 -100 97.5s-103.834 36.5 -183.501 36.5s-150.834 -23.167 -213.501 -69.5s-113 -106.5 -151 -180.5c-70 -133.333 -105 -304 -105 -512zM518 1657l86 139l320 -235l-52 -80z" />
    <glyph glyph-name="Oacute" unicode="&#xd3;" horiz-adv-x="1347" 
d="M125 532c0 244.667 50.999 448.001 152.999 610.001c53.333 84 122.5 151.833 207.5 203.5s180.667 77.5 287 77.5s191.5 -15 255.5 -45s115.333 -70.667 154 -122c70.667 -96 106 -231.333 106 -406c0 -250.667 -55.333 -455.334 -166 -614.001
c-117.333 -168 -277.666 -252 -480.999 -252c-344 0 -516 182.667 -516 548zM296.999 530.001c0 -136.667 27.334 -239.667 82.001 -309s143.334 -104 266.001 -104c156 0 276.333 75 361 225c72 128 108 298.667 108 512c0 132.667 -21.333 234 -64 304
c-24 40.667 -57.333 73.167 -100 97.5s-103.834 36.5 -183.501 36.5s-150.834 -23.167 -213.501 -69.5s-113 -106.5 -151 -180.5c-70 -133.333 -105 -304 -105 -512zM715 1552l364 240l72 -127l-391 -186z" />
    <glyph glyph-name="Ocircumflex" unicode="&#xd4;" horiz-adv-x="1347" 
d="M125 532c0 244.667 50.999 448.001 152.999 610.001c53.333 84 122.5 151.833 207.5 203.5s180.667 77.5 287 77.5s191.5 -15 255.5 -45s115.333 -70.667 154 -122c70.667 -96 106 -231.333 106 -406c0 -250.667 -55.333 -455.334 -166 -614.001
c-117.333 -168 -277.666 -252 -480.999 -252c-344 0 -516 182.667 -516 548zM296.999 530.001c0 -136.667 27.334 -239.667 82.001 -309s143.334 -104 266.001 -104c156 0 276.333 75 361 225c72 128 108 298.667 108 512c0 132.667 -21.333 234 -64 304
c-24 40.667 -57.333 73.167 -100 97.5s-103.834 36.5 -183.501 36.5s-150.834 -23.167 -213.501 -69.5s-113 -106.5 -151 -180.5c-70 -133.333 -105 -304 -105 -512zM473 1505l334 293h108l269 -289l-54 -59l-282 203l-332 -205z" />
    <glyph glyph-name="Otilde" unicode="&#xd5;" horiz-adv-x="1347" 
d="M125 532c0 244.667 50.999 448.001 152.999 610.001c53.333 84 122.5 151.833 207.5 203.5s180.667 77.5 287 77.5s191.5 -15 255.5 -45s115.333 -70.667 154 -122c70.667 -96 106 -231.333 106 -406c0 -250.667 -55.333 -455.334 -166 -614.001
c-117.333 -168 -277.666 -252 -480.999 -252c-344 0 -516 182.667 -516 548zM296.999 530.001c0 -136.667 27.334 -239.667 82.001 -309s143.334 -104 266.001 -104c156 0 276.333 75 361 225c72 128 108 298.667 108 512c0 132.667 -21.333 234 -64 304
c-24 40.667 -57.333 73.167 -100 97.5s-103.834 36.5 -183.501 36.5s-150.834 -23.167 -213.501 -69.5s-113 -106.5 -151 -180.5c-70 -133.333 -105 -304 -105 -512zM522 1618c50 102.667 114.331 153.999 192.998 153.999c33.333 0 72.333 -9 117 -27
c84.667 -34 138.334 -51 161.001 -51l123 80l47 -45c-19.333 -45.333 -45.666 -82.666 -78.999 -111.999s-67.333 -44 -102 -44s-65 4 -91 12s-50.333 17 -73 27c-59.333 27.333 -100 41 -122 41l-123 -80z" />
    <glyph glyph-name="Odieresis" unicode="&#xd6;" horiz-adv-x="1347" 
d="M125 532c0 244.667 50.999 448.001 152.999 610.001c53.333 84 122.5 151.833 207.5 203.5s180.667 77.5 287 77.5s191.5 -15 255.5 -45s115.333 -70.667 154 -122c70.667 -96 106 -231.333 106 -406c0 -250.667 -55.333 -455.334 -166 -614.001
c-117.333 -168 -277.666 -252 -480.999 -252c-344 0 -516 182.667 -516 548zM296.999 530.001c0 -136.667 27.334 -239.667 82.001 -309s143.334 -104 266.001 -104c156 0 276.333 75 361 225c72 128 108 298.667 108 512c0 132.667 -21.333 234 -64 304
c-24 40.667 -57.333 73.167 -100 97.5s-103.834 36.5 -183.501 36.5s-150.834 -23.167 -213.501 -69.5s-113 -106.5 -151 -180.5c-70 -133.333 -105 -304 -105 -512zM554 1581c0.666992 26 12.334 48.833 35.001 68.5s46.5 29.5 71.5 29.5s45.667 -7.5 62 -22.5
s23.833 -36.167 22.5 -63.5s-12.5 -50.833 -33.5 -70.5s-44.833 -29.5 -71.5 -29.5s-47.834 8.16699 -63.501 24.5s-23.167 37.5 -22.5 63.5zM926 1580c1.33301 26.667 11.8311 49.832 31.498 69.499s42.834 29.5 69.501 29.5s48.167 -7.5 64.5 -22.5
s23.833 -36.167 22.5 -63.5s-12.166 -50.833 -32.499 -70.5s-44.5 -29.5 -72.5 -29.5s-49.167 7.83301 -63.5 23.5s-20.833 36.834 -19.5 63.501z" />
    <glyph glyph-name="multiply" unicode="&#xd7;" 
d="M205 328l293 266l-224 264l95 84l221 -264l280 260l76 -88l-282 -260l221 -260l-90 -86l-224 262l-292 -268z" />
    <glyph glyph-name="Oslash" unicode="&#xd8;" horiz-adv-x="1347" 
d="M39 -10l166.001 191.999c-53.333 86 -80 190.833 -80 314.5s12 239.834 36 348.501s62.167 206 114.5 292s121 155.167 206 207.5s188.167 78.5 309.5 78.5c157.333 0 278 -45.667 362 -137l121 141h98l-174 -200c58.667 -90 88 -222 88 -396
c0 -248 -55.667 -448.333 -167 -601c-119.333 -162.667 -279.333 -244 -480 -244c-174.667 0 -304.334 45.667 -389.001 137l-117 -133h-94zM297.001 544.999c0 -94 11 -170 33 -228l714 846c-53.333 84.667 -138.666 127 -255.999 127
c-92.667 0 -170.334 -22.833 -233.001 -68.5s-113 -104.167 -151 -175.5c-71.333 -133.333 -107 -300.333 -107 -501zM360.001 243.999c54.667 -86 149.666 -129 284.999 -129c156.667 0 276.334 75 359.001 225c38 68 65.833 146.5 83.5 235.5s26.5 168.5 26.5 238.5
c0 125.333 -13 217.333 -39 276z" />
    <glyph glyph-name="Ugrave" unicode="&#xd9;" horiz-adv-x="1402" 
d="M166 1276l14 127h426l-14 -127h-139l-97 -774c-31.333 -256.667 71.334 -385 308.001 -385c113.333 0 204.333 32 273 96s110.667 160.333 126 289l96 774h-139l16 127h424l-14 -127h-123l-96 -772c-30 -252 -140.333 -413.333 -331 -484c-66 -24 -144.667 -36 -236 -36
s-169.833 12.5 -235.5 37.5s-117.167 60.833 -154.5 107.5c-72.667 89.333 -99.334 219 -80.001 389l95 758h-119zM528 1657l86 139l320 -235l-51 -80z" />
    <glyph glyph-name="Uacute" unicode="&#xda;" horiz-adv-x="1402" 
d="M166 1276l14 127h426l-14 -127h-139l-97 -774c-31.333 -256.667 71.334 -385 308.001 -385c113.333 0 204.333 32 273 96s110.667 160.333 126 289l96 774h-139l16 127h424l-14 -127h-123l-96 -772c-30 -252 -140.333 -413.333 -331 -484c-66 -24 -144.667 -36 -236 -36
s-169.833 12.5 -235.5 37.5s-117.167 60.833 -154.5 107.5c-72.667 89.333 -99.334 219 -80.001 389l95 758h-119zM709 1552l364 240l72 -127l-391 -186z" />
    <glyph glyph-name="Ucircumflex" unicode="&#xdb;" horiz-adv-x="1402" 
d="M166 1276l14 127h426l-14 -127h-139l-97 -774c-31.333 -256.667 71.334 -385 308.001 -385c113.333 0 204.333 32 273 96s110.667 160.333 126 289l96 774h-139l16 127h424l-14 -127h-123l-96 -772c-30 -252 -140.333 -413.333 -331 -484c-66 -24 -144.667 -36 -236 -36
s-169.833 12.5 -235.5 37.5s-117.167 60.833 -154.5 107.5c-72.667 89.333 -99.334 219 -80.001 389l95 758h-119zM465 1505l346 289h113l278 -285l-55 -57l-293 199l-344 -201z" />
    <glyph glyph-name="Udieresis" unicode="&#xdc;" horiz-adv-x="1402" 
d="M166 1276l14 127h426l-14 -127h-139l-97 -774c-31.333 -256.667 71.334 -385 308.001 -385c113.333 0 204.333 32 273 96s110.667 160.333 126 289l96 774h-139l16 127h424l-14 -127h-123l-96 -772c-30 -252 -140.333 -413.333 -331 -484c-66 -24 -144.667 -36 -236 -36
s-169.833 12.5 -235.5 37.5s-117.167 60.833 -154.5 107.5c-72.667 89.333 -99.334 219 -80.001 389l95 758h-119zM576 1581c0.666992 26 12.332 48.833 34.999 68.5s46.667 29.5 72 29.5s46.166 -7.5 62.499 -22.5s23.833 -36.167 22.5 -63.5
s-12.666 -50.833 -33.999 -70.5s-45.166 -29.5 -71.499 -29.5s-47.5 8.16699 -63.5 24.5s-23.667 37.5 -23 63.5zM947.998 1580c1.33301 26.667 12 49.832 32 69.499s43.333 29.5 70 29.5s48.167 -7.5 64.5 -22.5s23.833 -36.167 22.5 -63.5s-12.333 -50.833 -33 -70.5
s-45 -29.5 -73 -29.5s-49.167 7.83301 -63.5 23.5s-20.833 36.834 -19.5 63.501z" />
    <glyph glyph-name="Yacute" unicode="&#xdd;" horiz-adv-x="1167" 
d="M127 1276l14 127h398l-15 -127h-125l213 -539h9l352 539h-129l14 127h408l-15 -127h-104l-455 -666l-59 -485h160l-15 -125h-497l14 125h162l57 479l-283 672h-104zM590 1550l364 240l72 -127l-391 -186z" />
    <glyph glyph-name="Thorn" unicode="&#xde;" horiz-adv-x="1134" 
d="M29 0l14 120.999h129l139 1157h-131l15 125h458l-14 -125h-160l-20 -154h282c117.333 0 209.833 -28.667 277.5 -86s101.5 -144.666 101.5 -261.999c0 -118 -33.667 -218.667 -101 -302c-80.667 -98.667 -199.667 -148 -357 -148h-295l-27 -205h162l-15 -121h-458z
M379 441.999h265.999c80.667 0 148 24 202 72c66 58.667 99 144 99 256c0 82 -21.167 142.167 -63.5 180.5s-98.166 57.5 -167.499 57.5h-269z" />
    <glyph glyph-name="germandbls" unicode="&#xdf;" horiz-adv-x="1165" 
d="M-268 -410l31.998 111.003c44 -9.33301 93.333 -14 148 -14s98.667 19 132 57s60.333 100 81 186s38.5 199 53.5 339s34.833 311.667 59.5 515h-144l12 111h142l28 219c10 87.333 45.667 163.333 107 228c79.333 85.333 191.333 128 336 128
c98 -2.66699 172 -29.334 222 -80.001c37.333 -37.333 58.333 -86.333 63 -147c0 -58.667 -13.333 -108.167 -40 -148.5s-56.167 -76.166 -88.5 -107.499l-88 -88c-26.333 -27.333 -39.5 -56.333 -39.5 -87s8.16699 -58.334 24.5 -83.001s36.333 -48.834 60 -72.501
s49.834 -47.834 78.501 -72.501s55 -51.334 79 -80.001c56.667 -68 85 -139 85 -213c0 -87.333 -28.667 -159.666 -86 -216.999c-67.333 -67.333 -159.333 -101 -276 -101c-106 0 -199 17.333 -279 52l45 116c66 -31.333 133.333 -47 202 -47s123.167 14 163.5 42
s60.5 71.333 60.5 130c0 67.333 -32.667 132 -98 194c-25.333 24 -54.833 55 -88.5 93s-58.5 69 -74.5 93c-36 55.333 -54 105.666 -54 150.999s13.333 84.666 40 117.999s56 65.333 88 96s61.333 61.334 88 92.001s40 65 40 103c0 36.667 -8.66699 64 -26 82
c-34.667 36.667 -85.334 55 -152.001 55c-103.333 0 -174 -49 -212 -147c-15.333 -41.333 -35.833 -175.166 -61.5 -401.499s-45.834 -397.166 -60.501 -512.499s-28.667 -213.333 -42 -294s-33.666 -152.834 -60.999 -216.501s-65.166 -114.5 -113.499 -152.5
s-106.666 -57 -174.999 -57s-138.5 9.33301 -210.5 28z" />
    <glyph glyph-name="agrave" unicode="&#xe0;" horiz-adv-x="1116" 
d="M82 309.5c0 105 10.499 199.167 31.499 282.5s53.167 156 96.5 218c94 136 221.333 204 382 204c63.333 0 143 -17.667 239 -53l52 55l98 -6l-36.5 -241l-34.5 -237c-27.333 -203.333 -43.333 -337.666 -48 -402.999c52 4.66699 110.667 26 176 64l39 -70
c-65.333 -65.333 -133 -110.333 -203 -135c-22.667 -7.33301 -43 -11 -61 -11c-42 0 -70.5 12.667 -85.5 38s-22.5 60.666 -22.5 105.999s7.33301 105.333 22 180h-10c-95.333 -212.667 -221.666 -319 -378.999 -319c-76.667 0 -138.5 28.333 -185.5 85
s-70.5 137.5 -70.5 242.5zM247.999 352c0 -82 13.5 -143.001 40.5 -183.001s63.167 -60 108.5 -60c91.333 0 180.333 80.667 267 242c31.333 59.333 61.333 133.333 90 222l43 267c-72 28.667 -141.167 43 -207.5 43s-121.833 -18.167 -166.5 -54.5
s-79.667 -81.166 -105 -134.499c-46.667 -96 -70 -210 -70 -342zM372.999 1397l125 102l207 -338l-76 -57z" />
    <glyph glyph-name="aacute" unicode="&#xe1;" horiz-adv-x="1116" 
d="M82 309.5c0 105 10.499 199.167 31.499 282.5s53.167 156 96.5 218c94 136 221.333 204 382 204c63.333 0 143 -17.667 239 -53l52 55l98 -6l-36.5 -241l-34.5 -237c-27.333 -203.333 -43.333 -337.666 -48 -402.999c52 4.66699 110.667 26 176 64l39 -70
c-65.333 -65.333 -133 -110.333 -203 -135c-22.667 -7.33301 -43 -11 -61 -11c-42 0 -70.5 12.667 -85.5 38s-22.5 60.666 -22.5 105.999s7.33301 105.333 22 180h-10c-95.333 -212.667 -221.666 -319 -378.999 -319c-76.667 0 -138.5 28.333 -185.5 85
s-70.5 137.5 -70.5 242.5zM247.999 352c0 -82 13.5 -143.001 40.5 -183.001s63.167 -60 108.5 -60c91.333 0 180.333 80.667 267 242c31.333 59.333 61.333 133.333 90 222l43 267c-72 28.667 -141.167 43 -207.5 43s-121.833 -18.167 -166.5 -54.5
s-79.667 -81.166 -105 -134.499c-46.667 -96 -70 -210 -70 -342zM542.999 1159l278 338l103 -102l-318 -293z" />
    <glyph glyph-name="acircumflex" unicode="&#xe2;" horiz-adv-x="1116" 
d="M82 309.5c0 105 10.499 199.167 31.499 282.5s53.167 156 96.5 218c94 136 221.333 204 382 204c63.333 0 143 -17.667 239 -53l52 55l98 -6l-36.5 -241l-34.5 -237c-27.333 -203.333 -43.333 -337.666 -48 -402.999c52 4.66699 110.667 26 176 64l39 -70
c-65.333 -65.333 -133 -110.333 -203 -135c-22.667 -7.33301 -43 -11 -61 -11c-42 0 -70.5 12.667 -85.5 38s-22.5 60.666 -22.5 105.999s7.33301 105.333 22 180h-10c-95.333 -212.667 -221.666 -319 -378.999 -319c-76.667 0 -138.5 28.333 -185.5 85
s-70.5 137.5 -70.5 242.5zM247.999 352c0 -82 13.5 -143.001 40.5 -183.001s63.167 -60 108.5 -60c91.333 0 180.333 80.667 267 242c31.333 59.333 61.333 133.333 90 222l43 267c-72 28.667 -141.167 43 -207.5 43s-121.833 -18.167 -166.5 -54.5
s-79.667 -81.166 -105 -134.499c-46.667 -96 -70 -210 -70 -342zM298.999 1149l334 291h108l267 -289l-52 -59l-282 204l-332 -204z" />
    <glyph glyph-name="atilde" unicode="&#xe3;" horiz-adv-x="1116" 
d="M82 309.5c0 105 10.499 199.167 31.499 282.5s53.167 156 96.5 218c94 136 221.333 204 382 204c63.333 0 143 -17.667 239 -53l52 55l98 -6l-36.5 -241l-34.5 -237c-27.333 -203.333 -43.333 -337.666 -48 -402.999c52 4.66699 110.667 26 176 64l39 -70
c-65.333 -65.333 -133 -110.333 -203 -135c-22.667 -7.33301 -43 -11 -61 -11c-42 0 -70.5 12.667 -85.5 38s-22.5 60.666 -22.5 105.999s7.33301 105.333 22 180h-10c-95.333 -212.667 -221.666 -319 -378.999 -319c-76.667 0 -138.5 28.333 -185.5 85
s-70.5 137.5 -70.5 242.5zM247.999 352c0 -82 13.5 -143.001 40.5 -183.001s63.167 -60 108.5 -60c91.333 0 180.333 80.667 267 242c31.333 59.333 61.333 133.333 90 222l43 267c-72 28.667 -141.167 43 -207.5 43s-121.833 -18.167 -166.5 -54.5
s-79.667 -81.166 -105 -134.499c-46.667 -96 -70 -210 -70 -342zM341.999 1221c49.333 102 113.666 153 192.999 153c34.667 0 74 -8.83301 118 -26.5l99.5 -39c22.333 -8.33301 42.5 -12.5 60.5 -12.5l123 80l47 -45c-19.333 -45.333 -45.666 -82.5 -78.999 -111.5
s-67.333 -43.5 -102 -43.5s-65 4 -91 12s-50.333 17.333 -73 28c-58 26 -98.667 39 -122 39l-123 -79z" />
    <glyph glyph-name="adieresis" unicode="&#xe4;" horiz-adv-x="1116" 
d="M82 309.5c0 105 10.499 199.167 31.499 282.5s53.167 156 96.5 218c94 136 221.333 204 382 204c63.333 0 143 -17.667 239 -53l52 55l98 -6l-36.5 -241l-34.5 -237c-27.333 -203.333 -43.333 -337.666 -48 -402.999c52 4.66699 110.667 26 176 64l39 -70
c-65.333 -65.333 -133 -110.333 -203 -135c-22.667 -7.33301 -43 -11 -61 -11c-42 0 -70.5 12.667 -85.5 38s-22.5 60.666 -22.5 105.999s7.33301 105.333 22 180h-10c-95.333 -212.667 -221.666 -319 -378.999 -319c-76.667 0 -138.5 28.333 -185.5 85
s-70.5 137.5 -70.5 242.5zM247.999 352c0 -82 13.5 -143.001 40.5 -183.001s63.167 -60 108.5 -60c91.333 0 180.333 80.667 267 242c31.333 59.333 61.333 133.333 90 222l43 267c-72 28.667 -141.167 43 -207.5 43s-121.833 -18.167 -166.5 -54.5
s-79.667 -81.166 -105 -134.499c-46.667 -96 -70 -210 -70 -342zM374.999 1241c1.33301 27.333 13.1689 50.835 35.502 70.502s46.166 29.5 71.499 29.5s46.5 -7.5 63.5 -22.5s24.833 -36.833 23.5 -65.5s-12.166 -52.834 -32.499 -72.501s-44.833 -29.5 -73.5 -29.5
s-50.834 8.16699 -66.501 24.5s-22.834 38.166 -21.501 65.499zM750.002 1241c1.33301 27.333 12.501 50.835 33.501 70.502s44.5 29.5 70.5 29.5s47.167 -7.5 63.5 -22.5s24.166 -36.833 23.499 -65.5s-11.5 -52.834 -32.5 -72.501s-46 -29.5 -75 -29.5
s-50.5 8.16699 -64.5 24.5s-20.333 38.166 -19 65.499z" />
    <glyph glyph-name="aring" unicode="&#xe5;" horiz-adv-x="1116" 
d="M82 309.5c0 105 10.499 199.167 31.499 282.5s53.167 156 96.5 218c94 136 221.333 204 382 204c63.333 0 143 -17.667 239 -53l52 55l98 -6l-36.5 -241l-34.5 -237c-27.333 -203.333 -43.333 -337.666 -48 -402.999c52 4.66699 110.667 26 176 64l39 -70
c-65.333 -65.333 -133 -110.333 -203 -135c-22.667 -7.33301 -43 -11 -61 -11c-42 0 -70.5 12.667 -85.5 38s-22.5 60.666 -22.5 105.999s7.33301 105.333 22 180h-10c-95.333 -212.667 -221.666 -319 -378.999 -319c-76.667 0 -138.5 28.333 -185.5 85
s-70.5 137.5 -70.5 242.5zM247.999 352c0 -82 13.5 -143.001 40.5 -183.001s63.167 -60 108.5 -60c91.333 0 180.333 80.667 267 242c31.333 59.333 61.333 133.333 90 222l43 267c-72 28.667 -141.167 43 -207.5 43s-121.833 -18.167 -166.5 -54.5
s-79.667 -81.166 -105 -134.499c-46.667 -96 -70 -210 -70 -342zM456.999 1346c8.66699 61.333 34.332 111.999 76.999 151.999c47.333 43.333 102.666 65 165.999 65c58.667 0 105.834 -21.667 141.501 -65s49.5 -94 41.5 -152c-5.33301 -59.333 -31.333 -110.333 -78 -153
c-46 -42 -99.167 -63 -159.5 -63s-108.666 20.833 -144.999 62.5s-50.833 92.834 -43.5 153.501zM546.997 1342.5c-4 -36.333 3.50098 -67.166 22.501 -92.499s47.167 -38 84.5 -38s68.666 12.667 93.999 38s40.333 55.666 45 90.999c5.33301 35.333 -2 66.166 -22 92.499
s-48.333 39.5 -85 39.5s-68 -12.667 -94 -38s-41 -56.166 -45 -92.499z" />
    <glyph glyph-name="ae" unicode="&#xe6;" horiz-adv-x="1550" 
d="M53 197c0 56 8.83691 105.169 26.5039 147.502s50.167 78.833 97.5 109.5c103.333 67.333 277.666 99.666 522.999 96.999c11.333 93.333 17 142.333 17 147c0 74 -15 124.333 -45 151s-85.833 40 -167.5 40s-178.834 -20 -291.501 -60l-31 109
c120.667 53.333 245 80 373 80c64.667 0 113.667 -7.33301 147 -22c66.667 -30 109.667 -82 129 -156c86 122.667 213.667 184 383 184c88 0 156.667 -24 206 -72c46 -45.333 69 -101.333 69 -168s-16 -119.834 -48 -159.501s-76.667 -71.834 -134 -96.501
c-108.667 -46 -261 -70.333 -457 -73c-2.66699 -26.667 -4 -56.167 -4 -88.5s2.66699 -64 8 -95s16 -58.167 32 -81.5c37.333 -54 101.666 -81 192.999 -81s188.333 23.667 291 71l39 -98c-44 -27.333 -100.333 -50.166 -169 -68.499s-137.334 -27.5 -206.001 -27.5
c-156.667 0 -259.667 58.667 -309 176c-139.333 -123.333 -285.333 -185 -438 -185c-88 0 -151 25.667 -189 77c-30 39.333 -45 87 -45 143zM227.004 238.002c0 -92 45 -137.999 135 -137.999c118.667 0 230 50 334 150c-6.66699 32 -10 63.333 -10 94v68
c0 16 1.33301 32.333 4 49c-262.667 -6.66699 -412 -55.334 -448 -146.001c-10 -26 -15 -51.667 -15 -77zM856.004 547.003c152.667 2.66699 272.001 19.667 358.001 51s129 84 129 158c0 40.667 -12.167 74 -36.5 100s-62.5 39 -114.5 39
c-98.667 0 -178.334 -34.333 -239.001 -103c-56 -63.333 -88.333 -145 -97 -245z" />
    <glyph glyph-name="ccedilla" unicode="&#xe7;" horiz-adv-x="911" 
d="M90 487c11.333 106.667 40.666 204.335 87.999 293.002c52 98 129.667 167.333 233 208c54 21.333 111.667 32 173 32c84.667 0 160.334 -12.333 227.001 -37c42 -15.333 63 -40 63 -74v-12c0 -30 -9.16699 -70.667 -27.5 -122s-31.5 -85.666 -39.5 -102.999l-86 6
l10 192c-41.333 15.333 -89.5 23 -144.5 23s-104 -14.333 -147 -43s-78.833 -67.334 -107.5 -116.001c-57.333 -96 -86 -217 -86 -363c0 -172 74.333 -258 223 -258c88 0 183 20.333 285 61l37 -102c-91.333 -48 -194 -76 -308 -84l-98 -115
c130 -8.66699 195 -56.334 195 -143.001c0 -64 -30.667 -117.333 -92 -160c-69.333 -48 -166.333 -72 -291 -72l6 78c168 15.333 252 58.333 252 129c0 49.333 -63.667 74 -191 74l-20 41l147 168c-158.667 11.333 -255.667 84.666 -291 219.999
c-18.667 73.333 -22 166.333 -10 279z" />
    <glyph glyph-name="egrave" unicode="&#xe8;" horiz-adv-x="946" 
d="M82 377c0 276 89.666 470.332 268.999 582.999c67.333 42.667 153.666 64 258.999 64c88 0 156.667 -24 206 -72c46 -45.333 69 -102 69 -170s-15.667 -124.167 -47 -168.5s-75.333 -80.833 -132 -109.5c-106.667 -54 -260 -86.667 -460 -98
c-1.33301 -8 -2 -16.667 -2 -26v-26c0 -72 10.667 -123.333 32 -154c43.333 -60.667 110.166 -91 200.499 -91s186.833 23.667 289.5 71l37 -98c-44 -27.333 -100.167 -50.166 -168.5 -68.499s-137.166 -27.5 -206.499 -27.5s-126.666 10.167 -171.999 30.5
s-80.666 48.833 -105.999 85.5c-45.333 63.333 -68 155 -68 275zM253.999 507.999c154 6.66699 271.667 29.833 353 69.5s122 99.167 122 178.5c0 40.667 -10.833 74 -32.5 100s-57.834 39 -108.501 39c-96.667 0 -173.167 -34.5 -229.5 -103.5
s-91.166 -163.5 -104.499 -283.5zM316.999 1397l125 102l207 -338l-76 -57z" />
    <glyph glyph-name="eacute" unicode="&#xe9;" horiz-adv-x="946" 
d="M82 377c0 276 89.666 470.332 268.999 582.999c67.333 42.667 153.666 64 258.999 64c88 0 156.667 -24 206 -72c46 -45.333 69 -102 69 -170s-15.667 -124.167 -47 -168.5s-75.333 -80.833 -132 -109.5c-106.667 -54 -260 -86.667 -460 -98
c-1.33301 -8 -2 -16.667 -2 -26v-26c0 -72 10.667 -123.333 32 -154c43.333 -60.667 110.166 -91 200.499 -91s186.833 23.667 289.5 71l37 -98c-44 -27.333 -100.167 -50.166 -168.5 -68.499s-137.166 -27.5 -206.499 -27.5s-126.666 10.167 -171.999 30.5
s-80.666 48.833 -105.999 85.5c-45.333 63.333 -68 155 -68 275zM253.999 507.999c154 6.66699 271.667 29.833 353 69.5s122 99.167 122 178.5c0 40.667 -10.833 74 -32.5 100s-57.834 39 -108.501 39c-96.667 0 -173.167 -34.5 -229.5 -103.5
s-91.166 -163.5 -104.499 -283.5zM513.999 1159l279 338l102 -102l-317 -293z" />
    <glyph glyph-name="ecircumflex" unicode="&#xea;" horiz-adv-x="946" 
d="M82 377c0 276 89.666 470.332 268.999 582.999c67.333 42.667 153.666 64 258.999 64c88 0 156.667 -24 206 -72c46 -45.333 69 -102 69 -170s-15.667 -124.167 -47 -168.5s-75.333 -80.833 -132 -109.5c-106.667 -54 -260 -86.667 -460 -98
c-1.33301 -8 -2 -16.667 -2 -26v-26c0 -72 10.667 -123.333 32 -154c43.333 -60.667 110.166 -91 200.499 -91s186.833 23.667 289.5 71l37 -98c-44 -27.333 -100.167 -50.166 -168.5 -68.499s-137.166 -27.5 -206.499 -27.5s-126.666 10.167 -171.999 30.5
s-80.666 48.833 -105.999 85.5c-45.333 63.333 -68 155 -68 275zM214.999 1149l334 291h108l267 -289l-52 -59l-282 204l-332 -204zM253.999 507.999c154 6.66699 271.667 29.833 353 69.5s122 99.167 122 178.5c0 40.667 -10.833 74 -32.5 100s-57.834 39 -108.501 39
c-96.667 0 -173.167 -34.5 -229.5 -103.5s-91.166 -163.5 -104.499 -283.5z" />
    <glyph glyph-name="edieresis" unicode="&#xeb;" horiz-adv-x="946" 
d="M82 377c0 276 89.666 470.332 268.999 582.999c67.333 42.667 153.666 64 258.999 64c88 0 156.667 -24 206 -72c46 -45.333 69 -102 69 -170s-15.667 -124.167 -47 -168.5s-75.333 -80.833 -132 -109.5c-106.667 -54 -260 -86.667 -460 -98
c-1.33301 -8 -2 -16.667 -2 -26v-26c0 -72 10.667 -123.333 32 -154c43.333 -60.667 110.166 -91 200.499 -91s186.833 23.667 289.5 71l37 -98c-44 -27.333 -100.167 -50.166 -168.5 -68.499s-137.166 -27.5 -206.499 -27.5s-126.666 10.167 -171.999 30.5
s-80.666 48.833 -105.999 85.5c-45.333 63.333 -68 155 -68 275zM253.999 507.999c154 6.66699 271.667 29.833 353 69.5s122 99.167 122 178.5c0 40.667 -10.833 74 -32.5 100s-57.834 39 -108.501 39c-96.667 0 -173.167 -34.5 -229.5 -103.5
s-91.166 -163.5 -104.499 -283.5zM329.999 1241c1.33301 27.333 13.1689 50.835 35.502 70.502s46.166 29.5 71.499 29.5s46.5 -7.5 63.5 -22.5s24.833 -36.833 23.5 -65.5s-12.166 -52.834 -32.499 -72.501s-44.833 -29.5 -73.5 -29.5s-50.834 8.16699 -66.501 24.5
s-22.834 38.166 -21.501 65.499zM704.502 1241c1.66699 27.333 13 50.835 34 70.502s44.5 29.5 70.5 29.5s47.167 -7.5 63.5 -22.5s24.166 -36.833 23.499 -65.5s-11.667 -52.834 -33 -72.501s-46.333 -29.5 -75 -29.5s-50.167 8.16699 -64.5 24.5
s-20.666 38.166 -18.999 65.499z" />
    <glyph glyph-name="igrave" unicode="&#xec;" horiz-adv-x="598" 
d="M86 1397l125 102l207 -338l-76 -57zM92 901l6 82c110 26 188 39 234 39s75.833 -5.5 89.5 -16.5s20.5 -28.167 20.5 -51.5l-102 -823c57.333 4 114 21 170 51l39 -67c-45.333 -46.667 -91.5 -81.667 -138.5 -105s-90.5 -35 -130.5 -35c-70.667 0 -106 38.333 -106 115
c0 15.333 1.33301 32.333 4 51l92 729z" />
    <glyph glyph-name="iacute" unicode="&#xed;" horiz-adv-x="634" 
d="M92 901l6 82c110 26 188 39 234 39s75.833 -5.5 89.5 -16.5s20.5 -28.167 20.5 -51.5l-102 -823c57.333 4 114 21 170 51l39 -67c-45.333 -46.667 -91.5 -81.667 -138.5 -105s-90.5 -35 -130.5 -35c-70.667 0 -106 38.333 -106 115c0 15.333 1.33301 32.333 4 51l92 729z
M295 1159l278 338l103 -102l-318 -293z" />
    <glyph glyph-name="icircumflex" unicode="&#xee;" horiz-adv-x="655" 
d="M-12 1149l334 291h108l266 -289l-51 -59l-283 204l-331 -204zM92 901l6 82c110 26 188 39 234 39s75.833 -5.5 89.5 -16.5s20.5 -28.167 20.5 -51.5l-102 -823c57.333 4 114 21 170 51l39 -67c-45.333 -46.667 -91.5 -81.667 -138.5 -105s-90.5 -35 -130.5 -35
c-70.667 0 -106 38.333 -106 115c0 15.333 1.33301 32.333 4 51l92 729z" />
    <glyph glyph-name="idieresis" unicode="&#xef;" horiz-adv-x="598" 
d="M76 1241c1.33301 27.333 13.1689 50.835 35.502 70.502s46.166 29.5 71.499 29.5s46.5 -7.5 63.5 -22.5s24.833 -36.833 23.5 -65.5s-12.166 -52.834 -32.499 -72.501s-44.833 -29.5 -73.5 -29.5s-50.834 8.16699 -66.501 24.5s-22.834 38.166 -21.501 65.499z
M92.0029 901.002l6 82c110 26 188 39 234 39s75.833 -5.5 89.5 -16.5s20.5 -28.167 20.5 -51.5l-102 -823c57.333 4 114 21 170 51l39 -67c-45.333 -46.667 -91.5 -81.667 -138.5 -105s-90.5 -35 -130.5 -35c-70.667 0 -106 38.333 -106 115c0 15.333 1.33301 32.333 4 51
l92 729zM451.003 1241c1.33301 27.333 12.501 50.835 33.501 70.502s44.5 29.5 70.5 29.5s47.167 -7.5 63.5 -22.5s24.166 -36.833 23.499 -65.5s-11.5 -52.834 -32.5 -72.501s-46 -29.5 -75 -29.5s-50.5 8.16699 -64.5 24.5s-20.333 38.166 -19 65.499z" />
    <glyph glyph-name="eth" unicode="&#xf0;" horiz-adv-x="1017" 
d="M82 329.5c0 98.333 12.666 183.334 37.999 255.001s59.333 132.5 102 182.5c90.667 104.667 199 157 325 157c52 0 100.5 -6.83301 145.5 -20.5s79.833 -28.834 104.5 -45.501c-18.667 133.333 -68.667 250 -150 350l-219 -139l-43 66l207 135
c-44 44 -100.667 85.667 -170 125l55 92c88.667 -39.333 164.667 -88 228 -146l204 129l43 -65l-192 -123c129.333 -150 194 -345.333 194 -586c0 -182.667 -31.333 -336 -94 -460c-52 -103.333 -128.333 -176 -229 -218c-53.333 -22.667 -115.666 -34 -186.999 -34
c-116 0 -205.333 33 -268 99s-94 148.167 -94 246.5zM245.999 354.001c0 -114.667 36.667 -189.332 110 -223.999c28.667 -14 66.667 -21 114 -21s89 10.833 125 32.5s66.333 50 91 85s44.5 74.667 59.5 119s26.5 89.166 34.5 134.499c12.667 76 19 155.667 19 239
c-74.667 53.333 -156.667 80 -246 80c-102 0 -181 -52.667 -237 -158c-46.667 -86 -70 -181.667 -70 -287z" />
    <glyph glyph-name="ntilde" unicode="&#xf1;" horiz-adv-x="1171" 
d="M61 899l6.99805 82.001c100 26 178.5 39 235.5 39s91.333 -5.5 103 -16.5s17.5 -40.5 17.5 -88.5s-9.66699 -122.333 -29 -223h8c58 115.333 129 201.333 213 258c68 45.333 125.667 68 173 68s84 -6.16699 110 -18.5s46.333 -28.833 61 -49.5c26 -38.667 39 -88 39 -148
s-23 -284.333 -69 -673c54.667 4 109.334 21 164.001 51l39 -67c-48 -48 -97.333 -82.167 -148 -102.5s-93 -30.5 -127 -30.5c-62.667 0 -94 35.333 -94 106v24c0 10 4.5 50.167 13.5 120.5s17.5 144.333 25.5 222s14 138.167 18 181.5
c6.66699 71.333 10 119.666 10 144.999s-7.16699 49.333 -21.5 72s-36.5 34 -66.5 34s-60.667 -8.5 -92 -25.5s-63.666 -44.167 -96.999 -81.5c-75.333 -83.333 -137 -202 -185 -356l-58 -422h-161c49.333 376.667 85.333 666 108 868zM290.998 1233
c23.333 48 51.6719 85.5 85.0049 112.5s65.666 40.5 96.999 40.5s59.666 -4 84.999 -12s50 -16.667 74 -26c64 -26 107.333 -39 130 -39l123 80l47 -46c-19.333 -45.333 -45.833 -82.5 -79.5 -111.5s-67.834 -43.5 -102.501 -43.5s-64.834 4 -90.501 12
s-49.834 17.333 -72.501 28c-59.333 26.667 -100 40 -122 40l-123 -80z" />
    <glyph glyph-name="ograve" unicode="&#xf2;" horiz-adv-x="1015" 
d="M82 377c0 170 37.3311 313.667 111.998 431c40 62 91.833 112.833 155.5 152.5s135.334 59.5 215.001 59.5s143.334 -11 191.001 -33s86.167 -51.667 115.5 -89c55.333 -70.667 83 -166 83 -286c0 -164 -35 -302 -105 -414c-88.667 -141.333 -221.334 -212 -398.001 -212
c-131.333 0 -227.666 38 -288.999 114c-53.333 66.667 -80 159 -80 277zM245.998 356c0 -164.667 73.668 -247 221.001 -247c65.333 0 118.833 17.667 160.5 53s74.167 79 97.5 131c40.667 90.667 61 197 61 319c0 128 -36 212.667 -108 254c-28 15.333 -62.333 23 -103 23
c-118.667 0 -207.334 -65 -266.001 -195c-42 -93.333 -63 -206 -63 -338zM366.999 1397l125 102l206 -338l-75 -57z" />
    <glyph glyph-name="oacute" unicode="&#xf3;" horiz-adv-x="1015" 
d="M82 377c0 170 37.3311 313.667 111.998 431c40 62 91.833 112.833 155.5 152.5s135.334 59.5 215.001 59.5s143.334 -11 191.001 -33s86.167 -51.667 115.5 -89c55.333 -70.667 83 -166 83 -286c0 -164 -35 -302 -105 -414c-88.667 -141.333 -221.334 -212 -398.001 -212
c-131.333 0 -227.666 38 -288.999 114c-53.333 66.667 -80 159 -80 277zM245.998 356c0 -164.667 73.668 -247 221.001 -247c65.333 0 118.833 17.667 160.5 53s74.167 79 97.5 131c40.667 90.667 61 197 61 319c0 128 -36 212.667 -108 254c-28 15.333 -62.333 23 -103 23
c-118.667 0 -207.334 -65 -266.001 -195c-42 -93.333 -63 -206 -63 -338zM531.999 1159l279 338l102 -102l-317 -293z" />
    <glyph glyph-name="ocircumflex" unicode="&#xf4;" horiz-adv-x="1015" 
d="M82 377c0 170 37.3311 313.667 111.998 431c40 62 91.833 112.833 155.5 152.5s135.334 59.5 215.001 59.5s143.334 -11 191.001 -33s86.167 -51.667 115.5 -89c55.333 -70.667 83 -166 83 -286c0 -164 -35 -302 -105 -414c-88.667 -141.333 -221.334 -212 -398.001 -212
c-131.333 0 -227.666 38 -288.999 114c-53.333 66.667 -80 159 -80 277zM245.998 356c0 -164.667 73.668 -247 221.001 -247c65.333 0 118.833 17.667 160.5 53s74.167 79 97.5 131c40.667 90.667 61 197 61 319c0 128 -36 212.667 -108 254c-28 15.333 -62.333 23 -103 23
c-118.667 0 -207.334 -65 -266.001 -195c-42 -93.333 -63 -206 -63 -338zM247.999 1149l334 291h108l266 -289l-51 -59l-282 204l-332 -204z" />
    <glyph glyph-name="otilde" unicode="&#xf5;" horiz-adv-x="1015" 
d="M82 377c0 170 37.3311 313.667 111.998 431c40 62 91.833 112.833 155.5 152.5s135.334 59.5 215.001 59.5s143.334 -11 191.001 -33s86.167 -51.667 115.5 -89c55.333 -70.667 83 -166 83 -286c0 -164 -35 -302 -105 -414c-88.667 -141.333 -221.334 -212 -398.001 -212
c-131.333 0 -227.666 38 -288.999 114c-53.333 66.667 -80 159 -80 277zM245.998 356c0 -164.667 73.668 -247 221.001 -247c65.333 0 118.833 17.667 160.5 53s74.167 79 97.5 131c40.667 90.667 61 197 61 319c0 128 -36 212.667 -108 254c-28 15.333 -62.333 23 -103 23
c-118.667 0 -207.334 -65 -266.001 -195c-42 -93.333 -63 -206 -63 -338zM304.999 1219c49.333 102 113.667 153 193 153c34.667 0 74 -8.66699 118 -26c85.333 -34.667 138.666 -52 159.999 -52l123 80l47 -45c-19.333 -45.333 -45.666 -82.5 -78.999 -111.5
s-67.333 -43.5 -102 -43.5s-65 4 -91 12s-50.333 17.333 -73 28c-58 26 -98.667 39 -122 39l-123 -79z" />
    <glyph glyph-name="odieresis" unicode="&#xf6;" horiz-adv-x="1015" 
d="M82 377c0 170 37.3311 313.667 111.998 431c40 62 91.833 112.833 155.5 152.5s135.334 59.5 215.001 59.5s143.334 -11 191.001 -33s86.167 -51.667 115.5 -89c55.333 -70.667 83 -166 83 -286c0 -164 -35 -302 -105 -414c-88.667 -141.333 -221.334 -212 -398.001 -212
c-131.333 0 -227.666 38 -288.999 114c-53.333 66.667 -80 159 -80 277zM245.998 356c0 -164.667 73.668 -247 221.001 -247c65.333 0 118.833 17.667 160.5 53s74.167 79 97.5 131c40.667 90.667 61 197 61 319c0 128 -36 212.667 -108 254c-28 15.333 -62.333 23 -103 23
c-118.667 0 -207.334 -65 -266.001 -195c-42 -93.333 -63 -206 -63 -338zM343.999 1241c1.33301 27.333 13.3359 50.835 36.0029 70.502s46.667 29.5 72 29.5s46.5 -7.5 63.5 -22.5s24.833 -36.833 23.5 -65.5s-12.333 -52.834 -33 -72.501s-45.334 -29.5 -74.001 -29.5
s-50.834 8.16699 -66.501 24.5s-22.834 38.166 -21.501 65.499zM719.002 1241c1.33301 27.333 12.501 50.835 33.501 70.502s44.5 29.5 70.5 29.5s47.167 -7.5 63.5 -22.5s24.166 -36.833 23.499 -65.5s-11.5 -52.834 -32.5 -72.501s-45.833 -29.5 -74.5 -29.5
s-50.167 8.16699 -64.5 24.5s-20.833 38.166 -19.5 65.499z" />
    <glyph glyph-name="divide" unicode="&#xf7;" 
d="M186 553l15 119h770l-15 -119h-770zM438 282c1.33301 29.333 13.3359 54.168 36.0029 74.501s47.667 30.5 75 30.5s49.5 -8.5 66.5 -25.5s24.833 -39.833 23.5 -68.5s-13.333 -54.334 -36 -77.001s-47.334 -34 -74.001 -34s-48.834 9.33301 -66.501 28
s-25.834 42.667 -24.501 72zM519.003 931.002c0.666992 28 12.667 52.833 36 74.5s48.666 32.5 75.999 32.5s49.166 -8.5 65.499 -25.5s23.833 -40.167 22.5 -69.5s-13.333 -55.333 -36 -78s-47.667 -34 -75 -34s-49.166 9.66699 -65.499 29s-24.166 43 -23.499 71z" />
    <glyph glyph-name="oslash" unicode="&#xf8;" horiz-adv-x="1017" 
d="M23 -14l120.001 136.996c-40.667 61.333 -61 135.333 -61 222s8.5 169.334 25.5 248.001s45.167 149.334 84.5 212.001c88.667 143.333 218.667 215 390 215c112 0 200.667 -32.667 266 -98l82 96h82c-42 -45.333 -83.667 -93.333 -125 -144
c44.667 -67.333 67 -167.666 67 -300.999c0 -154.667 -38.667 -286 -116 -394c-91.333 -128.667 -220.333 -193 -387 -193c-116.667 0 -206.334 30 -269.001 90c-18 -23.333 -44 -52.666 -78 -87.999c-13.333 0 -26.5 -0.333008 -39.5 -1s-26.833 -1 -41.5 -1z
M248.001 375.996c0 -53.333 5.33398 -95.333 16.001 -126l475 559c-33.333 53.333 -88 80 -164 80c-80 0 -147.333 -31 -202 -93c-64.667 -73.333 -104.334 -181 -119.001 -323c-4 -38 -6 -70.333 -6 -97zM289.002 187.996c35.333 -52.667 89.833 -79.001 163.5 -79.001
s131 17.333 172 52s73.5 77.334 97.5 128.001c41.333 87.333 62 190.333 62 309c0 60 -6.66699 109 -20 147z" />
    <glyph glyph-name="ugrave" unicode="&#xf9;" horiz-adv-x="1167" 
d="M63 899l6.99707 82c98.667 26 176.834 39 234.501 39s93 -5.83301 106 -17.5s19.5 -27.667 19.5 -48s-1.66699 -48.333 -5 -84s-7.83301 -77 -13.5 -124l-18.5 -150.5c-6.66699 -53.333 -12.667 -104 -18 -152c-12.667 -115.333 -19 -185.666 -19 -210.999
c0 -77.333 31 -116 93 -116c98 0 191.667 82.333 281 247c32 59.333 61.667 131.333 89 216c10.667 69.333 20.834 138.833 30.501 208.5l29.5 210.5h155c-19.333 -140.667 -37.833 -283.334 -55.5 -428.001l-54.5 -442c56 4.66699 111.333 21.667 166 51l38 -67
c-46.667 -46.667 -94.5 -80.5 -143.5 -101.5s-91.167 -31.5 -126.5 -31.5s-59.166 9.16699 -71.499 27.5s-18.5 46.833 -18.5 85.5s6.66699 108 20 208h-10c-54 -110 -122.667 -194 -206 -252c-64.667 -44.667 -127 -67 -187 -67c-131.333 0 -197 68 -197 204
c0 42 8.66699 138.5 26 289.5l44 394.5c-45.333 6 -110.333 15.667 -195 29zM394.997 1397l125 102l207 -338l-76 -57z" />
    <glyph glyph-name="uacute" unicode="&#xfa;" horiz-adv-x="1167" 
d="M63 899l6.99707 82c98.667 26 176.834 39 234.501 39s93 -5.83301 106 -17.5s19.5 -27.667 19.5 -48s-1.66699 -48.333 -5 -84s-7.83301 -77 -13.5 -124l-18.5 -150.5c-6.66699 -53.333 -12.667 -104 -18 -152c-12.667 -115.333 -19 -185.666 -19 -210.999
c0 -77.333 31 -116 93 -116c98 0 191.667 82.333 281 247c32 59.333 61.667 131.333 89 216c10.667 69.333 20.834 138.833 30.501 208.5l29.5 210.5h155c-19.333 -140.667 -37.833 -283.334 -55.5 -428.001l-54.5 -442c56 4.66699 111.333 21.667 166 51l38 -67
c-46.667 -46.667 -94.5 -80.5 -143.5 -101.5s-91.167 -31.5 -126.5 -31.5s-59.166 9.16699 -71.499 27.5s-18.5 46.833 -18.5 85.5s6.66699 108 20 208h-10c-54 -110 -122.667 -194 -206 -252c-64.667 -44.667 -127 -67 -187 -67c-131.333 0 -197 68 -197 204
c0 42 8.66699 138.5 26 289.5l44 394.5c-45.333 6 -110.333 15.667 -195 29zM552.997 1159l278 338l103 -102l-318 -293z" />
    <glyph glyph-name="ucircumflex" unicode="&#xfb;" horiz-adv-x="1167" 
d="M63 899l6.99707 82c98.667 26 176.834 39 234.501 39s93 -5.83301 106 -17.5s19.5 -27.667 19.5 -48s-1.66699 -48.333 -5 -84s-7.83301 -77 -13.5 -124l-18.5 -150.5c-6.66699 -53.333 -12.667 -104 -18 -152c-12.667 -115.333 -19 -185.666 -19 -210.999
c0 -77.333 31 -116 93 -116c98 0 191.667 82.333 281 247c32 59.333 61.667 131.333 89 216c10.667 69.333 20.834 138.833 30.501 208.5l29.5 210.5h155c-19.333 -140.667 -37.833 -283.334 -55.5 -428.001l-54.5 -442c56 4.66699 111.333 21.667 166 51l38 -67
c-46.667 -46.667 -94.5 -80.5 -143.5 -101.5s-91.167 -31.5 -126.5 -31.5s-59.166 9.16699 -71.499 27.5s-18.5 46.833 -18.5 85.5s6.66699 108 20 208h-10c-54 -110 -122.667 -194 -206 -252c-64.667 -44.667 -127 -67 -187 -67c-131.333 0 -197 68 -197 204
c0 42 8.66699 138.5 26 289.5l44 394.5c-45.333 6 -110.333 15.667 -195 29zM302.997 1149l334 291h108l267 -289l-51 -59l-283 204l-332 -204z" />
    <glyph glyph-name="udieresis" unicode="&#xfc;" horiz-adv-x="1167" 
d="M63 899l6.99707 82c98.667 26 176.834 39 234.501 39s93 -5.83301 106 -17.5s19.5 -27.667 19.5 -48s-1.66699 -48.333 -5 -84s-7.83301 -77 -13.5 -124l-18.5 -150.5c-6.66699 -53.333 -12.667 -104 -18 -152c-12.667 -115.333 -19 -185.666 -19 -210.999
c0 -77.333 31 -116 93 -116c98 0 191.667 82.333 281 247c32 59.333 61.667 131.333 89 216c10.667 69.333 20.834 138.833 30.501 208.5l29.5 210.5h155c-19.333 -140.667 -37.833 -283.334 -55.5 -428.001l-54.5 -442c56 4.66699 111.333 21.667 166 51l38 -67
c-46.667 -46.667 -94.5 -80.5 -143.5 -101.5s-91.167 -31.5 -126.5 -31.5s-59.166 9.16699 -71.499 27.5s-18.5 46.833 -18.5 85.5s6.66699 108 20 208h-10c-54 -110 -122.667 -194 -206 -252c-64.667 -44.667 -127 -67 -187 -67c-131.333 0 -197 68 -197 204
c0 42 8.66699 138.5 26 289.5l44 394.5c-45.333 6 -110.333 15.667 -195 29zM374.997 1241c1.33301 27.333 13.1689 50.835 35.502 70.502s46.166 29.5 71.499 29.5s46.5 -7.5 63.5 -22.5s24.833 -36.833 23.5 -65.5s-12.166 -52.834 -32.499 -72.501
s-44.833 -29.5 -73.5 -29.5s-50.834 8.16699 -66.501 24.5s-22.834 38.166 -21.501 65.499zM750 1241c1.33301 27.333 12.501 50.835 33.501 70.502s44.5 29.5 70.5 29.5s47.167 -7.5 63.5 -22.5s24.166 -36.833 23.499 -65.5s-11.5 -52.834 -32.5 -72.501
s-46 -29.5 -75 -29.5s-50.5 8.16699 -64.5 24.5s-20.333 38.166 -19 65.499z" />
    <glyph glyph-name="yacute" unicode="&#xfd;" horiz-adv-x="1032" 
d="M-225 -307l69.001 40.9961c23.333 -27.333 49.333 -44.833 78 -52.5s65.167 -11.5 109.5 -11.5s99.333 17.5 165 52.5s134.5 93.5 206.5 175.5c-54 332.667 -118.667 654 -194 964l-152 -41l-26 70c46.667 44 91 75.5 133 94.5s75.333 28.5 100 28.5
s43.167 -6.16699 55.5 -18.5s22.166 -32.5 29.499 -60.5s15.5 -61.167 24.5 -99.5s18.333 -82.333 28 -132l31 -160.5c11 -57.333 21.5 -115 31.5 -173l29.5 -170c9.66699 -55.333 17.834 -105.666 24.501 -150.999c80 111.333 150 257.666 210 438.999
c52.667 158.667 79 285.334 79 380.001l-148 -39c-8.66699 33.333 -15.334 56.666 -20.001 69.999c86 80.667 160.333 121 223 121c34 0 59.333 -9.83301 76 -29.5s25 -62.667 25 -129s-12.333 -147.666 -37 -243.999s-59.5 -194.666 -104.5 -294.999
s-98.667 -198.666 -161 -294.999s-131.166 -182.166 -206.499 -257.499c-166 -166 -334.333 -249 -505 -249c-72.667 0 -124.334 14.333 -155.001 43s-37 71.667 -19 129zM453.001 1159l278 338l103 -102l-318 -293z" />
    <glyph glyph-name="thorn" unicode="&#xfe;" horiz-adv-x="1087" 
d="M-78 -426l15 123.001h145c69.333 584 114.333 970 135 1158l53 472l-194 31l6 82c101.333 26 191.333 39 270 39c60 0 90 -22.667 90 -68c0 -20 -6.83301 -86.833 -20.5 -200.5l-29.5 -250l-17 -151.5c-5.33301 -48 -10.333 -89 -15 -123h9
c104 217.333 232.333 326 385 326c75.333 0 136.5 -29 183.5 -87s70.5 -140.667 70.5 -248s-11 -202.333 -33 -285s-54.333 -154.334 -97 -215.001c-92.667 -130 -223.667 -195 -393 -195c-54 0 -120.667 12 -200 36l-43 -321h184l-14 -123h-490zM295 152.001
c68.667 -27.333 137 -41.002 205 -41.002s124.167 17.333 168.5 52s79.5 78.334 105.5 131.001c46.667 94.667 70 206.334 70 335.001c0 84.667 -14 147.167 -42 187.5s-64.667 60.5 -110 60.5c-95.333 0 -185.333 -80.333 -270 -241
c-31.333 -59.333 -61.333 -133.333 -90 -222z" />
    <glyph glyph-name="ydieresis" unicode="&#xff;" horiz-adv-x="1032" 
d="M-225 -307l69.001 40.9961c23.333 -27.333 49.333 -44.833 78 -52.5s65.167 -11.5 109.5 -11.5s99.333 17.5 165 52.5s134.5 93.5 206.5 175.5c-54 332.667 -118.667 654 -194 964l-152 -41l-26 70c46.667 44 91 75.5 133 94.5s75.333 28.5 100 28.5
s43.167 -6.16699 55.5 -18.5s22.166 -32.5 29.499 -60.5s15.5 -61.167 24.5 -99.5s18.333 -82.333 28 -132l31 -160.5c11 -57.333 21.5 -115 31.5 -173l29.5 -170c9.66699 -55.333 17.834 -105.666 24.501 -150.999c80 111.333 150 257.666 210 438.999
c52.667 158.667 79 285.334 79 380.001l-148 -39c-8.66699 33.333 -15.334 56.666 -20.001 69.999c86 80.667 160.333 121 223 121c34 0 59.333 -9.83301 76 -29.5s25 -62.667 25 -129s-12.333 -147.666 -37 -243.999s-59.5 -194.666 -104.5 -294.999
s-98.667 -198.666 -161 -294.999s-131.166 -182.166 -206.499 -257.499c-166 -166 -334.333 -249 -505 -249c-72.667 0 -124.334 14.333 -155.001 43s-37 71.667 -19 129zM299.001 1241c1.33301 27.333 13.3359 50.835 36.0029 70.502s46.5 29.5 71.5 29.5
s46.167 -7.5 63.5 -22.5s25.333 -36.833 24 -65.5s-12.333 -52.834 -33 -72.501s-45.334 -29.5 -74.001 -29.5s-50.834 8.16699 -66.501 24.5s-22.834 38.166 -21.501 65.499zM674.004 1241c1.33301 27.333 12.501 50.835 33.501 70.502s44.5 29.5 70.5 29.5
s47.167 -7.5 63.5 -22.5s24.166 -36.833 23.499 -65.5s-11.5 -52.834 -32.5 -72.501s-45.833 -29.5 -74.5 -29.5s-50.167 8.16699 -64.5 24.5s-20.833 38.166 -19.5 65.499z" />
    <glyph glyph-name="Amacron" unicode="&#x100;" horiz-adv-x="1327" 
d="M-12 0c5.33301 39.333 9.33301 81 12 125h117l565 1278h209l252 -1278h108l-14 -125h-418l15 125h137l-47 262h-529l-112 -262h141l-14 -125h-422zM453 518l447.998 0.000976562c-86 478.667 -129.667 723 -131 733h-6
c-1.33301 -2.66699 -2.66602 -6.33398 -3.99902 -11.001s-4.16602 -12.167 -8.49902 -22.5l-16.5 -41c-6.66699 -17 -16 -38.5 -28 -64.5zM468.998 1530l16 131h664l-14 -131h-666z" />
    <glyph glyph-name="amacron" unicode="&#x101;" horiz-adv-x="1116" 
d="M82 309.5c0 105 10.499 199.167 31.499 282.5s53.167 156 96.5 218c94 136 221.333 204 382 204c63.333 0 143 -17.667 239 -53l52 55l98 -6l-36.5 -241l-34.5 -237c-27.333 -203.333 -43.333 -337.666 -48 -402.999c52 4.66699 110.667 26 176 64l39 -70
c-65.333 -65.333 -133 -110.333 -203 -135c-22.667 -7.33301 -43 -11 -61 -11c-42 0 -70.5 12.667 -85.5 38s-22.5 60.666 -22.5 105.999s7.33301 105.333 22 180h-10c-95.333 -212.667 -221.666 -319 -378.999 -319c-76.667 0 -138.5 28.333 -185.5 85
s-70.5 137.5 -70.5 242.5zM247.999 352c0 -82 13.5 -143.001 40.5 -183.001s63.167 -60 108.5 -60c91.333 0 180.333 80.667 267 242c31.333 59.333 61.333 133.333 90 222l43 267c-72 28.667 -141.167 43 -207.5 43s-121.833 -18.167 -166.5 -54.5
s-79.667 -81.166 -105 -134.499c-46.667 -96 -70 -210 -70 -342zM357.999 1206l17 131h647l-16 -131h-648z" />
    <glyph glyph-name="Abreve" unicode="&#x102;" horiz-adv-x="1327" 
d="M-12 0c5.33301 39.333 9.33301 81 12 125h117l565 1278h209l252 -1278h108l-14 -125h-418l15 125h137l-47 262h-529l-112 -262h141l-14 -125h-422zM453 518l447.998 0.000976562c-86 478.667 -129.667 723 -131 733h-6
c-1.33301 -2.66699 -2.66602 -6.33398 -3.99902 -11.001s-4.16602 -12.167 -8.49902 -22.5l-16.5 -41c-6.66699 -17 -16 -38.5 -28 -64.5zM488.998 1720l101.001 69.999c68 -113.333 140.333 -170 217 -170c38.667 0 72.334 6 101.001 18c64 28.667 130.667 74.667 200 138
l47 -52c-68 -86 -133.833 -146.333 -197.5 -181s-117.334 -52 -161.001 -52s-79.834 6.5 -108.501 19.5s-55 30.167 -79 51.5c-38 32.667 -78 85.334 -120 158.001z" />
    <glyph glyph-name="abreve" unicode="&#x103;" horiz-adv-x="1116" 
d="M82 309.5c0 105 10.499 199.167 31.499 282.5s53.167 156 96.5 218c94 136 221.333 204 382 204c63.333 0 143 -17.667 239 -53l52 55l98 -6l-36.5 -241l-34.5 -237c-27.333 -203.333 -43.333 -337.666 -48 -402.999c52 4.66699 110.667 26 176 64l39 -70
c-65.333 -65.333 -133 -110.333 -203 -135c-22.667 -7.33301 -43 -11 -61 -11c-42 0 -70.5 12.667 -85.5 38s-22.5 60.666 -22.5 105.999s7.33301 105.333 22 180h-10c-95.333 -212.667 -221.666 -319 -378.999 -319c-76.667 0 -138.5 28.333 -185.5 85
s-70.5 137.5 -70.5 242.5zM247.999 352c0 -82 13.5 -143.001 40.5 -183.001s63.167 -60 108.5 -60c91.333 0 180.333 80.667 267 242c31.333 59.333 61.333 133.333 90 222l43 267c-72 28.667 -141.167 43 -207.5 43s-121.833 -18.167 -166.5 -54.5
s-79.667 -81.166 -105 -134.499c-46.667 -96 -70 -210 -70 -342zM306.999 1358l101.003 68.999c68 -113.333 140.333 -170 217 -170c83.333 0 183.666 52 300.999 156l47 -51c-68 -86 -133.833 -146.5 -197.5 -181.5s-117.334 -52.5 -161.001 -52.5
s-79.834 6.5 -108.501 19.5s-55 30.5 -79 52.5c-40 36.667 -80 89.334 -120 158.001z" />
    <glyph glyph-name="Aogonek" unicode="&#x104;" horiz-adv-x="1327" 
d="M-12 0c5.33301 39.333 9.33398 81.001 12.001 125.001h117l565 1278h209l252 -1278h108l-14 -125h-168c-55.333 -63.333 -95 -131.333 -119 -204c-6.66699 -21.333 -10 -39.333 -10 -54c0 -50.667 34 -76 102 -76c43.333 0 94.666 7.66699 153.999 23l6 -66
c-74.667 -36.667 -149 -55 -223 -55c-114.667 0 -172 43 -172 129c0 34 12.333 78.667 37 134s73 111.666 145 168.999h-170l15 125h137l-47 262h-529l-112 -262h141l-14 -125h-422zM453.001 518.001l447.998 0.000976562c-86 478.667 -129.667 723 -131 733h-6
c-1.33301 -2.66699 -2.66602 -6.33398 -3.99902 -11.001s-4.16602 -12.167 -8.49902 -22.5l-16.5 -41c-6.66699 -17 -16 -38.5 -28 -64.5z" />
    <glyph glyph-name="aogonek" unicode="&#x105;" horiz-adv-x="1116" 
d="M82 309.5c0 105 10.5 199.168 31.5 282.501s53.167 156 96.5 218c94 136 221.333 204 382 204c63.333 0 143 -17.667 239 -53l52 55l98 -6l-36.5 -241l-34.5 -237c-27.333 -203.333 -43.333 -337.666 -48 -402.999c52 4.66699 110.667 26 176 64l39 -70
c-66 -66 -134.333 -110.333 -205 -133c-34 -40.667 -61.833 -84.334 -83.5 -131.001s-32.5 -84.334 -32.5 -113.001c0 -50.667 34 -76 102 -76c43.333 0 94.666 7.66699 153.999 23l6 -66c-74.667 -36.667 -145 -55 -211 -55c-122.667 0 -184 43 -184 129
c0 31.333 10.5 72.333 31.5 123s62.167 103.334 123.5 158.001c-48.667 11.333 -73 53.666 -73 126.999c0 53.333 7.33301 117.333 22 192h-10c-95.333 -212.667 -221.666 -319 -378.999 -319c-76.667 0 -138.5 28.333 -185.5 85s-70.5 137.5 -70.5 242.5zM248 352.001
c0 -82 13.5 -143.001 40.5 -183.001s63.167 -60 108.5 -60c91.333 0 180.333 80.667 267 242c31.333 59.333 61.333 133.333 90 222l43 267c-72 28.667 -141.167 43 -207.5 43s-121.833 -18.167 -166.5 -54.5s-79.667 -81.166 -105 -134.499c-46.667 -96 -70 -210 -70 -342z
" />
    <glyph glyph-name="Cacute" unicode="&#x106;" horiz-adv-x="1132" 
d="M125 545c0 137.333 13.0029 250.166 39.0029 338.499s55.333 162.833 88 223.5s74.667 114.334 126 161.001c114 104.667 260.333 157 439 157c129.333 0 242.666 -19 339.999 -57l-39 -328h-131l27 217c-79.333 19.333 -154.833 29 -226.5 29s-138.834 -18 -201.501 -54
s-115.334 -86.667 -158.001 -152c-84.667 -130 -127 -305.667 -127 -527c0 -282.667 134.667 -424 404 -424c102 0 209 15.667 321 47l25 -127c-76 -28.667 -174.333 -48.667 -295 -60c-36 -3.33301 -69.667 -5 -101 -5c-353.333 0 -530 187 -530 561zM653.003 1552l365 240
l72 -127l-392 -186z" />
    <glyph glyph-name="cacute" unicode="&#x107;" horiz-adv-x="911" 
d="M90 487c11.333 106.667 40.6641 204.333 87.9971 293c52 98 129.667 167.333 233 208c54 21.333 111.667 32 173 32c84.667 0 160.334 -12.333 227.001 -37c42 -15.333 63 -40 63 -74v-12c0 -30 -9.16699 -70.667 -27.5 -122s-31.5 -85.666 -39.5 -102.999l-86 6l10 192
c-41.333 15.333 -89.5 23 -144.5 23s-104 -14.333 -147 -43s-78.833 -67.334 -107.5 -116.001c-57.333 -96 -86 -217 -86 -363c0 -172 74.333 -258 223 -258c88 0 183 20.333 285 61l37 -102c-111.333 -57.333 -229.666 -86 -354.999 -86
c-183.333 0 -294.666 71.333 -333.999 214c-20 75.333 -24 171 -12 287zM499.998 1159l278 338l103 -102l-318 -293z" />
    <glyph glyph-name="Ccircumflex" unicode="&#x108;" horiz-adv-x="1132" 
d="M125 545c0 137.333 13.0029 250.166 39.0029 338.499s55.333 162.833 88 223.5s74.667 114.334 126 161.001c114 104.667 260.333 157 439 157c129.333 0 242.666 -19 339.999 -57l-39 -328h-131l27 217c-79.333 19.333 -154.833 29 -226.5 29s-138.834 -18 -201.501 -54
s-115.334 -86.667 -158.001 -152c-84.667 -130 -127 -305.667 -127 -527c0 -282.667 134.667 -424 404 -424c102 0 209 15.667 321 47l25 -127c-76 -28.667 -174.333 -48.667 -295 -60c-36 -3.33301 -69.667 -5 -101 -5c-353.333 0 -530 187 -530 561zM412.003 1505l333 293
h109l268 -289l-53 -59l-283 203l-331 -205z" />
    <glyph glyph-name="ccircumflex" unicode="&#x109;" horiz-adv-x="911" 
d="M90 487c11.333 106.667 40.6641 204.333 87.9971 293c52 98 129.667 167.333 233 208c54 21.333 111.667 32 173 32c84.667 0 160.334 -12.333 227.001 -37c42 -15.333 63 -40 63 -74v-12c0 -30 -9.16699 -70.667 -27.5 -122s-31.5 -85.666 -39.5 -102.999l-86 6l10 192
c-41.333 15.333 -89.5 23 -144.5 23s-104 -14.333 -147 -43s-78.833 -67.334 -107.5 -116.001c-57.333 -96 -86 -217 -86 -363c0 -172 74.333 -258 223 -258c88 0 183 20.333 285 61l37 -102c-111.333 -57.333 -229.666 -86 -354.999 -86
c-183.333 0 -294.666 71.333 -333.999 214c-20 75.333 -24 171 -12 287zM230.998 1149l334 291h109l266 -289l-51 -59l-283 204l-332 -204z" />
    <glyph glyph-name="Cdotaccent" unicode="&#x10a;" horiz-adv-x="1132" 
d="M125 545c0 137.333 13.0029 250.166 39.0029 338.499s55.333 162.833 88 223.5s74.667 114.334 126 161.001c114 104.667 260.333 157 439 157c129.333 0 242.666 -19 339.999 -57l-39 -328h-131l27 217c-79.333 19.333 -154.833 29 -226.5 29s-138.834 -18 -201.501 -54
s-115.334 -86.667 -158.001 -152c-84.667 -130 -127 -305.667 -127 -527c0 -282.667 134.667 -424 404 -424c102 0 209 15.667 321 47l25 -127c-76 -28.667 -174.333 -48.667 -295 -60c-36 -3.33301 -69.667 -5 -101 -5c-353.333 0 -530 187 -530 561zM723.003 1673
c1.33301 30 14.667 56.667 40 80s52 35 80 35s50.833 -9.83301 68.5 -29.5s25.5 -44.167 23.5 -73.5s-14.667 -56 -38 -80s-49.666 -36 -78.999 -36s-52.833 9.83301 -70.5 29.5s-25.834 44.5 -24.501 74.5z" />
    <glyph glyph-name="cdotaccent" unicode="&#x10b;" horiz-adv-x="911" 
d="M90 487c11.333 106.667 40.6641 204.333 87.9971 293c52 98 129.667 167.333 233 208c54 21.333 111.667 32 173 32c84.667 0 160.334 -12.333 227.001 -37c42 -15.333 63 -40 63 -74v-12c0 -30 -9.16699 -70.667 -27.5 -122s-31.5 -85.666 -39.5 -102.999l-86 6l10 192
c-41.333 15.333 -89.5 23 -144.5 23s-104 -14.333 -147 -43s-78.833 -67.334 -107.5 -116.001c-57.333 -96 -86 -217 -86 -363c0 -172 74.333 -258 223 -258c88 0 183 20.333 285 61l37 -102c-111.333 -57.333 -229.666 -86 -354.999 -86
c-183.333 0 -294.666 71.333 -333.999 214c-20 75.333 -24 171 -12 287zM540.998 1267c1.33301 29.333 13.1689 54.833 35.502 76.5s45.833 32.5 70.5 32.5s45.167 -9.16699 61.5 -27.5s23.833 -42.166 22.5 -71.499s-12.5 -55.333 -33.5 -78s-44.833 -34 -71.5 -34
s-47.834 9.66699 -63.501 29s-22.834 43.666 -21.501 72.999z" />
    <glyph glyph-name="Ccaron" unicode="&#x10c;" horiz-adv-x="1132" 
d="M125 545c0 137.333 13.0029 250.166 39.0029 338.499s55.333 162.833 88 223.5s74.667 114.334 126 161.001c114 104.667 260.333 157 439 157c129.333 0 242.666 -19 339.999 -57l-39 -328h-131l27 217c-79.333 19.333 -154.833 29 -226.5 29s-138.834 -18 -201.501 -54
s-115.334 -86.667 -158.001 -152c-84.667 -130 -127 -305.667 -127 -527c0 -282.667 134.667 -424 404 -424c102 0 209 15.667 321 47l25 -127c-76 -28.667 -174.333 -48.667 -295 -60c-36 -3.33301 -69.667 -5 -101 -5c-353.333 0 -530 187 -530 561zM512.003 1765l49 56
l285 -187l332 187l41 -62l-336 -268h-109z" />
    <glyph glyph-name="ccaron" unicode="&#x10d;" horiz-adv-x="911" 
d="M90 487c11.333 106.667 40.6641 204.333 87.9971 293c52 98 129.667 167.333 233 208c54 21.333 111.667 32 173 32c84.667 0 160.334 -12.333 227.001 -37c42 -15.333 63 -40 63 -74v-12c0 -30 -9.16699 -70.667 -27.5 -122s-31.5 -85.666 -39.5 -102.999l-86 6l10 192
c-41.333 15.333 -89.5 23 -144.5 23s-104 -14.333 -147 -43s-78.833 -67.334 -107.5 -116.001c-57.333 -96 -86 -217 -86 -363c0 -172 74.333 -258 223 -258c88 0 183 20.333 285 61l37 -102c-111.333 -57.333 -229.666 -86 -354.999 -86
c-183.333 0 -294.666 71.333 -333.999 214c-20 75.333 -24 171 -12 287zM292.998 1411l49 57l283 -204l333 202l41 -57l-335 -289h-109z" />
    <glyph glyph-name="Dcaron" unicode="&#x10e;" horiz-adv-x="1318" 
d="M31 0l14 125h137l142 1151h-129l14 127h545c338.667 0 508 -189 508 -567c0 -382.667 -119.667 -638.667 -359 -768c-84.667 -45.333 -187.667 -68 -309 -68h-563zM354 127h217c70.667 0 129.667 9.5 177 28.5s90.5 43.5 129.5 73.5s73.833 70.667 104.5 122
c68.667 114.667 103 270.667 103 468c0 188.667 -45 319 -135 391c-55.333 44 -133 66 -233 66h-221zM375 1765l49 56l285 -187l331 187l41 -62l-336 -268h-108z" />
    <glyph glyph-name="dcaron" unicode="&#x10f;" horiz-adv-x="1308" 
d="M82 312.5c0 107 10.8311 202.168 32.498 285.501s54.834 155.666 99.501 216.999s99.667 109.5 165 144.5s131.833 52.5 199.5 52.5s144.5 -13 230.5 -39l41 356l-205 31l6 82c112.667 26 204.334 39 275.001 39c38 0 63.167 -10 75.5 -30s18.5 -38.5 18.5 -55.5
s-2 -42.833 -6 -77.5l-16.5 -138l-25 -203l-31.5 -253l-73 -595c60 10.667 118.667 32 176 64l43 -66c-34 -38 -76.167 -72 -126.5 -102s-98 -45 -143 -45s-74.333 10.833 -88 32.5s-20.5 55.667 -20.5 102s7.33301 108.5 22 186.5h-8
c-100 -212.667 -228.333 -319 -385 -319c-76.667 0 -138.5 28.333 -185.5 85s-70.5 138.5 -70.5 245.5zM245.998 352.001c0 -82 13.835 -143.001 41.502 -183.001s64.167 -60 109.5 -60c95.333 0 185.666 80.667 270.999 242c31.333 59.333 62 133.333 92 222
c13.333 110 25.666 199 36.999 267c-72 28.667 -141.5 43 -208.5 43s-122.5 -18.167 -166.5 -54.5s-79.333 -81.166 -106 -134.499c-46.667 -93.333 -70 -207.333 -70 -342zM1100 1182c27.333 19.333 49.833 38.167 67.5 56.5s30.5 45.166 38.5 80.499
c-39.333 12 -59 36.5 -59 73.5s11 67.167 33 90.5s49 35 81 35s56.5 -10 73.5 -30s25.5 -44.667 25.5 -74s-6.16699 -57.666 -18.5 -84.999s-28.833 -53.333 -49.5 -78c-44.667 -52 -97.667 -92.333 -159 -121z" />
    <glyph glyph-name="Dcroat" unicode="&#x110;" horiz-adv-x="1318" 
d="M31 0l14 125h137l66 539h-129l14 96h127l64 516h-129l14 127h545c338.667 0 508 -189 508 -567c0 -382.667 -119.667 -638.667 -359 -768c-84.667 -45.333 -187.667 -68 -309 -68h-563zM354 127h217c70.667 0 129.667 9.5 177 28.5s90.5 43.5 129.5 73.5
s73.833 70.667 104.5 122c68.667 114.667 103 270.667 103 468c0 188.667 -45 319 -135 391c-55.333 44 -133 66 -233 66h-221l-64 -516h291l-12 -96h-291z" />
    <glyph glyph-name="dcroat" unicode="&#x111;" horiz-adv-x="1118" 
d="M82 309.5c0 105 10.498 197.834 31.498 278.501s52.667 151 95 211s95.333 107.667 159 143s133.334 53 209.001 53s152.5 -13 230.5 -39l8 70l8 72h-311l12 88h310l16 143l-205 31l6 82c112.667 26 204.334 39 275.001 39c38 0 63.167 -9 75.5 -27
s18.5 -40.667 18.5 -68l-21 -200h144l-13 -88h-143l-119 -969c52.667 5.33301 111.334 26.666 176.001 63.999l39 -70c-68.667 -64 -140.334 -108 -215.001 -132c-22.667 -7.33301 -48 -11 -76 -11c-55.333 0 -83 39.333 -83 118c0 57.333 7.33301 125 22 203h-8
c-100 -212.667 -228.333 -319 -385 -319c-76.667 0 -138.5 28.333 -185.5 85s-70.5 137.5 -70.5 242.5zM245.998 352.001c0 -82 13.832 -143.001 41.499 -183.001s64.167 -60 109.5 -60c94.667 0 185.334 79.667 272.001 239c32 58.667 62.333 132.334 91 221.001
c5.33301 44 11 87.167 17 129.5l18 128.5c-70 28.667 -138.667 43 -206 43s-123.333 -17.667 -168 -53s-80 -79 -106 -131c-46 -92 -69 -203.333 -69 -334z" />
    <glyph glyph-name="Emacron" unicode="&#x112;" horiz-adv-x="1142" 
d="M31 0l14 125h133l141 1151h-126l14 125h960l-39 -318h-129l25 193h-537l-59 -481l518 10l-14 -137l-518 8l-68 -551h578l24 197h133l-39 -322h-1011zM412 1530l16 131h664l-15 -131h-665z" />
    <glyph glyph-name="emacron" unicode="&#x113;" horiz-adv-x="946" 
d="M82 377c0 276 89.666 470.332 268.999 582.999c67.333 42.667 153.666 64 258.999 64c88 0 156.667 -24 206 -72c46 -45.333 69 -102 69 -170s-15.667 -124.167 -47 -168.5s-75.333 -80.833 -132 -109.5c-106.667 -54 -260 -86.667 -460 -98
c-1.33301 -8 -2 -16.667 -2 -26v-26c0 -72 10.667 -123.333 32 -154c43.333 -60.667 110.166 -91 200.499 -91s186.833 23.667 289.5 71l37 -98c-44 -27.333 -100.167 -50.166 -168.5 -68.499s-137.166 -27.5 -206.499 -27.5s-126.666 10.167 -171.999 30.5
s-80.666 48.833 -105.999 85.5c-45.333 63.333 -68 155 -68 275zM253.999 507.999c154 6.66699 271.667 29.833 353 69.5s122 99.167 122 178.5c0 40.667 -10.833 74 -32.5 100s-57.834 39 -108.501 39c-96.667 0 -173.167 -34.5 -229.5 -103.5
s-91.166 -163.5 -104.499 -283.5zM275.999 1206l17 131h647l-16 -131h-648z" />
    <glyph glyph-name="Ebreve" unicode="&#x114;" horiz-adv-x="1142" 
d="M31 0l14 125h133l141 1151h-126l14 125h960l-39 -318h-129l25 193h-537l-59 -481l518 10l-14 -137l-518 8l-68 -551h578l24 197h133l-39 -322h-1011zM416 1720l99.999 70c68 -113.333 140.333 -170 217 -170c38.667 0 72.334 6 101.001 18
c63.333 27.333 130 73.333 200 138l47 -52c-68 -86 -133.667 -146.333 -197 -181s-116.833 -52 -160.5 -52s-80 6.5 -109 19.5s-55.167 30.167 -78.5 51.5c-41.333 36 -81.333 88.667 -120 158z" />
    <glyph glyph-name="ebreve" unicode="&#x115;" horiz-adv-x="946" 
d="M82 377c0 276 89.666 470.332 268.999 582.999c67.333 42.667 153.666 64 258.999 64c88 0 156.667 -24 206 -72c46 -45.333 69 -102 69 -170s-15.667 -124.167 -47 -168.5s-75.333 -80.833 -132 -109.5c-106.667 -54 -260 -86.667 -460 -98
c-1.33301 -8 -2 -16.667 -2 -26v-26c0 -72 10.667 -123.333 32 -154c43.333 -60.667 110.166 -91 200.499 -91s186.833 23.667 289.5 71l37 -98c-44 -27.333 -100.167 -50.166 -168.5 -68.499s-137.166 -27.5 -206.499 -27.5s-126.666 10.167 -171.999 30.5
s-80.666 48.833 -105.999 85.5c-45.333 63.333 -68 155 -68 275zM253.999 507.999c154 6.66699 271.667 29.833 353 69.5s122 99.167 122 178.5c0 40.667 -10.833 74 -32.5 100s-57.834 39 -108.501 39c-96.667 0 -173.167 -34.5 -229.5 -103.5
s-91.166 -163.5 -104.499 -283.5zM288.999 1358l100.001 69c68 -113.333 140.333 -170 217 -170c85.333 0 185.666 52 300.999 156l47 -51c-68 -86 -133.667 -146.5 -197 -181.5s-116.833 -52.5 -160.5 -52.5s-80 6.5 -109 19.5s-55.5 30.5 -79.5 52.5
c-43.333 40 -83 92.667 -119 158z" />
    <glyph glyph-name="Edotaccent" unicode="&#x116;" horiz-adv-x="1142" 
d="M31 0l14 125h133l141 1151h-126l14 125h960l-39 -318h-129l25 193h-537l-59 -481l518 10l-14 -137l-518 8l-68 -551h578l24 197h133l-39 -322h-1011zM639 1661c1.33301 30 14.667 56.667 40 80s52 35 80 35s50.833 -10 68.5 -30s25.5 -44.667 23.5 -74
s-14.667 -56 -38 -80s-49.666 -36 -78.999 -36s-52.833 10 -70.5 30s-25.834 45 -24.501 75z" />
    <glyph glyph-name="edotaccent" unicode="&#x117;" horiz-adv-x="946" 
d="M82 377c0 276 89.666 470.332 268.999 582.999c67.333 42.667 153.666 64 258.999 64c88 0 156.667 -24 206 -72c46 -45.333 69 -102 69 -170s-15.667 -124.167 -47 -168.5s-75.333 -80.833 -132 -109.5c-106.667 -54 -260 -86.667 -460 -98
c-1.33301 -8 -2 -16.667 -2 -26v-26c0 -72 10.667 -123.333 32 -154c43.333 -60.667 110.166 -91 200.499 -91s186.833 23.667 289.5 71l37 -98c-44 -27.333 -100.167 -50.166 -168.5 -68.499s-137.166 -27.5 -206.499 -27.5s-126.666 10.167 -171.999 30.5
s-80.666 48.833 -105.999 85.5c-45.333 63.333 -68 155 -68 275zM253.999 507.999c154 6.66699 271.667 29.833 353 69.5s122 99.167 122 178.5c0 40.667 -10.833 74 -32.5 100s-57.834 39 -108.501 39c-96.667 0 -173.167 -34.5 -229.5 -103.5
s-91.166 -163.5 -104.499 -283.5zM507.999 1264c1.33301 30 14.667 56.5 40 79.5s52 34.5 80 34.5s50.833 -9.83301 68.5 -29.5s25.5 -44.167 23.5 -73.5s-14.667 -56 -38 -80s-49.666 -36 -78.999 -36s-52.833 10 -70.5 30s-25.834 45 -24.501 75z" />
    <glyph glyph-name="Eogonek" unicode="&#x118;" horiz-adv-x="1142" 
d="M31 0l14 124.998h133l141 1151h-126l14 125h960l-39 -318h-129l25 193h-537l-59 -481l518 10l-14 -137l-518 8l-68 -551h578l24 197h133l-39 -322h-41c-53.333 -61.333 -92.333 -128.666 -117 -201.999c-6.66699 -20.667 -10 -38.667 -10 -54
c0 -50.667 34.333 -76 103 -76c44.667 0 95.667 7.66699 153 23l7 -66c-74.667 -36.667 -145 -55 -211 -55c-123.333 0 -185 43 -185 129c0 68 30.333 139.667 91 215c22.667 28.667 52 57.334 88 86.001h-889z" />
    <glyph glyph-name="eogonek" unicode="&#x119;" horiz-adv-x="946" 
d="M82 377c0 276 89.668 470.332 269.001 582.999c67.333 42.667 153.666 64 258.999 64c88 0 156.667 -24 206 -72c46 -45.333 69 -102 69 -170s-15.667 -124.167 -47 -168.5s-75.333 -80.833 -132 -109.5c-106.667 -54 -260 -86.667 -460 -98
c-1.33301 -8 -2 -16.667 -2 -26v-26c0 -72 10.667 -123.333 32 -154c43.333 -60.667 110.166 -91 200.499 -91s186.833 23.667 289.5 71l37 -98l-33 -19c-58 -62 -98.333 -130.333 -121 -205c-6.66699 -21.333 -10 -39.666 -10 -54.999c0 -50 34 -75 102 -75
c46 0 97.333 7.33301 154 22l6 -65c-76 -37.333 -146.667 -56 -212 -56c-122 0 -183 43 -183 129c0 28.667 8.5 66 25.5 112s50.833 93.333 101.5 142c-68 -17.333 -136.5 -26 -205.5 -26s-126.167 10.167 -171.5 30.5s-80.666 48.833 -105.999 85.5
c-45.333 63.333 -68 155 -68 275zM254.001 507.999c154 6.66699 271.667 29.833 353 69.5s122 99.167 122 178.5c0 40.667 -10.833 74 -32.5 100s-57.834 39 -108.501 39c-96.667 0 -173.167 -34.5 -229.5 -103.5s-91.166 -163.5 -104.499 -283.5z" />
    <glyph glyph-name="Ecaron" unicode="&#x11a;" horiz-adv-x="1142" 
d="M31 0l14 125h133l141 1151h-126l14 125h960l-39 -318h-129l25 193h-537l-59 -481l518 10l-14 -137l-518 8l-68 -551h578l24 197h133l-39 -322h-1011zM414 1765l49 56l285 -187l331 187l41 -62l-336 -268h-108z" />
    <glyph glyph-name="ecaron" unicode="&#x11b;" horiz-adv-x="946" 
d="M82 377c0 276 89.666 470.332 268.999 582.999c67.333 42.667 153.666 64 258.999 64c88 0 156.667 -24 206 -72c46 -45.333 69 -102 69 -170s-15.667 -124.167 -47 -168.5s-75.333 -80.833 -132 -109.5c-106.667 -54 -260 -86.667 -460 -98
c-1.33301 -8 -2 -16.667 -2 -26v-26c0 -72 10.667 -123.333 32 -154c43.333 -60.667 110.166 -91 200.499 -91s186.833 23.667 289.5 71l37 -98c-44 -27.333 -100.167 -50.166 -168.5 -68.499s-137.166 -27.5 -206.499 -27.5s-126.666 10.167 -171.999 30.5
s-80.666 48.833 -105.999 85.5c-45.333 63.333 -68 155 -68 275zM253.999 507.999c154 6.66699 271.667 29.833 353 69.5s122 99.167 122 178.5c0 40.667 -10.833 74 -32.5 100s-57.834 39 -108.501 39c-96.667 0 -173.167 -34.5 -229.5 -103.5
s-91.166 -163.5 -104.499 -283.5zM267.999 1411l49 57l283 -204l334 202l41 -57l-336 -289h-109z" />
    <glyph glyph-name="Gcircumflex" unicode="&#x11c;" horiz-adv-x="1257" 
d="M125 545c0 216.667 46 405.332 138 565.999c72.667 128 180.667 218.667 324 272c74.667 28 155 42 241 42c144 0 264 -19 360 -57l-39 -324h-129l27 213c-66 19.333 -139.833 29 -221.5 29s-156 -18.333 -223 -55s-122.5 -87.667 -166.5 -153
c-90 -131.333 -135 -303.666 -135 -516.999c0 -212 65 -346.333 195 -403c48.667 -20.667 99.667 -31 153 -31c110 0 194.667 10.333 254 31l55 444h-192l14 119h451l-12 -119h-105l-67 -553c-128.667 -43.333 -262.667 -65 -402 -65c-346.667 0 -520 187 -520 561z
M453 1505l333 293h109l268 -289l-53 -59l-283 203l-331 -205z" />
    <glyph glyph-name="gcircumflex" unicode="&#x11d;" horiz-adv-x="1042" 
d="M55 -377l49.0029 119c77.333 -39.333 156.5 -59 237.5 -59s141.667 10.5 182 31.5s71.833 50.167 94.5 87.5c36 56.667 62 150 78 280l29 215c-1.33301 1.33301 -4 2 -8 2c-97.333 -208.667 -223 -313 -377 -313c-76.667 0 -138.834 28.333 -186.501 85
s-71.5 137.5 -71.5 242.5s10.833 198.833 32.5 281.5s54.167 154.667 97.5 216c93.333 134 222.666 201 387.999 201c122.667 -2.66699 240.667 -30 354 -82l9 -21c-19.333 -157.333 -39.666 -314 -60.999 -470l-62 -466c-18 -122 -54.333 -215 -109 -279
c-82.667 -95.333 -210.334 -143 -383.001 -143c-92.667 0 -190.334 24 -293.001 72zM248.003 358c0 -83.333 13.832 -144.998 41.499 -184.998s64.167 -60 109.5 -60c94.667 0 184 81.333 268 244c30.667 59.333 60.334 133.666 89.001 222.999l37 260
c-70 28.667 -138 43 -204 43s-121 -17.833 -165 -53.5s-79.333 -79.834 -106 -132.501c-46.667 -94 -70 -207 -70 -339zM260.002 1149l334 291h108l267 -289l-51 -59l-283 204l-332 -204z" />
    <glyph glyph-name="Gbreve" unicode="&#x11e;" horiz-adv-x="1257" 
d="M125 545c0 216.667 46 405.332 138 565.999c72.667 128 180.667 218.667 324 272c74.667 28 155 42 241 42c144 0 264 -19 360 -57l-39 -324h-129l27 213c-66 19.333 -139.833 29 -221.5 29s-156 -18.333 -223 -55s-122.5 -87.667 -166.5 -153
c-90 -131.333 -135 -303.666 -135 -516.999c0 -212 65 -346.333 195 -403c48.667 -20.667 99.667 -31 153 -31c110 0 194.667 10.333 254 31l55 444h-192l14 119h451l-12 -119h-105l-67 -553c-128.667 -43.333 -262.667 -65 -402 -65c-346.667 0 -520 187 -520 561z
M518 1720l100.002 69.999c68 -113.333 140.667 -170 218 -170c38 0 71.333 6 100 18c62 27.333 129 73.333 201 138l47 -52c-68 -86 -133.833 -146.333 -197.5 -181s-117.334 -52 -161.001 -52s-79.834 6.5 -108.501 19.5s-55 30.167 -79 51.5
c-38 32.667 -78 85.334 -120 158.001z" />
    <glyph glyph-name="gbreve" unicode="&#x11f;" horiz-adv-x="1042" 
d="M55 -377l49.0029 119c77.333 -39.333 156.5 -59 237.5 -59s141.667 10.5 182 31.5s71.833 50.167 94.5 87.5c36 56.667 62 150 78 280l29 215c-1.33301 1.33301 -4 2 -8 2c-97.333 -208.667 -223 -313 -377 -313c-76.667 0 -138.834 28.333 -186.501 85
s-71.5 137.5 -71.5 242.5s10.833 198.833 32.5 281.5s54.167 154.667 97.5 216c93.333 134 222.666 201 387.999 201c122.667 -2.66699 240.667 -30 354 -82l9 -21c-19.333 -157.333 -39.666 -314 -60.999 -470l-62 -466c-18 -122 -54.333 -215 -109 -279
c-82.667 -95.333 -210.334 -143 -383.001 -143c-92.667 0 -190.334 24 -293.001 72zM248.003 358c0 -83.333 13.832 -144.998 41.499 -184.998s64.167 -60 109.5 -60c94.667 0 184 81.333 268 244c30.667 59.333 60.334 133.666 89.001 222.999l37 260
c-70 28.667 -138 43 -204 43s-121 -17.833 -165 -53.5s-79.333 -79.834 -106 -132.501c-46.667 -94 -70 -207 -70 -339zM289.002 1358l100.001 69c68 -113.333 140.333 -170 217 -170c85.333 0 185.666 52 300.999 156l47 -51c-68 -86 -133.667 -146.5 -197 -181.5
s-116.833 -52.5 -160.5 -52.5s-80 6.5 -109 19.5s-55.5 30.5 -79.5 52.5c-43.333 40 -83 92.667 -119 158z" />
    <glyph glyph-name="Gdotaccent" unicode="&#x120;" horiz-adv-x="1257" 
d="M125 545c0 216.667 46 405.332 138 565.999c72.667 128 180.667 218.667 324 272c74.667 28 155 42 241 42c144 0 264 -19 360 -57l-39 -324h-129l27 213c-66 19.333 -139.833 29 -221.5 29s-156 -18.333 -223 -55s-122.5 -87.667 -166.5 -153
c-90 -131.333 -135 -303.666 -135 -516.999c0 -212 65 -346.333 195 -403c48.667 -20.667 99.667 -31 153 -31c110 0 194.667 10.333 254 31l55 444h-192l14 119h451l-12 -119h-105l-67 -553c-128.667 -43.333 -262.667 -65 -402 -65c-346.667 0 -520 187 -520 561z
M770 1659c1.33301 30 14.667 56.667 40 80s52 35 80 35s50.833 -10 68.5 -30s25.5 -44.667 23.5 -74s-14.667 -56 -38 -80s-49.666 -36 -78.999 -36s-52.833 10 -70.5 30s-25.834 45 -24.501 75z" />
    <glyph glyph-name="gdotaccent" unicode="&#x121;" horiz-adv-x="1042" 
d="M55 -377l49.0029 119c77.333 -39.333 156.5 -59 237.5 -59s141.667 10.5 182 31.5s71.833 50.167 94.5 87.5c36 56.667 62 150 78 280l29 215c-1.33301 1.33301 -4 2 -8 2c-97.333 -208.667 -223 -313 -377 -313c-76.667 0 -138.834 28.333 -186.501 85
s-71.5 137.5 -71.5 242.5s10.833 198.833 32.5 281.5s54.167 154.667 97.5 216c93.333 134 222.666 201 387.999 201c122.667 -2.66699 240.667 -30 354 -82l9 -21c-19.333 -157.333 -39.666 -314 -60.999 -470l-62 -466c-18 -122 -54.333 -215 -109 -279
c-82.667 -95.333 -210.334 -143 -383.001 -143c-92.667 0 -190.334 24 -293.001 72zM248.003 358c0 -83.333 13.832 -144.998 41.499 -184.998s64.167 -60 109.5 -60c94.667 0 184 81.333 268 244c30.667 59.333 60.334 133.666 89.001 222.999l37 260
c-70 28.667 -138 43 -204 43s-121 -17.833 -165 -53.5s-79.333 -79.834 -106 -132.501c-46.667 -94 -70 -207 -70 -339zM551.002 1264c1.33301 30 14.667 56.5 40 79.5s52 34.5 80 34.5s50.833 -9.83301 68.5 -29.5s25.5 -44.167 23.5 -73.5s-14.667 -56 -38 -80
s-49.666 -36 -78.999 -36s-52.833 10 -70.5 30s-25.834 45 -24.501 75z" />
    <glyph glyph-name="Gcommaaccent" unicode="&#x122;" horiz-adv-x="1257" 
d="M125 545c0 216.667 46 405.332 138 565.999c72.667 128 180.667 218.667 324 272c74.667 28 155 42 241 42c144 0 264 -19 360 -57l-39 -324h-129l27 213c-66 19.333 -139.833 29 -221.5 29s-156 -18.333 -223 -55s-122.5 -87.667 -166.5 -153
c-90 -131.333 -135 -303.666 -135 -516.999c0 -212 65 -346.333 195 -403c48.667 -20.667 99.667 -31 153 -31c110 0 194.667 10.333 254 31l55 444h-192l14 119h451l-12 -119h-105l-67 -553c-128.667 -43.333 -262.667 -65 -402 -65c-346.667 0 -520 187 -520 561z
M500 -416.002c27.333 19.333 49.832 38.166 67.499 56.499s30.5 45.166 38.5 80.499c-39.333 12 -59 36.5 -59 73.5s11 67.167 33 90.5s49 35 81 35s56.5 -9.83301 73.5 -29.5s25.5 -44.167 25.5 -73.5s-6.16699 -57.666 -18.5 -84.999s-29.166 -53.333 -50.499 -78
c-46 -53.333 -99 -93.666 -159 -120.999z" />
    <glyph glyph-name="gcommaaccent" unicode="&#x123;" horiz-adv-x="1042" 
d="M55 -377l49.0029 119c77.333 -39.333 156.5 -59 237.5 -59s141.667 10.5 182 31.5s71.833 50.167 94.5 87.5c36 56.667 62 150 78 280l29 215c-1.33301 1.33301 -4 2 -8 2c-97.333 -208.667 -223 -313 -377 -313c-76.667 0 -138.834 28.333 -186.501 85
s-71.5 137.5 -71.5 242.5s10.833 198.833 32.5 281.5s54.167 154.667 97.5 216c93.333 134 222.666 201 387.999 201c122.667 -2.66699 240.667 -30 354 -82l9 -21c-19.333 -157.333 -39.666 -314 -60.999 -470l-62 -466c-18 -122 -54.333 -215 -109 -279
c-82.667 -95.333 -210.334 -143 -383.001 -143c-92.667 0 -190.334 24 -293.001 72zM248.003 358c0 -83.333 13.832 -144.998 41.499 -184.998s64.167 -60 109.5 -60c94.667 0 184 81.333 268 244c30.667 59.333 60.334 133.666 89.001 222.999l37 260
c-70 28.667 -138 43 -204 43s-121 -17.833 -165 -53.5s-79.333 -79.834 -106 -132.501c-46.667 -94 -70 -207 -70 -339zM561.002 1247c0 30 6.16699 58.998 18.5 86.998s29.166 54.667 50.499 80c41.333 49.333 95.666 90 162.999 122l32 -53
c-27.333 -19.333 -50.166 -38.5 -68.499 -57.5s-31.5 -46.5 -39.5 -82.5c39.333 -9.33301 59 -32.666 59 -69.999s-11 -68.666 -33 -93.999s-49.667 -38 -83 -38s-58.166 10.167 -74.499 30.5s-24.5 45.5 -24.5 75.5z" />
    <glyph glyph-name="Hcircumflex" unicode="&#x124;" horiz-adv-x="1396" 
d="M31 0l14 127h127l141 1149h-127l15 127h422l-15 -127h-125l-59 -475h637l59 475h-123l15 127h424l-15 -127h-129l-141 -1149h127l-12 -127h-424l14 127h123l68 545h-637l-68 -545h125l-14 -127h-422zM477 1505l334 293h109l268 -289l-53 -59l-283 203l-332 -205z" />
    <glyph glyph-name="hcircumflex" unicode="&#x125;" horiz-adv-x="1165" 
d="M0 1569l334 293h108l269 -289l-54 -60l-282 203l-332 -205zM88 1360l8.00098 79.999c98.667 26 177.667 39 237 39s96.166 -5.5 110.499 -16.5s21.5 -25 21.5 -42s-1.33301 -41.667 -4 -74s-6.5 -70.666 -11.5 -114.999l-16.5 -144l-18 -151.5
c-6 -49.333 -11.833 -94.833 -17.5 -136.5s-9.83398 -74.167 -12.501 -97.5l8 -2c53.333 108.667 122.333 192.667 207 252c64.667 45.333 130 68 196 68s113.333 -19.5 142 -58.5s43 -90.5 43 -154.5s-23.333 -289.333 -70 -676c56 4 111.333 21 166 51l39 -67
c-93.333 -93.333 -180 -140 -260 -140c-42 0 -71 10 -87 30s-24 41 -24 63c0 23.333 4.66699 74.5 14 153.5l27 235c8.66699 77.667 15 137.5 19 179.5c5.33301 56.667 8 99.334 8 128.001c0 82 -30.667 123 -92 123c-58.667 0 -119.667 -34.333 -183 -103
c-76.667 -84.667 -138.667 -203.334 -186 -356.001l-59 -428h-164c6.66699 56 14.834 121.167 24.501 195.5l30 236.5l30.5 254l28.5 249l25 222.5l19.5 171.5z" />
    <glyph glyph-name="Hbar" unicode="&#x126;" horiz-adv-x="1396" 
d="M31 0l14 127h127l107 858h-136l13 90h133l24 201h-127l15 127h422l-15 -127h-125l-24 -201h637l24 201h-123l15 127h424l-15 -127h-129l-24 -201h123l-9 -90h-127l-104 -858h127l-12 -127h-424l14 127h123l68 543h-637l-68 -543h125l-14 -127h-422zM424 788h637l24 197
h-636z" />
    <glyph glyph-name="hbar" unicode="&#x127;" horiz-adv-x="1165" 
d="M88 1360l8 80c98.667 26 177.667 39 237 39s96.166 -5.5 110.499 -16.5s21.5 -31.667 21.5 -62s-7 -95.166 -21 -194.499h353l-13 -86h-348l-16 -128.5l-15.5 -124l-13.5 -106.5c-4 -32 -7.33301 -57 -10 -75h8c52.667 108 122 191.333 208 250
c66 45.333 131.833 68 197.5 68s112.834 -19.5 141.501 -58.5s43 -90.667 43 -155s-22.667 -284.166 -68 -659.499c56 4 111.333 21 166 51l39 -67c-93.333 -93.333 -180 -140 -260 -140c-42 0 -71 10 -87 30s-24 41 -24 63c0 23.333 3.5 64.5 10.5 123.5l21.5 186
c7.33301 65 13.166 119 17.499 162l10.5 102.5c2.66699 25.333 4.33398 45.166 5.00098 59.499s1 24.833 1 31.5v21c0 77.333 -30.667 116 -92 116c-58.667 0 -119.667 -34.333 -183 -103c-77.333 -84.667 -139.333 -203 -186 -355l-55 -412h-164l29.5 240.5l35.5 293.5
c21.333 171.333 44 366.666 68 585.999h-147l10 86h147l13 123z" />
    <glyph glyph-name="Itilde" unicode="&#x128;" horiz-adv-x="700" 
d="M88 0l14 125h125l142 1151h-125l14 127h422l-14 -127h-129l-142 -1151h129l-14 -125h-422zM154 1591c23.333 48 51.6709 85.665 85.0039 112.998s65.666 41 96.999 41s59.666 -4.16699 84.999 -12.5s49.666 -17.166 72.999 -26.499c66 -26 109.667 -39 131 -39l123 80
l47 -45c-19.333 -45.333 -45.833 -82.666 -79.5 -111.999s-67.834 -44 -102.501 -44s-65 4.16699 -91 12.5s-50 17.5 -72 27.5c-57.333 26.667 -98 40 -122 40l-123 -80z" />
    <glyph glyph-name="itilde" unicode="&#x129;" horiz-adv-x="598" 
d="M14 1225c23.333 48 51.833 85.5 85.5 112.5s66.167 40.5 97.5 40.5s59.5 -4 84.5 -12s49.5 -16.667 73.5 -26c65.333 -26.667 108.666 -40 129.999 -40l123 80l47 -45c-19.333 -45.333 -45.666 -82.5 -78.999 -111.5s-67.333 -43.5 -102 -43.5s-65 4 -91 12
s-50.333 17.333 -73 28c-59.333 26.667 -100 40 -122 40l-122 -80zM92 901l6 82c110 26 188 39 234 39s75.833 -5.5 89.5 -16.5s20.5 -28.167 20.5 -51.5l-102 -823c57.333 4 114 21 170 51l39 -67c-45.333 -46.667 -91.5 -81.667 -138.5 -105s-90.5 -35 -130.5 -35
c-70.667 0 -106 38.333 -106 115c0 15.333 1.33301 32.333 4 51l92 729z" />
    <glyph glyph-name="Imacron" unicode="&#x12a;" horiz-adv-x="700" 
d="M88 0l14 125h125l142 1151h-125l14 127h422l-14 -127h-129l-142 -1151h129l-14 -125h-422zM137 1530l17 131h663l-14 -131h-666z" />
    <glyph glyph-name="imacron" unicode="&#x12b;" horiz-adv-x="628" 
d="M6 1206l17 131h647l-17 -131h-647zM92 901l6 82c110 26 188 39 234 39s75.833 -5.5 89.5 -16.5s20.5 -28.167 20.5 -51.5l-102 -823c57.333 4 114 21 170 51l39 -67c-45.333 -46.667 -91.5 -81.667 -138.5 -105s-90.5 -35 -130.5 -35c-70.667 0 -106 38.333 -106 115
c0 15.333 1.33301 32.333 4 51l92 729z" />
    <glyph glyph-name="Ibreve" unicode="&#x12c;" horiz-adv-x="700" 
d="M88 0l14 125h125l142 1151h-125l14 127h422l-14 -127h-129l-142 -1151h129l-14 -125h-422zM176 1726l100.002 69.999c68 -113.333 140.667 -170 218 -170c38 0 71.333 6 100 18c62 27.333 129 73.333 201 138l47 -51c-68 -86 -133.833 -146.5 -197.5 -181.5
s-117.334 -52.5 -161.001 -52.5s-79.834 6.5 -108.501 19.5s-55 30.167 -79 51.5c-38 32.667 -78 85.334 -120 158.001z" />
    <glyph glyph-name="ibreve" unicode="&#x12d;" horiz-adv-x="643" 
d="M18 1358l101.003 68.999c68 -113.333 140.333 -170 217 -170c83.333 0 183.666 52 300.999 156l47 -51c-68 -86 -133.833 -146.5 -197.5 -181.5s-117.334 -52.5 -161.001 -52.5s-79.834 6.5 -108.501 19.5s-55 30.5 -79 52.5c-40 36.667 -80 89.334 -120 158.001z
M92.0029 900.999l6 82c110 26 188 39 234 39s75.833 -5.5 89.5 -16.5s20.5 -28.167 20.5 -51.5l-102 -823c57.333 4 114 21 170 51l39 -67c-45.333 -46.667 -91.5 -81.667 -138.5 -105s-90.5 -35 -130.5 -35c-70.667 0 -106 38.333 -106 115c0 15.333 1.33301 32.333 4 51
l92 729z" />
    <glyph glyph-name="Iogonek" unicode="&#x12e;" horiz-adv-x="700" 
d="M72 -299c0 34 11.834 78.001 35.501 132.001s70.5 109.667 140.5 167h-160l14 125h125l142 1151h-125l14 127h422l-14 -127h-129l-142 -1151h129l-14 -125h-180c-35.333 -40.667 -65 -85.334 -89 -134.001s-36 -88.667 -36 -120c0 -50.667 34 -76 102 -76
c43.333 0 94.666 7.66699 153.999 23l6 -66c-74.667 -36.667 -145 -55 -211 -55c-122.667 0 -184 43 -184 129z" />
    <glyph glyph-name="iogonek" unicode="&#x12f;" horiz-adv-x="598" 
d="M92 901l6 82.001c110 26 188 39 234 39s75.833 -5.5 89.5 -16.5s20.5 -28.167 20.5 -51.5l-102 -823c57.333 4 114 21 170 51l39 -67c-54.667 -54.667 -107.334 -93 -158.001 -115c-34 -39.333 -62.333 -82.333 -85 -129s-34 -85 -34 -115c0 -50 34.333 -75 103 -75
c47.333 0 98.333 7.33301 153 22l7 -65c-76 -37.333 -146.667 -56 -212 -56c-122.667 0 -184 43 -184 129c0 30 9.33301 68.667 28 116s55 96.666 109 147.999c-39.333 2.66699 -66.166 14.667 -80.499 36s-21.5 41.666 -21.5 60.999c0 28.667 1.33301 52.334 4 71.001
l92 727zM270 1254c0 30.667 11.001 57.999 33.001 81.999s47.667 36 77 36s53.166 -9.5 71.499 -28.5s27.5 -43.167 27.5 -72.5s-10.5 -56 -31.5 -80s-46.5 -36 -76.5 -36s-54.333 8.83301 -73 26.5s-28 41.834 -28 72.501z" />
    <glyph glyph-name="Idotaccent" unicode="&#x130;" horiz-adv-x="700" 
d="M88 0l14 125h125l142 1151h-125l14 127h422l-14 -127h-129l-142 -1151h129l-14 -125h-422zM389 1657c1.33301 30 14.667 56.667 40 80s52 35 80 35s50.833 -10 68.5 -30s25.5 -44.667 23.5 -74s-14.667 -56 -38 -80s-49.666 -36 -78.999 -36s-52.833 10 -70.5 30
s-25.834 45 -24.501 75z" />
    <glyph glyph-name="dotlessi" unicode="&#x131;" horiz-adv-x="598" 
d="M92 901l6 82c110 26 188 39 234 39s75.833 -5.5 89.5 -16.5s20.5 -28.167 20.5 -51.5l-102 -823c57.333 4 114 21 170 51l39 -67c-45.333 -46.667 -91.5 -81.667 -138.5 -105s-90.5 -35 -130.5 -35c-70.667 0 -106 38.333 -106 115c0 15.333 1.33301 32.333 4 51l92 729z
" />
    <glyph glyph-name="IJ" unicode="&#x132;" horiz-adv-x="1409" 
d="M88 0l14 125h125l142 1151h-125l14 127h422l-14 -127h-129l-142 -1151h129l-14 -125h-422zM567 -244c138.667 54 238.001 121 298.001 201c48 64 81.333 161.667 100 293l127 1026h-203l14 127h553l-14 -127h-180l-125 -1002c-22 -180.667 -73 -319 -153 -415
c-86.667 -104.667 -215.334 -177.667 -386.001 -219z" />
    <glyph glyph-name="ij" unicode="&#x133;" horiz-adv-x="1105" 
d="M92 901l6 81.999c110 26 188 39 234 39s75.833 -5.5 89.5 -16.5s20.5 -28.167 20.5 -51.5l-102 -823c57.333 4 114 21 170 51l39 -67c-45.333 -46.667 -91.5 -81.667 -138.5 -105s-90.5 -35 -130.5 -35c-70.667 0 -106 38.333 -106 115c0 16.667 1.33301 34.334 4 53.001
l92 727zM270 1254c0 30.667 11.001 57.999 33.001 81.999s47.667 36 77 36s53.166 -9.5 71.499 -28.5s27.5 -43.167 27.5 -72.5s-10.5 -56 -31.5 -80s-46.5 -36 -76.5 -36s-54.333 8.83301 -73 26.5s-28 41.834 -28 72.501zM444.001 -352.002
c149.333 66 240 183.997 272 353.997c10 50.667 18.333 103.334 25 158.001l74 710l-178 31l8 82c110 26 195.167 39 255.5 39s90.5 -22.667 90.5 -68c0 -1.33301 -2 -19.666 -6 -54.999s-8.66699 -80 -14 -134s-11.5 -112.333 -18.5 -175l-19.5 -180
c-6 -57.333 -11.5 -107.166 -16.5 -149.499l-15.5 -132.5c-5.33301 -46 -16.833 -103 -34.5 -171s-43.167 -129.333 -76.5 -184c-72 -116 -178.333 -190.667 -319 -224zM815.001 1254c0 30.667 11 57.999 33 81.999s47.667 36 77 36s53.166 -9.5 71.499 -28.5
s27.5 -43.167 27.5 -72.5s-10.5 -56 -31.5 -80s-46.667 -36 -77 -36s-54.666 8.83301 -72.999 26.5s-27.5 41.834 -27.5 72.501z" />
    <glyph glyph-name="Jcircumflex" unicode="&#x134;" horiz-adv-x="802" 
d="M-131 -242c138.667 54 238 121 298 201c48.667 65.333 81.667 163 99 293l127 1026h-203l15 127h553l-15 -127h-180l-125 -1002c-22 -180.667 -72.667 -319 -152 -415c-87.333 -105.333 -216 -178.333 -386 -219zM133 1505l334 293h108l269 -289l-53 -59l-283 203
l-332 -205z" />
    <glyph glyph-name="jcircumflex" unicode="&#x135;" horiz-adv-x="602" 
d="M-109 -352c150.667 66.667 241.667 184.664 273 353.997c9.33301 50.667 17.333 103.334 24 158.001l74 710l-176 31l6 82c110 26 195.167 39 255.5 39s90.5 -22.667 90.5 -68c0 -1.33301 -2 -19.666 -6 -54.999s-8.66699 -80 -14 -134s-11.5 -112.333 -18.5 -175
l-19.5 -180c-6 -57.333 -11.5 -107.166 -16.5 -149.499l-15.5 -132.5c-5.33301 -46 -16.833 -103 -34.5 -171s-43.5 -129.333 -77.5 -184c-71.333 -116 -177.333 -190.667 -318 -224zM-25 1149l334 291h109l266 -289l-51 -59l-283 204l-332 -204z" />
    <glyph glyph-name="Kcommaaccent" unicode="&#x136;" horiz-adv-x="1280" 
d="M31 0l14 127h127l141 1149h-127l15 125h420l-15 -125h-127l-65 -526l592 526l-121 -2l14 127h426l-14 -127h-113l-483 -424l399 -721h115l-15 -129h-428l15 129h129l-340 619l-197 -175l-55 -446h127l-14 -127h-420zM451 -416c27.333 19.333 49.832 38.167 67.499 56.5
s30.5 45.166 38.5 80.499c-39.333 12 -59 36.5 -59 73.5s10.833 67.167 32.5 90.5s48.5 35 80.5 35s56.667 -9.83301 74 -29.5s26 -44.167 26 -73.5s-6.16699 -57.666 -18.5 -84.999s-29.166 -53.333 -50.499 -78c-45.333 -52 -98.333 -92.333 -159 -121z" />
    <glyph glyph-name="kcommaaccent" unicode="&#x137;" horiz-adv-x="958" 
d="M41 1356l5.99805 80.001c111.333 32.667 191.333 49 240 49s79.834 -7.83301 93.501 -23.5s19.167 -35.834 16.5 -60.501c-9.33301 -76.667 -18.833 -149.167 -28.5 -217.5l-27.5 -200.5c-8.66699 -65.333 -17.834 -130.833 -27.501 -196.5
s-19.167 -133.834 -28.5 -204.501h6c67.333 116.667 145 216 233 298c102.667 94.667 195 142 277 142c34 0 62.667 -10.667 86 -32s40.333 -49.666 51 -84.999l-57 -59c-98.667 47.333 -191.667 34.333 -279 -39c-33.333 -28 -79 -78 -137 -150
c36.667 -78 81 -164.667 133 -260c88 -161.333 143.333 -253.333 166 -276c44.667 12 96.667 39.333 156 82l49 -58c-81.333 -112 -159.333 -168 -234 -168c-32.667 0 -61.667 10 -87 30s-51.333 51.667 -78 95c-28.667 47.333 -98 188 -208 422
c-49.333 -66 -85.333 -128.667 -108 -188c-5.33301 -31.333 -9.66602 -60 -12.999 -86s-7 -51.667 -11 -77c-4 -28 -11 -85.667 -21 -173h-164c62.667 430.667 121.334 875 176.001 1333zM259.998 -415.999c27.333 19.333 49.8311 38.167 67.498 56.5
s30.834 45.166 39.501 80.499c-39.333 12 -59.166 36.5 -59.499 73.5s10.5 67.167 32.5 90.5s49 35 81 35s56.5 -9.83301 73.5 -29.5s25.5 -44.167 25.5 -73.5s-6.16699 -57.666 -18.5 -84.999s-28.833 -53.333 -49.5 -78c-44.667 -52 -97.667 -92.333 -159 -121z" />
    <glyph glyph-name="kgreenlandic" unicode="&#x138;" horiz-adv-x="1038" 
d="M61 893l7.00293 79.999c111.333 32.667 199.166 49 263.499 49s93.166 -28 86.499 -84l-51 -356h6c67.333 116.667 145 216 233 298c102.667 94.667 195 142 277 142c34 0 62.667 -10.667 86 -32s40.333 -49.666 51 -84.999l-57 -59
c-98.667 47.333 -191.667 34.333 -279 -39c-33.333 -28 -79 -78 -137 -150c79.333 -167.333 146.166 -295.833 200.499 -385.5s87.166 -139.834 98.499 -150.501c46.667 12.667 98.334 40 155.001 82l50 -58c-81.333 -112 -159.333 -168 -234 -168
c-32.667 0 -61.667 10 -87 30s-51.333 51.667 -78 95c-28.667 47.333 -98 188 -208 422c-49.333 -66 -85.333 -128.667 -108 -188c-12 -69.333 -27 -181.333 -45 -336h-164c9.33301 72.667 18.833 140.334 28.5 203.001l28.5 193c16.667 124.667 36 282.667 58 474z" />
    <glyph glyph-name="Lacute" unicode="&#x139;" horiz-adv-x="1099" 
d="M31 0l14 125h133l141 1151h-126l14 125h442l-16 -125h-144l-143 -1151h561l31 250h133l-45 -375h-995zM373 1552l364 240l72 -127l-391 -186z" />
    <glyph glyph-name="lacute" unicode="&#x13a;" horiz-adv-x="571" 
d="M90 1362l5.99805 80.001c101.333 26 180.333 39 237 39s92.5 -5.16699 107.5 -15.5s22.5 -25.5 22.5 -45.5s-3.16699 -57.5 -9.5 -112.5l-23.5 -201.5l-31.5 -258l-34 -274.5l-32 -252c-10.333 -77.667 -18.166 -141.167 -23.499 -190.5c58.667 4 114.667 21 168 51
l39 -67c-45.333 -46.667 -91.166 -81.667 -137.499 -105s-88.5 -35 -126.5 -35c-72.667 0 -109 37.667 -109 113c0 15.333 1.33301 33.666 4 54.999l144 1188zM249.998 1608l364 239l72 -127l-391 -186z" />
    <glyph glyph-name="Lcommaaccent" unicode="&#x13b;" horiz-adv-x="1099" 
d="M31 0l14 125h133l141 1151h-126l14 125h442l-16 -125h-144l-143 -1151h561l31 250h133l-45 -375h-995zM375 -416c27.333 19.333 49.832 38.167 67.499 56.5s30.5 45.166 38.5 80.499c-39.333 12 -59 36.5 -59 73.5s11 67.167 33 90.5s49 35 81 35
s56.5 -9.83301 73.5 -29.5s25.5 -44.167 25.5 -73.5s-6.16699 -57.666 -18.5 -84.999s-29.166 -53.333 -50.499 -78c-44 -52 -96.667 -92.333 -158 -121z" />
    <glyph glyph-name="lcommaaccent" unicode="&#x13c;" horiz-adv-x="571" 
d="M74 -416c27.333 19.333 49.832 38.166 67.499 56.499s30.5 45.166 38.5 80.499c-39.333 12 -59 36.5 -59 73.5s11 67.167 33 90.5s49 35 81 35s56.5 -9.83301 73.5 -29.5s25.5 -44.167 25.5 -73.5s-6.16699 -57.666 -18.5 -84.999s-29.166 -53.333 -50.499 -78
c-46 -53.333 -99 -93.666 -159 -120.999zM89.999 1362l5.99805 80.001c101.333 26 180.333 39 237 39s92.5 -5.16699 107.5 -15.5s22.5 -25.5 22.5 -45.5s-3.16699 -57.5 -9.5 -112.5l-23.5 -201.5l-31.5 -258l-34 -274.5l-32 -252
c-10.333 -77.667 -18.166 -141.167 -23.499 -190.5c58.667 4 114.667 21 168 51l39 -67c-45.333 -46.667 -91.166 -81.667 -137.499 -105s-88.5 -35 -126.5 -35c-72.667 0 -109 37.667 -109 113c0 15.333 1.33301 33.666 4 54.999l144 1188z" />
    <glyph glyph-name="Lcaron" unicode="&#x13d;" horiz-adv-x="1099" 
d="M31 0l14 125h133l141 1151h-126l14 125h442l-16 -125h-144l-143 -1151h561l31 250h133l-45 -375h-995zM762 1047c27.333 19.333 49.833 37.999 67.5 55.999s30.5 45 38.5 81c-39.333 12 -59 36.5 -59 73.5s11 67 33 90s49 34.5 81 34.5s56.5 -9.83301 73.5 -29.5
s25.5 -44.167 25.5 -73.5s-6.16699 -57.666 -18.5 -84.999s-28.833 -53.333 -49.5 -78c-44.667 -52 -97.667 -92.333 -159 -121z" />
    <glyph glyph-name="lcaron" unicode="&#x13e;" horiz-adv-x="772" 
d="M90 1362l5.99805 80.001c101.333 26 180.333 39 237 39s92.5 -5.16699 107.5 -15.5s22.5 -25.5 22.5 -45.5s-3.16699 -57.5 -9.5 -112.5l-23.5 -201.5l-31.5 -258l-34 -274.5l-32 -252c-10.333 -77.667 -18.166 -141.167 -23.499 -190.5c58.667 4 114.667 21 168 51
l39 -67c-45.333 -46.667 -91.166 -81.667 -137.499 -105s-88.5 -35 -126.5 -35c-72.667 0 -109 37.667 -109 113c0 15.333 1.33301 33.666 4 54.999l144 1188zM540.998 1147c27.333 19.333 49.832 38.167 67.499 56.5s30.5 45.166 38.5 80.499c-39.333 12 -59 36.5 -59 73.5
s11 67.167 33 90.5s49 35 81 35s56.5 -10 73.5 -30s25.5 -44.667 25.5 -74s-6.16699 -57.666 -18.5 -84.999s-29.166 -53.333 -50.499 -78c-48 -54 -101 -94 -159 -120z" />
    <glyph glyph-name="Ldot" unicode="&#x13f;" horiz-adv-x="1099" 
d="M31 0l14 125h133l141 1151h-126l14 125h442l-16 -125h-144l-143 -1151h561l31 250h133l-45 -375h-995zM715 784c1.33301 30 14.667 56.667 40 80s52 35 80 35s50.833 -9.83301 68.5 -29.5s25.5 -44.167 23.5 -73.5s-14.667 -56 -38 -80s-49.666 -36 -78.999 -36
s-52.833 9.83301 -70.5 29.5s-25.834 44.5 -24.501 74.5z" />
    <glyph glyph-name="ldot" unicode="&#x140;" horiz-adv-x="696" 
d="M90 1362l5.99805 80.001c101.333 26 180.333 39 237 39s92.5 -5.16699 107.5 -15.5s22.5 -25.5 22.5 -45.5s-3.16699 -57.5 -9.5 -112.5l-23.5 -201.5l-31.5 -258l-34 -274.5l-32 -252c-10.333 -77.667 -18.166 -141.167 -23.499 -190.5c58.667 4 114.667 21 168 51
l39 -67c-45.333 -46.667 -91.166 -81.667 -137.499 -105s-88.5 -35 -126.5 -35c-72.667 0 -109 37.667 -109 113c0 15.333 1.33301 33.666 4 54.999l144 1188zM542.998 713.001c1.33301 30 14.667 56.5 40 79.5s52 34.5 80 34.5s50.833 -9.83301 68.5 -29.5
s25.5 -44.167 23.5 -73.5s-14.667 -56 -38 -80s-49.666 -36 -78.999 -36s-52.833 10 -70.5 30s-25.834 45 -24.501 75z" />
    <glyph glyph-name="Lslash" unicode="&#x141;" horiz-adv-x="1099" 
d="M27 494l211 116l81 666h-126l14 125h442l-16 -125h-144l-69 -565l262 145l43 -86l-319 -178l-60 -467h561l31 250h133l-45 -375h-995l14 125h133l45 364l-155 -86z" />
    <glyph glyph-name="lslash" unicode="&#x142;" horiz-adv-x="571" 
d="M-25 586l239.998 133.001l76 612l-201 31l6 80c101.333 26 180.333 39 237 39s92.5 -5.16699 107.5 -15.5s22.5 -24.333 22.5 -42s-1.66699 -45 -5 -82s-8 -82.5 -14 -136.5c-19.333 -163.333 -35.666 -292 -48.999 -386l193 105l43 -86l-252 -140
c-30 -222.667 -53.333 -411.667 -70 -567c58.667 4 114.667 21 168 51l39 -67c-45.333 -46.667 -91.166 -81.667 -137.499 -105s-88.5 -35 -126.5 -35c-72.667 0 -109 37.667 -109 113c0 15.333 1.33301 33.666 4 54.999l54 455l-183 -102z" />
    <glyph glyph-name="Nacute" unicode="&#x143;" horiz-adv-x="1462" 
d="M29 0l14 127h135l71 573.5l70 575.5h-135l17 125h313l430 -875l59.5 -122.5l59.5 -124.5h10l123 997h-139l14 125h428l-14 -125h-129l-158 -1276h-160l-228.5 459.5l-236.5 472.5l-106 221l-6 -2l-125 -1024h139l-14 -127h-432zM700 1552l365 240l72 -127l-392 -186z" />
    <glyph glyph-name="nacute" unicode="&#x144;" horiz-adv-x="1171" 
d="M61 899l6.99805 82.001c100 26 178.5 39 235.5 39s91.333 -5.5 103 -16.5s17.5 -40.5 17.5 -88.5s-9.66699 -122.333 -29 -223h8c58 115.333 129 201.333 213 258c68 45.333 125.667 68 173 68s84 -6.16699 110 -18.5s46.333 -28.833 61 -49.5c26 -38.667 39 -88 39 -148
s-23 -284.333 -69 -673c54.667 4 109.334 21 164.001 51l39 -67c-48 -48 -97.333 -82.167 -148 -102.5s-93 -30.5 -127 -30.5c-62.667 0 -94 35.333 -94 106v24c0 10 4.5 50.167 13.5 120.5s17.5 144.333 25.5 222s14 138.167 18 181.5
c6.66699 71.333 10 119.666 10 144.999s-7.16699 49.333 -21.5 72s-36.5 34 -66.5 34s-60.667 -8.5 -92 -25.5s-63.666 -44.167 -96.999 -81.5c-75.333 -83.333 -137 -202 -185 -356l-58 -422h-161c49.333 376.667 85.333 666 108 868zM488.998 1159l279 338l102 -102
l-317 -293z" />
    <glyph glyph-name="Ncommaaccent" unicode="&#x145;" horiz-adv-x="1462" 
d="M29 0l14 127h135l71 573.5l70 575.5h-135l17 125h313l430 -875l59.5 -122.5l59.5 -124.5h10l123 997h-139l14 125h428l-14 -125h-129l-158 -1276h-160l-228.5 459.5l-236.5 472.5l-106 221l-6 -2l-125 -1024h139l-14 -127h-432zM520 -416
c27.333 19.333 49.8311 38.167 67.498 56.5s30.834 45.166 39.501 80.499c-39.333 12 -59.166 36.5 -59.499 73.5s10.5 67.167 32.5 90.5s49 35 81 35s56.5 -9.83301 73.5 -29.5s25.5 -44.167 25.5 -73.5s-6.16699 -57.666 -18.5 -84.999s-28.833 -53.333 -49.5 -78
c-44.667 -52 -97.667 -92.333 -159 -121z" />
    <glyph glyph-name="ncommaaccent" unicode="&#x146;" horiz-adv-x="1171" 
d="M61 899l6.99805 82.001c100 26 178.5 39 235.5 39s91.333 -5.5 103 -16.5s17.5 -40.5 17.5 -88.5s-9.66699 -122.333 -29 -223h8c58 115.333 129 201.333 213 258c68 45.333 125.667 68 173 68s84 -6.16699 110 -18.5s46.333 -28.833 61 -49.5c26 -38.667 39 -88 39 -148
s-23 -284.333 -69 -673c54.667 4 109.334 21 164.001 51l39 -67c-48 -48 -97.333 -82.167 -148 -102.5s-93 -30.5 -127 -30.5c-62.667 0 -94 35.333 -94 106v24c0 10 4.5 50.167 13.5 120.5s17.5 144.333 25.5 222s14 138.167 18 181.5
c6.66699 71.333 10 119.666 10 144.999s-7.16699 49.333 -21.5 72s-36.5 34 -66.5 34s-60.667 -8.5 -92 -25.5s-63.666 -44.167 -96.999 -81.5c-75.333 -83.333 -137 -202 -185 -356l-58 -422h-161c49.333 376.667 85.333 666 108 868zM368.998 -415.999
c27.333 19.333 49.832 38.167 67.499 56.5s30.5 45.166 38.5 80.499c-39.333 12 -59 36.5 -59 73.5s10.833 67.167 32.5 90.5s48.5 35 80.5 35s56.667 -9.83301 74 -29.5s26 -44.167 26 -73.5s-6.16699 -57.666 -18.5 -84.999s-29.166 -53.333 -50.499 -78
c-45.333 -52 -98.333 -92.333 -159 -121z" />
    <glyph glyph-name="Ncaron" unicode="&#x147;" horiz-adv-x="1462" 
d="M29 0l14 127h135l71 573.5l70 575.5h-135l17 125h313l430 -875l59.5 -122.5l59.5 -124.5h10l123 997h-139l14 125h428l-14 -125h-129l-158 -1276h-160l-228.5 459.5l-236.5 472.5l-106 221l-6 -2l-125 -1024h139l-14 -127h-432zM508 1765l49 56l285 -187l332 187l40 -62
l-335 -268h-109z" />
    <glyph glyph-name="ncaron" unicode="&#x148;" horiz-adv-x="1171" 
d="M61 899l6.99805 82.001c100 26 178.5 39 235.5 39s91.333 -5.5 103 -16.5s17.5 -40.5 17.5 -88.5s-9.66699 -122.333 -29 -223h8c58 115.333 129 201.333 213 258c68 45.333 125.667 68 173 68s84 -6.16699 110 -18.5s46.333 -28.833 61 -49.5c26 -38.667 39 -88 39 -148
s-23 -284.333 -69 -673c54.667 4 109.334 21 164.001 51l39 -67c-48 -48 -97.333 -82.167 -148 -102.5s-93 -30.5 -127 -30.5c-62.667 0 -94 35.333 -94 106v24c0 10 4.5 50.167 13.5 120.5s17.5 144.333 25.5 222s14 138.167 18 181.5
c6.66699 71.333 10 119.666 10 144.999s-7.16699 49.333 -21.5 72s-36.5 34 -66.5 34s-60.667 -8.5 -92 -25.5s-63.666 -44.167 -96.999 -81.5c-75.333 -83.333 -137 -202 -185 -356l-58 -422h-161c49.333 376.667 85.333 666 108 868zM267.998 1411l49 57l283 -204l334 202
l41 -57l-336 -289h-109z" />
    <glyph glyph-name="napostrophe" unicode="&#x149;" horiz-adv-x="1337" 
d="M4 1020c27.333 19.333 49.8311 38.167 67.498 56.5s30.834 45.166 39.501 80.499c-39.333 12 -59.166 36.5 -59.499 73.5s10.5 67.167 32.5 90.5s49 35 81 35s56.5 -10 73.5 -30s25.5 -44.667 25.5 -74s-6.16699 -57.666 -18.5 -84.999s-28.833 -53 -49.5 -77
c-47.333 -54.667 -100.333 -95 -159 -121zM226.998 899.001l5.99707 82c100 26 178.667 39 236 39s91.833 -5.5 103.5 -16.5s17.5 -38.667 17.5 -83s-9.66699 -120.5 -29 -228.5h8c58 116 129 202 213 258c68 45.333 125.667 68 173 68s84 -6.16699 110 -18.5
s46.333 -28.833 61 -49.5c26 -38.667 39 -88 39 -148s-23 -284.333 -69 -673c54.667 4 109.334 21 164.001 51c4.66699 -7.33301 17.334 -29.666 38.001 -66.999c-48 -48 -97.167 -82.167 -147.5 -102.5s-92.5 -30.5 -126.5 -30.5c-62.667 0 -94 35.333 -94 106v24
c0 10 4.5 50.167 13.5 120.5s17.5 144.333 25.5 222s14 138.167 18 181.5c6.66699 71.333 10 119.666 10 144.999s-7.16699 49.333 -21.5 72s-36.5 34 -66.5 34s-60.667 -8.5 -92 -25.5s-63.666 -44.167 -96.999 -81.5c-77.333 -85.333 -139 -204 -185 -356l-58 -422h-162
c46 350 82.333 639.333 109 868z" />
    <glyph glyph-name="Eng" unicode="&#x14a;" horiz-adv-x="1462" 
d="M29 0l13.9971 126.999h135l135 1149h-133l15 125h309l61 -122l100.5 -198.5l120 -237.5l118.5 -239c76.667 -151.333 129.667 -258.333 159 -321h8l119 993h-135c2.66699 42.667 6.66699 84.334 12 125.001h428l-14 -125h-129l-154 -1337
c-13.333 -118.667 -47.666 -202.667 -102.999 -252s-131.666 -74 -228.999 -74c-50 0 -120.333 8.33301 -211 25l31 124c62.667 -10.667 119 -16 169 -16s90.333 11 121 33s49.334 61 56.001 117l12 104l-235.5 466l-186.5 372l-159 315h-6l-60.5 -514l-60.5 -512h139
l-14 -127h-432z" />
    <glyph glyph-name="eng" unicode="&#x14b;" horiz-adv-x="1091" 
d="M63 901l4.99609 79.998c92.667 27.333 182 41 268 41c61.333 0 92 -23.333 92 -70c0 -36.667 -10.333 -123.334 -31 -260.001h9c57.333 117.333 128 204 212 260c68 45.333 130.333 68 187 68c129.333 0 194 -71 194 -213c0 -71.333 -27 -337 -81 -797
c-12 -102.667 -48.5 -183.667 -109.5 -243s-145.5 -89 -253.5 -89c-56 0 -115.333 7.66699 -178 23l20 117c46.667 -5.33301 97.334 -8 152.001 -8c118 0 185 64 201 192c12 108 22.833 200.833 32.5 278.5s17.5 143.834 23.5 198.501s10.667 99.167 14 133.5l8 83.5
c4 41.333 6 71.833 6 91.5s-7.16699 40.834 -21.5 63.501s-36.666 34 -66.999 34s-61.166 -8.16699 -92.499 -24.5s-63.666 -43.166 -96.999 -80.499c-75.333 -83.333 -137 -202 -185 -356l-58 -424h-163c37.333 270 73.333 560 108 870z" />
    <glyph glyph-name="Omacron" unicode="&#x14c;" horiz-adv-x="1347" 
d="M125 532c0 244.667 50.999 448.001 152.999 610.001c53.333 84 122.5 151.833 207.5 203.5s180.667 77.5 287 77.5s191.5 -15 255.5 -45s115.333 -70.667 154 -122c70.667 -96 106 -231.333 106 -406c0 -250.667 -55.333 -455.334 -166 -614.001
c-117.333 -168 -277.666 -252 -480.999 -252c-344 0 -516 182.667 -516 548zM296.999 530.001c0 -136.667 27.334 -239.667 82.001 -309s143.334 -104 266.001 -104c156 0 276.333 75 361 225c72 128 108 298.667 108 512c0 132.667 -21.333 234 -64 304
c-24 40.667 -57.333 73.167 -100 97.5s-103.834 36.5 -183.501 36.5s-150.834 -23.167 -213.501 -69.5s-113 -106.5 -151 -180.5c-70 -133.333 -105 -304 -105 -512zM489 1530l17 131h663l-14 -131h-666z" />
    <glyph glyph-name="omacron" unicode="&#x14d;" horiz-adv-x="1015" 
d="M82 377c0 170 37.3311 313.667 111.998 431c40 62 91.833 112.833 155.5 152.5s135.334 59.5 215.001 59.5s143.334 -11 191.001 -33s86.167 -51.667 115.5 -89c55.333 -70.667 83 -166 83 -286c0 -164 -35 -302 -105 -414c-88.667 -141.333 -221.334 -212 -398.001 -212
c-131.333 0 -227.666 38 -288.999 114c-53.333 66.667 -80 159 -80 277zM245.998 356c0 -164.667 73.668 -247 221.001 -247c65.333 0 118.833 17.667 160.5 53s74.167 79 97.5 131c40.667 90.667 61 197 61 319c0 128 -36 212.667 -108 254c-28 15.333 -62.333 23 -103 23
c-118.667 0 -207.334 -65 -266.001 -195c-42 -93.333 -63 -206 -63 -338zM288.999 1206l16 131h647l-16 -131h-647z" />
    <glyph glyph-name="Obreve" unicode="&#x14e;" horiz-adv-x="1347" 
d="M125 532c0 244.667 50.999 448.001 152.999 610.001c53.333 84 122.5 151.833 207.5 203.5s180.667 77.5 287 77.5s191.5 -15 255.5 -45s115.333 -70.667 154 -122c70.667 -96 106 -231.333 106 -406c0 -250.667 -55.333 -455.334 -166 -614.001
c-117.333 -168 -277.666 -252 -480.999 -252c-344 0 -516 182.667 -516 548zM296.999 530.001c0 -136.667 27.334 -239.667 82.001 -309s143.334 -104 266.001 -104c156 0 276.333 75 361 225c72 128 108 298.667 108 512c0 132.667 -21.333 234 -64 304
c-24 40.667 -57.333 73.167 -100 97.5s-103.834 36.5 -183.501 36.5s-150.834 -23.167 -213.501 -69.5s-113 -106.5 -151 -180.5c-70 -133.333 -105 -304 -105 -512zM535 1720l100.001 69.999c68 -113.333 140.333 -170 217 -170c38.667 0 72.334 6 101.001 18
c64 28.667 130.667 74.667 200 138l47 -52c-68 -86 -133.833 -146.333 -197.5 -181s-117.334 -52 -161.001 -52s-79.834 6.5 -108.501 19.5s-55 30.167 -79 51.5c-40 34.667 -79.667 87.334 -119 158.001z" />
    <glyph glyph-name="obreve" unicode="&#x14f;" horiz-adv-x="1015" 
d="M82 377c0 170 37.3311 313.667 111.998 431c40 62 91.833 112.833 155.5 152.5s135.334 59.5 215.001 59.5s143.334 -11 191.001 -33s86.167 -51.667 115.5 -89c55.333 -70.667 83 -166 83 -286c0 -164 -35 -302 -105 -414c-88.667 -141.333 -221.334 -212 -398.001 -212
c-131.333 0 -227.666 38 -288.999 114c-53.333 66.667 -80 159 -80 277zM245.998 356c0 -164.667 73.668 -247 221.001 -247c65.333 0 118.833 17.667 160.5 53s74.167 79 97.5 131c40.667 90.667 61 197 61 319c0 128 -36 212.667 -108 254c-28 15.333 -62.333 23 -103 23
c-118.667 0 -207.334 -65 -266.001 -195c-42 -93.333 -63 -206 -63 -338zM308.999 1358l101.003 68.999c68 -113.333 140.333 -170 217 -170c83.333 0 183.666 52 300.999 156l47 -51c-68 -86 -133.833 -146.5 -197.5 -181.5s-117.334 -52.5 -161.001 -52.5
s-79.834 6.5 -108.501 19.5s-55 30.5 -79 52.5c-40 36.667 -80 89.334 -120 158.001z" />
    <glyph glyph-name="Ohungarumlaut" unicode="&#x150;" horiz-adv-x="1347" 
d="M125 532c0 244.667 50.999 448.001 152.999 610.001c53.333 84 122.5 151.833 207.5 203.5s180.667 77.5 287 77.5s191.5 -15 255.5 -45s115.333 -70.667 154 -122c70.667 -96 106 -231.333 106 -406c0 -250.667 -55.333 -455.334 -166 -614.001
c-117.333 -168 -277.666 -252 -480.999 -252c-344 0 -516 182.667 -516 548zM296.999 530.001c0 -136.667 27.334 -239.667 82.001 -309s143.334 -104 266.001 -104c156 0 276.333 75 361 225c72 128 108 298.667 108 512c0 132.667 -21.333 234 -64 304
c-24 40.667 -57.333 73.167 -100 97.5s-103.834 36.5 -183.501 36.5s-150.834 -23.167 -213.501 -69.5s-113 -106.5 -151 -180.5c-70 -133.333 -105 -304 -105 -512zM614 1544l334 281l88 -115l-368 -229zM905 1544l334 281l88 -115l-366 -229z" />
    <glyph glyph-name="ohungarumlaut" unicode="&#x151;" horiz-adv-x="1015" 
d="M82 377c0 170 37.3311 313.667 111.998 431c40 62 91.833 112.833 155.5 152.5s135.334 59.5 215.001 59.5s143.334 -11 191.001 -33s86.167 -51.667 115.5 -89c55.333 -70.667 83 -166 83 -286c0 -164 -35 -302 -105 -414c-88.667 -141.333 -221.334 -212 -398.001 -212
c-131.333 0 -227.666 38 -288.999 114c-53.333 66.667 -80 159 -80 277zM245.998 356c0 -164.667 73.668 -247 221.001 -247c65.333 0 118.833 17.667 160.5 53s74.167 79 97.5 131c40.667 90.667 61 197 61 319c0 128 -36 212.667 -108 254c-28 15.333 -62.333 23 -103 23
c-118.667 0 -207.334 -65 -266.001 -195c-42 -93.333 -63 -206 -63 -338zM376.999 1157l274 342l107 -100l-316 -299zM630.999 1157l272 342l107 -100l-316 -299z" />
    <glyph glyph-name="OE" unicode="&#x152;" horiz-adv-x="1619" 
d="M121 532c0 246 51 450 153 612c53.333 84 122.333 151.5 207 202.5s187 76.5 307 76.5c69.333 0 131 -8 185 -24h674c-17.333 -136.667 -29.666 -242 -36.999 -316h-129l22 193h-502l-61 -481c238 4 399.667 7.33301 485 10l-16 -137c-242 4 -402.333 6 -481 6l-68 -549
h541l24 197h134c-18 -146 -30.333 -253.333 -37 -322h-744c-146.667 -25.333 -273.334 -17.333 -380.001 24c-184.667 70.667 -277 240 -277 508zM291 524c0 -135.333 27.333 -237.334 82 -306.001s144 -103 268 -103h25c8 0 16 0.666992 24 2l146 1169
c-16 2.66699 -32.667 4 -50 4h-2c-94 0 -172.667 -23.5 -236 -70.5s-114 -107.5 -152 -181.5c-70 -137.333 -105 -308.666 -105 -513.999z" />
    <glyph glyph-name="oe" unicode="&#x153;" horiz-adv-x="1640" 
d="M82 377c0 170 37.3301 313.336 111.997 430.003c89.333 140.667 217.333 211 384 211c86 0 155.833 -19.167 209.5 -57.5s92.834 -87.5 117.501 -147.5c89.333 139.333 223.333 209 402 209c89.333 0 159.666 -25 210.999 -75c44.667 -44.667 67 -100.334 67 -167.001
s-16 -122.834 -48 -168.501s-76.333 -83.167 -133 -112.5c-110 -56.667 -264 -88.667 -462 -96c-1.33301 -6.66699 -2 -14.334 -2 -23.001v-40c0 -18 2.66699 -41.667 8 -71s16 -55.666 32 -78.999c37.333 -56 99.333 -84 186 -84s185.334 24 296.001 72l37 -96
c-44 -27.333 -99.833 -49.833 -167.5 -67.5s-136.167 -26.5 -205.5 -26.5c-157.333 0 -259.666 64 -306.999 192c-38 -54.667 -87.667 -100.334 -149 -137.001s-131.666 -55 -210.999 -55s-142.5 9.83301 -189.5 29.5s-84.5 47.167 -112.5 82.5c-50 62 -75 154.333 -75 277z
M245.997 356.003c0 -164.667 73.668 -247 221.001 -247c65.333 0 118.833 17.667 160.5 53s74.167 79 97.5 131c40.667 90.667 61 197 61 319c0 128 -36 212.667 -108 254c-28 15.333 -62.333 23 -103 23c-118.667 0 -207.334 -65 -266.001 -195
c-42 -93.333 -63 -206 -63 -338zM951.998 502.003c152.667 6.66699 271.834 30.833 357.501 72.5s128.5 101.5 128.5 179.5c0 40.667 -12.333 74 -37 100s-62.334 39 -113.001 39c-101.333 0 -179.333 -35.5 -234 -106.5s-88.667 -165.833 -102 -284.5z" />
    <glyph glyph-name="Racute" unicode="&#x154;" horiz-adv-x="1228" 
d="M33 0l12 125h127l141 1151h-125l15 127h581c116 0 207.5 -28 274.5 -84s100.5 -142.667 100.5 -260c0 -154 -54.333 -271.667 -163 -353c-38.667 -29.333 -86 -51 -142 -65l164 -514l147 -21v-96c-52 -18.667 -105.5 -28 -160.5 -28s-90.5 9.5 -106.5 28.5
s-29.333 45.5 -40 79.5l-164 526h-295l-59 -491h160l-15 -125h-452zM416 739h272c132 0 221.333 51.667 268 155c18 38.667 27 94.167 27 166.5s-20.833 126.333 -62.5 162s-97.167 53.5 -166.5 53.5h-273zM588 1552l364 240l72 -127l-391 -186z" />
    <glyph glyph-name="racute" unicode="&#x155;" horiz-adv-x="854" 
d="M86 899l5.99805 82c101.333 26 176.5 39 225.5 39s80 -5.5 93 -16.5s19.5 -29 19.5 -54s-9.66699 -105.167 -29 -240.5h7c44 122 97 208.333 159 259c44.667 36 92.167 54 142.5 54s86.333 -12 108 -36s33.834 -52.333 36.501 -85l-70 -76
c-37.333 18 -74.666 27 -111.999 27c-52 0 -106.333 -37.167 -163 -111.5s-104.667 -189.5 -144 -345.5l-14.5 -110.5l-12.5 -97.5c-9.33301 -72 -18.333 -134.333 -27 -187h-157c52.667 414.667 88.667 704 108 868zM435.998 1159l279 338l102 -102l-317 -293z" />
    <glyph glyph-name="Rcommaaccent" unicode="&#x156;" horiz-adv-x="1228" 
d="M33 0l12 125h127l141 1151h-125l15 127h581c116 0 207.5 -28 274.5 -84s100.5 -142.667 100.5 -260c0 -154 -54.333 -271.667 -163 -353c-38.667 -29.333 -86 -51 -142 -65l164 -514l147 -21v-96c-52 -18.667 -105.5 -28 -160.5 -28s-90.5 9.5 -106.5 28.5
s-29.333 45.5 -40 79.5l-164 526h-295l-59 -491h160l-15 -125h-452zM416 739h272c132 0 221.333 51.667 268 155c18 38.667 27 94.167 27 166.5s-20.833 126.333 -62.5 162s-97.167 53.5 -166.5 53.5h-273zM494 -416c27.333 19.333 49.832 38.167 67.499 56.5
s30.5 45.166 38.5 80.499c-39.333 12 -59 36.5 -59 73.5s10.833 67.167 32.5 90.5s48.5 35 80.5 35s56.667 -9.83301 74 -29.5s26 -44.167 26 -73.5s-6.16699 -57.666 -18.5 -84.999s-29.166 -53.333 -50.499 -78c-45.333 -52 -98.333 -92.333 -159 -121z" />
    <glyph glyph-name="rcommaaccent" unicode="&#x157;" horiz-adv-x="854" 
d="M47 -416c27.333 19.333 49.8301 38.167 67.4971 56.5s30.834 45.166 39.501 80.499c-39.333 12 -59.166 36.5 -59.499 73.5s10.5 67.167 32.5 90.5s49 35 81 35s56.5 -9.83301 73.5 -29.5s25.5 -44.167 25.5 -73.5s-6.16699 -57.666 -18.5 -84.999
s-29.166 -53.333 -50.499 -78c-44 -52 -96.667 -92.333 -158 -121zM85.9971 899.001l5.99805 82c101.333 26 176.5 39 225.5 39s80 -5.5 93 -16.5s19.5 -29 19.5 -54s-9.66699 -105.167 -29 -240.5h7c44 122 97 208.333 159 259c44.667 36 92.167 54 142.5 54
s86.333 -12 108 -36s33.834 -52.333 36.501 -85l-70 -76c-37.333 18 -74.666 27 -111.999 27c-52 0 -106.333 -37.167 -163 -111.5s-104.667 -189.5 -144 -345.5l-14.5 -110.5l-12.5 -97.5c-9.33301 -72 -18.333 -134.333 -27 -187h-157c52.667 414.667 88.667 704 108 868z
" />
    <glyph glyph-name="Rcaron" unicode="&#x158;" horiz-adv-x="1228" 
d="M33 0l12 125h127l141 1151h-125l15 127h581c116 0 207.5 -28 274.5 -84s100.5 -142.667 100.5 -260c0 -154 -54.333 -271.667 -163 -353c-38.667 -29.333 -86 -51 -142 -65l164 -514l147 -21v-96c-52 -18.667 -105.5 -28 -160.5 -28s-90.5 9.5 -106.5 28.5
s-29.333 45.5 -40 79.5l-164 526h-295l-59 -491h160l-15 -125h-452zM367 1765l49 56l284 -187l332 187l41 -62l-336 -268h-108zM416 739h272c132 0 221.333 51.667 268 155c18 38.667 27 94.167 27 166.5s-20.833 126.333 -62.5 162s-97.167 53.5 -166.5 53.5h-273z" />
    <glyph glyph-name="rcaron" unicode="&#x159;" horiz-adv-x="854" 
d="M86 899l5.99805 82c101.333 26 176.5 39 225.5 39s80 -5.5 93 -16.5s19.5 -29 19.5 -54s-9.66699 -105.167 -29 -240.5h7c44 122 97 208.333 159 259c44.667 36 92.167 54 142.5 54s86.333 -12 108 -36s33.834 -52.333 36.501 -85l-70 -76
c-37.333 18 -74.666 27 -111.999 27c-52 0 -106.333 -37.167 -163 -111.5s-104.667 -189.5 -144 -345.5l-14.5 -110.5l-12.5 -97.5c-9.33301 -72 -18.333 -134.333 -27 -187h-157c52.667 414.667 88.667 704 108 868zM151.998 1411l49 57l282 -204l334 202l41 -57l-336 -289
h-108z" />
    <glyph glyph-name="Sacute" unicode="&#x15a;" horiz-adv-x="1085" 
d="M35 90l33 275.002h131l-25 -181c76.667 -40.667 172 -61 286 -61s205.5 23.167 274.5 69.5s103.5 115.833 103.5 208.5c0 73.333 -27.667 129 -83 167c-38 26.667 -97.167 51 -177.5 73s-143 41.833 -188 59.5s-84.167 39.5 -117.5 65.5
c-70.667 56 -106 133.667 -106 233c0 134.667 48 240.667 144 318c86.667 70.667 199.667 106 339 106c100.667 0 197 -14.333 289 -43c32.667 -10.667 62.667 -24.334 90 -41.001l-35 -276h-131l25 184c-68.667 27.333 -136 41 -202 41s-117.5 -5.5 -154.5 -16.5
s-69.833 -27.5 -98.5 -49.5c-61.333 -46 -92 -113.333 -92 -202c0 -86 59 -150.667 177 -194c33.333 -12.667 70.5 -25.5 111.5 -38.5l134.5 -43c48.667 -15.667 91.667 -36.167 129 -61.5c84 -56.667 126 -143 126 -259c0 -148.667 -55.667 -261.334 -167 -338.001
c-98.667 -68 -228.667 -102 -390 -102c-174 0 -316 35.333 -426 106zM522 1548l365 240l71 -127l-391 -186z" />
    <glyph glyph-name="sacute" unicode="&#x15b;" horiz-adv-x="874" 
d="M55 123c0 58 23.998 131.001 71.998 219.001l78 -4l-10 -209c46.667 -19.333 93.667 -29 141 -29s86.833 3.5 118.5 10.5s60.167 17.5 85.5 31.5c55.333 31.333 83 77 83 137c0 61.333 -44.333 111 -133 149c-144 61.333 -234.333 107.333 -271 138
s-62.5 58.667 -77.5 84s-22.5 58.5 -22.5 99.5s10.833 79.333 32.5 115s50.5 65.5 86.5 89.5c68.667 45.333 157.334 68 266.001 68c121.333 0 207.333 -24 258 -72c16 -16 24 -36 24 -60s-7.5 -58.5 -22.5 -103.5s-31.167 -84.5 -48.5 -118.5l-78 4l10 200
c-42.667 20.667 -84.334 31 -125.001 31s-73.667 -2.66699 -99 -8s-47.666 -14.333 -66.999 -27c-44.667 -27.333 -67 -68.333 -67 -123c0 -48.667 47 -95 141 -139c24.667 -12 51.334 -24.333 80.001 -37s60 -27.667 94 -45s64.333 -37.333 91 -60
c60.667 -51.333 91 -106.333 91 -165s-11.5 -106.834 -34.5 -144.501s-54.167 -69.167 -93.5 -94.5c-77.333 -49.333 -174 -74 -290 -74s-197.167 12.833 -243.5 38.5s-69.5 58.5 -69.5 98.5zM421.998 1159l278 338l103 -102l-318 -293z" />
    <glyph glyph-name="Scircumflex" unicode="&#x15c;" horiz-adv-x="1085" 
d="M35 90l33 275.002h131l-25 -181c76.667 -40.667 172 -61 286 -61s205.5 23.167 274.5 69.5s103.5 115.833 103.5 208.5c0 73.333 -27.667 129 -83 167c-38 26.667 -97.167 51 -177.5 73s-143 41.833 -188 59.5s-84.167 39.5 -117.5 65.5
c-70.667 56 -106 133.667 -106 233c0 134.667 48 240.667 144 318c86.667 70.667 199.667 106 339 106c100.667 0 197 -14.333 289 -43c32.667 -10.667 62.667 -24.334 90 -41.001l-35 -276h-131l25 184c-68.667 27.333 -136 41 -202 41s-117.5 -5.5 -154.5 -16.5
s-69.833 -27.5 -98.5 -49.5c-61.333 -46 -92 -113.333 -92 -202c0 -86 59 -150.667 177 -194c33.333 -12.667 70.5 -25.5 111.5 -38.5l134.5 -43c48.667 -15.667 91.667 -36.167 129 -61.5c84 -56.667 126 -143 126 -259c0 -148.667 -55.667 -261.334 -167 -338.001
c-98.667 -68 -228.667 -102 -390 -102c-174 0 -316 35.333 -426 106zM313 1505l334 293h109l268 -289l-53 -59l-283 203l-332 -205z" />
    <glyph glyph-name="scircumflex" unicode="&#x15d;" horiz-adv-x="874" 
d="M55 123c0 58 23.998 131.001 71.998 219.001l78 -4l-10 -209c46.667 -19.333 93.667 -29 141 -29s86.833 3.5 118.5 10.5s60.167 17.5 85.5 31.5c55.333 31.333 83 77 83 137c0 61.333 -44.333 111 -133 149c-144 61.333 -234.333 107.333 -271 138
s-62.5 58.667 -77.5 84s-22.5 58.5 -22.5 99.5s10.833 79.333 32.5 115s50.5 65.5 86.5 89.5c68.667 45.333 157.334 68 266.001 68c121.333 0 207.333 -24 258 -72c16 -16 24 -36 24 -60s-7.5 -58.5 -22.5 -103.5s-31.167 -84.5 -48.5 -118.5l-78 4l10 200
c-42.667 20.667 -84.334 31 -125.001 31s-73.667 -2.66699 -99 -8s-47.666 -14.333 -66.999 -27c-44.667 -27.333 -67 -68.333 -67 -123c0 -48.667 47 -95 141 -139c24.667 -12 51.334 -24.333 80.001 -37s60 -27.667 94 -45s64.333 -37.333 91 -60
c60.667 -51.333 91 -106.333 91 -165s-11.5 -106.834 -34.5 -144.501s-54.167 -69.167 -93.5 -94.5c-77.333 -49.333 -174 -74 -290 -74s-197.167 12.833 -243.5 38.5s-69.5 58.5 -69.5 98.5zM153.998 1149l333 291h109l266 -289l-51 -59l-283 204l-331 -204z" />
    <glyph glyph-name="Scedilla" unicode="&#x15e;" horiz-adv-x="1085" 
d="M35 90l33 275.001h131l-25 -181c76.667 -40.667 172 -61 286 -61s205.5 23.167 274.5 69.5s103.5 115.833 103.5 208.5c0 73.333 -27.667 129 -83 167c-38 26.667 -97.167 51 -177.5 73s-143 41.833 -188 59.5s-84.167 39.5 -117.5 65.5
c-70.667 56 -106 133.667 -106 233c0 134.667 48 240.667 144 318c86.667 70.667 199.667 106 339 106c100.667 0 197 -14.333 289 -43c32.667 -10.667 62.667 -24.334 90 -41.001l-35 -276h-131l25 184c-68.667 27.333 -136 41 -202 41s-117.5 -5.5 -154.5 -16.5
s-69.833 -27.5 -98.5 -49.5c-61.333 -46 -92 -113.333 -92 -202c0 -86 59 -150.667 177 -194c33.333 -12.667 70.5 -25.5 111.5 -38.5l134.5 -43c48.667 -15.667 91.667 -36.167 129 -61.5c84 -56.667 126 -143 126 -259c0 -132 -44.667 -236.667 -134 -314
c-80.667 -68.667 -189 -108.667 -325 -120l-49.5 -58.5l-50.5 -58.5c129.333 -8.66699 194 -56.334 194 -143.001c0 -63.333 -30.667 -116.666 -92 -159.999c-68.667 -48 -165.667 -72 -291 -72l6 78c168 15.333 252 58.333 252 129c0 49.333 -63.333 74 -190 74l-21 41
l144 164c-174 0 -316 35.333 -426 106z" />
    <glyph glyph-name="scedilla" unicode="&#x15f;" horiz-adv-x="874" 
d="M55 123c0 58 23.998 131 71.998 219l78 -4l-10 -209c46.667 -19.333 93.667 -29 141 -29s86.833 3.5 118.5 10.5s60.167 17.5 85.5 31.5c55.333 31.333 83 77 83 137c0 61.333 -44.333 111 -133 149c-144 61.333 -234.333 107.333 -271 138s-62.5 58.667 -77.5 84
s-22.5 58.5 -22.5 99.5s10.833 79.333 32.5 115s50.5 65.5 86.5 89.5c68.667 45.333 157.334 68 266.001 68c121.333 0 207.333 -24 258 -72c16 -16 24 -36 24 -60s-7.5 -58.5 -22.5 -103.5s-31.167 -84.5 -48.5 -118.5l-78 4l10 200c-42.667 20.667 -84.334 31 -125.001 31
s-73.667 -2.66699 -99 -8s-47.666 -14.333 -66.999 -27c-44.667 -27.333 -67 -68.333 -67 -123c0 -48.667 47 -95 141 -139c24.667 -12 51.334 -24.333 80.001 -37s60 -27.667 94 -45s64.333 -37.333 91 -60c60.667 -51.333 91 -110.333 91 -177
c0 -86.667 -34.333 -156.334 -103 -209.001c-65.333 -50.667 -148.333 -80 -249 -88l-49.5 -58.5l-50.5 -58.5c129.333 -8.66699 194 -56.334 194 -143.001c0 -63.333 -30.667 -116.666 -92 -159.999c-68.667 -48 -165.667 -72 -291 -72l7 78
c167.333 15.333 251 58.333 251 129c0 49.333 -63.333 74 -190 74l-20 41l145 166c-188.667 4.66699 -283 50.334 -283 137.001z" />
    <glyph glyph-name="Scaron" unicode="&#x160;" horiz-adv-x="1085" 
d="M35 90l33 275.002h131l-25 -181c76.667 -40.667 172 -61 286 -61s205.5 23.167 274.5 69.5s103.5 115.833 103.5 208.5c0 73.333 -27.667 129 -83 167c-38 26.667 -97.167 51 -177.5 73s-143 41.833 -188 59.5s-84.167 39.5 -117.5 65.5
c-70.667 56 -106 133.667 -106 233c0 134.667 48 240.667 144 318c86.667 70.667 199.667 106 339 106c100.667 0 197 -14.333 289 -43c32.667 -10.667 62.667 -24.334 90 -41.001l-35 -276h-131l25 184c-68.667 27.333 -136 41 -202 41s-117.5 -5.5 -154.5 -16.5
s-69.833 -27.5 -98.5 -49.5c-61.333 -46 -92 -113.333 -92 -202c0 -86 59 -150.667 177 -194c33.333 -12.667 70.5 -25.5 111.5 -38.5l134.5 -43c48.667 -15.667 91.667 -36.167 129 -61.5c84 -56.667 126 -143 126 -259c0 -148.667 -55.667 -261.334 -167 -338.001
c-98.667 -68 -228.667 -102 -390 -102c-174 0 -316 35.333 -426 106zM373 1765l49 56l285 -187l331 187l41 -62l-336 -268h-108z" />
    <glyph glyph-name="scaron" unicode="&#x161;" horiz-adv-x="874" 
d="M55 123c0 58 23.998 131.001 71.998 219.001l78 -4l-10 -209c46.667 -19.333 93.667 -29 141 -29s86.833 3.5 118.5 10.5s60.167 17.5 85.5 31.5c55.333 31.333 83 77 83 137c0 61.333 -44.333 111 -133 149c-144 61.333 -234.333 107.333 -271 138
s-62.5 58.667 -77.5 84s-22.5 58.5 -22.5 99.5s10.833 79.333 32.5 115s50.5 65.5 86.5 89.5c68.667 45.333 157.334 68 266.001 68c121.333 0 207.333 -24 258 -72c16 -16 24 -36 24 -60s-7.5 -58.5 -22.5 -103.5s-31.167 -84.5 -48.5 -118.5l-78 4l10 200
c-42.667 20.667 -84.334 31 -125.001 31s-73.667 -2.66699 -99 -8s-47.666 -14.333 -66.999 -27c-44.667 -27.333 -67 -68.333 -67 -123c0 -48.667 47 -95 141 -139c24.667 -12 51.334 -24.333 80.001 -37s60 -27.667 94 -45s64.333 -37.333 91 -60
c60.667 -51.333 91 -106.333 91 -165s-11.5 -106.834 -34.5 -144.501s-54.167 -69.167 -93.5 -94.5c-77.333 -49.333 -174 -74 -290 -74s-197.167 12.833 -243.5 38.5s-69.5 58.5 -69.5 98.5zM212.998 1411l49 57l283 -204l334 202l41 -57l-336 -289h-109z" />
    <glyph glyph-name="Tcommaaccent" unicode="&#x162;" horiz-adv-x="1099" 
d="M111 1067l41 336h1036l-39 -336h-131l24 209h-303l-141 -1151h166l-14 -125h-494l14 125h162l141 1151h-309l-24 -209h-129zM336 -416c27.333 19.333 49.833 38.167 67.5 56.5s30.5 45.166 38.5 80.499c-39.333 12 -59 36.5 -59 73.5s11 67.167 33 90.5s49 35 81 35
s56.5 -9.83301 73.5 -29.5s25.5 -44.167 25.5 -73.5s-6.16699 -57.666 -18.5 -84.999s-28.833 -53.333 -49.5 -78c-44.667 -52 -97.667 -92.333 -159 -121z" />
    <glyph glyph-name="tcommaaccent" unicode="&#x163;" horiz-adv-x="735" 
d="M94 887l8 87.999l156 37l80 223l104 16l-30 -252h293l-13 -112h-291c-52.667 -400 -79 -606 -79 -618v-27c0 -36.667 7.5 -66 22.5 -88s48 -33 99 -33s112.833 10.333 185.5 31l24 -109c-91.333 -35.333 -179.333 -53 -264 -53c-156.667 0 -235 64 -235 192l2 33
c15.333 116 29 229.333 41 340s25.667 221.334 41 332.001h-144zM145 -416.001c27.333 19.333 49.999 38.167 67.999 56.5s31 45.166 39 80.499c-39.333 12 -59 36.5 -59 73.5s10.833 67.167 32.5 90.5s48.5 35 80.5 35s56.667 -9.83301 74 -29.5s26 -44.167 26 -73.5
s-6.16699 -57.666 -18.5 -84.999s-29.166 -53.333 -50.499 -78c-45.333 -52 -98.333 -92.333 -159 -121z" />
    <glyph glyph-name="Tcaron" unicode="&#x164;" horiz-adv-x="1099" 
d="M111 1067l41 336h1036l-39 -336h-131l24 209h-303l-141 -1151h166l-14 -125h-494l14 125h162l141 1151h-309l-24 -209h-129zM358 1765l50 56l284 -187l332 187l41 -62l-336 -268h-108z" />
    <glyph glyph-name="tcaron" unicode="&#x165;" horiz-adv-x="894" 
d="M94 887l8 87.999l156 37l80 223l104 16l-30 -252h293l-13 -112h-291c-52.667 -400 -79 -606 -79 -618v-27c0 -36.667 7.5 -66 22.5 -88s48 -33 99 -33s112.833 10.333 185.5 31l24 -109c-91.333 -35.333 -179.333 -53 -264 -53c-156.667 0 -235 64 -235 192l2 33
c15.333 116 29 229.333 41 340s25.667 221.334 41 332.001h-144zM641 1130c27.333 19.333 49.8301 38.166 67.4971 56.499s30.834 45.5 39.501 81.5c-39.333 12 -59.166 36.5 -59.499 73.5s10.5 67 32.5 90s49 34.5 81 34.5s56.5 -9.83301 73.5 -29.5
s25.5 -44.167 25.5 -73.5s-6.16699 -57.666 -18.5 -84.999s-29.166 -53.333 -50.499 -78c-44 -52 -96.667 -92.333 -158 -121z" />
    <glyph glyph-name="Tbar" unicode="&#x166;" horiz-adv-x="1099" 
d="M113 1079l39 324h1036l-37 -324h-131l22 197h-303l-57 -465h311l-12 -106h-311l-72 -580h166l-14 -125h-494l14 125h162l72 580h-309l12 106h309l57 465h-309l-22 -197h-129z" />
    <glyph glyph-name="tbar" unicode="&#x167;" horiz-adv-x="735" 
d="M61 606l15 103h139c4 46.667 11.667 106 23 178h-144l8 88l156 37l80 223l104 16l-30 -252h293l-13 -112h-291l-24 -178h282l-14 -103h-280l-43 -346v-18c0 -36.667 7.5 -66 22.5 -88s48 -33 99 -33s112.833 10.333 185.5 31l24 -109
c-91.333 -35.333 -179.333 -53 -264 -53c-156.667 0 -235 64 -235 192l49 424h-142z" />
    <glyph glyph-name="Utilde" unicode="&#x168;" horiz-adv-x="1402" 
d="M166 1276l14 127h426l-14 -127h-139l-97 -774c-31.333 -256.667 71.334 -385 308.001 -385c113.333 0 204.333 32 273 96s110.667 160.333 126 289l96 774h-139l16 127h424l-14 -127h-123l-96 -772c-30 -252 -140.333 -413.333 -331 -484c-66 -24 -144.667 -36 -236 -36
s-169.833 12.5 -235.5 37.5s-117.167 60.833 -154.5 107.5c-72.667 89.333 -99.334 219 -80.001 389l95 758h-119zM537 1604c23.333 48 51.6699 85.5 85.0029 112.5s65.666 40.5 96.999 40.5s59.666 -4 84.999 -12s50 -17 74 -27c64 -26 107.333 -39 130 -39l122 80l48 -45
c-19.333 -45.333 -45.833 -82.5 -79.5 -111.5s-67.834 -43.5 -102.501 -43.5s-65 4 -91 12s-50.333 17 -73 27c-56.667 26.667 -97 40 -121 40l-123 -79z" />
    <glyph glyph-name="utilde" unicode="&#x169;" horiz-adv-x="1167" 
d="M63 899l6.99707 82c98.667 26 176.834 39 234.501 39s93 -5.83301 106 -17.5s19.5 -27.667 19.5 -48s-1.66699 -48.333 -5 -84s-7.83301 -77 -13.5 -124l-18.5 -150.5c-6.66699 -53.333 -12.667 -104 -18 -152c-12.667 -115.333 -19 -185.666 -19 -210.999
c0 -77.333 31 -116 93 -116c98 0 191.667 82.333 281 247c32 59.333 61.667 131.333 89 216c10.667 69.333 20.834 138.833 30.501 208.5l29.5 210.5h155c-19.333 -140.667 -37.833 -283.334 -55.5 -428.001l-54.5 -442c56 4.66699 111.333 21.667 166 51l38 -67
c-46.667 -46.667 -94.5 -80.5 -143.5 -101.5s-91.167 -31.5 -126.5 -31.5s-59.166 9.16699 -71.499 27.5s-18.5 46.833 -18.5 85.5s6.66699 108 20 208h-10c-54 -110 -122.667 -194 -206 -252c-64.667 -44.667 -127 -67 -187 -67c-131.333 0 -197 68 -197 204
c0 42 8.66699 138.5 26 289.5l44 394.5c-45.333 6 -110.333 15.667 -195 29zM341.997 1219c49.333 102 113.666 153 192.999 153c34.667 0 74 -8.83301 118 -26.5l99.5 -39c22.333 -8.33301 42.5 -12.5 60.5 -12.5l123 80l47 -45
c-19.333 -45.333 -45.666 -82.5 -78.999 -111.5s-67.333 -43.5 -102 -43.5s-65 4 -91 12s-50.333 17.333 -73 28c-58 26 -98.667 39 -122 39l-123 -79z" />
    <glyph glyph-name="Umacron" unicode="&#x16a;" horiz-adv-x="1402" 
d="M166 1276l14 127h426l-14 -127h-139l-97 -774c-31.333 -256.667 71.334 -385 308.001 -385c113.333 0 204.333 32 273 96s110.667 160.333 126 289l96 774h-139l16 127h424l-14 -127h-123l-96 -772c-30 -252 -140.333 -413.333 -331 -484c-66 -24 -144.667 -36 -236 -36
s-169.833 12.5 -235.5 37.5s-117.167 60.833 -154.5 107.5c-72.667 89.333 -99.334 219 -80.001 389l95 758h-119zM502 1530l16 131h664l-15 -131h-665z" />
    <glyph glyph-name="umacron" unicode="&#x16b;" horiz-adv-x="1167" 
d="M63 899l6.99707 82c98.667 26 176.834 39 234.501 39s93 -5.83301 106 -17.5s19.5 -27.667 19.5 -48s-1.66699 -48.333 -5 -84s-7.83301 -77 -13.5 -124l-18.5 -150.5c-6.66699 -53.333 -12.667 -104 -18 -152c-12.667 -115.333 -19 -185.666 -19 -210.999
c0 -77.333 31 -116 93 -116c98 0 191.667 82.333 281 247c32 59.333 61.667 131.333 89 216c10.667 69.333 20.834 138.833 30.501 208.5l29.5 210.5h155c-19.333 -140.667 -37.833 -283.334 -55.5 -428.001l-54.5 -442c56 4.66699 111.333 21.667 166 51l38 -67
c-46.667 -46.667 -94.5 -80.5 -143.5 -101.5s-91.167 -31.5 -126.5 -31.5s-59.166 9.16699 -71.499 27.5s-18.5 46.833 -18.5 85.5s6.66699 108 20 208h-10c-54 -110 -122.667 -194 -206 -252c-64.667 -44.667 -127 -67 -187 -67c-131.333 0 -197 68 -197 204
c0 42 8.66699 138.5 26 289.5l44 394.5c-45.333 6 -110.333 15.667 -195 29zM323.997 1206l16 131h647l-16 -131h-647z" />
    <glyph glyph-name="Ubreve" unicode="&#x16c;" horiz-adv-x="1402" 
d="M166 1276l14 127h426l-14 -127h-139l-97 -774c-31.333 -256.667 71.334 -385 308.001 -385c113.333 0 204.333 32 273 96s110.667 160.333 126 289l96 774h-139l16 127h424l-14 -127h-123l-96 -772c-30 -252 -140.333 -413.333 -331 -484c-66 -24 -144.667 -36 -236 -36
s-169.833 12.5 -235.5 37.5s-117.167 60.833 -154.5 107.5c-72.667 89.333 -99.334 219 -80.001 389l95 758h-119zM524 1714l101.002 69.998c68 -113.333 140.333 -170 217 -170c38 0 71.333 6 100 18c61.333 26.667 128.333 72.334 201 137.001l47 -51
c-68 -86 -133.833 -146.333 -197.5 -181s-117.334 -52 -161.001 -52s-79.834 6.5 -108.501 19.5s-55 30.167 -79 51.5c-40 36.667 -80 89.334 -120 158.001z" />
    <glyph glyph-name="ubreve" unicode="&#x16d;" horiz-adv-x="1167" 
d="M63 899l6.99707 82c98.667 26 176.834 39 234.501 39s93 -5.83301 106 -17.5s19.5 -27.667 19.5 -48s-1.66699 -48.333 -5 -84s-7.83301 -77 -13.5 -124l-18.5 -150.5c-6.66699 -53.333 -12.667 -104 -18 -152c-12.667 -115.333 -19 -185.666 -19 -210.999
c0 -77.333 31 -116 93 -116c98 0 191.667 82.333 281 247c32 59.333 61.667 131.333 89 216c10.667 69.333 20.834 138.833 30.501 208.5l29.5 210.5h155c-19.333 -140.667 -37.833 -283.334 -55.5 -428.001l-54.5 -442c56 4.66699 111.333 21.667 166 51l38 -67
c-46.667 -46.667 -94.5 -80.5 -143.5 -101.5s-91.167 -31.5 -126.5 -31.5s-59.166 9.16699 -71.499 27.5s-18.5 46.833 -18.5 85.5s6.66699 108 20 208h-10c-54 -110 -122.667 -194 -206 -252c-64.667 -44.667 -127 -67 -187 -67c-131.333 0 -197 68 -197 204
c0 42 8.66699 138.5 26 289.5l44 394.5c-45.333 6 -110.333 15.667 -195 29zM349.997 1358l101.003 68.999c68 -113.333 140.333 -170 217 -170c83.333 0 183.666 52 300.999 156l47 -51c-68 -86 -133.833 -146.5 -197.5 -181.5s-117.334 -52.5 -161.001 -52.5
s-79.834 6.5 -108.501 19.5s-55 30.5 -79 52.5c-40 36.667 -80 89.334 -120 158.001z" />
    <glyph glyph-name="Uring" unicode="&#x16e;" horiz-adv-x="1402" 
d="M166 1276l14 127h426l-14 -127h-139l-97 -774c-31.333 -256.667 71.334 -385 308.001 -385c113.333 0 204.333 32 273 96s110.667 160.333 126 289l96 774h-139l16 127h424l-14 -127h-123l-96 -772c-30 -252 -140.333 -413.333 -331 -484c-66 -24 -144.667 -36 -236 -36
s-169.833 12.5 -235.5 37.5s-117.167 60.833 -154.5 107.5c-72.667 89.333 -99.334 219 -80.001 389l95 758h-119zM641 1677c13.333 97.333 64.333 164 153 200c28 11.333 57.333 17 88 17s58.167 -5.66699 82.5 -17s44.833 -27 61.5 -47c35.333 -42.667 49 -93.667 41 -153
c-5.33301 -60 -31.333 -110.833 -78 -152.5s-100 -62.5 -160 -62.5s-108 20.833 -144 62.5s-50.667 92.5 -44 152.5zM731 1674.5c-4 -36.333 3.5 -67.166 22.5 -92.499s47.333 -38 85 -38s69.167 12.667 94.5 38s40 55.666 44 90.999c5.33301 35.333 -2 66 -22 92
s-48.333 39 -85 39s-68 -12.5 -94 -37.5s-41 -55.667 -45 -92z" />
    <glyph glyph-name="uring" unicode="&#x16f;" horiz-adv-x="1167" 
d="M63 899l6.99707 82c98.667 26 176.834 39 234.501 39s93 -5.83301 106 -17.5s19.5 -27.667 19.5 -48s-1.66699 -48.333 -5 -84s-7.83301 -77 -13.5 -124l-18.5 -150.5c-6.66699 -53.333 -12.667 -104 -18 -152c-12.667 -115.333 -19 -185.666 -19 -210.999
c0 -77.333 31 -116 93 -116c98 0 191.667 82.333 281 247c32 59.333 61.667 131.333 89 216c10.667 69.333 20.834 138.833 30.501 208.5l29.5 210.5h155c-19.333 -140.667 -37.833 -283.334 -55.5 -428.001l-54.5 -442c56 4.66699 111.333 21.667 166 51l38 -67
c-46.667 -46.667 -94.5 -80.5 -143.5 -101.5s-91.167 -31.5 -126.5 -31.5s-59.166 9.16699 -71.499 27.5s-18.5 46.833 -18.5 85.5s6.66699 108 20 208h-10c-54 -110 -122.667 -194 -206 -252c-64.667 -44.667 -127 -67 -187 -67c-131.333 0 -197 68 -197 204
c0 42 8.66699 138.5 26 289.5l44 394.5c-45.333 6 -110.333 15.667 -195 29zM450.997 1346c8.66699 61.333 34.3301 111.999 76.9971 151.999c47.333 43.333 102.666 65 165.999 65c58.667 0 105.834 -21.667 141.501 -65s49.5 -94 41.5 -152
c-5.33301 -58.667 -31.666 -109.667 -78.999 -153c-45.333 -42 -98.166 -63 -158.499 -63s-108.666 20.833 -144.999 62.5s-50.833 92.834 -43.5 153.501zM540.993 1342.5c-4 -36.333 3.50293 -67.166 22.5029 -92.499s47.167 -38 84.5 -38s68.666 12.667 93.999 38
s40 55.666 44 90.999c5.33301 35.333 -1.83398 66.166 -21.501 92.499s-47.834 39.5 -84.501 39.5s-68 -12.667 -94 -38s-41 -56.166 -45 -92.499z" />
    <glyph glyph-name="Uhungarumlaut" unicode="&#x170;" horiz-adv-x="1402" 
d="M166 1276l14 127h426l-14 -127h-139l-97 -774c-31.333 -256.667 71.334 -385 308.001 -385c113.333 0 204.333 32 273 96s110.667 160.333 126 289l96 774h-139l16 127h424l-14 -127h-123l-96 -772c-30 -252 -140.333 -413.333 -331 -484c-66 -24 -144.667 -36 -236 -36
s-169.833 12.5 -235.5 37.5s-117.167 60.833 -154.5 107.5c-72.667 89.333 -99.334 219 -80.001 389l95 758h-119zM639 1544l334 281l88 -115l-369 -229zM930 1544l334 281l88 -115l-367 -229z" />
    <glyph glyph-name="uhungarumlaut" unicode="&#x171;" horiz-adv-x="1167" 
d="M63 899l6.99707 82c98.667 26 176.834 39 234.501 39s93 -5.83301 106 -17.5s19.5 -27.667 19.5 -48s-1.66699 -48.333 -5 -84s-7.83301 -77 -13.5 -124l-18.5 -150.5c-6.66699 -53.333 -12.667 -104 -18 -152c-12.667 -115.333 -19 -185.666 -19 -210.999
c0 -77.333 31 -116 93 -116c98 0 191.667 82.333 281 247c32 59.333 61.667 131.333 89 216c10.667 69.333 20.834 138.833 30.501 208.5l29.5 210.5h155c-19.333 -140.667 -37.833 -283.334 -55.5 -428.001l-54.5 -442c56 4.66699 111.333 21.667 166 51l38 -67
c-46.667 -46.667 -94.5 -80.5 -143.5 -101.5s-91.167 -31.5 -126.5 -31.5s-59.166 9.16699 -71.499 27.5s-18.5 46.833 -18.5 85.5s6.66699 108 20 208h-10c-54 -110 -122.667 -194 -206 -252c-64.667 -44.667 -127 -67 -187 -67c-131.333 0 -197 68 -197 204
c0 42 8.66699 138.5 26 289.5l44 394.5c-45.333 6 -110.333 15.667 -195 29zM448.997 1157l274 342l106 -100l-315 -299zM701.997 1157l273 342l106 -100l-315 -299z" />
    <glyph glyph-name="Uogonek" unicode="&#x172;" horiz-adv-x="1402" 
d="M166 1276l14 127.003h426l-14 -127h-139l-97 -774c-31.333 -256.667 71.334 -385 308.001 -385c113.333 0 204.333 32 273 96s110.667 160.333 126 289l96 774h-139l16 127h424l-14 -127h-123l-96 -772c-30 -240.667 -132.333 -398.334 -307 -473.001
c-60.667 -26 -131 -41 -211 -45c-32.667 -39.333 -60 -82.333 -82 -129s-33 -84.334 -33 -113.001c0 -50.667 34 -76 102 -76c43.333 0 94.666 7.66699 153.999 23l6 -66c-74.667 -36.667 -145 -55 -211 -55c-122.667 0 -184 43 -184 129c0 31.333 10.5 73 31.5 125
s63.833 106 128.5 162c-328 15.333 -471.667 192.666 -431 531.999l95 758h-119z" />
    <glyph glyph-name="uogonek" unicode="&#x173;" horiz-adv-x="1167" 
d="M63 899l6.99707 82.001c98.667 26 176.834 39 234.501 39s93 -5.83301 106 -17.5s19.5 -27.667 19.5 -48s-1.66699 -48.333 -5 -84s-7.83301 -77 -13.5 -124l-18.5 -150.5c-6.66699 -53.333 -12.667 -104 -18 -152c-12.667 -115.333 -19 -185.666 -19 -210.999
c0 -77.333 31 -116 93 -116c98 0 191.667 82.333 281 247c32 59.333 61.667 131.333 89 216c10.667 69.333 20.834 138.833 30.501 208.5l29.5 210.5h155c-19.333 -140.667 -37.833 -283.334 -55.5 -428.001l-54.5 -442c56 4.66699 111.333 21.667 166 51l38 -67
c-35.333 -35.333 -71.333 -63.333 -108 -84c-58.667 -62.667 -100.667 -132.334 -126 -209.001c-7.33301 -22 -11 -41.333 -11 -58c0 -50 34 -75 102 -75c46 0 97.333 7.33301 154 22l6 -65c-76 -37.333 -146.667 -56 -212 -56c-122 0 -183 43 -183 129
c0 30 9.16699 68.667 27.5 116s54.833 97 109.5 149c-5.33301 -1.33301 -13 -2 -23 -2c-39.333 0 -65.166 9.16699 -77.499 27.5s-18.5 46.833 -18.5 85.5s6.66699 108 20 208h-10c-54 -110 -122.667 -194 -206 -252c-64.667 -44.667 -127 -67 -187 -67
c-131.333 0 -197 68 -197 204c0 42 8.66699 138.5 26 289.5l44 394.5c-45.333 6 -110.333 15.667 -195 29z" />
    </font>
</defs>
</svg>
