<?xml version="1.0" standalone="no"?>
<!DOCTYPE svg PUBLIC "-//W3C//DTD SVG 1.1//EN" "http://www.w3.org/Graphics/SVG/1.1/DTD/svg11.dtd" >
<svg>
<metadata>
Created by FontForge 20090914 at Fri Apr 11 21:01:23 2014
 By www-data
 
</metadata>
<defs>
<font id="Pragmatica" horiz-adv-x="578" >
  <font-face 
    font-family="Pragmatica"
    font-weight="400"
    font-stretch="normal"
    units-per-em="1000"
    panose-1="0 0 0 0 0 0 0 0 0 0"
    ascent="800"
    descent="-200"
    x-height="508"
    cap-height="700"
    bbox="-26 -224 1245 865"
    underline-thickness="50"
    underline-position="-55"
    unicode-range="U+0020-U+2219"
  />
<missing-glyph 
d="M418 62v446h88v-508h-173v-185h-88v185h-173v508h88v-446h258v0z" />
    <glyph glyph-name=".notdef" 
d="M418 62v446h88v-508h-173v-185h-88v185h-173v508h88v-446h258v0z" />
    <glyph glyph-name="space" unicode=" " horiz-adv-x="351" 
 />
    <glyph glyph-name="exclam" unicode="!" horiz-adv-x="311" 
d="M106 0v109h99v-109h-99v0zM106 700h99v-269l-25 -230h-49l-25 230v269v0z" />
    <glyph glyph-name="quotedbl" unicode="&#x22;" horiz-adv-x="497" 
d="M222 700l-40 -192h-53l-39 192h132v0zM407 700l-40 -192h-53l-39 192h132v0z" />
    <glyph glyph-name="numbersign" unicode="#" horiz-adv-x="843" 
d="M508 -56h-68l26 168h-144l-25 -168h-68l26 168h-134l13 85h134l28 179h-134l13 85h134l26 167h68l-26 -167h143l26 167h68l-26 -167h134l-13 -85h-134l-28 -179h134l-13 -85h-134l-26 -168v0zM479 197l28 179h-143l-28 -179h143v0z" />
    <glyph glyph-name="dollar" unicode="$" horiz-adv-x="611" 
d="M53 208l89 0.00390625c2 -42 11.667 -73.5 29 -94.5s36 -35.833 56 -44.5c10.667 -4 20.834 -6.83301 30.501 -8.5s18.5 -2.83398 26.5 -3.50098v266c-88 19.333 -145.5 45.666 -172.5 78.999s-40.5 73.666 -40.5 120.999c0 50.667 11.167 89 33.5 115
s47.166 44.333 74.499 55c23.333 9.33301 45.166 14.833 65.499 16.5s33.5 2.5 39.5 2.5v65h53v-65c64 -2 110.833 -17.167 140.5 -45.5s47.834 -59.5 54.501 -93.5l2 -18c0.666992 -6 1 -12 1 -18v-3.5v-3.5h-86c-0.666992 32.667 -11.667 60.167 -33 82.5
s-48 33.5 -80 33.5v-247c60 -10 105.333 -25.5 136 -46.5s52.334 -43.167 65.001 -66.5c9.33301 -17.333 15.166 -34.333 17.499 -51s3.5 -31 3.5 -43c0 -60 -15.167 -104.5 -45.5 -133.5s-63.5 -48.5 -99.5 -58.5c-13.333 -3.33301 -26.5 -5.83301 -39.5 -7.5
s-25.167 -2.83398 -36.5 -3.50098v-82h-53v81c-78.667 3.33301 -135.667 23.833 -171 61.5s-55.333 90.5 -60 158.5v0zM336 314.004l-0.000976562 -257h3.5h2.5c40.667 0 72 14 94 42s33 59 33 93c0 31.333 -8.16699 55.333 -24.5 72s-34.166 29 -53.499 37
c-10 4 -19.833 7 -29.5 9s-18.167 3.33301 -25.5 4v0zM283.999 408.004v238.001c-6.66699 0 -15 -0.833008 -25 -2.5s-20.667 -4.5 -32 -8.5c-17.333 -6.66699 -33.166 -18.334 -47.499 -35.001s-21.5 -41.334 -21.5 -74.001c0 -30.667 9.66699 -55.667 29 -75
s51.666 -33.666 96.999 -42.999v0z" />
    <glyph glyph-name="percent" unicode="%" horiz-adv-x="911" 
d="M530 192c0 10.667 0.830078 22.334 2.49707 35.001s4.16699 25.667 7.5 39c8.66699 31.333 24.834 60.166 48.501 86.499s58.834 39.5 105.501 39.5c55.333 0 96.5 -19.333 123.5 -58s40.5 -86 40.5 -142c0 -54 -9.5 -94.833 -28.5 -122.5s-39.833 -47.5 -62.5 -59.5
c-14 -6.66699 -27.5 -11.167 -40.5 -13.5s-23.833 -3.5 -32.5 -3.5c-9.33301 0 -19.666 1.16699 -30.999 3.5s-23.333 5.83301 -36 10.5c-24 12 -46.167 32.167 -66.5 60.5s-30.5 69.833 -30.5 124.5v0zM593.997 192c0 -50.667 10.334 -87.832 31.001 -111.499
s43.667 -35.5 69 -35.5c4.66699 0 9.66699 0.5 15 1.5s10.666 2.5 15.999 4.5c17.333 6.66699 33.166 20.667 47.499 42s21.5 54.333 21.5 99v10.5c0 3.66699 -0.333008 7.5 -1 11.5c-2 31.333 -10.5 60 -25.5 86s-39.5 39 -73.5 39c-28 0 -49.167 -9 -63.5 -27
s-24.166 -38 -29.499 -60c-2.66699 -10.667 -4.5 -21.334 -5.5 -32.001s-1.5 -20 -1.5 -28v0zM195.998 0.00195312l454 700h71l-454 -700h-71v0zM52.998 508.002c0 60 12.1689 104.832 36.502 134.499s51.166 49.167 80.499 58.5c8 2 16.167 3.66699 24.5 5
s16.166 2 23.499 2c8 0 16 -0.666992 24 -2s16.333 -3.33301 25 -6c28.667 -9.33301 55 -28.833 79 -58.5s36 -74.167 36 -133.5c0 -10.667 -1 -23.667 -3 -39s-5.33301 -31.333 -10 -48c-9.33301 -28 -25.5 -53.833 -48.5 -77.5s-57.167 -35.5 -102.5 -35.5
s-79.5 11.667 -102.5 35s-39.167 49.333 -48.5 78c-5.33301 16 -9 31.833 -11 47.5s-3 28.834 -3 39.501v0zM117 508.001c0 -7.33301 0.666016 -17.166 1.99902 -29.499s4 -25.166 8 -38.499c6 -20 16 -38.167 30 -54.5s34.333 -24.5 61 -24.5
c27.333 0 47.833 8.16699 61.5 24.5s23.5 34.5 29.5 54.5c4 13.333 6.5 26.166 7.5 38.499s1.5 22.166 1.5 29.499c0 50 -9.33301 86.167 -28 108.5s-39.334 34.833 -62.001 37.5c-1.33301 0.666992 -2.83301 1 -4.5 1h-5.5c-3.33301 0 -6.66602 -0.166992 -9.99902 -0.5
s-6.66602 -0.833008 -9.99902 -1.5c-20 -5.33301 -38.5 -19.333 -55.5 -42s-25.5 -57 -25.5 -103v0z" />
    <glyph glyph-name="ampersand" unicode="&#x26;" horiz-adv-x="683" 
d="M542 306l79.0029 0.00390625c-4.66699 -27.333 -9.83398 -51.666 -15.501 -72.999s-14.167 -42 -25.5 -62c-2 -4.66699 -4.5 -9.5 -7.5 -14.5s-6.16699 -9.83301 -9.5 -14.5l120 -142h-105l-69 82c-20.667 -32.667 -50.667 -57.834 -90 -75.501
s-81.666 -26.5 -126.999 -26.5c-64.667 0 -113.334 14.833 -146.001 44.5s-54.334 62.5 -65.001 98.5c-3.33301 10.667 -5.66602 21.5 -6.99902 32.5s-2 21.5 -2 31.5c0 56.667 16 101.5 48 134.5s73.333 60.833 124 83.5c-30.667 35.333 -49.834 65.166 -57.501 89.499
s-11.5 44.833 -11.5 61.5c0 42 14.667 76.5 44 103.5s69 40.5 119 40.5c46.667 0 82 -11.667 106 -35s38.667 -49.333 44 -78c1.33301 -4.66699 2.16602 -9.33398 2.49902 -14.001s0.5 -9.33398 0.5 -14.001c0 -34 -8.83301 -63 -26.5 -87s-37.167 -43.667 -58.5 -59
c-8 -6 -16 -11.333 -24 -16s-15.333 -8.66699 -22 -12l153 -182c6 10.667 11 22 15 34s7.66699 28.667 11 50c0.666992 2.66699 1.16699 5.66699 1.5 9s0.833008 6.66602 1.5 9.99902v0zM463.003 139.004l-172.999 209c-32.667 -13.333 -57.834 -28.166 -75.501 -44.499
s-30.5 -33.166 -38.5 -50.499c-4.66699 -11.333 -8 -22.5 -10 -33.5s-3 -21.5 -3 -31.5c0 -34.667 12 -65.667 36 -93s59 -41 105 -41c4.66699 0 9.5 0.166992 14.5 0.5s10.167 0.833008 15.5 1.5c24.667 3.33301 48.667 11.666 72 24.999s42.333 32.666 57 57.999v0z
M317.004 438.004c23.333 8 44.833 22.3311 64.5 42.998s29.5 47.334 29.5 80.001c0 21.333 -7.33301 38.833 -22 52.5s-32 20.5 -52 20.5c-4 0 -8.33301 -0.333008 -13 -1s-9.66699 -1.66699 -15 -3c-12.667 -4 -24.5 -11.667 -35.5 -23s-16.5 -27.666 -16.5 -48.999
c0 -12.667 2 -24.667 6 -36s9.66699 -22.333 17 -33c4.66699 -8.66699 10.167 -17 16.5 -25l20.5 -26v0z" />
    <glyph glyph-name="quotesingle" unicode="'" horiz-adv-x="312" 
d="M222 700l-40 -192h-53l-39 192h132v0z" />
    <glyph glyph-name="parenleft" unicode="(" horiz-adv-x="365" 
d="M216 700h66c-42.667 -81.333 -73.667 -159 -93 -233s-29 -143.667 -29 -209c0 -58 6.66699 -114 20 -168s28 -102 44 -144c12 -31.333 23.333 -58.333 34 -81s18.667 -39 24 -49l-66 -1c-56.667 97.333 -94.334 175.666 -113.001 234.999s-29 115.333 -31 168
c-0.666992 6.66699 -1 13.334 -1 20.001v20v19.5c0 6.33301 0.333008 12.833 1 19.5c2 52 12.333 108 31 168s56.334 138.333 113.001 235v0z" />
    <glyph glyph-name="parenright" unicode=")" horiz-adv-x="365" 
d="M149 -185l-66 -0.00195312c61.333 118.667 97 215.667 107 291s15 126 15 152v0.5v0.5c0 22.667 -5 72.5 -15 149.5s-45.667 174.167 -107 291.5h66c68 -108.667 109.167 -198.667 123.5 -270s21.5 -128.666 21.5 -171.999s-7.16699 -100.666 -21.5 -171.999
s-55.5 -161.333 -123.5 -270v-1z" />
    <glyph glyph-name="asterisk" unicode="*" horiz-adv-x="465" 
d="M233 511l-80 -108l-40 30l78 108l-125 40l16 47l126 -40v132h50v-132l125 40l16 -47l-124 -40l78 -108l-41 -30l-79 108v0z" />
    <glyph glyph-name="plus" unicode="+" horiz-adv-x="700" 
d="M53 376h271v271h52v-271h271v-52h-271v-271h-52v271h-271v52v0z" />
    <glyph glyph-name="comma" unicode="," horiz-adv-x="311" 
d="M106 0l0.00195312 109.001h99v-143c0 -4 -0.333008 -8.5 -1 -13.5s-1.66699 -10.167 -3 -15.5c-4 -16.667 -13.167 -32.834 -27.5 -48.501s-36.833 -27.5 -67.5 -35.5v54c13.333 2.66699 24.666 9.5 33.999 20.5s14.666 23.167 15.999 36.5v2.5v3.5v30h-50v0z" />
    <glyph glyph-name="hyphen" unicode="-" horiz-adv-x="422" 
d="M79 225v85h264v-85h-264v0z" />
    <glyph glyph-name="period" unicode="." horiz-adv-x="311" 
d="M106 0v109h99v-109h-99v0z" />
    <glyph glyph-name="slash" unicode="/" horiz-adv-x="409" 
d="M0 -185l357 885h52l-356 -885h-53v0z" />
    <glyph glyph-name="zero" unicode="0" horiz-adv-x="582" 
d="M291 -21c-87.333 0.666992 -148.5 33.667 -183.5 99s-54.833 137.666 -59.5 216.999c-0.666992 9.33301 -1.16699 18.5 -1.5 27.5s-0.5 18.167 -0.5 27.5s0.166992 18.5 0.5 27.5s0.833008 18.167 1.5 27.5c4.66699 79.333 24.5 151.833 59.5 217.5
s96.167 98.5 183.5 98.5s148.5 -32.833 183.5 -98.5s54.833 -138.167 59.5 -217.5c0.666992 -9.33301 1.16699 -18.5 1.5 -27.5s0.5 -18.167 0.5 -27.5s-0.166992 -18.5 -0.5 -27.5s-0.833008 -18.167 -1.5 -27.5c-4.66699 -79.333 -24.5 -151.666 -59.5 -216.999
s-96.167 -98 -183.5 -98v-1zM291 54c45.333 0 78.5 16.6689 99.5 50.002s35.167 70.333 42.5 111c4.66699 26 7.5 51.167 8.5 75.5s1.5 44.166 1.5 59.499s-0.5 35.166 -1.5 59.499s-3.83301 49.5 -8.5 75.5c-7.33301 40.667 -21.5 77.667 -42.5 111s-54.167 50 -99.5 50
c-60 0 -100 -28.5 -120 -85.5s-30.667 -119.833 -32 -188.5v-11.5v-10.5v-10.5v-11.5c1.33301 -68.667 12 -131.5 32 -188.5s60 -85.5 120 -85.5v0z" />
    <glyph glyph-name="one" unicode="1" 
d="M129 526v49h21c46 0 84.167 12.167 114.5 36.5s47.833 53.833 52.5 88.5h66v-700h-94v526h-160v0z" />
    <glyph glyph-name="two" unicode="2" horiz-adv-x="584" 
d="M533 79l-0.000976562 -78.9961h-474c-0.666992 58.667 10.333 106.5 33 143.5s55.667 71.833 99 104.5c14.667 11.333 30.834 22.833 48.501 34.5l56.5 36.5c0.666992 0 1.16699 0.166992 1.5 0.5l1.5 1.5c0.666992 0.666992 1.33398 1.16699 2.00098 1.5
s1.33398 0.5 2.00098 0.5c34.667 22 66 46.167 94 72.5s42 63.833 42 112.5c0 39.333 -12 71.5 -36 96.5s-59 37.5 -105 37.5c-40.667 0 -75 -11.833 -103 -35.5s-42 -58.167 -42 -103.5v-26h-92v21c0 10 1.33301 24.667 4 44s9 39.666 19 60.999
c14 30 37.5 57.167 70.5 81.5s81.833 36.5 146.5 36.5v0v0c6.66699 0 21.167 -0.833008 43.5 -2.5s46.5 -7.83398 72.5 -18.501c29.333 -12.667 56.333 -33.5 81 -62.5s37 -71.833 37 -128.5c0 -26 -2.83301 -49.833 -8.5 -71.5s-16.5 -42.834 -32.5 -63.501
c-14 -18.667 -32.833 -37.667 -56.5 -57s-53.834 -40 -90.501 -62c-43.333 -26.667 -77.833 -50 -103.5 -70s-44.834 -39.333 -57.501 -58c-6 -8 -10.833 -15.833 -14.5 -23.5s-6.5 -15.834 -8.5 -24.501h370v0z" />
    <glyph glyph-name="three" unicode="3" horiz-adv-x="581" 
d="M41 213l90.002 -0.00195312c4.66699 -52 17.5 -89.167 38.5 -111.5s43.5 -36.5 67.5 -42.5c7.33301 -2 14.666 -3.33301 21.999 -4s14.333 -1 21 -1c51.333 0 88.166 10.5 110.499 31.5s36.833 44.167 43.5 69.5c2 8 3.33301 16 4 24s1 15.667 1 23
c0 37.333 -10.667 67.833 -32 91.5s-53.333 35.5 -96 35.5h-11h-13h-9h-10c-6.66699 -0.666992 -12.5 -1 -17.5 -1h-10.5l-1 76h28c48 0 82.667 7.83301 104 23.5s35.333 32.834 42 51.501c2.66699 8.66699 4.5 16.834 5.5 24.501s1.5 14.834 1.5 21.501
c0 6 -0.5 12.5 -1.5 19.5s-2.5 13.833 -4.5 20.5c-6 20 -18.833 38.5 -38.5 55.5s-50.834 25.5 -93.501 25.5c-49.333 0 -83.5 -13.833 -102.5 -41.5s-29.833 -58.167 -32.5 -91.5c0 -4.66699 -0.166992 -9.16699 -0.5 -13.5s-0.5 -8.5 -0.5 -12.5h-87v2v2v2v2
c0 12 0.833008 25 2.5 39s4.5 28.333 8.5 43c10.667 36 32 69 64 99s82.333 45 151 45c65.333 0 114 -13 146 -39s53.667 -54.667 65 -86c4 -12 6.83301 -23.667 8.5 -35s2.5 -22 2.5 -32c0 -41.333 -11.5 -75.333 -34.5 -102s-49.833 -44.334 -80.5 -53.001v-5
c40 -5.33301 72.5 -23.5 97.5 -54.5s37.5 -70.833 37.5 -119.5c0 -74.667 -24.667 -129.167 -74 -163.5s-105 -51.5 -167 -51.5c-88 0 -149.167 21.5 -183.5 64.5s-54.166 90.5 -59.499 142.5c-0.666992 4.66699 -1.16699 9.16699 -1.5 13.5s-0.5 8.5 -0.5 12.5v0z" />
    <glyph glyph-name="four" unicode="4" horiz-adv-x="586" 
d="M356 161h-330v81l329 458h95v-459h110v-80h-110v-161h-94v161v0zM116 241h240v336l-240 -336v0z" />
    <glyph glyph-name="five" unicode="5" horiz-adv-x="581" 
d="M47 179l91.9951 0.000976562c0.666992 -6.66699 2.33398 -14.834 5.00098 -24.501s6.33398 -19.5 11.001 -29.5c9.33301 -17.333 23.833 -33.5 43.5 -48.5s47.834 -22.5 84.501 -22.5c7.33301 0 18.166 0.666992 32.499 2s29.166 5 44.499 11
c21.333 9.33301 41 25.833 59 49.5s27 60.5 27 110.5c0 57.333 -14.833 99.166 -44.5 125.499s-66.167 39.5 -109.5 39.5c-5.33301 0 -10.833 -0.333008 -16.5 -1l-17.5 -2c-21.333 -4 -41.666 -11.167 -60.999 -21.5s-33.333 -22.5 -42 -36.5h-88l49 369h378v-79h-309
l-28 -207c23.333 20.667 48.333 34.667 75 42s54.334 11 83.001 11c70.667 0 124.834 -23 162.501 -69s56.5 -102.667 56.5 -170c0 -66 -18.5 -123.833 -55.5 -173.5s-102.167 -74.5 -195.5 -74.5c-10 0 -25.667 0.833008 -47 2.5s-43.666 7.5 -66.999 17.5
c-28 10.667 -54 29.834 -78 57.501s-38.667 68.167 -44 121.5v0z" />
    <glyph glyph-name="six" unicode="6" horiz-adv-x="581" 
d="M526 546l-84.001 -0.00292969c-12 41.333 -29.667 68.333 -53 81s-50.333 19 -81 19c-8.66699 0 -17.667 -0.5 -27 -1.5s-18.666 -2.83301 -27.999 -5.5c-27.333 -9.33301 -52.666 -31.5 -75.999 -66.5s-37 -96.833 -41 -185.5h4c3.33301 4 7.66602 8.83301 12.999 14.5
s11.666 11.5 18.999 17.5c14 10.667 32.333 20.334 55 29.001s50.667 13 84 13c67.333 0 121.666 -21.333 162.999 -64s62 -99.667 62 -171c0 -77.333 -21.667 -137.666 -65 -180.999s-101.666 -65 -174.999 -65c-10 0 -20.5 0.333008 -31.5 1s-21.833 2 -32.5 4
c-46.667 8 -89.5 35.333 -128.5 82s-58.5 138 -58.5 274c0 117.333 16.333 202.333 49 255s68.667 87.667 108 105c19.333 8 38.333 13.333 57 16s35.334 4 50.001 4c12.667 0 26.5 -0.833008 41.5 -2.5s30.5 -5.16699 46.5 -10.5c26.667 -9.33301 52 -26.166 76 -50.499
s41.667 -61.5 53 -111.5v0zM143.999 223.997c0 -9.33301 0.833984 -20.168 2.50098 -32.501s4.83398 -25.166 9.50098 -38.499c8.66699 -24.667 24 -47.334 46 -68.001s54.667 -31 98 -31c47.333 0 83.5 16.5 108.5 49.5s37.5 74.167 37.5 123.5
c0 48 -13.333 86.5 -40 115.5s-62.667 43.5 -108 43.5c-46.667 0 -81.334 -11.833 -104.001 -35.5s-37.334 -49.5 -44.001 -77.5c-2 -8.66699 -3.5 -17.167 -4.5 -25.5s-1.5 -16.166 -1.5 -23.499v0z" />
    <glyph glyph-name="seven" unicode="7" horiz-adv-x="581" 
d="M35 621l-0.00195312 78.998h511v-64l-17.5 -19.5c-5.66699 -6.33301 -11.167 -12.833 -16.5 -19.5c-33.333 -41.333 -62.666 -83.666 -87.999 -126.999s-49.333 -92.666 -72 -147.999c-12 -28.667 -22 -56.167 -30 -82.5s-15 -52.5 -21 -78.5s-11 -52 -15 -78
s-7.66699 -53.667 -11 -83h-100c4 33.333 9.33301 65.5 16 96.5s14.334 61.833 23.001 92.5l21 62c7.33301 20.667 15.333 41.667 24 63c6 14.667 20.833 45.667 44.5 93s56.167 97.666 97.5 150.999c8 10.667 16.5 21.334 25.5 32.001s18.167 21 27.5 31h-419v0z" />
    <glyph glyph-name="eight" unicode="8" horiz-adv-x="582" 
d="M292 -21c-82 0.666992 -140.837 21.6709 -176.504 63.0039s-55.167 87 -58.5 137c-0.666992 3.33301 -1 6.5 -1 9.5v9.5c0 44.667 12 83.667 36 117s54.333 54.666 91 63.999c-28.667 10.667 -51 27.5 -67 50.5s-26.333 47.167 -31 72.5
c-1.33301 5.33301 -2.16602 10.5 -2.49902 15.5s-0.5 10.167 -0.5 15.5s0.166992 10.666 0.5 15.999s0.833008 10.666 1.5 15.999c6.66699 39.333 25.834 75.166 57.501 107.499s81.834 48.5 150.501 48.5s118.834 -16.667 150.501 -50s50.167 -69.666 55.5 -108.999
c0.666992 -5.33301 1.16699 -10.333 1.5 -15s0.5 -9.33398 0.5 -14.001c0 -38 -9.33301 -70.333 -28 -97s-42.667 -45.667 -72 -57c37.333 -9.33301 67.666 -30.5 90.999 -63.5s35 -72.167 35 -117.5c0 -66.667 -20.167 -119.667 -60.5 -159s-98.166 -59 -173.499 -59v-1z
M291.996 54.0039c7.33301 0 16.832 1 28.499 3s23.834 5.66699 36.501 11c20 9.33301 38.167 24.333 54.5 45s24.5 50.667 24.5 90c0 45.333 -13.5 79.5 -40.5 102.5s-61.5 34.5 -103.5 34.5c-54 0 -91.833 -14.167 -113.5 -42.5s-32.5 -59.833 -32.5 -94.5
c0 -42.667 10.333 -75 31 -97s43.667 -37 69 -45c8 -2.66699 15.833 -4.5 23.5 -5.5s15.167 -1.5 22.5 -1.5v0zM291.995 412.004c38 0 67.832 10.5 89.499 31.5s32.5 49.833 32.5 86.5c0 31.333 -6.5 55 -19.5 71s-27.167 27.333 -42.5 34
c-13.333 5.33301 -25.666 8.5 -36.999 9.5s-19 1.5 -23 1.5c-38 0 -66 -8.33301 -84 -25s-29.667 -34.667 -35 -54c-2 -6.66699 -3.33301 -13 -4 -19s-1 -12 -1 -18v-7.5c0 -2.33301 0.333008 -4.83301 1 -7.5c2 -26 12 -49.667 30 -71s49 -32 93 -32v0z" />
    <glyph glyph-name="nine" unicode="9" horiz-adv-x="581" 
d="M55 152h85.002c5.33301 -28.667 19.666 -52.167 42.999 -70.5s53 -27.5 89 -27.5c3.33301 0 6.5 0.166992 9.5 0.5s6.16699 0.5 9.5 0.5c37.333 4 71.666 24.167 102.999 60.5s48.333 101.833 51 196.5h-4c-10 -12.667 -20.833 -23.334 -32.5 -32.001
s-23.5 -16 -35.5 -22c-21.333 -9.33301 -41.666 -15 -60.999 -17s-33.666 -3 -42.999 -3c-66.667 0 -120.667 21.333 -162 64s-62 99.334 -62 170.001c0 66 12.667 116 38 150s53.333 58.333 84 73c25.333 12.667 49.333 20.167 72 22.5s37.667 3.5 45 3.5
c11.333 0 23.166 -0.5 35.499 -1.5s24.5 -2.83301 36.5 -5.5c45.333 -9.33301 86.666 -38 123.999 -86s56 -138 56 -270c0 -118.667 -17 -204.334 -51 -257.001s-71.333 -87 -112 -103c-18 -7.33301 -35.833 -12.166 -53.5 -14.499s-33.834 -3.5 -48.501 -3.5
c-12.667 0 -27.167 1 -43.5 3s-33.166 6.33301 -50.499 13c-25.333 9.33301 -49.5 26 -72.5 50s-39.5 59.333 -49.5 106v0zM436.002 475c0 4.66699 -0.167969 9.50098 -0.500977 14.501s-0.833008 10.167 -1.5 15.5c-4.66699 35.333 -18.667 67.666 -42 96.999
s-60.333 44 -111 44c-48 0 -84.333 -16.333 -109 -49s-37 -74.667 -37 -126c0 -46.667 13.5 -84.667 40.5 -114s62.833 -44 107.5 -44c52.667 0 91.334 16 116.001 48s37 70 37 114v0z" />
    <glyph glyph-name="colon" unicode=":" horiz-adv-x="311" 
d="M106 0v109h99v-109h-99v0zM106 399v109h99v-109h-99v0z" />
    <glyph glyph-name="semicolon" unicode=";" horiz-adv-x="311" 
d="M106 0l0.00195312 109.001h99v-143c0 -4 -0.333008 -8.5 -1 -13.5s-1.66699 -10.167 -3 -15.5c-4 -16.667 -13.167 -32.834 -27.5 -48.501s-36.833 -27.5 -67.5 -35.5v54c13.333 2.66699 24.666 9.5 33.999 20.5s14.666 23.167 15.999 36.5v2.5v3.5v30h-50v0z
M106.002 399.001v109h99v-109h-99v0z" />
    <glyph glyph-name="less" unicode="&#x3c;" horiz-adv-x="660" 
d="M60 374l481 277l35 -62l-426 -247l426 -246l-35 -62l-481 277v63v0z" />
    <glyph glyph-name="equal" unicode="=" horiz-adv-x="700" 
d="M53 276h594v-52h-594v52v0zM53 476h594v-52h-594v52v0z" />
    <glyph glyph-name="greater" unicode="&#x3e;" horiz-adv-x="660" 
d="M600 311l-480 -277l-36 62l426 246l-426 247l36 62l480 -277v-63v0z" />
    <glyph glyph-name="question" unicode="?" horiz-adv-x="548" 
d="M220 0v109h99v-109h-99v0zM140 489h-87v4v4v4v4c0 5.33301 0.166992 10.833 0.5 16.5s0.833008 11.167 1.5 16.5c4 44.667 21.667 85.667 53 123s88 56 170 56c59.333 0 110.333 -14.333 153 -43s64 -74.667 64 -138c0 -33.333 -6 -61.333 -18 -84
s-29 -44.334 -51 -65.001c-5.33301 -5.33301 -10.833 -10.333 -16.5 -15l-17.5 -15l-10.5 -8.5c-3.66699 -3 -7.16699 -6.16699 -10.5 -9.5c-16 -14 -30.667 -30 -44 -48s-20 -40.333 -20 -67v-21h-73c-0.666992 5.33301 -1 10.166 -1 14.499v13.5c0 34 6 61.5 18 82.5
s25.333 38.5 40 52.5l7.5 7.5c2.33301 2.33301 4.83301 4.5 7.5 6.5l15 13l16 14c18 16 34.333 34.167 49 54.5s22 43.833 22 70.5c0 6 -0.833008 13.167 -2.5 21.5s-4.5 16.833 -8.5 25.5c-7.33301 16.667 -20.333 31.834 -39 45.501s-45.667 20.5 -81 20.5
c-6 0 -15 -0.5 -27 -1.5s-24.667 -4.5 -38 -10.5c-18 -7.33301 -34.5 -21.166 -49.5 -41.499s-22.5 -51.5 -22.5 -93.5v-4.5v-4.5v0z" />
    <glyph glyph-name="at" unicode="@" horiz-adv-x="992" 
d="M680 -25l33.999 -61.9961c-6 -3.33301 -12 -6.5 -18 -9.5l-19 -9.5c-26.667 -12.667 -54.167 -22.167 -82.5 -28.5s-61.166 -9.5 -98.499 -9.5c-132.667 0 -238.5 40.333 -317.5 121s-118.5 185.334 -118.5 314.001c0 116.667 39.333 218.334 118 305.001
s184.667 130 318 130c138.667 0 241.667 -37.5 309 -112.5s107.666 -157.167 120.999 -246.5c2 -12.667 3.5 -25.334 4.5 -38.001s1.5 -25.334 1.5 -38.001c0 -65.333 -19.667 -121.5 -59 -168.5s-90.666 -70.5 -153.999 -70.5c-4.66699 0 -9.16699 0.166992 -13.5 0.5
s-8.83301 0.5 -13.5 0.5c-14.667 2 -28.5 6.83301 -41.5 14.5s-23.167 21.167 -30.5 40.5h-6c-8 -15.333 -18.5 -27.333 -31.5 -36s-26.833 -15 -41.5 -19c-13.333 -3.33301 -26.333 -5.5 -39 -6.5s-23 -1.5 -31 -1.5c-5.33301 0 -17.833 1.16699 -37.5 3.5
s-40.5 9.5 -62.5 21.5c-26 14 -49.667 36.833 -71 68.5s-32 77.5 -32 137.5v6.5v7.5c2.66699 54 20 103.667 52 149s79.667 68 143 68c31.333 0 58.5 -4.83301 81.5 -14.5s41.833 -26.5 56.5 -50.5h6l-6 21v28h93v-296c0 -26.667 3.66699 -44.334 11 -53.001
s15.333 -13.334 24 -14.001c1.33301 -0.666992 3 -1 5 -1h5c40 0 69.833 16.833 89.5 50.5s29.5 71.5 29.5 113.5c0 98 -30.667 184 -92 258s-151.333 111 -270 111c-102.667 0 -188.667 -34.833 -258 -104.5s-104 -157.834 -104 -264.501
c0 -108 26.833 -189.833 80.5 -245.5s112.834 -92.167 177.501 -109.5c18 -4.66699 35.667 -8.16699 53 -10.5s34.333 -3.5 51 -3.5c40.667 0 76.167 5.66699 106.5 17s56.166 23.666 77.499 36.999v-1zM596.999 275.004c0 5.33301 -0.167969 10.667 -0.500977 16
s-0.833008 10.666 -1.5 15.999c-3.33301 30.667 -13.166 58.834 -29.499 84.501s-43.5 38.5 -81.5 38.5c-34 0 -59.333 -9.33301 -76 -28s-28 -39.334 -34 -62.001c-3.33301 -12 -5.5 -23.667 -6.5 -35s-1.5 -21.333 -1.5 -30s0.5 -18.167 1.5 -28.5
s2.83301 -20.833 5.5 -31.5c6 -23.333 17.333 -44.833 34 -64.5s42 -29.5 76 -29.5c33.333 0 58 9.5 74 28.5s27 40.167 33 63.5c2.66699 11.333 4.5 22.333 5.5 33s1.5 20.334 1.5 29.001v0z" />
    <glyph glyph-name="A" unicode="A" horiz-adv-x="623" 
d="M163 181l-66 -181h-101l265 700h101l265 -700h-101l-67 181h-296v0zM189 260h245l-123 345l-122 -345v0z" />
    <glyph glyph-name="B" unicode="B" horiz-adv-x="689" 
d="M85 700h307c78.667 0 133.167 -17.667 163.5 -53s45.5 -77 45.5 -125v-2v-2c-0.666992 -33.333 -11.334 -64.333 -32.001 -93s-49 -46.334 -85 -53.001v-3c8 -1.33301 17.333 -3.5 28 -6.5s21.334 -7.16699 32.001 -12.5c22 -11.333 42 -29 60 -53s27 -58 27 -102
c0 -57.333 -18.667 -104.166 -56 -140.499s-102 -54.5 -194 -54.5h-296v700v0zM179 324v-245h195h8.5h9.5c36 1.33301 68.833 10 98.5 26s44.5 48.667 44.5 98c0 48 -15.667 80.167 -47 96.5s-69.333 24.5 -114 24.5h-195v0zM179 621l0.000976562 -217.999h189
c50 0 84.667 10 104 30s30 42 32 66c0.666992 2.66699 1 5 1 7v6c0 6 -0.5 13.167 -1.5 21.5s-3.5 17.166 -7.5 26.499c-6.66699 15.333 -19.334 29.333 -38.001 42s-47.667 19 -87 19h-192v0z" />
    <glyph glyph-name="C" unicode="C" horiz-adv-x="712" 
d="M580 232l93.998 -0.000976562c-1.33301 -14 -4.16602 -30 -8.49902 -48s-11.166 -36 -20.499 -54c-17.333 -38 -46.5 -72.5 -87.5 -103.5s-100.833 -46.5 -179.5 -46.5c-112.667 0 -196.334 34.167 -251.001 102.5s-82 153.5 -82 255.5c0 13.333 1.33301 37.833 4 73.5
s11.334 73.5 26.001 113.5c18.667 48.667 50.667 93.5 96 134.5s113.333 61.5 204 61.5c103.333 0 176 -24 218 -72s66 -103 72 -165h-94c-0.666992 8 -2 16.333 -4 25s-4.66699 17.667 -8 27c-10.667 26.667 -30 51 -58 73s-70 33 -126 33c-79.333 0 -135.333 -25 -168 -75
s-52.334 -104.667 -59.001 -164c-1.33301 -10.667 -2.16602 -21 -2.49902 -31s-0.5 -20 -0.5 -30c0 -72.667 19.5 -138.167 58.5 -196.5s98.5 -87.5 178.5 -87.5c61.333 0 109 17.833 143 53.5s52.333 75.834 55 120.501v0z" />
    <glyph glyph-name="D" unicode="D" horiz-adv-x="719" 
d="M85 700l256.999 -0.000976562c124 0 209.333 -33 256 -99s72 -138.333 76 -217c0.666992 -5.33301 1 -10.666 1 -15.999v-16c0 -108 -20.833 -186.333 -62.5 -235s-87.5 -81 -137.5 -97c-31.333 -10 -61.666 -15.833 -90.999 -17.5s-53.333 -2.5 -72 -2.5h-2.5h-2.5h-222
v700v0zM178.999 620.999l-0.00195312 -542h131c96.667 0 165 23.833 205 71.5s60 114.167 60 199.5c0 92.667 -18.833 158.167 -56.5 196.5s-79.5 61.5 -125.5 69.5c-9.33301 2 -18.666 3.33301 -27.999 4s-18.666 1 -27.999 1h-158v0z" />
    <glyph glyph-name="E" unicode="E" horiz-adv-x="612" 
d="M179 401h367v-79h-367v-243h416v-79h-510v700h499v-79h-405v-220v0z" />
    <glyph glyph-name="F" unicode="F" horiz-adv-x="568" 
d="M179 393h329v-79h-329v-314h-94v700h470v-79h-376v-228v0z" />
    <glyph glyph-name="G" unicode="G" horiz-adv-x="740" 
d="M396 365l286.003 0.000976562v-365h-73v113h-2c-18 -38.667 -46.5 -70.5 -85.5 -95.5s-88.167 -37.5 -147.5 -37.5c-11.333 0 -22.833 0.5 -34.5 1.5s-23.5 2.5 -35.5 4.5c-64.667 11.333 -124 44.333 -178 99s-81 145.334 -81 272.001c0 109.333 28.667 197.333 86 264
s142.666 100 255.999 100c68.667 0 122 -12 160 -36s66.333 -50.667 85 -80c16 -24.667 26.5 -47.834 31.5 -69.501s7.83301 -35.834 8.5 -42.501h-94c-2.66699 37.333 -18.834 71.5 -48.501 102.5s-77.834 46.5 -144.501 46.5c-65.333 0 -114.5 -15.667 -147.5 -47
s-56.5 -65.666 -70.5 -102.999c-10 -28.667 -16.167 -55.834 -18.5 -81.501s-3.5 -44.5 -3.5 -56.5c0 -16 1.5 -35.667 4.5 -59s8.5 -47.333 16.5 -72c14 -41.333 37.667 -79.166 71 -113.499s82.333 -51.5 147 -51.5c59.333 0 103.833 13.667 133.5 41
s50.167 57.666 61.5 90.999c6.66699 17.333 11.167 34.5 13.5 51.5s3.5 31.833 3.5 44.5h-200v79v0z" />
    <glyph glyph-name="H" unicode="H" horiz-adv-x="710" 
d="M179 329v-329h-94v700h94v-292h352v292h94v-700h-94v329h-352v0z" />
    <glyph glyph-name="I" unicode="I" horiz-adv-x="264" 
d="M85 700h94v-700h-94v700v0z" />
    <glyph glyph-name="J" unicode="J" horiz-adv-x="520" 
d="M23 232l94 0.000976562c0.666992 -50.667 8.5 -92.334 23.5 -125.001s47.5 -49 97.5 -49c47.333 0 78.5 15.333 93.5 46s22.5 73.667 22.5 129v467h94v-458c0 -98 -17.333 -166.167 -52 -204.5s-87.667 -57.5 -159 -57.5s-121.833 15.667 -151.5 47s-48.5 66 -56.5 104
c-2 11.333 -3.5 22.5 -4.5 33.5s-1.5 21.5 -1.5 31.5v36v0z" />
    <glyph glyph-name="K" unicode="K" horiz-adv-x="667" 
d="M179 353l346 347h127l-292 -288l311 -412h-125l-255 349l-112 -109v-240h-94v700h94v-347v0z" />
    <glyph glyph-name="L" unicode="L" horiz-adv-x="529" 
d="M535 79v-79h-450v700h94v-621h356v0z" />
    <glyph glyph-name="M" unicode="M" horiz-adv-x="890" 
d="M407 0l-228 588h-2l2 -27v-561h-94v700h141l219 -576l219 576h141v-700h-94v561l2 27h-3l-227 -588h-76v0z" />
    <glyph glyph-name="N" unicode="N" horiz-adv-x="740" 
d="M179 555v-555h-94v700h104l372 -555v555h94v-700h-103l-373 555v0z" />
    <glyph glyph-name="O" unicode="O" horiz-adv-x="758" 
d="M379 -21c-107.333 0.666992 -189.833 34.333 -247.5 101s-86.5 156.667 -86.5 270c0 132.667 33.833 227.667 101.5 285s145.167 86 232.5 86c89.333 0 167.333 -28.667 234 -86s100 -152.333 100 -285c0 -114 -28.833 -204.167 -86.5 -270.5
s-140.167 -99.5 -247.5 -99.5v-1zM379 57.999c80.667 0 139.833 27.332 177.5 81.999s56.5 124.667 56.5 210c0 80.667 -13 141.167 -39 181.5s-54.667 68.5 -86 84.5c-21.333 11.333 -42 18.5 -62 21.5s-35.667 4.5 -47 4.5s-23 -0.666992 -35 -2s-24.333 -4 -37 -8
c-40.667 -12 -77.834 -38.667 -111.501 -80s-50.5 -108.666 -50.5 -201.999c0 -16 1 -34.667 3 -56s6 -43.333 12 -66c12 -42.667 34.333 -81.667 67 -117s83.334 -53 152.001 -53v0z" />
    <glyph glyph-name="P" unicode="P" horiz-adv-x="639" 
d="M85 700l285.001 -0.000976562c78 0 137 -16.667 177 -50s60 -83.666 60 -150.999c0 -60 -16.833 -111.667 -50.5 -155s-98.834 -65 -195.501 -65h-182v-279h-94v700v0zM179.001 620.999v-263h172c60 0 101.667 12.5 125 37.5s35 58.833 35 101.5
c0 46.667 -14.333 79 -43 97s-67.667 27 -117 27h-172v0z" />
    <glyph glyph-name="Q" unicode="Q" horiz-adv-x="758" 
d="M612 62l78.999 -87l-52 -49l-83 93c-13.333 -8 -27.833 -14.5 -43.5 -19.5s-31.5 -8.83301 -47.5 -11.5c-14.667 -2.66699 -29.334 -4.66699 -44.001 -6s-28.667 -2 -42 -2c-97.333 0 -169.666 23.333 -216.999 70s-79.333 98 -96 154c-8 26 -13.5 51.667 -16.5 77
s-4.5 48.333 -4.5 69c0 18 1 37 3 57s5.66699 40.333 11 61c14.667 63.333 46.334 121.333 95.001 174s123.667 79 225 79c88 0 165.667 -28.667 233 -86s101 -152.333 101 -285c0 -25.333 -1.66699 -52.333 -5 -81s-10.333 -57.667 -21 -87c-8 -20.667 -18 -41 -30 -61
s-27 -39.667 -45 -59v0zM470.999 220l79.002 -88.999c23.333 29.333 39.666 62 48.999 98s14 76.333 14 121c0 81.333 -13.167 142.166 -39.5 182.499s-55.166 68.5 -86.499 84.5c-21.333 10.667 -41.833 17.5 -61.5 20.5s-35.167 4.5 -46.5 4.5s-23 -0.666992 -35 -2
s-24.333 -4 -37 -8c-40.667 -12 -77.834 -38.667 -111.501 -80s-50.5 -108.666 -50.5 -201.999c0 -100.667 22 -174.5 66 -221.5s100 -70.5 168 -70.5c7.33301 0 16.666 0.5 27.999 1.5s23 2.83301 35 5.5c10 2 19.5 4.66699 28.5 8s17.167 7.66602 24.5 12.999l-78 87
l54 47v0z" />
    <glyph glyph-name="R" unicode="R" horiz-adv-x="681" 
d="M85 0l-0.00195312 700h310c11.333 0 23 -0.333008 35 -1s24 -2 36 -4c40.667 -6.66699 77.667 -23 111 -49s50 -70.667 50 -134c0 -6.66699 -0.333008 -13.5 -1 -20.5s-1.66699 -14.167 -3 -21.5c-6 -29.333 -18.5 -56.833 -37.5 -82.5s-45.167 -41.834 -78.5 -48.501v-3
c49.333 -17.333 78.5 -42.5 87.5 -75.5s13.833 -69.833 14.5 -110.5v-7.5v-6.5c0.666992 -34 2 -59.667 4 -77s7 -33 15 -47l4 -6l4 -6h-99c-1.33301 2 -2.66602 3.83301 -3.99902 5.5s-2.66602 3.16699 -3.99902 4.5c-6.66699 10.667 -11 22.834 -13 36.501
s-3.33301 34.167 -4 61.5c-0.666992 8 -1 16.5 -1 25.5s-0.333008 18.833 -1 29.5c-0.666992 33.333 -7.5 64 -20.5 92s-49.833 42 -110.5 42h-200v-297h-94v0zM178.998 621v-244.999h210c7.33301 0 16.666 0.666992 27.999 2s23 4.33301 35 9
c18.667 7.33301 35.834 19.666 51.501 36.999s23.5 43.333 23.5 78c0 43.333 -13.333 74 -40 92s-64 27 -112 27h-196v0z" />
    <glyph glyph-name="S" unicode="S" horiz-adv-x="656" 
d="M45 222l94.001 0.00390625v-2.5v-3.5c0 -40.667 16.333 -77.167 49 -109.5s83 -48.5 151 -48.5c57.333 0 100.333 12.333 129 37s43 55.667 43 93c0 34 -10 59.167 -30 75.5s-42 28.5 -66 36.5l-23.5 6c-7.66699 2 -14.834 3.66699 -21.501 5l-37.5 8l-35.5 8
c-69.333 15.333 -124.666 34.833 -165.999 58.5s-62 68.5 -62 134.5c0 71.333 26.333 122.666 79 153.999s114.667 47 186 47c84 0 145.5 -18.333 184.5 -55s62.5 -77 70.5 -121c1.33301 -4.66699 2.33301 -9.16699 3 -13.5s1 -8.83301 1 -13.5h-94
c-0.666992 5.33301 -1.5 10.5 -2.5 15.5s-2.16699 10.167 -3.5 15.5c-7.33301 23.333 -22.833 44.666 -46.5 63.999s-62.167 29 -115.5 29c-52.667 0 -92.834 -11.5 -120.501 -34.5s-41.5 -50.5 -41.5 -82.5c0 -40 15.833 -67 47.5 -81s66.834 -24.667 105.501 -32
c2 0 4 -0.333008 6 -1s4 -1 6 -1c2 -0.666992 3.83301 -1.16699 5.5 -1.5s3.16699 -0.5 4.5 -0.5c12.667 -2.66699 26 -5.33398 40 -8.00098s28.333 -5.66699 43 -9c46 -12 88.167 -31.833 126.5 -59.5s57.5 -74.834 57.5 -141.501v-9.5c0 -3 -0.333008 -6.16699 -1 -9.5
c-3.33301 -48 -24.666 -91.833 -63.999 -131.5s-110 -59.5 -212 -59.5c-15.333 0 -34.333 1 -57 3s-46.334 6.66699 -71.001 14c-38.667 11.333 -74.334 33.833 -107.001 67.5s-50.667 86.167 -54 157.5v0z" />
    <glyph glyph-name="T" unicode="T" horiz-adv-x="575" 
d="M241 621h-228v79h549v-79h-227v-621h-94v621v0z" />
    <glyph glyph-name="U" unicode="U" horiz-adv-x="696" 
d="M72 700l94.002 -0.00195312v-417v-1.5v-0.5c0 -12.667 0.333008 -27 1 -43s2.66699 -32.333 6 -49c6.66699 -32.667 22.5 -62.667 47.5 -90s67.5 -41 127.5 -41c73.333 0 122 20.833 146 62.5s36 95.834 36 162.501v417h94v-429c0 -95.333 -18.333 -163 -55 -203
s-76.667 -65.667 -120 -77c-18 -4.66699 -35.667 -7.66699 -53 -9s-33.333 -2 -48 -2c-90.667 0 -154.834 18.333 -192.501 55s-61.834 77.334 -72.501 122.001c-5.33301 20 -8.5 40 -9.5 60s-1.5 38 -1.5 54v429v0z" />
    <glyph glyph-name="V" unicode="V" horiz-adv-x="594" 
d="M297 97l198 603h103l-244 -700h-113l-245 700h103l198 -603v0z" />
    <glyph glyph-name="W" unicode="W" horiz-adv-x="893" 
d="M447 589l-145 -589h-120l-186 700h106l146 -588l145 588h108l145 -588l146 588h105l-185 -700h-120l-145 589v0z" />
    <glyph glyph-name="X" unicode="X" horiz-adv-x="607" 
d="M305 291l-184 -291h-121l245 358l-232 342h117l176 -275l178 275h108l-230 -340l245 -360h-119l-183 291v0z" />
    <glyph glyph-name="Y" unicode="Y" horiz-adv-x="605" 
d="M303 376l194 324h112l-259 -408v-292h-94v292l-260 408h112l195 -324v0z" />
    <glyph glyph-name="Z" unicode="Z" horiz-adv-x="593" 
d="M432 621h-384v79h499v-75l-411 -546h431v-79h-541v86l406 535v0z" />
    <glyph glyph-name="bracketleft" unicode="[" horiz-adv-x="370" 
d="M106 700h211v-62h-123v-761h123v-62h-211v885v0z" />
    <glyph glyph-name="backslash" unicode="\" horiz-adv-x="409" 
d="M409 -185h-53l-356 885h52l357 -885v0z" />
    <glyph glyph-name="bracketright" unicode="]" horiz-adv-x="370" 
d="M53 700h211v-885h-211v62h122v761h-122v62v0z" />
    <glyph glyph-name="asciicircum" unicode="^" horiz-adv-x="498" 
d="M156 700h185l101 -138h-74l-120 103l-119 -103h-73l100 138v0z" />
    <glyph glyph-name="underscore" unicode="_" horiz-adv-x="497" 
d="M0 -185v52h497v-52h-497v0z" />
    <glyph glyph-name="grave" unicode="`" horiz-adv-x="312" 
d="M147 700l71 -132h-79l-97 132h105v0z" />
    <glyph glyph-name="a" unicode="a" horiz-adv-x="553" 
d="M139 358l-84 -0.000976562v1.5v1.5v0.5v1.5v8.5c0 3 0.333008 6.16699 1 9.5c4 36.667 22 70.334 54 101.001s85.667 46 161 46c63.333 0 109 -10.833 137 -32.5s46.667 -45.167 56 -70.5c4 -12.667 6.5 -24.834 7.5 -36.501s1.5 -22.167 1.5 -31.5l-5 -235v-2.5v-2.5
v-2.5v-2.5c0 -17.333 2.66699 -30 8 -38s18 -12 38 -12h2h2h1h2v-62h-2.5h-2.5c-5.33301 -1.33301 -10.666 -2.16602 -15.999 -2.49902s-11.666 -0.5 -18.999 -0.5c-22.667 0 -42.167 3.5 -58.5 10.5s-27.166 27.833 -32.499 62.5c-10 -18 -21.833 -32.667 -35.5 -44
s-27.834 -20 -42.501 -26c-20 -8.66699 -39 -14 -57 -16s-31 -3 -39 -3c-50.667 0 -88.334 8.33301 -113.001 25s-42 35 -52 55c-6.66699 14.667 -10.667 28.5 -12 41.5s-2 23.167 -2 30.5c0 40 14.667 74.5 44 103.5s97.666 48.167 204.999 57.5c4 0.666992 8 1 12 1
s8 0.333008 12 1c26 2 45 6.33301 57 13s18 25 18 55c0 28.667 -6.16699 50.167 -18.5 64.5s-25.833 24.166 -40.5 29.499c-11.333 4 -22 6.33301 -32 7s-17.333 1 -22 1h-0.5h-0.5h-0.5h-0.5c-5.33301 0 -14 -0.333008 -26 -1s-24.333 -3 -37 -7
c-17.333 -6 -33 -16.167 -47 -30.5s-21 -36.166 -21 -65.499v-0.5v-1.5v-1.5v-0.5v0zM383 216.999l1.99805 43c-8.66699 -6.66699 -17.334 -11 -26.001 -13s-18 -3.66699 -28 -5c-2 0 -4 -0.166992 -6 -0.5s-4 -0.5 -6 -0.5
c-54.667 -4.66699 -100.167 -12.834 -136.5 -24.501s-54.5 -38.5 -54.5 -80.5c0 -4.66699 0.666992 -11 2 -19s4 -16.333 8 -25c5.33301 -12.667 14.833 -24.167 28.5 -34.5s33.5 -15.5 59.5 -15.5c42.667 0 74.834 9.83301 96.501 29.5s36.834 41.5 45.501 65.5
c6 15.333 9.83301 30.333 11.5 45s2.83398 26.334 3.50098 35.001v0z" />
    <glyph glyph-name="b" unicode="b" horiz-adv-x="601" 
d="M72 700h88.0049v-258c19.333 32 42.666 54.333 69.999 67s59.666 19 96.999 19c79.333 0 137.666 -25.167 174.999 -75.5s56 -116.166 56 -197.499c0 -94.667 -21.833 -162.667 -65.5 -204s-91.834 -64.333 -144.501 -69c-3.33301 0 -7 -0.166992 -11 -0.5
s-8 -0.5 -12 -0.5c-39.333 0 -71.833 7.66699 -97.5 23s-45.834 32.666 -60.501 51.999c-2 2 -3.83301 4.33301 -5.5 7l-4.5 7h3v-70h-88v700v0zM154.005 257c0 -73.333 14.668 -127.502 44.001 -162.502s65.333 -52.5 108 -52.5c4 0 8.16699 0.166992 12.5 0.5
s8.83301 0.833008 13.5 1.5c33.333 4.66699 63.833 22.334 91.5 53.001s41.5 83.334 41.5 158.001s-14.5 127.5 -43.5 158.5s-60.5 48.167 -94.5 51.5c-2.66699 0.666992 -5.33398 1 -8.00098 1h-8c-6 0 -16.167 -1 -30.5 -3s-29.5 -7.66699 -45.5 -17
c-20 -11.333 -38.5 -31.5 -55.5 -60.5s-25.5 -71.833 -25.5 -128.5v0z" />
    <glyph glyph-name="c" unicode="c" horiz-adv-x="548" 
d="M428 181l84.001 0.000976562c-1.33301 -10 -3 -20.667 -5 -32s-5.33301 -22.666 -10 -33.999c-12 -34 -33.667 -64.833 -65 -92.5s-78.333 -41.5 -141 -41.5c-73.333 0 -127.333 17 -162 51s-58 71.333 -70 112c-6.66699 20.667 -11 41 -13 61s-3 37.667 -3 53
c0 14.667 0.833008 30.167 2.5 46.5s4.5 33.166 8.5 50.499c11.333 43.333 34.166 83 68.499 119s88.5 54 162.5 54c70 0 121.833 -16.333 155.5 -49s54.834 -68.667 63.501 -108l2 -10.5l2 -11.5h-84c-0.666992 4 -1.5 8 -2.5 12s-2.16699 8 -3.5 12
c-6.66699 23.333 -19.834 44.666 -39.501 63.999s-50.167 29 -91.5 29c-58.667 0 -98.5 -21.667 -119.5 -65s-31.5 -91 -31.5 -143c0 -5.33301 0.166992 -10.833 0.5 -16.5s0.5 -11.167 0.5 -16.5c4 -46 17.667 -88 41 -126s61.666 -57 114.999 -57
c35.333 0 62.5 8.66699 81.5 26s32.833 36.333 41.5 57c4 10 6.83301 19.833 8.5 29.5s2.83398 18.5 3.50098 26.5v0z" />
    <glyph glyph-name="d" unicode="d" horiz-adv-x="599" 
d="M439 700l87.999 -0.000976562v-700h-88l5 70h-2l-6 -10c-2 -3.33301 -4.33301 -7 -7 -11c-12.667 -17.333 -31.167 -33 -55.5 -47s-57.5 -21 -99.5 -21c-80.667 0 -139.334 27.5 -176.001 82.5s-55 118.833 -55 191.5c0 6.66699 0.166992 13.334 0.5 20.001
s0.833008 13.667 1.5 21c4.66699 58 23.334 111.167 56.001 159.5s89.667 72.5 171 72.5c37.333 0 69.833 -6.33301 97.5 -19s50.834 -35 69.501 -67v258v0zM135.999 254.999c0 -60 8.83301 -104.832 26.5 -134.499s37.167 -50.167 58.5 -61.5
c14 -7.33301 27.5 -12 40.5 -14s23.5 -3 31.5 -3c4 0 8.16699 0.166992 12.5 0.5s8.5 0.833008 12.5 1.5c32 5.33301 61 23.666 87 54.999s39 84 39 158c0 74.667 -15.167 127.5 -45.5 158.5s-63.5 47.833 -99.5 50.5h-5.5h-5.5c-38.667 0 -73.667 -15.333 -105 -46
s-47 -85.667 -47 -165v0z" />
    <glyph glyph-name="e" unicode="e" horiz-adv-x="570" 
d="M438 147l84 -0.00195312c-2 -9.33301 -4.5 -19.166 -7.5 -29.499s-7.5 -20.833 -13.5 -31.5c-13.333 -26.667 -35.5 -50.834 -66.5 -72.501s-75.833 -32.5 -134.5 -32.5c-10 0 -26.667 1 -50 3s-48 8.66699 -74 20c-33.333 14.667 -63.833 40.834 -91.5 78.501
s-41.5 94.167 -41.5 169.5c0 84 20.333 151 61 201s103 75 187 75c91.333 0 152.833 -27.333 184.5 -82s48.834 -125.334 51.501 -212.001h-391c0.666992 -10.667 1.83398 -22.667 3.50098 -36s4.5 -26.666 8.5 -39.999c9.33301 -29.333 25.166 -56 47.499 -80
s56.166 -36 101.499 -36c38.667 0 70.5 9.83301 95.5 29.5s40.167 44.834 45.5 75.501v0zM136 295.998h298.002c0 9.33301 -0.833008 20 -2.5 32s-4.16699 24 -7.5 36c-7.33301 25.333 -20.833 48.666 -40.5 69.999s-49.834 32 -90.501 32
c-50.667 0 -87.834 -14.167 -111.501 -42.5s-38.167 -59.166 -43.5 -92.499c-0.666992 -6 -1.16699 -12 -1.5 -18s-0.5 -11.667 -0.5 -17v0z" />
    <glyph glyph-name="f" unicode="f" horiz-adv-x="319" 
d="M306 508l-0.000976562 -62h-111v-446h-88v446h-94v62h94v69c0 47.333 12 80.333 36 99s56.667 28 98 28c1.33301 0 7.33301 -0.166992 18 -0.5s26.334 -1.5 47.001 -3.5v-62h-7.5c-2.33301 0 -4.83301 0.333008 -7.5 1h-6.5h-7.5c-2 0 -3.83301 0.166992 -5.5 0.5
s-3.16699 0.5 -4.5 0.5h-4.5h-5.5h-3h-3c-1.33301 0 -2.5 -0.166992 -3.5 -0.5s-2.16699 -0.5 -3.5 -0.5c-14 -2 -24.5 -6.66699 -31.5 -14s-11.5 -15.333 -13.5 -24c-2 -6 -3.16699 -11.667 -3.5 -17s-0.5 -10 -0.5 -14v-0.5v-0.5v-61h111v0z" />
    <glyph glyph-name="g" unicode="g" horiz-adv-x="600" 
d="M82 -57l83.999 -0.00390625c4.66699 -18 13.834 -32 27.501 -42s28.167 -17.333 43.5 -22c12 -3.33301 23.833 -5.5 35.5 -6.5s20.834 -1.5 27.501 -1.5c5.33301 0 14.333 0.666992 27 2s26 5.33301 40 12c18.667 8.66699 35.5 23.834 50.5 45.501s22.5 54.167 22.5 97.5
v55c-2 -3.33301 -4 -6.5 -6 -9.5s-4 -5.83301 -6 -8.5c-20 -29.333 -41.167 -50.666 -63.5 -63.999s-51.833 -20 -88.5 -20c-5.33301 0 -10.666 0.166992 -15.999 0.5s-10.666 0.833008 -15.999 1.5c-49.333 6.66699 -94.5 30.5 -135.5 71.5s-61.5 108.833 -61.5 203.5
c0 72 11.833 126.667 35.5 164s49.5 63.666 77.5 78.999c22.667 12.667 44.167 20.334 64.5 23.001s34.5 4 42.5 4h0.5h0.5c6 0 18.167 -0.666992 36.5 -2s37.5 -6.33301 57.5 -15c15.333 -6.66699 30.166 -15.667 44.499 -27s26.166 -26.666 35.499 -45.999h3l-2 70h85
v-495c0 -54.667 -12.167 -96.167 -36.5 -124.5s-50.833 -48.166 -79.5 -59.499c-24.667 -10 -47.667 -16 -69 -18s-35.666 -3 -42.999 -3h-8.5h-10.5c-11.333 0 -24.833 0.833008 -40.5 2.5s-32.167 5.5 -49.5 11.5c-22.667 7.33301 -44.334 20.5 -65.001 39.5
s-35.334 46.5 -44.001 82.5v-1zM295.999 41.9961c4 0 7.99902 0.169922 11.999 0.50293s7.66699 0.833008 11 1.5c30.667 5.33301 58.834 23.666 84.501 54.999s38.5 85 38.5 161c0 69.333 -13.833 121 -41.5 155s-65.167 51 -112.5 51c-53.333 0 -91.333 -19.667 -114 -59
s-34 -88 -34 -146c0 -66 10 -114.333 30 -145s42 -51.334 66 -62.001c10.667 -4.66699 21.167 -7.83398 31.5 -9.50098s19.833 -2.5 28.5 -2.5v0z" />
    <glyph glyph-name="h" unicode="h" horiz-adv-x="572" 
d="M72 700h87.9971v-263c22 29.333 46.833 51.833 74.5 67.5s60.834 23.5 99.501 23.5c52 0 89.5 -11.667 112.5 -35s38.167 -48.666 45.5 -75.999c3.33301 -14.667 5.5 -28.834 6.5 -42.501s1.5 -25.834 1.5 -36.501v-338h-88v311v4v5c0 8 -0.166992 16.833 -0.5 26.5
s-1.16602 19.5 -2.49902 29.5c-3.33301 22.667 -12.166 43.334 -26.499 62.001s-39.833 28 -76.5 28c-7.33301 0 -17 -0.833008 -29 -2.5s-24.333 -5.5 -37 -11.5c-20 -10 -38.333 -28.167 -55 -54.5s-25 -66.5 -25 -120.5v-277h-88v700v0z" />
    <glyph glyph-name="i" unicode="i" horiz-adv-x="228" 
d="M70 508h88v-508h-88v508v0zM70 608v92h88v-92h-88v0z" />
    <glyph glyph-name="j" unicode="j" horiz-adv-x="234" 
d="M73 508l88.002 0.00195312v-555c0 -48 -9 -83.5 -27 -106.5s-49 -34.5 -93 -34.5c-3.33301 0 -7 0.166992 -11 0.5s-8 0.5 -12 0.5c-2.66699 0 -5.16699 0.166992 -7.5 0.5s-4.83301 0.5 -7.5 0.5c-3.33301 0.666992 -6.66602 1.16699 -9.99902 1.5s-6 0.5 -8 0.5l-1 61
c4.66699 1.33301 8 2.16602 10 2.49902s4 0.5 6 0.5h0.5h0.5c1.33301 0 2.66602 0.166992 3.99902 0.5s2.66602 0.5 3.99902 0.5c3.33301 0 7.16602 0.166992 11.499 0.5s8.5 1.16602 12.5 2.49902c10 2.66699 19.167 9.66699 27.5 21s12.5 31.333 12.5 60v543v0z
M69.002 608.002v92h95v-92h-95v0z" />
    <glyph glyph-name="k" unicode="k" horiz-adv-x="523" 
d="M160 266l242 242h105l-200 -196l220 -312h-102l-179 258l-86 -85v-173h-88v700h88v-434v0z" />
    <glyph glyph-name="l" unicode="l" horiz-adv-x="232" 
d="M72 700h88v-700h-88v700v0z" />
    <glyph glyph-name="m" unicode="m" horiz-adv-x="872" 
d="M72 508l88 -0.00195312v-69l-1 -6c10.667 23.333 26.334 42.5 47.001 57.5s42.667 25.5 66 31.5c7.33301 2 14.666 3.5 21.999 4.5s14.666 1.5 21.999 1.5c38.667 0 68.667 -8.66699 90 -26s36.666 -36.333 45.999 -57c2 -4.66699 3.66699 -9.16699 5 -13.5l4 -12.5
c2 4 4.33301 8.16699 7 12.5l8 13.5c14.667 20.667 35 39.667 61 57s59.333 26 100 26c46.667 0 81.334 -11 104.001 -33s38.334 -46 47.001 -72c6 -19.333 9.5 -37.666 10.5 -54.999s1.5 -30.666 1.5 -39.999v-328h-88v322c0 8 -0.166992 17.333 -0.5 28
s-1.83301 21.334 -4.5 32.001c-4 21.333 -12.667 40.666 -26 57.999s-35.666 26 -66.999 26c-34.667 0 -65.667 -12 -93 -36s-41 -66.333 -41 -127v-303h-88v321c0 41.333 -7.16699 75.833 -21.5 103.5s-39.833 41.5 -76.5 41.5h-5.5h-5.5
c-30.667 -3.33301 -58.834 -18.5 -84.501 -45.5s-38.5 -66.167 -38.5 -117.5v-303h-88v508v0z" />
    <glyph glyph-name="n" unicode="n" horiz-adv-x="573" 
d="M72 508l88.002 -0.00195312v-71c19.333 28 44 50.167 74 66.5s63.333 24.5 100 24.5c64 0 107.167 -17.167 129.5 -51.5s34.5 -72.166 36.5 -113.499c0.666992 -4 1 -8.16699 1 -12.5v-12.5v-338h-88v311v20c0 6.66699 -0.333008 13.334 -1 20.001
c-2 28.667 -9.5 55 -22.5 79s-40.833 36 -83.5 36c-6.66699 0 -13.334 -0.333008 -20.001 -1s-13.334 -2 -20.001 -4c-26.667 -7.33301 -51 -24.333 -73 -51s-33 -71 -33 -133v-277h-88v508v0z" />
    <glyph glyph-name="o" unicode="o" horiz-adv-x="585" 
d="M43 255c0 86 22 152.999 66 200.999s105 72 183 72c77.333 0 138.333 -24.167 183 -72.5s67 -115.166 67 -200.499c0 -84.667 -22.333 -151.5 -67 -200.5s-105.667 -73.5 -183 -73.5c-78 0 -139 24.333 -183 73s-66 115.667 -66 201v0zM136 254.999
c0 -8 0.169922 -15.999 0.50293 -23.999s1.16602 -16 2.49902 -24c4.66699 -41.333 18 -79.166 40 -113.499s59.667 -51.5 113 -51.5s91.166 17.167 113.499 51.5s35.833 72.166 40.5 113.499c1.33301 8 2.16602 16 2.49902 24s0.5 16 0.5 24
c0 7.33301 -0.166992 14.666 -0.5 21.999s-0.833008 15 -1.5 23c-4.66699 41.333 -18.167 79.333 -40.5 114s-60.5 52 -114.5 52c-54.667 0 -93 -17.667 -115 -53s-35 -74 -39 -116c-0.666992 -7.33301 -1.16699 -14.5 -1.5 -21.5s-0.5 -13.833 -0.5 -20.5v0z" />
    <glyph glyph-name="p" unicode="p" horiz-adv-x="597" 
d="M72 508l83.999 0.000976562l-1 -69h2c24.667 34 51.334 57.333 80.001 70s58 19 88 19c70 0 125.667 -23.833 167 -71.5s62 -115.167 62 -202.5c0 -90.667 -21.5 -158.834 -64.5 -204.501s-97.167 -68.5 -162.5 -68.5h-5.5h-5.5c-31.333 2 -61.333 10.333 -90 25
s-50.667 37 -66 67v-258h-88v693v0zM153.999 252.001c0 -72.667 16.3311 -125.832 48.998 -159.499s68.667 -50.5 108 -50.5c40.667 0 75.834 16.667 105.501 50s44.5 87.333 44.5 162c0 71.333 -14.5 124.5 -43.5 159.5s-66.167 52.5 -111.5 52.5
c-7.33301 0 -15.166 -0.666992 -23.499 -2s-16.833 -3.33301 -25.5 -6c-26 -9.33301 -49.667 -29.333 -71 -60s-32 -79.334 -32 -146.001v0z" />
    <glyph glyph-name="q" unicode="q" horiz-adv-x="598" 
d="M438 508l87.9971 0.00195312v-693h-88v257c-19.333 -32.667 -42.5 -56 -69.5 -70s-59.5 -21 -97.5 -21c-63.333 0 -111 15.833 -143 47.5s-54.333 66.5 -67 104.5c-7.33301 23.333 -12.166 45.666 -14.499 66.999s-3.5 39.333 -3.5 54
c0 83.333 20.833 149.833 62.5 199.5s97.834 74.5 168.501 74.5c23.333 0 43.333 -2.33301 60 -7s32.334 -12.334 47.001 -23.001c9.33301 -6.66699 18.5 -14.167 27.5 -22.5l29.5 -28.5v4v57v0zM135.997 254.002c0 -67.333 11.332 -116.33 33.999 -146.997
s47.667 -50.334 75 -59.001c7.33301 -2 14.666 -3.5 21.999 -4.5s14.333 -1.5 21 -1.5c8.66699 0 17.834 1 27.501 3s19.5 5.33301 29.5 10c24.667 11.333 47.334 32.166 68.001 62.499s31 75.166 31 134.499s-8.5 103.833 -25.5 133.5s-35.5 50.5 -55.5 62.5
c-14 8 -27.333 13 -40 15s-22.667 3 -30 3c-4 0 -8.16699 -0.166992 -12.5 -0.5s-8.83301 -0.833008 -13.5 -1.5c-32.667 -5.33301 -62.667 -23.5 -90 -54.5s-41 -82.833 -41 -155.5v0z" />
    <glyph glyph-name="r" unicode="r" horiz-adv-x="369" 
d="M356 528l0.000976562 -62.001c-64.667 -3.33301 -112.334 -18.666 -143.001 -45.999s-48 -71.333 -52 -132c-0.666992 -8.66699 -1 -17.5 -1 -26.5v-27.5v-234h-88v508h88v-98h2c11.333 34.667 32.333 62.5 63 83.5s65.667 32.167 105 33.5l26 1v0z" />
    <glyph glyph-name="s" unicode="s" horiz-adv-x="506" 
d="M36 151l87.9961 -0.000976562c0.666992 -34 11.334 -59 32.001 -75s43.334 -26.333 68.001 -31l19.5 -2c6.33301 -0.666992 12.5 -1 18.5 -1h4h4c27.333 1.33301 52.333 8.66602 75 21.999s34 38 34 74c0 18 -6.16699 34 -18.5 48s-41.5 26.333 -87.5 37
c-3.33301 0.666992 -7 1.5 -11 2.5s-8.33301 1.83301 -13 2.5l-31.5 6c-11 2 -22.167 4.33301 -33.5 7c-31.333 8 -60.166 21.833 -86.499 41.5s-39.5 52.834 -39.5 99.501s14.333 80.5 43 101.5s60 34.5 94 40.5c10 1.33301 19.667 2.33301 29 3s18.333 1 27 1
c67.333 0 115.666 -12.333 144.999 -37s47.666 -51.667 54.999 -81c2 -6 3.33301 -11.833 4 -17.5l2 -17.5h-84c0 4 -0.5 8.33301 -1.5 13s-2.16699 9.33398 -3.5 14.001c-6 16 -17.5 30.667 -34.5 44s-43.5 20 -79.5 20c-37.333 0 -64.166 -8.16699 -80.499 -24.5
s-24.5 -34.833 -24.5 -55.5c0 -31.333 11 -52.166 33 -62.499s48 -18.833 78 -25.5c5.33301 -0.666992 10.333 -1.5 15 -2.5s9.66699 -2.16699 15 -3.5c0.666992 0 1.33398 -0.166992 2.00098 -0.5s1.33398 -0.5 2.00098 -0.5c55.333 -12 98.5 -27.333 129.5 -46
s46.5 -52.334 46.5 -101.001v-2.5v-3.5c-1.33301 -39.333 -17.5 -75.333 -48.5 -108s-84.5 -49 -160.5 -49c-76.667 0 -132 16.167 -166 48.5s-53.333 68.5 -58 108.5c0 2 -0.166992 4.16699 -0.5 6.5s-0.5 4.5 -0.5 6.5v0z" />
    <glyph glyph-name="t" unicode="t" horiz-adv-x="320" 
d="M13 508l91.0039 0.00195312v152h88v-152h108v-62h-108v-323v-3.5v-3.5v-1.5v-1.5c0 -14.667 2.33301 -28.334 7 -41.001s20 -19 46 -19h7.5c2.33301 0 4.83301 0.333008 7.5 1c6.66699 0.666992 13.667 1.66699 21 3s13.666 3 18.999 5v-62
c-4.66699 -1.33301 -9.33398 -2.83301 -14.001 -4.5s-9.33398 -3.16699 -14.001 -4.5c-11.333 -3.33301 -22.5 -5.83301 -33.5 -7.5s-21.167 -2.5 -30.5 -2.5c-38 0 -63.833 7.83301 -77.5 23.5s-21.834 33.167 -24.501 52.5c-1.33301 7.33301 -2 14.666 -2 21.999v20v3.5
v2.5v341h-91v62v0z" />
    <glyph glyph-name="u" unicode="u" horiz-adv-x="573" 
d="M501 0l-88 -0.000976562v72h-2c-16 -28 -37.167 -49.167 -63.5 -63.5s-53.833 -23.166 -82.5 -26.499c-4.66699 0 -9.16699 -0.166992 -13.5 -0.5s-8.5 -0.5 -12.5 -0.5c-52.667 0 -90.5 11.667 -113.5 35s-38.167 49 -45.5 77c-3.33301 14.667 -5.5 28.667 -6.5 42
s-1.5 25.333 -1.5 36v337h88v-311c0 -67.333 10.667 -110 32 -128s46.333 -27 75 -27c44 0 76 11 96 33s33.667 46 41 72c4 16 6.5 31.5 7.5 46.5s1.5 27.5 1.5 37.5v277h88v-508v0z" />
    <glyph glyph-name="v" unicode="v" horiz-adv-x="471" 
d="M238 88l143 420h94l-189 -508h-99l-191 508h95l147 -420v0z" />
    <glyph glyph-name="w" unicode="w" horiz-adv-x="721" 
d="M361 407l-106 -407h-94l-165 508h91l124 -407l107 407h85l106 -407l125 407h91l-165 -508h-92l-107 407v0z" />
    <glyph glyph-name="x" unicode="x" horiz-adv-x="484" 
d="M242 320l130 188h98l-178 -243l192 -265h-98l-144 209l-144 -209h-98l192 265l-178 243h98l130 -188v0z" />
    <glyph glyph-name="y" unicode="y" horiz-adv-x="498" 
d="M91 -184v64.998l29.5 -3c6.33301 -0.666992 11.166 -1 14.499 -1c24 0 41.167 7.33301 51.5 22s19.5 34.667 27.5 60c0 0.666992 0.166992 1.33398 0.5 2.00098s0.5 1.33398 0.5 2.00098l12 37l-220 508h105l163 -411l135 411h88l-202 -568
c-1.33301 -2.66699 -2.5 -5.83398 -3.5 -9.50098s-2.16699 -7.16699 -3.5 -10.5c-10 -27.333 -23.5 -52.166 -40.5 -74.499s-45.5 -33.5 -85.5 -33.5c-13.333 0 -26.166 0.333008 -38.499 1s-23.5 2 -33.5 4v-1z" />
    <glyph glyph-name="z" unicode="z" horiz-adv-x="468" 
d="M47 508h380v-62l-295 -384h310v-62h-416v62l304 384h-283v62v0z" />
    <glyph glyph-name="braceleft" unicode="{" horiz-adv-x="497" 
d="M145 262l0.00195312 66.001c1.33301 0 2.66602 0.166992 3.99902 0.5s2.66602 0.5 3.99902 0.5c20 3.33301 38.5 14.5 55.5 33.5s25.5 52.5 25.5 100.5v14c0 4.66699 -0.333008 9.33398 -1 14.001c0 4 -0.166992 8.33301 -0.5 13s-0.5 9.33398 -0.5 14.001
s-0.166992 9.16699 -0.5 13.5s-0.5 8.83301 -0.5 13.5c-0.666992 4 -1 8.16699 -1 12.5v13.5c0 8 0.333008 16.167 1 24.5s2 16.5 4 24.5c5.33301 28.667 18.833 55.167 40.5 79.5s58.5 37.5 110.5 39.5v-53c-18 -4.66699 -31.833 -11.667 -41.5 -21s-16.5 -19 -20.5 -29
c-3.33301 -8.66699 -5.5 -17 -6.5 -25s-1.5 -14.667 -1.5 -20v-13.5c0 -4.33301 0.333008 -8.5 1 -12.5c0 -4.66699 0.166992 -9.16699 0.5 -13.5s0.833008 -8.83301 1.5 -13.5s1.16699 -9.5 1.5 -14.5s0.5 -9.83301 0.5 -14.5c0.666992 -4.66699 1 -9.5 1 -14.5v-14.5
c0 -42.667 -8.33301 -78.5 -25 -107.5s-46.667 -53.5 -90 -73.5v-7c43.333 -19.333 73.333 -44 90 -74s25 -66 25 -108c0 -9.33301 -0.166992 -18.833 -0.5 -28.5s-1.16602 -19.167 -2.49902 -28.5c-0.666992 -4.66699 -1.16699 -9.16699 -1.5 -13.5s-0.5 -8.5 -0.5 -12.5
c-0.666992 -4.66699 -1 -9.16699 -1 -13.5v-13.5c0 -24.667 4.83301 -43.667 14.5 -57s20.167 -23 31.5 -29c4 -2 8.16699 -3.66699 12.5 -5s8.16602 -2.33301 11.499 -3v-54c-55.333 3.33301 -93.666 18.166 -114.999 44.499s-34.333 55.166 -39 86.499
c-0.666992 6.66699 -1.16699 13 -1.5 19s-0.5 12 -0.5 18v13.5c0 4.33301 0.333008 8.83301 1 13.5c0 4 0.166992 8.16699 0.5 12.5s0.5 8.83301 0.5 13.5c0.666992 9.33301 1.16699 18.5 1.5 27.5s0.5 17.833 0.5 26.5c0 5.33301 -0.166992 10.833 -0.5 16.5
s-0.833008 11.167 -1.5 16.5c-2.66699 24 -10.334 46.167 -23.001 66.5s-34 32.166 -64 35.499v0z" />
    <glyph glyph-name="bar" unicode="|" horiz-adv-x="468" 
d="M208 -224v1053h52v-1053h-52v0z" />
    <glyph glyph-name="braceright" unicode="}" horiz-adv-x="497" 
d="M352 328l0.00292969 -66.002c-24 -2.66699 -42.167 -10.834 -54.5 -24.501s-20.833 -28.5 -25.5 -44.5c-4.66699 -14 -7.33398 -27.167 -8.00098 -39.5s-1 -21.166 -1 -26.499c0 -8.66699 0.166992 -17.5 0.5 -26.5s0.833008 -18.167 1.5 -27.5
c0 -4.66699 0.166992 -9.16699 0.5 -13.5s0.5 -8.5 0.5 -12.5c0.666992 -4.66699 1 -9.16699 1 -13.5v-13.5c0 -9.33301 -0.5 -20 -1.5 -32s-3.83301 -24.667 -8.5 -38c-7.33301 -22.667 -21.833 -43.667 -43.5 -63s-55.834 -30.666 -102.501 -33.999v52
c24.667 5.33301 42.5 16.333 53.5 33s16.5 37.334 16.5 62.001v13.5c0 4.33301 -0.333008 8.83301 -1 13.5c0 4 -0.166992 8.16699 -0.5 12.5s-0.833008 8.83301 -1.5 13.5l-2 28.5c-0.666992 9.66699 -1 19.167 -1 28.5c0 42.667 8.33301 78.667 25 108s47 54 91 74v7
c-44 20.667 -74.333 45.167 -91 73.5s-25 64.166 -25 107.499v14.5c0 5 0.333008 9.83301 1 14.5c0 4.66699 0.166992 9.5 0.5 14.5s0.833008 9.83301 1.5 14.5s1.16699 9.16699 1.5 13.5s0.5 8.83301 0.5 13.5c0.666992 4 1 8.16699 1 12.5v13.5
c0 25.333 -5.5 45.833 -16.5 61.5s-28.833 26.834 -53.5 33.501v53c41.333 -2.66699 77.666 -16 108.999 -40s47 -66.667 47 -128v-13.5c0 -4.33301 -0.333008 -8.5 -1 -12.5c0 -4.66699 -0.166992 -9.16699 -0.5 -13.5s-0.5 -8.83301 -0.5 -13.5
s-0.166992 -9.33398 -0.5 -14.001s-0.5 -9 -0.5 -13c-0.666992 -4.66699 -1 -9.33398 -1 -14.001v-14c0 -43.333 7.33301 -74.666 22 -93.999s30.667 -31.666 48 -36.999c3.33301 -1.33301 6.5 -2.33301 9.5 -3s6.16699 -1 9.5 -1v0z" />
    <glyph glyph-name="asciitilde" unicode="~" horiz-adv-x="496" 
d="M357 400l68 0.00195312c-1.33301 -6 -3.5 -12.833 -6.5 -20.5s-6.5 -15.5 -10.5 -23.5c-8 -16 -19.167 -30.667 -33.5 -44s-33.166 -20 -56.499 -20c-3.33301 0 -6.83301 0.166992 -10.5 0.5s-7.16699 0.833008 -10.5 1.5c-9.33301 1.33301 -19.333 3.83301 -30 7.5
s-24 8.5 -40 14.5c-2.66699 1.33301 -5.33398 2.33301 -8.00098 3s-5.33398 1.66699 -8.00098 3c-4.66699 1.33301 -9.66699 2.5 -15 3.5s-11 1.5 -17 1.5c-2.66699 0 -5.83398 -0.333008 -9.50098 -1s-7.5 -2 -11.5 -4s-7.66699 -4.83301 -11 -8.5
s-6.33301 -8.83398 -9 -15.501h-67c4 26 12.167 46.667 24.5 62s25.833 26.333 40.5 33c6.66699 3.33301 13.334 5.66602 20.001 6.99902s12.667 2 18 2h7.5c2.33301 0 4.5 -0.333008 6.5 -1c8.66699 -0.666992 17 -2.16699 25 -4.5s15.667 -4.83301 23 -7.5
c4.66699 -2 9.16699 -3.83301 13.5 -5.5l11.5 -4.5c2 -0.666992 4.33301 -1.5 7 -2.5s5.33398 -1.83301 8.00098 -2.5c1.33301 -0.666992 2.83301 -1.16699 4.5 -1.5s3.16699 -0.833008 4.5 -1.5c5.33301 -2 10.333 -3.5 15 -4.5s8.66699 -1.5 12 -1.5
c11.333 0 20.333 3 27 9s12.667 14.667 18 26v0z" />
    <glyph glyph-name="space" 
 />
    <glyph glyph-name="F" horiz-adv-x="871" 
d="M62 621l0.000976562 79.001h549v-79h-227v-225c5.33301 0.666992 12.5 1.16699 21.5 1.5s18.833 0.833008 29.5 1.5c5.33301 0.666992 10.5 1 15.5 1s10.167 0.333008 15.5 1c13.333 0.666992 26.333 1.16699 39 1.5s23.334 0.5 32.001 0.5c76 0 131 -13 165 -39
s56.333 -54.667 67 -86c4.66699 -14 7.83398 -27.833 9.50098 -41.5s2.5 -26.167 2.5 -37.5c0 -62 -12.833 -108 -38.5 -138s-53.834 -50.333 -84.501 -61c-19.333 -7.33301 -38 -12 -56 -14s-33 -3 -45 -3c-4.66699 0 -9.83398 0.5 -15.501 1.5s-11.5 2.16699 -17.5 3.5
c-2.66699 0.666992 -5.33398 1.16699 -8.00098 1.5s-5.33398 0.833008 -8.00098 1.5c-2.66699 1.33301 -5.5 2.33301 -8.5 3s-5.83301 1.33398 -8.5 2.00098v79l6 -2l6 -2c4 -1.33301 8.33301 -2.5 13 -3.5s9.33398 -2.16699 14.001 -3.5l14.5 -2
c5 -0.666992 9.5 -1 13.5 -1h6.5h6.5c28.667 2.66699 55.167 13.667 79.5 33s36.5 52 36.5 98c0 7.33301 -0.166992 15.666 -0.5 24.999s-2.16602 18.666 -5.49902 27.999c-6 20 -20.333 38.167 -43 54.5s-62.334 24.5 -119.001 24.5c-9.33301 0 -20.333 -0.333008 -33 -1
l-38 -2c-6.66699 0 -13.167 -0.166992 -19.5 -0.5s-12.5 -0.833008 -18.5 -1.5c-4.66699 -0.666992 -9.16699 -1.16699 -13.5 -1.5s-8.5 -0.5 -12.5 -0.5v-317h-94v621h-228v0z" />
    <glyph glyph-name="asciitilde" horiz-adv-x="544" 
d="M179 621v-621h-94v700h446v-79h-352v0z" />
    <glyph glyph-name="D" horiz-adv-x="627" 
d="M179 381l315 319h115l-333 -324l355 -376h-123l-329 365v-365h-94v700h94v-319v0z" />
    <glyph glyph-name="N" horiz-adv-x="871" 
d="M781 0l-93.999 -0.000976562v205c0 57.333 -14.667 91.5 -44 102.5s-70.666 16.5 -123.999 16.5c-9.33301 0 -19.666 -0.166992 -30.999 -0.5s-23 -0.833008 -35 -1.5c-8 -0.666992 -15.667 -1.16699 -23 -1.5s-14.333 -0.833008 -21 -1.5
c-4.66699 -0.666992 -9 -1.16699 -13 -1.5s-8 -0.5 -12 -0.5v-317h-94v621h-228v79h549v-79h-227v-225c6 0.666992 13.5 1.16699 22.5 1.5s18.5 0.833008 28.5 1.5c5.33301 0.666992 10.666 1 15.999 1s10.666 0.333008 15.999 1c12.667 0.666992 25.167 1.16699 37.5 1.5
s23.166 0.5 32.499 0.5c92.667 0 156.5 -12.667 191.5 -38s52.5 -73.666 52.5 -144.999v-220v0z" />
    <glyph glyph-name="bullet" horiz-adv-x="724" 
d="M539 79v621h95v-700h-231v-158h-82v158h-231v700h94v-621h355v0z" />
    <glyph glyph-name="guilsinglleft" horiz-adv-x="584" 
d="M80 700h88.0039v-63h211v-62h-211v-138c21.333 29.333 45.166 51.833 71.499 67.5s58.166 23.5 95.499 23.5c86 0 138.667 -30.167 158 -90.5s29 -136.5 29 -228.5c0 -103.333 -12 -194.5 -36 -273.5s-88.667 -118.833 -194 -119.5v64h22
c48.667 0.666992 79.667 27 93 79s20.666 109.333 21.999 172v35v34v3.5v3.5c0 77.333 -5.33301 139.833 -16 187.5s-44.334 71.5 -101.001 71.5c-44.667 0 -77 -11 -97 -33s-33 -46 -39 -72c-4 -16 -6.33301 -31.5 -7 -46.5s-1 -27.5 -1 -37.5v-277h-88v575h-80v62h80v63v0
z" />
    <glyph glyph-name="O" horiz-adv-x="489" 
d="M160 286l217 222h103l-238 -236l251 -272h-105l-228 254v-254h-88v508h88v-222v0z" />
    <glyph glyph-name="tilde" horiz-adv-x="580" 
d="M80 700l87.999 0.000976562v-63h211v-62h-211v-138c21.333 29.333 46 51.833 74 67.5s61.333 23.5 100 23.5c52.667 0 90.5 -11.833 113.5 -35.5s37.833 -49.834 44.5 -78.501c3.33301 -14 5.5 -27.5 6.5 -40.5s1.5 -24.833 1.5 -35.5v-338h-88v311
c0 8.66699 -0.166992 18.167 -0.5 28.5s-1.16602 20.833 -2.49902 31.5c-4 24 -13.167 45.833 -27.5 65.5s-39.833 29.5 -76.5 29.5c-42.667 0 -74 -11 -94 -33s-33.667 -46 -41 -72c-4.66699 -16 -7.5 -31.5 -8.5 -46.5s-1.5 -27.5 -1.5 -37.5v-277h-88v575h-80v62h80v63v0
z" />
    <glyph glyph-name="greater" unicode="&#xa0;" 
 />
    <glyph glyph-name="Z" unicode="&#xa1;" horiz-adv-x="588" 
d="M325 279l168 421h99l-237 -575c-11.333 -27.333 -23 -49.5 -35 -66.5s-24.333 -30.167 -37 -39.5c-18 -14 -35.833 -22.167 -53.5 -24.5s-33.834 -3.5 -48.501 -3.5h-2h-2h-15.5c-5 0 -9.83301 0.333008 -14.5 1c-8 0.666992 -15.667 1.66699 -23 3s-15.666 3 -24.999 5
v82c4.66699 -2 9.5 -3.66699 14.5 -5l15.5 -4c6 -1.33301 12.167 -2.33301 18.5 -3s12.166 -1 17.499 -1s11 0.333008 17 1s12 2 18 4c14 5.33301 27.833 15.5 41.5 30.5s24.834 38.167 33.501 69.5l-266 526h115l201 -421v0zM141 858l74.0029 -0.00195312
c5.33301 -26.667 15.666 -46.5 30.999 -59.5s37.333 -19.5 66 -19.5c31.333 0 54.5 6.5 69.5 19.5s24.833 32.833 29.5 59.5h74c-11.333 -50 -32.333 -84.167 -63 -102.5s-63.334 -28.166 -98.001 -29.499h-6h-6c-50 0 -89.833 12.833 -119.5 38.5
s-46.834 56.834 -51.501 93.501v0z" />
    <glyph glyph-name="slash" unicode="&#xa2;" horiz-adv-x="497" 
d="M91 -184v64.998l29.5 -3c6.33301 -0.666992 11.166 -1 14.499 -1c24 0 41.167 7.33301 51.5 22s19.5 34.667 27.5 60c0 0.666992 0.166992 1.33398 0.5 2.00098s0.5 1.33398 0.5 2.00098l12 37l-220 508h105l163 -411l135 411h87l-201 -568
c-1.33301 -2.66699 -2.5 -5.83398 -3.5 -9.50098s-2.16699 -7.16699 -3.5 -10.5c-10 -27.333 -23.5 -52.166 -40.5 -74.499s-45.5 -33.5 -85.5 -33.5c-13.333 0 -26.166 0.333008 -38.499 1s-23.5 2 -33.5 4v-1zM91 699.998l74.001 -0.000976562c0 -3.33301 0.5 -7 1.5 -11
s2.16699 -8 3.5 -12c4.66699 -14 14.167 -26.833 28.5 -38.5s35.5 -17.5 63.5 -17.5c32.667 0 56 6.66699 70 20s22.667 28 26 44c0.666992 2 1.16699 4.33301 1.5 7s0.5 5.33398 0.5 8.00098h74c-1.33301 -7.33301 -3.5 -15.833 -6.5 -25.5s-7.5 -19.5 -13.5 -29.5
c-10.667 -19.333 -27.834 -37 -51.501 -53s-57.167 -24 -100.5 -24c-46.667 0 -85.5 12 -116.5 36s-49.167 56 -54.5 96v0z" />
    <glyph glyph-name="endash" unicode="&#xa3;" horiz-adv-x="520" 
d="M23 232l94 0.000976562c0.666992 -50.667 8.5 -92.334 23.5 -125.001s47.5 -49 97.5 -49c47.333 0 78.5 15.333 93.5 46s22.5 73.667 22.5 129v467h94v-458c0 -98 -17.333 -166.167 -52 -204.5s-87.667 -57.5 -159 -57.5s-121.833 15.667 -151.5 47s-48.5 66 -56.5 104
c-2 11.333 -3.5 22.5 -4.5 33.5s-1.5 21.5 -1.5 31.5v36v0z" />
    <glyph glyph-name="quotedblleft" unicode="&#xa4;" horiz-adv-x="825" 
d="M66 53l111.001 110.999c-2.66699 4 -6 9.33301 -10 16s-8.33301 14.334 -13 23.001c-7.33301 15.333 -14 33.666 -20 54.999s-9 45.333 -9 72c0 16.667 1.66699 34.834 5 54.501s9.33301 39.834 18 60.501c3.33301 8.66699 7.5 17.167 12.5 25.5s10.5 16.833 16.5 25.5
l-111 112l66 66l110 -112c6.66699 5.33301 13.167 10 19.5 14s12.833 7.66699 19.5 11c24 12.667 47.5 21.167 70.5 25.5s43.167 6.5 60.5 6.5c16.667 0 36 -1.83301 58 -5.5s44.333 -11.167 67 -22.5c7.33301 -4 14.833 -8.33301 22.5 -13s15.167 -10 22.5 -16l111 112
l66 -66l-111 -112c6 -8.66699 11.5 -17.167 16.5 -25.5s9.5 -16.833 13.5 -25.5c8.66699 -20.667 14.667 -40.834 18 -60.501s5 -37.834 5 -54.501c0 -26.667 -3 -50.667 -9 -72s-12.667 -39.333 -20 -54c-4.66699 -9.33301 -9.16699 -17.333 -13.5 -24l-10.5 -16l111 -111
l-66 -66l-111 111c-3.33301 -2.66699 -7.33301 -5.66699 -12 -9s-9.66699 -6.66602 -15 -9.99902c-15.333 -9.33301 -34.833 -17.833 -58.5 -25.5s-51.834 -11.5 -84.501 -11.5c-17.333 0 -37.5 2 -60.5 6s-46.5 12.333 -70.5 25c-6.66699 3.33301 -13.167 7 -19.5 11
s-12.833 8.66699 -19.5 14l-110 -111l-66 66v0zM199.001 329.999c0 -62.667 21.332 -113.332 63.999 -151.999s89.334 -59.334 140.001 -62.001h5h4c61.333 0 111 20.167 149 60.5s59.667 84.5 65 132.5c0 3.33301 0.166992 6.83301 0.5 10.5s0.5 7.16699 0.5 10.5
c0 60 -20.5 109.5 -61.5 148.5s-85.833 60.833 -134.5 65.5c-3.33301 0.666992 -6.5 1 -9.5 1h-9.5c-21.333 0 -42 -3.5 -62 -10.5s-38 -15.5 -54 -25.5c-18.667 -12 -34 -25.167 -46 -39.5s-21.667 -28.833 -29 -43.5c-8.66699 -17.333 -14.5 -34.333 -17.5 -51
s-4.5 -31.667 -4.5 -45v0z" />
    <glyph glyph-name="emdash" unicode="&#xa5;" horiz-adv-x="549" 
d="M179 621v-621h-94v700h357v158h87l7 -237h-357v0z" />
    <glyph glyph-name="circumflex" unicode="&#xa6;" horiz-adv-x="311" 
d="M106 0v109h99v-109h-99v0zM106 399v109h99v-109h-99v0z" />
    <glyph glyph-name="scaron" unicode="&#xa7;" horiz-adv-x="579" 
d="M452 557h-74c-1.33301 35.333 -7.83301 59.833 -19.5 73.5s-24.5 22.167 -38.5 25.5c-5.33301 1.33301 -10.5 2.16602 -15.5 2.49902s-9.83301 0.5 -14.5 0.5c-27.333 0 -46.666 -7.16699 -57.999 -21.5s-17 -30.833 -17 -49.5c0 -30 11 -52.5 33 -67.5
s47.667 -28.167 77 -39.5c1.33301 -0.666992 2.83301 -1.33398 4.5 -2.00098s3.16699 -1.33398 4.5 -2.00098l21 -8.5c7.33301 -3 14.666 -6.16699 21.999 -9.5c34 -15.333 65.5 -36.666 94.5 -63.999s43.5 -67.666 43.5 -120.999c0 -38.667 -8.33301 -69.167 -25 -91.5
s-35 -39.166 -55 -50.499c-7.33301 -4 -14.5 -7.33301 -21.5 -10s-13.833 -5 -20.5 -7c23.333 -8 39.333 -22.667 48 -44s13 -44 13 -68c0 -7.33301 -0.833008 -16.333 -2.5 -27s-4.83398 -21.334 -9.50098 -32.001c-8.66699 -22 -25.334 -42 -50.001 -60
s-62.334 -27 -113.001 -27c-51.333 0 -89 11.667 -113 35s-39.667 49 -47 77c-3.33301 11.333 -5.5 22.5 -6.5 33.5s-1.5 21.167 -1.5 30.5l74 -1v-2.5v-3.5c0 -5.33301 0.333008 -10.833 1 -16.5s1.66699 -10.834 3 -15.501c4.66699 -18 13.834 -34.333 27.501 -49
s34.167 -22 61.5 -22c28.667 0 49.5 5.16699 62.5 15.5s21.5 21.5 25.5 33.5c1.33301 4.66699 2.33301 9.33398 3 14.001s1 9 1 13c0 28 -9.16699 48.667 -27.5 62s-40.166 25 -65.499 35c-2 1.33301 -4.16699 2.5 -6.5 3.5s-4.83301 1.83301 -7.5 2.5l-32 13
c-11.333 4.66699 -22.666 9.66699 -33.999 15c-33.333 15.333 -63.833 36.833 -91.5 64.5s-41.5 67.5 -41.5 119.5c0 48.667 12.167 85.667 36.5 111s50.833 41 79.5 47c0.666992 0.666992 1.16699 1 1.5 1h1.5c-20.667 14.667 -34.667 31.667 -42 51s-11 41.333 -11 66
c0 36 8.5 63.167 25.5 81.5s35.5 31.5 55.5 39.5c18 7.33301 34.667 11.5 50 12.5s25 1.5 29 1.5h0.5h0.5c8.66699 0 18.5 -0.666992 29.5 -2s22.167 -3.66602 33.5 -6.99902c24.667 -6.66699 47.167 -21 67.5 -43s30.5 -57.333 30.5 -106v-5.5v-4.5v0zM332 150
c5.33301 1.33301 11.333 3.5 18 6.5s13.667 6.5 21 10.5c14.667 9.33301 28.167 22.833 40.5 40.5s18.5 41.167 18.5 70.5s-6.66699 51.666 -20 66.999s-28 27.333 -44 36c-4.66699 2.66699 -9.33398 5.16699 -14.001 7.5l-13 6.5c-4.66699 2.66699 -9.33398 5 -14.001 7
s-9 4 -13 6c-3.33301 2 -6.66602 3.66699 -9.99902 5s-6.66602 3 -9.99902 5l-22.5 8.5c-7.66699 3 -16.167 6.16699 -25.5 9.5c-32 -9.33301 -55 -22.833 -69 -40.5s-22.333 -36.167 -25 -55.5c-0.666992 -4 -1.16699 -7.66699 -1.5 -11s-0.5 -6.66602 -0.5 -9.99902
c0 -40 11.667 -70 35 -90s53 -37.667 89 -53l29 -12.5l31 -13.5v0z" />
    <glyph glyph-name="H" unicode="&#xa8;" horiz-adv-x="613" 
d="M179 401h367v-79h-367v-243h417v-79h-511v700h500v-79h-406v-220v0zM188 772v79h93v-79h-93v0zM403 772v79h93v-79h-93v0z" />
    <glyph glyph-name="I" unicode="&#xa9;" horiz-adv-x="806" 
d="M53 350c0 106 36.5 190.833 109.5 254.5s153.167 95.5 240.5 95.5h10.5c3.66699 0 7.5 -0.333008 11.5 -1c82 -5.33301 157.167 -39.333 225.5 -102s102.5 -145 102.5 -247s-34.167 -184.333 -102.5 -247s-143.5 -96.667 -225.5 -102c-4 -0.666992 -7.83301 -1 -11.5 -1
h-10.5c-87.333 -0 -167.5 31.833 -240.5 95.5s-109.5 148.5 -109.5 254.5v0zM119 350v-9.49902c0 -3 0.333008 -6.16699 1 -9.5c4 -69.333 31.333 -133 82 -191s117.667 -87 201 -87c84 0 151.833 30 203.5 90s78.5 126 80.5 198v5v4v1.5v1.5
c-0.666992 73.333 -27 140.666 -79 201.999s-120.333 92 -205 92c-86 0 -154.333 -30 -205 -90s-77 -126 -79 -198v-5v-4v0zM551 297.001c-6.66699 -40.667 -19.334 -69.666 -38.001 -86.999s-38.334 -28.333 -59.001 -33c-8 -2 -16 -3.33301 -24 -4s-15.667 -1 -23 -1
c-46.667 0 -81.667 10.833 -105 32.5s-39.666 45.5 -48.999 71.5c-4.66699 14 -7.83398 27.5 -9.50098 40.5s-2.5 24.5 -2.5 34.5c0 55.333 10.333 96.333 31 123s43.334 44.667 68.001 54c11.333 4 22.5 6.83301 33.5 8.5s20.833 2.5 29.5 2.5c8 0 16.667 -0.666992 26 -2
s19 -3.33301 29 -6c20.667 -6.66699 39.667 -18.167 57 -34.5s26.333 -40.5 27 -72.5h-62c0 3.33301 -0.333008 6.5 -1 9.5s-1.66699 6.16699 -3 9.5c-3.33301 11.333 -10.666 21.833 -21.999 31.5s-28.333 14.5 -51 14.5c-27.333 0 -47.5 -8 -60.5 -24
s-21.833 -33.333 -26.5 -52c-3.33301 -12 -5.33301 -23.5 -6 -34.5s-1 -20.167 -1 -27.5c0 -6.66699 0.5 -14.167 1.5 -22.5s2.5 -16.5 4.5 -24.5c5.33301 -20.667 15 -39.5 29 -56.5s35.333 -25.5 64 -25.5c3.33301 0 8.5 0.5 15.5 1.5s14.167 3.5 21.5 7.5
c8.66699 4 17 11.167 25 21.5s13 25.166 15 44.499h66v0z" />
    <glyph glyph-name="J" unicode="&#xaa;" horiz-adv-x="724" 
d="M490 400l-0.00292969 -78.9971h-345c2 -72.667 19.833 -134.667 53.5 -186s93.834 -77 180.501 -77c10 0 23.667 1.16699 41 3.5s35.333 8.16602 54 17.499c22.667 11.333 44 29.666 64 54.999s33.667 61.666 41 108.999h100c-2 -14.667 -5.16699 -31.5 -9.5 -50.5
s-11.166 -38.167 -20.499 -57.5c-18 -39.333 -47.833 -75 -89.5 -107s-101.834 -48 -180.501 -48c-99.333 0 -172.166 22.5 -218.499 67.5s-77.833 94.833 -94.5 149.5c-8.66699 30 -14.334 59.167 -17.001 87.5s-4 52.833 -4 73.5c0 20 1.33301 42.333 4 67
s7.66699 49.667 15 75c16.667 55.333 48 106 94 152s117.667 69 215 69s168.333 -23.167 213 -69.5s70.334 -97.166 77.001 -152.499v-1.5v-1.5h-100c-1.33301 8 -3.5 17 -6.5 27s-7.5 20 -13.5 30c-11.333 22.667 -30.333 43.167 -57 61.5s-65 27.5 -115 27.5
c-74 0 -127.667 -20.833 -161 -62.5s-53.666 -87.834 -60.999 -138.501c-1.33301 -6.66699 -2.33301 -13.5 -3 -20.5s-1 -13.833 -1 -20.5h345v0z" />
    <glyph glyph-name="ampersand" unicode="&#xab;" horiz-adv-x="460" 
d="M238 311l147 129v-82l-104 -86l104 -92v-82l-147 132v81v0zM62 313l149 132v-83l-106 -89l106 -92v-80l-149 130v82v0z" />
    <glyph glyph-name="quotesingle" unicode="&#xac;" horiz-adv-x="608" 
d="M53 376h502v-147h-57v95h-445v52v0z" />
    <glyph glyph-name="daggerdbl" unicode="&#xad;" horiz-adv-x="422" 
d="M79 225v85h264v-85h-264v0z" />
    <glyph glyph-name="dagger" unicode="&#xae;" horiz-adv-x="806" 
d="M53 350c0 103.333 34.667 186.327 104 248.994s145.666 96.334 228.999 101.001h8.5h8.5h2.5h3.5c86 -1.33301 164.833 -33.666 236.5 -96.999s107.5 -147.666 107.5 -252.999s-35.833 -189.666 -107.5 -252.999s-150.5 -95.666 -236.5 -96.999h-3.5h-2.5h-8.5h-8.5
c-83.333 4.66699 -159.666 38.334 -228.999 101.001s-104 145.667 -104 249v0zM119 349.994v-7.49902v-6.5c4 -70.667 31.5 -135.5 82.5 -194.5s118.167 -88.5 201.5 -88.5c84 0 151.5 29.5 202.5 88.5s78.167 123.833 81.5 194.5v6.5v7.5v1.5v1.5
c-0.666992 73.333 -26.667 140.666 -78 201.999s-120 92 -206 92c-84 0 -151.833 -30 -203.5 -90s-78.5 -126 -80.5 -198v-5v-4v0zM275 177.995l-0.000976562 349.998h155c5.33301 0 11 -0.333008 17 -1s12.333 -1.33398 19 -2.00098c19.333 -4 37.333 -13.167 54 -27.5
s25 -37.833 25 -70.5c0 -3.33301 -0.166992 -6.83301 -0.5 -10.5s-0.833008 -7.16699 -1.5 -10.5c-2.66699 -11.333 -8.16699 -22.166 -16.5 -32.499s-21.833 -19.166 -40.5 -26.499v-2c16 -3.33301 27.333 -10.333 34 -21s11 -22 13 -34
c0.666992 -5.33301 1.33398 -10.333 2.00098 -15s1 -9.33398 1 -14.001c0.666992 -6.66699 1 -12.667 1 -18s0.333008 -10.333 1 -15c0 -10 0.5 -18.167 1.5 -24.5s2.83301 -12.166 5.5 -17.499c0.666992 -1.33301 1.5 -2.66602 2.5 -3.99902s1.83301 -2.66602 2.5 -3.99902
h-67c-4 4.66699 -7.33301 9.5 -10 14.5s-4.66699 10.167 -6 15.5c-1.33301 4.66699 -2.33301 9.5 -3 14.5s-1 9.83301 -1 14.5c0 5.33301 0.166992 10.166 0.5 14.499s0.833008 8.83301 1.5 13.5c0 2 0.166992 4 0.5 6s0.5 4 0.5 6c0 13.333 -4.33301 24.333 -13 33
s-28.667 13 -60 13h-53v-145h-65v0zM339.999 479.993v-109h75c25.333 0 42.333 5.66699 51 17s13 24.333 13 39c0 22 -7 36.333 -21 43s-30.667 10 -50 10h-68v0z" />
    <glyph glyph-name="macron" unicode="&#xaf;" horiz-adv-x="321" 
d="M114 700h94v-700h-94v700v0zM28 773v92h107v-92h-107v0zM188 773v92h105v-92h-105v0z" />
    <glyph glyph-name="zero" unicode="&#xb0;" horiz-adv-x="265" 
d="M37 605c0 27.333 9.5 49.668 28.5 67.001s39.5 26.666 61.5 27.999h3.5h2.5c24.667 0 46.667 -8.66699 66 -26s29 -40.333 29 -69s-9.83301 -52 -29.5 -70s-41.5 -27 -65.5 -27h-2.5h-3.5c-22 1.33301 -42.5 11 -61.5 29s-28.5 40.667 -28.5 68v0zM83 605.002
c0 -2 0.166016 -4.33301 0.499023 -7s0.833008 -5 1.5 -7c2.66699 -9.33301 7.83398 -17.666 15.501 -24.999s18.5 -11 32.5 -11c12.667 0 22.667 3.33301 30 10s12.666 14 15.999 22c0.666992 3.33301 1.33398 6.5 2.00098 9.5s1 5.83301 1 8.5
c0 2 -0.166992 4.16699 -0.5 6.5s-0.833008 4.5 -1.5 6.5c-2.66699 9.33301 -8 17.666 -16 24.999s-18.333 11 -31 11s-24.167 -4.5 -34.5 -13.5s-15.5 -20.833 -15.5 -35.5v0z" />
    <glyph glyph-name="at" unicode="&#xb1;" horiz-adv-x="608" 
d="M53 53v53h502v-53h-502v0zM330 165h-53v139h-224v53h224v174h53v-174h225v-53h-225v-139v0z" />
    <glyph glyph-name="P" unicode="&#xb2;" horiz-adv-x="264" 
d="M85 700h94v-700h-94v700v0z" />
    <glyph glyph-name="S" unicode="&#xb3;" horiz-adv-x="228" 
d="M70 508h88v-508h-88v508v0zM70 608v92h88v-92h-88v0z" />
    <glyph glyph-name="T" unicode="&#xb4;" horiz-adv-x="433" 
d="M160 446v-446h-88v508h266v133h73l9 -195h-260v0z" />
    <glyph glyph-name="U" unicode="&#xb5;" horiz-adv-x="580" 
d="M173 72l-0.00195312 -257h-88v693h88v-277c0 -8.66699 0.333008 -21.167 1 -37.5s3.33398 -33.833 8.00098 -52.5c6 -24.667 17 -47.334 33 -68.001s41 -31 75 -31c33.333 0 58 10.5 74 31.5s27.333 43.833 34 68.5c4 18 6.5 35.167 7.5 51.5s1.5 28.833 1.5 37.5v277h88
v-386v-2v-2v-6.5v-7.5c0.666992 -10.667 3.33398 -20.667 8.00098 -30s14.667 -14 30 -14c2 0 4.33301 0.166992 7 0.5s5.33398 0.833008 8.00098 1.5v-62c-10.667 -0.666992 -19.167 -1.33398 -25.5 -2.00098s-12.166 -1 -17.499 -1c-30 0 -51.833 4.5 -65.5 13.5
s-22.5 19.167 -26.5 30.5c-2.66699 5.33301 -4.33398 10.833 -5.00098 16.5s-1 10.5 -1 14.5c-8.66699 -19.333 -18.5 -35.166 -29.5 -47.499s-22.5 -21.833 -34.5 -28.5c-9.33301 -5.33301 -18.5 -9.16602 -27.5 -11.499s-17.5 -3.5 -25.5 -3.5s-16.667 1.33301 -26 4
s-19 7 -29 13c-11.333 6.66699 -22.333 16 -33 28s-20.334 27.333 -29.001 46v0z" />
    <glyph glyph-name="V" unicode="&#xb6;" horiz-adv-x="471" 
d="M205 -185v555c-50.667 2 -90.834 19.333 -120.501 52s-44.5 70.334 -44.5 113.001c0 43.333 14.833 81.166 44.5 113.499s69.834 49.5 120.501 51.5h52v-885h-52v0zM352 -185v885h52v-885h-52v0z" />
    <glyph glyph-name="quoteleft" unicode="&#xb8;" horiz-adv-x="572" 
d="M436 147l83.999 0.00292969c-0.666992 -2 -1.16699 -4.16699 -1.5 -6.5s-0.833008 -4.5 -1.5 -6.5c-10.667 -38.667 -32.334 -73.834 -65.001 -105.501s-83.667 -47.5 -153 -47.5c-9.33301 0 -25.833 1 -49.5 3s-48.5 8.66699 -74.5 20
c-33.333 15.333 -63.666 41.666 -90.999 78.999s-41 93.666 -41 168.999c0 101.333 23.667 172.666 71 213.999s104.333 62 171 62c86.667 0 149 -24.833 187 -74.5s57 -114.5 57 -194.5v-25h-393c0 -10 0.666992 -20.333 2 -31s3.33301 -21.667 6 -33
c8 -32 23.667 -61.333 47 -88s58.333 -40 105 -40c40.667 0 71.334 9.16699 92.001 27.5s35 38.5 43 60.5c0.666992 3.33301 1.5 6.33301 2.5 9s1.83301 5.33398 2.5 8.00098v0zM135.999 296.003l300.002 0.00195312c-6.66699 59.333 -20.834 102.5 -42.501 129.5
s-55.167 40.5 -100.5 40.5c-42 0 -73.833 -9.83301 -95.5 -29.5s-36.834 -41.167 -45.501 -64.5c-6 -14.667 -10 -28.834 -12 -42.501s-3.33301 -24.834 -4 -33.501v0zM131.001 608.005v92h92v-92h-92v0zM369.001 608.005v92h92v-92h-92v0z" />
    <glyph glyph-name="one" unicode="&#xb9;" horiz-adv-x="1118" 
d="M179 555v-555h-94v700h104l372 -555v555h95v-700h-104l-373 555v0zM743 0v74h304v-74h-304v0zM730 342c0 48 8.66797 84.6699 26.001 110.003s36.333 43.666 57 54.999c19.333 10.667 37.333 16.834 54 18.501s26 2.5 28 2.5c3.33301 0 13.166 -0.833008 29.499 -2.5
s33.833 -7.5 52.5 -17.5c20.667 -10.667 39.667 -28.834 57 -54.501s26 -62.834 26 -111.501c0 -50.667 -9.5 -89 -28.5 -115s-39.833 -44.333 -62.5 -55c-14 -6.66699 -27.667 -11 -41 -13s-24.333 -3 -33 -3c-8 0 -19 1.16699 -33 3.5s-28.333 7.16602 -43 14.499
c-22 11.333 -42.333 29.833 -61 55.5s-28 63.167 -28 112.5v0zM808.001 342.003c0 -42.667 8.83301 -73.832 26.5 -93.499s37.834 -29.5 60.501 -29.5c23.333 0 41 6.83301 53 20.5s20.667 28.5 26 44.5c4 12 6.5 23.167 7.5 33.5s1.5 18.5 1.5 24.5s-0.5 14.167 -1.5 24.5
s-3.5 21.5 -7.5 33.5c-5.33301 16 -14 30.833 -26 44.5s-29.667 20.5 -53 20.5c-22.667 0 -42.834 -9.83301 -60.501 -29.5s-26.5 -50.834 -26.5 -93.501v0z" />
    <glyph glyph-name="G" unicode="&#xba;" horiz-adv-x="554" 
d="M369 295l-0.00390625 -62.001h-233c1.33301 -59.333 11.166 -102.166 29.499 -128.499s38.5 -43.833 60.5 -52.5c10.667 -4 21.167 -6.66699 31.5 -8s19.5 -2 27.5 -2s16.667 0.5 26 1.5s19 2.83301 29 5.5c20.667 6 40 18.5 58 37.5s29.667 49.167 35 90.5h84
c-0.666992 -10.667 -2.5 -23.5 -5.5 -38.5s-8.16699 -30.167 -15.5 -45.5c-13.333 -28 -36 -53.667 -68 -77s-79.333 -35 -142 -35c-13.333 0 -27.666 0.833008 -42.999 2.5s-30.666 4.83398 -45.999 9.50098c-38.667 10 -74 33.833 -106 71.5s-48 99.5 -48 185.5
c0 83.333 14 144.166 42 182.499s59 64.166 93 77.499c20 8 39.333 13 58 15s34.334 3 47.001 3c72.667 0 125.834 -14.833 159.501 -44.5s54.834 -62.167 63.501 -97.5c2 -6.66699 3.33301 -13 4 -19l2 -18h-84c-0.666992 36.667 -16 65.334 -46 86.001s-65.667 31 -107 31
c-7.33301 0 -15 -0.5 -23 -1.5s-16.333 -3.16699 -25 -6.5c-22 -7.33301 -42.167 -23 -60.5 -47s-28.5 -62.667 -30.5 -116h233v0z" />
    <glyph glyph-name="bracketleft" unicode="&#xbb;" horiz-adv-x="460" 
d="M222 310v-81l-147 -131v81l103 91l-103 88v82l147 -130v0zM398 313v-82l-150 -130v80l107 91l-107 90v84l150 -133v0z" />
    <glyph glyph-name="w" unicode="&#xbc;" horiz-adv-x="234" 
d="M73 508l88.002 0.00195312v-555c0 -48 -9 -83.5 -27 -106.5s-49 -34.5 -93 -34.5c-3.33301 0 -7 0.166992 -11 0.5s-8 0.5 -12 0.5c-2.66699 0 -5.16699 0.166992 -7.5 0.5s-4.83301 0.5 -7.5 0.5c-3.33301 0.666992 -6.66602 1.16699 -9.99902 1.5s-6 0.5 -8 0.5l-1 61
c4.66699 1.33301 8 2.16602 10 2.49902s4 0.5 6 0.5h0.5h0.5c1.33301 0 2.66602 0.166992 3.99902 0.5s2.66602 0.5 3.99902 0.5c3.33301 0 7.16602 0.166992 11.499 0.5s8.5 1.16602 12.5 2.49902c10 2.66699 19.167 9.66699 27.5 21s12.5 31.333 12.5 60v543v0z
M69.002 608.002v92h95v-92h-95v0z" />
    <glyph glyph-name="bracketright" unicode="&#xbd;" horiz-adv-x="656" 
d="M45 222l94.001 0.00390625v-2.5v-3.5c0 -40.667 16.333 -77.167 49 -109.5s83 -48.5 151 -48.5c57.333 0 100.333 12.333 129 37s43 55.667 43 93c0 34 -10 59.167 -30 75.5s-42 28.5 -66 36.5l-23.5 6c-7.66699 2 -14.834 3.66699 -21.501 5l-37.5 8l-35.5 8
c-69.333 15.333 -124.666 34.833 -165.999 58.5s-62 68.5 -62 134.5c0 71.333 26.333 122.666 79 153.999s114.667 47 186 47c84 0 145.5 -18.333 184.5 -55s62.5 -77 70.5 -121c1.33301 -4.66699 2.33301 -9.16699 3 -13.5s1 -8.83301 1 -13.5h-94
c-0.666992 5.33301 -1.5 10.5 -2.5 15.5s-2.16699 10.167 -3.5 15.5c-7.33301 23.333 -22.833 44.666 -46.5 63.999s-62.167 29 -115.5 29c-52.667 0 -92.834 -11.5 -120.501 -34.5s-41.5 -50.5 -41.5 -82.5c0 -40 15.833 -67 47.5 -81s66.834 -24.667 105.501 -32
c2 0 4 -0.333008 6 -1s4 -1 6 -1c2 -0.666992 3.83301 -1.16699 5.5 -1.5s3.16699 -0.5 4.5 -0.5c12.667 -2.66699 26 -5.33398 40 -8.00098s28.333 -5.66699 43 -9c46 -12 88.167 -31.833 126.5 -59.5s57.5 -74.834 57.5 -141.501v-9.5c0 -3 -0.333008 -6.16699 -1 -9.5
c-3.33301 -48 -24.666 -91.833 -63.999 -131.5s-110 -59.5 -212 -59.5c-15.333 0 -34.333 1 -57 3s-46.334 6.66699 -71.001 14c-38.667 11.333 -74.334 33.833 -107.001 67.5s-50.667 86.167 -54 157.5v0z" />
    <glyph glyph-name="R" unicode="&#xbe;" horiz-adv-x="506" 
d="M36 151l87.9961 -0.000976562c0.666992 -34 11.334 -59 32.001 -75s43.334 -26.333 68.001 -31l19.5 -2c6.33301 -0.666992 12.5 -1 18.5 -1h4h4c27.333 1.33301 52.333 8.66602 75 21.999s34 38 34 74c0 18 -6.16699 34 -18.5 48s-41.5 26.333 -87.5 37
c-3.33301 0.666992 -7 1.5 -11 2.5s-8.33301 1.83301 -13 2.5l-31.5 6c-11 2 -22.167 4.33301 -33.5 7c-31.333 8 -60.166 21.833 -86.499 41.5s-39.5 52.834 -39.5 99.501s14.333 80.5 43 101.5s60 34.5 94 40.5c10 1.33301 19.667 2.33301 29 3s18.333 1 27 1
c67.333 0 115.666 -12.333 144.999 -37s47.666 -51.667 54.999 -81c2 -6 3.33301 -11.833 4 -17.5l2 -17.5h-84c0 4 -0.5 8.33301 -1.5 13s-2.16699 9.33398 -3.5 14.001c-6 16 -17.5 30.667 -34.5 44s-43.5 20 -79.5 20c-37.333 0 -64.166 -8.16699 -80.499 -24.5
s-24.5 -34.833 -24.5 -55.5c0 -31.333 11 -52.166 33 -62.499s48 -18.833 78 -25.5c5.33301 -0.666992 10.333 -1.5 15 -2.5s9.66699 -2.16699 15 -3.5c0.666992 0 1.33398 -0.166992 2.00098 -0.5s1.33398 -0.5 2.00098 -0.5c55.333 -12 98.5 -27.333 129.5 -46
s46.5 -52.334 46.5 -101.001v-2.5v-3.5c-1.33301 -39.333 -17.5 -75.333 -48.5 -108s-84.5 -49 -160.5 -49c-76.667 0 -132 16.167 -166 48.5s-53.333 68.5 -58 108.5c0 2 -0.166992 4.16699 -0.5 6.5s-0.5 4.5 -0.5 6.5v0z" />
    <glyph glyph-name="underscore" unicode="&#xbf;" horiz-adv-x="289" 
d="M101 508h88v-508h-88v508v0zM28 608v92h93v-92h-93v0zM169 608v92h92v-92h-92v0z" />
    <glyph glyph-name="grave" unicode="&#xc0;" horiz-adv-x="623" 
d="M163 181l-66 -181h-101l265 700h101l265 -700h-101l-67 181h-296v0zM189 260h245l-123 345l-122 -345v0z" />
    <glyph glyph-name="grave" unicode="&#x410;" horiz-adv-x="623" 
d="M163 181l-66 -181h-101l265 700h101l265 -700h-101l-67 181h-296v0zM189 260h245l-123 345l-122 -345v0z" />
    <glyph glyph-name="a" unicode="&#xc1;" horiz-adv-x="668" 
d="M179 621v-210.001h215c12 0 25 -0.5 39 -1.5s28.333 -3.16699 43 -6.5c38 -8 72.833 -26.5 104.5 -55.5s47.5 -77.167 47.5 -144.5c0 -10 -0.666992 -20.667 -2 -32s-3.66602 -22.666 -6.99902 -33.999c-9.33301 -34.667 -30.333 -66.167 -63 -94.5
s-86.334 -42.5 -161.001 -42.5h-310v700h497v-79h-403v0zM179 331.999l-0.000976562 -253h196c7.33301 0 15 0.166992 23 0.5s16 1.16602 24 2.49902c27.333 4.66699 52.5 15.334 75.5 32.001s34.5 46 34.5 88c0 42.667 -10.667 73 -32 91s-44.666 29.333 -69.999 34
c-9.33301 2 -18.833 3.33301 -28.5 4s-18.5 1 -26.5 1h-196v0z" />
    <glyph glyph-name="a" unicode="&#x411;" horiz-adv-x="668" 
d="M179 621v-210.001h215c12 0 25 -0.5 39 -1.5s28.333 -3.16699 43 -6.5c38 -8 72.833 -26.5 104.5 -55.5s47.5 -77.167 47.5 -144.5c0 -10 -0.666992 -20.667 -2 -32s-3.66602 -22.666 -6.99902 -33.999c-9.33301 -34.667 -30.333 -66.167 -63 -94.5
s-86.334 -42.5 -161.001 -42.5h-310v700h497v-79h-403v0zM179 331.999l-0.000976562 -253h196c7.33301 0 15 0.166992 23 0.5s16 1.16602 24 2.49902c27.333 4.66699 52.5 15.334 75.5 32.001s34.5 46 34.5 88c0 42.667 -10.667 73 -32 91s-44.666 29.333 -69.999 34
c-9.33301 2 -18.833 3.33301 -28.5 4s-18.5 1 -26.5 1h-196v0z" />
    <glyph glyph-name="b" unicode="&#xc2;" horiz-adv-x="689" 
d="M85 700h307c78.667 0 133.167 -17.667 163.5 -53s45.5 -77 45.5 -125v-2v-2c-0.666992 -33.333 -11.334 -64.333 -32.001 -93s-49 -46.334 -85 -53.001v-3c8 -1.33301 17.333 -3.5 28 -6.5s21.334 -7.16699 32.001 -12.5c22 -11.333 42 -29 60 -53s27 -58 27 -102
c0 -57.333 -18.667 -104.166 -56 -140.499s-102 -54.5 -194 -54.5h-296v700v0zM179 324v-245h195h8.5h9.5c36 1.33301 68.833 10 98.5 26s44.5 48.667 44.5 98c0 48 -15.667 80.167 -47 96.5s-69.333 24.5 -114 24.5h-195v0zM179 621l0.000976562 -217.999h189
c50 0 84.667 10 104 30s30 42 32 66c0.666992 2.66699 1 5 1 7v6c0 6 -0.5 13.167 -1.5 21.5s-3.5 17.166 -7.5 26.499c-6.66699 15.333 -19.334 29.333 -38.001 42s-47.667 19 -87 19h-192v0z" />
    <glyph glyph-name="b" unicode="&#x412;" horiz-adv-x="689" 
d="M85 700h307c78.667 0 133.167 -17.667 163.5 -53s45.5 -77 45.5 -125v-2v-2c-0.666992 -33.333 -11.334 -64.333 -32.001 -93s-49 -46.334 -85 -53.001v-3c8 -1.33301 17.333 -3.5 28 -6.5s21.334 -7.16699 32.001 -12.5c22 -11.333 42 -29 60 -53s27 -58 27 -102
c0 -57.333 -18.667 -104.166 -56 -140.499s-102 -54.5 -194 -54.5h-296v700v0zM179 324v-245h195h8.5h9.5c36 1.33301 68.833 10 98.5 26s44.5 48.667 44.5 98c0 48 -15.667 80.167 -47 96.5s-69.333 24.5 -114 24.5h-195v0zM179 621l0.000976562 -217.999h189
c50 0 84.667 10 104 30s30 42 32 66c0.666992 2.66699 1 5 1 7v6c0 6 -0.5 13.167 -1.5 21.5s-3.5 17.166 -7.5 26.499c-6.66699 15.333 -19.334 29.333 -38.001 42s-47.667 19 -87 19h-192v0z" />
    <glyph glyph-name="c" unicode="&#xc3;" horiz-adv-x="544" 
d="M179 621v-621h-94v700h446v-79h-352v0z" />
    <glyph glyph-name="c" unicode="&#x413;" horiz-adv-x="544" 
d="M179 621v-621h-94v700h446v-79h-352v0z" />
    <glyph glyph-name="d" unicode="&#xc4;" horiz-adv-x="738" 
d="M624 79l101 -0.000976562l-9 -237h-82v158h-544v-158h-82l-8 237h63c26.667 34.667 48.167 70.5 64.5 107.5s28.833 74.167 37.5 111.5c10.667 44.667 17.5 88.834 20.5 132.501s5.16699 85.5 6.5 125.5l4 144h428v-621v0zM530 620.999h-240.001l-3 -87v-8
c0 -2.66699 -0.333008 -5.33398 -1 -8.00098c-2 -68.667 -8.16699 -139.167 -18.5 -211.5s-41.166 -148.166 -92.499 -227.499h355v542v0z" />
    <glyph glyph-name="d" unicode="&#x414;" horiz-adv-x="738" 
d="M624 79l101 -0.000976562l-9 -237h-82v158h-544v-158h-82l-8 237h63c26.667 34.667 48.167 70.5 64.5 107.5s28.833 74.167 37.5 111.5c10.667 44.667 17.5 88.834 20.5 132.501s5.16699 85.5 6.5 125.5l4 144h428v-621v0zM530 620.999h-240.001l-3 -87v-8
c0 -2.66699 -0.333008 -5.33398 -1 -8.00098c-2 -68.667 -8.16699 -139.167 -18.5 -211.5s-41.166 -148.166 -92.499 -227.499h355v542v0z" />
    <glyph glyph-name="e" unicode="&#xc5;" horiz-adv-x="612" 
d="M179 401h367v-79h-367v-243h416v-79h-510v700h499v-79h-405v-220v0z" />
    <glyph glyph-name="e" unicode="&#x415;" horiz-adv-x="612" 
d="M179 401h367v-79h-367v-243h416v-79h-510v700h499v-79h-405v-220v0z" />
    <glyph glyph-name="f" unicode="&#xc6;" horiz-adv-x="908" 
d="M407 0v349l-297 -349h-114l323 375l-309 325h112l285 -308v308h94v-308l285 308h112l-309 -325l323 -375h-114l-297 349v-349h-94v0z" />
    <glyph glyph-name="f" unicode="&#x416;" horiz-adv-x="908" 
d="M407 0v349l-297 -349h-114l323 375l-309 325h112l285 -308v308h94v-308l285 308h112l-309 -325l323 -375h-114l-297 349v-349h-94v0z" />
    <glyph glyph-name="g" unicode="&#xc7;" horiz-adv-x="667" 
d="M45 215l94.002 -0.000976562c2.66699 -40.667 18 -77 46 -109s79 -48 153 -48c53.333 0 92.5 9.5 117.5 28.5s41.5 39.833 49.5 62.5c2.66699 8.66699 4.66699 17 6 25s2 15.667 2 23c0 6.66699 -0.333008 14 -1 22s-2.33398 16 -5.00098 24
c-6.66699 21.333 -21 41 -43 59s-59 27 -111 27h-92v79h83c42 0 76 8.83301 102 26.5s39 45.834 39 84.501c0 44 -15.667 75.5 -47 94.5s-69.333 28.5 -114 28.5c-50.667 0 -88.167 -8.83301 -112.5 -26.5s-40.833 -36.834 -49.5 -57.501
c-4 -9.33301 -6.83301 -18.5 -8.5 -27.5s-2.5 -17.167 -2.5 -24.5h-94c4 62 20.833 107.833 50.5 137.5s61.834 49.834 96.501 60.501c24.667 8.66699 48.667 13.667 72 15s41.666 2 54.999 2s30 -0.833008 50 -2.5s40.667 -5.83398 62 -12.501
c34.667 -10.667 66.334 -29.667 95.001 -57s43 -68.666 43 -123.999c0 -42 -11.5 -76.5 -34.5 -103.5s-51.167 -43.167 -84.5 -48.5v-2c57.333 -12.667 96.166 -36 116.499 -70s30.5 -71.667 30.5 -113c0 -10.667 -0.833008 -22.167 -2.5 -34.5
s-4.83398 -24.833 -9.50098 -37.5c-11.333 -34 -35.833 -65.167 -73.5 -93.5s-97.5 -42.5 -179.5 -42.5c-112 0 -189 23.333 -231 70s-64.667 101.667 -68 165v0z" />
    <glyph glyph-name="g" unicode="&#x417;" horiz-adv-x="667" 
d="M45 215l94.002 -0.000976562c2.66699 -40.667 18 -77 46 -109s79 -48 153 -48c53.333 0 92.5 9.5 117.5 28.5s41.5 39.833 49.5 62.5c2.66699 8.66699 4.66699 17 6 25s2 15.667 2 23c0 6.66699 -0.333008 14 -1 22s-2.33398 16 -5.00098 24
c-6.66699 21.333 -21 41 -43 59s-59 27 -111 27h-92v79h83c42 0 76 8.83301 102 26.5s39 45.834 39 84.501c0 44 -15.667 75.5 -47 94.5s-69.333 28.5 -114 28.5c-50.667 0 -88.167 -8.83301 -112.5 -26.5s-40.833 -36.834 -49.5 -57.501
c-4 -9.33301 -6.83301 -18.5 -8.5 -27.5s-2.5 -17.167 -2.5 -24.5h-94c4 62 20.833 107.833 50.5 137.5s61.834 49.834 96.501 60.501c24.667 8.66699 48.667 13.667 72 15s41.666 2 54.999 2s30 -0.833008 50 -2.5s40.667 -5.83398 62 -12.501
c34.667 -10.667 66.334 -29.667 95.001 -57s43 -68.666 43 -123.999c0 -42 -11.5 -76.5 -34.5 -103.5s-51.167 -43.167 -84.5 -48.5v-2c57.333 -12.667 96.166 -36 116.499 -70s30.5 -71.667 30.5 -113c0 -10.667 -0.833008 -22.167 -2.5 -34.5
s-4.83398 -24.833 -9.50098 -37.5c-11.333 -34 -35.833 -65.167 -73.5 -93.5s-97.5 -42.5 -179.5 -42.5c-112 0 -189 23.333 -231 70s-64.667 101.667 -68 165v0z" />
    <glyph glyph-name="h" unicode="&#xc8;" horiz-adv-x="731" 
d="M179 137l373 563h94v-700h-94v567l-373 -567h-94v700h94v-563v0z" />
    <glyph glyph-name="h" unicode="&#x418;" horiz-adv-x="731" 
d="M179 137l373 563h94v-700h-94v567l-373 -567h-94v700h94v-563v0z" />
    <glyph glyph-name="i" unicode="&#xc9;" horiz-adv-x="731" 
d="M179 137l373 563h94v-700h-94v567l-373 -567h-94v700h94v-563v0zM194 858l73.998 -0.000976562c5.33301 -26.667 15.333 -46.5 30 -59.5s37.334 -19.5 68.001 -19.5c28.667 0 50.167 6 64.5 18s23.833 25.333 28.5 40c1.33301 3.33301 2.33301 6.83301 3 10.5
s1 7.16699 1 10.5h75c-8.66699 -39.333 -26.5 -71.166 -53.5 -95.499s-66.5 -36.5 -118.5 -36.5c-44 0 -77.667 8 -101 24s-40.666 33.667 -51.999 53c-5.33301 10 -9.5 19.833 -12.5 29.5s-5.16699 18.167 -6.5 25.5v0z" />
    <glyph glyph-name="i" unicode="&#x419;" horiz-adv-x="731" 
d="M179 137l373 563h94v-700h-94v567l-373 -567h-94v700h94v-563v0zM194 858l73.998 -0.000976562c5.33301 -26.667 15.333 -46.5 30 -59.5s37.334 -19.5 68.001 -19.5c28.667 0 50.167 6 64.5 18s23.833 25.333 28.5 40c1.33301 3.33301 2.33301 6.83301 3 10.5
s1 7.16699 1 10.5h75c-8.66699 -39.333 -26.5 -71.166 -53.5 -95.499s-66.5 -36.5 -118.5 -36.5c-44 0 -77.667 8 -101 24s-40.666 33.667 -51.999 53c-5.33301 10 -9.5 19.833 -12.5 29.5s-5.16699 18.167 -6.5 25.5v0z" />
    <glyph glyph-name="j" unicode="&#xca;" horiz-adv-x="627" 
d="M179 381l315 319h115l-333 -324l355 -376h-123l-329 365v-365h-94v700h94v-319v0z" />
    <glyph glyph-name="j" unicode="&#x41a;" horiz-adv-x="627" 
d="M179 381l315 319h115l-333 -324l355 -376h-123l-329 365v-365h-94v700h94v-319v0z" />
    <glyph glyph-name="k" unicode="&#xcb;" horiz-adv-x="702" 
d="M13 0l-0.000976562 82c2 -0.666992 4.16699 -1.16699 6.5 -1.5s4.5 -0.5 6.5 -0.5c2 -0.666992 4.16699 -1 6.5 -1h6.5c36 0.666992 68.167 23 96.5 67s42.5 128.333 42.5 253v301h439v-700h-94v621h-251v-242c0 -152 -22.167 -253.667 -66.5 -305
s-94.166 -77 -149.499 -77c-7.33301 0 -14.5 0.333008 -21.5 1l-21.5 2v0z" />
    <glyph glyph-name="k" unicode="&#x41b;" horiz-adv-x="702" 
d="M13 0l-0.000976562 82c2 -0.666992 4.16699 -1.16699 6.5 -1.5s4.5 -0.5 6.5 -0.5c2 -0.666992 4.16699 -1 6.5 -1h6.5c36 0.666992 68.167 23 96.5 67s42.5 128.333 42.5 253v301h439v-700h-94v621h-251v-242c0 -152 -22.167 -253.667 -66.5 -305
s-94.166 -77 -149.499 -77c-7.33301 0 -14.5 0.333008 -21.5 1l-21.5 2v0z" />
    <glyph glyph-name="l" unicode="&#xcc;" horiz-adv-x="890" 
d="M407 0l-228 588h-2l2 -27v-561h-94v700h141l219 -576l219 576h141v-700h-94v561l2 27h-3l-227 -588h-76v0z" />
    <glyph glyph-name="l" unicode="&#x41c;" horiz-adv-x="890" 
d="M407 0l-228 588h-2l2 -27v-561h-94v700h141l219 -576l219 576h141v-700h-94v561l2 27h-3l-227 -588h-76v0z" />
    <glyph glyph-name="m" unicode="&#xcd;" horiz-adv-x="710" 
d="M179 329v-329h-94v700h94v-292h352v292h94v-700h-94v329h-352v0z" />
    <glyph glyph-name="m" unicode="&#x41d;" horiz-adv-x="710" 
d="M179 329v-329h-94v700h94v-292h352v292h94v-700h-94v329h-352v0z" />
    <glyph glyph-name="n" unicode="&#xce;" horiz-adv-x="758" 
d="M379 -21c-107.333 0.666992 -189.833 34.333 -247.5 101s-86.5 156.667 -86.5 270c0 132.667 33.833 227.667 101.5 285s145.167 86 232.5 86c89.333 0 167.333 -28.667 234 -86s100 -152.333 100 -285c0 -114 -28.833 -204.167 -86.5 -270.5
s-140.167 -99.5 -247.5 -99.5v-1zM379 57.999c80.667 0 139.833 27.332 177.5 81.999s56.5 124.667 56.5 210c0 80.667 -13 141.167 -39 181.5s-54.667 68.5 -86 84.5c-21.333 11.333 -42 18.5 -62 21.5s-35.667 4.5 -47 4.5s-23 -0.666992 -35 -2s-24.333 -4 -37 -8
c-40.667 -12 -77.834 -38.667 -111.501 -80s-50.5 -108.666 -50.5 -201.999c0 -16 1 -34.667 3 -56s6 -43.333 12 -66c12 -42.667 34.333 -81.667 67 -117s83.334 -53 152.001 -53v0z" />
    <glyph glyph-name="n" unicode="&#x41e;" horiz-adv-x="758" 
d="M379 -21c-107.333 0.666992 -189.833 34.333 -247.5 101s-86.5 156.667 -86.5 270c0 132.667 33.833 227.667 101.5 285s145.167 86 232.5 86c89.333 0 167.333 -28.667 234 -86s100 -152.333 100 -285c0 -114 -28.833 -204.167 -86.5 -270.5
s-140.167 -99.5 -247.5 -99.5v-1zM379 57.999c80.667 0 139.833 27.332 177.5 81.999s56.5 124.667 56.5 210c0 80.667 -13 141.167 -39 181.5s-54.667 68.5 -86 84.5c-21.333 11.333 -42 18.5 -62 21.5s-35.667 4.5 -47 4.5s-23 -0.666992 -35 -2s-24.333 -4 -37 -8
c-40.667 -12 -77.834 -38.667 -111.501 -80s-50.5 -108.666 -50.5 -201.999c0 -16 1 -34.667 3 -56s6 -43.333 12 -66c12 -42.667 34.333 -81.667 67 -117s83.334 -53 152.001 -53v0z" />
    <glyph glyph-name="o" unicode="&#xcf;" horiz-adv-x="713" 
d="M179 621v-621h-94v700h543v-700h-94v621h-355v0z" />
    <glyph glyph-name="o" unicode="&#x41f;" horiz-adv-x="713" 
d="M179 621v-621h-94v700h543v-700h-94v621h-355v0z" />
    <glyph glyph-name="p" unicode="&#xd0;" horiz-adv-x="639" 
d="M85 700l285.001 -0.000976562c78 0 137 -16.667 177 -50s60 -83.666 60 -150.999c0 -60 -16.833 -111.667 -50.5 -155s-98.834 -65 -195.501 -65h-182v-279h-94v700v0zM179.001 620.999v-263h172c60 0 101.667 12.5 125 37.5s35 58.833 35 101.5
c0 46.667 -14.333 79 -43 97s-67.667 27 -117 27h-172v0z" />
    <glyph glyph-name="p" unicode="&#x420;" horiz-adv-x="639" 
d="M85 700l285.001 -0.000976562c78 0 137 -16.667 177 -50s60 -83.666 60 -150.999c0 -60 -16.833 -111.667 -50.5 -155s-98.834 -65 -195.501 -65h-182v-279h-94v700v0zM179.001 620.999v-263h172c60 0 101.667 12.5 125 37.5s35 58.833 35 101.5
c0 46.667 -14.333 79 -43 97s-67.667 27 -117 27h-172v0z" />
    <glyph glyph-name="q" unicode="&#xd1;" horiz-adv-x="712" 
d="M580 232l93.998 -0.000976562c-1.33301 -14 -4.16602 -30 -8.49902 -48s-11.166 -36 -20.499 -54c-17.333 -38 -46.5 -72.5 -87.5 -103.5s-100.833 -46.5 -179.5 -46.5c-112.667 0 -196.334 34.167 -251.001 102.5s-82 153.5 -82 255.5c0 13.333 1.33301 37.833 4 73.5
s11.334 73.5 26.001 113.5c18.667 48.667 50.667 93.5 96 134.5s113.333 61.5 204 61.5c103.333 0 176 -24 218 -72s66 -103 72 -165h-94c-0.666992 8 -2 16.333 -4 25s-4.66699 17.667 -8 27c-10.667 26.667 -30 51 -58 73s-70 33 -126 33c-79.333 0 -135.333 -25 -168 -75
s-52.334 -104.667 -59.001 -164c-1.33301 -10.667 -2.16602 -21 -2.49902 -31s-0.5 -20 -0.5 -30c0 -72.667 19.5 -138.167 58.5 -196.5s98.5 -87.5 178.5 -87.5c61.333 0 109 17.833 143 53.5s52.333 75.834 55 120.501v0z" />
    <glyph glyph-name="q" unicode="&#x421;" horiz-adv-x="712" 
d="M580 232l93.998 -0.000976562c-1.33301 -14 -4.16602 -30 -8.49902 -48s-11.166 -36 -20.499 -54c-17.333 -38 -46.5 -72.5 -87.5 -103.5s-100.833 -46.5 -179.5 -46.5c-112.667 0 -196.334 34.167 -251.001 102.5s-82 153.5 -82 255.5c0 13.333 1.33301 37.833 4 73.5
s11.334 73.5 26.001 113.5c18.667 48.667 50.667 93.5 96 134.5s113.333 61.5 204 61.5c103.333 0 176 -24 218 -72s66 -103 72 -165h-94c-0.666992 8 -2 16.333 -4 25s-4.66699 17.667 -8 27c-10.667 26.667 -30 51 -58 73s-70 33 -126 33c-79.333 0 -135.333 -25 -168 -75
s-52.334 -104.667 -59.001 -164c-1.33301 -10.667 -2.16602 -21 -2.49902 -31s-0.5 -20 -0.5 -30c0 -72.667 19.5 -138.167 58.5 -196.5s98.5 -87.5 178.5 -87.5c61.333 0 109 17.833 143 53.5s52.333 75.834 55 120.501v0z" />
    <glyph glyph-name="Scaron" unicode="&#xd2;" horiz-adv-x="575" 
d="M241 621h-228v79h549v-79h-227v-621h-94v621v0z" />
    <glyph glyph-name="Scaron" unicode="&#x422;" horiz-adv-x="575" 
d="M241 621h-228v79h549v-79h-227v-621h-94v621v0z" />
    <glyph glyph-name="r" unicode="&#xd3;" horiz-adv-x="588" 
d="M325 279l167.999 421h99l-237 -575c-11.333 -27.333 -23 -49.5 -35 -66.5s-24.333 -30.167 -37 -39.5c-18 -14 -35.833 -22.167 -53.5 -24.5s-33.834 -3.5 -48.501 -3.5h-2h-2h-15.5c-5 0 -9.83301 0.333008 -14.5 1c-8 0.666992 -15.667 1.66699 -23 3
s-15.666 3 -24.999 5v82c10 -3.33301 20.333 -6 31 -8s22.334 -3 35.001 -3c7.33301 0 15.166 0.5 23.499 1.5s16.5 3.5 24.5 7.5c11.333 6 22.333 16 33 30s20.334 35.333 29.001 64l-266 526h115l201 -421v0z" />
    <glyph glyph-name="r" unicode="&#x423;" horiz-adv-x="588" 
d="M325 279l167.999 421h99l-237 -575c-11.333 -27.333 -23 -49.5 -35 -66.5s-24.333 -30.167 -37 -39.5c-18 -14 -35.833 -22.167 -53.5 -24.5s-33.834 -3.5 -48.501 -3.5h-2h-2h-15.5c-5 0 -9.83301 0.333008 -14.5 1c-8 0.666992 -15.667 1.66699 -23 3
s-15.666 3 -24.999 5v82c10 -3.33301 20.333 -6 31 -8s22.334 -3 35.001 -3c7.33301 0 15.166 0.5 23.499 1.5s16.5 3.5 24.5 7.5c11.333 6 22.333 16 33 30s20.334 35.333 29.001 64l-266 526h115l201 -421v0z" />
    <glyph glyph-name="t" unicode="&#xd4;" horiz-adv-x="890" 
d="M398 -26v104.996h-39c-17.333 0 -38.166 1.33301 -62.499 4s-49.5 8.33398 -75.5 17.001c-44.667 15.333 -85.667 42.333 -123 81s-56 97.334 -56 176.001c0 79.333 19 138.333 57 177s79.667 65.334 125 80.001c24.667 8 49 13.333 73 16s44.667 4 62 4h39v106h94v-106
h39c17.333 0 37.666 -1.16699 60.999 -3.5s47.333 -7.5 72 -15.5c46 -14 88.167 -40.333 126.5 -79s57.5 -98.334 57.5 -179.001c0 -75.333 -17.333 -132.166 -52 -170.499s-72.667 -65.166 -114 -80.499c-30.667 -12 -60 -19.5 -88 -22.5s-49 -4.5 -63 -4.5h-39v-105h-94v0
zM398 152.996l0.000976562 407.002h-26c-72.667 0 -124.834 -12.833 -156.501 -38.5s-52.5 -53.834 -62.5 -84.501c-4.66699 -14.667 -7.66699 -28.834 -9 -42.501s-2 -26.167 -2 -37.5s0.666992 -23.5 2 -36.5s4 -26.5 8 -40.5c9.33301 -32 29.833 -61.167 61.5 -87.5
s84.5 -39.5 158.5 -39.5h26v0zM492.001 152.998h27.0029c12.667 0 27 0.666992 43 2s32.333 4 49 8c34 9.33301 65.333 28 94 56s43 74 43 138c0 63.333 -14.333 109 -43 137s-60.334 46.667 -95.001 56c-16.667 4 -32.834 6.66699 -48.501 8s-29.834 2 -42.501 2h-27v-407
v0z" />
    <glyph glyph-name="t" unicode="&#x424;" horiz-adv-x="890" 
d="M398 -26v104.996h-39c-17.333 0 -38.166 1.33301 -62.499 4s-49.5 8.33398 -75.5 17.001c-44.667 15.333 -85.667 42.333 -123 81s-56 97.334 -56 176.001c0 79.333 19 138.333 57 177s79.667 65.334 125 80.001c24.667 8 49 13.333 73 16s44.667 4 62 4h39v106h94v-106
h39c17.333 0 37.666 -1.16699 60.999 -3.5s47.333 -7.5 72 -15.5c46 -14 88.167 -40.333 126.5 -79s57.5 -98.334 57.5 -179.001c0 -75.333 -17.333 -132.166 -52 -170.499s-72.667 -65.166 -114 -80.499c-30.667 -12 -60 -19.5 -88 -22.5s-49 -4.5 -63 -4.5h-39v-105h-94v0
zM398 152.996l0.000976562 407.002h-26c-72.667 0 -124.834 -12.833 -156.501 -38.5s-52.5 -53.834 -62.5 -84.501c-4.66699 -14.667 -7.66699 -28.834 -9 -42.501s-2 -26.167 -2 -37.5s0.666992 -23.5 2 -36.5s4 -26.5 8 -40.5c9.33301 -32 29.833 -61.167 61.5 -87.5
s84.5 -39.5 158.5 -39.5h26v0zM492.001 152.998h27.0029c12.667 0 27 0.666992 43 2s32.333 4 49 8c34 9.33301 65.333 28 94 56s43 74 43 138c0 63.333 -14.333 109 -43 137s-60.334 46.667 -95.001 56c-16.667 4 -32.834 6.66699 -48.501 8s-29.834 2 -42.501 2h-27v-407
v0z" />
    <glyph glyph-name="u" unicode="&#xd5;" horiz-adv-x="607" 
d="M305 291l-184 -291h-121l245 358l-232 342h117l176 -275l178 275h108l-230 -340l245 -360h-119l-183 291v0z" />
    <glyph glyph-name="u" unicode="&#x425;" horiz-adv-x="607" 
d="M305 291l-184 -291h-121l245 358l-232 342h117l176 -275l178 275h108l-230 -340l245 -360h-119l-183 291v0z" />
    <glyph glyph-name="zero" unicode="&#xd6;" horiz-adv-x="739" 
d="M179 79h355v621h94v-621h98l-7 -237h-82v158h-552v700h94v-621v0z" />
    <glyph glyph-name="zero" unicode="&#x426;" horiz-adv-x="739" 
d="M179 79h355v621h94v-621h98l-7 -237h-82v158h-552v700h94v-621v0z" />
    <glyph glyph-name="parenright" unicode="&#xd7;" horiz-adv-x="636" 
d="M58 700l94 0.000976562l1 -205c0 -51.333 12.5 -84 37.5 -98s68.5 -21 130.5 -21c10 0 21.333 0.333008 34 1l39 2c6.66699 0 13 0.333008 19 1s12 1 18 1c4.66699 0.666992 9.16699 1.16699 13.5 1.5s8.5 0.5 12.5 0.5v317h94v-700h-94v304
c-6 -0.666992 -13.5 -1.16699 -22.5 -1.5s-18.833 -0.833008 -29.5 -1.5c-4.66699 0 -9.5 -0.166992 -14.5 -0.5s-10.167 -0.833008 -15.5 -1.5c-13.333 -0.666992 -26.333 -1.16699 -39 -1.5s-23.667 -0.5 -33 -0.5c-79.333 0 -140 10.667 -182 32s-63 71.666 -63 150.999
v220v0z" />
    <glyph glyph-name="parenright" unicode="&#x427;" horiz-adv-x="636" 
d="M58 700l94 0.000976562l1 -205c0 -51.333 12.5 -84 37.5 -98s68.5 -21 130.5 -21c10 0 21.333 0.333008 34 1l39 2c6.66699 0 13 0.333008 19 1s12 1 18 1c4.66699 0.666992 9.16699 1.16699 13.5 1.5s8.5 0.5 12.5 0.5v317h94v-700h-94v304
c-6 -0.666992 -13.5 -1.16699 -22.5 -1.5s-18.833 -0.833008 -29.5 -1.5c-4.66699 0 -9.5 -0.166992 -14.5 -0.5s-10.167 -0.833008 -15.5 -1.5c-13.333 -0.666992 -26.333 -1.16699 -39 -1.5s-23.667 -0.5 -33 -0.5c-79.333 0 -140 10.667 -182 32s-63 71.666 -63 150.999
v220v0z" />
    <glyph glyph-name="x" unicode="&#xd8;" horiz-adv-x="1018" 
d="M179 79h283v621h94v-621h283v621h94v-700h-848v700h94v-621v0z" />
    <glyph glyph-name="x" unicode="&#x428;" horiz-adv-x="1018" 
d="M179 79h283v621h94v-621h283v621h94v-700h-848v700h94v-621v0z" />
    <glyph glyph-name="y" unicode="&#xd9;" horiz-adv-x="1050" 
d="M179 700v-621h283v621h94v-621h283v621h94v-621h104l-9 -237h-82v158h-861v700h94v0z" />
    <glyph glyph-name="y" unicode="&#x429;" horiz-adv-x="1050" 
d="M179 700v-621h283v621h94v-621h283v621h94v-621h104l-9 -237h-82v158h-861v700h94v0z" />
    <glyph glyph-name="z" unicode="&#xda;" horiz-adv-x="816" 
d="M331 700l-0.000976562 -285.001h201c12.667 0 27.5 -1 44.5 -3s34.5 -6 52.5 -12c32 -11.333 61.5 -31.666 88.5 -60.999s40.5 -74 40.5 -134c0 -64.667 -16 -111.5 -48 -140.5s-67.333 -47.833 -106 -56.5c-12 -3.33301 -24.167 -5.5 -36.5 -6.5
s-24.166 -1.5 -35.499 -1.5h-295v621h-152v79h246v0zM330.999 335.999l0.000976562 -257.001h190c7.33301 0 16.666 0.833008 27.999 2.5s23.333 4.83398 36 9.50098c19.333 7.33301 37 20 53 38s24 44.333 24 79s-10.5 64.667 -31.5 90s-61.833 38 -122.5 38h-177v0z" />
    <glyph glyph-name="z" unicode="&#x42a;" horiz-adv-x="816" 
d="M331 700l-0.000976562 -285.001h201c12.667 0 27.5 -1 44.5 -3s34.5 -6 52.5 -12c32 -11.333 61.5 -31.666 88.5 -60.999s40.5 -74 40.5 -134c0 -64.667 -16 -111.5 -48 -140.5s-67.333 -47.833 -106 -56.5c-12 -3.33301 -24.167 -5.5 -36.5 -6.5
s-24.166 -1.5 -35.499 -1.5h-295v621h-152v79h246v0zM330.999 335.999l0.000976562 -257.001h190c7.33301 0 16.666 0.833008 27.999 2.5s23.333 4.83398 36 9.50098c19.333 7.33301 37 20 53 38s24 44.333 24 79s-10.5 64.667 -31.5 90s-61.833 38 -122.5 38h-177v0z" />
    <glyph glyph-name="braceleft" unicode="&#xdb;" horiz-adv-x="858" 
d="M179 700l-0.00195312 -284.998h202c6 0 19.833 -0.833008 41.5 -2.5s44.834 -7.83398 69.501 -18.501c28.667 -12 54.834 -32.333 78.501 -61s35.5 -71.334 35.5 -128.001c0 -66.667 -16.333 -114.5 -49 -143.5s-68.667 -47.5 -108 -55.5c-12 -2 -23.667 -3.5 -35 -4.5
s-22.333 -1.5 -33 -1.5h-296v700h94v0zM178.998 336.002l0.000976562 -257h189c7.33301 0 16.666 0.666992 27.999 2s23 4 35 8c19.333 7.33301 37.333 20 54 38s25 45 25 81c0 34.667 -11 64.667 -33 90s-62 38 -120 38h-178v0zM678.999 700.002h94v-700h-94v700v0z" />
    <glyph glyph-name="braceleft" unicode="&#x42b;" horiz-adv-x="858" 
d="M179 700l-0.00195312 -284.998h202c6 0 19.833 -0.833008 41.5 -2.5s44.834 -7.83398 69.501 -18.501c28.667 -12 54.834 -32.333 78.501 -61s35.5 -71.334 35.5 -128.001c0 -66.667 -16.333 -114.5 -49 -143.5s-68.667 -47.5 -108 -55.5c-12 -2 -23.667 -3.5 -35 -4.5
s-22.333 -1.5 -33 -1.5h-296v700h94v0zM178.998 336.002l0.000976562 -257h189c7.33301 0 16.666 0.666992 27.999 2s23 4 35 8c19.333 7.33301 37.333 20 54 38s25 45 25 81c0 34.667 -11 64.667 -33 90s-62 38 -120 38h-178v0zM678.999 700.002h94v-700h-94v700v0z" />
    <glyph glyph-name="bar" unicode="&#xdc;" horiz-adv-x="638" 
d="M179 700l-0.000976562 -285.001h201c12.667 0 27.5 -1 44.5 -3s34.5 -6 52.5 -12c32 -11.333 61.5 -31.666 88.5 -60.999s40.5 -74 40.5 -134c0 -64.667 -16 -111.5 -48 -140.5s-67.333 -47.833 -106 -56.5c-12 -3.33301 -24.167 -5.5 -36.5 -6.5
s-24.166 -1.5 -35.499 -1.5h-295v700h94v0zM178.999 335.999v-257.001h190c7.33301 0 16.666 0.833008 27.999 2.5s23.333 4.83398 36 9.50098c19.333 7.33301 37 20 53 38s24 44.333 24 79s-10.667 64.667 -32 90s-61.666 38 -120.999 38h-178v0z" />
    <glyph glyph-name="bar" unicode="&#x42c;" horiz-adv-x="638" 
d="M179 700l-0.000976562 -285.001h201c12.667 0 27.5 -1 44.5 -3s34.5 -6 52.5 -12c32 -11.333 61.5 -31.666 88.5 -60.999s40.5 -74 40.5 -134c0 -64.667 -16 -111.5 -48 -140.5s-67.333 -47.833 -106 -56.5c-12 -3.33301 -24.167 -5.5 -36.5 -6.5
s-24.166 -1.5 -35.499 -1.5h-295v700h94v0zM178.999 335.999v-257.001h190c7.33301 0 16.666 0.833008 27.999 2.5s23.333 4.83398 36 9.50098c19.333 7.33301 37 20 53 38s24 44.333 24 79s-10.667 64.667 -32 90s-61.666 38 -120.999 38h-178v0z" />
    <glyph glyph-name="braceright" unicode="&#xdd;" horiz-adv-x="719" 
d="M149 496l-93.999 0.00488281c4.66699 62 31.334 115 80.001 159s117 66 205 66c98 0 170.5 -22.5 217.5 -67.5s78.833 -94.5 95.5 -148.5c8 -26.667 13.5 -52.834 16.5 -78.501s4.5 -48.5 4.5 -68.5c0 -20.667 -1.33301 -45.5 -4 -74.5s-8.66699 -58.5 -18 -88.5
c-16.667 -54 -48 -103.333 -94 -148s-117.333 -67 -214 -67c-78 0 -137.833 16.333 -179.5 49s-71.834 68.667 -90.501 108c-8.66699 19.333 -15.334 38.166 -20.001 56.499s-7.66699 34.833 -9 49.5h94c1.33301 -9.33301 3.33301 -19.333 6 -30
s6.33398 -21.334 11.001 -32.001c12.667 -30.667 34 -58.834 64 -84.501s72.667 -38.5 128 -38.5c67.333 0 117.333 16.667 150 50s54.334 70.333 65.001 111c4 14.667 6.83301 29.5 8.5 44.5s2.5 28.833 2.5 41.5v9v8h-330v79h330
c-0.666992 13.333 -2.33398 28.666 -5.00098 45.999s-7 35 -13 53c-12.667 35.333 -34.667 67.833 -66 97.5s-78.333 44.5 -141 44.5c-56.667 0 -102.834 -13.5 -138.501 -40.5s-56.167 -62.167 -61.5 -105.5v0z" />
    <glyph glyph-name="braceright" unicode="&#x42d;" horiz-adv-x="719" 
d="M149 496l-93.999 0.00488281c4.66699 62 31.334 115 80.001 159s117 66 205 66c98 0 170.5 -22.5 217.5 -67.5s78.833 -94.5 95.5 -148.5c8 -26.667 13.5 -52.834 16.5 -78.501s4.5 -48.5 4.5 -68.5c0 -20.667 -1.33301 -45.5 -4 -74.5s-8.66699 -58.5 -18 -88.5
c-16.667 -54 -48 -103.333 -94 -148s-117.333 -67 -214 -67c-78 0 -137.833 16.333 -179.5 49s-71.834 68.667 -90.501 108c-8.66699 19.333 -15.334 38.166 -20.001 56.499s-7.66699 34.833 -9 49.5h94c1.33301 -9.33301 3.33301 -19.333 6 -30
s6.33398 -21.334 11.001 -32.001c12.667 -30.667 34 -58.834 64 -84.501s72.667 -38.5 128 -38.5c67.333 0 117.333 16.667 150 50s54.334 70.333 65.001 111c4 14.667 6.83301 29.5 8.5 44.5s2.5 28.833 2.5 41.5v9v8h-330v79h330
c-0.666992 13.333 -2.33398 28.666 -5.00098 45.999s-7 35 -13 53c-12.667 35.333 -34.667 67.833 -66 97.5s-78.333 44.5 -141 44.5c-56.667 0 -102.834 -13.5 -138.501 -40.5s-56.167 -62.167 -61.5 -105.5v0z" />
    <glyph glyph-name="asciitilde" unicode="&#xde;" horiz-adv-x="993" 
d="M179 408h105c0.666992 13.333 2.16699 26.833 4.5 40.5s5.5 27.5 9.5 41.5c16.667 58 49.5 111 98.5 159s121.167 72 216.5 72c86.667 0 164.167 -28.833 232.5 -86.5s102.5 -152.5 102.5 -284.5c0 -113.333 -28.5 -203.333 -85.5 -270s-140.167 -100 -249.5 -100
c-100 0 -173.5 24.167 -220.5 72.5s-78.5 101.5 -94.5 159.5c-5.33301 20 -9.5 40 -12.5 60s-4.83301 39 -5.5 57h-101v-329h-94v700h94v-292v0zM614 58c69.333 0 120.333 17.668 153 53.001s54.667 74.333 66 117c6 22.667 10 44.667 12 66s3 40 3 56
c0 92 -16.667 158.833 -50 200.5s-70 68.5 -110 80.5c-12.667 4 -25.334 6.83301 -38.001 8.5s-24.667 2.5 -36 2.5s-26.833 -1.33301 -46.5 -4s-40.167 -9.33398 -61.5 -20.001c-31.333 -16 -60.166 -44.167 -86.499 -84.5s-39.5 -101.5 -39.5 -183.5
c0 -8 0.166992 -15.833 0.5 -23.5s0.833008 -15.5 1.5 -23.5c5.33301 -61.333 25 -117.5 59 -168.5s91.667 -76.5 173 -76.5v0z" />
    <glyph glyph-name="asciitilde" unicode="&#x42e;" horiz-adv-x="993" 
d="M179 408h105c0.666992 13.333 2.16699 26.833 4.5 40.5s5.5 27.5 9.5 41.5c16.667 58 49.5 111 98.5 159s121.167 72 216.5 72c86.667 0 164.167 -28.833 232.5 -86.5s102.5 -152.5 102.5 -284.5c0 -113.333 -28.5 -203.333 -85.5 -270s-140.167 -100 -249.5 -100
c-100 0 -173.5 24.167 -220.5 72.5s-78.5 101.5 -94.5 159.5c-5.33301 20 -9.5 40 -12.5 60s-4.83301 39 -5.5 57h-101v-329h-94v700h94v-292v0zM614 58c69.333 0 120.333 17.668 153 53.001s54.667 74.333 66 117c6 22.667 10 44.667 12 66s3 40 3 56
c0 92 -16.667 158.833 -50 200.5s-70 68.5 -110 80.5c-12.667 4 -25.334 6.83301 -38.001 8.5s-24.667 2.5 -36 2.5s-26.833 -1.33301 -46.5 -4s-40.167 -9.33398 -61.5 -20.001c-31.333 -16 -60.166 -44.167 -86.499 -84.5s-39.5 -101.5 -39.5 -183.5
c0 -8 0.166992 -15.833 0.5 -23.5s0.833008 -15.5 1.5 -23.5c5.33301 -61.333 25 -117.5 59 -168.5s91.667 -76.5 173 -76.5v0z" />
    <glyph glyph-name="quotedblleft" unicode="&#xdf;" horiz-adv-x="683" 
d="M531 278h-159l-171 -278h-116l190 288c-8 0.666992 -16.5 1.66699 -25.5 3s-17.833 3.33301 -26.5 6c-34.667 9.33301 -66.334 28.833 -95.001 58.5s-43 74.834 -43 135.501c0 11.333 0.833008 24.166 2.5 38.499s5.16699 28.833 10.5 43.5
c10.667 32 32.834 61.167 66.501 87.5s87.5 39.5 161.5 39.5h299v-700h-94v278v0zM531 621l-196.999 0.000976562c-46 0 -79.667 -8.5 -101 -25.5s-36 -35.5 -44 -55.5c-2.66699 -8.66699 -4.66699 -17.334 -6 -26.001s-2 -16.667 -2 -24v-1.5v-1.5
c0.666992 -32.667 12.167 -62.5 34.5 -89.5s66.166 -40.5 131.499 -40.5h184v264v0z" />
    <glyph glyph-name="quotedblleft" unicode="&#x42f;" horiz-adv-x="683" 
d="M531 278h-159l-171 -278h-116l190 288c-8 0.666992 -16.5 1.66699 -25.5 3s-17.833 3.33301 -26.5 6c-34.667 9.33301 -66.334 28.833 -95.001 58.5s-43 74.834 -43 135.501c0 11.333 0.833008 24.166 2.5 38.499s5.16699 28.833 10.5 43.5
c10.667 32 32.834 61.167 66.501 87.5s87.5 39.5 161.5 39.5h299v-700h-94v278v0zM531 621l-196.999 0.000976562c-46 0 -79.667 -8.5 -101 -25.5s-36 -35.5 -44 -55.5c-2.66699 -8.66699 -4.66699 -17.334 -6 -26.001s-2 -16.667 -2 -24v-1.5v-1.5
c0.666992 -32.667 12.167 -62.5 34.5 -89.5s66.166 -40.5 131.499 -40.5h184v264v0z" />
    <glyph glyph-name="equal" unicode="&#xe0;" horiz-adv-x="553" 
d="M139 358l-84 -0.000976562v1.5v1.5v0.5v1.5v8.5c0 3 0.333008 6.16699 1 9.5c4 36.667 22 70.334 54 101.001s85.667 46 161 46c63.333 0 109 -10.833 137 -32.5s46.667 -45.167 56 -70.5c4 -12.667 6.5 -24.834 7.5 -36.501s1.5 -22.167 1.5 -31.5l-5 -235v-2.5v-2.5
v-2.5v-2.5c0 -17.333 2.66699 -30 8 -38s18 -12 38 -12h2h2h1h2v-62h-2.5h-2.5c-5.33301 -1.33301 -10.666 -2.16602 -15.999 -2.49902s-11.666 -0.5 -18.999 -0.5c-22.667 0 -42.167 3.5 -58.5 10.5s-27.166 27.833 -32.499 62.5c-10 -18 -21.833 -32.667 -35.5 -44
s-27.834 -20 -42.501 -26c-20 -8.66699 -39 -14 -57 -16s-31 -3 -39 -3c-50.667 0 -88.334 8.33301 -113.001 25s-42 35 -52 55c-6.66699 14.667 -10.667 28.5 -12 41.5s-2 23.167 -2 30.5c0 40 14.667 74.5 44 103.5s97.666 48.167 204.999 57.5c4 0.666992 8 1 12 1
s8 0.333008 12 1c26 2 45 6.33301 57 13s18 25 18 55c0 28.667 -6.16699 50.167 -18.5 64.5s-25.833 24.166 -40.5 29.499c-11.333 4 -22 6.33301 -32 7s-17.333 1 -22 1h-0.5h-0.5h-0.5h-0.5c-5.33301 0 -14 -0.333008 -26 -1s-24.333 -3 -37 -7
c-17.333 -6 -33 -16.167 -47 -30.5s-21 -36.166 -21 -65.499v-0.5v-1.5v-1.5v-0.5v0zM383 216.999l1.99805 43c-8.66699 -6.66699 -17.334 -11 -26.001 -13s-18 -3.66699 -28 -5c-2 0 -4 -0.166992 -6 -0.5s-4 -0.5 -6 -0.5
c-54.667 -4.66699 -100.167 -12.834 -136.5 -24.501s-54.5 -38.5 -54.5 -80.5c0 -4.66699 0.666992 -11 2 -19s4 -16.333 8 -25c5.33301 -12.667 14.833 -24.167 28.5 -34.5s33.5 -15.5 59.5 -15.5c42.667 0 74.834 9.83301 96.501 29.5s36.834 41.5 45.501 65.5
c6 15.333 9.83301 30.333 11.5 45s2.83398 26.334 3.50098 35.001v0z" />
    <glyph glyph-name="equal" unicode="&#x430;" horiz-adv-x="553" 
d="M139 358l-84 -0.000976562v1.5v1.5v0.5v1.5v8.5c0 3 0.333008 6.16699 1 9.5c4 36.667 22 70.334 54 101.001s85.667 46 161 46c63.333 0 109 -10.833 137 -32.5s46.667 -45.167 56 -70.5c4 -12.667 6.5 -24.834 7.5 -36.501s1.5 -22.167 1.5 -31.5l-5 -235v-2.5v-2.5
v-2.5v-2.5c0 -17.333 2.66699 -30 8 -38s18 -12 38 -12h2h2h1h2v-62h-2.5h-2.5c-5.33301 -1.33301 -10.666 -2.16602 -15.999 -2.49902s-11.666 -0.5 -18.999 -0.5c-22.667 0 -42.167 3.5 -58.5 10.5s-27.166 27.833 -32.499 62.5c-10 -18 -21.833 -32.667 -35.5 -44
s-27.834 -20 -42.501 -26c-20 -8.66699 -39 -14 -57 -16s-31 -3 -39 -3c-50.667 0 -88.334 8.33301 -113.001 25s-42 35 -52 55c-6.66699 14.667 -10.667 28.5 -12 41.5s-2 23.167 -2 30.5c0 40 14.667 74.5 44 103.5s97.666 48.167 204.999 57.5c4 0.666992 8 1 12 1
s8 0.333008 12 1c26 2 45 6.33301 57 13s18 25 18 55c0 28.667 -6.16699 50.167 -18.5 64.5s-25.833 24.166 -40.5 29.499c-11.333 4 -22 6.33301 -32 7s-17.333 1 -22 1h-0.5h-0.5h-0.5h-0.5c-5.33301 0 -14 -0.333008 -26 -1s-24.333 -3 -37 -7
c-17.333 -6 -33 -16.167 -47 -30.5s-21 -36.166 -21 -65.499v-0.5v-1.5v-1.5v-0.5v0zM383 216.999l1.99805 43c-8.66699 -6.66699 -17.334 -11 -26.001 -13s-18 -3.66699 -28 -5c-2 0 -4 -0.166992 -6 -0.5s-4 -0.5 -6 -0.5
c-54.667 -4.66699 -100.167 -12.834 -136.5 -24.501s-54.5 -38.5 -54.5 -80.5c0 -4.66699 0.666992 -11 2 -19s4 -16.333 8 -25c5.33301 -12.667 14.833 -24.167 28.5 -34.5s33.5 -15.5 59.5 -15.5c42.667 0 74.834 9.83301 96.501 29.5s36.834 41.5 45.501 65.5
c6 15.333 9.83301 30.333 11.5 45s2.83398 26.334 3.50098 35.001v0z" />
    <glyph glyph-name="K" unicode="&#xe1;" horiz-adv-x="611" 
d="M448 733l74.9971 -0.00195312c-2 -36 -14.167 -61.5 -36.5 -76.5s-46.5 -25.167 -72.5 -30.5c-11.333 -2.66699 -22.166 -4.5 -32.499 -5.5s-20.166 -2.16699 -29.499 -3.5c-57.333 -6 -108.5 -20.667 -153.5 -44s-70.5 -82.666 -76.5 -177.999h3
c2.66699 7.33301 6.33398 15.833 11.001 25.5s11 19.5 19 29.5c14 19.333 34.167 37.166 60.5 53.499s61.5 24.5 105.5 24.5c64.667 0 121.334 -22.167 170.001 -66.5s73 -116.166 73 -215.499c0 -82.667 -22.833 -147.5 -68.5 -194.5s-106.167 -70.5 -181.5 -70.5
c-14 0 -31 1.33301 -51 4s-40.667 8.66699 -62 18c-36 17.333 -68.833 49.833 -98.5 97.5s-44.5 121.834 -44.5 222.501c0 161.333 28.167 261.333 84.5 300s124.166 62 203.499 70c39.333 4 65.333 8.66699 78 14s20.667 14 24 26v0zM150.997 243.998
c0 -60.667 9.83105 -104.995 29.498 -132.995s41.5 -47 65.5 -57c12 -4.66699 23.833 -7.83398 35.5 -9.50098s21.834 -2.5 30.501 -2.5s19 0.666992 31 2s24 4.66602 36 9.99902c23.333 9.33301 44.5 27.666 63.5 54.999s28.5 71 28.5 131c0 12 -0.5 24.5 -1.5 37.5
s-2.5 26.167 -4.5 39.5c-6.66699 37.333 -21.167 71.5 -43.5 102.5s-58.833 46.5 -109.5 46.5c-4.66699 0 -14.667 -1 -30 -3s-31.666 -8.66699 -48.999 -20c-20.667 -12.667 -39.5 -34.334 -56.5 -65.001s-25.5 -75.334 -25.5 -134.001v0z" />
    <glyph glyph-name="K" unicode="&#x431;" horiz-adv-x="611" 
d="M448 733l74.9971 -0.00195312c-2 -36 -14.167 -61.5 -36.5 -76.5s-46.5 -25.167 -72.5 -30.5c-11.333 -2.66699 -22.166 -4.5 -32.499 -5.5s-20.166 -2.16699 -29.499 -3.5c-57.333 -6 -108.5 -20.667 -153.5 -44s-70.5 -82.666 -76.5 -177.999h3
c2.66699 7.33301 6.33398 15.833 11.001 25.5s11 19.5 19 29.5c14 19.333 34.167 37.166 60.5 53.499s61.5 24.5 105.5 24.5c64.667 0 121.334 -22.167 170.001 -66.5s73 -116.166 73 -215.499c0 -82.667 -22.833 -147.5 -68.5 -194.5s-106.167 -70.5 -181.5 -70.5
c-14 0 -31 1.33301 -51 4s-40.667 8.66699 -62 18c-36 17.333 -68.833 49.833 -98.5 97.5s-44.5 121.834 -44.5 222.501c0 161.333 28.167 261.333 84.5 300s124.166 62 203.499 70c39.333 4 65.333 8.66699 78 14s20.667 14 24 26v0zM150.997 243.998
c0 -60.667 9.83105 -104.995 29.498 -132.995s41.5 -47 65.5 -57c12 -4.66699 23.833 -7.83398 35.5 -9.50098s21.834 -2.5 30.501 -2.5s19 0.666992 31 2s24 4.66602 36 9.99902c23.333 9.33301 44.5 27.666 63.5 54.999s28.5 71 28.5 131c0 12 -0.5 24.5 -1.5 37.5
s-2.5 26.167 -4.5 39.5c-6.66699 37.333 -21.167 71.5 -43.5 102.5s-58.833 46.5 -109.5 46.5c-4.66699 0 -14.667 -1 -30 -3s-31.666 -8.66699 -48.999 -20c-20.667 -12.667 -39.5 -34.334 -56.5 -65.001s-25.5 -75.334 -25.5 -134.001v0z" />
    <glyph glyph-name="quotedbl" unicode="&#xe2;" horiz-adv-x="539" 
d="M72 508h241.998c8 0 18.667 -0.333008 32 -1s27.333 -3 42 -7c22 -6 42 -17.333 60 -34s27 -43 27 -79c0 -30.667 -7.5 -55 -22.5 -73s-31.167 -31 -48.5 -39c-4 -1.33301 -7.66699 -2.66602 -11 -3.99902s-6.66602 -2.33301 -9.99902 -3v-3
c46 -10.667 76 -28.5 90 -53.5s21 -51.5 21 -79.5c0 -54.667 -18.667 -90.334 -56 -107.001s-79.666 -25 -126.999 -25h-239v508v0zM159.998 234l0.000976562 -172.002h129c4.66699 0 12.167 0.333008 22.5 1s20.833 2.33398 31.5 5.00098c15.333 4 29.166 11.5 41.499 22.5
s18.5 27.5 18.5 49.5c0 28 -6.66699 48.5 -20 61.5s-28 21.833 -44 26.5c-10 2.66699 -19.833 4.33398 -29.5 5.00098s-17.5 1 -23.5 1h-126v0zM159.999 445.998v-150h122c32 0 55.5 5.5 70.5 16.5s24.833 22.833 29.5 35.5c1.33301 4.66699 2.33301 9.16699 3 13.5
s1 8.5 1 12.5c0 22 -5.83301 38 -17.5 48s-24.167 16.667 -37.5 20c-8.66699 2 -17 3.16699 -25 3.5s-14.667 0.5 -20 0.5h-126v0z" />
    <glyph glyph-name="quotedbl" unicode="&#x432;" horiz-adv-x="539" 
d="M72 508h241.998c8 0 18.667 -0.333008 32 -1s27.333 -3 42 -7c22 -6 42 -17.333 60 -34s27 -43 27 -79c0 -30.667 -7.5 -55 -22.5 -73s-31.167 -31 -48.5 -39c-4 -1.33301 -7.66699 -2.66602 -11 -3.99902s-6.66602 -2.33301 -9.99902 -3v-3
c46 -10.667 76 -28.5 90 -53.5s21 -51.5 21 -79.5c0 -54.667 -18.667 -90.334 -56 -107.001s-79.666 -25 -126.999 -25h-239v508v0zM159.998 234l0.000976562 -172.002h129c4.66699 0 12.167 0.333008 22.5 1s20.833 2.33398 31.5 5.00098c15.333 4 29.166 11.5 41.499 22.5
s18.5 27.5 18.5 49.5c0 28 -6.66699 48.5 -20 61.5s-28 21.833 -44 26.5c-10 2.66699 -19.833 4.33398 -29.5 5.00098s-17.5 1 -23.5 1h-126v0zM159.999 445.998v-150h122c32 0 55.5 5.5 70.5 16.5s24.833 22.833 29.5 35.5c1.33301 4.66699 2.33301 9.16699 3 13.5
s1 8.5 1 12.5c0 22 -5.83301 38 -17.5 48s-24.167 16.667 -37.5 20c-8.66699 2 -17 3.16699 -25 3.5s-14.667 0.5 -20 0.5h-126v0z" />
    <glyph glyph-name="atilde" unicode="&#xe3;" horiz-adv-x="433" 
d="M160 446v-446h-88v508h348v-62h-260v0z" />
    <glyph glyph-name="atilde" unicode="&#x433;" horiz-adv-x="433" 
d="M160 446v-446h-88v508h348v-62h-260v0z" />
    <glyph glyph-name="adieresis" unicode="&#xe4;" horiz-adv-x="603" 
d="M0 62l64.001 0.000976562c14 20.667 25.667 42.167 35 64.5s17.333 44.833 24 67.5c11.333 42.667 18.166 84.167 20.499 124.5s3.5 75.166 3.5 104.499v85h364v-446h88l-7 -194h-74v132h-436v-132h-74l-8 194v0zM423.001 446.001h-193.999v-71
c0 -17.333 -0.666992 -35 -2 -53s-3 -36.333 -5 -55c-5.33301 -38 -13.333 -75 -24 -111s-24.334 -67.333 -41.001 -94h266v384v0z" />
    <glyph glyph-name="adieresis" unicode="&#x434;" horiz-adv-x="603" 
d="M0 62l64.001 0.000976562c14 20.667 25.667 42.167 35 64.5s17.333 44.833 24 67.5c11.333 42.667 18.166 84.167 20.499 124.5s3.5 75.166 3.5 104.499v85h364v-446h88l-7 -194h-74v132h-436v-132h-74l-8 194v0zM423.001 446.001h-193.999v-71
c0 -17.333 -0.666992 -35 -2 -53s-3 -36.333 -5 -55c-5.33301 -38 -13.333 -75 -24 -111s-24.334 -67.333 -41.001 -94h266v384v0z" />
    <glyph glyph-name="yright" unicode="&#xe5;" horiz-adv-x="570" 
d="M438 147l84 -0.00195312c-2 -9.33301 -4.5 -19.166 -7.5 -29.499s-7.5 -20.833 -13.5 -31.5c-13.333 -26.667 -35.5 -50.834 -66.5 -72.501s-75.833 -32.5 -134.5 -32.5c-10 0 -26.667 1 -50 3s-48 8.66699 -74 20c-33.333 14.667 -63.833 40.834 -91.5 78.501
s-41.5 94.167 -41.5 169.5c0 84 20.333 151 61 201s103 75 187 75c91.333 0 152.833 -27.333 184.5 -82s48.834 -125.334 51.501 -212.001h-391c0.666992 -10.667 1.83398 -22.667 3.50098 -36s4.5 -26.666 8.5 -39.999c9.33301 -29.333 25.166 -56 47.499 -80
s56.166 -36 101.499 -36c38.667 0 70.5 9.83301 95.5 29.5s40.167 44.834 45.5 75.501v0zM136 295.998h298.002c0 9.33301 -0.833008 20 -2.5 32s-4.16699 24 -7.5 36c-7.33301 25.333 -20.833 48.666 -40.5 69.999s-49.834 32 -90.501 32
c-50.667 0 -87.834 -14.167 -111.501 -42.5s-38.167 -59.166 -43.5 -92.499c-0.666992 -6 -1.16699 -12 -1.5 -18s-0.5 -11.667 -0.5 -17v0z" />
    <glyph glyph-name="yright" unicode="&#x435;" horiz-adv-x="570" 
d="M438 147l84 -0.00195312c-2 -9.33301 -4.5 -19.166 -7.5 -29.499s-7.5 -20.833 -13.5 -31.5c-13.333 -26.667 -35.5 -50.834 -66.5 -72.501s-75.833 -32.5 -134.5 -32.5c-10 0 -26.667 1 -50 3s-48 8.66699 -74 20c-33.333 14.667 -63.833 40.834 -91.5 78.501
s-41.5 94.167 -41.5 169.5c0 84 20.333 151 61 201s103 75 187 75c91.333 0 152.833 -27.333 184.5 -82s48.834 -125.334 51.501 -212.001h-391c0.666992 -10.667 1.83398 -22.667 3.50098 -36s4.5 -26.666 8.5 -39.999c9.33301 -29.333 25.166 -56 47.499 -80
s56.166 -36 101.499 -36c38.667 0 70.5 9.83301 95.5 29.5s40.167 44.834 45.5 75.501v0zM136 295.998h298.002c0 9.33301 -0.833008 20 -2.5 32s-4.16699 24 -7.5 36c-7.33301 25.333 -20.833 48.666 -40.5 69.999s-49.834 32 -90.501 32
c-50.667 0 -87.834 -14.167 -111.501 -42.5s-38.167 -59.166 -43.5 -92.499c-0.666992 -6 -1.16699 -12 -1.5 -18s-0.5 -11.667 -0.5 -17v0z" />
    <glyph glyph-name="guilsinglright" unicode="&#xe6;" horiz-adv-x="702" 
d="M307 0v251l-202 -251h-109l233 267l-220 241h104l194 -230v230h88v-230l194 230h104l-220 -241l233 -267h-109l-202 251v-251h-88v0z" />
    <glyph glyph-name="guilsinglright" unicode="&#x436;" horiz-adv-x="702" 
d="M307 0v251l-202 -251h-109l233 267l-220 241h104l194 -230v230h88v-230l194 230h104l-220 -241l233 -267h-109l-202 251v-251h-88v0z" />
    <glyph glyph-name="florin" unicode="&#xe7;" horiz-adv-x="517" 
d="M32 156h83.998c0 -3.33301 0.166992 -6.83301 0.5 -10.5s1.16602 -7.5 2.49902 -11.5c4.66699 -23.333 17.334 -44.5 38.001 -63.5s52 -28.5 94 -28.5s74.5 8.66699 97.5 26s34.5 42 34.5 74c0 5.33301 -0.333008 11.166 -1 17.499s-2.33398 12.5 -5.00098 18.5
c-5.33301 14 -16 26.667 -32 38s-41.667 17 -77 17h-75v62h65c4.66699 0 9.5 0.166992 14.5 0.5s9.83301 0.833008 14.5 1.5c19.333 2 37 8.33301 53 19s24 30 24 58c0 4.66699 -0.333008 9.66699 -1 15s-2 10.666 -4 15.999c-4.66699 15.333 -15.167 29.333 -31.5 42
s-42.5 19 -78.5 19c-32.667 0 -57.334 -5.66699 -74.001 -17s-28.334 -24 -35.001 -38c-4 -8 -6.83301 -15.833 -8.5 -23.5s-2.5 -14.167 -2.5 -19.5h-84l2 18.5c0.666992 6.33301 1.66699 12.5 3 18.5c8 30.667 26.833 58.834 56.5 84.501s78.834 38.5 147.501 38.5
c62.667 0 108.334 -10.333 137.001 -31s47.334 -43.667 56.001 -69c2.66699 -8 4.66699 -16.167 6 -24.5s2 -16.166 2 -23.499c0 -30 -6.83301 -53.167 -20.5 -69.5s-28.5 -27.833 -44.5 -34.5l-11.5 -4c-3.66699 -1.33301 -7.5 -2.33301 -11.5 -3v-3
c4.66699 -0.666992 9.33398 -1.66699 14.001 -3s9.33398 -3 14.001 -5c20 -8 38.167 -21.5 54.5 -40.5s24.5 -46.167 24.5 -81.5c0 -8.66699 -0.833008 -18.334 -2.5 -29.001s-5.16699 -21.667 -10.5 -33c-10.667 -23.333 -31.167 -44.666 -61.5 -63.999
s-77.5 -29 -141.5 -29c-10.667 0 -25.667 0.833008 -45 2.5s-40 6.16699 -62 13.5c-28 8.66699 -54.167 25.167 -78.5 49.5s-37.833 60.833 -40.5 109.5v0z" />
    <glyph glyph-name="florin" unicode="&#x437;" horiz-adv-x="517" 
d="M32 156h83.998c0 -3.33301 0.166992 -6.83301 0.5 -10.5s1.16602 -7.5 2.49902 -11.5c4.66699 -23.333 17.334 -44.5 38.001 -63.5s52 -28.5 94 -28.5s74.5 8.66699 97.5 26s34.5 42 34.5 74c0 5.33301 -0.333008 11.166 -1 17.499s-2.33398 12.5 -5.00098 18.5
c-5.33301 14 -16 26.667 -32 38s-41.667 17 -77 17h-75v62h65c4.66699 0 9.5 0.166992 14.5 0.5s9.83301 0.833008 14.5 1.5c19.333 2 37 8.33301 53 19s24 30 24 58c0 4.66699 -0.333008 9.66699 -1 15s-2 10.666 -4 15.999c-4.66699 15.333 -15.167 29.333 -31.5 42
s-42.5 19 -78.5 19c-32.667 0 -57.334 -5.66699 -74.001 -17s-28.334 -24 -35.001 -38c-4 -8 -6.83301 -15.833 -8.5 -23.5s-2.5 -14.167 -2.5 -19.5h-84l2 18.5c0.666992 6.33301 1.66699 12.5 3 18.5c8 30.667 26.833 58.834 56.5 84.501s78.834 38.5 147.501 38.5
c62.667 0 108.334 -10.333 137.001 -31s47.334 -43.667 56.001 -69c2.66699 -8 4.66699 -16.167 6 -24.5s2 -16.166 2 -23.499c0 -30 -6.83301 -53.167 -20.5 -69.5s-28.5 -27.833 -44.5 -34.5l-11.5 -4c-3.66699 -1.33301 -7.5 -2.33301 -11.5 -3v-3
c4.66699 -0.666992 9.33398 -1.66699 14.001 -3s9.33398 -3 14.001 -5c20 -8 38.167 -21.5 54.5 -40.5s24.5 -46.167 24.5 -81.5c0 -8.66699 -0.833008 -18.334 -2.5 -29.001s-5.16699 -21.667 -10.5 -33c-10.667 -23.333 -31.167 -44.666 -61.5 -63.999
s-77.5 -29 -141.5 -29c-10.667 0 -25.667 0.833008 -45 2.5s-40 6.16699 -62 13.5c-28 8.66699 -54.167 25.167 -78.5 49.5s-37.833 60.833 -40.5 109.5v0z" />
    <glyph glyph-name="comma" unicode="&#xe8;" horiz-adv-x="595" 
d="M160 103l265 405h98v-508h-88v406l-264 -406h-99v508h88v-405v0z" />
    <glyph glyph-name="comma" unicode="&#x438;" horiz-adv-x="595" 
d="M160 103l265 405h98v-508h-88v406l-264 -406h-99v508h88v-405v0z" />
    <glyph glyph-name="L" unicode="&#xe9;" horiz-adv-x="595" 
d="M160 103l265 405h98v-508h-88v406l-264 -406h-99v508h88v-405v0zM124 700l73.002 0.000976562c5.33301 -28.667 15.333 -48.334 30 -59.001s30.334 -17 47.001 -19c3.33301 -0.666992 6.83301 -1 10.5 -1h10.5c28.667 0 52 7.16699 70 21.5s27 32.166 27 53.499v0.5v1.5
v1.5v0.5h75c-1.33301 -7.33301 -3.5 -15.666 -6.5 -24.999s-7.16699 -19 -12.5 -29c-10.667 -19.333 -27.834 -37.166 -51.501 -53.499s-57.5 -24.5 -101.5 -24.5c-52 0 -91.333 12.167 -118 36.5s-43.334 51.166 -50.001 80.499
c-0.666992 2.66699 -1.33398 5.16699 -2.00098 7.5s-1 4.83301 -1 7.5v0z" />
    <glyph glyph-name="L" unicode="&#x439;" horiz-adv-x="595" 
d="M160 103l265 405h98v-508h-88v406l-264 -406h-99v508h88v-405v0zM124 700l73.002 0.000976562c5.33301 -28.667 15.333 -48.334 30 -59.001s30.334 -17 47.001 -19c3.33301 -0.666992 6.83301 -1 10.5 -1h10.5c28.667 0 52 7.16699 70 21.5s27 32.166 27 53.499v0.5v1.5
v1.5v0.5h75c-1.33301 -7.33301 -3.5 -15.666 -6.5 -24.999s-7.16699 -19 -12.5 -29c-10.667 -19.333 -27.834 -37.166 -51.501 -53.499s-57.5 -24.5 -101.5 -24.5c-52 0 -91.333 12.167 -118 36.5s-43.334 51.166 -50.001 80.499
c-0.666992 2.66699 -1.33398 5.16699 -2.00098 7.5s-1 4.83301 -1 7.5v0z" />
    <glyph glyph-name="asterisk" unicode="&#xea;" horiz-adv-x="489" 
d="M160 286l217 222h103l-238 -236l251 -272h-105l-228 254v-254h-88v508h88v-222v0z" />
    <glyph glyph-name="asterisk" unicode="&#x43a;" horiz-adv-x="489" 
d="M160 286l217 222h103l-238 -236l251 -272h-105l-228 254v-254h-88v508h88v-222v0z" />
    <glyph glyph-name="edieresis" unicode="&#xeb;" horiz-adv-x="560" 
d="M13 0v65.002c4.66699 -0.666992 9 -1.33398 13 -2.00098s8 -1 12 -1c44.667 0.666992 72 27.167 82 79.5s15 110.833 15 175.5v191h353v-508h-88v446h-182v-129c0 -80.667 -8.33301 -154.334 -25 -221.001s-62 -99.667 -136 -99c-6.66699 0 -13.667 0.333008 -21 1l-23 2
v0z" />
    <glyph glyph-name="edieresis" unicode="&#x43b;" horiz-adv-x="560" 
d="M13 0v65.002c4.66699 -0.666992 9 -1.33398 13 -2.00098s8 -1 12 -1c44.667 0.666992 72 27.167 82 79.5s15 110.833 15 175.5v191h353v-508h-88v446h-182v-129c0 -80.667 -8.33301 -154.334 -25 -221.001s-62 -99.667 -136 -99c-6.66699 0 -13.667 0.333008 -21 1l-23 2
v0z" />
    <glyph glyph-name="igrave" unicode="&#xec;" horiz-adv-x="732" 
d="M332 0l-172 408h-2l2 -27v-381h-88v508h121l173 -413l173 413h121v-508h-88v381l3 27h-3l-172 -408h-68v0z" />
    <glyph glyph-name="igrave" unicode="&#x43c;" horiz-adv-x="732" 
d="M332 0l-172 408h-2l2 -27v-381h-88v508h121l173 -413l173 413h121v-508h-88v381l3 27h-3l-172 -408h-68v0z" />
    <glyph glyph-name="ellipsis" unicode="&#xed;" horiz-adv-x="571" 
d="M160 237v-237h-88v508h88v-209h251v209h88v-508h-88v237h-251v0z" />
    <glyph glyph-name="ellipsis" unicode="&#x43d;" horiz-adv-x="571" 
d="M160 237v-237h-88v508h88v-209h251v209h88v-508h-88v237h-251v0z" />
    <glyph glyph-name="percent" unicode="&#xee;" horiz-adv-x="585" 
d="M43 255c0 86 22 152.999 66 200.999s105 72 183 72c77.333 0 138.333 -24.167 183 -72.5s67 -115.166 67 -200.499c0 -84.667 -22.333 -151.5 -67 -200.5s-105.667 -73.5 -183 -73.5c-78 0 -139 24.333 -183 73s-66 115.667 -66 201v0zM136 254.999
c0 -8 0.169922 -15.999 0.50293 -23.999s1.16602 -16 2.49902 -24c4.66699 -41.333 18 -79.166 40 -113.499s59.667 -51.5 113 -51.5s91.166 17.167 113.499 51.5s35.833 72.166 40.5 113.499c1.33301 8 2.16602 16 2.49902 24s0.5 16 0.5 24
c0 7.33301 -0.166992 14.666 -0.5 21.999s-0.833008 15 -1.5 23c-4.66699 41.333 -18.167 79.333 -40.5 114s-60.5 52 -114.5 52c-54.667 0 -93 -17.667 -115 -53s-35 -74 -39 -116c-0.666992 -7.33301 -1.16699 -14.5 -1.5 -21.5s-0.5 -13.833 -0.5 -20.5v0z" />
    <glyph glyph-name="percent" unicode="&#x43e;" horiz-adv-x="585" 
d="M43 255c0 86 22 152.999 66 200.999s105 72 183 72c77.333 0 138.333 -24.167 183 -72.5s67 -115.166 67 -200.499c0 -84.667 -22.333 -151.5 -67 -200.5s-105.667 -73.5 -183 -73.5c-78 0 -139 24.333 -183 73s-66 115.667 -66 201v0zM136 254.999
c0 -8 0.169922 -15.999 0.50293 -23.999s1.16602 -16 2.49902 -24c4.66699 -41.333 18 -79.166 40 -113.499s59.667 -51.5 113 -51.5s91.166 17.167 113.499 51.5s35.833 72.166 40.5 113.499c1.33301 8 2.16602 16 2.49902 24s0.5 16 0.5 24
c0 7.33301 -0.166992 14.666 -0.5 21.999s-0.833008 15 -1.5 23c-4.66699 41.333 -18.167 79.333 -40.5 114s-60.5 52 -114.5 52c-54.667 0 -93 -17.667 -115 -53s-35 -74 -39 -116c-0.666992 -7.33301 -1.16699 -14.5 -1.5 -21.5s-0.5 -13.833 -0.5 -20.5v0z" />
    <glyph glyph-name="C" unicode="&#xef;" horiz-adv-x="577" 
d="M160 446v-446h-88v508h433v-508h-88v446h-257v0z" />
    <glyph glyph-name="C" unicode="&#x43f;" horiz-adv-x="577" 
d="M160 446v-446h-88v508h433v-508h-88v446h-257v0z" />
    <glyph glyph-name="exclam" unicode="&#xf0;" horiz-adv-x="597" 
d="M72 508l83.999 0.000976562l-1 -69h2c24.667 34 51.334 57.333 80.001 70s58 19 88 19c70 0 125.667 -23.833 167 -71.5s62 -115.167 62 -202.5c0 -90.667 -21.5 -158.834 -64.5 -204.501s-97.167 -68.5 -162.5 -68.5h-5.5h-5.5c-31.333 2 -61.333 10.333 -90 25
s-50.667 37 -66 67v-258h-88v693v0zM153.999 252.001c0 -72.667 16.3311 -125.832 48.998 -159.499s68.667 -50.5 108 -50.5c40.667 0 75.834 16.667 105.501 50s44.5 87.333 44.5 162c0 71.333 -14.5 124.5 -43.5 159.5s-66.167 52.5 -111.5 52.5
c-7.33301 0 -15.166 -0.666992 -23.499 -2s-16.833 -3.33301 -25.5 -6c-26 -9.33301 -49.667 -29.333 -71 -60s-32 -79.334 -32 -146.001v0z" />
    <glyph glyph-name="exclam" unicode="&#x440;" horiz-adv-x="597" 
d="M72 508l83.999 0.000976562l-1 -69h2c24.667 34 51.334 57.333 80.001 70s58 19 88 19c70 0 125.667 -23.833 167 -71.5s62 -115.167 62 -202.5c0 -90.667 -21.5 -158.834 -64.5 -204.501s-97.167 -68.5 -162.5 -68.5h-5.5h-5.5c-31.333 2 -61.333 10.333 -90 25
s-50.667 37 -66 67v-258h-88v693v0zM153.999 252.001c0 -72.667 16.3311 -125.832 48.998 -159.499s68.667 -50.5 108 -50.5c40.667 0 75.834 16.667 105.501 50s44.5 87.333 44.5 162c0 71.333 -14.5 124.5 -43.5 159.5s-66.167 52.5 -111.5 52.5
c-7.33301 0 -15.166 -0.666992 -23.499 -2s-16.833 -3.33301 -25.5 -6c-26 -9.33301 -49.667 -29.333 -71 -60s-32 -79.334 -32 -146.001v0z" />
    <glyph glyph-name="quotedblleft" unicode="&#xf1;" horiz-adv-x="548" 
d="M428 181l84.001 0.000976562c-1.33301 -10 -3 -20.667 -5 -32s-5.33301 -22.666 -10 -33.999c-12 -34 -33.667 -64.833 -65 -92.5s-78.333 -41.5 -141 -41.5c-73.333 0 -127.333 17 -162 51s-58 71.333 -70 112c-6.66699 20.667 -11 41 -13 61s-3 37.667 -3 53
c0 14.667 0.833008 30.167 2.5 46.5s4.5 33.166 8.5 50.499c11.333 43.333 34.166 83 68.499 119s88.5 54 162.5 54c70 0 121.833 -16.333 155.5 -49s54.834 -68.667 63.501 -108l2 -10.5l2 -11.5h-84c-0.666992 4 -1.5 8 -2.5 12s-2.16699 8 -3.5 12
c-6.66699 23.333 -19.834 44.666 -39.501 63.999s-50.167 29 -91.5 29c-58.667 0 -98.5 -21.667 -119.5 -65s-31.5 -91 -31.5 -143c0 -5.33301 0.166992 -10.833 0.5 -16.5s0.5 -11.167 0.5 -16.5c4 -46 17.667 -88 41 -126s61.666 -57 114.999 -57
c35.333 0 62.5 8.66699 81.5 26s32.833 36.333 41.5 57c4 10 6.83301 19.833 8.5 29.5s2.83398 18.5 3.50098 26.5v0z" />
    <glyph glyph-name="quotedblleft" unicode="&#x441;" horiz-adv-x="548" 
d="M428 181l84.001 0.000976562c-1.33301 -10 -3 -20.667 -5 -32s-5.33301 -22.666 -10 -33.999c-12 -34 -33.667 -64.833 -65 -92.5s-78.333 -41.5 -141 -41.5c-73.333 0 -127.333 17 -162 51s-58 71.333 -70 112c-6.66699 20.667 -11 41 -13 61s-3 37.667 -3 53
c0 14.667 0.833008 30.167 2.5 46.5s4.5 33.166 8.5 50.499c11.333 43.333 34.166 83 68.499 119s88.5 54 162.5 54c70 0 121.833 -16.333 155.5 -49s54.834 -68.667 63.501 -108l2 -10.5l2 -11.5h-84c-0.666992 4 -1.5 8 -2.5 12s-2.16699 8 -3.5 12
c-6.66699 23.333 -19.834 44.666 -39.501 63.999s-50.167 29 -91.5 29c-58.667 0 -98.5 -21.667 -119.5 -65s-31.5 -91 -31.5 -143c0 -5.33301 0.166992 -10.833 0.5 -16.5s0.5 -11.167 0.5 -16.5c4 -46 17.667 -88 41 -126s61.666 -57 114.999 -57
c35.333 0 62.5 8.66699 81.5 26s32.833 36.333 41.5 57c4 10 6.83301 19.833 8.5 29.5s2.83398 18.5 3.50098 26.5v0z" />
    <glyph glyph-name="two" unicode="&#xf2;" horiz-adv-x="466" 
d="M189 446h-176v62h440v-62h-176v-446h-88v446v0z" />
    <glyph glyph-name="two" unicode="&#x442;" horiz-adv-x="466" 
d="M189 446h-176v62h440v-62h-176v-446h-88v446v0z" />
    <glyph glyph-name="three" unicode="&#xf3;" horiz-adv-x="498" 
d="M91 -184v64.998l29.5 -3c6.33301 -0.666992 11.166 -1 14.499 -1c24 0 41.167 7.33301 51.5 22s19.5 34.667 27.5 60c0 0.666992 0.166992 1.33398 0.5 2.00098s0.5 1.33398 0.5 2.00098l12 37l-220 508h105l163 -411l135 411h88l-202 -568
c-1.33301 -2.66699 -2.5 -5.83398 -3.5 -9.50098s-2.16699 -7.16699 -3.5 -10.5c-10 -27.333 -23.5 -52.166 -40.5 -74.499s-45.5 -33.5 -85.5 -33.5c-13.333 0 -26.166 0.333008 -38.499 1s-23.5 2 -33.5 4v-1z" />
    <glyph glyph-name="three" unicode="&#x443;" horiz-adv-x="498" 
d="M91 -184v64.998l29.5 -3c6.33301 -0.666992 11.166 -1 14.499 -1c24 0 41.167 7.33301 51.5 22s19.5 34.667 27.5 60c0 0.666992 0.166992 1.33398 0.5 2.00098s0.5 1.33398 0.5 2.00098l12 37l-220 508h105l163 -411l135 411h88l-202 -568
c-1.33301 -2.66699 -2.5 -5.83398 -3.5 -9.50098s-2.16699 -7.16699 -3.5 -10.5c-10 -27.333 -23.5 -52.166 -40.5 -74.499s-45.5 -33.5 -85.5 -33.5c-13.333 0 -26.166 0.333008 -38.499 1s-23.5 2 -33.5 4v-1z" />
    <glyph glyph-name="hyphen" unicode="&#xf4;" horiz-adv-x="794" 
d="M353 -185l0.00292969 171.996c-108.667 2.66699 -184.834 26.334 -228.501 71.001s-69.5 93.667 -77.5 147c-1.33301 8.66699 -2.33301 17.334 -3 26.001s-1 17.334 -1 26.001c0 14 1.33301 31.333 4 52s8.66699 42 18 64c15.333 36.667 43.166 70.334 83.499 101.001
s102.166 46 185.499 46h9.5h9.5v180h88v-180h6h8c14 0 33.667 -1.33301 59 -4s52 -9 80 -19c39.333 -14.667 75.333 -40.167 108 -76.5s49 -90.833 49 -163.5c0 -84 -25.333 -149.333 -76 -196s-128.667 -71 -234 -73v-173h-88v0zM353.003 48.9961l0.000976562 409.001h-4
c-1.33301 0 -2.66602 0.333008 -3.99902 1h-4.5h-5.5c-10.667 0 -22 -0.666992 -34 -2s-24 -4 -36 -8c-32.667 -9.33301 -62.334 -28.333 -89.001 -57s-40 -73.334 -40 -134.001c0 -60 12.667 -104.5 38 -133.5s53 -48.833 83 -59.5c18 -6.66699 35.667 -11 53 -13
s31.666 -3 42.999 -3v0zM441.004 457.997l-0.00195312 -408.998c64.667 0 112.334 13.167 143.001 39.5s51.334 55.5 62.001 87.5c4.66699 14.667 7.83398 29.167 9.50098 43.5s2.5 27.166 2.5 38.499c0 61.333 -13.5 106.333 -40.5 135s-56.833 47.667 -89.5 57
c-12.667 3.33301 -24.834 5.66602 -36.501 6.99902s-22.834 2 -33.501 2h-4.5h-4.5c-1.33301 -0.666992 -2.66602 -1 -3.99902 -1h-4v0z" />
    <glyph glyph-name="hyphen" unicode="&#x444;" horiz-adv-x="794" 
d="M353 -185l0.00292969 171.996c-108.667 2.66699 -184.834 26.334 -228.501 71.001s-69.5 93.667 -77.5 147c-1.33301 8.66699 -2.33301 17.334 -3 26.001s-1 17.334 -1 26.001c0 14 1.33301 31.333 4 52s8.66699 42 18 64c15.333 36.667 43.166 70.334 83.499 101.001
s102.166 46 185.499 46h9.5h9.5v180h88v-180h6h8c14 0 33.667 -1.33301 59 -4s52 -9 80 -19c39.333 -14.667 75.333 -40.167 108 -76.5s49 -90.833 49 -163.5c0 -84 -25.333 -149.333 -76 -196s-128.667 -71 -234 -73v-173h-88v0zM353.003 48.9961l0.000976562 409.001h-4
c-1.33301 0 -2.66602 0.333008 -3.99902 1h-4.5h-5.5c-10.667 0 -22 -0.666992 -34 -2s-24 -4 -36 -8c-32.667 -9.33301 -62.334 -28.333 -89.001 -57s-40 -73.334 -40 -134.001c0 -60 12.667 -104.5 38 -133.5s53 -48.833 83 -59.5c18 -6.66699 35.667 -11 53 -13
s31.666 -3 42.999 -3v0zM441.004 457.997l-0.00195312 -408.998c64.667 0 112.334 13.167 143.001 39.5s51.334 55.5 62.001 87.5c4.66699 14.667 7.83398 29.167 9.50098 43.5s2.5 27.166 2.5 38.499c0 61.333 -13.5 106.333 -40.5 135s-56.833 47.667 -89.5 57
c-12.667 3.33301 -24.834 5.66602 -36.501 6.99902s-22.834 2 -33.501 2h-4.5h-4.5c-1.33301 -0.666992 -2.66602 -1 -3.99902 -1h-4v0z" />
    <glyph glyph-name="period" unicode="&#xf5;" horiz-adv-x="484" 
d="M242 320l130 188h98l-178 -243l192 -265h-98l-144 209l-144 -209h-98l192 265l-178 243h98l130 -188v0z" />
    <glyph glyph-name="period" unicode="&#x445;" horiz-adv-x="484" 
d="M242 320l130 188h98l-178 -243l192 -265h-98l-144 209l-144 -209h-98l192 265l-178 243h98l130 -188v0z" />
    <glyph glyph-name="odieresis" unicode="&#xf6;" horiz-adv-x="596" 
d="M160 62h256v446h88v-446h88l-7 -194h-74v132h-439v508h88v-446v0z" />
    <glyph glyph-name="odieresis" unicode="&#x446;" horiz-adv-x="596" 
d="M160 62h256v446h88v-446h88l-7 -194h-74v132h-439v508h88v-446v0z" />
    <glyph glyph-name="divide" unicode="&#xf7;" horiz-adv-x="508" 
d="M45 508h88v-156v-2v-3c0 -22.667 4.83301 -41.334 14.5 -56.001s43.167 -22 100.5 -22c8.66699 0 17.167 0.166992 25.5 0.5s16.166 0.833008 23.499 1.5h8h7h4c1.33301 0 2.66602 0.333008 3.99902 1h12h16v236h88v-508h-88v210
c-13.333 -0.666992 -25.666 -1.16699 -36.999 -1.5s-22.666 -0.5 -33.999 -0.5c-7.33301 -0.666992 -14.833 -1 -22.5 -1h-24.5c-89.333 0 -142.5 12.833 -159.5 38.5s-25.5 53.834 -25.5 84.501v3.5v3.5v0.5v0.5v170v0z" />
    <glyph glyph-name="divide" unicode="&#x447;" horiz-adv-x="508" 
d="M45 508h88v-156v-2v-3c0 -22.667 4.83301 -41.334 14.5 -56.001s43.167 -22 100.5 -22c8.66699 0 17.167 0.166992 25.5 0.5s16.166 0.833008 23.499 1.5h8h7h4c1.33301 0 2.66602 0.333008 3.99902 1h12h16v236h88v-508h-88v210
c-13.333 -0.666992 -25.666 -1.16699 -36.999 -1.5s-22.666 -0.5 -33.999 -0.5c-7.33301 -0.666992 -14.833 -1 -22.5 -1h-24.5c-89.333 0 -142.5 12.833 -159.5 38.5s-25.5 53.834 -25.5 84.501v3.5v3.5v0.5v0.5v170v0z" />
    <glyph glyph-name="oslash" unicode="&#xf8;" horiz-adv-x="832" 
d="M160 62h212v446h88v-446h212v446h88v-508h-688v508h88v-446v0z" />
    <glyph glyph-name="oslash" unicode="&#x448;" horiz-adv-x="832" 
d="M160 62h212v446h88v-446h212v446h88v-508h-688v508h88v-446v0z" />
    <glyph glyph-name="question" unicode="&#xf9;" horiz-adv-x="850" 
d="M160 62h212v446h88v-446h212v446h88v-446h86l-8 -194h-74v132h-692v508h88v-446v0z" />
    <glyph glyph-name="question" unicode="&#x449;" horiz-adv-x="850" 
d="M160 62h212v446h88v-446h212v446h88v-446h86l-8 -194h-74v132h-692v508h88v-446v0z" />
    <glyph glyph-name="A" unicode="&#xfa;" horiz-adv-x="590" 
d="M13 446l-0.000976562 62h220v-201h127c11.333 0 24.833 -0.333008 40.5 -1s31.834 -3 48.501 -7c28.667 -6.66699 55 -20.667 79 -42s36 -56.333 36 -105c0 -60 -17.5 -100.333 -52.5 -121s-75.167 -31 -120.5 -31h-246v446h-132v0zM232.999 245v-182.999h123
c6.66699 0 14.167 0.333008 22.5 1s17.166 2 26.499 4c16.667 4.66699 32.167 13.667 46.5 27s21.5 34.666 21.5 63.999c0 32.667 -9 54.667 -27 66s-37.667 18 -59 20c-7.33301 0.666992 -14.666 1 -21.999 1h-20h-2.5h-2.5h-107v0z" />
    <glyph glyph-name="A" unicode="&#x44a;" horiz-adv-x="590" 
d="M13 446l-0.000976562 62h220v-201h127c11.333 0 24.833 -0.333008 40.5 -1s31.834 -3 48.501 -7c28.667 -6.66699 55 -20.667 79 -42s36 -56.333 36 -105c0 -60 -17.5 -100.333 -52.5 -121s-75.167 -31 -120.5 -31h-246v446h-132v0zM232.999 245v-182.999h123
c6.66699 0 14.167 0.333008 22.5 1s17.166 2 26.499 4c16.667 4.66699 32.167 13.667 46.5 27s21.5 34.666 21.5 63.999c0 32.667 -9 54.667 -27 66s-37.667 18 -59 20c-7.33301 0.666992 -14.666 1 -21.999 1h-20h-2.5h-2.5h-107v0z" />
    <glyph glyph-name="slash" unicode="&#xfb;" horiz-adv-x="714" 
d="M72 508l87.998 0.000976562v-201h128c10.667 0 24 -0.333008 40 -1s32.667 -3 50 -7c28.667 -6.66699 54.834 -20.667 78.501 -42s35.5 -56.333 35.5 -105s-11.833 -83.667 -35.5 -105s-49.5 -35 -77.5 -41c-10.667 -2.66699 -21.167 -4.33398 -31.5 -5.00098
s-20.166 -1 -29.499 -1h-246v508v0zM159.998 245.001v-183h123c6.66699 0 14.5 0.333008 23.5 1s18.167 2.33398 27.5 5.00098c16.667 4.66699 32 13.667 46 27s21 34.333 21 63c0 31.333 -8.5 52.666 -25.5 63.999s-35.833 18.333 -56.5 21c-8 1.33301 -16 2 -24 2h-22
h-3.5h-2.5h-107v0zM553.998 508.001h88v-508h-88v508v0z" />
    <glyph glyph-name="slash" unicode="&#x44b;" horiz-adv-x="714" 
d="M72 508l87.998 0.000976562v-201h128c10.667 0 24 -0.333008 40 -1s32.667 -3 50 -7c28.667 -6.66699 54.834 -20.667 78.501 -42s35.5 -56.333 35.5 -105s-11.833 -83.667 -35.5 -105s-49.5 -35 -77.5 -41c-10.667 -2.66699 -21.167 -4.33398 -31.5 -5.00098
s-20.166 -1 -29.499 -1h-246v508v0zM159.998 245.001v-183h123c6.66699 0 14.5 0.333008 23.5 1s18.167 2.33398 27.5 5.00098c16.667 4.66699 32 13.667 46 27s21 34.333 21 63c0 31.333 -8.5 52.666 -25.5 63.999s-35.833 18.333 -56.5 21c-8 1.33301 -16 2 -24 2h-22
h-3.5h-2.5h-107v0zM553.998 508.001h88v-508h-88v508v0z" />
    <glyph glyph-name="udieresis" unicode="&#xfc;" horiz-adv-x="514" 
d="M72 508h88v-202h127c11.333 0 24.5 -0.333008 39.5 -1s30.5 -2.66699 46.5 -6c29.333 -6.66699 56.333 -20.167 81 -40.5s37 -53.833 37 -100.5v-10c0 -3.33301 -0.333008 -6.66602 -1 -9.99902c-2.66699 -34.667 -16.167 -66.334 -40.5 -95.001s-68.5 -43 -132.5 -43
h-245v508v0zM160 244l-0.000976562 -182.001h122c6.66699 0 14.5 0.333008 23.5 1s18.5 2.33398 28.5 5.00098c16.667 4.66699 31.834 13.667 45.501 27s20.5 34.333 20.5 63c0 33.333 -9.5 55.5 -28.5 66.5s-39.833 17.167 -62.5 18.5c-6.66699 0.666992 -13.167 1 -19.5 1
h-18.5h-2h-2h-107v0z" />
    <glyph glyph-name="udieresis" unicode="&#x44c;" horiz-adv-x="514" 
d="M72 508h88v-202h127c11.333 0 24.5 -0.333008 39.5 -1s30.5 -2.66699 46.5 -6c29.333 -6.66699 56.333 -20.167 81 -40.5s37 -53.833 37 -100.5v-10c0 -3.33301 -0.333008 -6.66602 -1 -9.99902c-2.66699 -34.667 -16.167 -66.334 -40.5 -95.001s-68.5 -43 -132.5 -43
h-245v508v0zM160 244l-0.000976562 -182.001h122c6.66699 0 14.5 0.333008 23.5 1s18.5 2.33398 28.5 5.00098c16.667 4.66699 31.834 13.667 45.501 27s20.5 34.333 20.5 63c0 33.333 -9.5 55.5 -28.5 66.5s-39.833 17.167 -62.5 18.5c-6.66699 0.666992 -13.167 1 -19.5 1
h-18.5h-2h-2h-107v0z" />
    <glyph glyph-name="period" unicode="&#xfd;" horiz-adv-x="553" 
d="M198 233l-0.00390625 62h219c-2 52 -12.167 90 -30.5 114s-38.5 40 -60.5 48c-9.33301 3.33301 -18.5 5.66602 -27.5 6.99902s-17.5 2 -25.5 2c-41.333 0 -75.666 -10.333 -102.999 -31s-42.333 -49.334 -45 -86.001h-84c0.666992 6 1.66699 12 3 18
s2.66602 12.333 3.99902 19c10 35.333 30.833 67.833 62.5 97.5s82.834 44.5 153.501 44.5c13.333 0 29.5 -1 48.5 -3s38.167 -6.66699 57.5 -14c35.333 -13.333 67.5 -39.333 96.5 -78s43.5 -99.667 43.5 -183c0 -86.667 -16 -148.667 -48 -186s-67 -61.333 -105 -72
c-15.333 -4.66699 -30.666 -7.66699 -45.999 -9s-29.333 -2 -42 -2c-10.667 0 -21.667 0.333008 -33 1s-22.666 2 -33.999 4c-36.667 6.66699 -71 23.334 -103 50.001s-52.667 73.334 -62 140.001h84c6 -46.667 21.833 -80.667 47.5 -102s59.167 -32 100.5 -32
c40.667 0 71.334 10.333 92.001 31s35 43.334 43 68.001c5.33301 16.667 8.83301 32.667 10.5 48s2.5 27.666 2.5 36.999v4v3h-219v0z" />
    <glyph glyph-name="period" unicode="&#x44d;" horiz-adv-x="553" 
d="M198 233l-0.00390625 62h219c-2 52 -12.167 90 -30.5 114s-38.5 40 -60.5 48c-9.33301 3.33301 -18.5 5.66602 -27.5 6.99902s-17.5 2 -25.5 2c-41.333 0 -75.666 -10.333 -102.999 -31s-42.333 -49.334 -45 -86.001h-84c0.666992 6 1.66699 12 3 18
s2.66602 12.333 3.99902 19c10 35.333 30.833 67.833 62.5 97.5s82.834 44.5 153.501 44.5c13.333 0 29.5 -1 48.5 -3s38.167 -6.66699 57.5 -14c35.333 -13.333 67.5 -39.333 96.5 -78s43.5 -99.667 43.5 -183c0 -86.667 -16 -148.667 -48 -186s-67 -61.333 -105 -72
c-15.333 -4.66699 -30.666 -7.66699 -45.999 -9s-29.333 -2 -42 -2c-10.667 0 -21.667 0.333008 -33 1s-22.666 2 -33.999 4c-36.667 6.66699 -71 23.334 -103 50.001s-52.667 73.334 -62 140.001h84c6 -46.667 21.833 -80.667 47.5 -102s59.167 -32 100.5 -32
c40.667 0 71.334 10.333 92.001 31s35 43.334 43 68.001c5.33301 16.667 8.83301 32.667 10.5 48s2.5 27.666 2.5 36.999v4v3h-219v0z" />
    <glyph glyph-name="thorn" unicode="&#xfe;" horiz-adv-x="780" 
d="M160 299l80.002 -0.00195312c1.33301 10.667 3.16602 21.834 5.49902 33.501s5.5 23.167 9.5 34.5c13.333 40.667 38 77.667 74 111s88.667 50 158 50c7.33301 0 14.833 -0.333008 22.5 -1l22.5 -2c51.333 -8 98.333 -32.167 141 -72.5s64 -106.166 64 -197.499
c0 -68.667 -18.667 -131.5 -56 -188.5s-101.333 -85.5 -192 -85.5c-72 0 -125.333 17 -160 51s-58.667 71.667 -72 113c-5.33301 16 -9.33301 31.833 -12 47.5s-4.33398 30.5 -5.00098 44.5h-80v-237h-88v508h88v-209v0zM333.002 254.998
c0 -11.333 0.666992 -25.335 2 -42.002s4.33301 -33.667 9 -51c8 -30 22.833 -57.5 44.5 -82.5s55.167 -37.5 100.5 -37.5c55.333 0 95 20.333 119 61s36 91.334 36 152.001c0 61.333 -12 111.833 -36 151.5s-63.667 59.5 -119 59.5c-54 0 -92 -17.333 -114 -52
s-35.333 -72.667 -40 -114c-0.666992 -8 -1.16699 -15.667 -1.5 -23s-0.5 -14.666 -0.5 -21.999v0z" />
    <glyph glyph-name="thorn" unicode="&#x44e;" horiz-adv-x="780" 
d="M160 299l80.002 -0.00195312c1.33301 10.667 3.16602 21.834 5.49902 33.501s5.5 23.167 9.5 34.5c13.333 40.667 38 77.667 74 111s88.667 50 158 50c7.33301 0 14.833 -0.333008 22.5 -1l22.5 -2c51.333 -8 98.333 -32.167 141 -72.5s64 -106.166 64 -197.499
c0 -68.667 -18.667 -131.5 -56 -188.5s-101.333 -85.5 -192 -85.5c-72 0 -125.333 17 -160 51s-58.667 71.667 -72 113c-5.33301 16 -9.33301 31.833 -12 47.5s-4.33398 30.5 -5.00098 44.5h-80v-237h-88v508h88v-209v0zM333.002 254.998
c0 -11.333 0.666992 -25.335 2 -42.002s4.33301 -33.667 9 -51c8 -30 22.833 -57.5 44.5 -82.5s55.167 -37.5 100.5 -37.5c55.333 0 95 20.333 119 61s36 91.334 36 152.001c0 61.333 -12 111.833 -36 151.5s-63.667 59.5 -119 59.5c-54 0 -92 -17.333 -114 -52
s-35.333 -72.667 -40 -114c-0.666992 -8 -1.16699 -15.667 -1.5 -23s-0.5 -14.666 -0.5 -21.999v0z" />
    <glyph glyph-name="space" unicode="&#xff;" horiz-adv-x="533" 
d="M269 200l-132.998 -199.998h-97l138 201c-7.33301 0.666992 -16.5 2.16699 -27.5 4.5s-22.167 6.16602 -33.5 11.499c-20 8.66699 -38.167 23.167 -54.5 43.5s-24.5 49.5 -24.5 87.5v10c0 3.33301 0.333008 6.66602 1 9.99902c3.33301 34.667 17.166 66.667 41.499 96
s67.166 44 128.499 44h253v-508h-88v200h-104v0zM373.002 446.002l-127 -0.000976562c-6.66699 0 -13.667 -0.166992 -21 -0.5s-14.666 -1.16602 -21.999 -2.49902c-18.667 -4 -35.834 -12.5 -51.501 -25.5s-23.5 -35.167 -23.5 -66.5c0 -4.66699 0.5 -10 1.5 -16
s2.83301 -12 5.5 -18c6 -14 17.5 -26.667 34.5 -38s43.5 -17 79.5 -17h124v184v0z" />
    <glyph glyph-name="space" unicode="&#x44f;" horiz-adv-x="533" 
d="M269 200l-132.998 -199.998h-97l138 201c-7.33301 0.666992 -16.5 2.16699 -27.5 4.5s-22.167 6.16602 -33.5 11.499c-20 8.66699 -38.167 23.167 -54.5 43.5s-24.5 49.5 -24.5 87.5v10c0 3.33301 0.333008 6.66602 1 9.99902c3.33301 34.667 17.166 66.667 41.499 96
s67.166 44 128.499 44h253v-508h-88v200h-104v0zM373.002 446.002l-127 -0.000976562c-6.66699 0 -13.667 -0.166992 -21 -0.5s-14.666 -1.16602 -21.999 -2.49902c-18.667 -4 -35.834 -12.5 -51.501 -25.5s-23.5 -35.167 -23.5 -66.5c0 -4.66699 0.5 -10 1.5 -16
s2.83301 -12 5.5 -18c6 -14 17.5 -26.667 34.5 -38s43.5 -17 79.5 -17h124v184v0z" />
    <glyph glyph-name="amacron" unicode="&#x101;" 
 />
    <glyph glyph-name="OE" unicode="&#x152;" horiz-adv-x="1083" 
d="M179 336l0.000976562 -335.997h-94v700h94v-285h352v285h94v-285h201c11.333 0 26.333 -1.16699 45 -3.5s38 -7.83301 58 -16.5c30.667 -12 58.667 -32.5 84 -61.5s38 -71.833 38 -128.5c0 -10.667 -0.833008 -22.334 -2.5 -35.001s-4.16699 -25.334 -7.5 -38.001
c-10.667 -32.667 -31.834 -62.834 -63.501 -90.501s-82.167 -41.5 -151.5 -41.5h-295v336h-352v0zM625.001 336.003l0.000976562 -257.001h190c7.33301 0 16.666 0.833008 27.999 2.5s23.333 4.83398 36 9.50098c18.667 7.33301 36 20 52 38s24 44.333 24 79
c0 42 -12.5 73.833 -37.5 95.5s-63.167 32.5 -114.5 32.5h-178v0z" />
    <glyph glyph-name="glyph258" unicode="&#x153;" horiz-adv-x="855" 
d="M160 245v-245h-88v508h88v-201h252v201h88v-201h127c11.333 0 24.666 -0.333008 39.999 -1s31 -2.66699 47 -6c29.333 -6 56.333 -19.667 81 -41s37 -57 37 -107c0 -52 -15.167 -90.333 -45.5 -115s-73.166 -37 -128.499 -37h-246v245h-252v0zM500 245
l-0.000976562 -182.999h123c6.66699 0 13.834 0.333008 21.501 1s15.167 1.66699 22.5 3c18.667 4 35.667 12.667 51 26s23 35.333 23 66c0 31.333 -8.66699 52.666 -26 63.999s-36.333 18.333 -57 21c-8 1.33301 -15.833 2 -23.5 2h-21.5h-3h-2h-108v0z" />
    <glyph glyph-name="perthousand" unicode="&#x160;" horiz-adv-x="1136" 
d="M14 0l0.000976562 82.0029c2 -0.666992 4.16699 -1.16699 6.5 -1.5s4.5 -0.5 6.5 -0.5c2 -0.666992 4.16699 -1 6.5 -1h6.5c36 0.666992 68.167 23 96.5 67s42.5 128.333 42.5 253v301h438v-285h201c12 0 27 -1.16699 45 -3.5s36.667 -6.83301 56 -13.5
c32 -12 61.167 -32.5 87.5 -61.5s39.5 -72.833 39.5 -131.5c0 -10.667 -0.833008 -22.334 -2.5 -35.001s-4.5 -25.334 -8.5 -38.001c-10 -32.667 -31.333 -62.834 -64 -90.501s-83.667 -41.5 -153 -41.5h-295v621h-251v-242c0 -135.333 -19.167 -232.833 -57.5 -292.5
s-90.5 -89.5 -156.5 -89.5c-6.66699 0 -13.834 0.333008 -21.501 1l-22.5 2v0zM617.001 336.003l0.00195312 -257h189c7.33301 0 16.666 0.666992 27.999 2s23.333 4.33301 36 9c19.333 7.33301 37.166 20 53.499 38s24.5 44.667 24.5 80c0 34.667 -10.833 64.667 -32.5 90
s-62.167 38 -121.5 38h-177v0z" />
    <glyph glyph-name="eight" unicode="&#x161;" horiz-adv-x="843" 
d="M13 0v65.0029c4.66699 -0.666992 9 -1.33398 13 -2.00098s8 -1 12 -1c44.667 0.666992 72 27.167 82 79.5s15 110.833 15 175.5v191h353v-199h128c11.333 0 24.666 -0.333008 39.999 -1s31.333 -3 48 -7c28.667 -6.66699 55.167 -20.834 79.5 -42.501
s36.5 -57.167 36.5 -106.5c0 -5.33301 -0.166992 -10.833 -0.5 -16.5s-1.16602 -11.167 -2.49902 -16.5c-4.66699 -30 -19.167 -57.333 -43.5 -82s-66.833 -37 -127.5 -37h-246v446h-182v-129c0 -80.667 -8.33301 -154.334 -25 -221.001s-62 -99.667 -136 -99
c-6.66699 0 -13.667 0.333008 -21 1l-23 2v0zM488 247.003v-185.002h123c6.66699 0 14.5 0.333008 23.5 1s18.167 2.33398 27.5 5.00098c16.667 4.66699 32 13.667 46 27s21 34.333 21 63c0 37.333 -13 61.333 -39 72s-54.667 16.334 -86 17.001h-4h-4h-108v0z" />
    <glyph glyph-name="greater" unicode="&#x192;" horiz-adv-x="433" 
d="M160 446v-446h-88v508h348v-62h-260v0z" />
    <glyph glyph-name="glyph237" unicode="&#x2c6;" 
 />
    <glyph glyph-name="seven" unicode="&#x2dc;" 
 />
    <glyph glyph-name="dollar" unicode="&#x2013;" horiz-adv-x="608" 
d="M53 376h502v-52h-502v52v0z" />
    <glyph glyph-name="numbersign" unicode="&#x2014;" horiz-adv-x="832" 
d="M-26 235v62h884v-62h-884v0z" />
    <glyph glyph-name="four" unicode="&#x2018;" horiz-adv-x="311" 
d="M205 572l0.000976562 -110h-99v114v2.5v2.5c0 28 5.16699 54.833 15.5 80.5s38.166 45.167 83.499 58.5v-55c-22.667 -6 -36.667 -16.167 -42 -30.5s-8 -33.833 -8 -58.5v-4h50v0z" />
    <glyph glyph-name="quoteright" unicode="&#x2019;" horiz-adv-x="311" 
d="M106 591l0.000976562 108.999h99v-143c0 -28 -9.33301 -52.833 -28 -74.5s-42.334 -35.167 -71.001 -40.5v54c13.333 4 25 11.833 35 23.5s15 24.834 15 39.501v32h-50v0z" />
    <glyph glyph-name="parenleft" unicode="&#x201a;" horiz-adv-x="311" 
d="M106 0l0.00195312 109.001h99v-143c0 -4 -0.333008 -8.5 -1 -13.5s-1.66699 -10.167 -3 -15.5c-4 -16.667 -13.167 -32.834 -27.5 -48.501s-36.833 -27.5 -67.5 -35.5v54c13.333 2.66699 24.666 9.5 33.999 20.5s14.666 23.167 15.999 36.5v2.5v3.5v30h-50v0z" />
    <glyph glyph-name="oe" unicode="&#x201c;" horiz-adv-x="422" 
d="M178 572l0.000976562 -109.999h-99v114v8.5v9.5c1.33301 25.333 7.66602 49.833 18.999 73.5s38 41.167 80 52.5v-55c-23.333 -6.66699 -37.5 -18.334 -42.5 -35.001s-7.5 -34.667 -7.5 -54v-4h50v0zM343.001 572.001v-109.999h-99v114v8.5v9.5
c1.33301 25.333 7.83301 49.833 19.5 73.5s38.167 41.167 79.5 52.5v-55c-23.333 -6.66699 -37.5 -18.334 -42.5 -35.001s-7.5 -34.667 -7.5 -54v-4h50v0z" />
    <glyph glyph-name="B" unicode="&#x201d;" horiz-adv-x="422" 
d="M79 591v108.999h99v-143c0 -28.667 -9.16699 -53.667 -27.5 -75s-42.166 -34.666 -71.499 -39.999v54c0.666992 0 1.5 0.166992 2.5 0.5s1.83301 0.833008 2.5 1.5c11.333 4 21.666 11.167 30.999 21.5s14 23.5 14 39.5v32h-50v0zM244 590.999v108.999h99v-143
c0 -28.667 -9.16699 -53.667 -27.5 -75s-42.166 -34.666 -71.499 -39.999v54c0.666992 0 1.5 0.166992 2.5 0.5s1.83301 0.833008 2.5 1.5c11.333 4 21.666 11.167 30.999 21.5s14 23.5 14 39.5v32h-50v0z" />
    <glyph glyph-name="quotedblbase" unicode="&#x201e;" horiz-adv-x="422" 
d="M79 0l-0.000976562 109.002h99v-143c0 -26.667 -7.66699 -49.834 -23 -69.501s-40.666 -34.167 -75.999 -43.5v54c14.667 3.33301 26.5 10.666 35.5 21.999s13.833 24 14.5 38v1v2v30h-50v0zM243.999 0.00195312l-0.000976562 109.002h99v-143
c0 -26.667 -7.66699 -49.834 -23 -69.501s-40.666 -34.167 -75.999 -43.5v54c14.667 3.33301 26.5 10.666 35.5 21.999s13.833 24 14.5 38v1v2v30h-50v0z" />
    <glyph glyph-name="glyph233" unicode="&#x2020;" horiz-adv-x="500" 
d="M210 700h80v-192h185v-68h-185v-625h-80v625h-185v68h185v192v0z" />
    <glyph glyph-name="glyph236" unicode="&#x2021;" horiz-adv-x="603" 
d="M519 106l43.999 -59.998l-6.5 -6.5l-6.5 -6.5c-18 -16 -36.333 -28.833 -55 -38.5s-40 -14.5 -64 -14.5c-14.667 0 -28.167 1.5 -40.5 4.5s-24.166 6.16699 -35.499 9.5c-8.66699 3.33301 -15.5 5.66602 -20.5 6.99902l-14.5 4c-0.666992 0 -1.16699 0.166992 -1.5 0.5
s-0.833008 0.5 -1.5 0.5c-1.33301 0.666992 -2.66602 1.16699 -3.99902 1.5s-2.66602 0.833008 -3.99902 1.5s-2.5 1.16699 -3.5 1.5s-1.83301 0.833008 -2.5 1.5c-2 0.666992 -4.16699 1.5 -6.5 2.5s-4.5 1.83301 -6.5 2.5c-7.33301 3.33301 -16 6.5 -26 9.5
s-23 4.5 -39 4.5s-33 -2.5 -51 -7.5s-37 -14.833 -57 -29.5l-45 64c34 23.333 59.333 48.666 76 75.999s25 57.666 25 90.999c0 5.33301 -0.166992 10.333 -0.5 15s-1.16602 9.66699 -2.49902 15c-1.33301 7.33301 -3.16602 15 -5.49902 23l-7.5 26h-104v61h73
c-8 16.667 -14.5 31.167 -19.5 43.5s-8.83301 24.166 -11.5 35.499c-2.66699 9.33301 -4.5 18.833 -5.5 28.5s-1.5 20.5 -1.5 32.5c0 68 21.833 121 65.5 159s102.834 57 177.501 57c7.33301 0 14.666 -0.166992 21.999 -0.5s15 -1.16602 23 -2.49902
c43.333 -5.33301 83.166 -24.166 119.499 -56.499s55.166 -92.166 56.499 -179.499h-89v32v8c0 2.66699 -0.333008 5 -1 7c-2 32 -13.167 61.167 -33.5 87.5s-54.833 39.5 -103.5 39.5c-41.333 0 -75.833 -13.833 -103.5 -41.5s-41.5 -66.167 -41.5 -115.5
c0 -14 1.33301 -26.333 4 -37s6 -21.334 10 -32.001l15 -29.5l18 -35.5h141v-61h-117c1.33301 -2.66699 2.33301 -5.33398 3 -8.00098l2 -8c1.33301 -7.33301 2.33301 -14.5 3 -21.5s1 -15.167 1 -24.5c0 -20.667 -3.5 -43 -10.5 -67s-25.167 -49.667 -54.5 -77l2 -6
c9.33301 4 19.833 6.83301 31.5 8.5s25.5 2.5 41.5 2.5c10 0 18.667 -0.666992 26 -2s14.666 -3 21.999 -5l16 -6l18 -7c18 -6.66699 33.5 -12.167 46.5 -16.5s24.833 -6.5 35.5 -6.5c14.667 0 28 3.16699 40 9.5s22 13.166 30 20.499
c3.33301 2.66699 6.16602 5.33398 8.49902 8.00098s4.5 5.33398 6.5 8.00098v0z" />
    <glyph glyph-name="glyph257" unicode="&#x2022;" horiz-adv-x="700" 
d="M264 350c0 21.333 7.66602 40.999 22.999 58.999s36.333 27 63 27h2.5h2.5c20.667 -1.33301 39.334 -9.5 56.001 -24.5s25 -35.5 25 -61.5c0 -26.667 -9 -47.667 -27 -63s-37.667 -23 -59 -23c-26 0 -46.5 8.33301 -61.5 25s-23.167 35.334 -24.5 56.001v2.5v2.5v0z" />
    <glyph glyph-name="glyph232" unicode="&#x2026;" horiz-adv-x="931" 
d="M106 0v109h99v-109h-99v0zM416 0v109h99v-109h-99v0zM726 0v109h99v-109h-99v0z" />
    <glyph glyph-name="v" unicode="&#x2030;" horiz-adv-x="1298" 
d="M530 192c0 10.667 0.830078 22.334 2.49707 35.001s4.16699 25.667 7.5 39c8.66699 31.333 24.834 60.166 48.501 86.499s58.834 39.5 105.501 39.5c55.333 0 96.5 -19.333 123.5 -58s40.5 -86 40.5 -142c0 -54 -9.5 -94.833 -28.5 -122.5s-39.833 -47.5 -62.5 -59.5
c-14 -6.66699 -27.5 -11.167 -40.5 -13.5s-23.833 -3.5 -32.5 -3.5c-9.33301 0 -19.666 1.16699 -30.999 3.5s-23.333 5.83301 -36 10.5c-24 12 -46.167 32.167 -66.5 60.5s-30.5 69.833 -30.5 124.5v0zM593.997 192c0 -50.667 10.334 -87.832 31.001 -111.499
s43.667 -35.5 69 -35.5c4.66699 0 9.66699 0.5 15 1.5s10.666 2.5 15.999 4.5c17.333 6.66699 33.166 20.667 47.499 42s21.5 54.333 21.5 99v10.5c0 3.66699 -0.333008 7.5 -1 11.5c-2 31.333 -10.5 60 -25.5 86s-39.5 39 -73.5 39c-28 0 -49.167 -9 -63.5 -27
s-24.166 -38 -29.499 -60c-2.66699 -10.667 -4.5 -21.334 -5.5 -32.001s-1.5 -20 -1.5 -28v0zM916.998 192.002c0 10.667 1 23.668 3 39.001s5.66699 31.333 11 48c9.33301 28 25.5 53.833 48.5 77.5s56.833 35.5 101.5 35.5c55.333 0 96.5 -19.333 123.5 -58
s40.5 -86 40.5 -142c0 -54.667 -9.5 -96 -28.5 -124s-40.167 -47.667 -63.5 -59c-13.333 -6 -26.5 -10.167 -39.5 -12.5s-23.833 -3.5 -32.5 -3.5s-19.667 1.16699 -33 3.5s-27.333 7.16602 -42 14.499c-22 12 -42.333 32 -61 60s-28 68.333 -28 121v0zM980.998 192.003
c0 -50 9.33203 -86.1699 27.999 -108.503s39.334 -34.833 62.001 -37.5c1.33301 -0.666992 2.83301 -1 4.5 -1h5.5c2.66699 0 5.16699 0.166992 7.5 0.5s4.5 0.5 6.5 0.5c22 4 41.833 17.333 59.5 40s26.5 58 26.5 106c0 38.667 -7.83301 72.834 -23.5 102.501
s-41.167 44.5 -76.5 44.5c-27.333 0 -47.833 -8.16699 -61.5 -24.5s-23.5 -34.5 -29.5 -54.5c-4 -13.333 -6.5 -26.166 -7.5 -38.499s-1.5 -22.166 -1.5 -29.499v0zM195.997 0l454 700h71l-454 -700h-71v0zM52.9971 508c0 60 12.1689 104.832 36.502 134.499
s51.166 49.167 80.499 58.5c8 2 16.167 3.66699 24.5 5s16.166 2 23.499 2c8 0 16 -0.666992 24 -2s16.333 -3.33301 25 -6c28.667 -9.33301 55 -28.833 79 -58.5s36 -74.167 36 -133.5c0 -10.667 -1 -23.667 -3 -39s-5.33301 -31.333 -10 -48
c-9.33301 -28 -25.5 -53.833 -48.5 -77.5s-57.167 -35.5 -102.5 -35.5s-79.5 11.667 -102.5 35s-39.167 49.333 -48.5 78c-5.33301 16 -9 31.833 -11 47.5s-3 28.834 -3 39.501v0zM116.999 507.999c0 -7.33301 0.666016 -17.166 1.99902 -29.499s4 -25.166 8 -38.499
c6 -20 16 -38.167 30 -54.5s34.333 -24.5 61 -24.5c27.333 0 47.833 8.16699 61.5 24.5s23.5 34.5 29.5 54.5c4 13.333 6.5 26.166 7.5 38.499s1.5 22.166 1.5 29.499c0 50 -9.33301 86.167 -28 108.5s-39.334 34.833 -62.001 37.5c-1.33301 0.666992 -2.83301 1 -4.5 1
h-5.5c-3.33301 0 -6.66602 -0.166992 -9.99902 -0.5s-6.66602 -0.833008 -9.99902 -1.5c-20 -5.33301 -38.5 -19.333 -55.5 -42s-25.5 -57 -25.5 -103v0z" />
    <glyph glyph-name="glyph243" unicode="&#x2039;" horiz-adv-x="286" 
d="M62 313l149 132v-83l-106 -89l106 -92v-80l-149 130v82v0z" />
    <glyph glyph-name="less" unicode="&#x203a;" horiz-adv-x="287" 
d="M225 313v-82l-150 -130v80l107 91l-107 90v84l150 -133v0z" />
    <glyph glyph-name="six" unicode="&#x2122;" horiz-adv-x="861" 
d="M133 645h-113v55h301v-55h-113v-295h-75v295v0zM577 350l-102 268h-5l4 -45v-223h-75v350h100l94 -241l9 -35h4l8 35l94 241h100v-350h-75v223l4 45h-5l-103 -268h-52v0z" />
    <glyph glyph-name="periodcentered" unicode="&#x2219;" horiz-adv-x="311" 
d="M106 213v110h99v-110h-99v0z" />
    <glyph glyph-name="glyph1" horiz-adv-x="0" 
 />
    <glyph glyph-name="glyph2" horiz-adv-x="351" 
 />
    <glyph glyph-name="s" 
 />
    <glyph glyph-name="backslash" 
 />
    <glyph glyph-name="nine" 
 />
    <glyph glyph-name="colon" 
 />
    <glyph glyph-name="Y" 
 />
    <glyph glyph-name="X" 
 />
    <glyph glyph-name="asciicircum" 
 />
    <glyph glyph-name="semicolon" 
 />
    <glyph glyph-name="equal" 
 />
    <glyph glyph-name="exclam" 
 />
    <glyph glyph-name="five" 
 />
    <glyph glyph-name="Q" 
 />
    <glyph glyph-name="quotedblright" 
 />
    <glyph glyph-name="hyphen" 
 />
    <glyph glyph-name="space" 
 />
    <glyph glyph-name="E" 
 />
    <glyph glyph-name="M" 
 />
    <glyph glyph-name="plus" 
 />
    <glyph glyph-name="glyph229" 
 />
    <glyph glyph-name="glyph230" 
 />
    <glyph glyph-name="glyph231" 
 />
    <glyph glyph-name="glyph234" 
 />
    <glyph glyph-name="glyph235" 
 />
    <glyph glyph-name="glyph238" 
 />
    <glyph glyph-name="glyph239" 
 />
    <glyph glyph-name="glyph240" 
 />
    <glyph glyph-name="glyph241" 
 />
    <glyph glyph-name="glyph242" 
 />
    <glyph glyph-name="glyph244" 
 />
    <glyph glyph-name="glyph245" 
 />
    <glyph glyph-name="glyph246" 
 />
    <glyph glyph-name="glyph247" 
 />
    <glyph glyph-name="glyph248" 
 />
    <glyph glyph-name="glyph249" 
 />
    <glyph glyph-name="glyph250" 
 />
    <glyph glyph-name="glyph251" 
 />
    <glyph glyph-name="glyph252" 
 />
    <glyph glyph-name="glyph253" 
 />
    <glyph glyph-name="glyph254" 
 />
    <glyph glyph-name="glyph255" 
 />
    <glyph glyph-name="glyph256" 
 />
    <glyph glyph-name="glyph267" 
 />
    <glyph glyph-name="glyph268" 
 />
    <glyph glyph-name="glyph269" 
 />
    <glyph glyph-name="glyph270" 
 />
    <glyph glyph-name="glyph271" 
 />
    <glyph glyph-name="glyph272" 
 />
    <glyph glyph-name="glyph273" 
 />
    <glyph glyph-name="glyph274" 
 />
    <glyph glyph-name="glyph275" 
 />
    <glyph glyph-name="glyph276" 
 />
    <glyph glyph-name="glyph277" 
 />
    <glyph glyph-name="glyph278" 
 />
    <glyph glyph-name="glyph279" 
 />
    <glyph glyph-name="glyph280" 
 />
    <glyph glyph-name="glyph281" 
 />
    <glyph glyph-name="glyph282" 
 />
    <glyph glyph-name="glyph283" 
 />
    <glyph glyph-name="glyph284" 
 />
    <glyph glyph-name="glyph285" 
 />
    <glyph glyph-name="glyph286" 
 />
    <glyph glyph-name="glyph287" 
 />
    <glyph glyph-name="glyph288" 
 />
    <glyph glyph-name="glyph289" 
 />
    <glyph glyph-name="glyph290" 
 />
    <glyph glyph-name="glyph291" 
 />
    <glyph glyph-name="glyph292" 
 />
    <glyph glyph-name="glyph293" 
 />
    <glyph glyph-name="glyph294" 
 />
    <glyph glyph-name="glyph295" 
 />
    <glyph glyph-name="glyph296" 
 />
    <glyph glyph-name="glyph297" 
 />
    <glyph glyph-name="glyph298" 
 />
    <glyph glyph-name="glyph299" 
 />
    <glyph glyph-name="glyph300" 
 />
    <glyph glyph-name="glyph301" 
 />
    <glyph glyph-name="glyph302" 
 />
    <glyph glyph-name="glyph303" 
 />
    <glyph glyph-name="glyph304" 
 />
    <glyph glyph-name="glyph305" 
 />
    <glyph glyph-name="glyph306" 
 />
    <glyph glyph-name="glyph307" 
 />
    <glyph glyph-name="glyph308" 
 />
    <glyph glyph-name="glyph309" 
 />
    <glyph glyph-name="glyph310" 
 />
    <glyph glyph-name="glyph311" 
 />
    <glyph glyph-name="glyph312" 
 />
    <glyph glyph-name="glyph313" 
 />
    <glyph glyph-name="glyph314" 
 />
    <glyph glyph-name="glyph315" 
 />
    <glyph glyph-name="glyph316" 
 />
    <glyph glyph-name="glyph317" 
 />
    <glyph glyph-name="glyph318" 
 />
    <glyph glyph-name="glyph319" 
 />
    <glyph glyph-name="glyph320" 
 />
    <glyph glyph-name="glyph321" 
 />
    <glyph glyph-name="glyph322" 
 />
    <glyph glyph-name="glyph323" 
 />
    <glyph glyph-name="glyph324" 
 />
    <glyph glyph-name="glyph325" 
 />
    <glyph glyph-name="glyph326" 
 />
    <glyph glyph-name="glyph327" 
 />
    <glyph glyph-name="glyph328" 
 />
    <glyph glyph-name="glyph329" 
 />
    <glyph glyph-name="glyph330" 
 />
    <glyph glyph-name="glyph331" 
 />
    <glyph glyph-name="glyph332" 
 />
    <glyph glyph-name="glyph333" 
 />
    <glyph glyph-name="glyph334" 
 />
    <glyph glyph-name="glyph335" 
 />
    <glyph glyph-name="glyph336" 
 />
    <glyph glyph-name="glyph337" 
 />
    <glyph glyph-name="glyph338" 
 />
    <glyph glyph-name="glyph339" 
 />
    <glyph glyph-name="glyph340" 
 />
    <glyph glyph-name="glyph341" 
 />
    <glyph glyph-name="glyph342" 
 />
    <glyph glyph-name="glyph343" 
 />
    <glyph glyph-name="glyph344" 
 />
    <glyph glyph-name="glyph345" 
 />
    <glyph glyph-name="glyph346" 
 />
    <glyph glyph-name="glyph347" 
 />
    <glyph glyph-name="glyph348" 
 />
    <glyph glyph-name="glyph349" 
 />
    <glyph glyph-name="glyph350" 
 />
    <glyph glyph-name="glyph351" 
 />
    <glyph glyph-name="glyph352" 
 />
    <glyph glyph-name="glyph353" 
 />
    <glyph glyph-name="glyph354" 
 />
    <glyph glyph-name="glyph355" 
 />
    <glyph glyph-name="glyph356" 
 />
    <glyph glyph-name="glyph357" 
 />
    <glyph glyph-name="glyph358" 
 />
    <glyph glyph-name="glyph359" 
 />
    <glyph glyph-name="glyph360" 
 />
    <glyph glyph-name="glyph361" 
 />
    <glyph glyph-name="glyph362" 
 />
    <glyph glyph-name="glyph363" 
 />
    <glyph glyph-name="glyph364" 
 />
    <glyph glyph-name="glyph365" 
 />
    <glyph glyph-name="glyph366" 
 />
    <glyph glyph-name="glyph367" 
 />
    <glyph glyph-name="glyph368" 
 />
    <glyph glyph-name="glyph369" 
 />
    <glyph glyph-name="glyph370" 
 />
    <glyph glyph-name="glyph371" 
 />
    <glyph glyph-name="glyph372" 
 />
    <glyph glyph-name="glyph373" 
 />
    <glyph glyph-name="glyph374" 
 />
    <glyph glyph-name="glyph375" 
 />
    <glyph glyph-name="glyph376" 
 />
    <glyph glyph-name="glyph377" 
 />
    <glyph glyph-name="glyph378" 
 />
    <glyph glyph-name="glyph379" 
 />
    <glyph glyph-name="glyph380" 
 />
    <glyph glyph-name="glyph381" 
 />
    <glyph glyph-name="glyph382" 
 />
    <glyph glyph-name="glyph383" 
 />
    <glyph glyph-name="glyph384" 
 />
    <glyph glyph-name="glyph385" 
 />
    <glyph glyph-name="glyph386" 
 />
    <glyph glyph-name="glyph387" 
 />
    <glyph glyph-name="glyph388" 
 />
    <glyph glyph-name="glyph389" 
 />
    <glyph glyph-name="glyph390" 
 />
    <glyph glyph-name="glyph391" 
 />
    <glyph glyph-name="glyph392" 
 />
    <glyph glyph-name="glyph393" 
 />
    <glyph glyph-name="glyph394" 
 />
    <glyph glyph-name="glyph395" 
 />
    <glyph glyph-name="glyph396" 
 />
    <glyph glyph-name="glyph397" 
 />
    <glyph glyph-name="glyph398" 
 />
    <glyph glyph-name="glyph399" 
 />
    <glyph glyph-name="glyph400" 
 />
    <glyph glyph-name="glyph401" 
 />
    <glyph glyph-name="glyph402" 
 />
    <glyph glyph-name="glyph403" 
 />
    <glyph glyph-name="glyph404" 
 />
    <glyph glyph-name="glyph405" 
 />
    <glyph glyph-name="glyph406" 
 />
    <glyph glyph-name="glyph407" 
 />
    <glyph glyph-name="glyph408" 
 />
    <glyph glyph-name="glyph409" 
 />
    <glyph glyph-name="glyph410" 
 />
    <glyph glyph-name="glyph411" 
 />
    <glyph glyph-name="glyph412" 
 />
    <glyph glyph-name="glyph413" 
 />
    <glyph glyph-name="glyph414" 
 />
    <glyph glyph-name="glyph415" 
 />
    <glyph glyph-name="glyph416" 
 />
    <glyph glyph-name="glyph417" 
 />
    <glyph glyph-name="glyph418" 
 />
    <glyph glyph-name="glyph419" 
 />
    <glyph glyph-name="glyph420" 
 />
    <glyph glyph-name="glyph421" 
 />
    <glyph glyph-name="glyph422" 
 />
    <glyph glyph-name="glyph423" 
 />
    <glyph glyph-name="glyph424" 
 />
    <glyph glyph-name="glyph425" 
 />
    <glyph glyph-name="glyph426" 
 />
    <glyph glyph-name="glyph427" 
 />
    <glyph glyph-name="glyph428" 
 />
    <glyph glyph-name="glyph429" 
 />
    <glyph glyph-name="glyph430" 
 />
    <glyph glyph-name="glyph431" 
 />
    <glyph glyph-name="glyph432" 
 />
    <glyph glyph-name="glyph433" 
 />
    <glyph glyph-name="glyph434" 
 />
    <glyph glyph-name="glyph435" 
 />
    <glyph glyph-name="glyph436" 
 />
    <glyph glyph-name="glyph437" 
 />
    <glyph glyph-name="glyph438" 
 />
    <glyph glyph-name="glyph439" 
 />
    <glyph glyph-name="glyph440" 
 />
    <glyph glyph-name="glyph441" 
 />
    </font>
</defs>
</svg>
