<?xml version="1.0" standalone="no"?>
<!DOCTYPE svg PUBLIC "-//W3C//DTD SVG 1.1//EN" "http://www.w3.org/Graphics/SVG/1.1/DTD/svg11.dtd" >
<svg>
<metadata>
Created by FontForge 20090914 at Fri Apr 11 21:01:36 2014
 By www-data
 
</metadata>
<defs>
<font id="Pragmatica-Italic" horiz-adv-x="351" >
  <font-face 
    font-family="Pragmatica"
    font-weight="400"
    font-style="italic"
    font-stretch="normal"
    units-per-em="1000"
    panose-1="0 0 0 0 0 0 0 0 0 0"
    ascent="800"
    descent="-200"
    x-height="539"
    cap-height="742"
    bbox="-189 -204 1280 917"
    underline-thickness="50"
    underline-position="-55"
    unicode-range="U+0020-U+F002"
  />
<missing-glyph 
 />
    <glyph glyph-name=".notdef" 
 />
    <glyph glyph-name="space" unicode=" " 
 />
    <glyph glyph-name="space" unicode="&#xa0;" 
 />
    <glyph glyph-name="exclam" unicode="!" horiz-adv-x="329" 
d="M55 0l25 116h105l-25 -116h-105v0zM213 742h105l-61 -285l-78 -244h-52l25 244l61 285v0z" />
    <glyph glyph-name="quotedbl" unicode="&#x22;" horiz-adv-x="526" 
d="M319 742l-85 -203h-56l1 203h140v0zM515 742l-85 -203h-56l1 203h140v0z" />
    <glyph glyph-name="numbersign" unicode="#" horiz-adv-x="1053" 
d="M641 -59h-90l35 178h-191l-34 -178h-90l35 178h-178l17 90h178l37 190h-178l18 90h177l35 177h90l-35 -177h190l35 177h90l-35 -177h178l-18 -90h-177l-37 -190h177l-17 -90h-178l-34 -178v0zM603 209l37 190h-190l-37 -190h190v0z" />
    <glyph glyph-name="dollar" unicode="$" horiz-adv-x="646" 
d="M45 221l96 0.00390625l-2 -21c-0.666992 -6.66699 -1 -13 -1 -19c0 -36.667 8.16699 -63.5 24.5 -80.5s34.166 -28.5 53.499 -34.5c7.33301 -2 14.666 -3.5 21.999 -4.5s14.333 -1.5 21 -1.5l60 282c-52.667 17.333 -97.5 38.666 -134.5 63.999s-55.5 68 -55.5 128
c0 7.33301 0.333008 14.666 1 21.999s2 14.666 4 21.999c8.66699 42.667 33.834 82.167 75.501 118.5s106.5 55.833 194.5 58.5l15 69h56l-15 -69c56.667 -0.666992 97.167 -12.167 121.5 -34.5s39.833 -47.166 46.5 -74.499c2 -8 3.33301 -15.833 4 -23.5
s1 -15.167 1 -22.5c0 -6.66699 -0.166992 -13.334 -0.5 -20.001s-1.16602 -12.667 -2.49902 -18h-91c1.33301 5.33301 2 10.166 2 14.499v13.5c0 29.333 -8.5 51.5 -25.5 66.5s-35.833 24.167 -56.5 27.5c-2 0 -4.16699 0.166992 -6.5 0.5s-4.83301 0.5 -7.5 0.5l-56 -262
c59.333 -14 106.666 -35.667 141.999 -65s53 -72.666 53 -129.999c0 -62 -26 -117.333 -78 -166s-121.667 -73.334 -209 -74.001l-18 -87h-56l18 86c-65.333 2 -112 17 -140 45s-45.667 58.667 -53 92c-2 9.33301 -3.5 18.5 -4.5 27.5s-1.5 17.833 -1.5 26.5
c0 8 0.333008 15.667 1 23s1.33398 14 2.00098 20v0zM370 333.004l-58 -272.999c44.667 1.33301 84.667 16 120 44s53 65 53 111c0 34.667 -10.333 61.167 -31 79.5s-48.667 31.166 -84 38.499v0zM338 432.005l53.002 252.999c-44 -1.33301 -77.333 -10.166 -100 -26.499
s-39 -34.166 -49 -53.499c-6 -12 -10 -23.833 -12 -35.5s-3 -21.167 -3 -28.5c0 -6.66699 1 -13.834 3 -21.501s5.33301 -15.5 10 -23.5c7.33301 -12 18.666 -23.667 33.999 -35s36.666 -21 63.999 -29v0z" />
    <glyph glyph-name="percent" unicode="%" horiz-adv-x="967" 
d="M557 204c11.333 56.667 34.167 106 68.5 148s79.833 63 136.5 63c60 0 100.167 -16.833 120.5 -50.5s30.5 -70.834 30.5 -111.501c0 -71.333 -16.667 -128 -50 -170s-70 -69.333 -110 -82c-8.66699 -2.66699 -17.5 -4.66699 -26.5 -6s-17.833 -2 -26.5 -2
c-8 0 -18 0.833008 -30 2.5s-24.667 4.83398 -38 9.50098c-20.667 9.33301 -39.5 25.166 -56.5 47.499s-25.5 56.166 -25.5 101.499c0 6.66699 0.5 13.334 1.5 20.001s2.16699 13.334 3.5 20.001c0.666992 2 1.16699 3.83301 1.5 5.5s0.5 3.16699 0.5 4.5v0zM625.001 204
l-1.99902 -10.002l-2 -10c-0.666992 -3.33301 -1.16699 -6.66602 -1.5 -9.99902s-0.5 -6.66602 -0.5 -9.99902c0 -45.333 8.16699 -76 24.5 -92s34.5 -24 54.5 -24c33.333 0 60.666 11.833 81.999 35.5s37.333 49.834 48 78.501c5.33301 14.667 9.33301 29.167 12 43.5
s4 26.833 4 37.5c0 6.66699 -0.166992 14.167 -0.5 22.5s-1.5 17.166 -3.5 26.499c-2.66699 16.667 -9.5 32 -20.5 46s-29.5 21 -55.5 21c-37.333 0 -67.5 -15.667 -90.5 -47s-39.167 -67.333 -48.5 -108v0zM143.002 -0.00195312l639 742h84l-639 -742h-84v0z
M103.002 537.998c10 50.667 26.001 90.8359 48.001 120.503s45 51.5 69 65.5c16.667 9.33301 32.667 16 48 20s29 6 41 6c8 0 18 -0.833008 30 -2.5s24.333 -5.16699 37 -10.5c20.667 -8.66699 39.667 -24.334 57 -47.001s26 -56.667 26 -102
c0 -66.667 -19.5 -126.834 -58.5 -180.501s-90.167 -80.5 -153.5 -80.5c-6 0 -15.833 0.666992 -29.5 2s-27.834 5.66602 -42.501 12.999c-20 9.33301 -38 25 -54 47s-24 55.333 -24 100c0 8.66699 0.666992 17 2 25l4 24v0zM172.003 538l-3.99805 -19.499
c-1.33301 -6.33301 -2 -12.833 -2 -19.5s0.166992 -14.167 0.5 -22.5s1.16602 -16.833 2.49902 -25.5c3.33301 -16.667 10.333 -32.167 21 -46.5s29 -21.5 55 -21.5c36 0 65.5 14 88.5 42s39.167 59 48.5 93c2.66699 10.667 4.66699 21 6 31s2 19.667 2 29
c0 45.333 -8.16699 76 -24.5 92s-34.5 24 -54.5 24c-7.33301 0 -15.333 -1 -24 -3s-17 -5.33301 -25 -10c-18 -9.33301 -35.333 -25.333 -52 -48s-29.334 -54.334 -38.001 -95.001v0z" />
    <glyph glyph-name="ampersand" unicode="&#x26;" horiz-adv-x="726" 
d="M587 324l83.999 0.00195312c-4.66699 -14 -9.83398 -27.333 -15.501 -40s-11.167 -24.334 -16.5 -35.001c-13.333 -26.667 -26.166 -48.5 -38.499 -65.5l-25.5 -35.5l93 -148h-111l-50 79c-36.667 -35.333 -75 -60.166 -115 -74.499s-82.667 -21.5 -128 -21.5
c-58.667 0 -103 11.167 -133 33.5s-50.333 47.166 -61 74.499c-4 10.667 -7 21.167 -9 31.5s-3 20.166 -3 29.499c0 77.333 21.167 135 63.5 173s98.5 72 168.5 102c0.666992 0.666992 1.33398 1.16699 2.00098 1.5s1.33398 0.5 2.00098 0.5
c-7.33301 14 -13.833 27 -19.5 39s-10.5 23.667 -14.5 35c-2.66699 8.66699 -4.83398 17.5 -6.50098 26.5s-2.5 18.5 -2.5 28.5c0 57.333 19.5 102.333 58.5 135s84.5 49 136.5 49c38 0 67 -6 87 -18s34.333 -25.333 43 -40c8 -12.667 12.833 -24.667 14.5 -36
s2.5 -18.333 2.5 -21c0 -44.667 -16 -86.167 -48 -124.5s-76.333 -69.833 -133 -94.5l122 -193c7.33301 10 15.5 23.5 24.5 40.5s18.5 39.833 28.5 68.5v0zM467.999 143.002l-138.001 225.997c-9.33301 -4 -20 -8.83301 -32 -14.5s-24.333 -12.167 -37 -19.5
c-26 -16.667 -50 -38.167 -72 -64.5s-33 -58.166 -33 -95.499c0 -6 0.5 -12.167 1.5 -18.5s2.5 -12.833 4.5 -19.5c5.33301 -18.667 16.833 -35.667 34.5 -51s44.834 -23 81.501 -23c12 0 31.167 1.83301 57.5 5.5s54.5 14.834 84.5 33.501c8 5.33301 16 11.333 24 18
s16 14.334 24 23.001v0zM378.998 463.999c33.333 12 62.999 30.833 88.999 56.5s39 54.834 39 87.501c0 20.667 -4.5 35.5 -13.5 44.5s-19.167 14.833 -30.5 17.5c-3.33301 0.666992 -6.66602 1.16699 -9.99902 1.5s-6.33301 0.5 -9 0.5
c-3.33301 0 -6.83301 -0.166992 -10.5 -0.5s-7.16699 -0.833008 -10.5 -1.5c-20.667 -4.66699 -39.667 -15.334 -57 -32.001s-26 -40 -26 -70c0 -4 0.333008 -8.16699 1 -12.5l2 -13.5c2.66699 -10 6.16699 -20 10.5 -30s8.83301 -19.333 13.5 -28c2 -4 4 -7.66699 6 -11
s4 -6.33301 6 -9v0z" />
    <glyph glyph-name="quotesingle" unicode="'" horiz-adv-x="330" 
d="M319 742l-85 -203h-56l1 203h140v0z" />
    <glyph glyph-name="parenleft" unicode="(" horiz-adv-x="392" 
d="M321 742l84.001 -0.00488281c-116.667 -164 -186.667 -296.167 -210 -396.5s-35 -181.166 -35 -242.499c0 -25.333 2.16699 -62.666 6.5 -111.999s17.5 -111.333 39.5 -186l-71 -1l-34 91.5c-10 27.667 -18 54.834 -24 81.501c-5.33301 22 -9.5 44.833 -12.5 68.5
s-4.5 48.834 -4.5 75.501c0 78 14.667 165.833 44 263.5s101.666 216.834 216.999 357.501v0z" />
    <glyph glyph-name="parenright" unicode=")" horiz-adv-x="400" 
d="M73 -196h-83.999c65.333 92.667 122.833 190.834 172.5 294.501s74.5 214.834 74.5 333.501c0 37.333 -3.16699 79.666 -9.5 126.999s-15.833 95.666 -28.5 144.999c-1.33301 6 -2.83301 12.167 -4.5 18.5s-3.5 12.833 -5.5 19.5h76c31.333 -72.667 52 -134.5 62 -185.5
s15 -92.167 15 -123.5c0 -72 -9.16699 -140.5 -27.5 -205.5s-45.166 -129.5 -80.499 -193.5c-20.667 -37.333 -44.334 -75 -71.001 -113s-56.334 -76.667 -89.001 -116v-1z" />
    <glyph glyph-name="asterisk" unicode="*" horiz-adv-x="494" 
d="M314 542l-103 -104l-38 37l98 102l-125 61l24 47l126 -62l20 139l52 -4l-19 -138l141 28l10 -52l-140 -28l64 -115l-46 -25l-64 114v0z" />
    <glyph glyph-name="plus" unicode="+" horiz-adv-x="742" 
d="M77 399h287v287h56v-287h287v-56h-287v-287h-56v287h-287v56v0z" />
    <glyph glyph-name="comma" unicode="," horiz-adv-x="329" 
d="M54 0l25 115.997h105l-26 -121c-1.33301 -6.66699 -3 -14 -5 -22s-4.33301 -16 -7 -24c-8 -21.333 -21 -41.666 -39 -60.999s-46.667 -34 -86 -44l12 57c21.333 5.33301 36.833 14.333 46.5 27s16.5 26 20.5 40c1.33301 4.66699 2.5 9.33398 3.5 14.001
s1.83301 9.33398 2.5 14.001l1 4h-53v0z" />
    <glyph glyph-name="hyphen" unicode="-" horiz-adv-x="447" 
d="M77 238l19 91h280l-19 -91h-280v0z" />
    <glyph glyph-name="period" unicode="." horiz-adv-x="329" 
d="M55 0l24 116h105l-24 -116h-105v0z" />
    <glyph glyph-name="slash" unicode="/" horiz-adv-x="456" 
d="M-87 -196l562 938h83l-562 -938h-83v0z" />
    <glyph glyph-name="zero" unicode="0" horiz-adv-x="615" 
d="M260 -16c-73.333 0.666992 -125.669 26.001 -157.002 76.001s-47 113.333 -47 190c0 14.667 0.5 29.667 1.5 45s2.16699 30.666 3.5 45.999c12.667 104 46.834 199.5 102.501 286.5s133.5 130.5 233.5 130.5c69.333 0 118 -19 146 -57s45.667 -79.667 53 -125
c2.66699 -14.667 4.33398 -29.167 5.00098 -43.5s1 -27.833 1 -40.5c0 -16.667 -0.666992 -33.667 -2 -51s-3 -35 -5 -53c-14 -100.667 -48.5 -193 -103.5 -277s-132.167 -126 -231.5 -126v-1zM269.997 64.001c56 0 100.666 25.668 133.999 77.001s58 107.666 74 168.999
c10 37.333 17.167 73.5 21.5 108.5s6.5 64.167 6.5 87.5c0 67.333 -12 112.833 -36 136.5s-51.667 35.5 -83 35.5c-58.667 0 -105.167 -28.167 -139.5 -84.5s-58.833 -118.5 -73.5 -186.5c-6.66699 -29.333 -11.5 -58.5 -14.5 -87.5s-4.5 -55.5 -4.5 -79.5
c0 -9.33301 0.333008 -20.833 1 -34.5s2.33398 -27.5 5.00098 -41.5c5.33301 -25.333 16 -48.333 32 -69s41.667 -31 77 -31v0z" />
    <glyph glyph-name="one" unicode="1" horiz-adv-x="616" 
d="M200 558l11 52h20c49.333 0 92 12 128 36s61.667 56 77 96h72l-160 -742h-100l119 558h-167v0z" />
    <glyph glyph-name="two" unicode="2" horiz-adv-x="617" 
d="M524 84l-16.9941 -84.002h-502c13.333 78 41.166 138 83.499 180s93.5 80.333 153.5 115l40 22l41 23c1.33301 0.666992 2.66602 1.5 3.99902 2.5s2.66602 1.83301 3.99902 2.5c48.667 26.667 93 56.667 133 90s60 79 60 137c0 38 -12.333 64.833 -37 80.5
s-55.334 23.5 -92.001 23.5c-46 0 -81.667 -10.167 -107 -30.5s-44 -42.833 -56 -67.5c-6.66699 -13.333 -11.834 -26.333 -15.501 -39s-6.16699 -23.667 -7.5 -33h-102c2.66699 13.333 6.16699 28 10.5 44s10.166 32.333 17.499 49c18 39.333 47.333 75.333 88 108
s99.334 49 176.001 49c72.667 0 125 -11.667 157 -35s52.667 -48.666 62 -75.999c2.66699 -9.33301 4.66699 -18.666 6 -27.999s2 -18 2 -26c0 -71.333 -20.333 -129 -61 -173s-85.334 -80.667 -134.001 -110l-35.5 -21l-34.5 -19l-40.5 -22l-37.5 -22
c-34 -20 -63.667 -41 -89 -63s-46 -47.667 -62 -77h392v0z" />
    <glyph glyph-name="three" unicode="3" horiz-adv-x="616" 
d="M29 226l96.002 0.000976562c-0.666992 -5.33301 -1.33398 -11 -2.00098 -17s-1 -12.333 -1 -19c0 -4.66699 0.166992 -9.33398 0.5 -14.001s1.16602 -9.66699 2.49902 -15c4 -23.333 16.167 -45 36.5 -65s54.5 -30 102.5 -30c61.333 0 107.5 15.667 138.5 47
s48.833 65.666 53.5 102.999c0 3.33301 0.166992 6.66602 0.5 9.99902s0.5 6.66602 0.5 9.99902c0 41.333 -10.5 69.333 -31.5 84s-44.167 23.334 -69.5 26.001c-9.33301 1.33301 -18.5 2 -27.5 2h-26.5h-4h-4h-28l16 80h30c60 0 104.5 11.5 133.5 34.5
s47.167 48.5 54.5 76.5c1.33301 5.33301 2.33301 10.833 3 16.5s1 11.167 1 16.5c0 6 -0.5 12.333 -1.5 19s-2.5 13.667 -4.5 21c-6 16 -18 30.833 -36 44.5s-47.333 20.5 -88 20.5c-4 0 -8.16699 -0.166992 -12.5 -0.5s-8.5 -0.5 -12.5 -0.5
c-31.333 -3.33301 -61.333 -15.833 -90 -37.5s-50 -62.5 -64 -122.5h-94c0.666992 6 1.5 12 2.5 18s2.16699 12 3.5 18c12 50.667 39.333 97.167 82 139.5s105.334 63.5 188.001 63.5c76 0 131.833 -14.667 167.5 -44s53.5 -66 53.5 -110
c0 -51.333 -15 -96.166 -45 -134.499s-67 -63.166 -111 -74.499l-1 -5c31.333 -7.33301 54.833 -18.5 70.5 -33.5s26.5 -30.833 32.5 -47.5c4 -10.667 6.5 -21 7.5 -31s1.5 -19 1.5 -27c0 -10.667 -0.833008 -21.667 -2.5 -33s-3.83398 -22.666 -6.50098 -33.999
c-14 -48.667 -43.167 -93 -87.5 -133s-107.166 -60 -188.499 -60c-88.667 0 -149.834 15.833 -183.501 47.5s-53.167 66.834 -58.5 105.501c-0.666992 5.33301 -1.16699 10.666 -1.5 15.999s-0.5 10.666 -0.5 15.999c0 9.33301 0.5 18.5 1.5 27.5s2.16699 17.5 3.5 25.5v0z
" />
    <glyph glyph-name="four" unicode="4" horiz-adv-x="616" 
d="M363 171h-349l17 86l438 485h108l-103 -487h109l-17 -84h-109l-37 -171h-94l37 171v0zM133 255h247l78 367l-325 -367v0z" />
    <glyph glyph-name="five" unicode="5" horiz-adv-x="617" 
d="M40 190l97.0029 -0.00195312v-16c0 -33.333 12.333 -59.333 37 -78s57 -28 97 -28c58 0 101.667 13.333 131 40s50 56.334 62 89.001c5.33301 16 9.16602 31.833 11.499 47.5s3.5 29.5 3.5 41.5c0 39.333 -12.167 71.333 -36.5 96s-60.833 37 -109.5 37
c-8 0 -16 -0.5 -24 -1.5s-16.333 -2.5 -25 -4.5c-18 -5.33301 -35.5 -13 -52.5 -23s-31.5 -23 -43.5 -39h-94l136 391h401l-17 -84h-328l-75 -214c2 1.33301 3.66699 2.5 5 3.5s3 2.16699 5 3.5c23.333 14.667 47.166 25.5 71.499 32.5s51.166 10.5 80.499 10.5
c62 0 111.167 -18.167 147.5 -54.5s54.5 -87.166 54.5 -152.499c0 -8 -0.333008 -15.833 -1 -23.5l-2 -23.5c-8.66699 -62.667 -37 -120 -85 -172s-122.333 -78 -223 -78c-74.667 0 -128.5 14.167 -161.5 42.5s-53.167 59.833 -60.5 94.5
c-1.33301 6.66699 -2.33301 13.167 -3 19.5s-1 12.833 -1 19.5c0 2 0.166992 4 0.5 6s0.5 4 0.5 6s0.166992 4 0.5 6s0.5 4 0.5 6v0z" />
    <glyph glyph-name="six" unicode="6" horiz-adv-x="617" 
d="M625 579l-90 0.000976562c-0.666992 24 -10.5 45.833 -29.5 65.5s-52.167 29.5 -99.5 29.5c-12.667 0 -30 -2.5 -52 -7.5s-45.333 -17.5 -70 -37.5c-22 -18 -43.333 -44.333 -64 -79s-37.667 -81.667 -51 -141h4c24.667 27.333 53.5 47.5 86.5 60.5
s67.833 19.5 104.5 19.5c58 0 107 -16.5 147 -49.5s60 -83.5 60 -151.5c0 -16.667 -1.5 -35.334 -4.5 -56.001s-8.5 -41.667 -16.5 -63c-16 -45.333 -45 -86.833 -87 -124.5s-104 -56.5 -186 -56.5c-12.667 0 -27.667 0.833008 -45 2.5s-35.333 5.16699 -54 10.5
c-32.667 11.333 -62.5 33.833 -89.5 67.5s-40.5 87.167 -40.5 160.5c0 24 3 58.667 9 104s17.333 93 34 143c24 69.333 61.5 132.833 112.5 190.5s122.5 86.5 214.5 86.5c62.667 0 108.5 -11.333 137.5 -34s48.5 -47.334 58.5 -74.001c4 -12 6.83301 -23.667 8.5 -35
s2.5 -21.666 2.5 -30.999v0zM150 234.001c-0.666992 -4 -1.16699 -7.83496 -1.5 -11.502s-0.5 -7.16699 -0.5 -10.5c-0.666992 -3.33301 -1 -6.83301 -1 -10.5v-11.5c0 -44 13.833 -75.5 41.5 -94.5s61.5 -28.5 101.5 -28.5c53.333 0 93.833 16.167 121.5 48.5
s45.834 67.833 54.501 106.5c2 10 3.5 20 4.5 30s1.5 19.667 1.5 29c0 4.66699 -0.166992 9.33398 -0.5 14.001s-0.833008 9.33398 -1.5 14.001c-4 25.333 -15.667 48.5 -35 69.5s-52.666 31.5 -99.999 31.5c-44.667 0 -79.834 -11 -105.501 -33
s-44.834 -46.333 -57.501 -73c-6 -12.667 -10.833 -25 -14.5 -37s-6.16699 -23 -7.5 -33v0z" />
    <glyph glyph-name="seven" unicode="7" horiz-adv-x="616" 
d="M113 658l18.002 84h527l-14 -68c-12 -10 -23.5 -20.333 -34.5 -31l-31.5 -32c-58.667 -60 -106.167 -116.333 -142.5 -169s-58.833 -86.334 -67.5 -101.001c-21.333 -34.667 -39.833 -67 -55.5 -97s-29.834 -59.667 -42.501 -89c-10.667 -24.667 -20.5 -49.667 -29.5 -75
s-17.833 -52 -26.5 -80h-106c6.66699 23.333 14.834 47.666 24.501 72.999s20.5 51 32.5 77c14.667 32.667 30.334 64.834 47.001 96.501s33.667 61.167 51 88.5l20 31l20 30c19.333 28.667 39.166 55.834 59.499 81.501s42.166 50.834 65.499 75.501
c15.333 17.333 31.666 34.666 48.999 51.999s36 35 56 53h-420v0z" />
    <glyph glyph-name="eight" unicode="8" horiz-adv-x="617" 
d="M279 -11c-93.333 0.666992 -156.834 18.999 -190.501 54.999s-52.167 75.667 -55.5 119v8v8c0 57.333 17.5 106.166 52.5 146.499s78.167 67.5 129.5 81.5c-26.667 12.667 -46.167 30.667 -58.5 54s-18.5 49 -18.5 77c0 62 24.333 113.333 73 154s111 61 187 61
c71.333 0 123.833 -15.667 157.5 -47s50.5 -71 50.5 -119c0 -41.333 -13.167 -79.833 -39.5 -115.5s-62.166 -60.167 -107.499 -73.5c33.333 -10.667 59 -31 77 -61s27 -63.667 27 -101c0 -9.33301 -0.5 -18.666 -1.5 -27.999s-2.5 -18.666 -4.5 -27.999
c-11.333 -47.333 -38.5 -90.833 -81.5 -130.5s-108.5 -59.5 -196.5 -59.5v-1zM272.999 67.999c50.667 0 89.999 11.832 117.999 35.499s47.667 49.834 59 78.501c4 11.333 7 22.5 9 33.5s3 21.167 3 30.5c0 6 -0.5 12.667 -1.5 20s-2.83301 14.666 -5.5 21.999
c-6 18 -18.333 34.5 -37 49.5s-48.667 22.5 -90 22.5c-49.333 0 -94 -14 -134 -42s-60 -69.667 -60 -125c0 -36 8.5 -62.833 25.5 -80.5s35.833 -29.5 56.5 -35.5c10.667 -3.33301 20.834 -5.66602 30.501 -6.99902s18.5 -2 26.5 -2v0zM344.998 436.998
c46 -0.666992 82.667 10.667 110 34s45 49 53 77c1.33301 5.33301 2.33301 10.5 3 15.5s1 10.167 1 15.5c0 24 -8.83301 45.667 -26.5 65s-50.167 29 -97.5 29c-48 0 -86.5 -13 -115.5 -39s-43.5 -57.667 -43.5 -95c0 -27.333 9.16699 -51 27.5 -71s47.833 -30.333 88.5 -31
v0z" />
    <glyph glyph-name="nine" unicode="9" horiz-adv-x="617" 
d="M34 161l90.001 -0.00292969v-2.5v-3.5c2 -22 12.833 -42.167 32.5 -60.5s51.834 -27.5 96.501 -27.5c12.667 0 30 2.5 52 7.5s45.333 17.167 70 36.5c22 18.667 43.333 45.334 64 80.001s37.667 81.334 51 140.001h-4c-8.66699 -9.33301 -17.334 -17.666 -26.001 -24.999
s-17.334 -14 -26.001 -20c-22.667 -14 -45 -23.167 -67 -27.5s-42 -6.5 -60 -6.5c-60.667 0 -112 16 -154 48s-63 82.667 -63 152c0 16.667 1.5 35.334 4.5 56.001s8.5 41.667 16.5 63c16 45.333 44.833 87 86.5 125s103.167 57 184.5 57c12.667 0 27.667 -0.666992 45 -2
s35.333 -5 54 -11c32.667 -10 62.667 -31.333 90 -64s41 -85.334 41 -158.001c0 -23.333 -2.66699 -58.333 -8 -105s-16.333 -95.667 -33 -147c-22.667 -70 -59.5 -133.833 -110.5 -191.5s-124.167 -86.5 -219.5 -86.5c-67.333 0 -115.5 12.5 -144.5 37.5
s-47.5 52.833 -55.5 83.5c-2.66699 8.66699 -4.5 17.5 -5.5 26.5s-1.5 17.5 -1.5 25.5v0zM509.001 505.997c0.666992 4 1.16699 7.83398 1.5 11.501s0.5 7.16699 0.5 10.5c0.666992 3.33301 1 6.83301 1 10.5v11.5c0 45.333 -13.667 77.166 -41 95.499
s-61.333 27.5 -102 27.5c-49.333 0 -86.833 -12.833 -112.5 -38.5s-43.834 -53.834 -54.501 -84.501c-6 -16.667 -10 -33 -12 -49s-3 -30 -3 -42v-9.5c0 -3 0.333008 -6.16699 1 -9.5c2.66699 -27.333 13.5 -52.333 32.5 -75s53.5 -34 103.5 -34
c43.333 0 77.333 9.83301 102 29.5s43.334 41.167 56.001 64.5c8.66699 16 15 31.333 19 46s6.66699 26.334 8 35.001v0z" />
    <glyph glyph-name="colon" unicode=":" horiz-adv-x="329" 
d="M55 0l24 116h105l-24 -116h-105v0zM144 423l25 116h105l-25 -116h-105v0z" />
    <glyph glyph-name="semicolon" unicode=";" horiz-adv-x="329" 
d="M54 0l25 115.997h105l-26 -121c-1.33301 -6.66699 -3 -14 -5 -22s-4.33301 -16 -7 -24c-8 -21.333 -21 -41.666 -39 -60.999s-46.667 -34 -86 -44l12 57c21.333 5.33301 36.833 14.333 46.5 27s16.5 26 20.5 40c1.33301 4.66699 2.5 9.33398 3.5 14.001
s1.83301 9.33398 2.5 14.001l1 4h-53v0zM144 422.997l25 116h105l-25 -116h-105v0z" />
    <glyph glyph-name="less" unicode="&#x3c;" horiz-adv-x="700" 
d="M64 396l509 294l38 -66l-452 -261l452 -261l-38 -66l-509 294v66v0z" />
    <glyph glyph-name="equal" unicode="=" horiz-adv-x="742" 
d="M77 293h630v-56h-630v56v0zM77 505h630v-56h-630v56v0z" />
    <glyph glyph-name="greater" unicode="&#x3e;" horiz-adv-x="700" 
d="M636 330l-509 -294l-38 66l452 261l-452 261l38 66l509 -294v-66v0z" />
    <glyph glyph-name="question" unicode="?" horiz-adv-x="585" 
d="M176 0l25 116h105l-25 -116h-105v0zM201 518l-91.998 -0.000976562c14.667 78.667 40.834 135 78.501 169s77.5 55.667 119.5 65c13.333 3.33301 26.5 5.5 39.5 6.5s25.833 1.5 38.5 1.5c74 0 125.667 -13.167 155 -39.5s46.666 -55.5 51.999 -87.5
c1.33301 -5.33301 2.16602 -10.666 2.49902 -15.999s0.5 -10.666 0.5 -15.999c0 -52 -14.333 -94.5 -43 -127.5s-63.667 -64.167 -105 -93.5c-0.666992 -0.666992 -1.5 -1.33398 -2.5 -2.00098s-1.83301 -1.33398 -2.5 -2.00098l-14 -10l-14 -10
c-22 -16 -42.5 -34.667 -61.5 -56s-31.833 -49.666 -38.5 -84.999h-78c8.66699 58.667 25.334 101.334 50.001 128.001s51 50 79 70c2 1.33301 3.83301 2.5 5.5 3.5s3.16699 2.16699 4.5 3.5c3.33301 2.66699 6.83301 5.16699 10.5 7.5s7.16699 4.83301 10.5 7.5
c25.333 18.667 48.666 40.667 69.999 66s32 55 32 89c0 4.66699 -0.333008 9.66699 -1 15s-2 11 -4 17c-5.33301 15.333 -16.166 29.5 -32.499 42.5s-42.5 19.5 -78.5 19.5c-10.667 0 -22.834 -0.833008 -36.501 -2.5s-27.834 -5.83398 -42.501 -12.501
c-20.667 -9.33301 -40.667 -25.5 -60 -48.5s-33.333 -57.167 -42 -102.5v0z" />
    <glyph glyph-name="at" unicode="@" horiz-adv-x="1052" 
d="M721 -27l36.001 -65.002c-14 -8 -28 -15.333 -42 -22s-27.667 -12.334 -41 -17.001c-23.333 -8 -47 -13.667 -71 -17s-49.667 -5 -77 -5c-150 0 -264.5 45.167 -343.5 135.5s-118.5 198.833 -118.5 325.5c0 140.667 45.833 252.834 137.5 336.501
s199.834 125.5 324.501 125.5c137.333 0 240.666 -34.5 309.999 -103.5s114.666 -144.833 135.999 -227.5c5.33301 -22.667 9.33301 -45 12 -67s4 -43.333 4 -64v-4v-5c-2 -60.667 -22.5 -116.5 -61.5 -167.5s-93.833 -76.5 -164.5 -76.5c-6 0 -13.5 0.333008 -22.5 1
s-18.167 2.33398 -27.5 5.00098c-11.333 4 -22 10 -32 18s-17.667 20 -23 36h-6c-9.33301 -18 -21.666 -31.5 -36.999 -40.5s-31.333 -15.5 -48 -19.5c-12 -3.33301 -23.833 -5.33301 -35.5 -6s-22.167 -1 -31.5 -1c-68.667 0 -121.667 22.167 -159 66.5
s-56 103.833 -56 178.5c0 64.667 17.833 121.5 53.5 170.5s86.834 73.5 153.501 73.5c35.333 0 65 -5.33301 89 -16s43 -28.334 57 -53.001h6l-6 23v29h102l-3 -313c-0.666992 -30.667 3.5 -50.167 12.5 -58.5s18.833 -12.833 29.5 -13.5h2.5h2.5c40 0 71 16.667 93 50
s33 74.333 33 123c0 110.667 -33.667 203.667 -101 279s-161.333 113 -282 113c-100.667 0 -189.834 -35.5 -267.501 -106.5s-116.5 -166.167 -116.5 -285.5c0 -131.333 39.333 -229 118 -293s165.334 -96.667 260.001 -98h3.5h2.5c37.333 0 69.666 4.16699 96.999 12.5
s50.666 17.833 69.999 28.5c5.33301 2.66699 10.333 5.33398 15 8.00098s9 5.33398 13 8.00098v-1zM633.001 290.998v4.00098v4c-1.33301 39.333 -10.666 75.333 -27.999 108s-48 49 -92 49c-38.667 0 -67.167 -12 -85.5 -36s-30.166 -50.333 -35.499 -79
c-1.33301 -8.66699 -2.33301 -17.167 -3 -25.5s-1 -16.5 -1 -24.5c0 -8.66699 0.666992 -19.334 2 -32.001s3.66602 -25.667 6.99902 -39c6.66699 -22.667 18.667 -43.667 36 -63s43.666 -29 78.999 -29c43.333 0 74.333 16.167 93 48.5s28 70.5 28 114.5v0z" />
    <glyph glyph-name="A" unicode="A" horiz-adv-x="665" 
d="M164 192l-111 -192h-104l431 742h108l123 -742h-103l-30 192h-314v0zM209 276h259l-52 365l-207 -365v0z" />
    <glyph glyph-name="B" unicode="B" horiz-adv-x="733" 
d="M190 742l311.999 -0.00195312c6.66699 0 13.5 -0.166992 20.5 -0.5s13.833 -0.833008 20.5 -1.5c39.333 -4 75.5 -16.667 108.5 -38s49.5 -57.666 49.5 -108.999v-8c0 -2.66699 -0.333008 -5.33398 -1 -8.00098c-2.66699 -37.333 -15.334 -73.166 -38.001 -107.499
s-57.667 -61.166 -105 -80.499l-1 -3c39.333 -10 66.5 -26.167 81.5 -48.5s23.833 -45.833 26.5 -70.5c0.666992 -5.33301 1.16699 -10.5 1.5 -15.5s0.5 -10.167 0.5 -15.5c0 -12 -1.66699 -27.667 -5 -47s-10.666 -39.333 -21.999 -60c-18 -32 -48.667 -61.5 -92 -88.5
s-107.666 -40.5 -192.999 -40.5h-321l157 742v0zM204.999 342.998l-54.999 -259.001h207c63.333 0 109.666 11.333 138.999 34s48.333 47.334 57 74.001c2.66699 8 4.5 16 5.5 24s1.5 15.667 1.5 23c0 29.333 -9.5 54 -28.5 74s-58.833 30 -119.5 30h-207v0zM272 657.997
l-49.002 -230.999h201c50.667 0 88.834 10 114.501 30s42.834 42 51.501 66c2 7.33301 3.66699 14.666 5 21.999s2 14.333 2 21c0 38 -12.5 62.833 -37.5 74.5s-55.167 17.5 -90.5 17.5h-197v0z" />
    <glyph glyph-name="C" unicode="C" horiz-adv-x="760" 
d="M612 246l103.997 -0.00292969l-6 -18.5l-6 -18.5c-22.667 -58.667 -60.167 -112.5 -112.5 -161.5s-127.833 -73.5 -226.5 -73.5c-83.333 0 -146.166 15.667 -188.499 47s-72.166 66 -89.499 104c-13.333 29.333 -21.5 57.333 -24.5 84s-4.5 45.667 -4.5 57
c0 20 1 40.667 3 62s5.33301 43 10 65c19.333 92.667 62 177.834 128 255.501s160.667 116.5 284 116.5c90.667 0 155.667 -15.167 195 -45.5s64.666 -63.5 75.999 -99.5c4 -12 6.66699 -23.667 8 -35s2 -22.333 2 -33c0 -6.66699 -0.166992 -13.5 -0.5 -20.5
s-1.16602 -13.167 -2.49902 -18.5h-101c0.666992 4 1 8 1 12v13c0 6 -0.333008 12 -1 18s-1.66699 12.333 -3 19c-6 26.667 -21.667 51 -47 73s-68.666 33 -129.999 33c-88 0 -156.333 -30.167 -205 -90.5s-80.667 -126.833 -96 -199.5c-3.33301 -18 -6 -36 -8 -54
s-3 -35.667 -3 -53c0 -67.333 18.167 -121.833 54.5 -163.5s87.5 -62.5 153.5 -62.5c52 0 94.167 11.333 126.5 34s57.166 47.667 74.499 75c9.33301 14.667 16.833 28.834 22.5 42.501s9.83398 25.834 12.501 36.501v0z" />
    <glyph glyph-name="D" unicode="D" horiz-adv-x="760" 
d="M191 742l257.999 0.000976562c16.667 0 36.334 -1 59.001 -3s46 -6.66699 70 -14c42.667 -13.333 81.667 -39.833 117 -79.5s53 -103.167 53 -190.5c0 -128.667 -25.167 -224.334 -75.5 -287.001s-105.833 -106 -166.5 -130c-46.667 -19.333 -91.167 -30.5 -133.5 -33.5
s-72.833 -4.5 -91.5 -4.5h-248l158 742v0zM271.999 658.001l-122.002 -573.997h146c18.667 0 39.334 1.33301 62.001 4s45.334 8 68.001 16c54 17.333 103.333 51.666 148 102.999s67 131.666 67 240.999c0 64 -12.333 110.5 -37 139.5s-51.667 48.5 -81 58.5
c-17.333 5.33301 -34 8.66602 -50 9.99902s-29.667 2 -41 2h-160v0z" />
    <glyph glyph-name="E" unicode="E" horiz-adv-x="649" 
d="M223 425h389l-18 -84h-389l-54 -257h441l-18 -84h-541l158 742h529l-18 -84h-430l-49 -233v0z" />
    <glyph glyph-name="F" unicode="F" horiz-adv-x="602" 
d="M221 417h349l-18 -84h-348l-71 -333h-100l158 742h498l-19 -84h-398l-51 -241v0z" />
    <glyph glyph-name="G" unicode="G" horiz-adv-x="787" 
d="M446 387l303.999 -0.000976562l-83 -387h-77l21 98h-3c-34 -43.333 -71.167 -73.833 -111.5 -91.5s-89.166 -26.5 -146.499 -26.5c-84 0 -146.167 17.167 -186.5 51.5s-68.166 72.166 -83.499 113.499c-10.667 30.667 -17 60 -19 88s-3 49 -3 63v1.5v0.5
c0 25.333 2.33301 53.333 7 84s12.667 62 24 94c25.333 72 70.5 138.333 135.5 199s158.167 91 279.5 91c94.667 0 162.167 -21.167 202.5 -63.5s62.166 -89.166 65.499 -140.499c0.666992 -2.66699 1 -5.33398 1 -8.00098v-8v-11c0 -4 -0.333008 -8 -1 -12h-104
c0.666992 3.33301 1 6.83301 1 10.5v9.5c0 3.33301 -0.166992 6.83301 -0.5 10.5s-0.5 7.16699 -0.5 10.5c-4.66699 29.333 -19.667 56.333 -45 81s-68 37 -128 37c-86.667 0 -153.667 -24 -201 -72s-80.666 -101 -99.999 -159c-9.33301 -27.333 -16 -54 -20 -80
s-6 -49.667 -6 -71c0 -87.333 20 -148.666 60 -183.999s90.333 -53 151 -53c65.333 0 116.666 17.167 153.999 51.5s65 72.5 83 114.5c5.33301 12.667 10 25.334 14 38.001s7.33301 24.667 10 36h-212l18 84v0z" />
    <glyph glyph-name="H" unicode="H" horiz-adv-x="752" 
d="M206 349l-74 -349h-99l158 742h99l-66 -309h373l65 309h100l-158 -742h-99l74 349h-373v0z" />
    <glyph glyph-name="I" unicode="I" horiz-adv-x="280" 
d="M191 742h99l-158 -742h-99l158 742v0z" />
    <glyph glyph-name="J" unicode="J" horiz-adv-x="549" 
d="M16 246h100.996c-0.666992 -2 -1.5 -5.66699 -2.5 -11l-3.5 -18l-2 -14l-2 -14c-0.666992 -4.66699 -1.16699 -9.5 -1.5 -14.5s-0.5 -9.5 -0.5 -13.5c0 -34 9.66699 -58.5 29 -73.5s43.333 -22.5 72 -22.5c52 0 88.833 15.333 110.5 46s38.834 76 51.501 136l106 495h99
l-103 -486c-18.667 -90.667 -46.167 -159 -82.5 -205s-98.166 -69 -185.499 -69c-64 0 -109.5 10.667 -136.5 32s-44.167 45 -51.5 71c-3.33301 12 -5.5 23.833 -6.5 35.5s-1.5 22.167 -1.5 31.5c0 14.667 0.5 28 1.5 40s2.5 24 4.5 36
c0.666992 3.33301 1.33398 6.5 2.00098 9.5s1.33398 5.83301 2.00098 8.5v0z" />
    <glyph glyph-name="K" unicode="K" horiz-adv-x="703" 
d="M212 376l444 366h130l-376 -316l246 -426h-128l-203 368l-139 -114l-54 -254h-99l158 742h99l-78 -366v0z" />
    <glyph glyph-name="L" unicode="L" horiz-adv-x="561" 
d="M529 87l-19 -87h-477l158 742h99l-139 -655h378v0z" />
    <glyph glyph-name="M" unicode="M" horiz-adv-x="923" 
d="M366 0l-113 602h-2l-4 -28l-122 -574h-92l158 742h126l116 -611l362 611h138l-158 -742h-92l122 574l8 28h-2l-362 -602h-83v0z" />
    <glyph glyph-name="N" unicode="N" horiz-adv-x="776" 
d="M255 581l-123 -581h-99l157 742h98l275 -581l123 581h100l-158 -742h-98l-275 581v0z" />
    <glyph glyph-name="O" unicode="O" horiz-adv-x="806" 
d="M368 -22c-90.667 -0.666992 -157.499 15.334 -200.499 48.001s-72.5 68.667 -88.5 108c-10.667 26 -17.167 51 -19.5 75s-3.5 43.333 -3.5 58c0 23.333 1.5 47.5 4.5 72.5s7.5 50.167 13.5 75.5c21.333 87.333 64 167.333 128 240s156.333 109 277 109
c85.333 0 149.5 -15.5 192.5 -46.5s73.167 -64.833 90.5 -101.5c13.333 -28.667 21.5 -56 24.5 -82s4.5 -44.667 4.5 -56v-12.5v-13.5c-4.66699 -117.333 -40.834 -224.833 -108.501 -322.5s-172.5 -147.834 -314.5 -150.501v-1zM379.001 62.001
c84 0 148.667 27.332 194 81.999s76.333 114.667 93 180c6 24.667 10.5 48.834 13.5 72.501s4.5 45.834 4.5 66.501c0 59.333 -11.333 104 -34 134s-48 51 -76 63c-22 10 -43.167 15.833 -63.5 17.5s-33.833 2.5 -40.5 2.5h-1.5h-0.5c-85.333 0 -152.333 -31.333 -201 -94
s-80 -131.667 -94 -207c-3.33301 -16.667 -5.83301 -33.334 -7.5 -50.001s-2.5 -33 -2.5 -49c0 -75.333 19.5 -130.5 58.5 -165.5s91.5 -52.5 157.5 -52.5v0z" />
    <glyph glyph-name="P" unicode="P" horiz-adv-x="680" 
d="M191 742l286.002 -0.00195312c65.333 0 119.666 -10.833 162.999 -32.5s65 -65.167 65 -130.5c0 -13.333 -1.5 -32.166 -4.5 -56.499s-10.167 -49.833 -21.5 -76.5c-16.667 -37.333 -45.334 -71.666 -86.001 -102.999s-102 -47 -184 -47h-214l-63 -296h-99l158 742v0z
M272.002 657.998l-59 -277.999h189c59.333 0 103 12 131 36s46.667 50 56 78c4 12 6.66699 23.833 8 35.5s2 22.5 2 32.5c0 37.333 -13.5 62.666 -40.5 75.999s-64.167 20 -111.5 20h-175v0z" />
    <glyph glyph-name="Q" unicode="Q" horiz-adv-x="806" 
d="M615 59l56.0049 -86.001l-67 -51l-63 94c-16.667 -9.33301 -38.334 -17.833 -65.001 -25.5s-62.334 -11.5 -107.001 -11.5c-17.333 0 -37.666 0.833008 -60.999 2.5s-47.333 6.16699 -72 13.5c-44.667 12.667 -85.834 39 -123.501 79s-56.5 104.333 -56.5 193
c0 21.333 1.16699 43.5 3.5 66.5s6.16602 46.167 11.499 69.5c19.333 90 61.166 172.667 125.499 248s158.5 113 282.5 113c93.333 0 161.5 -17.5 204.5 -52.5s72.167 -73.833 87.5 -116.5c8.66699 -24 14.167 -47.5 16.5 -70.5s3.5 -42.5 3.5 -58.5
c0 -18.667 -1 -37.667 -3 -57s-5 -38.666 -9 -57.999c-11.333 -56 -30.833 -110.167 -58.5 -162.5s-62.834 -95.5 -105.501 -129.5v0zM492.005 232.999l68.001 -99.002c24 20.667 44 45.334 60 74.001s28.667 58.334 38 89.001c10 31.333 16.833 61.666 20.5 90.999
s5.5 54.333 5.5 75c0 63.333 -17.5 115.333 -52.5 156s-89.167 61 -162.5 61c-86.667 0 -154 -31.167 -202 -93.5s-79 -130.833 -93 -205.5c-3.33301 -16.667 -5.83301 -33.667 -7.5 -51s-2.5 -34 -2.5 -50c0 -12 0.833008 -26 2.5 -42s5.16699 -32.667 10.5 -50
c10 -31.333 30 -60.166 60 -86.499s77.333 -39.5 142 -39.5c24.667 0 45.667 2.33301 63 7s33.666 11 48.999 19l-66 95l67 50v0z" />
    <glyph glyph-name="R" unicode="R" horiz-adv-x="721" 
d="M33 0l158.001 742.001h315c67.333 0 116.166 -10.5 146.499 -31.5s50.166 -43.833 59.499 -68.5c4.66699 -12.667 7.66699 -24.834 9 -36.501s2 -22.167 2 -31.5c0 -43.333 -8.33301 -79.166 -25 -107.499s-35 -50.833 -55 -67.5
c-15.333 -12.667 -30 -22.334 -44 -29.001s-24 -11 -30 -13l-1 -3c19.333 -6.66699 35 -18.5 47 -35.5s18 -39.167 18 -66.5c0 -6.66699 -0.5 -13.667 -1.5 -21s-2.16699 -15 -3.5 -23c-0.666992 -3.33301 -1.5 -6.83301 -2.5 -10.5s-1.83301 -7.5 -2.5 -11.5
c-2.66699 -10.667 -5 -21.167 -7 -31.5s-3 -19.833 -3 -28.5c0 -9.33301 -0.333008 -17.833 -1 -25.5s-1.66699 -15.167 -3 -22.5c-0.666992 -6.66699 -1.5 -13.167 -2.5 -19.5s-1.5 -12.5 -1.5 -18.5c0 -6.66699 0.833008 -13.167 2.5 -19.5
s4.83398 -13.166 9.50098 -20.499h-105c-2.66699 6.66699 -5 12.834 -7 18.501s-3.33301 11.5 -4 17.5c0 3.33301 -0.166992 6.5 -0.5 9.5s-0.5 5.83301 -0.5 8.5c0 12.667 1.66699 26.167 5 40.5s6.66602 30.5 9.99902 48.5c1.33301 4.66699 2.5 9.5 3.5 14.5
s1.83301 10.167 2.5 15.5c0.666992 2 1.33398 5.16699 2.00098 9.5l2 13.5c0 1.33301 0.166992 2.66602 0.5 3.99902s0.5 3 0.5 5c0.666992 6 1.33398 11.667 2.00098 17s1 9.66602 1 12.999c0 31.333 -11.333 52.5 -34 63.5s-50.334 16.5 -83.001 16.5h-213l-66 -315h-100
v0zM272.001 658.001l-55 -260.001h223c54 0 97 15.5 129 46.5s48 69.833 48 116.5c0 36.667 -10 61.334 -30 74.001s-42 20 -66 22c-4.66699 0.666992 -9.16699 1 -13.5 1h-13.5h-222v0z" />
    <glyph glyph-name="S" unicode="S" horiz-adv-x="684" 
d="M41 235l101.998 -0.000976562c-1.33301 -6 -2.5 -12.5 -3.5 -19.5s-1.5 -14.167 -1.5 -21.5c0 -4.66699 0.166992 -9.66699 0.5 -15s1.16602 -10.333 2.49902 -15c5.33301 -24.667 20.166 -47.334 44.499 -68.001s65.833 -31 124.5 -31
c61.333 0 107.833 12.167 139.5 36.5s52.167 50.833 61.5 79.5c2.66699 7.33301 4.5 14.5 5.5 21.5s1.5 13.833 1.5 20.5c0 40 -15.833 67.167 -47.5 81.5s-69.5 25.833 -113.5 34.5l-31 6c-10.667 2 -21.334 4.33301 -32.001 7l-18 4c-6 1.33301 -12.333 3 -19 5
c-35.333 9.33301 -67.833 24.833 -97.5 46.5s-44.5 59.167 -44.5 112.5c0 10 0.666992 20 2 30s3.33301 20.333 6 31c12 46 41 88.167 87 126.5s118 57.5 216 57.5c78.667 0 135.334 -12.167 170.001 -36.5s57.334 -51.166 68.001 -80.499
c4 -10.667 6.66699 -21.334 8 -32.001s2 -20.667 2 -30c0 -7.33301 -0.166992 -14.166 -0.5 -20.499s-1.16602 -11.833 -2.49902 -16.5h-96c0 1.33301 0.166992 2.83301 0.5 4.5s0.5 3.5 0.5 5.5v4.5v4.5c0 4 -0.166992 8.33301 -0.5 13s-1.16602 9 -2.49902 13
c-4 22 -17 42 -39 60s-60.333 27 -115 27c-60.667 0 -106.5 -12.333 -137.5 -37s-49.833 -52 -56.5 -82c-0.666992 -4 -1.16699 -7.83301 -1.5 -11.5s-0.5 -7.5 -0.5 -11.5c0 -31.333 10.833 -53.5 32.5 -66.5s53.5 -24.167 95.5 -33.5
c5.33301 -1.33301 10.833 -2.5 16.5 -3.5s11.5 -2.16699 17.5 -3.5c0.666992 0 1.5 -0.166992 2.5 -0.5s2.16699 -0.5 3.5 -0.5c3.33301 -0.666992 7 -1.5 11 -2.5s7.66699 -1.83301 11 -2.5c56.667 -11.333 107.5 -27.166 152.5 -47.499s67.5 -61.833 67.5 -124.5
c0 -15.333 -1.5 -32.666 -4.5 -51.999s-8.83301 -39 -17.5 -59c-17.333 -40.667 -49.333 -77.667 -96 -111s-118 -50 -214 -50c-14.667 0 -30.5 0.5 -47.5 1.5s-34.5 3.16699 -52.5 6.5c-41.333 8 -79.166 25.5 -113.499 52.5s-51.5 72.167 -51.5 135.5
c0 9.33301 0.5 18.666 1.5 27.999s2.16699 19 3.5 29v0z" />
    <glyph glyph-name="T" unicode="T" horiz-adv-x="608" 
d="M337 658h-241l18 84h581l-18 -84h-241l-139 -658h-100l140 658v0z" />
    <glyph glyph-name="U" unicode="U" horiz-adv-x="737" 
d="M176 742l98.9971 -0.00292969l-94 -442c-0.666992 -2 -1.16699 -3.83301 -1.5 -5.5s-0.5 -3.5 -0.5 -5.5c-1.33301 -5.33301 -2.5 -11.166 -3.5 -17.499s-2.16699 -12.5 -3.5 -18.5c-1.33301 -8 -2.33301 -16 -3 -24s-1 -15.667 -1 -23c0 -5.33301 0.5 -14.333 1.5 -27
s4.83301 -25.667 11.5 -39c8.66699 -18 23.834 -34.5 45.501 -49.5s54.5 -22.5 98.5 -22.5c77.333 0 133.333 20.333 168 61s59.667 97.667 75 171l94 442h99l-96 -455c-26.667 -127.333 -71.167 -209.166 -133.5 -245.499s-128.5 -54.833 -198.5 -55.5h-4.5h-4.5
c-11.333 0 -23.166 0.333008 -35.499 1s-24.833 1.66699 -37.5 3c-45.333 6 -87.166 22.333 -125.499 49s-57.5 75 -57.5 145c0 8.66699 0.333008 17.834 1 27.501l2 28.5l4 24l4 23l97 455v0z" />
    <glyph glyph-name="V" unicode="V" horiz-adv-x="624" 
d="M287 102l336 640h105l-403 -742h-126l-102 742h108l82 -640v0z" />
    <glyph glyph-name="W" unicode="W" horiz-adv-x="939" 
d="M540 624l-265 -624h-135l-43 742h110l26 -623l269 623h120l36 -623l269 623h116l-343 -742h-127l-33 624v0z" />
    <glyph glyph-name="X" unicode="X" horiz-adv-x="634" 
d="M325 313l-260 -313h-122l333 392l-174 350h118l138 -292l240 292h121l-314 -371l189 -371h-120l-149 313v0z" />
    <glyph glyph-name="Y" unicode="Y" horiz-adv-x="632" 
d="M346 403l272 339h118l-356 -433l-66 -309h-99l65 309l-183 433h112l137 -339v0z" />
    <glyph glyph-name="Z" unicode="Z" horiz-adv-x="630" 
d="M526 658h-393l18 84h530l-17 -80l-545 -578h444l-19 -84h-573l19 91l536 567v0z" />
    <glyph glyph-name="bracketleft" unicode="[" horiz-adv-x="392" 
d="M213 742h224l-14 -66h-130l-172 -806h130l-14 -66h-224l200 938v0z" />
    <glyph glyph-name="backslash" unicode="\" horiz-adv-x="701" 
d="M99 761l63 32l440 -821l-63 -32l-440 821v0z" />
    <glyph glyph-name="bracketright" unicode="]" horiz-adv-x="392" 
d="M157 742h224l-200 -938h-224l14 66h130l172 806h-130l14 66v0z" />
    <glyph glyph-name="asciicircum" unicode="^" horiz-adv-x="527" 
d="M165 742h196l107 -146h-78l-127 109l-126 -109h-78l106 146v0z" />
    <glyph glyph-name="underscore" unicode="_" horiz-adv-x="527" 
d="M0 -196v84h527v-84h-527v0z" />
    <glyph glyph-name="grave" unicode="`" horiz-adv-x="344" 
d="M288 742l45 -140h-82l-73 140h110v0z" />
    <glyph glyph-name="a" unicode="a" horiz-adv-x="588" 
d="M171 380h-88.999c1.33301 7.33301 3.16602 15 5.49902 23s5.16602 16 8.49902 24c13.333 31.333 37.833 60.166 73.5 86.499s90.5 39.5 164.5 39.5c72.667 0 122.5 -10.833 149.5 -32.5s42.167 -45.5 45.5 -71.5c0.666992 -3.33301 1.16699 -6.83301 1.5 -10.5
s0.5 -7.16699 0.5 -10.5c0 -7.33301 -0.5 -14.5 -1.5 -21.5s-2.16699 -13.5 -3.5 -19.5c-0.666992 -2 -1.16699 -3.66699 -1.5 -5s-0.5 -2.66602 -0.5 -3.99902l-58 -249c-1.33301 -6 -2.5 -11.667 -3.5 -17s-1.5 -10.333 -1.5 -15c0 -8.66699 2.33301 -15.834 7 -21.501
s13.334 -8.5 26.001 -8.5c1.33301 0 2.5 0.166992 3.5 0.5s2.16699 0.5 3.5 0.5s2.83301 0.166992 4.5 0.5s3.16699 0.5 4.5 0.5l-15 -69h-6h-6c-3.33301 -0.666992 -6.66602 -1.16699 -9.99902 -1.5s-6.66602 -0.5 -9.99902 -0.5h-4h-4c-25.333 0 -43.5 4.16699 -54.5 12.5
s-17.833 17.5 -20.5 27.5c-0.666992 2.66699 -1.16699 5.16699 -1.5 7.5s-0.5 4.83301 -0.5 7.5v12c-24.667 -27.333 -52.334 -47.833 -83.001 -61.5s-66 -20.5 -106 -20.5c-58.667 0 -100.667 9.33301 -126 28s-41.666 39.334 -48.999 62.001
c-2 7.33301 -3.5 14.5 -4.5 21.5s-1.5 13.833 -1.5 20.5c0 80 30.667 132 92 156s132.333 39.333 213 46c4 0 7.83301 0.166992 11.5 0.5s7.16699 0.833008 10.5 1.5c30.667 2 55.167 7.5 73.5 16.5s27.5 34.833 27.5 77.5c0 4 -0.333008 8.83301 -1 14.5
s-2.33398 11.167 -5.00098 16.5c-4.66699 11.333 -14 21.5 -28 30.5s-36.667 13.5 -68 13.5c-38.667 0 -68.834 -5.83301 -90.501 -17.5s-38.167 -24.5 -49.5 -38.5c-8 -10.667 -13.667 -21 -17 -31s-5.33301 -17 -6 -21v0zM398.001 230l9.99902 39.999l-0.5 -0.5
c-0.333008 -0.333008 -0.833008 -0.5 -1.5 -0.5c-7.33301 -5.33301 -15.333 -9 -24 -11s-21 -4 -37 -6c-2 0 -4 -0.166992 -6 -0.5s-4 -0.5 -6 -0.5c-1.33301 0 -2.66602 -0.166992 -3.99902 -0.5s-3 -0.5 -5 -0.5l-21 -2l-22 -2c-44 -4.66699 -84.5 -14.334 -121.5 -29.001
s-55.5 -45 -55.5 -91c0 -22.667 5.16699 -39.167 15.5 -49.5s21.5 -17.166 33.5 -20.499c8 -2.66699 15.5 -4.16699 22.5 -4.5s12.833 -0.5 17.5 -0.5c46 0 82.5 9.83301 109.5 29.5s47.5 41.5 61.5 65.5c10.667 16.667 18.5 32.834 23.5 48.501s8.5 27.5 10.5 35.5v0z" />
    <glyph glyph-name="b" unicode="b" horiz-adv-x="633" 
d="M177 742l94.002 -0.000976562l-55 -255c25.333 26.667 53.833 45.167 85.5 55.5s65.167 15.5 100.5 15.5c52.667 0 92.5 -10.667 119.5 -32s46.167 -45 57.5 -71c10 -22 15.833 -42.667 17.5 -62s2.5 -32 2.5 -38c0 -20 -1.5 -41.167 -4.5 -63.5
s-7.83301 -45.166 -14.5 -68.499c-16.667 -61.333 -47.5 -117.333 -92.5 -168s-108.5 -76 -190.5 -76c-48.667 0 -86.334 9.66699 -113.001 29s-46.334 41.333 -59.001 66h-3l-14 -74h-89l158 742v0zM164.002 271.999c-2.66699 -13.333 -5 -27 -7 -41s-3 -28 -3 -42
c0 -39.333 9.33301 -73 28 -101s50.334 -42 95.001 -42c65.333 0 115.666 23.667 150.999 71s58 99.333 68 156c2 11.333 3.5 22.833 4.5 34.5s1.5 23.167 1.5 34.5c0 8 -0.333008 17.667 -1 29s-2.66699 23 -6 35c-6 21.333 -17.667 41 -35 59s-45 27 -83 27
c-56 0 -102 -20.333 -138 -61s-61 -93.667 -75 -159v0z" />
    <glyph glyph-name="c" unicode="c" horiz-adv-x="583" 
d="M439 192l90.001 -0.000976562c-2.66699 -11.333 -6.5 -23.333 -11.5 -36s-10.833 -25.667 -17.5 -39c-18 -34 -45.667 -65 -83 -93s-89 -42 -155 -42c-75.333 0 -131.5 19.667 -168.5 59s-55.5 91.333 -55.5 156c0 16 1 32.5 3 49.5s5 34.167 9 51.5
c15.333 64.667 47 124.167 95 178.5s117 81.5 207 81.5c65.333 0 112.666 -11.167 141.999 -33.5s48.666 -46.5 57.999 -72.5c2.66699 -10 4.66699 -19.667 6 -29s2 -18 2 -26v-27h-88c-0.666992 40.667 -8.83398 69.5 -24.501 86.5s-33.167 27.833 -52.5 32.5
c-7.33301 1.33301 -14.666 2.33301 -21.999 3s-14 1 -20 1c-64 0 -113.667 -26.167 -149 -78.5s-56.666 -110.166 -63.999 -173.499c-1.33301 -8 -2.16602 -16.167 -2.49902 -24.5s-0.5 -16.5 -0.5 -24.5c0 -42 10.667 -76.667 32 -104s55.666 -41 102.999 -41
c10 0 21 1 33 3s24 5.66699 36 11c18.667 9.33301 36.667 24 54 44s32 49 44 87v0z" />
    <glyph glyph-name="d" unicode="d" horiz-adv-x="634" 
d="M564 742l94.001 -0.000976562l-158 -742h-88l12 58h-2c-18.667 -22 -43.334 -40.667 -74.001 -56s-68.334 -23 -113.001 -23c-10.667 0 -22.334 0.666992 -35.001 2s-25.667 4.33301 -39 9c-31.333 8.66699 -60.166 28.834 -86.499 60.501s-39.5 82.5 -39.5 152.5
c0 95.333 27.333 178.333 82 249s129.334 106 224.001 106c38 0 71.5 -6.5 100.5 -19.5s50.833 -36.167 65.5 -69.5l57 273v0zM140.001 258.999c-0.666992 -6 -1.5 -11.834 -2.5 -17.501s-1.5 -11.5 -1.5 -17.5c-0.666992 -6 -1.16699 -11.833 -1.5 -17.5
s-0.5 -11.5 -0.5 -17.5c0 -55.333 13.167 -93 39.5 -113s55.833 -30 88.5 -30c55.333 0 105.333 25.5 150 76.5s67 124.5 67 220.5c0 47.333 -11 84 -33 110s-53.333 39 -94 39c-54 0 -96.833 -18 -128.5 -54s-54.5 -75.667 -68.5 -119
c-3.33301 -10 -6.33301 -20.167 -9 -30.5s-4.66699 -20.166 -6 -29.499v0z" />
    <glyph glyph-name="e" unicode="e" horiz-adv-x="607" 
d="M441 156l93.002 0.000976562c-13.333 -38 -30.5 -68.167 -51.5 -90.5s-42.833 -39.833 -65.5 -52.5c-26 -12.667 -50.667 -20.667 -74 -24s-41 -5 -53 -5c-14 0 -30.5 0.5 -49.5 1.5s-38.833 3.83301 -59.5 8.5c-36 8.66699 -69 27.334 -99 56.001s-45 76 -45 142
c0 10.667 0.333008 21.334 1 32.001s1.66699 21.334 3 32.001c10 74.667 40.667 143.334 92 206.001s132 94 242 94c10.667 0 23 -0.666992 37 -2s28 -4.33301 42 -9c29.333 -8.66699 56.333 -26.334 81 -53.001s37 -68.334 37 -125.001c0 -6 -0.166992 -12 -0.5 -18
s-0.833008 -12.333 -1.5 -19l-2 -22.5c-0.666992 -7.66699 -1.33398 -14.834 -2.00098 -21.501l-3.5 -22.5l-2.5 -15.5h-421c-1.33301 -7.33301 -2.5 -15.833 -3.5 -25.5s-1.5 -19.834 -1.5 -30.501c0 -4.66699 0.166992 -9.33398 0.5 -14.001
s0.833008 -9.33398 1.5 -14.001c3.33301 -28.667 14.666 -55 33.999 -79s53 -36 101 -36c9.33301 0 22.333 0.833008 39 2.5s33.667 6.83398 51 15.501c15.333 6.66699 30 17.167 44 31.5s26 33.5 36 57.5v0zM155.002 314.001l320 -0.00195312
c1.33301 4.66699 2.16602 9.16699 2.49902 13.5s0.833008 8.83301 1.5 13.5c0.666992 4 1 8.16699 1 12.5v13.5c0 6.66699 -0.333008 14.834 -1 24.501s-2.66699 19.5 -6 29.5c-5.33301 18 -16.166 34.167 -32.499 48.5s-42.833 21.5 -79.5 21.5
c-60 0 -106.667 -18.167 -140 -54.5s-55 -76.166 -65 -119.499c-0.666992 -0.666992 -1 -1.16699 -1 -1.5v-1.5v0z" />
    <glyph glyph-name="f" unicode="f" horiz-adv-x="338" 
d="M381 539l-14 -65.999h-118l-100 -473h-93l100 473h-99l14 66h99l16 73c1.33301 7.33301 3.33301 15.5 6 24.5s6 17.833 10 26.5c10 20.667 26.5 39.667 49.5 57s58.167 26 105.5 26h11c4 0 8 -0.333008 12 -1c4 0 8.16699 -0.166992 12.5 -0.5s8.16602 -0.5 11.499 -0.5
c4.66699 -0.666992 8.83398 -1.16699 12.501 -1.5s6.16699 -0.5 7.5 -0.5l-14 -69c-2.66699 0.666992 -7.16699 1.16699 -13.5 1.5s-12.833 0.833008 -19.5 1.5c-6 0 -11.833 0.166992 -17.5 0.5s-10.167 0.5 -13.5 0.5c-18.667 0 -32.5 -5.33301 -41.5 -16
s-15.833 -22.334 -20.5 -35.001c-1.33301 -4 -2.5 -8 -3.5 -12s-1.83301 -7.66699 -2.5 -11l-14 -64h117v0z" />
    <glyph glyph-name="g" unicode="g" horiz-adv-x="637" 
d="M17 -60h91.998c0 -3.33301 0.833008 -8.33301 2.5 -15s4.83398 -13.334 9.50098 -20.001c6.66699 -10.667 18.5 -20.5 35.5 -29.5s42.167 -13.5 75.5 -13.5c8 0 20.667 1.16699 38 3.5s35.333 8.83301 54 19.5c18.667 11.333 36.667 28.333 54 51s30 54 38 94l8 39
c-26.667 -27.333 -54.5 -45.5 -83.5 -54.5s-61.167 -13.5 -96.5 -13.5c-8.66699 0 -21.834 1.16699 -39.501 3.5s-36.5 7.83301 -56.5 16.5c-26 12 -50 32.333 -72 61s-33 71 -33 127c0 92.667 25.333 174 76 244s121.334 105 212.001 105c52 0 92.333 -8.83301 121 -26.5
s48.334 -40.167 59.001 -67.5h3l14 75h90l-106 -495c-2.66699 -13.333 -6.33398 -29.666 -11.001 -48.999s-12 -39.333 -22 -60c-16.667 -34.667 -43.667 -66.5 -81 -95.5s-92.666 -43.5 -165.999 -43.5c-12 0 -26 0.333008 -42 1s-32.667 2.66699 -50 6
c-30.667 6 -58.667 19 -84 39s-38.333 53 -39 99v-1zM271.998 68c54.667 0 96.833 17.167 126.5 51.5s50.834 72.5 63.501 114.5c7.33301 22 12.333 43.333 15 64s4 39 4 55c0 38 -7 66.333 -21 85s-29 32 -45 40c-13.333 6 -26 9.5 -38 10.5s-20.333 1.5 -25 1.5
c-57.333 0 -102.5 -20.667 -135.5 -62s-55.167 -86.666 -66.5 -135.999c-2.66699 -14 -4.83398 -27.833 -6.50098 -41.5s-2.5 -26.834 -2.5 -39.501c0 -42 10.333 -76.333 31 -103s54 -40 100 -40v0z" />
    <glyph glyph-name="h" unicode="h" horiz-adv-x="609" 
d="M177 742l93.998 0.000976562l-56 -263c28.667 27.333 58.834 46.666 90.501 57.999s66.834 17 105.501 17c52.667 0 90.5 -12.833 113.5 -38.5s34.5 -56.167 34.5 -91.5c0 -5.33301 -0.166992 -10.833 -0.5 -16.5s-1.16602 -11.167 -2.49902 -16.5
c-0.666992 -5.33301 -1.5 -10.833 -2.5 -16.5s-2.16699 -11.167 -3.5 -16.5l-76 -358h-94l71 330c0.666992 4.66699 1.5 9.66699 2.5 15s2.16699 11 3.5 17c1.33301 8.66699 2.33301 17 3 25s1 14.667 1 20c0 26 -9.16699 44.833 -27.5 56.5s-39.5 17.5 -63.5 17.5
c-47.333 0 -83.833 -11 -109.5 -33s-44.834 -46 -57.501 -72c-8 -15.333 -14 -30.333 -18 -45s-7 -27 -9 -37l-63 -294h-94l158 742v0z" />
    <glyph glyph-name="i" unicode="i" horiz-adv-x="248" 
d="M134 539h95l-115 -539h-95l115 539v0zM153 644l21 98h101l-21 -98h-101v0z" />
    <glyph glyph-name="j" unicode="j" horiz-adv-x="248" 
d="M134 539h94.9971l-125 -589c-8 -36.667 -22.5 -70.667 -43.5 -102s-59.833 -47 -116.5 -47h-10.5c-3.66699 0 -7.16699 0.333008 -10.5 1c-3.33301 0 -6.66602 0.166992 -9.99902 0.5s-6.33301 0.5 -9 0.5c-4 0.666992 -7.66699 1.16699 -11 1.5s-6 0.5 -8 0.5l14 68
h12.5h10.5c30 0 50.5 7.5 61.5 22.5s18.833 31.5 23.5 49.5c0.666992 3.33301 1.33398 6.5 2.00098 9.5s1.33398 5.83301 2.00098 8.5l123 576v0zM152.997 644l21 98h101l-21 -98h-101v0z" />
    <glyph glyph-name="k" unicode="k" horiz-adv-x="556" 
d="M175 293l298 246h122l-254 -214l164 -325h-112l-130 272l-111 -89l-39 -183h-94l157 742h95l-96 -449v0z" />
    <glyph glyph-name="l" unicode="l" horiz-adv-x="248" 
d="M177 742h95l-158 -742h-95l158 742v0z" />
    <glyph glyph-name="m" unicode="m" horiz-adv-x="926" 
d="M133 539h90.001l-15 -65h3c8.66699 10 17.334 18.667 26.001 26s17.667 13.666 27 18.999c22.667 14 44.5 22.833 65.5 26.5s38.167 5.5 51.5 5.5c45.333 0 78.666 -8.66699 99.999 -26s35.333 -36.333 42 -57c0 -1.33301 0.333008 -2.66602 1 -3.99902
s1 -2.66602 1 -3.99902c22 29.333 50.667 51.833 86 67.5s74.333 23.5 117 23.5c43.333 0 78.5 -10.167 105.5 -30.5s40.5 -50.833 40.5 -91.5c0 -5.33301 -0.333008 -11.333 -1 -18l-2 -21l-2 -16c-0.666992 -5.33301 -1.33398 -10.333 -2.00098 -15
c0 -2 -0.166992 -3.83301 -0.5 -5.5s-0.833008 -3.5 -1.5 -5.5l-74 -348h-94l73 341c0.666992 2 1.16699 4.33301 1.5 7s0.833008 5.33398 1.5 8.00098c1.33301 6 2.33301 12.5 3 19.5l2 20.5v4v4c0 20 -5.33301 38.333 -16 55s-32.667 25 -66 25
c-6.66699 0 -18.5 -1.16699 -35.5 -3.5s-35.167 -9.5 -54.5 -21.5c-17.333 -10.667 -34 -26.834 -50 -48.501s-28 -51.5 -36 -89.5l-68 -321h-94l71 340l4 20.5c1.33301 7 2.33301 14.167 3 21.5c0 3.33301 0.166992 6.83301 0.5 10.5s0.5 7.16699 0.5 10.5
c0 21.333 -5.5 40.166 -16.5 56.499s-32.833 24.5 -65.5 24.5c-43.333 0 -80.833 -16.333 -112.5 -49s-52.167 -70.667 -61.5 -114l-68 -321h-94l114 539v0z" />
    <glyph glyph-name="n" unicode="n" horiz-adv-x="609" 
d="M134 539l91.998 0.000976562l-14 -60h3c28.667 27.333 58.834 46.666 90.501 57.999s66.834 17 105.501 17c52.667 0 90.5 -12.833 113.5 -38.5s34.5 -56.167 34.5 -91.5c0 -5.33301 -0.166992 -10.833 -0.5 -16.5s-1.16602 -11.167 -2.49902 -16.5
c-0.666992 -5.33301 -1.5 -10.833 -2.5 -16.5s-2.16699 -11.167 -3.5 -16.5l-76 -358h-94l71 330c0.666992 4.66699 1.5 9.66699 2.5 15s2.16699 11 3.5 17c1.33301 8.66699 2.33301 17 3 25s1 14.667 1 20c0 26 -9.16699 44.833 -27.5 56.5s-39.5 17.5 -63.5 17.5
c-47.333 0 -83.833 -11 -109.5 -33s-44.834 -46 -57.501 -72c-8 -15.333 -14 -30.333 -18 -45s-7 -27 -9 -37l-63 -294h-94l115 539v0z" />
    <glyph glyph-name="o" unicode="o" horiz-adv-x="621" 
d="M46 284c3.33301 15.333 8.33301 33.333 15 54s15.667 41.667 27 63c21.333 40 53.166 76.5 95.499 109.5s100.5 49.5 174.5 49.5c81.333 0 139.333 -21.333 174 -64s52 -97 52 -163c0 -19.333 -1.66699 -40.333 -5 -63s-9 -45.667 -17 -69
c-18.667 -55.333 -51.667 -106 -99 -152s-114.333 -69 -201 -69c-62.667 0 -109.5 11.833 -140.5 35.5s-52.833 50.167 -65.5 79.5c-8.66699 21.333 -14 41.833 -16 61.5s-3 34.167 -3 43.5c0 14 0.833008 28 2.5 42s3.83398 28 6.50098 42v0zM143 261l-4.00098 -30
c-1.33301 -10 -2 -20.333 -2 -31c0 -44.667 10.333 -81.667 31 -111s54 -44 100 -44c59.333 0 105.333 20.5 138 61.5s54.667 86.167 66 135.5c4 16 6.83301 31.833 8.5 47.5s2.5 30.5 2.5 44.5c0 44 -7 77 -21 99s-29.667 37.667 -47 47
c-13.333 6.66699 -26.166 10.667 -38.499 12s-20.833 2 -25.5 2c-46.667 0 -83.667 -12.5 -111 -37.5s-48.333 -52.833 -63 -83.5c-11.333 -23.333 -19.5 -45.5 -24.5 -66.5s-8.16699 -36.167 -9.5 -45.5v0z" />
    <glyph glyph-name="p" unicode="p" horiz-adv-x="634" 
d="M133 539l89.002 0.00195312l-17 -74h2c30.667 35.333 62.167 60.166 94.5 74.499s68.833 21.5 109.5 21.5c65.333 0 113 -19.5 143 -58.5s45 -89.167 45 -150.5c0 -14.667 -0.833008 -29.834 -2.5 -45.501s-4.16699 -31.167 -7.5 -46.5
c-14.667 -70 -45.834 -133.833 -93.501 -191.5s-113.167 -86.5 -196.5 -86.5c-50 0 -88.333 9.33301 -115 28s-45.334 41 -56.001 67l-58 -273h-93l156 735v0zM162.002 267.002c-2.66699 -11.333 -4.66895 -23.001 -6.00195 -35.001s-2 -24 -2 -36
c0 -5.33301 0.5 -14.833 1.5 -28.5s4.5 -28.5 10.5 -44.5c7.33301 -18.667 19.833 -36 37.5 -52s43.834 -24 78.501 -24c62.667 0 111.5 25.833 146.5 77.5s56.833 108.5 65.5 170.5c1.33301 10 2.33301 19.833 3 29.5s1 19.5 1 29.5c0 8 -0.5 16.833 -1.5 26.5
s-2.83301 19.834 -5.5 30.501c-6 20.667 -18 39.5 -36 56.5s-47.333 25.5 -88 25.5c-46.667 0 -88.667 -18.833 -126 -56.5s-63.666 -94.167 -78.999 -169.5v0z" />
    <glyph glyph-name="q" unicode="q" horiz-adv-x="633" 
d="M525 539l89.001 -0.000976562l-157 -735h-93l54 255c-10 -9.33301 -19.833 -17.666 -29.5 -24.999s-19.167 -14 -28.5 -20c-20 -11.333 -40.333 -19.5 -61 -24.5s-43.334 -7.5 -68.001 -7.5c-68.667 0 -118.167 20.667 -148.5 62s-45.5 91.333 -45.5 150
c0 97.333 27.5 182.833 82.5 256.5s129.5 110.5 223.5 110.5c38 0 68.5 -6.5 91.5 -19.5s40.833 -27.5 53.5 -43.5c4.66699 -5.33301 8.66699 -10.833 12 -16.5s6 -11.167 8 -16.5h3l14 74v0zM143.001 268.999c-2.66699 -13.333 -4.66602 -26.833 -5.99902 -40.5
s-2 -27.5 -2 -41.5c0 -46.667 10.5 -81.667 31.5 -105s50.833 -35 89.5 -35c56.667 0 108 27.5 154 82.5s69 128.5 69 220.5c0 41.333 -9.66699 75.5 -29 102.5s-50.666 40.5 -93.999 40.5c-58.667 0 -104.834 -21.167 -138.501 -63.5s-56.834 -88.833 -69.501 -139.5
c-1.33301 -3.33301 -2.33301 -6.83301 -3 -10.5l-2 -10.5v0z" />
    <glyph glyph-name="r" unicode="r" horiz-adv-x="392" 
d="M437 546l-17.999 -79.998c-6.66699 1.33301 -13 2.16602 -19 2.49902s-12 0.5 -18 0.5c-48.667 0 -87.334 -12.333 -116.001 -37s-50.667 -51.334 -66 -80.001c-10.667 -20.667 -18.667 -40.5 -24 -59.5s-9 -33.833 -11 -44.5l-52 -248h-94l114 539h90l-20 -88h3
c10 12.667 20 23.667 30 33s20 17.333 30 24c25.333 17.333 50.333 28 75 32s47.667 6 69 6h27v0z" />
    <glyph glyph-name="s" unicode="s" horiz-adv-x="533" 
d="M13 160l93.999 -0.00488281c-0.666992 -3.33301 -1.16699 -6.66602 -1.5 -9.99902s-0.5 -6.66602 -0.5 -9.99902c0 -25.333 11.333 -46.666 34 -63.999s54 -26 94 -26c46.667 0 82.5 11 107.5 33s37.5 47.667 37.5 77c0 26 -8.83301 43.667 -26.5 53
s-41.5 17.333 -71.5 24c-8 1.33301 -16.5 3 -25.5 5s-18.5 4 -28.5 6c-42 9.33301 -76 21.5 -102 36.5s-39 42.5 -39 82.5c0 8.66699 1.16699 21.167 3.5 37.5s7.83301 33.166 16.5 50.499c12.667 25.333 34.834 48.333 66.501 69s79.167 31 142.5 31
s108.833 -9.66699 136.5 -29s45.834 -40.666 54.501 -63.999c2.66699 -8 4.5 -15.833 5.5 -23.5s1.5 -15.167 1.5 -22.5v-9.5c0 -3 -0.333008 -6.16699 -1 -9.5h-92v13c0 26.667 -9.33301 46.5 -28 59.5s-43.334 19.5 -74.001 19.5h-4h-4
c-32.667 -1.33301 -62.334 -10.166 -89.001 -26.499s-40 -40.833 -40 -73.5c0 -25.333 10 -42.5 30 -51.5s44 -16.167 72 -21.5c5.33301 -1.33301 11.166 -2.66602 17.499 -3.99902l18.5 -4c3.33301 -0.666992 6.33301 -1.33398 9 -2.00098s5.66699 -1.33398 9 -2.00098
c46.667 -10.667 82.167 -23.834 106.5 -39.501s36.5 -43.5 36.5 -83.5c0 -53.333 -20.167 -99.166 -60.5 -137.499s-102.5 -57.5 -186.5 -57.5c-69.333 0 -119.666 10.833 -150.999 32.5s-51.666 45.834 -60.999 72.501c-2.66699 8.66699 -4.66699 17.334 -6 26.001
s-2 17 -2 25v9.5c0 3 0.333008 5.83301 1 8.5v0z" />
    <glyph glyph-name="t" unicode="t" horiz-adv-x="341" 
d="M72 539h94.002l34 159h96l-34 -159h115l-15 -66h-115l-72 -343c-0.666992 -2 -1.16699 -4.16699 -1.5 -6.5s-0.833008 -4.5 -1.5 -6.5l-2 -13.5c-0.666992 -4.33301 -1 -8.5 -1 -12.5c0 -10 3.16699 -18.333 9.5 -25s18.833 -10 37.5 -10h4h4c8.66699 0.666992 17 2 25 4
s15.333 4.33301 22 7c0.666992 0 1.66699 0.166992 3 0.5s2.33301 0.833008 3 1.5l-15 -69c-4 -0.666992 -7.83301 -1.5 -11.5 -2.5s-7.5 -2.16699 -11.5 -3.5c-11.333 -2.66699 -22.833 -4.66699 -34.5 -6s-23.834 -2 -36.501 -2c-24.667 0 -47.334 4.16699 -68.001 12.5
s-31 28.833 -31 61.5c0 8 0.5 15.5 1.5 22.5s2.16699 13.5 3.5 19.5c0.666992 1.33301 1.16699 2.83301 1.5 4.5s0.5 3.16699 0.5 4.5l76 362h-95l15 66v0z" />
    <glyph glyph-name="u" unicode="u" horiz-adv-x="609" 
d="M475 0l-91.9971 0.00292969l14 60h-3c-28.667 -26.667 -58.834 -45.667 -90.501 -57s-66.834 -17 -105.501 -17c-52.667 0 -90.5 12.667 -113.5 38s-34.5 55.666 -34.5 90.999c0 7.33301 0.333008 14.666 1 21.999s1.66699 14.666 3 21.999
c0.666992 3.33301 1.5 7 2.5 11s1.83301 7.66699 2.5 11l76 358h94l-71 -330c-0.666992 -4.66699 -1.5 -9.66699 -2.5 -15s-2.16699 -11 -3.5 -17c-1.33301 -8.66699 -2.33301 -17 -3 -25s-1 -14.667 -1 -20c0 -26 9.16699 -44.833 27.5 -56.5s39.5 -17.5 63.5 -17.5
c46.667 0 83 11 109 33s45.333 46 58 72c7.33301 15.333 13.166 30.333 17.499 45s7.5 27 9.5 37l63 294h94l-115 -539v0z" />
    <glyph glyph-name="v" unicode="v" horiz-adv-x="501" 
d="M215 93l239 446h108l-309 -539h-112l-87 539h100l61 -446v0z" />
    <glyph glyph-name="w" unicode="w" horiz-adv-x="765" 
d="M416 431l-195 -431h-106l-61 539h97l39 -432l192 432h103l26 -432l211 432h104l-274 -539h-112l-24 431v0z" />
    <glyph glyph-name="x" unicode="x" horiz-adv-x="513" 
d="M271 336l167 203h117l-241 -265l142 -274h-105l-105 222l-185 -222h-118l260 288l-131 251h103l96 -203v0z" />
    <glyph glyph-name="y" unicode="y" horiz-adv-x="528" 
d="M-3 -195l14.9961 69.001c1.33301 0.666992 3.66602 0.666992 6.99902 0s7 -1 11 -1c0.666992 -0.666992 1.66699 -1 3 -1h3c4.66699 -0.666992 8.83398 -1.16699 12.501 -1.5s6.83398 -0.5 9.50098 -0.5c24.667 0 44.334 7.66699 59.001 23s28.334 34.666 41.001 57.999
c0.666992 1.33301 1.5 2.83301 2.5 4.5s1.83301 3.5 2.5 5.5l21 39l-120 539h112l80 -422l225 422h104l-342 -603l-17.5 -29l-16.5 -26c-17.333 -26 -36 -45.833 -56 -59.5s-46.333 -20.5 -79 -20.5c-14.667 0 -28.667 0.333008 -42 1s-24.666 2 -33.999 4z" />
    <glyph glyph-name="z" unicode="z" horiz-adv-x="496" 
d="M108 539h403l-15 -69l-392 -404h321l-14 -66h-440l14 66l401 407h-293l15 66v0z" />
    <glyph glyph-name="braceleft" unicode="{" horiz-adv-x="527" 
d="M154 278l-0.000976562 69.998c26.667 2.66699 46.667 12 60 28s22.333 33.333 27 52c3.33301 12 5.33301 23.5 6 34.5s1 20.5 1 28.5v14.5c0 5 -0.333008 9.83301 -1 14.5c0 4.66699 -0.166992 9.5 -0.5 14.5s-0.5 9.83301 -0.5 14.5s-0.166992 9.33398 -0.5 14.001
s-0.5 9.33398 -0.5 14.001c-0.666992 4.66699 -1 9.33398 -1 14.001v14c0 67.333 16.833 113.333 50.5 138s70.834 38 111.501 40h1.5h1.5v-56c-18.667 -4.66699 -33 -11.667 -43 -21s-17.333 -19.333 -22 -30c-4.66699 -10 -7.33398 -19.667 -8.00098 -29
s-1 -16.333 -1 -21s0.166992 -9.33398 0.5 -14.001s0.5 -9.33398 0.5 -14.001c0 -1.33301 0.166992 -2.83301 0.5 -4.5s0.5 -3.16699 0.5 -4.5c0 -3.33301 0.166992 -6.5 0.5 -9.5s0.5 -6.16699 0.5 -9.5c0.666992 -4.66699 1.16699 -9.66699 1.5 -15s0.5 -10.333 0.5 -15
c0.666992 -5.33301 1 -10.5 1 -15.5v-15.5c0 -47.333 -9.5 -86.333 -28.5 -117s-50.167 -55.667 -93.5 -75v-8c43.333 -20 74.5 -45.167 93.5 -75.5s28.5 -69.166 28.5 -116.499v-15c0 -5.33301 -0.333008 -10.333 -1 -15c0 -5.33301 -0.166992 -10.5 -0.5 -15.5
s-0.833008 -10.167 -1.5 -15.5c0 -3.33301 -0.166992 -6.5 -0.5 -9.5s-0.5 -6.16699 -0.5 -9.5c0 -1.33301 -0.166992 -2.83301 -0.5 -4.5s-0.5 -3.16699 -0.5 -4.5c0 -4.66699 -0.166992 -9.33398 -0.5 -14.001s-0.5 -9.33398 -0.5 -14.001c0 -4 0.333008 -10.667 1 -20
s3.33398 -19 8.00098 -29c4.66699 -10.667 12 -20.667 22 -30s24.333 -16.333 43 -21v-57c-48.667 2.66699 -84.5 14.5 -107.5 35.5s-38.5 44.167 -46.5 69.5c-4.66699 13.333 -7.66699 26.333 -9 39s-2 24 -2 34v14c0 4.66699 0.333008 9.33398 1 14.001
c0 4.66699 0.166992 9.33398 0.5 14.001s0.5 9.33398 0.5 14.001s0.166992 9.5 0.5 14.5s0.5 9.83301 0.5 14.5c0.666992 4.66699 1 9.5 1 14.5v14.5c0 45.333 -7.33301 78.166 -22 98.499s-30.667 33.5 -48 39.5c-4 1.33301 -8 2.33301 -12 3l-12 2v0z" />
    <glyph glyph-name="bar" unicode="|" horiz-adv-x="526" 
d="M221 -196v1053h84v-1053h-84v0z" />
    <glyph glyph-name="braceright" unicode="}" horiz-adv-x="527" 
d="M373 348l0.000976562 -70h-2.5c-1 0 -2.16699 -0.333008 -3.5 -1c-22 -2.66699 -42.167 -14.667 -60.5 -36s-27.5 -56.666 -27.5 -105.999v-14.5c0 -5 0.333008 -9.83301 1 -14.5c0 -4.66699 0.166992 -9.5 0.5 -14.5s0.5 -9.83301 0.5 -14.5
s0.166992 -9.33398 0.5 -14.001s0.5 -9.33398 0.5 -14.001c0.666992 -4.66699 1 -9.33398 1 -14.001v-14c0 -61.333 -14.833 -104.666 -44.5 -129.999s-62.5 -40.333 -98.5 -45c-3.33301 -0.666992 -7 -1.16699 -11 -1.5s-7.66699 -0.5 -11 -0.5v55
c20 6 35.167 14.167 45.5 24.5s17.5 21.5 21.5 33.5c3.33301 8 5.33301 15.833 6 23.5s1 14.167 1 19.5v14c0 4.66699 -0.333008 9.33398 -1 14.001c0 4.66699 -0.166992 9.33398 -0.5 14.001s-0.833008 9.33398 -1.5 14.001c-0.666992 5.33301 -1.16699 10.5 -1.5 15.5
s-0.5 10.167 -0.5 15.5c-0.666992 4.66699 -1 9.66699 -1 15v15c0 47.333 9.5 86.166 28.5 116.499s50.167 55.5 93.5 75.5v8c-43.333 19.333 -74.5 44.333 -93.5 75s-28.5 69.667 -28.5 117v15.5c0 5 0.333008 10.167 1 15.5c0 4.66699 0.166992 9.66699 0.5 15
s0.833008 10.333 1.5 15s1.16699 9.33398 1.5 14.001s0.5 9.33398 0.5 14.001c0.666992 4.66699 1 9.33398 1 14.001v14c0 6 -0.333008 12.833 -1 20.5s-2.66699 15.5 -6 23.5c-4 12 -11.167 23.167 -21.5 33.5s-25.5 18.166 -45.5 23.499v56c9.33301 0 19.833 -1 31.5 -3
s23.5 -5.33301 35.5 -10c24.667 -9.33301 47.167 -26.333 67.5 -51s30.5 -62.667 30.5 -114v-14c0 -4.66699 -0.333008 -9.33398 -1 -14.001c0 -4.66699 -0.166992 -9.33398 -0.5 -14.001s-0.5 -9.33398 -0.5 -14.001s-0.166992 -9.5 -0.5 -14.5s-0.5 -9.83301 -0.5 -14.5
c-0.666992 -4.66699 -1 -9.5 -1 -14.5v-14.5c0 -40.667 6 -71 18 -91s25 -33.667 39 -41c6.66699 -4 13.167 -6.66699 19.5 -8s12.166 -2.33301 17.499 -3v0z" />
    <glyph glyph-name="asciitilde" unicode="~" horiz-adv-x="526" 
d="M378 742h73c-14 -41.333 -30.167 -70.666 -48.5 -87.999s-40.166 -26 -65.499 -26c-4 0 -8.16699 0.166992 -12.5 0.5s-8.5 0.833008 -12.5 1.5c-10.667 2 -21.667 5 -33 9l-38 14c-4.66699 2 -9 3.66699 -13 5l-12 4l-12.5 2c-4.33301 0.666992 -8.83301 1 -13.5 1
c-2.66699 0 -6.16699 -0.333008 -10.5 -1s-8.83301 -2.33398 -13.5 -5.00098c-3.33301 -2 -6.83301 -5 -10.5 -9s-6.83398 -9.33301 -9.50098 -16h-71c6 28.667 15.5 51 28.5 67s26.833 27.333 41.5 34c6.66699 3.33301 13.334 5.66602 20.001 6.99902s13 2 19 2
c14 0 28.667 -2.16699 44 -6.5s31.666 -10.166 48.999 -17.499l32 -11c8 -2.66699 15.333 -4 22 -4c10 0 18.333 2.66699 25 8s12 11 16 17c1.33301 2 2.5 4 3.5 6s1.83301 4 2.5 6v0z" />
    <glyph glyph-name="exclamdown" unicode="&#xa1;" horiz-adv-x="619" 
d="M346 296l266 446.003h111l-372 -610c-5.33301 -8.66699 -10.666 -16.834 -15.999 -24.501s-10.666 -14.834 -15.999 -21.501c-28 -37.333 -57 -62.833 -87 -76.5s-64 -20.5 -102 -20.5c-6.66699 0 -13.5 0.333008 -20.5 1l-20.5 2l-20.5 4l-20.5 4l19 87
c9.33301 -2.66699 19.666 -5.33398 30.999 -8.00098s23.333 -4 36 -4c21.333 0 43.666 6 66.999 18s48.333 42.333 75 91l-165 558h113l122 -446v0zM266 910.003l78.002 -0.000976562v-10c0 -26 8 -44.833 24 -56.5s36.667 -17.5 62 -17.5c4 0 7.83301 0.166992 11.5 0.5
s7.5 0.5 11.5 0.5c19.333 2.66699 38 10 56 22s32.333 32.333 43 61h78c-12 -36.667 -34.333 -69.167 -67 -97.5s-76.334 -42.5 -131.001 -42.5c-52 0 -90 9.33301 -114 28s-39.333 39.334 -46 62.001c-2.66699 6.66699 -4.33398 13.5 -5.00098 20.5s-1 13.5 -1 19.5v5.5
v4.5v0z" />
    <glyph glyph-name="cent" unicode="&#xa2;" horiz-adv-x="528" 
d="M-3 -195l14.9961 69.001c1.33301 0.666992 3.66602 0.666992 6.99902 0s7 -1 11 -1c0.666992 -0.666992 1.66699 -1 3 -1h3c4.66699 -0.666992 8.83398 -1.16699 12.501 -1.5s6.83398 -0.5 9.50098 -0.5c24.667 0 44.334 7.66699 59.001 23s28.334 34.666 41.001 57.999
c0.666992 1.33301 1.5 2.83301 2.5 4.5s1.83301 3.5 2.5 5.5l21 39l-120 539h112l80 -422l225 422h104l-342 -603l-17.5 -29l-16.5 -26c-17.333 -26 -36 -45.833 -56 -59.5s-46.333 -20.5 -79 -20.5c-14.667 0 -28.667 0.333008 -42 1s-24.666 2 -33.999 4zM182.996 742.001
l78 -0.00292969c-0.666992 -2 -1 -4.16699 -1 -6.5v-8.5c0 -3.33301 0.166992 -6.66602 0.5 -9.99902s1.16602 -6.66602 2.49902 -9.99902c3.33301 -12 11.166 -23.167 23.499 -33.5s32.5 -15.5 60.5 -15.5c30.667 0 56.834 7.5 78.501 22.5s35.834 35.5 42.501 61.5h79
c-11.333 -30.667 -25.5 -55.167 -42.5 -73.5s-34.5 -32.5 -52.5 -42.5c-20 -10.667 -39.5 -17.334 -58.5 -20.001s-33.833 -4 -44.5 -4c-56 0 -96 10.833 -120 32.5s-38.667 45.167 -44 70.5c-0.666992 4.66699 -1.16699 9.33398 -1.5 14.001s-0.5 9.33398 -0.5 14.001v4.5
v4.5v0z" />
    <glyph glyph-name="sterling" unicode="&#xa3;" horiz-adv-x="448" 
d="M26 0l25 115.997h105l-26 -121c-1.33301 -6.66699 -3 -14 -5 -22s-4.66699 -16 -8 -24c-7.33301 -21.333 -20 -41.666 -38 -60.999s-46.333 -34 -85 -44l11 57c21.333 5.33301 36.833 14.333 46.5 27s16.5 26 20.5 40c1.33301 4.66699 2.5 9.33398 3.5 14.001
s1.83301 9.33398 2.5 14.001l1 4h-53v0zM201 -0.00292969l25 115.997h105l-26 -121c-1.33301 -6.66699 -3 -14 -5 -22s-4.33301 -16 -7 -24c-8 -21.333 -21 -41.666 -39 -60.999s-46.667 -34 -86 -44l12 57c21.333 5.33301 36.833 14.333 46.5 27s16.5 26 20.5 40
c1.33301 4.66699 2.5 9.33398 3.5 14.001s1.83301 9.33398 2.5 14.001l1 4h-53v0z" />
    <glyph glyph-name="currency" unicode="&#xa4;" horiz-adv-x="875" 
d="M70 56l118 118.002l-11 17c-4.66699 7.33301 -9.33398 16 -14.001 26c-8 16 -15.167 35.167 -21.5 57.5s-9.5 47.5 -9.5 75.5s3.16699 53.167 9.5 75.5s13.5 41.5 21.5 57.5c4.66699 10 9.33398 18.667 14.001 26l11 17l-118 118l70 70l117 -118
c7.33301 6 14.833 11.333 22.5 16s15.167 9 22.5 13c24.667 12.667 48.834 21 72.501 25s44.5 6 62.5 6s38.833 -2 62.5 -6s47.834 -12.333 72.501 -25c7.33301 -4 14.833 -8.33301 22.5 -13s15.167 -10 22.5 -16l118 118l70 -70l-118 -118
c3.33301 -4 7.16602 -9.5 11.499 -16.5s8.83301 -15.167 13.5 -24.5c7.33301 -16 14.333 -35.333 21 -58s10 -48.334 10 -77.001s-3.33301 -54.334 -10 -77.001s-13.667 -42 -21 -58c-4.66699 -9.33301 -9.16699 -17.5 -13.5 -24.5s-8.16602 -12.5 -11.499 -16.5l118 -118
l-70 -70l-118 118c-7.33301 -6 -14.833 -11.333 -22.5 -16s-15.167 -9 -22.5 -13c-24.667 -12.667 -48.834 -21 -72.501 -25s-44.5 -6 -62.5 -6s-38.833 2 -62.5 6s-47.834 12.333 -72.501 25c-7.33301 4 -14.833 8.33301 -22.5 13s-15.167 10 -22.5 16l-117 -118l-70 70v0z
M211 350.002c0 -62.667 22.3311 -116.166 66.998 -160.499s97.667 -66.5 159 -66.5c63.333 0 117 22.667 161 68s66 98.333 66 159c0 62.667 -22.667 116.167 -68 160.5s-98.333 66.5 -159 66.5c-8.66699 0 -17.667 -0.666992 -27 -2s-18.666 -3 -27.999 -5
c-11.333 -3.33301 -22.833 -7.5 -34.5 -12.5s-22.834 -10.833 -33.501 -17.5c-15.333 -10.667 -28.666 -21.834 -39.999 -33.501s-20.666 -23.5 -27.999 -35.5c-15.333 -23.333 -25 -46 -29 -68s-6 -39.667 -6 -53v0z" />
    <glyph glyph-name="yen" unicode="&#xa5;" horiz-adv-x="577" 
d="M272 658l-139 -658h-100l158 742h378l35 168h87l-46 -252h-373v0z" />
    <glyph glyph-name="brokenbar" unicode="&#xa6;" horiz-adv-x="526" 
d="M221 -196v1053h84v-1053h-84v0z" />
    <glyph glyph-name="section" unicode="&#xa7;" horiz-adv-x="616" 
d="M544 590l-78 0.000976562c0 1.33301 0.333008 3.83301 1 7.5l2 11.5c0.666992 0.666992 1 1.16699 1 1.5v1.5l2 12c0.666992 4 1 7 1 9c0 2.66699 -0.166992 5.66699 -0.5 9s-0.833008 6.33301 -1.5 9c-3.33301 12 -10.333 23 -21 33s-27.334 15 -50.001 15
c-30 0 -53.667 -8.83301 -71 -26.5s-26 -39.167 -26 -64.5c0 -16 3.16699 -29.5 9.5 -40.5s17.166 -21.167 32.499 -30.5c8 -5.33301 17 -10.333 27 -15l34 -16c1.33301 -0.666992 2.5 -1.16699 3.5 -1.5s2.16699 -0.833008 3.5 -1.5c46.667 -21.333 82.334 -44 107.001 -68
s37 -56.333 37 -97c0 -53.333 -16.333 -99.833 -49 -139.5s-73 -65.167 -121 -76.5c12 -5.33301 21.667 -13.833 29 -25.5s12.333 -23.834 15 -36.501c0.666992 -3.33301 1.16699 -6.66602 1.5 -9.99902s0.5 -6.66602 0.5 -9.99902c0 -6.66699 -0.333008 -13.334 -1 -20.001
s-1.66699 -13.334 -3 -20.001c-7.33301 -38 -26.5 -72.833 -57.5 -104.5s-77.167 -47.5 -138.5 -47.5c-57.333 0 -97.5 11.333 -120.5 34s-36.5 48 -40.5 76c-0.666992 4 -1.16699 8.33301 -1.5 13s-0.5 9 -0.5 13c0 9.33301 0.666992 18.5 2 27.5s3 16.833 5 23.5l77 -1
c-1.33301 -5.33301 -2.33301 -10.833 -3 -16.5s-1 -11.5 -1 -17.5v-0.5v-1.5c0.666992 -20 7.16699 -38.333 19.5 -55s33.5 -25 63.5 -25c28 0 49.333 6.33301 64 19s25.334 26.334 32.001 41.001c3.33301 8 5.66602 15.667 6.99902 23s2 14 2 20
c0 21.333 -7.5 37.666 -22.5 48.999s-31.167 21 -48.5 29c-2.66699 0.666992 -5.16699 1.5 -7.5 2.5s-4.5 2.16699 -6.5 3.5c-1.33301 0.666992 -2.5 1.16699 -3.5 1.5s-2.16699 0.833008 -3.5 1.5c-2 0.666992 -3.83301 1.5 -5.5 2.5s-3.5 1.83301 -5.5 2.5
s-3.83301 1.5 -5.5 2.5s-3.5 1.83301 -5.5 2.5c-36 16 -69.167 35.833 -99.5 59.5s-45.5 61.5 -45.5 113.5c0 58 16.833 105.167 50.5 141.5s70.834 58.833 111.501 67.5c0.666992 0.666992 1.16699 1 1.5 1h1.5c-2.66699 2.66699 -5.16699 5.33398 -7.5 8.00098
s-4.5 5.33398 -6.5 8.00098c-8 11.333 -13.667 22.833 -17 34.5s-5 26.167 -5 43.5c0 57.333 19.5 100.666 58.5 129.999s83.833 44 134.5 44c47.333 0 81.833 -8 103.5 -24s35.834 -33.333 42.501 -52c2 -7.33301 3.5 -14.5 4.5 -21.5s1.5 -13.5 1.5 -19.5
c0 -4.66699 -0.333008 -9.83398 -1 -15.501l-2 -17.5l-2 -10c-0.666992 -3.33301 -1.33398 -6.33301 -2.00098 -9c0 -2 -0.166992 -3.83301 -0.5 -5.5s-0.833008 -3.16699 -1.5 -4.5v0zM330 159.001c34.667 10.667 65.666 30.6689 92.999 60.002s41 63.666 41 102.999
c0 12 -2.16699 23.5 -6.5 34.5s-12.166 21.833 -23.499 32.5c-12 11.333 -28.667 23 -50 35s-49 24.667 -83 38c-32.667 -9.33301 -62.167 -27 -88.5 -53s-39.5 -58.667 -39.5 -98c0 -24.667 3.66699 -43.834 11 -57.501s19.666 -26.5 36.999 -38.5
c12.667 -8 27.834 -16.333 45.501 -25l63.5 -31v0z" />
    <glyph glyph-name="dieresis" unicode="&#xa8;" horiz-adv-x="649" 
d="M223 425h389l-18 -84h-389l-54 -257h441l-18 -84h-541l158 742h529l-19 -84h-429l-49 -233v0zM315 818l17 84h100l-18 -84h-99v0zM543 818l18 84h99l-18 -84h-99v0z" />
    <glyph glyph-name="copyright" unicode="&#xa9;" horiz-adv-x="854" 
d="M78 371c0 100.667 35.833 187.667 107.5 261s159.5 110 263.5 110c100 0 186.833 -35.833 260.5 -107.5s110.5 -159.5 110.5 -263.5c0 -100.667 -36 -187.667 -108 -261s-159.667 -110 -263 -110c-104 -0 -191.833 36.833 -263.5 110.5s-107.5 160.5 -107.5 260.5v0z
M148 371c0 -84.667 28.833 -158.334 86.5 -221.001s129.167 -94 214.5 -94s156.833 31.167 214.5 93.5s86.5 136.166 86.5 221.499c0 88.667 -29.667 163.334 -89 224.001s-130 91 -212 91c-84.667 0 -156 -31.167 -214 -93.5s-87 -136.166 -87 -221.499v0zM586 315
c-0.666992 -2 -1.16602 -4.16699 -1.49902 -6.5s-0.833008 -4.5 -1.5 -6.5c-8.66699 -30 -26.667 -57.5 -54 -82.5s-62.333 -37.5 -105 -37.5c-45.333 0 -83 10.333 -113 31s-45 52 -45 94c0 9.33301 0.333008 19 1 29s2 19.667 4 29c8 52 27.833 99.333 59.5 142
s78.167 64 139.5 64c48.667 0 82.5 -8.66699 101.5 -26s30.167 -36.333 33.5 -57c0.666992 -3.33301 1.16699 -6.83301 1.5 -10.5s0.5 -7.16699 0.5 -10.5v-8.5c0 -3 -0.333008 -6.16699 -1 -9.5h-66c0.666992 2.66699 1.16699 5.16699 1.5 7.5s0.5 4.83301 0.5 7.5
c0 14 -5.83301 26.5 -17.5 37.5s-30.834 16.5 -57.501 16.5c-37.333 0 -66 -15.167 -86 -45.5s-32.667 -63.833 -38 -100.5c-1.33301 -8.66699 -2.33301 -17 -3 -25s-1 -16 -1 -24c0 -25.333 5.33301 -44.166 16 -56.499s22.667 -20.833 36 -25.5
c6.66699 -2.66699 13.167 -4.33398 19.5 -5.00098s11.833 -1 16.5 -1c22 0 39.667 6.33301 53 19s23.333 26.334 30 41.001l4 10c1.33301 3.33301 2.33301 6.66602 3 9.99902h69v0z" />
    <glyph glyph-name="ordfeminine" unicode="&#xaa;" horiz-adv-x="775" 
d="M612 246l103.998 0.000976562l-6 -18.5l-6 -18.5c-22.667 -58.667 -60.167 -112.5 -112.5 -161.5s-127.833 -73.5 -226.5 -73.5c-83.333 0 -146.166 15.667 -188.499 47s-72.166 66 -89.499 104c-13.333 29.333 -21.5 57.333 -24.5 84s-4.5 45.667 -4.5 57
c0 20 1 40.667 3 62s5.33301 43 10 65c19.333 92.667 62 177.834 128 255.501s160.667 116.5 284 116.5c89.333 0 154 -15.167 194 -45.5s65.667 -63.5 77 -99.5c3.33301 -12 5.83301 -23.833 7.5 -35.5s2.5 -22.834 2.5 -33.501c0 -6.66699 -0.166992 -13.334 -0.5 -20.001
s-1.16602 -12.667 -2.49902 -18h-102c0 2 0.166992 4.16699 0.5 6.5s0.5 4.5 0.5 6.5c0.666992 2 1 4.16699 1 6.5v6.5v2.5v3.5c-1.33301 34 -15.333 65.167 -42 93.5s-73 42.5 -139 42.5c-62 0 -112.333 -15.333 -151 -46s-69 -64.334 -91 -101.001
c-12 -20 -21.833 -39.667 -29.5 -59s-13.5 -36 -17.5 -50l366 -1l-17 -84h-368c-1.33301 -9.33301 -2.5 -19.166 -3.5 -29.499s-1.5 -20.833 -1.5 -31.5v-11.5c0 -3.66699 0.333008 -7.5 1 -11.5c3.33301 -49.333 19.666 -94.666 48.999 -135.999s80 -62 152 -62
c52.667 0 95.334 11.167 128.001 33.5s58 47.166 76 74.499c10 14.667 18.167 29 24.5 43s11.166 26.333 14.499 37v0z" />
    <glyph glyph-name="guillemotleft" unicode="&#xab;" horiz-adv-x="503" 
d="M80 332l188 140l-20 -95l-129 -94l89 -91l-18 -85l-129 138l19 87v0zM276 332l188 140l-20 -95l-129 -94l89 -91l-18 -85l-129 138l19 87v0z" />
    <glyph glyph-name="logicalnot" unicode="&#xac;" horiz-adv-x="644" 
d="M77 399h532v-156h-60v100h-472v56v0z" />
    <glyph glyph-name="sfthyphen" unicode="&#xad;" horiz-adv-x="500" 
 />
    <glyph glyph-name="registered" unicode="&#xae;" horiz-adv-x="854" 
d="M78 371c0 104 36.5 191.833 109.5 263.5s160.167 107.5 261.5 107.5c100 0 186.833 -35.833 260.5 -107.5s110.5 -159.5 110.5 -263.5c0 -100.667 -36 -187.667 -108 -261s-159.667 -110 -263 -110c-102 0 -189.333 36 -262 108s-109 159.667 -109 263v0zM148 371
c0 -84.667 28.833 -158.335 86.5 -221.002s129.167 -94 214.5 -94c84 0 155.167 31.333 213.5 94s87.5 136.334 87.5 221.001c0 86 -29.333 160 -88 222s-129.667 93 -213 93c-84.667 0 -156 -31.167 -214 -93.5s-87 -136.166 -87 -221.499v0zM276 188.999l78.0029 370.998
h130c38.667 0 71.334 -5 98.001 -15s40 -33.333 40 -70c0 -23.333 -5.33301 -42.166 -16 -56.499s-22.667 -25.833 -36 -34.5c-6 -3.33301 -11.833 -6.33301 -17.5 -9s-10.834 -5 -15.501 -7v-1c2 -0.666992 4.16699 -1.5 6.5 -2.5s4.83301 -2.16699 7.5 -3.5
c6 -3.33301 11.667 -8.66602 17 -15.999s8 -17.333 8 -30c0 -3.33301 -0.5 -8.5 -1.5 -15.5s-2.16699 -14.5 -3.5 -22.5c0 -1.33301 -0.166992 -2.66602 -0.5 -3.99902s-0.5 -2.33301 -0.5 -3l-3.5 -20c-1 -6 -1.83301 -10 -2.5 -12
c-0.666992 -5.33301 -1.5 -10.166 -2.5 -14.499s-1.5 -8.16602 -1.5 -11.499c0 -2 0.166992 -4 0.5 -6s0.833008 -3.66699 1.5 -5c0.666992 -2 1.5 -4 2.5 -6s2.16699 -4 3.5 -6h-71c-0.666992 2 -1.33398 3.83301 -2.00098 5.5s-1.33398 3.16699 -2.00098 4.5
s-1 2.83301 -1 4.5v5.5v4.5c0 1.66699 0.333008 3.5 1 5.5v6v7c0 7.33301 0.5 14.166 1.5 20.499s2.16699 12.166 3.5 17.499s2.5 10.666 3.5 15.999s1.5 10.333 1.5 15c0 20.667 -6.33301 32.667 -19 36s-29.334 5 -50.001 5h-57l-32 -153h-69v0zM412.003 508.997
l-25.001 -115.999h80c23.333 0 40.833 4.66699 52.5 14s19.834 19.666 24.501 30.999c2 4.66699 3.33301 9.5 4 14.5s1 9.5 1 13.5c0 14 -4.5 24 -13.5 30s-19.167 9.66699 -30.5 11c-3.33301 0.666992 -6.83301 1.16699 -10.5 1.5s-7.16699 0.5 -10.5 0.5h-72v0z" />
    <glyph glyph-name="overstore" unicode="&#xaf;" 
 />
    <glyph glyph-name="degree" unicode="&#xb0;" horiz-adv-x="281" 
d="M118 641c0 29.333 10.166 53.332 30.499 71.999s42.833 28.334 67.5 29.001h1.5h1.5c28.667 0 52.834 -10.167 72.501 -30.5s29.5 -43.833 29.5 -70.5s-10 -50.334 -30 -71.001s-44 -31 -72 -31c-27.333 0 -51 9.83301 -71 29.5s-30 43.834 -30 72.501v0z
M166.999 640.999c0 -15.333 5.16699 -28 15.5 -38s22.5 -15 36.5 -15c15.333 0 28 5.16699 38 15.5s15 22.833 15 37.5c0 14 -5 26.167 -15 36.5s-22.667 15.5 -38 15.5c-14.667 0 -27 -5.16699 -37 -15.5s-15 -22.5 -15 -36.5v0z" />
    <glyph glyph-name="plusminus" unicode="&#xb1;" horiz-adv-x="644" 
d="M77 56v56h532v-56h-532v0zM371 175h-56v147h-238v56h238v185h56v-185h238v-56h-238v-147v0z" />
    <glyph glyph-name="twosuperior" unicode="&#xb2;" horiz-adv-x="280" 
d="M191 742h99l-158 -742h-99l158 742v0zM193 819l20 98h129l-21 -98h-128v0z" />
    <glyph glyph-name="threesuperior" unicode="&#xb3;" horiz-adv-x="248" 
d="M134 539h95l-115 -539h-95l115 539v0zM153 644l21 98h101l-21 -98h-101v0z" />
    <glyph glyph-name="acute" unicode="&#xb4;" horiz-adv-x="412" 
d="M282 742h119l-132 -140h-91l104 140v0z" />
    <glyph glyph-name="mu" unicode="&#xb5;" horiz-adv-x="460" 
d="M214 473l-100 -473h-95l114 539h283l30 140h79l-36 -206h-275v0z" />
    <glyph glyph-name="paragraph" unicode="&#xb6;" horiz-adv-x="526" 
d="M217 -196l-0.00292969 588c-51.333 1.33301 -91.666 17.5 -120.999 48.5s-46.666 64.833 -51.999 101.5c-0.666992 4 -1.16699 8.16699 -1.5 12.5s-0.5 8.5 -0.5 12.5v7c0 2.66699 0.333008 5 1 7c2.66699 39.333 18.834 75.5 48.501 108.5s71.5 50.5 125.5 52.5h84v-938
h-84v0zM370.997 -196v938h84v-938h-84v0z" />
    <glyph glyph-name="middot" unicode="&#xb7;" 
 />
    <glyph glyph-name="cedilla" unicode="&#xb8;" horiz-adv-x="607" 
d="M441 156l93.002 0.000976562c-13.333 -38 -30.5 -68.167 -51.5 -90.5s-42.833 -39.833 -65.5 -52.5c-26 -12.667 -50.667 -20.667 -74 -24s-41 -5 -53 -5c-14 0 -30.5 0.5 -49.5 1.5s-38.833 3.83301 -59.5 8.5c-36 8.66699 -69 27.334 -99 56.001s-45 76 -45 142
c0 10.667 0.333008 21.334 1 32.001s1.66699 21.334 3 32.001c10 74.667 40.667 143.334 92 206.001s132 94 242 94c10.667 0 23 -0.666992 37 -2s28 -4.33301 42 -9c29.333 -8.66699 56.333 -26.334 81 -53.001s37 -68.334 37 -125.001c0 -6 -0.166992 -12 -0.5 -18
s-0.833008 -12.333 -1.5 -19l-2 -22.5c-0.666992 -7.66699 -1.33398 -14.834 -2.00098 -21.501l-3.5 -22.5l-2.5 -15.5h-421c-1.33301 -7.33301 -2.5 -15.833 -3.5 -25.5s-1.5 -19.834 -1.5 -30.501c0 -4.66699 0.166992 -9.33398 0.5 -14.001
s0.833008 -9.33398 1.5 -14.001c3.33301 -28.667 14.666 -55 33.999 -79s53 -36 101 -36c9.33301 0 22.333 0.833008 39 2.5s33.667 6.83398 51 15.501c15.333 6.66699 30 17.167 44 31.5s26 33.5 36 57.5v0zM155.002 314.001l320 -0.00195312
c1.33301 4.66699 2.16602 9.16699 2.49902 13.5s0.833008 8.83301 1.5 13.5c0.666992 4 1 8.16699 1 12.5v13.5c0 6.66699 -0.333008 14.834 -1 24.501s-2.66699 19.5 -6 29.5c-5.33301 18 -16.166 34.167 -32.499 48.5s-42.833 21.5 -79.5 21.5
c-60 0 -106.667 -18.167 -140 -54.5s-55 -76.166 -65 -119.499c-0.666992 -0.666992 -1 -1.16699 -1 -1.5v-1.5v0zM208.002 643.999l21 98h98l-21 -98h-98v0zM460.002 643.999l21 98h98l-21 -98h-98v0z" />
    <glyph glyph-name="onesuperior" unicode="&#xb9;" horiz-adv-x="1180" 
d="M256 581l-124 -581h-99l158 742h98l274 -581l124 581h99l-158 -742h-98l-274 581v0zM726 0l16 78h322l-16 -78h-322v0zM789 363c0.666992 3.33301 1.33203 6.49805 1.99902 9.49805s1.33398 5.83301 2.00098 8.5c12 44.667 34 85.667 66 123s76.333 56 133 56
c6 0 15.833 -0.666992 29.5 -2s28.167 -5.33301 43.5 -12c20 -8 38.167 -22.333 54.5 -43s24.5 -52 24.5 -94c0 -61.333 -13.5 -110.166 -40.5 -146.499s-56.5 -62.166 -88.5 -77.499c-14 -6.66699 -27.833 -11.667 -41.5 -15s-26.167 -5 -37.5 -5c-6 0 -16 0.666992 -30 2
s-28.667 5.66602 -44 12.999c-20 8.66699 -38.167 23.334 -54.5 44.001s-24.5 51.667 -24.5 93c0 8 0.666992 15.833 2 23.5l4 22.5v0zM870.998 360.998c-0.666992 -2.66699 -1.16797 -5.5 -1.50098 -8.5s-0.833008 -5.83301 -1.5 -8.5c0 -2.66699 -0.166992 -5.5 -0.5 -8.5
s-0.5 -5.83301 -0.5 -8.5c0 -30 4.83301 -51.5 14.5 -64.5s20.167 -21.833 31.5 -26.5c5.33301 -1.33301 10.333 -2.33301 15 -3s9 -1 13 -1c30 0 57.5 15.5 82.5 46.5s37.5 71.167 37.5 120.5c0 27.333 -4 47.5 -12 60.5s-17 21.833 -27 26.5
c-7.33301 3.33301 -14.166 5.33301 -20.499 6s-11.166 1 -14.499 1c-25.333 0 -45.833 -7.83301 -61.5 -23.5s-27.834 -32.5 -36.501 -50.5c-4.66699 -11.333 -8.5 -22 -11.5 -32s-5.16699 -18.667 -6.5 -26v0z" />
    <glyph glyph-name="ordmasculine" unicode="&#xba;" horiz-adv-x="580" 
d="M437 192l89.999 -0.000976562c-17.333 -51.333 -38.166 -91.166 -62.499 -119.499s-49.5 -49.5 -75.5 -63.5c-24 -11.333 -47.333 -18.666 -70 -21.999s-42.334 -5 -59.001 -5c-76 0 -132.333 19.667 -169 59s-55 91.333 -55 156c0 19.333 1.66699 40.666 5 63.999
s9 47 17 71c18.667 56.667 51 108.5 97 155.5s111 70.5 195 70.5c69.333 0 121.333 -14.667 156 -44s52 -61.666 52 -96.999v-47h-88v26v6c0 2 -0.333008 4 -1 6c-2.66699 21.333 -13.667 40.833 -33 58.5s-47.666 26.5 -84.999 26.5c-12 0 -26.833 -1.83301 -44.5 -5.5
s-36.167 -12.167 -55.5 -25.5c-18 -12 -35.667 -29.833 -53 -53.5s-32 -55.5 -44 -95.5h242l-14 -66h-243c-0.666992 -6.66699 -1.33398 -14.334 -2.00098 -23.001s-1 -17.667 -1 -27c0 -4.66699 0.166992 -9.66699 0.5 -15s0.833008 -10.333 1.5 -15
c3.33301 -30 13.833 -57.5 31.5 -82.5s48.834 -37.5 93.501 -37.5c48.667 0 86.667 14.5 114 43.5s47.333 62.833 60 101.5v0z" />
    <glyph glyph-name="guillemotright" unicode="&#xbb;" horiz-adv-x="500" 
d="M233 244l-188 -140l20 95l128 94l-89 92l18 85l129 -138l-18 -88v0zM429 244l-188 -140l20 95l128 94l-89 92l18 85l129 -138l-18 -88v0z" />
    <glyph glyph-name="onequarter" unicode="&#xbc;" horiz-adv-x="644" 
d="M280 170c0 17.333 5.00098 31.1699 15.001 41.5029s21.333 16.833 34 19.5c2 0.666992 4.33301 1.16699 7 1.5s5 0.5 7 0.5c17.333 0 32 -6.33301 44 -19s18 -27.334 18 -44.001c0 -2.66699 -0.166992 -5.33398 -0.5 -8.00098s-0.833008 -5.33398 -1.5 -8.00098
c-3.33301 -11.333 -10 -21.833 -20 -31.5s-23.333 -14.5 -40 -14.5c-18.667 0 -33.834 6.16699 -45.501 18.5s-17.5 26.833 -17.5 43.5v0zM77.001 322.004v56h532v-56h-532v0zM280.001 530.004c0 17.333 5.83301 32.0039 17.5 44.0039s26.834 18 45.501 18
c16.667 0 30 -4.83301 40 -14.5s16.667 -20.167 20 -31.5c0.666992 -2.66699 1.16699 -5.33398 1.5 -8.00098s0.5 -5.33398 0.5 -8.00098s-0.166992 -5.33398 -0.5 -8.00098s-0.833008 -5.33398 -1.5 -8.00098c-3.33301 -11.333 -10 -21.833 -20 -31.5
s-23.333 -14.5 -40 -14.5c-18.667 0 -33.834 6.16699 -45.501 18.5s-17.5 26.833 -17.5 43.5v0z" />
    <glyph glyph-name="onehalf" unicode="&#xbd;" horiz-adv-x="742" 
d="M150 168l203 203l-203 203l39 39l203 -202l203 202l40 -39l-203 -203l203 -203l-40 -39l-203 202l-203 -202l-39 39v0z" />
    <glyph glyph-name="threequarters" unicode="&#xbe;" horiz-adv-x="987" 
d="M55 0l24 116h105l-24 -116h-105v0zM384 0l24 116h105l-24 -116h-105v0zM713 0l24 116h105l-24 -116h-105v0z" />
    <glyph glyph-name="questiondown" unicode="&#xbf;" horiz-adv-x="307" 
d="M164 539h95l-115 -539h-95l115 539v0zM110 644l21 98h98l-21 -98h-98v0zM259 644l21 98h98l-21 -98h-98v0z" />
    <glyph glyph-name="Agrave" unicode="&#xc0;" horiz-adv-x="665" 
d="M164 192l-111 -192h-104l431 742h108l123 -742h-103l-30 192h-314v0zM209 276h259l-52 365l-207 -365v0z" />
    <glyph glyph-name="Agrave" unicode="&#x410;" horiz-adv-x="665" 
d="M164 192l-111 -192h-104l431 742h108l123 -742h-103l-30 192h-314v0zM209 276h259l-52 365l-207 -365v0z" />
    <glyph glyph-name="Aacute" unicode="&#xc1;" horiz-adv-x="710" 
d="M272 658l-47.001 -221.999h215c11.333 0 23.333 -0.333008 36 -1s25.667 -2.33398 39 -5.00098c36.667 -6.66699 70.334 -22.5 101.001 -47.5s46 -68.167 46 -129.5c0 -73.333 -19.667 -128.333 -59 -165s-82.333 -61.667 -129 -75c-18.667 -4.66699 -37 -8 -55 -10
s-34.667 -3 -50 -3h-336l158 742h527l-19 -84h-427v0zM206.999 352.001l-56.998 -268h209c59.333 0 103.5 11 132.5 33s48.5 46.333 58.5 73c3.33301 8.66699 5.66602 17.334 6.99902 26.001s2 17 2 25c0 38.667 -10.167 65.5 -30.5 80.5s-42.833 24.167 -67.5 27.5
c-8 1.33301 -15.833 2.16602 -23.5 2.49902s-14.834 0.5 -21.501 0.5h-209v0z" />
    <glyph glyph-name="Aacute" unicode="&#x411;" horiz-adv-x="710" 
d="M272 658l-47.001 -221.999h215c11.333 0 23.333 -0.333008 36 -1s25.667 -2.33398 39 -5.00098c36.667 -6.66699 70.334 -22.5 101.001 -47.5s46 -68.167 46 -129.5c0 -73.333 -19.667 -128.333 -59 -165s-82.333 -61.667 -129 -75c-18.667 -4.66699 -37 -8 -55 -10
s-34.667 -3 -50 -3h-336l158 742h527l-19 -84h-427v0zM206.999 352.001l-56.998 -268h209c59.333 0 103.5 11 132.5 33s48.5 46.333 58.5 73c3.33301 8.66699 5.66602 17.334 6.99902 26.001s2 17 2 25c0 38.667 -10.167 65.5 -30.5 80.5s-42.833 24.167 -67.5 27.5
c-8 1.33301 -15.833 2.16602 -23.5 2.49902s-14.834 0.5 -21.501 0.5h-209v0z" />
    <glyph glyph-name="Acircumflex" unicode="&#xc2;" horiz-adv-x="733" 
d="M190 742l311.999 -0.00195312c6.66699 0 13.5 -0.166992 20.5 -0.5s13.833 -0.833008 20.5 -1.5c39.333 -4 75.5 -16.667 108.5 -38s49.5 -57.666 49.5 -108.999v-8c0 -2.66699 -0.333008 -5.33398 -1 -8.00098c-2.66699 -37.333 -15.334 -73.166 -38.001 -107.499
s-57.667 -61.166 -105 -80.499l-1 -3c39.333 -10 66.5 -26.167 81.5 -48.5s23.833 -45.833 26.5 -70.5c0.666992 -5.33301 1.16699 -10.5 1.5 -15.5s0.5 -10.167 0.5 -15.5c0 -12 -1.66699 -27.667 -5 -47s-10.666 -39.333 -21.999 -60c-18 -32 -48.667 -61.5 -92 -88.5
s-107.666 -40.5 -192.999 -40.5h-321l157 742v0zM204.999 342.998l-54.999 -259.001h207c63.333 0 109.666 11.333 138.999 34s48.333 47.334 57 74.001c2.66699 8 4.5 16 5.5 24s1.5 15.667 1.5 23c0 29.333 -9.5 54 -28.5 74s-58.833 30 -119.5 30h-207v0zM272 657.997
l-49.002 -230.999h201c50.667 0 88.834 10 114.501 30s42.834 42 51.501 66c2 7.33301 3.66699 14.666 5 21.999s2 14.333 2 21c0 38 -12.5 62.833 -37.5 74.5s-55.167 17.5 -90.5 17.5h-197v0z" />
    <glyph glyph-name="Acircumflex" unicode="&#x412;" horiz-adv-x="733" 
d="M190 742l311.999 -0.00195312c6.66699 0 13.5 -0.166992 20.5 -0.5s13.833 -0.833008 20.5 -1.5c39.333 -4 75.5 -16.667 108.5 -38s49.5 -57.666 49.5 -108.999v-8c0 -2.66699 -0.333008 -5.33398 -1 -8.00098c-2.66699 -37.333 -15.334 -73.166 -38.001 -107.499
s-57.667 -61.166 -105 -80.499l-1 -3c39.333 -10 66.5 -26.167 81.5 -48.5s23.833 -45.833 26.5 -70.5c0.666992 -5.33301 1.16699 -10.5 1.5 -15.5s0.5 -10.167 0.5 -15.5c0 -12 -1.66699 -27.667 -5 -47s-10.666 -39.333 -21.999 -60c-18 -32 -48.667 -61.5 -92 -88.5
s-107.666 -40.5 -192.999 -40.5h-321l157 742v0zM204.999 342.998l-54.999 -259.001h207c63.333 0 109.666 11.333 138.999 34s48.333 47.334 57 74.001c2.66699 8 4.5 16 5.5 24s1.5 15.667 1.5 23c0 29.333 -9.5 54 -28.5 74s-58.833 30 -119.5 30h-207v0zM272 657.997
l-49.002 -230.999h201c50.667 0 88.834 10 114.501 30s42.834 42 51.501 66c2 7.33301 3.66699 14.666 5 21.999s2 14.333 2 21c0 38 -12.5 62.833 -37.5 74.5s-55.167 17.5 -90.5 17.5h-197v0z" />
    <glyph glyph-name="Atilde" unicode="&#xc3;" horiz-adv-x="577" 
d="M271 658l-139 -658h-99l157 742h474l-18 -84h-375v0z" />
    <glyph glyph-name="Atilde" unicode="&#x413;" horiz-adv-x="577" 
d="M271 658l-139 -658h-99l157 742h474l-18 -84h-375v0z" />
    <glyph glyph-name="Adieresis" unicode="&#xc4;" horiz-adv-x="781" 
d="M622 84h105.001l-62 -252h-86l35 168h-577l-35 -168h-87l45 252h72c12 12.667 24.5 26.667 37.5 42s26.167 32.333 39.5 51c32 46 63.167 102.5 93.5 169.5s55.166 147.833 74.499 242.5l31 153h454l-140 -658v0zM644.001 658l-255 0.000976562l-18 -92
c-16 -80.667 -35.667 -150.834 -59 -210.501s-47.333 -110.834 -72 -153.501c-14.667 -24.667 -29 -46.667 -43 -66s-27.333 -36.666 -40 -51.999h365l122 574v0z" />
    <glyph glyph-name="Adieresis" unicode="&#x414;" horiz-adv-x="781" 
d="M622 84h105.001l-62 -252h-86l35 168h-577l-35 -168h-87l45 252h72c12 12.667 24.5 26.667 37.5 42s26.167 32.333 39.5 51c32 46 63.167 102.5 93.5 169.5s55.166 147.833 74.499 242.5l31 153h454l-140 -658v0zM644.001 658l-255 0.000976562l-18 -92
c-16 -80.667 -35.667 -150.834 -59 -210.501s-47.333 -110.834 -72 -153.501c-14.667 -24.667 -29 -46.667 -43 -66s-27.333 -36.666 -40 -51.999h365l122 574v0z" />
    <glyph glyph-name="Aring" unicode="&#xc5;" horiz-adv-x="649" 
d="M223 425h389l-18 -84h-389l-54 -257h441l-18 -84h-541l158 742h529l-18 -84h-430l-49 -233v0z" />
    <glyph glyph-name="Aring" unicode="&#x415;" horiz-adv-x="649" 
d="M223 425h389l-18 -84h-389l-54 -257h441l-18 -84h-541l158 742h529l-18 -84h-430l-49 -233v0z" />
    <glyph glyph-name="AE" unicode="&#xc6;" horiz-adv-x="962" 
d="M374 0l82 374l-378 -374h-139l420 405l-249 337h120l235 -329l67 329h99l-73 -329l358 329h136l-395 -351l252 -391h-122l-237 374l-77 -374h-99v0z" />
    <glyph glyph-name="AE" unicode="&#x416;" horiz-adv-x="962" 
d="M374 0l82 374l-378 -374h-139l420 405l-249 337h120l235 -329l67 329h99l-73 -329l358 329h136l-395 -351l252 -391h-122l-237 374l-77 -374h-99v0z" />
    <glyph glyph-name="Ccedilla" unicode="&#xc7;" horiz-adv-x="717" 
d="M39 228h102.005c-0.666992 -4.66699 -1.16699 -9.5 -1.5 -14.5s-0.5 -10.167 -0.5 -15.5c0 -6 0.333008 -12.167 1 -18.5s2 -12.833 4 -19.5c6 -24 22 -46.167 48 -66.5s70 -30.5 132 -30.5c69.333 0 122.666 17.833 159.999 53.5s56 76.834 56 123.501
c0 40.667 -13.667 68.834 -41 84.501s-62.333 23.5 -105 23.5h-97l18 84h88c4 0 14.667 0.666992 32 2s36 5.66602 56 12.999c22 8 42.333 21.167 61 39.5s28 44.833 28 79.5c0 33.333 -8.66699 57.666 -26 72.999s-36.666 25.333 -57.999 30
c-12 3.33301 -23.667 5.33301 -35 6s-21 1 -29 1c-65.333 0 -113.5 -13 -144.5 -39s-51.833 -54.667 -62.5 -86c-1.33301 -2.66699 -2.33301 -5.16699 -3 -7.5s-1.33398 -4.83301 -2.00098 -7.5h-105c1.33301 6 2.83301 11.833 4.5 17.5s3.5 11.5 5.5 17.5
c17.333 47.333 50.5 90.833 99.5 130.5s121.5 59.5 217.5 59.5c13.333 0 28.666 -0.5 45.999 -1.5s35 -3.5 53 -7.5c36.667 -8 70.167 -24.333 100.5 -49s45.5 -65 45.5 -121c0 -44.667 -11.833 -81.167 -35.5 -109.5s-49.834 -49.833 -78.501 -64.5l-18.5 -8
c-6.33301 -2.66699 -12.5 -5 -18.5 -7l-1 -3c31.333 -8 54.666 -20 69.999 -36s25.666 -32.667 30.999 -50c4 -11.333 6.5 -22.333 7.5 -33s1.5 -20.334 1.5 -29.001c0 -93.333 -32.833 -159.666 -98.5 -198.999s-137.834 -60 -216.501 -62h-5h-6
c-94 0 -164.667 16.167 -212 48.5s-70.666 84.833 -69.999 157.5c0 6.66699 0.166992 13.5 0.5 20.5s0.833008 13.833 1.5 20.5v0z" />
    <glyph glyph-name="Ccedilla" unicode="&#x417;" horiz-adv-x="717" 
d="M39 228h102.005c-0.666992 -4.66699 -1.16699 -9.5 -1.5 -14.5s-0.5 -10.167 -0.5 -15.5c0 -6 0.333008 -12.167 1 -18.5s2 -12.833 4 -19.5c6 -24 22 -46.167 48 -66.5s70 -30.5 132 -30.5c69.333 0 122.666 17.833 159.999 53.5s56 76.834 56 123.501
c0 40.667 -13.667 68.834 -41 84.501s-62.333 23.5 -105 23.5h-97l18 84h88c4 0 14.667 0.666992 32 2s36 5.66602 56 12.999c22 8 42.333 21.167 61 39.5s28 44.833 28 79.5c0 33.333 -8.66699 57.666 -26 72.999s-36.666 25.333 -57.999 30
c-12 3.33301 -23.667 5.33301 -35 6s-21 1 -29 1c-65.333 0 -113.5 -13 -144.5 -39s-51.833 -54.667 -62.5 -86c-1.33301 -2.66699 -2.33301 -5.16699 -3 -7.5s-1.33398 -4.83301 -2.00098 -7.5h-105c1.33301 6 2.83301 11.833 4.5 17.5s3.5 11.5 5.5 17.5
c17.333 47.333 50.5 90.833 99.5 130.5s121.5 59.5 217.5 59.5c13.333 0 28.666 -0.5 45.999 -1.5s35 -3.5 53 -7.5c36.667 -8 70.167 -24.333 100.5 -49s45.5 -65 45.5 -121c0 -44.667 -11.833 -81.167 -35.5 -109.5s-49.834 -49.833 -78.501 -64.5l-18.5 -8
c-6.33301 -2.66699 -12.5 -5 -18.5 -7l-1 -3c31.333 -8 54.666 -20 69.999 -36s25.666 -32.667 30.999 -50c4 -11.333 6.5 -22.333 7.5 -33s1.5 -20.334 1.5 -29.001c0 -93.333 -32.833 -159.666 -98.5 -198.999s-137.834 -60 -216.501 -62h-5h-6
c-94 0 -164.667 16.167 -212 48.5s-70.666 84.833 -69.999 157.5c0 6.66699 0.166992 13.5 0.5 20.5s0.833008 13.833 1.5 20.5v0z" />
    <glyph glyph-name="Egrave" unicode="&#xc8;" horiz-adv-x="774" 
d="M163 145l501 597h120l-157 -742h-100l128 601l-502 -601h-120l158 742h99l-127 -597v0z" />
    <glyph glyph-name="Egrave" unicode="&#x418;" horiz-adv-x="774" 
d="M163 145l501 597h120l-157 -742h-100l128 601l-502 -601h-120l158 742h99l-127 -597v0z" />
    <glyph glyph-name="Eacute" unicode="&#xc9;" horiz-adv-x="774" 
d="M163 145l501 597h120l-157 -742h-100l128 601l-502 -601h-120l158 742h99l-127 -597v0zM317 910l78.002 -0.000976562v-10c0 -26 8.16699 -44.833 24.5 -56.5s36.833 -17.5 61.5 -17.5c4 0 7.83301 0.166992 11.5 0.5s7.5 0.5 11.5 0.5c19.333 2.66699 38 10 56 22
s32.333 32.333 43 61h78c-12 -36.667 -34.333 -69.167 -67 -97.5s-76.334 -42.5 -131.001 -42.5c-52 0 -90 9.33301 -114 28s-39.333 39.334 -46 62.001c-2.66699 6.66699 -4.33398 13.5 -5.00098 20.5s-1 13.5 -1 19.5v5.5v4.5v0z" />
    <glyph glyph-name="Eacute" unicode="&#x419;" horiz-adv-x="774" 
d="M163 145l501 597h120l-157 -742h-100l128 601l-502 -601h-120l158 742h99l-127 -597v0zM317 910l78.002 -0.000976562v-10c0 -26 8.16699 -44.833 24.5 -56.5s36.833 -17.5 61.5 -17.5c4 0 7.83301 0.166992 11.5 0.5s7.5 0.5 11.5 0.5c19.333 2.66699 38 10 56 22
s32.333 32.333 43 61h78c-12 -36.667 -34.333 -69.167 -67 -97.5s-76.334 -42.5 -131.001 -42.5c-52 0 -90 9.33301 -114 28s-39.333 39.334 -46 62.001c-2.66699 6.66699 -4.33398 13.5 -5.00098 20.5s-1 13.5 -1 19.5v5.5v4.5v0z" />
    <glyph glyph-name="Ecircumflex" unicode="&#xca;" horiz-adv-x="659" 
d="M217 404l387 338h136l-417 -351l279 -391h-121l-267 387l-81 -387h-100l158 742h100l-74 -338v0z" />
    <glyph glyph-name="Ecircumflex" unicode="&#x41a;" horiz-adv-x="659" 
d="M217 404l387 338h136l-417 -351l279 -391h-121l-267 387l-81 -387h-100l158 742h100l-74 -338v0z" />
    <glyph glyph-name="Edieresis" unicode="&#xcb;" horiz-adv-x="751" 
d="M-43 0l18 87c2 0 3.83301 -0.166992 5.5 -0.5s3.16699 -0.5 4.5 -0.5c3.33301 -0.666992 6.5 -1 9.5 -1h7.5c62 0 109.667 34.167 143 102.5s60.333 146.833 81 235.5l74 319h461l-158 -742h-99l139 658h-260l-59 -256c-24.667 -109.333 -59.5 -204 -104.5 -284
s-117.5 -120 -217.5 -120c-6.66699 0 -13.667 0.166992 -21 0.5s-15 0.833008 -23 1.5h-1z" />
    <glyph glyph-name="Edieresis" unicode="&#x41b;" horiz-adv-x="751" 
d="M-43 0l18 87c2 0 3.83301 -0.166992 5.5 -0.5s3.16699 -0.5 4.5 -0.5c3.33301 -0.666992 6.5 -1 9.5 -1h7.5c62 0 109.667 34.167 143 102.5s60.333 146.833 81 235.5l74 319h461l-158 -742h-99l139 658h-260l-59 -256c-24.667 -109.333 -59.5 -204 -104.5 -284
s-117.5 -120 -217.5 -120c-6.66699 0 -13.667 0.166992 -21 0.5s-15 0.833008 -23 1.5h-1z" />
    <glyph glyph-name="Igrave" unicode="&#xcc;" horiz-adv-x="923" 
d="M366 0l-113 602h-2l-4 -28l-122 -574h-92l158 742h126l116 -611l362 611h138l-158 -742h-92l122 574l8 28h-2l-362 -602h-83v0z" />
    <glyph glyph-name="Igrave" unicode="&#x41c;" horiz-adv-x="923" 
d="M366 0l-113 602h-2l-4 -28l-122 -574h-92l158 742h126l116 -611l362 611h138l-158 -742h-92l122 574l8 28h-2l-362 -602h-83v0z" />
    <glyph glyph-name="Iacute" unicode="&#xcd;" horiz-adv-x="752" 
d="M206 349l-74 -349h-99l158 742h99l-66 -309h373l65 309h100l-158 -742h-99l74 349h-373v0z" />
    <glyph glyph-name="Iacute" unicode="&#x41d;" horiz-adv-x="752" 
d="M206 349l-74 -349h-99l158 742h99l-66 -309h373l65 309h100l-158 -742h-99l74 349h-373v0z" />
    <glyph glyph-name="Icircumflex" unicode="&#xce;" horiz-adv-x="806" 
d="M368 -22c-90.667 -0.666992 -157.499 15.334 -200.499 48.001s-72.5 68.667 -88.5 108c-10.667 26 -17.167 51 -19.5 75s-3.5 43.333 -3.5 58c0 23.333 1.5 47.5 4.5 72.5s7.5 50.167 13.5 75.5c21.333 87.333 64 167.333 128 240s156.333 109 277 109
c85.333 0 149.5 -15.5 192.5 -46.5s73.167 -64.833 90.5 -101.5c13.333 -28.667 21.5 -56 24.5 -82s4.5 -44.667 4.5 -56v-12.5v-13.5c-4.66699 -117.333 -40.834 -224.833 -108.501 -322.5s-172.5 -147.834 -314.5 -150.501v-1zM379.001 62.001
c84 0 148.667 27.332 194 81.999s76.333 114.667 93 180c6 24.667 10.5 48.834 13.5 72.501s4.5 45.834 4.5 66.501c0 59.333 -11.333 104 -34 134s-48 51 -76 63c-22 10 -43.167 15.833 -63.5 17.5s-33.833 2.5 -40.5 2.5h-1.5h-0.5c-85.333 0 -152.333 -31.333 -201 -94
s-80 -131.667 -94 -207c-3.33301 -16.667 -5.83301 -33.334 -7.5 -50.001s-2.5 -33 -2.5 -49c0 -75.333 19.5 -130.5 58.5 -165.5s91.5 -52.5 157.5 -52.5v0z" />
    <glyph glyph-name="Icircumflex" unicode="&#x41e;" horiz-adv-x="806" 
d="M368 -22c-90.667 -0.666992 -157.499 15.334 -200.499 48.001s-72.5 68.667 -88.5 108c-10.667 26 -17.167 51 -19.5 75s-3.5 43.333 -3.5 58c0 23.333 1.5 47.5 4.5 72.5s7.5 50.167 13.5 75.5c21.333 87.333 64 167.333 128 240s156.333 109 277 109
c85.333 0 149.5 -15.5 192.5 -46.5s73.167 -64.833 90.5 -101.5c13.333 -28.667 21.5 -56 24.5 -82s4.5 -44.667 4.5 -56v-12.5v-13.5c-4.66699 -117.333 -40.834 -224.833 -108.501 -322.5s-172.5 -147.834 -314.5 -150.501v-1zM379.001 62.001
c84 0 148.667 27.332 194 81.999s76.333 114.667 93 180c6 24.667 10.5 48.834 13.5 72.501s4.5 45.834 4.5 66.501c0 59.333 -11.333 104 -34 134s-48 51 -76 63c-22 10 -43.167 15.833 -63.5 17.5s-33.833 2.5 -40.5 2.5h-1.5h-0.5c-85.333 0 -152.333 -31.333 -201 -94
s-80 -131.667 -94 -207c-3.33301 -16.667 -5.83301 -33.334 -7.5 -50.001s-2.5 -33 -2.5 -49c0 -75.333 19.5 -130.5 58.5 -165.5s91.5 -52.5 157.5 -52.5v0z" />
    <glyph glyph-name="Idieresis" unicode="&#xcf;" horiz-adv-x="755" 
d="M272 658l-140 -658h-99l158 742h574l-158 -742h-99l140 658h-376v0z" />
    <glyph glyph-name="Idieresis" unicode="&#x41f;" horiz-adv-x="755" 
d="M272 658l-140 -658h-99l158 742h574l-158 -742h-99l140 658h-376v0z" />
    <glyph glyph-name="Eth" unicode="&#xd0;" horiz-adv-x="680" 
d="M191 742l286.002 -0.00195312c65.333 0 119.666 -10.833 162.999 -32.5s65 -65.167 65 -130.5c0 -13.333 -1.5 -32.166 -4.5 -56.499s-10.167 -49.833 -21.5 -76.5c-16.667 -37.333 -45.334 -71.666 -86.001 -102.999s-102 -47 -184 -47h-214l-63 -296h-99l158 742v0z
M272.002 657.998l-59 -277.999h189c59.333 0 103 12 131 36s46.667 50 56 78c4 12 6.66699 23.833 8 35.5s2 22.5 2 32.5c0 37.333 -13.5 62.666 -40.5 75.999s-64.167 20 -111.5 20h-175v0z" />
    <glyph glyph-name="Eth" unicode="&#x420;" horiz-adv-x="680" 
d="M191 742l286.002 -0.00195312c65.333 0 119.666 -10.833 162.999 -32.5s65 -65.167 65 -130.5c0 -13.333 -1.5 -32.166 -4.5 -56.499s-10.167 -49.833 -21.5 -76.5c-16.667 -37.333 -45.334 -71.666 -86.001 -102.999s-102 -47 -184 -47h-214l-63 -296h-99l158 742v0z
M272.002 657.998l-59 -277.999h189c59.333 0 103 12 131 36s46.667 50 56 78c4 12 6.66699 23.833 8 35.5s2 22.5 2 32.5c0 37.333 -13.5 62.666 -40.5 75.999s-64.167 20 -111.5 20h-175v0z" />
    <glyph glyph-name="Ntilde" unicode="&#xd1;" horiz-adv-x="760" 
d="M612 246l103.997 -0.00292969l-6 -18.5l-6 -18.5c-22.667 -58.667 -60.167 -112.5 -112.5 -161.5s-127.833 -73.5 -226.5 -73.5c-83.333 0 -146.166 15.667 -188.499 47s-72.166 66 -89.499 104c-13.333 29.333 -21.5 57.333 -24.5 84s-4.5 45.667 -4.5 57
c0 20 1 40.667 3 62s5.33301 43 10 65c19.333 92.667 62 177.834 128 255.501s160.667 116.5 284 116.5c90.667 0 155.667 -15.167 195 -45.5s64.666 -63.5 75.999 -99.5c4 -12 6.66699 -23.667 8 -35s2 -22.333 2 -33c0 -6.66699 -0.166992 -13.5 -0.5 -20.5
s-1.16602 -13.167 -2.49902 -18.5h-101c0.666992 4 1 8 1 12v13c0 6 -0.333008 12 -1 18s-1.66699 12.333 -3 19c-6 26.667 -21.667 51 -47 73s-68.666 33 -129.999 33c-88 0 -156.333 -30.167 -205 -90.5s-80.667 -126.833 -96 -199.5c-3.33301 -18 -6 -36 -8 -54
s-3 -35.667 -3 -53c0 -67.333 18.167 -121.833 54.5 -163.5s87.5 -62.5 153.5 -62.5c52 0 94.167 11.333 126.5 34s57.166 47.667 74.499 75c9.33301 14.667 16.833 28.834 22.5 42.501s9.83398 25.834 12.501 36.501v0z" />
    <glyph glyph-name="Ntilde" unicode="&#x421;" horiz-adv-x="760" 
d="M612 246l103.997 -0.00292969l-6 -18.5l-6 -18.5c-22.667 -58.667 -60.167 -112.5 -112.5 -161.5s-127.833 -73.5 -226.5 -73.5c-83.333 0 -146.166 15.667 -188.499 47s-72.166 66 -89.499 104c-13.333 29.333 -21.5 57.333 -24.5 84s-4.5 45.667 -4.5 57
c0 20 1 40.667 3 62s5.33301 43 10 65c19.333 92.667 62 177.834 128 255.501s160.667 116.5 284 116.5c90.667 0 155.667 -15.167 195 -45.5s64.666 -63.5 75.999 -99.5c4 -12 6.66699 -23.667 8 -35s2 -22.333 2 -33c0 -6.66699 -0.166992 -13.5 -0.5 -20.5
s-1.16602 -13.167 -2.49902 -18.5h-101c0.666992 4 1 8 1 12v13c0 6 -0.333008 12 -1 18s-1.66699 12.333 -3 19c-6 26.667 -21.667 51 -47 73s-68.666 33 -129.999 33c-88 0 -156.333 -30.167 -205 -90.5s-80.667 -126.833 -96 -199.5c-3.33301 -18 -6 -36 -8 -54
s-3 -35.667 -3 -53c0 -67.333 18.167 -121.833 54.5 -163.5s87.5 -62.5 153.5 -62.5c52 0 94.167 11.333 126.5 34s57.166 47.667 74.499 75c9.33301 14.667 16.833 28.834 22.5 42.501s9.83398 25.834 12.501 36.501v0z" />
    <glyph glyph-name="Ograve" unicode="&#xd2;" horiz-adv-x="608" 
d="M337 658h-241l18 84h581l-18 -84h-241l-139 -658h-100l140 658v0z" />
    <glyph glyph-name="Ograve" unicode="&#x422;" horiz-adv-x="608" 
d="M337 658h-241l18 84h581l-18 -84h-241l-139 -658h-100l140 658v0z" />
    <glyph glyph-name="Oacute" unicode="&#xd3;" horiz-adv-x="619" 
d="M346 296l266 446.003h111l-372 -610c-5.33301 -8.66699 -10.666 -16.834 -15.999 -24.501s-10.666 -14.834 -15.999 -21.501c-28 -37.333 -57 -62.833 -87 -76.5s-64 -20.5 -102 -20.5c-6.66699 0 -13.5 0.333008 -20.5 1l-20.5 2l-20.5 4l-20.5 4l19 87
c9.33301 -2.66699 19.666 -5.33398 30.999 -8.00098s23.333 -4 36 -4c21.333 0 43.666 6 66.999 18s48.333 42.333 75 91l-165 558h113l122 -446v0z" />
    <glyph glyph-name="Oacute" unicode="&#x423;" horiz-adv-x="619" 
d="M346 296l266 446.003h111l-372 -610c-5.33301 -8.66699 -10.666 -16.834 -15.999 -24.501s-10.666 -14.834 -15.999 -21.501c-28 -37.333 -57 -62.833 -87 -76.5s-64 -20.5 -102 -20.5c-6.66699 0 -13.5 0.333008 -20.5 1l-20.5 2l-20.5 4l-20.5 4l19 87
c9.33301 -2.66699 19.666 -5.33398 30.999 -8.00098s23.333 -4 36 -4c21.333 0 43.666 6 66.999 18s48.333 42.333 75 91l-165 558h113l122 -446v0z" />
    <glyph glyph-name="Ocircumflex" unicode="&#xd4;" horiz-adv-x="943" 
d="M358 -28l24.001 111.999h-41c-14.667 0 -33.334 1.33301 -56.001 4s-46.334 8.33398 -71.001 17.001c-38 13.333 -73.167 36.833 -105.5 70.5s-48.5 83.834 -48.5 150.501c0 101.333 28.833 177.5 86.5 228.5s121.167 85.167 190.5 102.5
c22 5.33301 43.833 9.16602 65.5 11.499s42.5 3.5 62.5 3.5h42l24 112h99l-24 -112h42c81.333 0 142 -15.333 182 -46s67 -64.667 81 -102c6.66699 -16.667 11.334 -33.334 14.001 -50.001s4 -31.667 4 -45c0 -97.333 -25.833 -170.666 -77.5 -219.999
s-108.5 -83.333 -170.5 -102c-28 -8.66699 -55.667 -14.667 -83 -18s-52.333 -5 -75 -5h-41l-24 -112h-100v0zM399.001 161.999l91 432h-28c-110 0 -187.167 -26.833 -231.5 -80.5s-66.5 -112.834 -66.5 -177.501c0 -9.33301 0.5 -19.166 1.5 -29.499
s3.16699 -20.833 6.5 -31.5c8 -28 26.5 -53.833 55.5 -77.5s76.833 -35.5 143.5 -35.5h28v0zM498.001 161.999h28.002c90.667 0 157.167 17 199.5 51s70.5 71.333 84.5 112c5.33301 16.667 9.16602 33 11.499 49s3.5 31 3.5 45c0 49.333 -15.333 90.833 -46 124.5
s-84.334 50.5 -161.001 50.5h-28l-92 -432v0z" />
    <glyph glyph-name="Ocircumflex" unicode="&#x424;" horiz-adv-x="943" 
d="M358 -28l24.001 111.999h-41c-14.667 0 -33.334 1.33301 -56.001 4s-46.334 8.33398 -71.001 17.001c-38 13.333 -73.167 36.833 -105.5 70.5s-48.5 83.834 -48.5 150.501c0 101.333 28.833 177.5 86.5 228.5s121.167 85.167 190.5 102.5
c22 5.33301 43.833 9.16602 65.5 11.499s42.5 3.5 62.5 3.5h42l24 112h99l-24 -112h42c81.333 0 142 -15.333 182 -46s67 -64.667 81 -102c6.66699 -16.667 11.334 -33.334 14.001 -50.001s4 -31.667 4 -45c0 -97.333 -25.833 -170.666 -77.5 -219.999
s-108.5 -83.333 -170.5 -102c-28 -8.66699 -55.667 -14.667 -83 -18s-52.333 -5 -75 -5h-41l-24 -112h-100v0zM399.001 161.999l91 432h-28c-110 0 -187.167 -26.833 -231.5 -80.5s-66.5 -112.834 -66.5 -177.501c0 -9.33301 0.5 -19.166 1.5 -29.499
s3.16699 -20.833 6.5 -31.5c8 -28 26.5 -53.833 55.5 -77.5s76.833 -35.5 143.5 -35.5h28v0zM498.001 161.999h28.002c90.667 0 157.167 17 199.5 51s70.5 71.333 84.5 112c5.33301 16.667 9.16602 33 11.499 49s3.5 31 3.5 45c0 49.333 -15.333 90.833 -46 124.5
s-84.334 50.5 -161.001 50.5h-28l-92 -432v0z" />
    <glyph glyph-name="Otilde" unicode="&#xd5;" horiz-adv-x="634" 
d="M325 313l-260 -313h-122l333 392l-174 350h118l138 -292l240 292h121l-314 -371l189 -371h-120l-149 313v0z" />
    <glyph glyph-name="Otilde" unicode="&#x425;" horiz-adv-x="634" 
d="M325 313l-260 -313h-122l333 392l-174 350h118l138 -292l240 292h121l-314 -371l189 -371h-120l-149 313v0z" />
    <glyph glyph-name="Odieresis" unicode="&#xd6;" horiz-adv-x="785" 
d="M151 84h376l140 658h100l-140 -658h104l-62 -252h-87l36 168h-585l158 742h99l-139 -658v0z" />
    <glyph glyph-name="Odieresis" unicode="&#x426;" horiz-adv-x="785" 
d="M151 84h376l140 658h100l-140 -658h104l-62 -252h-87l36 168h-585l158 742h99l-139 -658v0z" />
    <glyph glyph-name="multiply" unicode="&#xd7;" horiz-adv-x="673" 
d="M161 742l99.9961 -0.00195312l-46 -217l-5.5 -28.5c-1.66699 -9 -2.5 -17.5 -2.5 -25.5c0 -21.333 10.333 -38.666 31 -51.999s63.334 -20 128.001 -20c9.33301 0 19.833 0.166992 31.5 0.5s23.5 0.833008 35.5 1.5c4.66699 0.666992 9.33398 1 14.001 1
s9.33398 0.333008 14.001 1c10 0.666992 19.333 1.16699 28 1.5s16.334 0.833008 23.001 1.5l71 336h100l-158 -742h-100l69 322c-6 -0.666992 -13.5 -1.16699 -22.5 -1.5s-18.833 -0.833008 -29.5 -1.5c-4 0 -8.16699 -0.166992 -12.5 -0.5s-8.5 -0.5 -12.5 -0.5l-41.5 -2
c-13.667 -0.666992 -24.5 -1 -32.5 -1c-98 0 -162.167 12.833 -192.5 38.5s-45.5 56.834 -45.5 93.501c0 12.667 1.16699 25.5 3.5 38.5s4.83301 26.167 7.5 39.5l45 217v0z" />
    <glyph glyph-name="multiply" unicode="&#x427;" horiz-adv-x="673" 
d="M161 742l99.9961 -0.00195312l-46 -217l-5.5 -28.5c-1.66699 -9 -2.5 -17.5 -2.5 -25.5c0 -21.333 10.333 -38.666 31 -51.999s63.334 -20 128.001 -20c9.33301 0 19.833 0.166992 31.5 0.5s23.5 0.833008 35.5 1.5c4.66699 0.666992 9.33398 1 14.001 1
s9.33398 0.333008 14.001 1c10 0.666992 19.333 1.16699 28 1.5s16.334 0.833008 23.001 1.5l71 336h100l-158 -742h-100l69 322c-6 -0.666992 -13.5 -1.16699 -22.5 -1.5s-18.833 -0.833008 -29.5 -1.5c-4 0 -8.16699 -0.166992 -12.5 -0.5s-8.5 -0.5 -12.5 -0.5l-41.5 -2
c-13.667 -0.666992 -24.5 -1 -32.5 -1c-98 0 -162.167 12.833 -192.5 38.5s-45.5 56.834 -45.5 93.501c0 12.667 1.16699 25.5 3.5 38.5s4.83301 26.167 7.5 39.5l45 217v0z" />
    <glyph glyph-name="Oslash" unicode="&#xd8;" horiz-adv-x="1078" 
d="M146 84h299l140 658h100l-140 -658h299l140 658h104l-158 -742h-897l158 742h95l-140 -658v0z" />
    <glyph glyph-name="Oslash" unicode="&#x428;" horiz-adv-x="1078" 
d="M146 84h299l140 658h100l-140 -658h299l140 658h104l-158 -742h-897l158 742h95l-140 -658v0z" />
    <glyph glyph-name="Ugrave" unicode="&#xd9;" horiz-adv-x="1108" 
d="M146 84h299l140 658h100l-140 -658h299l140 658h104l-140 -658h106l-62 -252h-86l35 168h-908l158 742h95l-140 -658v0z" />
    <glyph glyph-name="Ugrave" unicode="&#x429;" horiz-adv-x="1108" 
d="M146 84h299l140 658h100l-140 -658h299l140 658h104l-140 -658h106l-62 -252h-86l35 168h-908l158 742h95l-140 -658v0z" />
    <glyph glyph-name="Uacute" unicode="&#xda;" horiz-adv-x="765" 
d="M375 742l-63.9961 -302h191c85.333 0 142.666 -16.667 171.999 -50s45.666 -70 48.999 -110c0 -4.66699 0.166992 -9.16699 0.5 -13.5s0.5 -8.83301 0.5 -13.5c0 -75.333 -20.333 -131.5 -61 -168.5s-85.667 -61.5 -135 -73.5
c-16.667 -4.66699 -33.334 -7.66699 -50.001 -9s-32.334 -2 -47.001 -2h-313l139 658h-161l18 84h261v0zM293.004 356l-57.999 -272.001h186c63.333 0 112.666 14.833 147.999 44.5s53 67.167 53 112.5c0 37.333 -9.16699 63.833 -27.5 79.5s-38.5 25.834 -60.5 30.501
c-10 2 -19.667 3.33301 -29 4s-18 1 -26 1h-186v0z" />
    <glyph glyph-name="Uacute" unicode="&#x42a;" horiz-adv-x="765" 
d="M375 742l-63.9961 -302h191c85.333 0 142.666 -16.667 171.999 -50s45.666 -70 48.999 -110c0 -4.66699 0.166992 -9.16699 0.5 -13.5s0.5 -8.83301 0.5 -13.5c0 -75.333 -20.333 -131.5 -61 -168.5s-85.667 -61.5 -135 -73.5
c-16.667 -4.66699 -33.334 -7.66699 -50.001 -9s-32.334 -2 -47.001 -2h-313l139 658h-161l18 84h261v0zM293.004 356l-57.999 -272.001h186c63.333 0 112.666 14.833 147.999 44.5s53 67.167 53 112.5c0 37.333 -9.16699 63.833 -27.5 79.5s-38.5 25.834 -60.5 30.501
c-10 2 -19.667 3.33301 -29 4s-18 1 -26 1h-186v0z" />
    <glyph glyph-name="Ucircumflex" unicode="&#xdb;" horiz-adv-x="911" 
d="M290 742l-63.999 -302h192c83.333 0 141.166 -17.333 173.499 -52s48.5 -79.667 48.5 -135c0 -73.333 -19.667 -128.333 -59 -165s-82.333 -61.667 -129 -75c-18.667 -4.66699 -37 -8 -55 -10s-34.667 -3 -50 -3h-314l158 742h99v0zM208.001 356l-56.999 -271.999h186
c63.333 0 110.166 13 140.499 39s48.833 54.667 55.5 86c1.33301 5.33301 2.33301 10.666 3 15.999s1 10.666 1 15.999c0 37.333 -9.16699 63.833 -27.5 79.5s-38.5 25.834 -60.5 30.501c-10 2 -19.667 3.33301 -29 4s-18 1 -26 1h-186v0zM822.002 742.001h99l-158 -742h-99
l158 742v0z" />
    <glyph glyph-name="Ucircumflex" unicode="&#x42b;" horiz-adv-x="911" 
d="M290 742l-63.999 -302h192c83.333 0 141.166 -17.333 173.499 -52s48.5 -79.667 48.5 -135c0 -73.333 -19.667 -128.333 -59 -165s-82.333 -61.667 -129 -75c-18.667 -4.66699 -37 -8 -55 -10s-34.667 -3 -50 -3h-314l158 742h99v0zM208.001 356l-56.999 -271.999h186
c63.333 0 110.166 13 140.499 39s48.833 54.667 55.5 86c1.33301 5.33301 2.33301 10.666 3 15.999s1 10.666 1 15.999c0 37.333 -9.16699 63.833 -27.5 79.5s-38.5 25.834 -60.5 30.501c-10 2 -19.667 3.33301 -29 4s-18 1 -26 1h-186v0zM822.002 742.001h99l-158 -742h-99
l158 742v0z" />
    <glyph glyph-name="Udieresis" unicode="&#xdc;" horiz-adv-x="680" 
d="M290 742l-64 -302h191c86 0 143.5 -16.667 172.5 -50s45.167 -70 48.5 -110c0.666992 -4.66699 1 -9.16699 1 -13.5v-13.5c0 -73.333 -19.833 -128.5 -59.5 -165.5s-83.167 -61.833 -130.5 -74.5c-18 -5.33301 -35.833 -8.83301 -53.5 -10.5s-34.167 -2.5 -49.5 -2.5
h-313l158 742h99v0zM208 356l-57.999 -272.001h186c63.333 0 112.666 14.833 147.999 44.5s53 67.167 53 112.5c0 37.333 -9.16699 63.833 -27.5 79.5s-38.5 25.834 -60.5 30.501c-10 2 -19.667 3.33301 -29 4s-18 1 -26 1h-186v0z" />
    <glyph glyph-name="Udieresis" unicode="&#x42c;" horiz-adv-x="680" 
d="M290 742l-64 -302h191c86 0 143.5 -16.667 172.5 -50s45.167 -70 48.5 -110c0.666992 -4.66699 1 -9.16699 1 -13.5v-13.5c0 -73.333 -19.833 -128.5 -59.5 -165.5s-83.167 -61.833 -130.5 -74.5c-18 -5.33301 -35.833 -8.83301 -53.5 -10.5s-34.167 -2.5 -49.5 -2.5
h-313l158 742h99v0zM208 356l-57.999 -272.001h186c63.333 0 112.666 14.833 147.999 44.5s53 67.167 53 112.5c0 37.333 -9.16699 63.833 -27.5 79.5s-38.5 25.834 -60.5 30.501c-10 2 -19.667 3.33301 -29 4s-18 1 -26 1h-186v0z" />
    <glyph glyph-name="Yacute" unicode="&#xdd;" horiz-adv-x="770" 
d="M215 526h-108.997c2.66699 8.66699 8.5 24 17.5 46s23.833 45.333 44.5 70c25.333 30.667 61.166 58.834 107.499 84.501s107.166 38.5 182.499 38.5c98.667 0 168.5 -19 209.5 -57s67.167 -79.667 78.5 -125c4 -16.667 6.66699 -32.834 8 -48.501s2 -30.5 2 -44.5
c0 -24.667 -2.33301 -58.834 -7 -102.501s-15.667 -89.167 -33 -136.5c-24 -68.667 -65.5 -131.5 -124.5 -188.5s-145.833 -85.5 -260.5 -85.5c-14.667 0 -33.834 0.833008 -57.501 2.5s-48.5 6.83398 -74.5 15.501c-38.667 12 -74.334 35 -107.001 69s-49 86.667 -49 158
c0 6 0.166992 12 0.5 18s0.833008 12 1.5 18h103c-0.666992 -3.33301 -1 -6.83301 -1 -10.5v-11.5c0 -8.66699 0.5 -18 1.5 -28s3.16699 -20 6.5 -30c8 -29.333 25.333 -56.333 52 -81s69 -37 127 -37c82.667 0 145.5 24 188.5 72s73.833 100.667 92.5 158
c2.66699 8.66699 5 17.167 7 25.5l6 24.5h-352l18 85h350c2 9.33301 3.5 19.666 4.5 30.999s1.5 23.333 1.5 36c0 6 -0.166992 12.333 -0.5 19s-1.16602 13.334 -2.49902 20.001c-5.33301 37.333 -21.833 71.5 -49.5 102.5s-75.834 46.5 -144.501 46.5
c-62.667 0 -114.167 -14.833 -154.5 -44.5s-68.166 -66.167 -83.499 -109.5v0z" />
    <glyph glyph-name="Yacute" unicode="&#x42d;" horiz-adv-x="770" 
d="M215 526h-108.997c2.66699 8.66699 8.5 24 17.5 46s23.833 45.333 44.5 70c25.333 30.667 61.166 58.834 107.499 84.501s107.166 38.5 182.499 38.5c98.667 0 168.5 -19 209.5 -57s67.167 -79.667 78.5 -125c4 -16.667 6.66699 -32.834 8 -48.501s2 -30.5 2 -44.5
c0 -24.667 -2.33301 -58.834 -7 -102.501s-15.667 -89.167 -33 -136.5c-24 -68.667 -65.5 -131.5 -124.5 -188.5s-145.833 -85.5 -260.5 -85.5c-14.667 0 -33.834 0.833008 -57.501 2.5s-48.5 6.83398 -74.5 15.501c-38.667 12 -74.334 35 -107.001 69s-49 86.667 -49 158
c0 6 0.166992 12 0.5 18s0.833008 12 1.5 18h103c-0.666992 -3.33301 -1 -6.83301 -1 -10.5v-11.5c0 -8.66699 0.5 -18 1.5 -28s3.16699 -20 6.5 -30c8 -29.333 25.333 -56.333 52 -81s69 -37 127 -37c82.667 0 145.5 24 188.5 72s73.833 100.667 92.5 158
c2.66699 8.66699 5 17.167 7 25.5l6 24.5h-352l18 85h350c2 9.33301 3.5 19.666 4.5 30.999s1.5 23.333 1.5 36c0 6 -0.166992 12.333 -0.5 19s-1.16602 13.334 -2.49902 20.001c-5.33301 37.333 -21.833 71.5 -49.5 102.5s-75.834 46.5 -144.501 46.5
c-62.667 0 -114.167 -14.833 -154.5 -44.5s-68.166 -66.167 -83.499 -109.5v0z" />
    <glyph glyph-name="Thorn" unicode="&#xde;" horiz-adv-x="1054" 
d="M225 432h100.997c2.66699 11.333 5.83398 22.666 9.50098 33.999s7.83398 23 12.501 35c26.667 65.333 70.834 125.5 132.501 180.5s143.834 82.5 246.501 82.5c84 0 157 -21.667 219 -65s93 -117 93 -221c0 -27.333 -2.33301 -58 -7 -92s-12.667 -68.667 -24 -104
c-24 -76 -66.5 -145.5 -127.5 -208.5s-149.167 -94.5 -264.5 -94.5c-99.333 0 -171.166 19.833 -215.499 59.5s-72.833 83.834 -85.5 132.501c-4.66699 17.333 -7.83398 34.333 -9.50098 51s-2.5 32.667 -2.5 48c0 17.333 0.666992 32.5 2 45.5s2.66602 23.833 3.99902 32.5
h-102l-74 -348h-100l158 742h100l-66 -310v0zM626.997 62c88.667 0 156.833 32.332 204.5 96.999s78.167 136 91.5 214c2.66699 16.667 4.66699 33.167 6 49.5s2 32.166 2 47.499c0 62.667 -17.5 113.334 -52.5 152.001s-89.167 58 -162.5 58c-86 0 -153 -31.667 -201 -95
s-79.333 -133 -94 -209c-3.33301 -17.333 -5.83301 -34.666 -7.5 -51.999s-2.5 -34.333 -2.5 -51c0 -73.333 19.5 -126.833 58.5 -160.5s91.5 -50.5 157.5 -50.5v0z" />
    <glyph glyph-name="Thorn" unicode="&#x42e;" horiz-adv-x="1054" 
d="M225 432h100.997c2.66699 11.333 5.83398 22.666 9.50098 33.999s7.83398 23 12.501 35c26.667 65.333 70.834 125.5 132.501 180.5s143.834 82.5 246.501 82.5c84 0 157 -21.667 219 -65s93 -117 93 -221c0 -27.333 -2.33301 -58 -7 -92s-12.667 -68.667 -24 -104
c-24 -76 -66.5 -145.5 -127.5 -208.5s-149.167 -94.5 -264.5 -94.5c-99.333 0 -171.166 19.833 -215.499 59.5s-72.833 83.834 -85.5 132.501c-4.66699 17.333 -7.83398 34.333 -9.50098 51s-2.5 32.667 -2.5 48c0 17.333 0.666992 32.5 2 45.5s2.66602 23.833 3.99902 32.5
h-102l-74 -348h-100l158 742h100l-66 -310v0zM626.997 62c88.667 0 156.833 32.332 204.5 96.999s78.167 136 91.5 214c2.66699 16.667 4.66699 33.167 6 49.5s2 32.166 2 47.499c0 62.667 -17.5 113.334 -52.5 152.001s-89.167 58 -162.5 58c-86 0 -153 -31.667 -201 -95
s-79.333 -133 -94 -209c-3.33301 -17.333 -5.83301 -34.666 -7.5 -51.999s-2.5 -34.333 -2.5 -51c0 -73.333 19.5 -126.833 58.5 -160.5s91.5 -50.5 157.5 -50.5v0z" />
    <glyph glyph-name="germandbls" unicode="&#xdf;" horiz-adv-x="713" 
d="M528 295l-161.001 -0.000976562l-244 -295h-130l265 305c-8.66699 1.33301 -19.167 3.33301 -31.5 6s-25.166 7.33398 -38.499 14.001c-22.667 10.667 -43.667 28.5 -63 53.5s-29 60.833 -29 107.5c0 64 24 122.667 72 176s126.667 80 236 80h319l-158 -742h-99l62 295v0
zM605.999 657.999l-208.997 -0.000976562c-10.667 0 -22.334 -0.833008 -35.001 -2.5s-25.334 -4.5 -38.001 -8.5c-30.667 -10 -58.834 -27.667 -84.501 -53s-38.5 -61.666 -38.5 -108.999c0 -40.667 14.667 -68.5 44 -83.5s65 -22.5 107 -22.5h194l60 279v0z" />
    <glyph glyph-name="germandbls" unicode="&#x42f;" horiz-adv-x="713" 
d="M528 295l-161.001 -0.000976562l-244 -295h-130l265 305c-8.66699 1.33301 -19.167 3.33301 -31.5 6s-25.166 7.33398 -38.499 14.001c-22.667 10.667 -43.667 28.5 -63 53.5s-29 60.833 -29 107.5c0 64 24 122.667 72 176s126.667 80 236 80h319l-158 -742h-99l62 295v0
zM605.999 657.999l-208.997 -0.000976562c-10.667 0 -22.334 -0.833008 -35.001 -2.5s-25.334 -4.5 -38.001 -8.5c-30.667 -10 -58.834 -27.667 -84.501 -53s-38.5 -61.666 -38.5 -108.999c0 -40.667 14.667 -68.5 44 -83.5s65 -22.5 107 -22.5h194l60 279v0z" />
    <glyph glyph-name="agrave" unicode="&#xe0;" horiz-adv-x="588" 
d="M171 380h-88.999c1.33301 7.33301 3.16602 15 5.49902 23s5.16602 16 8.49902 24c13.333 31.333 37.833 60.166 73.5 86.499s90.5 39.5 164.5 39.5c72.667 0 122.5 -10.833 149.5 -32.5s42.167 -45.5 45.5 -71.5c0.666992 -3.33301 1.16699 -6.83301 1.5 -10.5
s0.5 -7.16699 0.5 -10.5c0 -7.33301 -0.5 -14.5 -1.5 -21.5s-2.16699 -13.5 -3.5 -19.5c-0.666992 -2 -1.16699 -3.66699 -1.5 -5s-0.5 -2.66602 -0.5 -3.99902l-58 -249c-1.33301 -6 -2.5 -11.667 -3.5 -17s-1.5 -10.333 -1.5 -15c0 -8.66699 2.33301 -15.834 7 -21.501
s13.334 -8.5 26.001 -8.5c1.33301 0 2.5 0.166992 3.5 0.5s2.16699 0.5 3.5 0.5s2.83301 0.166992 4.5 0.5s3.16699 0.5 4.5 0.5l-15 -69h-6h-6c-3.33301 -0.666992 -6.66602 -1.16699 -9.99902 -1.5s-6.66602 -0.5 -9.99902 -0.5h-4h-4c-25.333 0 -43.5 4.16699 -54.5 12.5
s-17.833 17.5 -20.5 27.5c-0.666992 2.66699 -1.16699 5.16699 -1.5 7.5s-0.5 4.83301 -0.5 7.5v12c-24.667 -27.333 -52.334 -47.833 -83.001 -61.5s-66 -20.5 -106 -20.5c-58.667 0 -100.667 9.33301 -126 28s-41.666 39.334 -48.999 62.001
c-2 7.33301 -3.5 14.5 -4.5 21.5s-1.5 13.833 -1.5 20.5c0 80 30.667 132 92 156s132.333 39.333 213 46c4 0 7.83301 0.166992 11.5 0.5s7.16699 0.833008 10.5 1.5c30.667 2 55.167 7.5 73.5 16.5s27.5 34.833 27.5 77.5c0 4 -0.333008 8.83301 -1 14.5
s-2.33398 11.167 -5.00098 16.5c-4.66699 11.333 -14 21.5 -28 30.5s-36.667 13.5 -68 13.5c-38.667 0 -68.834 -5.83301 -90.501 -17.5s-38.167 -24.5 -49.5 -38.5c-8 -10.667 -13.667 -21 -17 -31s-5.33301 -17 -6 -21v0zM398.001 230l9.99902 39.999l-0.5 -0.5
c-0.333008 -0.333008 -0.833008 -0.5 -1.5 -0.5c-7.33301 -5.33301 -15.333 -9 -24 -11s-21 -4 -37 -6c-2 0 -4 -0.166992 -6 -0.5s-4 -0.5 -6 -0.5c-1.33301 0 -2.66602 -0.166992 -3.99902 -0.5s-3 -0.5 -5 -0.5l-21 -2l-22 -2c-44 -4.66699 -84.5 -14.334 -121.5 -29.001
s-55.5 -45 -55.5 -91c0 -22.667 5.16699 -39.167 15.5 -49.5s21.5 -17.166 33.5 -20.499c8 -2.66699 15.5 -4.16699 22.5 -4.5s12.833 -0.5 17.5 -0.5c46 0 82.5 9.83301 109.5 29.5s47.5 41.5 61.5 65.5c10.667 16.667 18.5 32.834 23.5 48.501s8.5 27.5 10.5 35.5v0z" />
    <glyph glyph-name="agrave" unicode="&#x430;" horiz-adv-x="588" 
d="M171 380h-88.999c1.33301 7.33301 3.16602 15 5.49902 23s5.16602 16 8.49902 24c13.333 31.333 37.833 60.166 73.5 86.499s90.5 39.5 164.5 39.5c72.667 0 122.5 -10.833 149.5 -32.5s42.167 -45.5 45.5 -71.5c0.666992 -3.33301 1.16699 -6.83301 1.5 -10.5
s0.5 -7.16699 0.5 -10.5c0 -7.33301 -0.5 -14.5 -1.5 -21.5s-2.16699 -13.5 -3.5 -19.5c-0.666992 -2 -1.16699 -3.66699 -1.5 -5s-0.5 -2.66602 -0.5 -3.99902l-58 -249c-1.33301 -6 -2.5 -11.667 -3.5 -17s-1.5 -10.333 -1.5 -15c0 -8.66699 2.33301 -15.834 7 -21.501
s13.334 -8.5 26.001 -8.5c1.33301 0 2.5 0.166992 3.5 0.5s2.16699 0.5 3.5 0.5s2.83301 0.166992 4.5 0.5s3.16699 0.5 4.5 0.5l-15 -69h-6h-6c-3.33301 -0.666992 -6.66602 -1.16699 -9.99902 -1.5s-6.66602 -0.5 -9.99902 -0.5h-4h-4c-25.333 0 -43.5 4.16699 -54.5 12.5
s-17.833 17.5 -20.5 27.5c-0.666992 2.66699 -1.16699 5.16699 -1.5 7.5s-0.5 4.83301 -0.5 7.5v12c-24.667 -27.333 -52.334 -47.833 -83.001 -61.5s-66 -20.5 -106 -20.5c-58.667 0 -100.667 9.33301 -126 28s-41.666 39.334 -48.999 62.001
c-2 7.33301 -3.5 14.5 -4.5 21.5s-1.5 13.833 -1.5 20.5c0 80 30.667 132 92 156s132.333 39.333 213 46c4 0 7.83301 0.166992 11.5 0.5s7.16699 0.833008 10.5 1.5c30.667 2 55.167 7.5 73.5 16.5s27.5 34.833 27.5 77.5c0 4 -0.333008 8.83301 -1 14.5
s-2.33398 11.167 -5.00098 16.5c-4.66699 11.333 -14 21.5 -28 30.5s-36.667 13.5 -68 13.5c-38.667 0 -68.834 -5.83301 -90.501 -17.5s-38.167 -24.5 -49.5 -38.5c-8 -10.667 -13.667 -21 -17 -31s-5.33301 -17 -6 -21v0zM398.001 230l9.99902 39.999l-0.5 -0.5
c-0.333008 -0.333008 -0.833008 -0.5 -1.5 -0.5c-7.33301 -5.33301 -15.333 -9 -24 -11s-21 -4 -37 -6c-2 0 -4 -0.166992 -6 -0.5s-4 -0.5 -6 -0.5c-1.33301 0 -2.66602 -0.166992 -3.99902 -0.5s-3 -0.5 -5 -0.5l-21 -2l-22 -2c-44 -4.66699 -84.5 -14.334 -121.5 -29.001
s-55.5 -45 -55.5 -91c0 -22.667 5.16699 -39.167 15.5 -49.5s21.5 -17.166 33.5 -20.499c8 -2.66699 15.5 -4.16699 22.5 -4.5s12.833 -0.5 17.5 -0.5c46 0 82.5 9.83301 109.5 29.5s47.5 41.5 61.5 65.5c10.667 16.667 18.5 32.834 23.5 48.501s8.5 27.5 10.5 35.5v0z" />
    <glyph glyph-name="aacute" unicode="&#xe1;" horiz-adv-x="648" 
d="M583 777l80 0.000976562c-9.33301 -35.333 -26.666 -61.166 -51.999 -77.499s-52.666 -27.833 -81.999 -34.5c-14 -3.33301 -27.667 -5.83301 -41 -7.5s-26 -3.16699 -38 -4.5c-11.333 -1.33301 -22.833 -2.83301 -34.5 -4.5s-23.167 -3.83398 -34.5 -6.50098
c-46 -9.33301 -89.667 -29.5 -131 -60.5s-70.666 -85.167 -87.999 -162.5h2c21.333 30 50.5 57.333 87.5 82s85.5 37 145.5 37c8 0 21.5 -0.833008 40.5 -2.5s39.167 -6.5 60.5 -14.5c27.333 -10 52.166 -27.833 74.499 -53.5s33.5 -64.167 33.5 -115.5
c0 -12.667 -0.5 -25.667 -1.5 -39s-2.5 -26.666 -4.5 -39.999c-12 -72.667 -42.5 -139.334 -91.5 -200.001s-123.167 -91 -222.5 -91c-12.667 0 -26.334 0.666992 -41.001 2s-30 4 -46 8c-34.667 8.66699 -66.334 29.167 -95.001 61.5s-43 86.5 -43 162.5
c0 164.667 27.5 281.667 82.5 351s115.167 115.333 180.5 138c31.333 10.667 61.833 18.167 91.5 22.5s56.5 7.83301 80.5 10.5c26.667 3.33301 46.167 7.66602 58.5 12.999s21.833 14 28.5 26v0zM161 259.001c-2.66699 -12.667 -4.49902 -25.334 -5.49902 -38.001
s-1.5 -25.667 -1.5 -39c0 -40 7.5 -69.333 22.5 -88s31.5 -31.334 49.5 -38.001c11.333 -4 22.166 -6.5 32.499 -7.5s18.833 -1.5 25.5 -1.5c61.333 0 108 19.5 140 58.5s54.333 81.833 67 128.5c4.66699 19.333 8.16699 38.333 10.5 57s3.5 36 3.5 52
c0 44.667 -12.167 77.334 -36.5 98.001s-55.833 31 -94.5 31c-60 0 -107.5 -19.667 -142.5 -59s-58.5 -90.666 -70.5 -153.999v0z" />
    <glyph glyph-name="aacute" unicode="&#x431;" horiz-adv-x="648" 
d="M583 777l80 0.000976562c-9.33301 -35.333 -26.666 -61.166 -51.999 -77.499s-52.666 -27.833 -81.999 -34.5c-14 -3.33301 -27.667 -5.83301 -41 -7.5s-26 -3.16699 -38 -4.5c-11.333 -1.33301 -22.833 -2.83301 -34.5 -4.5s-23.167 -3.83398 -34.5 -6.50098
c-46 -9.33301 -89.667 -29.5 -131 -60.5s-70.666 -85.167 -87.999 -162.5h2c21.333 30 50.5 57.333 87.5 82s85.5 37 145.5 37c8 0 21.5 -0.833008 40.5 -2.5s39.167 -6.5 60.5 -14.5c27.333 -10 52.166 -27.833 74.499 -53.5s33.5 -64.167 33.5 -115.5
c0 -12.667 -0.5 -25.667 -1.5 -39s-2.5 -26.666 -4.5 -39.999c-12 -72.667 -42.5 -139.334 -91.5 -200.001s-123.167 -91 -222.5 -91c-12.667 0 -26.334 0.666992 -41.001 2s-30 4 -46 8c-34.667 8.66699 -66.334 29.167 -95.001 61.5s-43 86.5 -43 162.5
c0 164.667 27.5 281.667 82.5 351s115.167 115.333 180.5 138c31.333 10.667 61.833 18.167 91.5 22.5s56.5 7.83301 80.5 10.5c26.667 3.33301 46.167 7.66602 58.5 12.999s21.833 14 28.5 26v0zM161 259.001c-2.66699 -12.667 -4.49902 -25.334 -5.49902 -38.001
s-1.5 -25.667 -1.5 -39c0 -40 7.5 -69.333 22.5 -88s31.5 -31.334 49.5 -38.001c11.333 -4 22.166 -6.5 32.499 -7.5s18.833 -1.5 25.5 -1.5c61.333 0 108 19.5 140 58.5s54.333 81.833 67 128.5c4.66699 19.333 8.16699 38.333 10.5 57s3.5 36 3.5 52
c0 44.667 -12.167 77.334 -36.5 98.001s-55.833 31 -94.5 31c-60 0 -107.5 -19.667 -142.5 -59s-58.5 -90.666 -70.5 -153.999v0z" />
    <glyph glyph-name="acircumflex" unicode="&#xe2;" horiz-adv-x="567" 
d="M134 539l229.001 0.00195312c48 0 87.333 -7 118 -21s46 -45 46 -93c0 -33.333 -9.5 -63 -28.5 -89s-44.5 -44.333 -76.5 -55v-3c25.333 -8 43.833 -18.833 55.5 -32.5s19.167 -27.834 22.5 -42.501c1.33301 -4.66699 2.16602 -9.16699 2.49902 -13.5s0.5 -8.5 0.5 -12.5
c0 -48.667 -17 -90.334 -51 -125.001s-89 -52 -165 -52h-268l115 539v0zM166.001 248.002l-39 -182.002h136c7.33301 0 16.833 0.333008 28.5 1s23.5 2.33398 35.5 5.00098c19.333 4.66699 37.166 13.834 53.499 27.501s24.5 35.5 24.5 65.5c0 26 -6.16699 44.667 -18.5 56
s-26.166 19 -41.499 23c-8.66699 2 -17 3.16699 -25 3.5s-15 0.5 -21 0.5h-133v0zM213.001 473l-32.998 -159.002h128c40 0 69.167 6.83301 87.5 20.5s30.166 28.834 35.499 45.501c1.33301 4.66699 2.33301 9.33398 3 14.001s1 9 1 13c0 24 -6.33301 40.333 -19 49
s-26.667 14 -42 16c-4.66699 0.666992 -9.33398 1 -14.001 1h-13h-134v0z" />
    <glyph glyph-name="acircumflex" unicode="&#x432;" horiz-adv-x="567" 
d="M134 539l229.001 0.00195312c48 0 87.333 -7 118 -21s46 -45 46 -93c0 -33.333 -9.5 -63 -28.5 -89s-44.5 -44.333 -76.5 -55v-3c25.333 -8 43.833 -18.833 55.5 -32.5s19.167 -27.834 22.5 -42.501c1.33301 -4.66699 2.16602 -9.16699 2.49902 -13.5s0.5 -8.5 0.5 -12.5
c0 -48.667 -17 -90.334 -51 -125.001s-89 -52 -165 -52h-268l115 539v0zM166.001 248.002l-39 -182.002h136c7.33301 0 16.833 0.333008 28.5 1s23.5 2.33398 35.5 5.00098c19.333 4.66699 37.166 13.834 53.499 27.501s24.5 35.5 24.5 65.5c0 26 -6.16699 44.667 -18.5 56
s-26.166 19 -41.499 23c-8.66699 2 -17 3.16699 -25 3.5s-15 0.5 -21 0.5h-133v0zM213.001 473l-32.998 -159.002h128c40 0 69.167 6.83301 87.5 20.5s30.166 28.834 35.499 45.501c1.33301 4.66699 2.33301 9.33398 3 14.001s1 9 1 13c0 24 -6.33301 40.333 -19 49
s-26.667 14 -42 16c-4.66699 0.666992 -9.33398 1 -14.001 1h-13h-134v0z" />
    <glyph glyph-name="atilde" unicode="&#xe3;" horiz-adv-x="460" 
d="M214 473l-100 -473h-95l114 539h370l-14 -66h-275v0z" />
    <glyph glyph-name="atilde" unicode="&#x433;" horiz-adv-x="460" 
d="M214 473l-100 -473h-95l114 539h370l-14 -66h-275v0z" />
    <glyph glyph-name="adieresis" unicode="&#xe4;" horiz-adv-x="638" 
d="M-44 66h68.001c10.667 12.667 22.5 28 35.5 46s26.5 39.667 40.5 65c17.333 32 34.166 70.333 50.499 115s30.5 96.667 42.5 156l18 91h388l-101 -473h93l-52 -206h-78l30 140h-462l-30 -140h-78l35 206v0zM491.001 473l-199.001 0.000976562l-16 -75
c-9.33301 -42.667 -19.666 -80.834 -30.999 -114.501s-23 -63.167 -35 -88.5c-15.333 -33.333 -30.333 -60.333 -45 -81s-26.667 -36.667 -36 -48h275l87 407v0z" />
    <glyph glyph-name="adieresis" unicode="&#x434;" horiz-adv-x="638" 
d="M-44 66h68.001c10.667 12.667 22.5 28 35.5 46s26.5 39.667 40.5 65c17.333 32 34.166 70.333 50.499 115s30.5 96.667 42.5 156l18 91h388l-101 -473h93l-52 -206h-78l30 140h-462l-30 -140h-78l35 206v0zM491.001 473l-199.001 0.000976562l-16 -75
c-9.33301 -42.667 -19.666 -80.834 -30.999 -114.501s-23 -63.167 -35 -88.5c-15.333 -33.333 -30.333 -60.333 -45 -81s-26.667 -36.667 -36 -48h275l87 407v0z" />
    <glyph glyph-name="aring" unicode="&#xe5;" horiz-adv-x="607" 
d="M441 156l93.002 0.000976562c-13.333 -38 -30.5 -68.167 -51.5 -90.5s-42.833 -39.833 -65.5 -52.5c-26 -12.667 -50.667 -20.667 -74 -24s-41 -5 -53 -5c-14 0 -30.5 0.5 -49.5 1.5s-38.833 3.83301 -59.5 8.5c-36 8.66699 -69 27.334 -99 56.001s-45 76 -45 142
c0 10.667 0.333008 21.334 1 32.001s1.66699 21.334 3 32.001c10 74.667 40.667 143.334 92 206.001s132 94 242 94c10.667 0 23 -0.666992 37 -2s28 -4.33301 42 -9c29.333 -8.66699 56.333 -26.334 81 -53.001s37 -68.334 37 -125.001c0 -6 -0.166992 -12 -0.5 -18
s-0.833008 -12.333 -1.5 -19l-2 -22.5c-0.666992 -7.66699 -1.33398 -14.834 -2.00098 -21.501l-3.5 -22.5l-2.5 -15.5h-421c-1.33301 -7.33301 -2.5 -15.833 -3.5 -25.5s-1.5 -19.834 -1.5 -30.501c0 -4.66699 0.166992 -9.33398 0.5 -14.001
s0.833008 -9.33398 1.5 -14.001c3.33301 -28.667 14.666 -55 33.999 -79s53 -36 101 -36c9.33301 0 22.333 0.833008 39 2.5s33.667 6.83398 51 15.501c15.333 6.66699 30 17.167 44 31.5s26 33.5 36 57.5v0zM155.002 314.001l320 -0.00195312
c1.33301 4.66699 2.16602 9.16699 2.49902 13.5s0.833008 8.83301 1.5 13.5c0.666992 4 1 8.16699 1 12.5v13.5c0 6.66699 -0.333008 14.834 -1 24.501s-2.66699 19.5 -6 29.5c-5.33301 18 -16.166 34.167 -32.499 48.5s-42.833 21.5 -79.5 21.5
c-60 0 -106.667 -18.167 -140 -54.5s-55 -76.166 -65 -119.499c-0.666992 -0.666992 -1 -1.16699 -1 -1.5v-1.5v0z" />
    <glyph glyph-name="aring" unicode="&#x435;" horiz-adv-x="607" 
d="M441 156l93.002 0.000976562c-13.333 -38 -30.5 -68.167 -51.5 -90.5s-42.833 -39.833 -65.5 -52.5c-26 -12.667 -50.667 -20.667 -74 -24s-41 -5 -53 -5c-14 0 -30.5 0.5 -49.5 1.5s-38.833 3.83301 -59.5 8.5c-36 8.66699 -69 27.334 -99 56.001s-45 76 -45 142
c0 10.667 0.333008 21.334 1 32.001s1.66699 21.334 3 32.001c10 74.667 40.667 143.334 92 206.001s132 94 242 94c10.667 0 23 -0.666992 37 -2s28 -4.33301 42 -9c29.333 -8.66699 56.333 -26.334 81 -53.001s37 -68.334 37 -125.001c0 -6 -0.166992 -12 -0.5 -18
s-0.833008 -12.333 -1.5 -19l-2 -22.5c-0.666992 -7.66699 -1.33398 -14.834 -2.00098 -21.501l-3.5 -22.5l-2.5 -15.5h-421c-1.33301 -7.33301 -2.5 -15.833 -3.5 -25.5s-1.5 -19.834 -1.5 -30.501c0 -4.66699 0.166992 -9.33398 0.5 -14.001
s0.833008 -9.33398 1.5 -14.001c3.33301 -28.667 14.666 -55 33.999 -79s53 -36 101 -36c9.33301 0 22.333 0.833008 39 2.5s33.667 6.83398 51 15.501c15.333 6.66699 30 17.167 44 31.5s26 33.5 36 57.5v0zM155.002 314.001l320 -0.00195312
c1.33301 4.66699 2.16602 9.16699 2.49902 13.5s0.833008 8.83301 1.5 13.5c0.666992 4 1 8.16699 1 12.5v13.5c0 6.66699 -0.333008 14.834 -1 24.501s-2.66699 19.5 -6 29.5c-5.33301 18 -16.166 34.167 -32.499 48.5s-42.833 21.5 -79.5 21.5
c-60 0 -106.667 -18.167 -140 -54.5s-55 -76.166 -65 -119.499c-0.666992 -0.666992 -1 -1.16699 -1 -1.5v-1.5v0z" />
    <glyph glyph-name="ae" unicode="&#xe6;" horiz-adv-x="743" 
d="M268 0l58 266l-258 -266h-122l296 284l-174 255h110l154 -244l50 244h94l-53 -244l243 244h117l-275 -259l182 -280h-115l-158 266l-55 -266h-94v0z" />
    <glyph glyph-name="ae" unicode="&#x436;" horiz-adv-x="743" 
d="M268 0l58 266l-258 -266h-122l296 284l-174 255h110l154 -244l50 244h94l-53 -244l243 244h117l-275 -259l182 -280h-115l-158 266l-55 -266h-94v0z" />
    <glyph glyph-name="ccedilla" unicode="&#xe7;" horiz-adv-x="549" 
d="M13 165l87.9971 -0.00292969c-0.666992 -2.66699 -1.16699 -5.83398 -1.5 -9.50098s-0.5 -7.5 -0.5 -11.5c0 -2.66699 0.166992 -5.5 0.5 -8.5s0.833008 -6.16699 1.5 -9.5c3.33301 -19.333 14 -37.166 32 -53.499s47 -24.5 87 -24.5c54.667 0 95.334 12.333 122.001 37
s40.334 51.667 41.001 81v1.5v1.5c0 4 -0.333008 8.33301 -1 13s-2 9.33398 -4 14.001c-4.66699 12.667 -14.334 24.334 -29.001 35.001s-37.667 16 -69 16h-79l14 66h69c51.333 0 86.5 9.66699 105.5 29s28.5 40.666 28.5 63.999c0 28 -10.167 48.667 -30.5 62
s-45.5 20 -75.5 20h-8.5c-3 0 -5.83301 -0.333008 -8.5 -1c-29.333 -2 -56.833 -10.667 -82.5 -26s-42.5 -38.666 -50.5 -69.999l-87 -1c10 42 26.833 74.167 50.5 96.5s48.834 38.5 75.501 48.5c22 8.66699 43.167 14 63.5 16s36.833 3 49.5 3c10 0 23 -0.5 39 -1.5
s32.667 -3.5 50 -7.5c26.667 -6 51.167 -17.333 73.5 -34s33.5 -43 33.5 -79c0 -10 -0.833008 -20.667 -2.5 -32s-5.16699 -23 -10.5 -35c-6.66699 -16 -17.167 -31.333 -31.5 -46s-34.5 -27.334 -60.5 -38.001v-3c21.333 -3.33301 39.5 -13.666 54.5 -30.999
s22.5 -40 22.5 -68c0 -7.33301 -1.33301 -20 -4 -38s-9.66699 -37 -21 -57c-14 -26 -37.5 -49.333 -70.5 -70s-81.5 -31 -145.5 -31c-78 0 -133.5 11.667 -166.5 35s-53.167 49.333 -60.5 78c-1.33301 6 -2.33301 12 -3 18s-1 12 -1 18s0.333008 11.833 1 17.5
s1.33398 10.834 2.00098 15.501v0z" />
    <glyph glyph-name="ccedilla" unicode="&#x437;" horiz-adv-x="549" 
d="M13 165l87.9971 -0.00292969c-0.666992 -2.66699 -1.16699 -5.83398 -1.5 -9.50098s-0.5 -7.5 -0.5 -11.5c0 -2.66699 0.166992 -5.5 0.5 -8.5s0.833008 -6.16699 1.5 -9.5c3.33301 -19.333 14 -37.166 32 -53.499s47 -24.5 87 -24.5c54.667 0 95.334 12.333 122.001 37
s40.334 51.667 41.001 81v1.5v1.5c0 4 -0.333008 8.33301 -1 13s-2 9.33398 -4 14.001c-4.66699 12.667 -14.334 24.334 -29.001 35.001s-37.667 16 -69 16h-79l14 66h69c51.333 0 86.5 9.66699 105.5 29s28.5 40.666 28.5 63.999c0 28 -10.167 48.667 -30.5 62
s-45.5 20 -75.5 20h-8.5c-3 0 -5.83301 -0.333008 -8.5 -1c-29.333 -2 -56.833 -10.667 -82.5 -26s-42.5 -38.666 -50.5 -69.999l-87 -1c10 42 26.833 74.167 50.5 96.5s48.834 38.5 75.501 48.5c22 8.66699 43.167 14 63.5 16s36.833 3 49.5 3c10 0 23 -0.5 39 -1.5
s32.667 -3.5 50 -7.5c26.667 -6 51.167 -17.333 73.5 -34s33.5 -43 33.5 -79c0 -10 -0.833008 -20.667 -2.5 -32s-5.16699 -23 -10.5 -35c-6.66699 -16 -17.167 -31.333 -31.5 -46s-34.5 -27.334 -60.5 -38.001v-3c21.333 -3.33301 39.5 -13.666 54.5 -30.999
s22.5 -40 22.5 -68c0 -7.33301 -1.33301 -20 -4 -38s-9.66699 -37 -21 -57c-14 -26 -37.5 -49.333 -70.5 -70s-81.5 -31 -145.5 -31c-78 0 -133.5 11.667 -166.5 35s-53.167 49.333 -60.5 78c-1.33301 6 -2.33301 12 -3 18s-1 12 -1 18s0.333008 11.833 1 17.5
s1.33398 10.834 2.00098 15.501v0z" />
    <glyph glyph-name="egrave" unicode="&#xe8;" horiz-adv-x="631" 
d="M137 109l356 430h119l-114 -539h-94l91 430l-357 -430h-119l115 539h94l-91 -430v0z" />
    <glyph glyph-name="egrave" unicode="&#x438;" horiz-adv-x="631" 
d="M137 109l356 430h119l-114 -539h-94l91 430l-357 -430h-119l115 539h94l-91 -430v0z" />
    <glyph glyph-name="eacute" unicode="&#xe9;" horiz-adv-x="631" 
d="M137 109l356 430h119l-114 -539h-94l91 430l-357 -430h-119l115 539h94l-91 -430v0zM225 742l78 -0.00292969c-0.666992 -2 -1 -4 -1 -6v-7c0 -3.33301 0.166992 -6.66602 0.5 -9.99902s0.833008 -6.66602 1.5 -9.99902c3.33301 -12.667 11.166 -24.334 23.499 -35.001
s32.833 -16 61.5 -16c29.333 0 54.166 6.33301 74.499 19s35.833 34.334 46.5 65.001h79c-11.333 -30.667 -25.5 -55.167 -42.5 -73.5s-34.5 -32.5 -52.5 -42.5c-20 -10.667 -39.5 -17.334 -58.5 -20.001s-33.833 -4 -44.5 -4c-55.333 0 -95.166 10.833 -119.499 32.5
s-38.833 45.167 -43.5 70.5c-1.33301 4.66699 -2.16602 9.33398 -2.49902 14.001s-0.5 9.33398 -0.5 14.001v4.5v4.5v0z" />
    <glyph glyph-name="eacute" unicode="&#x439;" horiz-adv-x="631" 
d="M137 109l356 430h119l-114 -539h-94l91 430l-357 -430h-119l115 539h94l-91 -430v0zM225 742l78 -0.00292969c-0.666992 -2 -1 -4 -1 -6v-7c0 -3.33301 0.166992 -6.66602 0.5 -9.99902s0.833008 -6.66602 1.5 -9.99902c3.33301 -12.667 11.166 -24.334 23.499 -35.001
s32.833 -16 61.5 -16c29.333 0 54.166 6.33301 74.499 19s35.833 34.334 46.5 65.001h79c-11.333 -30.667 -25.5 -55.167 -42.5 -73.5s-34.5 -32.5 -52.5 -42.5c-20 -10.667 -39.5 -17.334 -58.5 -20.001s-33.833 -4 -44.5 -4c-55.333 0 -95.166 10.833 -119.499 32.5
s-38.833 45.167 -43.5 70.5c-1.33301 4.66699 -2.16602 9.33398 -2.49902 14.001s-0.5 9.33398 -0.5 14.001v4.5v4.5v0z" />
    <glyph glyph-name="ecircumflex" unicode="&#xea;" horiz-adv-x="519" 
d="M175 296l265 243h119l-296 -258l202 -281h-111l-185 269l-56 -269h-94l115 539h94l-53 -243v0z" />
    <glyph glyph-name="ecircumflex" unicode="&#x43a;" horiz-adv-x="519" 
d="M175 296l265 243h119l-296 -258l202 -281h-111l-185 269l-56 -269h-94l115 539h94l-53 -243v0z" />
    <glyph glyph-name="edieresis" unicode="&#xeb;" horiz-adv-x="600" 
d="M-43 0l14.001 69c2 0 3.66699 -0.166992 5 -0.5s2.66602 -0.5 3.99902 -0.5c2.66699 -0.666992 5.33398 -1 8.00098 -1h8c48.667 0 84.167 27.167 106.5 81.5s40.833 116.833 55.5 187.5l41 203h382l-115 -539h-94l101 473h-198l-28 -137
c-18.667 -92 -44.334 -171.5 -77.001 -238.5s-88.667 -100.5 -168 -100.5c-6.66699 0 -13.667 0.333008 -21 1l-23 2h-1z" />
    <glyph glyph-name="edieresis" unicode="&#x43b;" horiz-adv-x="600" 
d="M-43 0l14.001 69c2 0 3.66699 -0.166992 5 -0.5s2.66602 -0.5 3.99902 -0.5c2.66699 -0.666992 5.33398 -1 8.00098 -1h8c48.667 0 84.167 27.167 106.5 81.5s40.833 116.833 55.5 187.5l41 203h382l-115 -539h-94l101 473h-198l-28 -137
c-18.667 -92 -44.334 -171.5 -77.001 -238.5s-88.667 -100.5 -168 -100.5c-6.66699 0 -13.667 0.333008 -21 1l-23 2h-1z" />
    <glyph glyph-name="igrave" unicode="&#xec;" horiz-adv-x="777" 
d="M294 0l-90 432h-2l-4 -28l-86 -404h-93l114 539h129l90 -438l265 438h141l-115 -539h-94l86 404l9 28h-3l-263 -432h-84v0z" />
    <glyph glyph-name="igrave" unicode="&#x43c;" horiz-adv-x="777" 
d="M294 0l-90 432h-2l-4 -28l-86 -404h-93l114 539h129l90 -438l265 438h141l-115 -539h-94l86 404l9 28h-3l-263 -432h-84v0z" />
    <glyph glyph-name="iacute" unicode="&#xed;" horiz-adv-x="607" 
d="M166 251l-53 -251h-94l114 539h94l-47 -222h267l47 222h94l-115 -539h-94l54 251h-267v0z" />
    <glyph glyph-name="iacute" unicode="&#x43d;" horiz-adv-x="607" 
d="M166 251l-53 -251h-94l114 539h94l-47 -222h267l47 222h94l-115 -539h-94l54 251h-267v0z" />
    <glyph glyph-name="icircumflex" unicode="&#xee;" horiz-adv-x="621" 
d="M46 284c3.33301 15.333 8.33301 33.333 15 54s15.667 41.667 27 63c21.333 40 53.166 76.5 95.499 109.5s100.5 49.5 174.5 49.5c81.333 0 139.333 -21.333 174 -64s52 -97 52 -163c0 -19.333 -1.66699 -40.333 -5 -63s-9 -45.667 -17 -69
c-18.667 -55.333 -51.667 -106 -99 -152s-114.333 -69 -201 -69c-62.667 0 -109.5 11.833 -140.5 35.5s-52.833 50.167 -65.5 79.5c-8.66699 21.333 -14 41.833 -16 61.5s-3 34.167 -3 43.5c0 14 0.833008 28 2.5 42s3.83398 28 6.50098 42v0zM143 261l-4.00098 -30
c-1.33301 -10 -2 -20.333 -2 -31c0 -44.667 10.333 -81.667 31 -111s54 -44 100 -44c59.333 0 105.333 20.5 138 61.5s54.667 86.167 66 135.5c4 16 6.83301 31.833 8.5 47.5s2.5 30.5 2.5 44.5c0 44 -7 77 -21 99s-29.667 37.667 -47 47
c-13.333 6.66699 -26.166 10.667 -38.499 12s-20.833 2 -25.5 2c-46.667 0 -83.667 -12.5 -111 -37.5s-48.333 -52.833 -63 -83.5c-11.333 -23.333 -19.5 -45.5 -24.5 -66.5s-8.16699 -36.167 -9.5 -45.5v0z" />
    <glyph glyph-name="icircumflex" unicode="&#x43e;" horiz-adv-x="621" 
d="M46 284c3.33301 15.333 8.33301 33.333 15 54s15.667 41.667 27 63c21.333 40 53.166 76.5 95.499 109.5s100.5 49.5 174.5 49.5c81.333 0 139.333 -21.333 174 -64s52 -97 52 -163c0 -19.333 -1.66699 -40.333 -5 -63s-9 -45.667 -17 -69
c-18.667 -55.333 -51.667 -106 -99 -152s-114.333 -69 -201 -69c-62.667 0 -109.5 11.833 -140.5 35.5s-52.833 50.167 -65.5 79.5c-8.66699 21.333 -14 41.833 -16 61.5s-3 34.167 -3 43.5c0 14 0.833008 28 2.5 42s3.83398 28 6.50098 42v0zM143 261l-4.00098 -30
c-1.33301 -10 -2 -20.333 -2 -31c0 -44.667 10.333 -81.667 31 -111s54 -44 100 -44c59.333 0 105.333 20.5 138 61.5s54.667 86.167 66 135.5c4 16 6.83301 31.833 8.5 47.5s2.5 30.5 2.5 44.5c0 44 -7 77 -21 99s-29.667 37.667 -47 47
c-13.333 6.66699 -26.166 10.667 -38.499 12s-20.833 2 -25.5 2c-46.667 0 -83.667 -12.5 -111 -37.5s-48.333 -52.833 -63 -83.5c-11.333 -23.333 -19.5 -45.5 -24.5 -66.5s-8.16699 -36.167 -9.5 -45.5v0z" />
    <glyph glyph-name="idieresis" unicode="&#xef;" horiz-adv-x="613" 
d="M213 473l-100 -473h-94l114 539h461l-115 -539h-94l101 473h-273v0z" />
    <glyph glyph-name="idieresis" unicode="&#x43f;" horiz-adv-x="613" 
d="M213 473l-100 -473h-94l114 539h461l-115 -539h-94l101 473h-273v0z" />
    <glyph glyph-name="eth" unicode="&#xf0;" horiz-adv-x="634" 
d="M133 539l89.002 0.00195312l-17 -74h2c30.667 35.333 62.167 60.166 94.5 74.499s68.833 21.5 109.5 21.5c65.333 0 113 -19.5 143 -58.5s45 -89.167 45 -150.5c0 -14.667 -0.833008 -29.834 -2.5 -45.501s-4.16699 -31.167 -7.5 -46.5
c-14.667 -70 -45.834 -133.833 -93.501 -191.5s-113.167 -86.5 -196.5 -86.5c-50 0 -88.333 9.33301 -115 28s-45.334 41 -56.001 67l-58 -273h-93l156 735v0zM162.002 267.002c-2.66699 -11.333 -4.66895 -23.001 -6.00195 -35.001s-2 -24 -2 -36
c0 -5.33301 0.5 -14.833 1.5 -28.5s4.5 -28.5 10.5 -44.5c7.33301 -18.667 19.833 -36 37.5 -52s43.834 -24 78.501 -24c62.667 0 111.5 25.833 146.5 77.5s56.833 108.5 65.5 170.5c1.33301 10 2.33301 19.833 3 29.5s1 19.5 1 29.5c0 8 -0.5 16.833 -1.5 26.5
s-2.83301 19.834 -5.5 30.501c-6 20.667 -18 39.5 -36 56.5s-47.333 25.5 -88 25.5c-46.667 0 -88.667 -18.833 -126 -56.5s-63.666 -94.167 -78.999 -169.5v0z" />
    <glyph glyph-name="eth" unicode="&#x440;" horiz-adv-x="634" 
d="M133 539l89.002 0.00195312l-17 -74h2c30.667 35.333 62.167 60.166 94.5 74.499s68.833 21.5 109.5 21.5c65.333 0 113 -19.5 143 -58.5s45 -89.167 45 -150.5c0 -14.667 -0.833008 -29.834 -2.5 -45.501s-4.16699 -31.167 -7.5 -46.5
c-14.667 -70 -45.834 -133.833 -93.501 -191.5s-113.167 -86.5 -196.5 -86.5c-50 0 -88.333 9.33301 -115 28s-45.334 41 -56.001 67l-58 -273h-93l156 735v0zM162.002 267.002c-2.66699 -11.333 -4.66895 -23.001 -6.00195 -35.001s-2 -24 -2 -36
c0 -5.33301 0.5 -14.833 1.5 -28.5s4.5 -28.5 10.5 -44.5c7.33301 -18.667 19.833 -36 37.5 -52s43.834 -24 78.501 -24c62.667 0 111.5 25.833 146.5 77.5s56.833 108.5 65.5 170.5c1.33301 10 2.33301 19.833 3 29.5s1 19.5 1 29.5c0 8 -0.5 16.833 -1.5 26.5
s-2.83301 19.834 -5.5 30.501c-6 20.667 -18 39.5 -36 56.5s-47.333 25.5 -88 25.5c-46.667 0 -88.667 -18.833 -126 -56.5s-63.666 -94.167 -78.999 -169.5v0z" />
    <glyph glyph-name="ntilde" unicode="&#xf1;" horiz-adv-x="583" 
d="M439 192l90.001 -0.000976562c-2.66699 -11.333 -6.5 -23.333 -11.5 -36s-10.833 -25.667 -17.5 -39c-18 -34 -45.667 -65 -83 -93s-89 -42 -155 -42c-75.333 0 -131.5 19.667 -168.5 59s-55.5 91.333 -55.5 156c0 16 1 32.5 3 49.5s5 34.167 9 51.5
c15.333 64.667 47 124.167 95 178.5s117 81.5 207 81.5c65.333 0 112.666 -11.167 141.999 -33.5s48.666 -46.5 57.999 -72.5c2.66699 -10 4.66699 -19.667 6 -29s2 -18 2 -26v-27h-88c-0.666992 40.667 -8.83398 69.5 -24.501 86.5s-33.167 27.833 -52.5 32.5
c-7.33301 1.33301 -14.666 2.33301 -21.999 3s-14 1 -20 1c-64 0 -113.667 -26.167 -149 -78.5s-56.666 -110.166 -63.999 -173.499c-1.33301 -8 -2.16602 -16.167 -2.49902 -24.5s-0.5 -16.5 -0.5 -24.5c0 -42 10.667 -76.667 32 -104s55.666 -41 102.999 -41
c10 0 21 1 33 3s24 5.66699 36 11c18.667 9.33301 36.667 24 54 44s32 49 44 87v0z" />
    <glyph glyph-name="ntilde" unicode="&#x441;" horiz-adv-x="583" 
d="M439 192l90.001 -0.000976562c-2.66699 -11.333 -6.5 -23.333 -11.5 -36s-10.833 -25.667 -17.5 -39c-18 -34 -45.667 -65 -83 -93s-89 -42 -155 -42c-75.333 0 -131.5 19.667 -168.5 59s-55.5 91.333 -55.5 156c0 16 1 32.5 3 49.5s5 34.167 9 51.5
c15.333 64.667 47 124.167 95 178.5s117 81.5 207 81.5c65.333 0 112.666 -11.167 141.999 -33.5s48.666 -46.5 57.999 -72.5c2.66699 -10 4.66699 -19.667 6 -29s2 -18 2 -26v-27h-88c-0.666992 40.667 -8.83398 69.5 -24.501 86.5s-33.167 27.833 -52.5 32.5
c-7.33301 1.33301 -14.666 2.33301 -21.999 3s-14 1 -20 1c-64 0 -113.667 -26.167 -149 -78.5s-56.666 -110.166 -63.999 -173.499c-1.33301 -8 -2.16602 -16.167 -2.49902 -24.5s-0.5 -16.5 -0.5 -24.5c0 -42 10.667 -76.667 32 -104s55.666 -41 102.999 -41
c10 0 21 1 33 3s24 5.66699 36 11c18.667 9.33301 36.667 24 54 44s32 49 44 87v0z" />
    <glyph glyph-name="ograve" unicode="&#xf2;" horiz-adv-x="493" 
d="M242 473h-185l15 66h464l-14 -66h-185l-100 -473h-95l100 473v0z" />
    <glyph glyph-name="ograve" unicode="&#x442;" horiz-adv-x="493" 
d="M242 473h-185l15 66h464l-14 -66h-185l-100 -473h-95l100 473v0z" />
    <glyph glyph-name="oacute" unicode="&#xf3;" horiz-adv-x="528" 
d="M-3 -195l14.9961 69.001c1.33301 0.666992 3.66602 0.666992 6.99902 0s7 -1 11 -1c0.666992 -0.666992 1.66699 -1 3 -1h3c4.66699 -0.666992 8.83398 -1.16699 12.501 -1.5s6.83398 -0.5 9.50098 -0.5c24.667 0 44.334 7.66699 59.001 23s28.334 34.666 41.001 57.999
c0.666992 1.33301 1.5 2.83301 2.5 4.5s1.83301 3.5 2.5 5.5l21 39l-120 539h112l80 -422l225 422h104l-342 -603l-17.5 -29l-16.5 -26c-17.333 -26 -36 -45.833 -56 -59.5s-46.333 -20.5 -79 -20.5c-14.667 0 -28.667 0.333008 -42 1s-24.666 2 -33.999 4z" />
    <glyph glyph-name="oacute" unicode="&#x443;" horiz-adv-x="528" 
d="M-3 -195l14.9961 69.001c1.33301 0.666992 3.66602 0.666992 6.99902 0s7 -1 11 -1c0.666992 -0.666992 1.66699 -1 3 -1h3c4.66699 -0.666992 8.83398 -1.16699 12.501 -1.5s6.83398 -0.5 9.50098 -0.5c24.667 0 44.334 7.66699 59.001 23s28.334 34.666 41.001 57.999
c0.666992 1.33301 1.5 2.83301 2.5 4.5s1.83301 3.5 2.5 5.5l21 39l-120 539h112l80 -422l225 422h104l-342 -603l-17.5 -29l-16.5 -26c-17.333 -26 -36 -45.833 -56 -59.5s-46.333 -20.5 -79 -20.5c-14.667 0 -28.667 0.333008 -42 1s-24.666 2 -33.999 4z" />
    <glyph glyph-name="ocircumflex" unicode="&#xf4;" horiz-adv-x="842" 
d="M275 -196l38.9971 182.001c-14 0.666992 -32.167 2.33398 -54.5 5.00098s-45.166 7.66699 -68.499 15c-37.333 12.667 -71.5 35.167 -102.5 67.5s-46.5 80.833 -46.5 145.5c0 11.333 0.5 22.666 1.5 33.999s2.83301 23 5.5 35c12.667 66 48.5 126.667 107.5 182
s151.5 82.666 277.5 81.999l41 190h94l-41 -190h5h6c14.667 0 31.667 -1 51 -3s39.333 -6 60 -12c38.667 -12 74.167 -33.667 106.5 -65s48.5 -80 48.5 -146c0 -16.667 -1.16699 -33.834 -3.5 -51.501s-6.16602 -35.5 -11.499 -53.5
c-16.667 -57.333 -53.667 -110.166 -111 -158.499s-147.666 -73.5 -270.999 -75.5l-39 -183h-94v0zM331.997 52.001l92 434h-7.5h-7.5c-86.667 0 -150.5 -23 -191.5 -69s-65.5 -96.667 -73.5 -152c-1.33301 -8 -2.33301 -16.167 -3 -24.5s-1 -16.5 -1 -24.5
c0 -47.333 10.833 -82.333 32.5 -105s45.5 -38.334 71.5 -47.001c16 -5.33301 31.333 -8.66602 46 -9.99902s27 -2 37 -2h1.5h1.5h0.5h1.5v0zM509.997 486.001l-92 -433.999c78 0 137 16.333 177 49s68.333 68.334 85 107.001c10 23.333 16.667 45.666 20 66.999
s5 39.666 5 54.999c0 56.667 -16.667 96 -50 118s-70 34.333 -110 37c-4.66699 0.666992 -9.16699 1 -13.5 1h-13.5h-2h-2h-2h-2v0z" />
    <glyph glyph-name="ocircumflex" unicode="&#x444;" horiz-adv-x="842" 
d="M275 -196l38.9971 182.001c-14 0.666992 -32.167 2.33398 -54.5 5.00098s-45.166 7.66699 -68.499 15c-37.333 12.667 -71.5 35.167 -102.5 67.5s-46.5 80.833 -46.5 145.5c0 11.333 0.5 22.666 1.5 33.999s2.83301 23 5.5 35c12.667 66 48.5 126.667 107.5 182
s151.5 82.666 277.5 81.999l41 190h94l-41 -190h5h6c14.667 0 31.667 -1 51 -3s39.333 -6 60 -12c38.667 -12 74.167 -33.667 106.5 -65s48.5 -80 48.5 -146c0 -16.667 -1.16699 -33.834 -3.5 -51.501s-6.16602 -35.5 -11.499 -53.5
c-16.667 -57.333 -53.667 -110.166 -111 -158.499s-147.666 -73.5 -270.999 -75.5l-39 -183h-94v0zM331.997 52.001l92 434h-7.5h-7.5c-86.667 0 -150.5 -23 -191.5 -69s-65.5 -96.667 -73.5 -152c-1.33301 -8 -2.33301 -16.167 -3 -24.5s-1 -16.5 -1 -24.5
c0 -47.333 10.833 -82.333 32.5 -105s45.5 -38.334 71.5 -47.001c16 -5.33301 31.333 -8.66602 46 -9.99902s27 -2 37 -2h1.5h1.5h0.5h1.5v0zM509.997 486.001l-92 -433.999c78 0 137 16.333 177 49s68.333 68.334 85 107.001c10 23.333 16.667 45.666 20 66.999
s5 39.666 5 54.999c0 56.667 -16.667 96 -50 118s-70 34.333 -110 37c-4.66699 0.666992 -9.16699 1 -13.5 1h-13.5h-2h-2h-2h-2v0z" />
    <glyph glyph-name="otilde" unicode="&#xf5;" horiz-adv-x="513" 
d="M271 336l167 203h117l-241 -265l142 -274h-105l-105 222l-185 -222h-118l260 288l-131 251h103l96 -203v0z" />
    <glyph glyph-name="otilde" unicode="&#x445;" horiz-adv-x="513" 
d="M271 336l167 203h117l-241 -265l142 -274h-105l-105 222l-185 -222h-118l260 288l-131 251h103l96 -203v0z" />
    <glyph glyph-name="odieresis" unicode="&#xf6;" horiz-adv-x="632" 
d="M127 66h270l100 473h94l-100 -473h95l-53 -206h-78l30 140h-466l115 539h94l-101 -473v0z" />
    <glyph glyph-name="odieresis" unicode="&#x446;" horiz-adv-x="632" 
d="M127 66h270l100 473h94l-100 -473h95l-53 -206h-78l30 140h-466l115 539h94l-101 -473v0z" />
    <glyph glyph-name="divide" unicode="&#xf7;" horiz-adv-x="539" 
d="M104 539l90 -0.000976562l-35 -166c-0.666992 -4 -1.5 -8.16699 -2.5 -12.5s-1.83301 -8.83301 -2.5 -13.5c-0.666992 -2 -1 -4.16699 -1 -6.5v-6.5c0 -7.33301 1.5 -14.166 4.5 -20.499s8.16699 -11.833 15.5 -16.5c9.33301 -6 21.166 -9.5 35.499 -10.5
s31.833 -1.5 52.5 -1.5c4 0 11.5 0.166992 22.5 0.5s22.167 0.833008 33.5 1.5h7h6c9.33301 0.666992 17.833 1.16699 25.5 1.5s13.5 0.5 17.5 0.5l53 250h94l-115 -539h-94l48 223c-10 -0.666992 -20.167 -1.16699 -30.5 -1.5s-20.833 -0.5 -31.5 -0.5
c-10.667 -0.666992 -21.167 -1 -31.5 -1h-30.5c-45.333 0 -85.666 5.16699 -120.999 15.5s-53 37.833 -53 82.5c0 6 0.5 12.333 1.5 19s2.16699 13.667 3.5 21l38 181v0z" />
    <glyph glyph-name="divide" unicode="&#x447;" horiz-adv-x="539" 
d="M104 539l90 -0.000976562l-35 -166c-0.666992 -4 -1.5 -8.16699 -2.5 -12.5s-1.83301 -8.83301 -2.5 -13.5c-0.666992 -2 -1 -4.16699 -1 -6.5v-6.5c0 -7.33301 1.5 -14.166 4.5 -20.499s8.16699 -11.833 15.5 -16.5c9.33301 -6 21.166 -9.5 35.499 -10.5
s31.833 -1.5 52.5 -1.5c4 0 11.5 0.166992 22.5 0.5s22.167 0.833008 33.5 1.5h7h6c9.33301 0.666992 17.833 1.16699 25.5 1.5s13.5 0.5 17.5 0.5l53 250h94l-115 -539h-94l48 223c-10 -0.666992 -20.167 -1.16699 -30.5 -1.5s-20.833 -0.5 -31.5 -0.5
c-10.667 -0.666992 -21.167 -1 -31.5 -1h-30.5c-45.333 0 -85.666 5.16699 -120.999 15.5s-53 37.833 -53 82.5c0 6 0.5 12.333 1.5 19s2.16699 13.667 3.5 21l38 181v0z" />
    <glyph glyph-name="oslash" unicode="&#xf8;" horiz-adv-x="882" 
d="M126 66h224l101 473h94l-101 -473h224l101 473h94l-115 -539h-729l114 539h94l-101 -473v0z" />
    <glyph glyph-name="oslash" unicode="&#x448;" horiz-adv-x="882" 
d="M126 66h224l101 473h94l-101 -473h224l101 473h94l-115 -539h-729l114 539h94l-101 -473v0z" />
    <glyph glyph-name="ugrave" unicode="&#xf9;" horiz-adv-x="901" 
d="M127 66h224l100 473h94l-100 -473h224l100 473h94l-101 -473h92l-53 -206h-78l30 140h-734l115 539h93l-100 -473v0z" />
    <glyph glyph-name="ugrave" unicode="&#x449;" horiz-adv-x="901" 
d="M127 66h224l100 473h94l-100 -473h224l100 473h94l-101 -473h92l-53 -206h-78l30 140h-734l115 539h93l-100 -473v0z" />
    <glyph glyph-name="uacute" unicode="&#xfa;" horiz-adv-x="630" 
d="M57 473l14.999 66.001h232l-45 -214l128 2c10.667 0 23.167 -0.333008 37.5 -1s28.833 -2.33398 43.5 -5.00098c28 -6 53.667 -19 77 -39s35 -52.667 35 -98c0 -57.333 -21.167 -102.333 -63.5 -135s-93.166 -49 -152.499 -49h-268l100 473h-139v0zM244.999 259.001
l-40.999 -192.999h130c44 0 76.333 7 97 21s34.667 29.667 42 47c3.33301 8 5.66602 15.833 6.99902 23.5s2 14.5 2 20.5c0 33.333 -10.333 55.666 -31 66.999s-48 17 -82 17h-2.5h-2.5h-2.5h-2.5l-114 -3v0z" />
    <glyph glyph-name="uacute" unicode="&#x44a;" horiz-adv-x="630" 
d="M57 473l14.999 66.001h232l-45 -214l128 2c10.667 0 23.167 -0.333008 37.5 -1s28.833 -2.33398 43.5 -5.00098c28 -6 53.667 -19 77 -39s35 -52.667 35 -98c0 -57.333 -21.167 -102.333 -63.5 -135s-93.166 -49 -152.499 -49h-268l100 473h-139v0zM244.999 259.001
l-40.999 -192.999h130c44 0 76.333 7 97 21s34.667 29.667 42 47c3.33301 8 5.66602 15.833 6.99902 23.5s2 14.5 2 20.5c0 33.333 -10.333 55.666 -31 66.999s-48 17 -82 17h-2.5h-2.5h-2.5h-2.5l-114 -3v0z" />
    <glyph glyph-name="ucircumflex" unicode="&#xfb;" horiz-adv-x="757" 
d="M134 539l93.999 0.000976562l-46 -214l128 2c10.667 0 23.167 -0.333008 37.5 -1s28.833 -2.33398 43.5 -5.00098c28 -6 53.667 -19 77 -39s35 -52.667 35 -98c0 -57.333 -21.167 -102.333 -63.5 -135s-93.166 -49 -152.499 -49h-268l115 539v0zM167.999 259.001
l-41 -192.999h130h3.5h2.5c8 0 17 0.5 27 1.5s20 2.83301 30 5.5c21.333 5.33301 40.833 16 58.5 32s26.5 40.333 26.5 73c0 29.333 -8.83301 50.666 -26.5 63.999s-47.167 20 -88.5 20h-2h-2h-2h-2l-114 -3v0zM643.999 539.002h94l-114 -539h-94l114 539v0z" />
    <glyph glyph-name="ucircumflex" unicode="&#x44b;" horiz-adv-x="757" 
d="M134 539l93.999 0.000976562l-46 -214l128 2c10.667 0 23.167 -0.333008 37.5 -1s28.833 -2.33398 43.5 -5.00098c28 -6 53.667 -19 77 -39s35 -52.667 35 -98c0 -57.333 -21.167 -102.333 -63.5 -135s-93.166 -49 -152.499 -49h-268l115 539v0zM167.999 259.001
l-41 -192.999h130h3.5h2.5c8 0 17 0.5 27 1.5s20 2.83301 30 5.5c21.333 5.33301 40.833 16 58.5 32s26.5 40.333 26.5 73c0 29.333 -8.83301 50.666 -26.5 63.999s-47.167 20 -88.5 20h-2h-2h-2h-2l-114 -3v0zM643.999 539.002h94l-114 -539h-94l114 539v0z" />
    <glyph glyph-name="udieresis" unicode="&#xfc;" horiz-adv-x="549" 
d="M133 539l94 0.000976562l-45 -214l128 2c10.667 0 23.167 -0.333008 37.5 -1s28.833 -2.33398 43.5 -5.00098c28 -6 53.667 -19 77 -39s35 -52.667 35 -98c0 -46.667 -18.5 -89 -55.5 -127s-90.833 -57 -161.5 -57h-267l114 539v0zM168 259.001l-41 -192.999h129
c44.667 0 77.334 7 98.001 21s34.667 29.667 42 47c3.33301 8 5.66602 15.833 6.99902 23.5s2 14.5 2 20.5c0 33.333 -10.5 55.666 -31.5 66.999s-48.167 17 -81.5 17h-2.5h-2.5h-2.5h-2.5l-114 -3v0z" />
    <glyph glyph-name="udieresis" unicode="&#x44c;" horiz-adv-x="549" 
d="M133 539l94 0.000976562l-45 -214l128 2c10.667 0 23.167 -0.333008 37.5 -1s28.833 -2.33398 43.5 -5.00098c28 -6 53.667 -19 77 -39s35 -52.667 35 -98c0 -46.667 -18.5 -89 -55.5 -127s-90.833 -57 -161.5 -57h-267l114 539v0zM168 259.001l-41 -192.999h129
c44.667 0 77.334 7 98.001 21s34.667 29.667 42 47c3.33301 8 5.66602 15.833 6.99902 23.5s2 14.5 2 20.5c0 33.333 -10.5 55.666 -31.5 66.999s-48.167 17 -81.5 17h-2.5h-2.5h-2.5h-2.5l-114 -3v0z" />
    <glyph glyph-name="yacute" unicode="&#xfd;" horiz-adv-x="586" 
d="M204 247l14.001 66.0029h231c2.66699 12 4.66699 23.167 6 33.5s2 19.833 2 28.5c0 32.667 -6.83301 57.167 -20.5 73.5s-28.834 27.5 -45.501 33.5c-10.667 4.66699 -21.167 7.5 -31.5 8.5s-18.5 1.5 -24.5 1.5c-47.333 0 -86.833 -11 -118.5 -33
s-53.167 -51.667 -64.5 -89h-92c16 50.667 38.167 89 66.5 115s57.833 44.333 88.5 55c21.333 7.33301 42.333 12.166 63 14.499s39.334 3.5 56.001 3.5c11.333 0 23.5 -0.5 36.5 -1.5s25.833 -3.16699 38.5 -6.5c35.333 -8 67.666 -25.833 96.999 -53.5
s44 -73.834 44 -138.501c0 -20.667 -1.83301 -45 -5.5 -73s-10.167 -56.333 -19.5 -85c-18 -54.667 -49.167 -104.667 -93.5 -150s-109.5 -68 -195.5 -68c-74 0 -126.167 13.667 -156.5 41s-48.833 57.666 -55.5 90.999c-2 8.66699 -3.33301 17 -4 25s-1 15.667 -1 23v13.5
c0 4.33301 0.333008 8.5 1 12.5l89 -1c0 -2 -0.166992 -4 -0.5 -6s-0.5 -4 -0.5 -6c-0.666992 -2.66699 -1 -5 -1 -7v-6c0 -28.667 9.83301 -55 29.5 -79s52.834 -36 99.501 -36c10.667 0 21.667 0.833008 33 2.5s22.666 4.5 33.999 8.5c26.667 9.33301 52.167 28 76.5 56
s43.5 72.333 57.5 133h-233v0z" />
    <glyph glyph-name="yacute" unicode="&#x44d;" horiz-adv-x="586" 
d="M204 247l14.001 66.0029h231c2.66699 12 4.66699 23.167 6 33.5s2 19.833 2 28.5c0 32.667 -6.83301 57.167 -20.5 73.5s-28.834 27.5 -45.501 33.5c-10.667 4.66699 -21.167 7.5 -31.5 8.5s-18.5 1.5 -24.5 1.5c-47.333 0 -86.833 -11 -118.5 -33
s-53.167 -51.667 -64.5 -89h-92c16 50.667 38.167 89 66.5 115s57.833 44.333 88.5 55c21.333 7.33301 42.333 12.166 63 14.499s39.334 3.5 56.001 3.5c11.333 0 23.5 -0.5 36.5 -1.5s25.833 -3.16699 38.5 -6.5c35.333 -8 67.666 -25.833 96.999 -53.5
s44 -73.834 44 -138.501c0 -20.667 -1.83301 -45 -5.5 -73s-10.167 -56.333 -19.5 -85c-18 -54.667 -49.167 -104.667 -93.5 -150s-109.5 -68 -195.5 -68c-74 0 -126.167 13.667 -156.5 41s-48.833 57.666 -55.5 90.999c-2 8.66699 -3.33301 17 -4 25s-1 15.667 -1 23v13.5
c0 4.33301 0.333008 8.5 1 12.5l89 -1c0 -2 -0.166992 -4 -0.5 -6s-0.5 -4 -0.5 -6c-0.666992 -2.66699 -1 -5 -1 -7v-6c0 -28.667 9.83301 -55 29.5 -79s52.834 -36 99.501 -36c10.667 0 21.667 0.833008 33 2.5s22.666 4.5 33.999 8.5c26.667 9.33301 52.167 28 76.5 56
s43.5 72.333 57.5 133h-233v0z" />
    <glyph glyph-name="thorn" unicode="&#xfe;" horiz-adv-x="833" 
d="M180 316l87.001 0.000976562l6.5 23c2.33301 8 5.16602 16 8.49902 24c19.333 49.333 52.5 94.666 99.5 135.999s111.833 62 194.5 62c79.333 0 135.833 -21.333 169.5 -64s50.5 -97.334 50.5 -164.001c0 -19.333 -1.66699 -40.333 -5 -63s-9 -45.667 -17 -69
c-18.667 -55.333 -51.5 -106 -98.5 -152s-113.833 -69 -200.5 -69c-77.333 0 -131.833 17.5 -163.5 52.5s-50.834 73.833 -57.501 116.5c-1.33301 8.66699 -2.33301 17.334 -3 26.001s-1 17 -1 25c0 9.33301 0.333008 18.333 1 27s1.33398 16.667 2.00098 24h-87l-53 -251
h-94l115 539h94l-48 -223v0zM356.001 261.001c-0.666992 -4.66699 -1.33398 -9.66699 -2.00098 -15s-1.33398 -10.333 -2.00098 -15c0 -5.33301 -0.166992 -10.5 -0.5 -15.5s-0.5 -10.167 -0.5 -15.5c0 -44.667 10.167 -81.667 30.5 -111s53.833 -44 100.5 -44
c53.333 0 95 16.333 125 49s52 68.667 66 108c8.66699 25.333 14.834 50 18.501 74s5.5 43.333 5.5 58c0 5.33301 -0.166992 10.833 -0.5 16.5s-0.833008 11.5 -1.5 17.5c-3.33301 31.333 -14.166 60.166 -32.499 86.499s-50.833 39.5 -97.5 39.5
c-49.333 0 -88.333 -14.5 -117 -43.5s-50.334 -60.833 -65.001 -95.5c-7.33301 -17.333 -13.166 -34.166 -17.499 -50.499s-7.5 -30.833 -9.5 -43.5v0z" />
    <glyph glyph-name="thorn" unicode="&#x44e;" horiz-adv-x="833" 
d="M180 316l87.001 0.000976562l6.5 23c2.33301 8 5.16602 16 8.49902 24c19.333 49.333 52.5 94.666 99.5 135.999s111.833 62 194.5 62c79.333 0 135.833 -21.333 169.5 -64s50.5 -97.334 50.5 -164.001c0 -19.333 -1.66699 -40.333 -5 -63s-9 -45.667 -17 -69
c-18.667 -55.333 -51.5 -106 -98.5 -152s-113.833 -69 -200.5 -69c-77.333 0 -131.833 17.5 -163.5 52.5s-50.834 73.833 -57.501 116.5c-1.33301 8.66699 -2.33301 17.334 -3 26.001s-1 17 -1 25c0 9.33301 0.333008 18.333 1 27s1.33398 16.667 2.00098 24h-87l-53 -251
h-94l115 539h94l-48 -223v0zM356.001 261.001c-0.666992 -4.66699 -1.33398 -9.66699 -2.00098 -15s-1.33398 -10.333 -2.00098 -15c0 -5.33301 -0.166992 -10.5 -0.5 -15.5s-0.5 -10.167 -0.5 -15.5c0 -44.667 10.167 -81.667 30.5 -111s53.833 -44 100.5 -44
c53.333 0 95 16.333 125 49s52 68.667 66 108c8.66699 25.333 14.834 50 18.501 74s5.5 43.333 5.5 58c0 5.33301 -0.166992 10.833 -0.5 16.5s-0.833008 11.5 -1.5 17.5c-3.33301 31.333 -14.166 60.166 -32.499 86.499s-50.833 39.5 -97.5 39.5
c-49.333 0 -88.333 -14.5 -117 -43.5s-50.334 -60.833 -65.001 -95.5c-7.33301 -17.333 -13.166 -34.166 -17.499 -50.499s-7.5 -30.833 -9.5 -43.5v0z" />
    <glyph glyph-name="ydieresis" unicode="&#xff;" horiz-adv-x="556" 
d="M263 212l-172 -212h-110l184 213c-39.333 5.33301 -68.5 19.333 -87.5 42s-28.5 53.667 -28.5 93c0 54 18.667 99.333 56 136s91.333 55 162 55h270l-115 -539h-94l45 212h-110v0zM429 473l-133.999 0.000976562c-8 0 -17.833 -0.333008 -29.5 -1
s-23.5 -2.33398 -35.5 -5.00098c-20.667 -5.33301 -39.834 -15.666 -57.501 -30.999s-26.5 -40.333 -26.5 -75c0 -24.667 7.16699 -44.834 21.5 -60.501s43.833 -23.5 88.5 -23.5h131l42 196v0z" />
    <glyph glyph-name="ydieresis" unicode="&#x44f;" horiz-adv-x="556" 
d="M263 212l-172 -212h-110l184 213c-39.333 5.33301 -68.5 19.333 -87.5 42s-28.5 53.667 -28.5 93c0 54 18.667 99.333 56 136s91.333 55 162 55h270l-115 -539h-94l45 212h-110v0zM429 473l-133.999 0.000976562c-8 0 -17.833 -0.333008 -29.5 -1
s-23.5 -2.33398 -35.5 -5.00098c-20.667 -5.33301 -39.834 -15.666 -57.501 -30.999s-26.5 -40.333 -26.5 -75c0 -24.667 7.16699 -44.834 21.5 -60.501s43.833 -23.5 88.5 -23.5h131l42 196v0z" />
    <glyph glyph-name="Abreve" unicode="&#x102;" 
 />
    <glyph glyph-name="abreve" unicode="&#x103;" 
 />
    <glyph glyph-name="Aogonek" unicode="&#x104;" 
 />
    <glyph glyph-name="aogonek" unicode="&#x105;" 
 />
    <glyph glyph-name="Cacute" unicode="&#x106;" 
 />
    <glyph glyph-name="cacute" unicode="&#x107;" 
 />
    <glyph glyph-name="Ccaron" unicode="&#x10c;" 
 />
    <glyph glyph-name="ccaron" unicode="&#x10d;" 
 />
    <glyph glyph-name="Dcaron" unicode="&#x10e;" 
 />
    <glyph glyph-name="dcaron" unicode="&#x10f;" 
 />
    <glyph glyph-name="Dslash" unicode="&#x110;" 
 />
    <glyph glyph-name="dslash" unicode="&#x111;" 
 />
    <glyph glyph-name="Eogonek" unicode="&#x118;" 
 />
    <glyph glyph-name="eogonek" unicode="&#x119;" 
 />
    <glyph glyph-name="Ecaron" unicode="&#x11a;" 
 />
    <glyph glyph-name="ecaron" unicode="&#x11b;" 
 />
    <glyph glyph-name="Gbreve" unicode="&#x11e;" 
 />
    <glyph glyph-name="gbreve" unicode="&#x11f;" 
 />
    <glyph glyph-name="Idot" unicode="&#x130;" 
 />
    <glyph glyph-name="dotlessi" unicode="&#x131;" horiz-adv-x="248" 
d="M134 539h95l-115 -539h-95l115 539v0z" />
    <glyph glyph-name="Lacute" unicode="&#x139;" 
 />
    <glyph glyph-name="lacute" unicode="&#x13a;" 
 />
    <glyph glyph-name="Lcaron" unicode="&#x13d;" 
 />
    <glyph glyph-name="lcaron" unicode="&#x13e;" 
 />
    <glyph glyph-name="Ldot" unicode="&#x13f;" 
 />
    <glyph glyph-name="ldot" unicode="&#x140;" 
 />
    <glyph glyph-name="Lslash" unicode="&#x141;" horiz-adv-x="742" 
d="M302 371c0 26.667 8.66699 48 26 64s36.333 25 57 27h4h4c25.333 0 46.833 -8.66699 64.5 -26s26.5 -39 26.5 -65c0 -24.667 -8.66699 -46 -26 -64s-39 -27 -65 -27c-25.333 0 -46.833 9 -64.5 27s-26.5 39.333 -26.5 64v0z" />
    <glyph glyph-name="lslash" unicode="&#x142;" horiz-adv-x="742" 
d="M302 371c0 26.667 8.66699 48 26 64s36.333 25 57 27h4h4c25.333 0 46.833 -8.66699 64.5 -26s26.5 -39 26.5 -65c0 -24.667 -8.66699 -46 -26 -64s-39 -27 -65 -27c-25.333 0 -46.833 9 -64.5 27s-26.5 39.333 -26.5 64v0z" />
    <glyph glyph-name="Nacute" unicode="&#x143;" 
 />
    <glyph glyph-name="nacute" unicode="&#x144;" 
 />
    <glyph glyph-name="Ncaron" unicode="&#x147;" 
 />
    <glyph glyph-name="ncaron" unicode="&#x148;" 
 />
    <glyph glyph-name="Odblacute" unicode="&#x150;" 
 />
    <glyph glyph-name="odblacute" unicode="&#x151;" 
 />
    <glyph glyph-name="OE" unicode="&#x152;" horiz-adv-x="1209" 
d="M751 742l529 -0.00195312l-19 -84h-429l-49 -233h389l-18 -84h-389l-54 -257h441l-18 -84h-541l17 79c-13.333 -13.333 -26.666 -25.166 -39.999 -35.499s-27 -19.166 -41 -26.499c-32 -16 -63.333 -26.333 -94 -31s-57.667 -7 -81 -7c-16 0 -35.667 1 -59 3
s-47.333 7.33301 -72 16c-42 13.333 -80.333 40.5 -115 81.5s-52 106.167 -52 195.5v11.5v11.5c4.66699 116 42.667 222.5 114 319.5s178.666 145.5 321.999 145.5c60 0 106 -8 138 -24s56 -33.667 72 -53c6.66699 -8 12.167 -16 16.5 -24s7.83301 -15.333 10.5 -22l22 102
v0zM365 61.998c88 0 156.331 29.166 204.998 87.499s81.334 122.833 98.001 193.5c5.33301 20.667 9.16602 41.334 11.499 62.001s3.5 40.667 3.5 60c0 84 -20.167 140.833 -60.5 170.5s-87.166 44.5 -140.499 44.5c-95.333 0 -172.333 -38.5 -231 -115.5
s-88 -167.167 -88 -270.5v-1.5v-0.5c0 -10 0.666992 -25.167 2 -45.5s6 -41.833 14 -64.5c10.667 -30 29.834 -57.5 57.501 -82.5s70.5 -37.5 128.5 -37.5v0z" />
    <glyph glyph-name="oe" unicode="&#x153;" horiz-adv-x="1028" 
d="M863 156l93.0029 0.00390625c-14.667 -37.333 -32.334 -67.333 -53.001 -90s-42 -40 -64 -52c-24.667 -13.333 -48.667 -21.666 -72 -24.999s-42 -5 -56 -5c-51.333 0 -95.5 7 -132.5 21s-66.167 43.667 -87.5 89c-13.333 -22 -28.833 -40.167 -46.5 -54.5
s-35.5 -25.833 -53.5 -34.5c-26.667 -11.333 -52.167 -18.333 -76.5 -21s-41.833 -4 -52.5 -4c-62.667 0 -109.5 11.833 -140.5 35.5s-52.833 50.167 -65.5 79.5c-8.66699 21.333 -14 41.833 -16 61.5s-3 34.167 -3 43.5c0 16 1 32.5 3 49.5s5 34.167 9 51.5
c16 64.667 48.833 124.167 98.5 178.5s119.834 81.5 210.501 81.5c12 0 25.333 -0.666992 40 -2s29.667 -4.33301 45 -9c21.333 -6.66699 41.666 -17.667 60.999 -33s35 -37.333 47 -66c17.333 21.333 35.166 38.666 53.499 51.999s36.833 23.666 55.5 30.999
c24 9.33301 47.5 15.333 70.5 18s44.833 4 65.5 4c61.333 0 105.666 -11.833 132.999 -35.5s45.333 -49.834 54 -78.501c4 -13.333 6.66699 -26.5 8 -39.5s2 -24.833 2 -35.5c0 -22.667 -1.16699 -44.167 -3.5 -64.5s-5.16602 -38.5 -8.49902 -54.5h-417
c-1.33301 -8 -2.5 -16.833 -3.5 -26.5s-1.5 -19.834 -1.5 -30.501c0 -4.66699 0.166992 -9.16699 0.5 -13.5s0.5 -8.83301 0.5 -13.5c3.33301 -28.667 14.333 -55 33 -79s51.667 -36 99 -36c41.333 0 74.166 7.66699 98.499 23s42.833 32.333 55.5 51l9.5 17
c3 5.33301 5.5 10.666 7.5 15.999v0zM143.003 261.004c-0.666992 -4.66699 -1.33203 -9.66797 -1.99902 -15.001s-1.33398 -10.333 -2.00098 -15c0 -5.33301 -0.166992 -10.5 -0.5 -15.5s-0.5 -10.167 -0.5 -15.5c0 -44.667 10.167 -81.667 30.5 -111s53.833 -44 100.5 -44
c59.333 0 105.333 20.5 138 61.5s54.667 86.167 66 135.5c4 16 6.83301 31.833 8.5 47.5s2.5 30.5 2.5 44.5c0 46 -10 84.167 -30 114.5s-54 45.5 -102 45.5c-49.333 0 -88.333 -14.5 -117 -43.5s-50.334 -60.833 -65.001 -95.5
c-7.33301 -17.333 -13.166 -34.166 -17.499 -50.499s-7.5 -30.833 -9.5 -43.5v0zM579.005 314.003h316.999c1.33301 6 2.5 12.333 3.5 19s1.5 13.334 1.5 20.001c0.666992 2.66699 1 5.16699 1 7.5v6.5c0 39.333 -8.16699 67.666 -24.5 84.999
s-34.166 28.666 -53.499 33.999c-7.33301 2 -14.5 3.33301 -21.5 4s-13.5 1 -19.5 1c-58.667 0 -104.667 -18.167 -138 -54.5s-55 -76.166 -65 -119.499c-0.666992 -0.666992 -1 -1.16699 -1 -1.5v-1.5v0z" />
    <glyph glyph-name="Racute" unicode="&#x154;" 
 />
    <glyph glyph-name="racute" unicode="&#x155;" 
 />
    <glyph glyph-name="Rcaron" unicode="&#x158;" 
 />
    <glyph glyph-name="rcaron" unicode="&#x159;" 
 />
    <glyph glyph-name="Sacute" unicode="&#x15a;" 
 />
    <glyph glyph-name="sacute" unicode="&#x15b;" 
 />
    <glyph glyph-name="Scedilla" unicode="&#x15e;" 
 />
    <glyph glyph-name="scedilla" unicode="&#x15f;" 
 />
    <glyph glyph-name="Scaron" unicode="&#x160;" 
 />
    <glyph glyph-name="scaron" unicode="&#x161;" horiz-adv-x="742" 
d="M302 371c0 26.667 8.66699 48 26 64s36.333 25 57 27h4h4c25.333 0 46.833 -8.66699 64.5 -26s26.5 -39 26.5 -65c0 -24.667 -8.66699 -46 -26 -64s-39 -27 -65 -27c-25.333 0 -46.833 9 -64.5 27s-26.5 39.333 -26.5 64v0z" />
    <glyph glyph-name="Tcedilla" unicode="&#x162;" 
 />
    <glyph glyph-name="tcedilla" unicode="&#x163;" 
 />
    <glyph glyph-name="Tcaron" unicode="&#x164;" 
 />
    <glyph glyph-name="tcaron" unicode="&#x165;" 
 />
    <glyph glyph-name="Uring" unicode="&#x16e;" 
 />
    <glyph glyph-name="uring" unicode="&#x16f;" 
 />
    <glyph glyph-name="udblacute" unicode="&#x170;" 
 />
    <glyph glyph-name="Udblacute" unicode="&#x171;" 
 />
    <glyph glyph-name="Ydieresis" unicode="&#x178;" horiz-adv-x="742" 
d="M302 371c0 26.667 8.66699 48 26 64s36.333 25 57 27h4h4c25.333 0 46.833 -8.66699 64.5 -26s26.5 -39 26.5 -65c0 -24.667 -8.66699 -46 -26 -64s-39 -27 -65 -27c-25.333 0 -46.833 9 -64.5 27s-26.5 39.333 -26.5 64v0z" />
    <glyph glyph-name="Zacute" unicode="&#x179;" 
 />
    <glyph glyph-name="zacute" unicode="&#x17a;" 
 />
    <glyph glyph-name="Zdot" unicode="&#x17b;" 
 />
    <glyph glyph-name="zdot" unicode="&#x17c;" 
 />
    <glyph glyph-name="Zcaron" unicode="&#x17d;" 
 />
    <glyph glyph-name="zcaron" unicode="&#x17e;" 
 />
    <glyph glyph-name="florin" unicode="&#x192;" horiz-adv-x="742" 
d="M302 371c0 26.667 8.66699 48 26 64s36.333 25 57 27h4h4c25.333 0 46.833 -8.66699 64.5 -26s26.5 -39 26.5 -65c0 -24.667 -8.66699 -46 -26 -64s-39 -27 -65 -27c-25.333 0 -46.833 9 -64.5 27s-26.5 39.333 -26.5 64v0z" />
    <glyph glyph-name="hungarumlaut" unicode="&#x2ba;" horiz-adv-x="742" 
d="M302 371c0 26.667 8.66699 48 26 64s36.333 25 57 27h4h4c25.333 0 46.833 -8.66699 64.5 -26s26.5 -39 26.5 -65c0 -24.667 -8.66699 -46 -26 -64s-39 -27 -65 -27c-25.333 0 -46.833 9 -64.5 27s-26.5 39.333 -26.5 64v0z" />
    <glyph glyph-name="tilde" unicode="&#x2c6;" horiz-adv-x="0" 
d="M235 742l62.002 -0.00195312c-12.667 -31.333 -29 -57.166 -49 -77.499s-46 -30.5 -78 -30.5c-8.66699 0 -16.667 0.666992 -24 2s-14.666 3.33301 -21.999 6c-9.33301 3.33301 -18.833 7.33301 -28.5 12l-31.5 16c-8 4 -16.667 7.66699 -26 11s-19 5 -29 5
c-14.667 0 -27 -3 -37 -9s-18.333 -16.667 -25 -32h-63c10 26.667 25.833 50.834 47.5 72.501s48.167 32.5 79.5 32.5c17.333 0 31.5 -2 42.5 -6s21.833 -8.66699 32.5 -14l11 -6.5l13 -7.5l4 -2l4 -2c6.66699 -3.33301 14.667 -6.5 24 -9.5s18.666 -4.5 27.999 -4.5
c13.333 0 26.166 3.83301 38.499 11.5s21.166 18.5 26.499 32.5v0z" />
    <glyph glyph-name="caron" unicode="&#x2c7;" horiz-adv-x="0" 
d="M157 602h-147l-96 140h94l80 -105l118 105h100l-149 -140v0z" />
    <glyph glyph-name="macron" unicode="&#x2c9;" horiz-adv-x="341" 
d="M251 742h99l-158 -742h-99l158 742v0zM176 819l21 98h113l-21 -98h-113v0zM345 819l21 98h112l-21 -98h-112v0z" />
    <glyph glyph-name="breve" unicode="&#x2d8;" horiz-adv-x="0" 
d="M-91 742l77.999 -0.00292969v-6.5v-8.5c0 -3.33301 0.166992 -6.66602 0.5 -9.99902s1.16602 -6.66602 2.49902 -9.99902c3.33301 -12 11 -23.167 23 -33.5s32 -15.5 60 -15.5c30.667 0 56.834 7.5 78.501 22.5s35.834 35.5 42.501 61.5h79
c-11.333 -30.667 -25.5 -55.167 -42.5 -73.5s-34.5 -32.5 -52.5 -42.5c-20 -10.667 -39.5 -17.334 -58.5 -20.001s-33.833 -4 -44.5 -4c-55.333 0 -95 10.833 -119 32.5s-38.667 45.167 -44 70.5c-0.666992 4.66699 -1.16699 9.33398 -1.5 14.001s-0.5 9.33398 -0.5 14.001
v4.5v4.5h-1z" />
    <glyph glyph-name="dotaccent" unicode="&#x2d9;" horiz-adv-x="1" 
d="M-189 -196l23.9971 46c2.66699 0 5.16699 -0.333008 7.5 -1s4.5 -1 6.5 -1c7.33301 -2 14.333 -3.16699 21 -3.5s11.667 -0.5 15 -0.5c16.667 0 29.334 2.16699 38.001 6.5s14.667 9.16602 18 14.499c2 2.66699 3.33301 5.33398 4 8.00098s1 5 1 7
c0 7.33301 -3.33301 14.166 -10 20.499s-20.667 9.5 -42 9.5h-5h-2v0v0c-0.666992 -0.666992 -1.5 -1 -2.5 -1h-5.5l-14 -1l21 42c44 0.666992 73.833 -4.5 89.5 -15.5s24.834 -23.167 27.501 -36.5c0.666992 -3.33301 1.16699 -6.5 1.5 -9.5s0.5 -6.16699 0.5 -9.5
c0 -31.333 -12 -52.5 -36 -63.5s-52 -16.5 -84 -16.5c-5.33301 0 -13.666 0.333008 -24.999 1s-27.333 2.33398 -48 5.00098z" />
    <glyph glyph-name="ring" unicode="&#x2da;" horiz-adv-x="0" 
d="M-26 672c0.666992 26.667 10.5 49.667 29.5 69s41.833 29 68.5 29s49.667 -9.5 69 -28.5s29 -42.167 29 -69.5s-9.66699 -50.5 -29 -69.5s-42.333 -28.5 -69 -28.5s-49.5 9.66699 -68.5 29s-28.5 42.333 -28.5 69h-1zM16 672c0 -14.667 5.5 -27.667 16.5 -39
s24.167 -17 39.5 -17c2.66699 0 5.16699 0.166992 7.5 0.5s4.83301 0.833008 7.5 1.5c10 3.33301 19.333 9.5 28 18.5s13 20.833 13 35.5s-4.33301 26.5 -13 35.5s-18 15.167 -28 18.5c-2.66699 0.666992 -5.16699 1.16699 -7.5 1.5s-4.83301 0.5 -7.5 0.5
c-15.333 0 -28.5 -5.66699 -39.5 -17s-16.5 -24.333 -16.5 -39v0z" />
    <glyph glyph-name="ogonek" unicode="&#x2db;" horiz-adv-x="742" 
d="M302 371c0 26.667 8.66699 48 26 64s36.333 25 57 27h4h4c25.333 0 46.833 -8.66699 64.5 -26s26.5 -39 26.5 -65c0 -24.667 -8.66699 -46 -26 -64s-39 -27 -65 -27c-25.333 0 -46.833 9 -64.5 27s-26.5 39.333 -26.5 64v0z" />
    <glyph glyph-name="circumflex" unicode="&#x2dc;" horiz-adv-x="0" 
d="M35 742h147l96 -140h-93l-80 105l-118 -105h-101l149 140v0z" />
    <glyph glyph-name="Gamma" unicode="&#x393;" horiz-adv-x="500" 
 />
    <glyph glyph-name="Theta" unicode="&#x398;" horiz-adv-x="500" 
 />
    <glyph glyph-name="summation" unicode="&#x3a3;" horiz-adv-x="500" 
 />
    <glyph glyph-name="Phi" unicode="&#x3a6;" horiz-adv-x="500" 
 />
    <glyph glyph-name="Omega" unicode="&#x3a9;" horiz-adv-x="500" 
 />
    <glyph glyph-name="alpha" unicode="&#x3b1;" horiz-adv-x="500" 
 />
    <glyph glyph-name="delta" unicode="&#x3b4;" horiz-adv-x="500" 
 />
    <glyph glyph-name="epsilon" unicode="&#x3b5;" horiz-adv-x="500" 
 />
    <glyph glyph-name="pi" unicode="&#x3c0;" horiz-adv-x="500" 
 />
    <glyph glyph-name="sigma" unicode="&#x3c3;" 
 />
    <glyph glyph-name="tau" unicode="&#x3c4;" horiz-adv-x="500" 
 />
    <glyph glyph-name="phi" unicode="&#x3c6;" 
 />
    <glyph glyph-name="endash" unicode="&#x2013;" horiz-adv-x="644" 
d="M77 399h532v-56h-532v56v0z" />
    <glyph glyph-name="emdash" unicode="&#x2014;" horiz-adv-x="882" 
d="M52 249l14 66h770l-14 -66h-770v0z" />
    <glyph glyph-name="underscoredbl" unicode="&#x2017;" horiz-adv-x="500" 
 />
    <glyph glyph-name="quoteleft" unicode="&#x2018;" horiz-adv-x="328" 
d="M291 606l-25 -115.999h-105l26 121c2 8.66699 4.33301 18 7 28s6.33398 20.333 11.001 31c8 19.333 21 37.5 39 54.5s44.667 29.833 80 38.5l-12 -58c-22 -4 -37.167 -11.333 -45.5 -22s-14.166 -21.667 -17.499 -33c-0.666992 -3.33301 -1.33398 -6.5 -2.00098 -9.5
s-1.33398 -6.16699 -2.00098 -9.5s-1.5 -6.83301 -2.5 -10.5s-2.16699 -6.83398 -3.5 -9.50098l-2 -5h54v0z" />
    <glyph glyph-name="quoteright" unicode="&#x2019;" horiz-adv-x="328" 
d="M187 626l24.998 115.999h105l-26 -122c-2 -8.66699 -4.5 -18.834 -7.5 -30.501s-7.5 -23.5 -13.5 -35.5c-9.33301 -18.667 -23 -36 -41 -52s-43 -27 -75 -33l12 57c22.667 6.66699 38.834 16.834 48.501 30.501s16.5 27.834 20.5 42.501
c0.666992 4 1.33398 7.66699 2.00098 11l2 10l1 6h-53v0z" />
    <glyph glyph-name="quotesinglbase" unicode="&#x201a;" horiz-adv-x="329" 
d="M54 0l25 115.997h105l-26 -121c-1.33301 -6.66699 -3 -14 -5 -22s-4.33301 -16 -7 -24c-8 -21.333 -21 -41.666 -39 -60.999s-46.667 -34 -86 -44l12 57c21.333 5.33301 36.833 14.333 46.5 27s16.5 26 20.5 40c1.33301 4.66699 2.5 9.33398 3.5 14.001
s1.83301 9.33398 2.5 14.001l1 4h-53v0z" />
    <glyph glyph-name="quotedblleft" unicode="&#x201c;" horiz-adv-x="447" 
d="M263 606l-25 -115.999h-105l26 121c2 8.66699 4.33301 18 7 28s6.33398 20.333 11.001 31c8 19.333 21 37.5 39 54.5s44.667 29.833 80 38.5l-12 -58c-22 -4 -37.167 -11.333 -45.5 -22s-14.166 -21.667 -17.499 -33c-0.666992 -3.33301 -1.33398 -6.5 -2.00098 -9.5
s-1.33398 -6.16699 -2.00098 -9.5s-1.5 -6.83301 -2.5 -10.5s-2.16699 -6.83398 -3.5 -9.50098l-2 -5h54v0zM438 606.001l-25 -115.999h-105l26 121c2 8.66699 4.33301 18 7 28s6.33398 20.333 11.001 31c8 19.333 21 37.5 39 54.5s44.667 29.833 80 38.5l-12 -58
c-22 -4 -37.167 -11.333 -45.5 -22s-14.166 -21.667 -17.499 -33c-0.666992 -3.33301 -1.33398 -6.5 -2.00098 -9.5s-1.33398 -6.16699 -2.00098 -9.5s-1.5 -6.83301 -2.5 -10.5s-2.16699 -6.83398 -3.5 -9.50098l-2 -5h54v0z" />
    <glyph glyph-name="quotedblright" unicode="&#x201d;" horiz-adv-x="447" 
d="M159 626l24.998 115.999h105l-26 -122c-2 -8.66699 -4.5 -18.834 -7.5 -30.501s-7.5 -23.5 -13.5 -35.5c-9.33301 -18.667 -23 -36 -41 -52s-43 -27 -75 -33l12 57c22.667 6.66699 38.834 16.834 48.501 30.501s16.5 27.834 20.5 42.501
c0.666992 4 1.33398 7.66699 2.00098 11l2 10l1 6h-53v0zM333.998 625.999l24.998 115.999h105l-26 -122c-2 -8.66699 -4.5 -18.834 -7.5 -30.501s-7.5 -23.5 -13.5 -35.5c-9.33301 -18.667 -23 -36 -41 -52s-43 -27 -75 -33l12 57
c22.667 6.66699 38.834 16.834 48.501 30.501s16.5 27.834 20.5 42.501c0.666992 4 1.33398 7.66699 2.00098 11l2 10l1 6h-53v0z" />
    <glyph glyph-name="quotedblbase" unicode="&#x201e;" horiz-adv-x="448" 
d="M26 0l25 115.997h105l-26 -121c-1.33301 -6.66699 -3 -14 -5 -22s-4.66699 -16 -8 -24c-7.33301 -21.333 -20 -41.666 -38 -60.999s-46.333 -34 -85 -44l11 57c21.333 5.33301 36.833 14.333 46.5 27s16.5 26 20.5 40c1.33301 4.66699 2.5 9.33398 3.5 14.001
s1.83301 9.33398 2.5 14.001l1 4h-53v0zM201 -0.00292969l25 115.997h105l-26 -121c-1.33301 -6.66699 -3 -14 -5 -22s-4.33301 -16 -7 -24c-8 -21.333 -21 -41.666 -39 -60.999s-46.667 -34 -86 -44l12 57c21.333 5.33301 36.833 14.333 46.5 27s16.5 26 20.5 40
c1.33301 4.66699 2.5 9.33398 3.5 14.001s1.83301 9.33398 2.5 14.001l1 4h-53v0z" />
    <glyph glyph-name="dagger" unicode="&#x2020;" horiz-adv-x="531" 
d="M324 742h84l-43 -203h196l-16 -73h-196l-141 -662h-84l141 662h-196l16 73h196l43 203v0z" />
    <glyph glyph-name="daggerdbl" unicode="&#x2021;" horiz-adv-x="742" 
d="M302 371c0 26.667 8.66699 48 26 64s36.333 25 57 27h4h4c25.333 0 46.833 -8.66699 64.5 -26s26.5 -39 26.5 -65c0 -24.667 -8.66699 -46 -26 -64s-39 -27 -65 -27c-25.333 0 -46.833 9 -64.5 27s-26.5 39.333 -26.5 64v0z" />
    <glyph glyph-name="bullet" unicode="&#x2022;" horiz-adv-x="742" 
d="M302 371c0 26.667 8.66699 48 26 64s36.333 25 57 27h4h4c25.333 0 46.833 -8.66699 64.5 -26s26.5 -39 26.5 -65c0 -24.667 -8.66699 -46 -26 -64s-39 -27 -65 -27c-25.333 0 -46.833 9 -64.5 27s-26.5 39.333 -26.5 64v0z" />
    <glyph glyph-name="ellipsis" unicode="&#x2026;" horiz-adv-x="987" 
d="M55 0l24 116h105l-24 -116h-105v0zM384 0l24 116h105l-24 -116h-105v0zM713 0l24 116h105l-24 -116h-105v0z" />
    <glyph glyph-name="perthousand" unicode="&#x2030;" horiz-adv-x="964" 
d="M62 350c0 114.667 40.501 213.334 121.501 296.001s180.5 124 298.5 124s217.5 -41.333 298.5 -124s121.5 -181.334 121.5 -296.001s-40.5 -213.167 -121.5 -295.5s-180.5 -123.5 -298.5 -123.5c-114.667 0 -213.334 40.333 -296.001 121s-124 180 -124 298v0z" />
    <glyph glyph-name="guilsinglleft" unicode="&#x2039;" horiz-adv-x="305" 
d="M80 332l188 140l-20 -95l-129 -94l89 -91l-18 -85l-129 138l19 87v0z" />
    <glyph glyph-name="guilsinglright" unicode="&#x203a;" horiz-adv-x="305" 
d="M233 244l-188 -140l20 95l129 94l-89 92l18 85l129 -138l-19 -88v0z" />
    <glyph glyph-name="exclamdbl" unicode="&#x203c;" horiz-adv-x="500" 
 />
    <glyph glyph-name="nsuperior" unicode="&#x207f;" horiz-adv-x="500" 
 />
    <glyph glyph-name="franc" unicode="&#x20a3;" horiz-adv-x="500" 
 />
    <glyph glyph-name="peseta" unicode="&#x20a7;" horiz-adv-x="500" 
 />
    <glyph glyph-name="trademark" unicode="&#x2122;" horiz-adv-x="912" 
d="M140 684h-119v58h320v-58h-120v-313h-81v313v0zM612 371l-108 284h-6l4 -48v-236h-79v371h106l100 -255l9 -38h4l9 38l99 255h106v-371h-79v236l4 48h-5l-109 -284h-55v0z" />
    <glyph glyph-name="arrowleft" unicode="&#x2190;" 
 />
    <glyph glyph-name="arrowup" unicode="&#x2191;" 
 />
    <glyph glyph-name="arrowright" unicode="&#x2192;" horiz-adv-x="500" 
 />
    <glyph glyph-name="arrowdown" unicode="&#x2193;" 
 />
    <glyph glyph-name="arrowboth" unicode="&#x2194;" 
 />
    <glyph glyph-name="arrowupdn" unicode="&#x2195;" 
 />
    <glyph glyph-name="arrowupdnbase" unicode="&#x21a8;" 
 />
    <glyph glyph-name="partialdiff" unicode="&#x2202;" horiz-adv-x="500" 
 />
    <glyph glyph-name="Delta" unicode="&#x2206;" horiz-adv-x="500" 
 />
    <glyph glyph-name="product" unicode="&#x220f;" 
 />
    <glyph glyph-name="minus" unicode="&#x2212;" horiz-adv-x="644" 
d="M77 399h532v-56h-532v56v0z" />
    <glyph glyph-name="fraction" unicode="&#x2215;" horiz-adv-x="742" 
d="M302 371c0 26.667 8.66699 48 26 64s36.333 25 57 27h4h4c25.333 0 46.833 -8.66699 64.5 -26s26.5 -39 26.5 -65c0 -24.667 -8.66699 -46 -26 -64s-39 -27 -65 -27c-25.333 0 -46.833 9 -64.5 27s-26.5 39.333 -26.5 64v0z" />
    <glyph glyph-name="periodcentered" unicode="&#x2219;" horiz-adv-x="329" 
d="M130 226l25 116h105l-25 -116h-105v0z" />
    <glyph glyph-name="radical" unicode="&#x221a;" horiz-adv-x="500" 
 />
    <glyph glyph-name="infinity" unicode="&#x221e;" 
 />
    <glyph glyph-name="orthogonal" unicode="&#x221f;" 
 />
    <glyph glyph-name="intersection" unicode="&#x2229;" 
 />
    <glyph glyph-name="integral" unicode="&#x222b;" 
 />
    <glyph glyph-name="approxequal" unicode="&#x2248;" horiz-adv-x="500" 
 />
    <glyph glyph-name="notequal" unicode="&#x2260;" horiz-adv-x="500" 
 />
    <glyph glyph-name="equivalence" unicode="&#x2261;" 
 />
    <glyph glyph-name="lessequal" unicode="&#x2264;" horiz-adv-x="500" 
 />
    <glyph glyph-name="greaterequal" unicode="&#x2265;" horiz-adv-x="500" 
 />
    <glyph glyph-name="house" unicode="&#x2302;" 
 />
    <glyph glyph-name="revlogicalnot" unicode="&#x2310;" 
 />
    <glyph glyph-name="integraltp" unicode="&#x2320;" 
 />
    <glyph glyph-name="integralbt" unicode="&#x2321;" 
 />
    <glyph glyph-name="2500" unicode="&#x2500;" 
 />
    <glyph glyph-name="2502" unicode="&#x2502;" 
 />
    <glyph glyph-name="250c" unicode="&#x250c;" 
 />
    <glyph glyph-name="2510" unicode="&#x2510;" 
 />
    <glyph glyph-name="2514" unicode="&#x2514;" 
 />
    <glyph glyph-name="2518" unicode="&#x2518;" 
 />
    <glyph glyph-name="251c" unicode="&#x251c;" 
 />
    <glyph glyph-name="2524" unicode="&#x2524;" 
 />
    <glyph glyph-name="252c" unicode="&#x252c;" 
 />
    <glyph glyph-name="2534" unicode="&#x2534;" 
 />
    <glyph glyph-name="253c" unicode="&#x253c;" 
 />
    <glyph glyph-name="2550" unicode="&#x2550;" 
 />
    <glyph glyph-name="2551" unicode="&#x2551;" 
 />
    <glyph glyph-name="2552" unicode="&#x2552;" 
 />
    <glyph glyph-name="2553" unicode="&#x2553;" 
 />
    <glyph glyph-name="2554" unicode="&#x2554;" 
 />
    <glyph glyph-name="2555" unicode="&#x2555;" 
 />
    <glyph glyph-name="2556" unicode="&#x2556;" 
 />
    <glyph glyph-name="2557" unicode="&#x2557;" 
 />
    <glyph glyph-name="2558" unicode="&#x2558;" 
 />
    <glyph glyph-name="2559" unicode="&#x2559;" 
 />
    <glyph glyph-name="255a" unicode="&#x255a;" 
 />
    <glyph glyph-name="255b" unicode="&#x255b;" 
 />
    <glyph glyph-name="255c" unicode="&#x255c;" 
 />
    <glyph glyph-name="255d" unicode="&#x255d;" 
 />
    <glyph glyph-name="255e" unicode="&#x255e;" 
 />
    <glyph glyph-name="255f" unicode="&#x255f;" 
 />
    <glyph glyph-name="2560" unicode="&#x2560;" 
 />
    <glyph glyph-name="2561" unicode="&#x2561;" 
 />
    <glyph glyph-name="2562" unicode="&#x2562;" 
 />
    <glyph glyph-name="2563" unicode="&#x2563;" 
 />
    <glyph glyph-name="2564" unicode="&#x2564;" 
 />
    <glyph glyph-name="2565" unicode="&#x2565;" 
 />
    <glyph glyph-name="2566" unicode="&#x2566;" 
 />
    <glyph glyph-name="2567" unicode="&#x2567;" 
 />
    <glyph glyph-name="2568" unicode="&#x2568;" 
 />
    <glyph glyph-name="2569" unicode="&#x2569;" 
 />
    <glyph glyph-name="256a" unicode="&#x256a;" 
 />
    <glyph glyph-name="256b" unicode="&#x256b;" 
 />
    <glyph glyph-name="256c" unicode="&#x256c;" 
 />
    <glyph glyph-name="upblock" unicode="&#x2580;" 
 />
    <glyph glyph-name="dnblock" unicode="&#x2584;" 
 />
    <glyph glyph-name="block" unicode="&#x2588;" 
 />
    <glyph glyph-name="lfblock" unicode="&#x258c;" 
 />
    <glyph glyph-name="rtblock" unicode="&#x2590;" 
 />
    <glyph glyph-name="ltshade" unicode="&#x2591;" 
 />
    <glyph glyph-name="shade" unicode="&#x2592;" 
 />
    <glyph glyph-name="dkshade" unicode="&#x2593;" 
 />
    <glyph glyph-name="filledbox" unicode="&#x25a0;" horiz-adv-x="500" 
 />
    <glyph glyph-name="filledrect" unicode="&#x25ac;" 
 />
    <glyph glyph-name="triagup" unicode="&#x25b2;" 
 />
    <glyph glyph-name="triagrt" unicode="&#x25ba;" 
 />
    <glyph glyph-name="triagdn" unicode="&#x25bc;" 
 />
    <glyph glyph-name="triaglf" unicode="&#x25c4;" 
 />
    <glyph glyph-name="lozenge" unicode="&#x25ca;" horiz-adv-x="500" 
 />
    <glyph glyph-name="circle" unicode="&#x25cb;" 
 />
    <glyph glyph-name="invbullet" unicode="&#x25d8;" 
 />
    <glyph glyph-name="invcircle" unicode="&#x25d9;" 
 />
    <glyph glyph-name="smileface" unicode="&#x263a;" 
 />
    <glyph glyph-name="invsmileface" unicode="&#x263b;" 
 />
    <glyph glyph-name="sun" unicode="&#x263c;" 
 />
    <glyph glyph-name="female" unicode="&#x2640;" 
 />
    <glyph glyph-name="male" unicode="&#x2642;" 
 />
    <glyph glyph-name="spade" unicode="&#x2660;" 
 />
    <glyph glyph-name="club" unicode="&#x2663;" 
 />
    <glyph glyph-name="heart" unicode="&#x2665;" 
 />
    <glyph glyph-name="diamond" unicode="&#x2666;" 
 />
    <glyph glyph-name="musicalnote" unicode="&#x266a;" 
 />
    <glyph glyph-name="musicalnotedbl" unicode="&#x266b;" 
 />
    <glyph glyph-name="apple" unicode="&#xf000;" 
 />
    <glyph glyph-name="fi" unicode="&#xf001;" horiz-adv-x="742" 
d="M302 371c0 26.667 8.66699 48 26 64s36.333 25 57 27h4h4c25.333 0 46.833 -8.66699 64.5 -26s26.5 -39 26.5 -65c0 -24.667 -8.66699 -46 -26 -64s-39 -27 -65 -27c-25.333 0 -46.833 9 -64.5 27s-26.5 39.333 -26.5 64v0z" />
    <glyph glyph-name="fl" unicode="&#xf002;" horiz-adv-x="742" 
d="M302 371c0 26.667 8.66699 48 26 64s36.333 25 57 27h4h4c25.333 0 46.833 -8.66699 64.5 -26s26.5 -39 26.5 -65c0 -24.667 -8.66699 -46 -26 -64s-39 -27 -65 -27c-25.333 0 -46.833 9 -64.5 27s-26.5 39.333 -26.5 64v0z" />
    <glyph glyph-name="glyph1" horiz-adv-x="0" 
 />
    <glyph glyph-name="glyph2" 
 />
    <glyph glyph-name="degree" horiz-adv-x="281" 
d="M118 641c0 29.333 10.166 53.332 30.499 71.999s42.833 28.334 67.5 29.001h1.5h1.5c28.667 0 52.834 -10.167 72.501 -30.5s29.5 -43.833 29.5 -70.5s-10 -50.334 -30 -71.001s-44 -31 -72 -31c-27.333 0 -51 9.83301 -71 29.5s-30 43.834 -30 72.501v0z
M166.999 640.999c0 -15.333 5.16699 -28 15.5 -38s22.5 -15 36.5 -15c15.333 0 28 5.16699 38 15.5s15 22.833 15 37.5c0 14 -5 26.167 -15 36.5s-22.667 15.5 -38 15.5c-14.667 0 -27 -5.16699 -37 -15.5s-15 -22.5 -15 -36.5v0z" />
    <glyph glyph-name="bullet" horiz-adv-x="742" 
d="M302 371c0 26.667 8.66699 48 26 64s36.333 25 57 27h4h4c25.333 0 46.833 -8.66699 64.5 -26s26.5 -39 26.5 -65c0 -24.667 -8.66699 -46 -26 -64s-39 -27 -65 -27c-25.333 0 -46.833 9 -64.5 27s-26.5 39.333 -26.5 64v0z" />
    <glyph glyph-name="endash" horiz-adv-x="644" 
d="M77 399h532v-56h-532v56v0z" />
  </font>
</defs>
</svg>
